M48
; DRILL file {KiCad 7.0.10-7.0.10~ubuntu22.04.1} date Sun 28 Jan 2024 05:20:25 PM EST
; FORMAT={-:-/ absolute / inch / decimal}
; #@! TF.CreationDate,2024-01-28T17:20:25-05:00
; #@! TF.GenerationSoftware,Kicad,Pcbnew,7.0.10-7.0.10~ubuntu22.04.1
; #@! TF.FileFunction,Plated,1,2,PTH
FMAT,2
INCH
; #@! TA.AperFunction,Plated,PTH,ViaDrill
T1C0.0157
; #@! TA.AperFunction,Plated,PTH,ViaDrill
T2C0.0197
; #@! TA.AperFunction,Plated,PTH,ComponentDrill
T3C0.0354
; #@! TA.AperFunction,Plated,PTH,ComponentDrill
T4C0.0394
; #@! TA.AperFunction,Plated,PTH,ComponentDrill
T5C0.0400
; #@! TA.AperFunction,Plated,PTH,ComponentDrill
T6C0.0402
; #@! TA.AperFunction,Plated,PTH,ComponentDrill
T7C0.0433
; #@! TA.AperFunction,Plated,PTH,ComponentDrill
T8C0.0437
; #@! TA.AperFunction,Plated,PTH,ComponentDrill
T9C0.1260
%
G90
G05
T1
X4.9043Y-3.9705
X5.3299Y-3.3437
X5.3358Y-3.2484
X5.5079Y-3.2665
T2
X4.49Y-4.14
X4.495Y-4.625
X4.56Y-4.45
X4.62Y-4.05
X4.63Y-4.17
X4.72Y-4.25
X4.9Y-4.14
X4.91Y-3.67
X5.02Y-3.754
X5.04Y-4.08
X5.04Y-4.16
X5.04Y-4.22
X5.08Y-3.14
X5.08Y-3.26
X5.0854Y-3.5846
X5.09Y-3.6713
X5.14Y-3.14
X5.14Y-3.26
X5.1923Y-3.66
X5.21Y-3.58
X5.22Y-3.25
X5.22Y-4.16
X5.22Y-4.26
X5.34Y-3.19
X5.34Y-3.6477
X5.34Y-3.71
X5.44Y-3.52
X5.51Y-3.35
X5.51Y-3.53
X5.53Y-3.93
X5.58Y-3.28
X5.59Y-3.1844
X5.63Y-4.03
X5.63Y-4.68
X5.63Y-4.75
X5.64Y-4.3
X5.66Y-2.93
X5.67Y-3.58
X5.67Y-4.52
X5.68Y-3.37
X5.68Y-4.88
X5.69Y-3.0287
X5.69Y-3.75
X5.75Y-4.03
X5.77Y-3.69
X5.79Y-4.68
X5.79Y-4.75
X5.8Y-3.4
X5.8Y-4.88
X5.93Y-3.97
X5.96Y-3.45
X6.05Y-3.97
X6.07Y-4.03
X6.12Y-3.89
X6.15Y-3.58
X6.19Y-3.73
X6.24Y-3.62
X6.3409Y-3.7109
T3
X4.73Y-3.9231
X4.73Y-4.12
X5.03Y-3.91
X5.03Y-4.3116
T4
X4.3815Y-3.9512
X4.3815Y-4.0512
X4.3815Y-4.1512
X4.3815Y-4.2512
X4.3819Y-4.4
X4.3819Y-4.5
X4.3819Y-4.6
X4.3819Y-4.7472
X4.3819Y-4.8472
X4.3819Y-4.9472
X4.3819Y-5.0472
X4.3819Y-5.1472
X4.6224Y-4.62
X4.7224Y-4.62
X4.8224Y-4.62
X4.9224Y-4.62
X5.0224Y-4.62
X5.1224Y-4.62
X5.2224Y-4.62
X5.3224Y-4.62
T5
X5.5289Y-2.6287
X5.5289Y-2.7287
X5.5289Y-2.8287
X5.5289Y-2.9287
X5.5289Y-3.0287
X6.4289Y-2.6287
X6.4289Y-2.7287
X6.4289Y-2.8287
X6.4289Y-2.9287
X6.4289Y-3.0287
T6
X5.1409Y-3.811
X5.1409Y-3.911
X5.1409Y-4.011
X5.1409Y-4.111
X5.1409Y-4.211
X5.1409Y-4.311
X5.1409Y-4.411
X5.2409Y-3.811
X5.2409Y-4.411
X5.3409Y-3.811
X5.3409Y-4.411
X5.4409Y-3.811
X5.4409Y-4.411
X5.5409Y-3.811
X5.5409Y-4.411
X5.6409Y-3.811
X5.6409Y-4.411
X5.7409Y-3.811
X5.7409Y-4.411
X5.8409Y-3.811
X5.8409Y-4.411
X5.9409Y-3.811
X5.9409Y-4.411
X6.0409Y-3.811
X6.0409Y-4.411
X6.1409Y-3.811
X6.1409Y-4.411
X6.2409Y-3.811
X6.2409Y-4.411
X6.3409Y-3.811
X6.3409Y-4.411
X6.4409Y-3.811
X6.4409Y-4.411
T7
X4.3687Y-2.7283
X4.3687Y-2.8283
X4.3687Y-2.9283
X4.3687Y-3.0283
X4.3687Y-3.1283
X5.3687Y-2.3283
X5.3687Y-2.4283
X5.3687Y-2.5283
X5.3687Y-2.6283
X5.3687Y-2.7283
X5.3687Y-2.8283
X5.3687Y-2.9283
X5.3687Y-3.0283
X5.3687Y-3.1283
T8
X5.6Y-5.09
X5.7Y-5.09
X5.8Y-4.59
X5.8Y-5.09
X5.9Y-4.59
X5.9Y-5.09
X6.0Y-4.59
X6.0Y-5.09
X6.1Y-4.59
X6.1Y-5.09
X6.2Y-4.59
X6.2Y-5.09
X6.3Y-5.09
X6.4Y-5.09
T9
X4.6693Y-2.0984
X4.6693Y-5.3465
X6.1693Y-2.0984
X6.1693Y-5.3465
M30
