M48
; DRILL file {KiCad (6.0.7)} date Thu Mar  9 00:32:06 2023
; FORMAT={-:-/ absolute / inch / decimal}
; #@! TF.CreationDate,2023-03-09T00:32:06-05:00
; #@! TF.GenerationSoftware,Kicad,Pcbnew,(6.0.7)
; #@! TF.FileFunction,MixedPlating,1,2
FMAT,2
INCH
; #@! TA.AperFunction,Plated,PTH,ViaDrill
T1C0.0157
; #@! TA.AperFunction,Plated,PTH,ComponentDrill
T2C0.0295
; #@! TA.AperFunction,Plated,PTH,ComponentDrill
T3C0.0315
; #@! TA.AperFunction,Plated,PTH,ComponentDrill
T4C0.0394
; #@! TA.AperFunction,Plated,PTH,ComponentDrill
T5C0.0433
; #@! TA.AperFunction,Plated,PTH,ComponentDrill
T6C0.1457
%
G90
G05
T1
X4.7642Y-5.2224
X4.8488Y-4.2114
X5.2882Y-5.4276
X5.44Y-4.39
T2
X6.2319Y-5.7195
X6.3106Y-5.7195
X6.3894Y-5.7195
X6.4681Y-5.7195
T3
X4.7299Y-4.7772
X4.7299Y-4.8772
X5.2118Y-4.6232
X5.2118Y-4.7019
X5.2118Y-4.7806
X5.2906Y-4.6232
X5.2906Y-4.7019
X5.2906Y-4.7806
T4
X5.4268Y-5.4386
X5.4268Y-5.5386
X5.5268Y-5.4386
X5.5268Y-5.5386
X5.6268Y-5.4386
X5.6268Y-5.5386
X5.7268Y-5.4386
X5.7268Y-5.5386
X5.8268Y-5.4386
X5.8268Y-5.5386
X5.9268Y-5.4386
X5.9268Y-5.5386
X6.0268Y-5.4386
X6.0268Y-5.5386
X6.1268Y-5.4386
X6.1268Y-5.5386
X6.2268Y-5.4386
X6.2268Y-5.5386
T5
X4.7012Y-4.5272
X4.7012Y-5.1272
X4.8012Y-4.5272
X4.8012Y-4.6272
X4.8012Y-5.1272
X4.9012Y-4.5272
X4.9012Y-5.1272
X4.9492Y-5.0071
X5.0012Y-4.5272
X5.0012Y-5.1272
X5.0492Y-5.0071
X5.1012Y-4.5272
X5.1012Y-5.1272
X5.1492Y-5.0071
X5.2012Y-4.5272
X5.2012Y-5.1272
X5.2492Y-5.0071
X5.3012Y-4.5272
X5.3012Y-5.1272
X5.3492Y-5.0071
X5.4012Y-4.5272
X5.4012Y-5.1272
X5.5012Y-4.5272
X5.5012Y-5.1272
X5.6012Y-4.5272
X5.6012Y-5.1272
X5.7012Y-4.5272
X5.7012Y-5.1272
X5.8012Y-4.5272
X5.8012Y-5.1272
X5.9012Y-4.5272
X5.9012Y-5.1272
X6.0012Y-4.5272
X6.0012Y-5.1272
X6.1012Y-4.5272
X6.1012Y-5.1272
X6.2012Y-4.5272
X6.2012Y-5.1272
X6.3012Y-4.5272
X6.3012Y-5.1272
X6.4012Y-4.5272
X6.4012Y-5.1272
X6.5012Y-4.5272
X6.5012Y-4.6272
X6.5012Y-4.7272
X6.5012Y-4.8272
X6.5012Y-4.9272
X6.5012Y-5.0272
X6.5012Y-5.1272
X6.6012Y-4.5272
X6.6012Y-5.1272
X6.7012Y-4.5272
X6.7012Y-5.1272
X6.8012Y-4.5272
X6.8012Y-5.1272
X6.9012Y-4.5272
X6.9012Y-5.1272
X7.0012Y-4.5272
X7.0012Y-5.1272
T6
X4.7433Y-5.4879
X5.8258Y-3.6135
X6.9082Y-5.4878
T0
M30
