%TF.GenerationSoftware,KiCad,Pcbnew,(6.0.7)*%
%TF.CreationDate,2023-03-09T00:32:03-05:00*%
%TF.ProjectId,board_4,626f6172-645f-4342-9e6b-696361645f70,rev?*%
%TF.SameCoordinates,Original*%
%TF.FileFunction,Legend,Top*%
%TF.FilePolarity,Positive*%
%FSLAX46Y46*%
G04 Gerber Fmt 4.6, Leading zero omitted, Abs format (unit mm)*
G04 Created by KiCad (PCBNEW (6.0.7)) date 2023-03-09 00:32:03*
%MOMM*%
%LPD*%
G01*
G04 APERTURE LIST*
%ADD10C,0.300000*%
%ADD11C,0.150000*%
%ADD12C,0.120000*%
%ADD13C,0.100000*%
%ADD14C,0.127000*%
%ADD15C,0.200000*%
G04 APERTURE END LIST*
D10*
%TO.C,*%
D11*
%TO.C,C2*%
X139533333Y-111863142D02*
X139485714Y-111910761D01*
X139342857Y-111958380D01*
X139247619Y-111958380D01*
X139104761Y-111910761D01*
X139009523Y-111815523D01*
X138961904Y-111720285D01*
X138914285Y-111529809D01*
X138914285Y-111386952D01*
X138961904Y-111196476D01*
X139009523Y-111101238D01*
X139104761Y-111006000D01*
X139247619Y-110958380D01*
X139342857Y-110958380D01*
X139485714Y-111006000D01*
X139533333Y-111053619D01*
X139914285Y-111053619D02*
X139961904Y-111006000D01*
X140057142Y-110958380D01*
X140295238Y-110958380D01*
X140390476Y-111006000D01*
X140438095Y-111053619D01*
X140485714Y-111148857D01*
X140485714Y-111244095D01*
X140438095Y-111386952D01*
X139866666Y-111958380D01*
X140485714Y-111958380D01*
%TO.C,U1*%
X154686095Y-122134380D02*
X154686095Y-122943904D01*
X154733714Y-123039142D01*
X154781333Y-123086761D01*
X154876571Y-123134380D01*
X155067047Y-123134380D01*
X155162285Y-123086761D01*
X155209904Y-123039142D01*
X155257523Y-122943904D01*
X155257523Y-122134380D01*
X156257523Y-123134380D02*
X155686095Y-123134380D01*
X155971809Y-123134380D02*
X155971809Y-122134380D01*
X155876571Y-122277238D01*
X155781333Y-122372476D01*
X155686095Y-122420095D01*
X146396666Y-123813333D02*
X145696666Y-123813333D01*
X145696666Y-123646666D01*
X145730000Y-123546666D01*
X145796666Y-123480000D01*
X145863333Y-123446666D01*
X145996666Y-123413333D01*
X146096666Y-123413333D01*
X146230000Y-123446666D01*
X146296666Y-123480000D01*
X146363333Y-123546666D01*
X146396666Y-123646666D01*
X146396666Y-123813333D01*
X145696666Y-123213333D02*
X146396666Y-122980000D01*
X145696666Y-122746666D01*
X145696666Y-122313333D02*
X146196666Y-122313333D01*
X146296666Y-122346666D01*
X146363333Y-122413333D01*
X146396666Y-122513333D01*
X146396666Y-122580000D01*
X145696666Y-121680000D02*
X145696666Y-121813333D01*
X145730000Y-121880000D01*
X145763333Y-121913333D01*
X145863333Y-121980000D01*
X145996666Y-122013333D01*
X146263333Y-122013333D01*
X146330000Y-121980000D01*
X146363333Y-121946666D01*
X146396666Y-121880000D01*
X146396666Y-121746666D01*
X146363333Y-121680000D01*
X146330000Y-121646666D01*
X146263333Y-121613333D01*
X146096666Y-121613333D01*
X146030000Y-121646666D01*
X145996666Y-121680000D01*
X145963333Y-121746666D01*
X145963333Y-121880000D01*
X145996666Y-121946666D01*
X146030000Y-121980000D01*
X146096666Y-122013333D01*
X146196666Y-121346666D02*
X146196666Y-121013333D01*
X146396666Y-121413333D02*
X145696666Y-121180000D01*
X146396666Y-120946666D01*
X147666666Y-125693333D02*
X146966666Y-125693333D01*
X147466666Y-125460000D01*
X146966666Y-125226666D01*
X147666666Y-125226666D01*
X147666666Y-124893333D02*
X146966666Y-124893333D01*
X147666666Y-124560000D02*
X146966666Y-124560000D01*
X147466666Y-124326666D01*
X146966666Y-124093333D01*
X147666666Y-124093333D01*
X146966666Y-123826666D02*
X147666666Y-123360000D01*
X146966666Y-123360000D02*
X147666666Y-123826666D01*
X147666666Y-122693333D02*
X147333333Y-122926666D01*
X147666666Y-123093333D02*
X146966666Y-123093333D01*
X146966666Y-122826666D01*
X147000000Y-122760000D01*
X147033333Y-122726666D01*
X147100000Y-122693333D01*
X147200000Y-122693333D01*
X147266666Y-122726666D01*
X147300000Y-122760000D01*
X147333333Y-122826666D01*
X147333333Y-123093333D01*
X146966666Y-122493333D02*
X146966666Y-122093333D01*
X147666666Y-122293333D02*
X146966666Y-122293333D01*
X147666666Y-121493333D02*
X147666666Y-121893333D01*
X147666666Y-121693333D02*
X146966666Y-121693333D01*
X147066666Y-121760000D01*
X147133333Y-121826666D01*
X147166666Y-121893333D01*
X146966666Y-121060000D02*
X146966666Y-120993333D01*
X147000000Y-120926666D01*
X147033333Y-120893333D01*
X147100000Y-120860000D01*
X147233333Y-120826666D01*
X147400000Y-120826666D01*
X147533333Y-120860000D01*
X147600000Y-120893333D01*
X147633333Y-120926666D01*
X147666666Y-120993333D01*
X147666666Y-121060000D01*
X147633333Y-121126666D01*
X147600000Y-121160000D01*
X147533333Y-121193333D01*
X147400000Y-121226666D01*
X147233333Y-121226666D01*
X147100000Y-121193333D01*
X147033333Y-121160000D01*
X147000000Y-121126666D01*
X146966666Y-121060000D01*
X146966666Y-120226666D02*
X146966666Y-120360000D01*
X147000000Y-120426666D01*
X147033333Y-120460000D01*
X147133333Y-120526666D01*
X147266666Y-120560000D01*
X147533333Y-120560000D01*
X147600000Y-120526666D01*
X147633333Y-120493333D01*
X147666666Y-120426666D01*
X147666666Y-120293333D01*
X147633333Y-120226666D01*
X147600000Y-120193333D01*
X147533333Y-120160000D01*
X147366666Y-120160000D01*
X147300000Y-120193333D01*
X147266666Y-120226666D01*
X147233333Y-120293333D01*
X147233333Y-120426666D01*
X147266666Y-120493333D01*
X147300000Y-120526666D01*
X147366666Y-120560000D01*
X147033333Y-119893333D02*
X147000000Y-119860000D01*
X146966666Y-119793333D01*
X146966666Y-119626666D01*
X147000000Y-119560000D01*
X147033333Y-119526666D01*
X147100000Y-119493333D01*
X147166666Y-119493333D01*
X147266666Y-119526666D01*
X147666666Y-119926666D01*
X147666666Y-119493333D01*
X169630952Y-123062380D02*
X169630952Y-122062380D01*
X169964285Y-122776666D01*
X170297619Y-122062380D01*
X170297619Y-123062380D01*
X170773809Y-123062380D02*
X170773809Y-122395714D01*
X170773809Y-122062380D02*
X170726190Y-122110000D01*
X170773809Y-122157619D01*
X170821428Y-122110000D01*
X170773809Y-122062380D01*
X170773809Y-122157619D01*
X171678571Y-123014761D02*
X171583333Y-123062380D01*
X171392857Y-123062380D01*
X171297619Y-123014761D01*
X171250000Y-122967142D01*
X171202380Y-122871904D01*
X171202380Y-122586190D01*
X171250000Y-122490952D01*
X171297619Y-122443333D01*
X171392857Y-122395714D01*
X171583333Y-122395714D01*
X171678571Y-122443333D01*
X172107142Y-123062380D02*
X172107142Y-122395714D01*
X172107142Y-122586190D02*
X172154761Y-122490952D01*
X172202380Y-122443333D01*
X172297619Y-122395714D01*
X172392857Y-122395714D01*
X172869047Y-123062380D02*
X172773809Y-123014761D01*
X172726190Y-122967142D01*
X172678571Y-122871904D01*
X172678571Y-122586190D01*
X172726190Y-122490952D01*
X172773809Y-122443333D01*
X172869047Y-122395714D01*
X173011904Y-122395714D01*
X173107142Y-122443333D01*
X173154761Y-122490952D01*
X173202380Y-122586190D01*
X173202380Y-122871904D01*
X173154761Y-122967142D01*
X173107142Y-123014761D01*
X173011904Y-123062380D01*
X172869047Y-123062380D01*
X174345238Y-123014761D02*
X174488095Y-123062380D01*
X174726190Y-123062380D01*
X174821428Y-123014761D01*
X174869047Y-122967142D01*
X174916666Y-122871904D01*
X174916666Y-122776666D01*
X174869047Y-122681428D01*
X174821428Y-122633809D01*
X174726190Y-122586190D01*
X174535714Y-122538571D01*
X174440476Y-122490952D01*
X174392857Y-122443333D01*
X174345238Y-122348095D01*
X174345238Y-122252857D01*
X174392857Y-122157619D01*
X174440476Y-122110000D01*
X174535714Y-122062380D01*
X174773809Y-122062380D01*
X174916666Y-122110000D01*
X175345238Y-123062380D02*
X175345238Y-122062380D01*
X175583333Y-122062380D01*
X175726190Y-122110000D01*
X175821428Y-122205238D01*
X175869047Y-122300476D01*
X175916666Y-122490952D01*
X175916666Y-122633809D01*
X175869047Y-122824285D01*
X175821428Y-122919523D01*
X175726190Y-123014761D01*
X175583333Y-123062380D01*
X175345238Y-123062380D01*
X121402380Y-123871904D02*
X122211904Y-123871904D01*
X122307142Y-123824285D01*
X122354761Y-123776666D01*
X122402380Y-123681428D01*
X122402380Y-123490952D01*
X122354761Y-123395714D01*
X122307142Y-123348095D01*
X122211904Y-123300476D01*
X121402380Y-123300476D01*
X122354761Y-122871904D02*
X122402380Y-122729047D01*
X122402380Y-122490952D01*
X122354761Y-122395714D01*
X122307142Y-122348095D01*
X122211904Y-122300476D01*
X122116666Y-122300476D01*
X122021428Y-122348095D01*
X121973809Y-122395714D01*
X121926190Y-122490952D01*
X121878571Y-122681428D01*
X121830952Y-122776666D01*
X121783333Y-122824285D01*
X121688095Y-122871904D01*
X121592857Y-122871904D01*
X121497619Y-122824285D01*
X121450000Y-122776666D01*
X121402380Y-122681428D01*
X121402380Y-122443333D01*
X121450000Y-122300476D01*
X121878571Y-121538571D02*
X121926190Y-121395714D01*
X121973809Y-121348095D01*
X122069047Y-121300476D01*
X122211904Y-121300476D01*
X122307142Y-121348095D01*
X122354761Y-121395714D01*
X122402380Y-121490952D01*
X122402380Y-121871904D01*
X121402380Y-121871904D01*
X121402380Y-121538571D01*
X121450000Y-121443333D01*
X121497619Y-121395714D01*
X121592857Y-121348095D01*
X121688095Y-121348095D01*
X121783333Y-121395714D01*
X121830952Y-121443333D01*
X121878571Y-121538571D01*
X121878571Y-121871904D01*
X126844676Y-124551580D02*
X126844676Y-125361104D01*
X126892295Y-125456342D01*
X126939914Y-125503961D01*
X127035152Y-125551580D01*
X127225628Y-125551580D01*
X127320866Y-125503961D01*
X127368485Y-125456342D01*
X127416104Y-125361104D01*
X127416104Y-124551580D01*
X127844676Y-125503961D02*
X127987533Y-125551580D01*
X128225628Y-125551580D01*
X128320866Y-125503961D01*
X128368485Y-125456342D01*
X128416104Y-125361104D01*
X128416104Y-125265866D01*
X128368485Y-125170628D01*
X128320866Y-125123009D01*
X128225628Y-125075390D01*
X128035152Y-125027771D01*
X127939914Y-124980152D01*
X127892295Y-124932533D01*
X127844676Y-124837295D01*
X127844676Y-124742057D01*
X127892295Y-124646819D01*
X127939914Y-124599200D01*
X128035152Y-124551580D01*
X128273247Y-124551580D01*
X128416104Y-124599200D01*
X129178009Y-125027771D02*
X129320866Y-125075390D01*
X129368485Y-125123009D01*
X129416104Y-125218247D01*
X129416104Y-125361104D01*
X129368485Y-125456342D01*
X129320866Y-125503961D01*
X129225628Y-125551580D01*
X128844676Y-125551580D01*
X128844676Y-124551580D01*
X129178009Y-124551580D01*
X129273247Y-124599200D01*
X129320866Y-124646819D01*
X129368485Y-124742057D01*
X129368485Y-124837295D01*
X129320866Y-124932533D01*
X129273247Y-124980152D01*
X129178009Y-125027771D01*
X128844676Y-125027771D01*
X130606580Y-125551580D02*
X130606580Y-124551580D01*
X130606580Y-125027771D02*
X131178009Y-125027771D01*
X131178009Y-125551580D02*
X131178009Y-124551580D01*
X131797057Y-125551580D02*
X131701819Y-125503961D01*
X131654200Y-125456342D01*
X131606580Y-125361104D01*
X131606580Y-125075390D01*
X131654200Y-124980152D01*
X131701819Y-124932533D01*
X131797057Y-124884914D01*
X131939914Y-124884914D01*
X132035152Y-124932533D01*
X132082771Y-124980152D01*
X132130390Y-125075390D01*
X132130390Y-125361104D01*
X132082771Y-125456342D01*
X132035152Y-125503961D01*
X131939914Y-125551580D01*
X131797057Y-125551580D01*
X132511342Y-125503961D02*
X132606580Y-125551580D01*
X132797057Y-125551580D01*
X132892295Y-125503961D01*
X132939914Y-125408723D01*
X132939914Y-125361104D01*
X132892295Y-125265866D01*
X132797057Y-125218247D01*
X132654200Y-125218247D01*
X132558961Y-125170628D01*
X132511342Y-125075390D01*
X132511342Y-125027771D01*
X132558961Y-124932533D01*
X132654200Y-124884914D01*
X132797057Y-124884914D01*
X132892295Y-124932533D01*
X133225628Y-124884914D02*
X133606580Y-124884914D01*
X133368485Y-124551580D02*
X133368485Y-125408723D01*
X133416104Y-125503961D01*
X133511342Y-125551580D01*
X133606580Y-125551580D01*
X136483571Y-122190542D02*
X136483571Y-121857209D01*
X137007380Y-121714352D02*
X137007380Y-122190542D01*
X136007380Y-122190542D01*
X136007380Y-121714352D01*
X136340714Y-121428638D02*
X136340714Y-121047685D01*
X136007380Y-121285780D02*
X136864523Y-121285780D01*
X136959761Y-121238161D01*
X137007380Y-121142923D01*
X137007380Y-121047685D01*
X137007380Y-120714352D02*
X136007380Y-120714352D01*
X137007380Y-120285780D02*
X136483571Y-120285780D01*
X136388333Y-120333400D01*
X136340714Y-120428638D01*
X136340714Y-120571495D01*
X136388333Y-120666733D01*
X136435952Y-120714352D01*
X136959761Y-119428638D02*
X137007380Y-119523876D01*
X137007380Y-119714352D01*
X136959761Y-119809590D01*
X136864523Y-119857209D01*
X136483571Y-119857209D01*
X136388333Y-119809590D01*
X136340714Y-119714352D01*
X136340714Y-119523876D01*
X136388333Y-119428638D01*
X136483571Y-119381019D01*
X136578809Y-119381019D01*
X136674047Y-119857209D01*
X137007380Y-118952447D02*
X136340714Y-118952447D01*
X136531190Y-118952447D02*
X136435952Y-118904828D01*
X136388333Y-118857209D01*
X136340714Y-118761971D01*
X136340714Y-118666733D01*
X136340714Y-118333400D02*
X137007380Y-118333400D01*
X136435952Y-118333400D02*
X136388333Y-118285780D01*
X136340714Y-118190542D01*
X136340714Y-118047685D01*
X136388333Y-117952447D01*
X136483571Y-117904828D01*
X137007380Y-117904828D01*
X136959761Y-117047685D02*
X137007380Y-117142923D01*
X137007380Y-117333400D01*
X136959761Y-117428638D01*
X136864523Y-117476257D01*
X136483571Y-117476257D01*
X136388333Y-117428638D01*
X136340714Y-117333400D01*
X136340714Y-117142923D01*
X136388333Y-117047685D01*
X136483571Y-117000066D01*
X136578809Y-117000066D01*
X136674047Y-117476257D01*
X136340714Y-116714352D02*
X136340714Y-116333400D01*
X136007380Y-116571495D02*
X136864523Y-116571495D01*
X136959761Y-116523876D01*
X137007380Y-116428638D01*
X137007380Y-116333400D01*
%TO.C,D2*%
X136929904Y-103665430D02*
X136929904Y-102665430D01*
X137168000Y-102665430D01*
X137310857Y-102713050D01*
X137406095Y-102808288D01*
X137453714Y-102903526D01*
X137501333Y-103094002D01*
X137501333Y-103236859D01*
X137453714Y-103427335D01*
X137406095Y-103522573D01*
X137310857Y-103617811D01*
X137168000Y-103665430D01*
X136929904Y-103665430D01*
X137882285Y-102760669D02*
X137929904Y-102713050D01*
X138025142Y-102665430D01*
X138263238Y-102665430D01*
X138358476Y-102713050D01*
X138406095Y-102760669D01*
X138453714Y-102855907D01*
X138453714Y-102951145D01*
X138406095Y-103094002D01*
X137834666Y-103665430D01*
X138453714Y-103665430D01*
%TO.C,C1*%
X122261333Y-113133142D02*
X122213714Y-113180761D01*
X122070857Y-113228380D01*
X121975619Y-113228380D01*
X121832761Y-113180761D01*
X121737523Y-113085523D01*
X121689904Y-112990285D01*
X121642285Y-112799809D01*
X121642285Y-112656952D01*
X121689904Y-112466476D01*
X121737523Y-112371238D01*
X121832761Y-112276000D01*
X121975619Y-112228380D01*
X122070857Y-112228380D01*
X122213714Y-112276000D01*
X122261333Y-112323619D01*
X123213714Y-113228380D02*
X122642285Y-113228380D01*
X122928000Y-113228380D02*
X122928000Y-112228380D01*
X122832761Y-112371238D01*
X122737523Y-112466476D01*
X122642285Y-112514095D01*
%TO.C,J2*%
X148510666Y-134834380D02*
X148510666Y-135548666D01*
X148463047Y-135691523D01*
X148367809Y-135786761D01*
X148224952Y-135834380D01*
X148129714Y-135834380D01*
X148939238Y-134929619D02*
X148986857Y-134882000D01*
X149082095Y-134834380D01*
X149320190Y-134834380D01*
X149415428Y-134882000D01*
X149463047Y-134929619D01*
X149510666Y-135024857D01*
X149510666Y-135120095D01*
X149463047Y-135262952D01*
X148891619Y-135834380D01*
X149510666Y-135834380D01*
%TO.C,D1*%
X128039904Y-103830380D02*
X128039904Y-102830380D01*
X128278000Y-102830380D01*
X128420857Y-102878000D01*
X128516095Y-102973238D01*
X128563714Y-103068476D01*
X128611333Y-103258952D01*
X128611333Y-103401809D01*
X128563714Y-103592285D01*
X128516095Y-103687523D01*
X128420857Y-103782761D01*
X128278000Y-103830380D01*
X128039904Y-103830380D01*
X129563714Y-103830380D02*
X128992285Y-103830380D01*
X129278000Y-103830380D02*
X129278000Y-102830380D01*
X129182761Y-102973238D01*
X129087523Y-103068476D01*
X128992285Y-103116095D01*
%TO.C,J1*%
X160956666Y-142178780D02*
X160956666Y-142893066D01*
X160909047Y-143035923D01*
X160813809Y-143131161D01*
X160670952Y-143178780D01*
X160575714Y-143178780D01*
X161956666Y-143178780D02*
X161385238Y-143178780D01*
X161670952Y-143178780D02*
X161670952Y-142178780D01*
X161575714Y-142321638D01*
X161480476Y-142416876D01*
X161385238Y-142464495D01*
%TO.C,*%
G36*
X134871219Y-150259889D02*
G01*
X135471283Y-150281069D01*
X135921983Y-150299799D01*
X136243220Y-150318548D01*
X136454893Y-150339784D01*
X136576900Y-150365975D01*
X136629140Y-150399587D01*
X136631514Y-150443090D01*
X136616548Y-150476336D01*
X136494846Y-150625551D01*
X136300385Y-150796095D01*
X136258715Y-150826866D01*
X136162867Y-150890497D01*
X136061282Y-150939078D01*
X135930225Y-150975025D01*
X135745959Y-151000753D01*
X135484749Y-151018678D01*
X135122861Y-151031215D01*
X134636557Y-151040781D01*
X134078377Y-151048773D01*
X132173377Y-151074293D01*
X132608386Y-150635938D01*
X133043396Y-150197584D01*
X134871219Y-150259889D01*
G37*
G36*
X144722998Y-148165754D02*
G01*
X144692889Y-148327585D01*
X144639049Y-148621301D01*
X144567817Y-149012146D01*
X144485534Y-149465365D01*
X144437248Y-149732047D01*
X144196043Y-151065508D01*
X143709210Y-151065547D01*
X143429364Y-151057439D01*
X143280898Y-151025441D01*
X143226321Y-150958133D01*
X143222377Y-150917253D01*
X143237670Y-150775567D01*
X143278979Y-150509751D01*
X143339449Y-150161789D01*
X143391710Y-149880254D01*
X143461495Y-149504541D01*
X143517305Y-149186039D01*
X143552389Y-148964385D01*
X143561043Y-148885588D01*
X143481977Y-148810591D01*
X143258591Y-148779971D01*
X143222377Y-148779587D01*
X143010236Y-148766205D01*
X142892306Y-148732777D01*
X142883710Y-148719292D01*
X142938587Y-148631325D01*
X143081005Y-148464345D01*
X143240005Y-148295959D01*
X143434938Y-148104897D01*
X143588814Y-147996350D01*
X143762145Y-147946993D01*
X144015443Y-147933504D01*
X144181921Y-147932921D01*
X144767543Y-147932921D01*
X144722998Y-148165754D01*
G37*
G36*
X136243742Y-148779587D02*
G01*
X134486383Y-148779587D01*
X133898514Y-148778726D01*
X133459421Y-148774952D01*
X133148548Y-148766478D01*
X132945343Y-148751518D01*
X132829252Y-148728284D01*
X132779719Y-148694991D01*
X132776191Y-148649852D01*
X132781844Y-148631421D01*
X132905428Y-148398614D01*
X133112045Y-148219941D01*
X133358710Y-148090695D01*
X133498643Y-148036594D01*
X133664461Y-147996489D01*
X133882609Y-147968349D01*
X134179534Y-147950140D01*
X134581680Y-147939830D01*
X135115495Y-147935388D01*
X135387527Y-147934780D01*
X137077678Y-147932921D01*
X136243742Y-148779587D01*
G37*
G36*
X125582025Y-147932921D02*
G01*
X127403595Y-147932921D01*
X126670043Y-148771963D01*
X123566255Y-148779587D01*
X123621637Y-148504421D01*
X123656231Y-148317210D01*
X123689160Y-148175801D01*
X123742293Y-148073816D01*
X123837496Y-148004882D01*
X123996637Y-147962624D01*
X124241584Y-147940666D01*
X124594205Y-147932634D01*
X125076366Y-147932152D01*
X125582025Y-147932921D01*
G37*
G36*
X126800712Y-150238304D02*
G01*
X126952642Y-150269034D01*
X126966377Y-150285959D01*
X126910371Y-150376586D01*
X126765044Y-150543528D01*
X126603338Y-150709292D01*
X126240300Y-151065587D01*
X124692633Y-151065587D01*
X124145352Y-151064523D01*
X123745441Y-151059891D01*
X123470943Y-151049534D01*
X123299901Y-151031293D01*
X123210359Y-151003011D01*
X123180359Y-150962529D01*
X123185135Y-150917421D01*
X123234842Y-150718688D01*
X123273795Y-150549668D01*
X123322286Y-150330083D01*
X124530498Y-150274812D01*
X125345484Y-150241762D01*
X125996162Y-150224664D01*
X126481562Y-150223513D01*
X126800712Y-150238304D01*
G37*
G36*
X138915869Y-149118874D02*
G01*
X139056155Y-149139826D01*
X139128567Y-149209750D01*
X139143110Y-149357285D01*
X139109786Y-149611072D01*
X139038599Y-149999749D01*
X139027137Y-150061401D01*
X138949132Y-150483519D01*
X138887833Y-150767421D01*
X138824032Y-150940372D01*
X138738518Y-151029638D01*
X138612084Y-151062484D01*
X138425519Y-151066175D01*
X138319657Y-151065587D01*
X137831015Y-151065587D01*
X137985584Y-150170300D01*
X138053314Y-149795921D01*
X138115746Y-149482770D01*
X138164899Y-149269122D01*
X138188595Y-149196633D01*
X138293766Y-149153068D01*
X138512562Y-149124609D01*
X138697707Y-149118254D01*
X138915869Y-149118874D01*
G37*
G36*
X125232164Y-149136479D02*
G01*
X125319291Y-149137580D01*
X127004392Y-149160587D01*
X126679199Y-149520421D01*
X126354006Y-149880254D01*
X123391531Y-149880254D01*
X123449876Y-149562754D01*
X123503337Y-149339529D01*
X123560843Y-149193709D01*
X123571205Y-149179914D01*
X123671534Y-149161039D01*
X123914475Y-149146612D01*
X124273346Y-149137279D01*
X124721469Y-149133686D01*
X125232164Y-149136479D01*
G37*
G36*
X140386043Y-148771963D02*
G01*
X138586877Y-148775775D01*
X138055542Y-148775072D01*
X137586425Y-148770950D01*
X137204113Y-148763918D01*
X136933197Y-148754479D01*
X136798263Y-148743141D01*
X136787710Y-148738741D01*
X136841692Y-148661129D01*
X136982346Y-148499561D01*
X137154197Y-148315407D01*
X137520683Y-147932921D01*
X141119595Y-147932921D01*
X140386043Y-148771963D01*
G37*
G36*
X130130159Y-147863896D02*
G01*
X130353516Y-147943397D01*
X130367801Y-147954087D01*
X130445798Y-148059581D01*
X130585805Y-148291480D01*
X130773820Y-148624874D01*
X130995844Y-149034853D01*
X131237874Y-149496507D01*
X131271998Y-149562754D01*
X132044405Y-151065587D01*
X128297111Y-151065587D01*
X128668910Y-150652969D01*
X129040710Y-150240351D01*
X130344938Y-150176587D01*
X130073824Y-149607823D01*
X129938106Y-149333910D01*
X129828123Y-149131734D01*
X129764762Y-149039317D01*
X129760377Y-149037257D01*
X129693275Y-149097158D01*
X129535318Y-149263792D01*
X129306203Y-149515630D01*
X129025627Y-149831141D01*
X128833393Y-150050521D01*
X127948742Y-151065587D01*
X127368092Y-151065587D01*
X127065085Y-151062860D01*
X126901933Y-151047719D01*
X126849169Y-151009723D01*
X126877327Y-150938432D01*
X126902887Y-150900765D01*
X127021451Y-150749754D01*
X127226055Y-150508046D01*
X127496490Y-150197919D01*
X127812548Y-149841650D01*
X128154019Y-149461518D01*
X128500696Y-149079798D01*
X128832368Y-148718771D01*
X129128828Y-148400711D01*
X129369866Y-148147899D01*
X129535275Y-147982610D01*
X129598965Y-147928681D01*
X129849178Y-147858017D01*
X130130159Y-147863896D01*
G37*
G36*
X135544444Y-149141572D02*
G01*
X135847282Y-149151499D01*
X135968095Y-149162721D01*
X136314686Y-149262175D01*
X136567576Y-149429572D01*
X136694382Y-149640615D01*
X136703043Y-149714219D01*
X136706084Y-149765703D01*
X136702660Y-149805506D01*
X136673956Y-149834356D01*
X136601153Y-149852977D01*
X136465434Y-149862096D01*
X136247982Y-149862440D01*
X135929979Y-149854735D01*
X135492609Y-149839706D01*
X134917054Y-149818080D01*
X134459377Y-149800809D01*
X133805385Y-149765018D01*
X133317501Y-149712608D01*
X132993275Y-149643138D01*
X132830255Y-149556165D01*
X132808377Y-149503200D01*
X132782300Y-149406191D01*
X132761561Y-149348770D01*
X132768462Y-149302433D01*
X132843108Y-149265872D01*
X133006392Y-149236337D01*
X133279203Y-149211079D01*
X133682433Y-149187348D01*
X134150008Y-149166041D01*
X134657670Y-149148913D01*
X135135194Y-149140733D01*
X135544444Y-149141572D01*
G37*
D12*
%TO.C,C2*%
X136530580Y-111990000D02*
X136249420Y-111990000D01*
X136530580Y-110970000D02*
X136249420Y-110970000D01*
D11*
%TO.C,U1*%
X153700000Y-116260000D02*
X141000000Y-116260000D01*
X118140000Y-131500000D02*
X118140000Y-113720000D01*
X124439200Y-125909200D02*
X126979200Y-125909200D01*
X158780000Y-123880000D02*
X158780000Y-121340000D01*
X141000000Y-116260000D02*
X141000000Y-128960000D01*
X141000000Y-128960000D02*
X153700000Y-128960000D01*
X177830000Y-127690000D02*
X179100000Y-127690000D01*
X116870000Y-126420000D02*
X116870000Y-118800000D01*
X135370000Y-116258400D02*
X131370000Y-116258400D01*
X123220000Y-126420000D02*
X123220000Y-118800000D01*
X124439200Y-128449200D02*
X124439200Y-125909200D01*
X135370000Y-122508400D02*
X135370000Y-116258400D01*
X126979200Y-125909200D02*
X126979200Y-128449200D01*
X137139200Y-125909200D02*
X137139200Y-128449200D01*
X116870000Y-118800000D02*
X118140000Y-118800000D01*
X166400000Y-128960000D02*
X179100000Y-128960000D01*
X124439200Y-125909200D02*
X137139200Y-125909200D01*
X118140000Y-113720000D02*
X179100000Y-113720000D01*
X123220000Y-118800000D02*
X118140000Y-118800000D01*
X179100000Y-131500000D02*
X118140000Y-131500000D01*
X177830000Y-117530000D02*
X177830000Y-127690000D01*
X179100000Y-117530000D02*
X177830000Y-117530000D01*
X153700000Y-128960000D02*
X153700000Y-116260000D01*
X131370000Y-116258400D02*
X131370000Y-116508400D01*
X158780000Y-121340000D02*
X162590000Y-121340000D01*
X131370000Y-116508400D02*
X131370000Y-122508400D01*
X162590000Y-123880000D02*
X158780000Y-123880000D01*
X123220000Y-126420000D02*
X118140000Y-126420000D01*
X179100000Y-116260000D02*
X166400000Y-116260000D01*
X179100000Y-113720000D02*
X179100000Y-131500000D01*
X166400000Y-116260000D02*
X166400000Y-128960000D01*
X131370000Y-122508400D02*
X135370000Y-122508400D01*
X137139200Y-128449200D02*
X124439200Y-128449200D01*
X118140000Y-126420000D02*
X116870000Y-126420000D01*
X162590000Y-121340000D02*
X162590000Y-123880000D01*
X161583026Y-122610000D02*
G75*
G03*
X161583026Y-122610000I-898026J0D01*
G01*
G36*
X151055000Y-123065000D02*
G01*
X150801000Y-123319000D01*
X150547000Y-122938000D01*
X150801000Y-122684000D01*
X151055000Y-123065000D01*
G37*
D13*
X151055000Y-123065000D02*
X150801000Y-123319000D01*
X150547000Y-122938000D01*
X150801000Y-122684000D01*
X151055000Y-123065000D01*
G36*
X151817000Y-122303000D02*
G01*
X151563000Y-122557000D01*
X151309000Y-122176000D01*
X151563000Y-121922000D01*
X151817000Y-122303000D01*
G37*
X151817000Y-122303000D02*
X151563000Y-122557000D01*
X151309000Y-122176000D01*
X151563000Y-121922000D01*
X151817000Y-122303000D01*
G36*
X149912000Y-122430000D02*
G01*
X149658000Y-122684000D01*
X149404000Y-122303000D01*
X149658000Y-122049000D01*
X149912000Y-122430000D01*
G37*
X149912000Y-122430000D02*
X149658000Y-122684000D01*
X149404000Y-122303000D01*
X149658000Y-122049000D01*
X149912000Y-122430000D01*
G36*
X150674000Y-122557000D02*
G01*
X150420000Y-122811000D01*
X150166000Y-122430000D01*
X150420000Y-122176000D01*
X150674000Y-122557000D01*
G37*
X150674000Y-122557000D02*
X150420000Y-122811000D01*
X150166000Y-122430000D01*
X150420000Y-122176000D01*
X150674000Y-122557000D01*
G36*
X150293000Y-122938000D02*
G01*
X150039000Y-123192000D01*
X149785000Y-122811000D01*
X150039000Y-122557000D01*
X150293000Y-122938000D01*
G37*
X150293000Y-122938000D02*
X150039000Y-123192000D01*
X149785000Y-122811000D01*
X150039000Y-122557000D01*
X150293000Y-122938000D01*
G36*
X150293000Y-122049000D02*
G01*
X150039000Y-122303000D01*
X149785000Y-121922000D01*
X150039000Y-121668000D01*
X150293000Y-122049000D01*
G37*
X150293000Y-122049000D02*
X150039000Y-122303000D01*
X149785000Y-121922000D01*
X150039000Y-121668000D01*
X150293000Y-122049000D01*
G36*
X151436000Y-122684000D02*
G01*
X151182000Y-122938000D01*
X150928000Y-122557000D01*
X151182000Y-122303000D01*
X151436000Y-122684000D01*
G37*
X151436000Y-122684000D02*
X151182000Y-122938000D01*
X150928000Y-122557000D01*
X151182000Y-122303000D01*
X151436000Y-122684000D01*
G36*
X149531000Y-121922000D02*
G01*
X149277000Y-122176000D01*
X149023000Y-121795000D01*
X149277000Y-121541000D01*
X149531000Y-121922000D01*
G37*
X149531000Y-121922000D02*
X149277000Y-122176000D01*
X149023000Y-121795000D01*
X149277000Y-121541000D01*
X149531000Y-121922000D01*
D14*
%TO.C,D2*%
X136933500Y-109662550D02*
X138506500Y-109662550D01*
X140220000Y-109662550D02*
X140220000Y-104662550D01*
X136933500Y-104662550D02*
X138506500Y-104662550D01*
X135220000Y-104662550D02*
X135220000Y-109662550D01*
D15*
X139420000Y-103412550D02*
G75*
G03*
X139420000Y-103412550I-100000J0D01*
G01*
D12*
%TO.C,C1*%
X119747420Y-112266000D02*
X120028580Y-112266000D01*
X119747420Y-113286000D02*
X120028580Y-113286000D01*
%TO.C,J2*%
X136510000Y-136810000D02*
X159490000Y-136810000D01*
X159490000Y-142010000D02*
X159490000Y-136810000D01*
X139110000Y-142010000D02*
X159490000Y-142010000D01*
X136510000Y-142010000D02*
X136510000Y-140680000D01*
X139110000Y-142010000D02*
X139110000Y-139410000D01*
X139110000Y-139410000D02*
X136510000Y-139410000D01*
X136510000Y-139410000D02*
X136510000Y-136810000D01*
X137840000Y-142010000D02*
X136510000Y-142010000D01*
D14*
%TO.C,D1*%
X131350000Y-109980000D02*
X131350000Y-104980000D01*
X128063500Y-109980000D02*
X129636500Y-109980000D01*
X126350000Y-104980000D02*
X126350000Y-109980000D01*
X128063500Y-104980000D02*
X129636500Y-104980000D01*
D15*
X130550000Y-103730000D02*
G75*
G03*
X130550000Y-103730000I-100000J0D01*
G01*
D12*
%TO.C,J1*%
X165590000Y-149376400D02*
X164590000Y-149376400D01*
X158790000Y-147276400D02*
X163790000Y-147276400D01*
X163790000Y-147276400D02*
X163790000Y-151636400D01*
X156230000Y-143816400D02*
X156230000Y-151636400D01*
X157990000Y-147776400D02*
X156990000Y-147776400D01*
X157990000Y-149376400D02*
X157990000Y-151636400D01*
X166350000Y-151636400D02*
X166350000Y-143816400D01*
X157150000Y-143816400D02*
X156230000Y-143816400D01*
X165430000Y-145416400D02*
X165150000Y-145416400D01*
X166350000Y-143816400D02*
X165430000Y-143816400D01*
X166350000Y-145416400D02*
X165430000Y-145416400D01*
X157430000Y-145416400D02*
X157150000Y-145416400D01*
X164590000Y-147776400D02*
X165590000Y-147776400D01*
X156230000Y-145416400D02*
X157150000Y-145416400D01*
X157430000Y-145416400D02*
X157430000Y-144201400D01*
X165430000Y-143816400D02*
X165430000Y-145416400D01*
X156230000Y-151636400D02*
X166350000Y-151636400D01*
X157150000Y-145416400D02*
X157150000Y-143816400D01*
X157490000Y-149376400D02*
X157490000Y-151636400D01*
X157990000Y-149376400D02*
X157990000Y-147776400D01*
X156990000Y-147776400D02*
X156990000Y-149376400D01*
X158790000Y-151636400D02*
X158790000Y-147276400D01*
X164590000Y-149376400D02*
X164590000Y-147776400D01*
X165590000Y-147776400D02*
X165590000Y-149376400D01*
X156990000Y-149376400D02*
X157990000Y-149376400D01*
%TD*%
M02*
