%TF.GenerationSoftware,KiCad,Pcbnew,(6.0.7)*%
%TF.CreationDate,2023-03-09T00:32:03-05:00*%
%TF.ProjectId,board_4,626f6172-645f-4342-9e6b-696361645f70,rev?*%
%TF.SameCoordinates,Original*%
%TF.FileFunction,Soldermask,Top*%
%TF.FilePolarity,Negative*%
%FSLAX46Y46*%
G04 Gerber Fmt 4.6, Leading zero omitted, Abs format (unit mm)*
G04 Created by KiCad (PCBNEW (6.0.7)) date 2023-03-09 00:32:03*
%MOMM*%
%LPD*%
G01*
G04 APERTURE LIST*
G04 Aperture macros list*
%AMRoundRect*
0 Rectangle with rounded corners*
0 $1 Rounding radius*
0 $2 $3 $4 $5 $6 $7 $8 $9 X,Y pos of 4 corners*
0 Add a 4 corners polygon primitive as box body*
4,1,4,$2,$3,$4,$5,$6,$7,$8,$9,$2,$3,0*
0 Add four circle primitives for the rounded corners*
1,1,$1+$1,$2,$3*
1,1,$1+$1,$4,$5*
1,1,$1+$1,$6,$7*
1,1,$1+$1,$8,$9*
0 Add four rect primitives between the rounded corners*
20,1,$1+$1,$2,$3,$4,$5,0*
20,1,$1+$1,$4,$5,$6,$7,0*
20,1,$1+$1,$6,$7,$8,$9,0*
20,1,$1+$1,$8,$9,$2,$3,0*%
G04 Aperture macros list end*
%ADD10C,4.100000*%
%ADD11C,7.400000*%
%ADD12RoundRect,0.225000X0.225000X0.250000X-0.225000X0.250000X-0.225000X-0.250000X0.225000X-0.250000X0*%
%ADD13R,1.600000X1.600000*%
%ADD14C,1.600000*%
%ADD15R,1.300000X1.300000*%
%ADD16C,1.300000*%
%ADD17R,1.000000X1.500000*%
%ADD18RoundRect,0.225000X-0.225000X-0.250000X0.225000X-0.250000X0.225000X0.250000X-0.225000X0.250000X0*%
%ADD19R,1.700000X1.700000*%
%ADD20O,1.700000X1.700000*%
%ADD21RoundRect,0.250000X-0.350000X-0.625000X0.350000X-0.625000X0.350000X0.625000X-0.350000X0.625000X0*%
%ADD22O,1.200000X1.750000*%
G04 APERTURE END LIST*
D10*
%TO.C,REF\u002A\u002A*%
X175468013Y-139389531D03*
D11*
X175468013Y-139389531D03*
%TD*%
D12*
%TO.C,C2*%
X137165000Y-111480000D03*
X135615000Y-111480000D03*
%TD*%
D11*
%TO.C,REF\u002A\u002A*%
X147976228Y-91782125D03*
D10*
X147976228Y-91782125D03*
%TD*%
D13*
%TO.C,U1*%
X119410000Y-130230000D03*
D14*
X121950000Y-130230000D03*
X124490000Y-130230000D03*
X127030000Y-130230000D03*
X129570000Y-130230000D03*
X132110000Y-130230000D03*
X134650000Y-130230000D03*
X137190000Y-130230000D03*
X139730000Y-130230000D03*
X142270000Y-130230000D03*
X144810000Y-130230000D03*
X147350000Y-130230000D03*
X149890000Y-130230000D03*
X152430000Y-130230000D03*
X154970000Y-130230000D03*
X157510000Y-130230000D03*
X160050000Y-130230000D03*
X162590000Y-130230000D03*
X165130000Y-130230000D03*
X167670000Y-130230000D03*
X170210000Y-130230000D03*
X172750000Y-130230000D03*
X175290000Y-130230000D03*
X177830000Y-130230000D03*
X177830000Y-114990000D03*
X175290000Y-114990000D03*
X172750000Y-114990000D03*
X170210000Y-114990000D03*
X167670000Y-114990000D03*
X165130000Y-114990000D03*
X162590000Y-114990000D03*
X160050000Y-114990000D03*
X157510000Y-114990000D03*
X154970000Y-114990000D03*
X152430000Y-114990000D03*
X149890000Y-114990000D03*
X147350000Y-114990000D03*
X144810000Y-114990000D03*
X142270000Y-114990000D03*
X139730000Y-114990000D03*
X137190000Y-114990000D03*
X134650000Y-114990000D03*
X132110000Y-114990000D03*
X129570000Y-114990000D03*
X127030000Y-114990000D03*
X124490000Y-114990000D03*
X121950000Y-114990000D03*
X119410000Y-114990000D03*
X121950000Y-117530000D03*
X165130000Y-127690000D03*
X165130000Y-125150000D03*
X165130000Y-122610000D03*
X165130000Y-120070000D03*
X165130000Y-117530000D03*
D13*
X125709200Y-127179200D03*
D14*
X128249200Y-127179200D03*
X130789200Y-127179200D03*
X133329200Y-127179200D03*
X135869200Y-127179200D03*
D15*
X132380000Y-117428400D03*
D16*
X132380000Y-119428400D03*
X132380000Y-121428400D03*
X134380000Y-121428400D03*
X134380000Y-119428400D03*
X134380000Y-117428400D03*
X120140000Y-121340000D03*
X120140000Y-123880000D03*
%TD*%
D17*
%TO.C,D2*%
X139320000Y-104712550D03*
X136120000Y-104712550D03*
X136120000Y-109612550D03*
X139320000Y-109612550D03*
%TD*%
D10*
%TO.C,REF\u002A\u002A*%
X120480277Y-139392743D03*
D11*
X120480277Y-139392743D03*
%TD*%
D18*
%TO.C,C1*%
X119113000Y-112776000D03*
X120663000Y-112776000D03*
%TD*%
D19*
%TO.C,J2*%
X137840000Y-140680000D03*
D20*
X137840000Y-138140000D03*
X140380000Y-140680000D03*
X140380000Y-138140000D03*
X142920000Y-140680000D03*
X142920000Y-138140000D03*
X145460000Y-140680000D03*
X145460000Y-138140000D03*
X148000000Y-140680000D03*
X148000000Y-138140000D03*
X150540000Y-140680000D03*
X150540000Y-138140000D03*
X153080000Y-140680000D03*
X153080000Y-138140000D03*
X155620000Y-140680000D03*
X155620000Y-138140000D03*
X158160000Y-140680000D03*
X158160000Y-138140000D03*
%TD*%
D17*
%TO.C,D1*%
X130450000Y-105030000D03*
X127250000Y-105030000D03*
X127250000Y-109930000D03*
X130450000Y-109930000D03*
%TD*%
D21*
%TO.C,J1*%
X158290000Y-145276400D03*
D22*
X160290000Y-145276400D03*
X162290000Y-145276400D03*
X164290000Y-145276400D03*
%TD*%
M02*
