%TF.GenerationSoftware,KiCad,Pcbnew,(6.0.7)*%
%TF.CreationDate,2023-03-09T00:32:03-05:00*%
%TF.ProjectId,board_4,626f6172-645f-4342-9e6b-696361645f70,rev?*%
%TF.SameCoordinates,Original*%
%TF.FileFunction,Copper,L2,Bot*%
%TF.FilePolarity,Positive*%
%FSLAX46Y46*%
G04 Gerber Fmt 4.6, Leading zero omitted, Abs format (unit mm)*
G04 Created by KiCad (PCBNEW (6.0.7)) date 2023-03-09 00:32:03*
%MOMM*%
%LPD*%
G01*
G04 APERTURE LIST*
G04 Aperture macros list*
%AMRoundRect*
0 Rectangle with rounded corners*
0 $1 Rounding radius*
0 $2 $3 $4 $5 $6 $7 $8 $9 X,Y pos of 4 corners*
0 Add a 4 corners polygon primitive as box body*
4,1,4,$2,$3,$4,$5,$6,$7,$8,$9,$2,$3,0*
0 Add four circle primitives for the rounded corners*
1,1,$1+$1,$2,$3*
1,1,$1+$1,$4,$5*
1,1,$1+$1,$6,$7*
1,1,$1+$1,$8,$9*
0 Add four rect primitives between the rounded corners*
20,1,$1+$1,$2,$3,$4,$5,0*
20,1,$1+$1,$4,$5,$6,$7,0*
20,1,$1+$1,$6,$7,$8,$9,0*
20,1,$1+$1,$8,$9,$2,$3,0*%
G04 Aperture macros list end*
%TA.AperFunction,ComponentPad*%
%ADD10C,4.100000*%
%TD*%
%TA.AperFunction,ConnectorPad*%
%ADD11C,7.400000*%
%TD*%
%TA.AperFunction,ComponentPad*%
%ADD12R,1.600000X1.600000*%
%TD*%
%TA.AperFunction,ComponentPad*%
%ADD13C,1.600000*%
%TD*%
%TA.AperFunction,ComponentPad*%
%ADD14R,1.300000X1.300000*%
%TD*%
%TA.AperFunction,ComponentPad*%
%ADD15C,1.300000*%
%TD*%
%TA.AperFunction,ComponentPad*%
%ADD16R,1.700000X1.700000*%
%TD*%
%TA.AperFunction,ComponentPad*%
%ADD17O,1.700000X1.700000*%
%TD*%
%TA.AperFunction,ComponentPad*%
%ADD18RoundRect,0.250000X-0.350000X-0.625000X0.350000X-0.625000X0.350000X0.625000X-0.350000X0.625000X0*%
%TD*%
%TA.AperFunction,ComponentPad*%
%ADD19O,1.200000X1.750000*%
%TD*%
%TA.AperFunction,ViaPad*%
%ADD20C,0.800000*%
%TD*%
G04 APERTURE END LIST*
D10*
%TO.P,REF\u002A\u002A,1*%
%TO.N,N/C*%
X175468013Y-139389531D03*
D11*
X175468013Y-139389531D03*
%TD*%
%TO.P,REF\u002A\u002A,1*%
%TO.N,N/C*%
X147976228Y-91782125D03*
D10*
X147976228Y-91782125D03*
%TD*%
D12*
%TO.P,U1,1,GND*%
%TO.N,GND*%
X119410000Y-130230000D03*
D13*
%TO.P,U1,2,0_RX1_CRX2_CS1*%
%TO.N,/CS 1*%
X121950000Y-130230000D03*
%TO.P,U1,3,1_TX1_CTX2_MISO1*%
%TO.N,unconnected-(U1-Pad3)*%
X124490000Y-130230000D03*
%TO.P,U1,4,2_OUT2*%
%TO.N,unconnected-(U1-Pad4)*%
X127030000Y-130230000D03*
%TO.P,U1,5,3_LRCLK2*%
%TO.N,unconnected-(U1-Pad5)*%
X129570000Y-130230000D03*
%TO.P,U1,6,4_BCLK2*%
%TO.N,unconnected-(U1-Pad6)*%
X132110000Y-130230000D03*
%TO.P,U1,7,5_IN2*%
%TO.N,unconnected-(U1-Pad7)*%
X134650000Y-130230000D03*
%TO.P,U1,8,6_OUT1D*%
%TO.N,unconnected-(U1-Pad8)*%
X137190000Y-130230000D03*
%TO.P,U1,9,7_RX2_OUT1A*%
%TO.N,unconnected-(U1-Pad9)*%
X139730000Y-130230000D03*
%TO.P,U1,10,8_TX2_IN1*%
%TO.N,unconnected-(U1-Pad10)*%
X142270000Y-130230000D03*
%TO.P,U1,11,9_OUT1C*%
%TO.N,unconnected-(U1-Pad11)*%
X144810000Y-130230000D03*
%TO.P,U1,12,10_CS_MQSR*%
%TO.N,/CS 2*%
X147350000Y-130230000D03*
%TO.P,U1,13,11_MOSI_CTX1*%
%TO.N,/MOSI 1*%
X149890000Y-130230000D03*
%TO.P,U1,14,12_MISO_MQSL*%
%TO.N,/MISO 1*%
X152430000Y-130230000D03*
%TO.P,U1,15,3V3*%
%TO.N,/3.3V*%
X154970000Y-130230000D03*
%TO.P,U1,16,24_A10_TX6_SCL2*%
%TO.N,/SCL 2*%
X157510000Y-130230000D03*
%TO.P,U1,17,25_A11_RX6_SDA2*%
%TO.N,/SDA 2*%
X160050000Y-130230000D03*
%TO.P,U1,18,26_A12_MOSI1*%
%TO.N,unconnected-(U1-Pad18)*%
X162590000Y-130230000D03*
%TO.P,U1,19,27_A13_SCK1*%
%TO.N,/SCK 1*%
X165130000Y-130230000D03*
%TO.P,U1,20,28_RX7*%
%TO.N,unconnected-(U1-Pad20)*%
X167670000Y-130230000D03*
%TO.P,U1,21,29_TX7*%
%TO.N,unconnected-(U1-Pad21)*%
X170210000Y-130230000D03*
%TO.P,U1,22,30_CRX3*%
%TO.N,unconnected-(U1-Pad22)*%
X172750000Y-130230000D03*
%TO.P,U1,23,31_CTX3*%
%TO.N,unconnected-(U1-Pad23)*%
X175290000Y-130230000D03*
%TO.P,U1,24,32_OUT1B*%
%TO.N,unconnected-(U1-Pad24)*%
X177830000Y-130230000D03*
%TO.P,U1,25,33_MCLK2*%
%TO.N,unconnected-(U1-Pad25)*%
X177830000Y-114990000D03*
%TO.P,U1,26,34_RX8*%
%TO.N,/RX 0*%
X175290000Y-114990000D03*
%TO.P,U1,27,35_TX8*%
%TO.N,/TX 0*%
X172750000Y-114990000D03*
%TO.P,U1,28,36_CS*%
%TO.N,/CS 4*%
X170210000Y-114990000D03*
%TO.P,U1,29,37_CS*%
%TO.N,/CS 3*%
X167670000Y-114990000D03*
%TO.P,U1,30,38_CS1_IN1*%
%TO.N,unconnected-(U1-Pad30)*%
X165130000Y-114990000D03*
%TO.P,U1,31,39_MISO1_OUT1A*%
%TO.N,unconnected-(U1-Pad31)*%
X162590000Y-114990000D03*
%TO.P,U1,32,40_A16*%
%TO.N,unconnected-(U1-Pad32)*%
X160050000Y-114990000D03*
%TO.P,U1,33,41_A17*%
%TO.N,unconnected-(U1-Pad33)*%
X157510000Y-114990000D03*
%TO.P,U1,34,GND*%
%TO.N,unconnected-(U1-Pad34)*%
X154970000Y-114990000D03*
%TO.P,U1,35,13_SCK_LED*%
%TO.N,unconnected-(U1-Pad35)*%
X152430000Y-114990000D03*
%TO.P,U1,36,14_A0_TX3_SPDIF_OUT*%
%TO.N,unconnected-(U1-Pad36)*%
X149890000Y-114990000D03*
%TO.P,U1,37,15_A1_RX3_SPDIF_IN*%
%TO.N,unconnected-(U1-Pad37)*%
X147350000Y-114990000D03*
%TO.P,U1,38,16_A2_RX4_SCL1*%
%TO.N,/RX 1*%
X144810000Y-114990000D03*
%TO.P,U1,39,17_A3_TX4_SDA1*%
%TO.N,/TX 1*%
X142270000Y-114990000D03*
%TO.P,U1,40,18_A4_SDA*%
%TO.N,/SDA 1*%
X139730000Y-114990000D03*
%TO.P,U1,41,19_A5_SCL*%
%TO.N,/SCL 1*%
X137190000Y-114990000D03*
%TO.P,U1,42,20_A6_TX5_LRCLK1*%
%TO.N,/TX 2*%
X134650000Y-114990000D03*
%TO.P,U1,43,21_A7_RX5_BCLK1*%
%TO.N,/RX 2*%
X132110000Y-114990000D03*
%TO.P,U1,44,22_A8_CTX1*%
%TO.N,/NEOPIXEL*%
X129570000Y-114990000D03*
%TO.P,U1,45,23_A9_CRX1_MCLK1*%
%TO.N,unconnected-(U1-Pad45)*%
X127030000Y-114990000D03*
%TO.P,U1,46,3V3*%
%TO.N,unconnected-(U1-Pad46)*%
X124490000Y-114990000D03*
%TO.P,U1,47,GND*%
%TO.N,unconnected-(U1-Pad47)*%
X121950000Y-114990000D03*
%TO.P,U1,48,VIN*%
%TO.N,/V_BATT*%
X119410000Y-114990000D03*
%TO.P,U1,49,VUSB*%
%TO.N,unconnected-(U1-Pad49)*%
X121950000Y-117530000D03*
%TO.P,U1,50,VBAT*%
%TO.N,unconnected-(U1-Pad50)*%
X165130000Y-127690000D03*
%TO.P,U1,51,3V3*%
%TO.N,unconnected-(U1-Pad51)*%
X165130000Y-125150000D03*
%TO.P,U1,52,GND*%
%TO.N,unconnected-(U1-Pad52)*%
X165130000Y-122610000D03*
%TO.P,U1,53,PROGRAM*%
%TO.N,unconnected-(U1-Pad53)*%
X165130000Y-120070000D03*
%TO.P,U1,54,ON_OFF*%
%TO.N,unconnected-(U1-Pad54)*%
X165130000Y-117530000D03*
D12*
%TO.P,U1,55,5V*%
%TO.N,unconnected-(U1-Pad55)*%
X125709200Y-127179200D03*
D13*
%TO.P,U1,56,D-*%
%TO.N,unconnected-(U1-Pad56)*%
X128249200Y-127179200D03*
%TO.P,U1,57,D+*%
%TO.N,unconnected-(U1-Pad57)*%
X130789200Y-127179200D03*
%TO.P,U1,58,GND*%
%TO.N,unconnected-(U1-Pad58)*%
X133329200Y-127179200D03*
%TO.P,U1,59,GND*%
%TO.N,unconnected-(U1-Pad59)*%
X135869200Y-127179200D03*
D14*
%TO.P,U1,60,R+*%
%TO.N,unconnected-(U1-Pad60)*%
X132380000Y-117428400D03*
D15*
%TO.P,U1,61,LED*%
%TO.N,unconnected-(U1-Pad61)*%
X132380000Y-119428400D03*
%TO.P,U1,62,T-*%
%TO.N,unconnected-(U1-Pad62)*%
X132380000Y-121428400D03*
%TO.P,U1,63,T+*%
%TO.N,unconnected-(U1-Pad63)*%
X134380000Y-121428400D03*
%TO.P,U1,64,GND*%
%TO.N,unconnected-(U1-Pad64)*%
X134380000Y-119428400D03*
%TO.P,U1,65,R-*%
%TO.N,unconnected-(U1-Pad65)*%
X134380000Y-117428400D03*
%TO.P,U1,66,D-*%
%TO.N,unconnected-(U1-Pad66)*%
X120140000Y-121340000D03*
%TO.P,U1,67,D+*%
%TO.N,unconnected-(U1-Pad67)*%
X120140000Y-123880000D03*
%TD*%
D11*
%TO.P,REF\u002A\u002A,1*%
%TO.N,N/C*%
X120480277Y-139392743D03*
D10*
X120480277Y-139392743D03*
%TD*%
D16*
%TO.P,J2,1,Pin_1*%
%TO.N,/V_BATT*%
X137840000Y-140680000D03*
D17*
%TO.P,J2,2,Pin_2*%
%TO.N,GND*%
X137840000Y-138140000D03*
%TO.P,J2,3,Pin_3*%
%TO.N,/RX 2*%
X140380000Y-140680000D03*
%TO.P,J2,4,Pin_4*%
%TO.N,/CS 1*%
X140380000Y-138140000D03*
%TO.P,J2,5,Pin_5*%
%TO.N,/TX 2*%
X142920000Y-140680000D03*
%TO.P,J2,6,Pin_6*%
%TO.N,/CS 2*%
X142920000Y-138140000D03*
%TO.P,J2,7,Pin_7*%
%TO.N,/SCL 1*%
X145460000Y-140680000D03*
%TO.P,J2,8,Pin_8*%
%TO.N,/MOSI 1*%
X145460000Y-138140000D03*
%TO.P,J2,9,Pin_9*%
%TO.N,/SDA 1*%
X148000000Y-140680000D03*
%TO.P,J2,10,Pin_10*%
%TO.N,/MISO 1*%
X148000000Y-138140000D03*
%TO.P,J2,11,Pin_11*%
%TO.N,/TX 1*%
X150540000Y-140680000D03*
%TO.P,J2,12,Pin_12*%
%TO.N,/3.3V*%
X150540000Y-138140000D03*
%TO.P,J2,13,Pin_13*%
%TO.N,/RX 1*%
X153080000Y-140680000D03*
%TO.P,J2,14,Pin_14*%
%TO.N,/SCL 2*%
X153080000Y-138140000D03*
%TO.P,J2,15,Pin_15*%
%TO.N,/CS 3*%
X155620000Y-140680000D03*
%TO.P,J2,16,Pin_16*%
%TO.N,/SDA 2*%
X155620000Y-138140000D03*
%TO.P,J2,17,Pin_17*%
%TO.N,/CS 4*%
X158160000Y-140680000D03*
%TO.P,J2,18,Pin_18*%
%TO.N,/SCK 1*%
X158160000Y-138140000D03*
%TD*%
D18*
%TO.P,J1,1,Pin_1*%
%TO.N,/TX 0*%
X158290000Y-145276400D03*
D19*
%TO.P,J1,2,Pin_2*%
%TO.N,/RX 0*%
X160290000Y-145276400D03*
%TO.P,J1,3,Pin_3*%
%TO.N,/V_BATT*%
X162290000Y-145276400D03*
%TO.P,J1,4,Pin_4*%
%TO.N,GND*%
X164290000Y-145276400D03*
%TD*%
D20*
%TO.N,GND*%
X134320000Y-137860000D03*
X121010000Y-132650000D03*
X138176000Y-111506000D03*
X123160000Y-106970000D03*
%TD*%
%TA.AperFunction,Conductor*%
%TO.N,GND*%
G36*
X149134066Y-86422627D02*
G01*
X149191109Y-86423559D01*
X149195224Y-86423693D01*
X150402671Y-86482947D01*
X150406736Y-86483215D01*
X151611530Y-86581894D01*
X151615605Y-86582295D01*
X152816560Y-86720303D01*
X152820628Y-86720838D01*
X154016410Y-86898021D01*
X154020457Y-86898689D01*
X155209839Y-87114865D01*
X155213853Y-87115662D01*
X155507271Y-87178964D01*
X156395495Y-87370589D01*
X156399506Y-87371523D01*
X157143606Y-87557700D01*
X157572213Y-87664939D01*
X157576152Y-87665994D01*
X158738632Y-87997580D01*
X158742569Y-87998773D01*
X159893621Y-88368185D01*
X159897463Y-88369488D01*
X160704763Y-88658006D01*
X161035796Y-88776313D01*
X161039651Y-88777762D01*
X162164079Y-89221575D01*
X162167885Y-89223150D01*
X162442739Y-89342159D01*
X163277211Y-89703478D01*
X163280888Y-89705142D01*
X164373955Y-90221484D01*
X164377624Y-90223291D01*
X165453204Y-90775071D01*
X165456838Y-90777011D01*
X166513777Y-91363632D01*
X166517345Y-91365689D01*
X166779025Y-91522326D01*
X167554587Y-91986565D01*
X167558042Y-91988710D01*
X168269937Y-92447092D01*
X168574425Y-92643148D01*
X168577851Y-92645434D01*
X169572295Y-93332737D01*
X169575644Y-93335134D01*
X170547061Y-94054547D01*
X170550331Y-94057052D01*
X171497766Y-94807871D01*
X171500951Y-94810482D01*
X172423302Y-95591833D01*
X172426364Y-95594513D01*
X172871057Y-95996915D01*
X173322725Y-96405629D01*
X173325733Y-96408442D01*
X174195069Y-97248385D01*
X174197984Y-97251295D01*
X175039402Y-98119203D01*
X175042220Y-98122206D01*
X175854839Y-99017169D01*
X175857558Y-99020264D01*
X176640472Y-99941285D01*
X176643088Y-99944466D01*
X177395503Y-100890609D01*
X177398013Y-100893874D01*
X178119072Y-101864064D01*
X178121475Y-101867409D01*
X178810466Y-102860685D01*
X178812758Y-102864107D01*
X179468915Y-103879369D01*
X179471094Y-103882865D01*
X180093708Y-104919014D01*
X180095771Y-104922578D01*
X180684187Y-105978521D01*
X180686124Y-105982134D01*
X180975112Y-106543109D01*
X181239732Y-107056781D01*
X181241558Y-107060473D01*
X181759738Y-108152623D01*
X181761442Y-108156372D01*
X182243650Y-109264873D01*
X182245218Y-109268646D01*
X182690933Y-110392303D01*
X182692389Y-110396156D01*
X183101142Y-111533785D01*
X183102471Y-111537683D01*
X183473824Y-112688062D01*
X183475025Y-112692002D01*
X183808574Y-113853882D01*
X183809646Y-113857857D01*
X184094164Y-114986850D01*
X184105053Y-115030060D01*
X184105990Y-115034054D01*
X184354067Y-116174547D01*
X184362922Y-116215258D01*
X184363728Y-116219277D01*
X184467350Y-116783943D01*
X184581925Y-117408293D01*
X184582602Y-117412356D01*
X184745669Y-118500121D01*
X184761814Y-118607822D01*
X184762355Y-118611883D01*
X184814761Y-119061192D01*
X184902402Y-119812602D01*
X184902812Y-119816700D01*
X185003537Y-121021321D01*
X185003813Y-121025430D01*
X185032820Y-121596682D01*
X185062655Y-122184248D01*
X185065116Y-122232722D01*
X185065256Y-122236809D01*
X185083133Y-123227534D01*
X185087065Y-123445453D01*
X185087072Y-123449571D01*
X185069368Y-124658252D01*
X185069241Y-124662369D01*
X185042853Y-125219412D01*
X185013870Y-125831258D01*
X185012041Y-125869859D01*
X185011780Y-125873950D01*
X184928127Y-126917044D01*
X184915142Y-127078958D01*
X184914746Y-127083045D01*
X184903862Y-127179200D01*
X184778783Y-128284188D01*
X184778253Y-128288273D01*
X184603102Y-129484347D01*
X184602439Y-129488411D01*
X184419320Y-130505735D01*
X184388289Y-130678126D01*
X184387495Y-130682160D01*
X184327110Y-130964383D01*
X184134575Y-131864235D01*
X184133648Y-131868247D01*
X183842229Y-133041425D01*
X183841171Y-133045406D01*
X183511560Y-134208446D01*
X183510372Y-134212390D01*
X183341198Y-134742614D01*
X183163962Y-135298104D01*
X183142932Y-135364015D01*
X183141622Y-135367900D01*
X182807579Y-136307614D01*
X182736725Y-136506937D01*
X182735282Y-136510794D01*
X182293394Y-137635938D01*
X182291826Y-137639747D01*
X182187159Y-137882607D01*
X181991706Y-138336121D01*
X181813394Y-138749860D01*
X181811706Y-138753609D01*
X181297216Y-139847559D01*
X181295428Y-139851204D01*
X181047717Y-140336092D01*
X180745487Y-140927697D01*
X180743554Y-140931334D01*
X180382201Y-141585014D01*
X180206159Y-141903470D01*
X180158703Y-141989316D01*
X180156654Y-141992881D01*
X179993812Y-142265979D01*
X179537572Y-143031122D01*
X179535405Y-143034625D01*
X178882708Y-144052097D01*
X178880428Y-144055527D01*
X178762220Y-144227182D01*
X178272369Y-144938518D01*
X178194815Y-145051137D01*
X178192430Y-145054481D01*
X177519705Y-145966089D01*
X177474661Y-146027128D01*
X177472166Y-146030397D01*
X177188467Y-146389639D01*
X176722965Y-146979095D01*
X176720360Y-146982285D01*
X175940565Y-147905977D01*
X175937857Y-147909080D01*
X175128294Y-148806783D01*
X175125486Y-148809796D01*
X174287020Y-149680557D01*
X174284115Y-149683477D01*
X173417622Y-150526383D01*
X173414623Y-150529206D01*
X172830016Y-151061839D01*
X172766190Y-151092932D01*
X172745157Y-151094700D01*
X123215643Y-151094700D01*
X123147522Y-151074698D01*
X123130784Y-151061839D01*
X122546177Y-150529206D01*
X122543178Y-150526383D01*
X121676685Y-149683477D01*
X121673780Y-149680557D01*
X120835314Y-148809796D01*
X120832506Y-148806783D01*
X120022943Y-147909080D01*
X120020235Y-147905977D01*
X119240440Y-146982285D01*
X119237835Y-146979095D01*
X118772333Y-146389639D01*
X118488634Y-146030397D01*
X118486139Y-146027128D01*
X118441095Y-145966089D01*
X118439212Y-145963538D01*
X156689500Y-145963538D01*
X156700949Y-146104302D01*
X156756463Y-146320513D01*
X156849386Y-146523475D01*
X156852586Y-146528079D01*
X156852587Y-146528081D01*
X156965011Y-146689837D01*
X156976783Y-146706775D01*
X157134625Y-146864617D01*
X157139231Y-146867818D01*
X157139233Y-146867820D01*
X157313312Y-146988808D01*
X157317925Y-146992014D01*
X157444085Y-147049774D01*
X157515782Y-147082600D01*
X157515784Y-147082601D01*
X157520887Y-147084937D01*
X157737098Y-147140451D01*
X157801232Y-147145667D01*
X157875311Y-147151693D01*
X157875323Y-147151693D01*
X157877862Y-147151900D01*
X158702138Y-147151900D01*
X158704677Y-147151693D01*
X158704689Y-147151693D01*
X158778768Y-147145667D01*
X158842902Y-147140451D01*
X159059113Y-147084937D01*
X159064216Y-147082601D01*
X159064218Y-147082600D01*
X159135915Y-147049774D01*
X159262075Y-146992014D01*
X159266682Y-146988812D01*
X159266689Y-146988808D01*
X159342390Y-146936194D01*
X159409742Y-146913740D01*
X159480135Y-146932226D01*
X159556911Y-146979275D01*
X159556921Y-146979280D01*
X159561141Y-146981866D01*
X159565711Y-146983759D01*
X159565715Y-146983761D01*
X159789316Y-147076379D01*
X159793889Y-147078273D01*
X159821647Y-147084937D01*
X160034039Y-147135928D01*
X160034045Y-147135929D01*
X160038852Y-147137083D01*
X160290000Y-147156849D01*
X160541148Y-147137083D01*
X160545955Y-147135929D01*
X160545961Y-147135928D01*
X160758353Y-147084937D01*
X160786111Y-147078273D01*
X160790684Y-147076379D01*
X161014285Y-146983761D01*
X161014289Y-146983759D01*
X161018859Y-146981866D01*
X161210191Y-146864617D01*
X161224165Y-146856054D01*
X161292699Y-146837516D01*
X161355835Y-146856054D01*
X161369809Y-146864617D01*
X161561141Y-146981866D01*
X161565711Y-146983759D01*
X161565715Y-146983761D01*
X161789316Y-147076379D01*
X161793889Y-147078273D01*
X161821647Y-147084937D01*
X162034039Y-147135928D01*
X162034045Y-147135929D01*
X162038852Y-147137083D01*
X162290000Y-147156849D01*
X162541148Y-147137083D01*
X162545955Y-147135929D01*
X162545961Y-147135928D01*
X162758353Y-147084937D01*
X162786111Y-147078273D01*
X162790684Y-147076379D01*
X163014285Y-146983761D01*
X163014289Y-146983759D01*
X163018859Y-146981866D01*
X163233659Y-146850236D01*
X163237419Y-146847024D01*
X163237424Y-146847021D01*
X163421462Y-146689837D01*
X163425224Y-146686624D01*
X163560293Y-146528478D01*
X163619743Y-146489670D01*
X163690737Y-146489164D01*
X163719198Y-146501246D01*
X163821467Y-146560410D01*
X163832331Y-146565384D01*
X164020727Y-146630807D01*
X164021716Y-146631048D01*
X164032008Y-146629580D01*
X164036000Y-146616015D01*
X164036000Y-146611802D01*
X164544000Y-146611802D01*
X164547973Y-146625333D01*
X164557399Y-146626688D01*
X164646537Y-146605206D01*
X164657832Y-146601317D01*
X164839382Y-146518771D01*
X164849724Y-146512824D01*
X165012397Y-146397432D01*
X165021425Y-146389639D01*
X165159342Y-146245569D01*
X165166738Y-146236204D01*
X165274921Y-146068659D01*
X165280417Y-146058055D01*
X165354961Y-145873088D01*
X165358355Y-145861630D01*
X165396857Y-145664472D01*
X165397934Y-145655609D01*
X165398000Y-145652900D01*
X165398000Y-145548515D01*
X165393525Y-145533276D01*
X165392135Y-145532071D01*
X165384452Y-145530400D01*
X164562115Y-145530400D01*
X164546876Y-145534875D01*
X164545671Y-145536265D01*
X164544000Y-145543948D01*
X164544000Y-146611802D01*
X164036000Y-146611802D01*
X164036000Y-145004285D01*
X164544000Y-145004285D01*
X164548475Y-145019524D01*
X164549865Y-145020729D01*
X164557548Y-145022400D01*
X165379885Y-145022400D01*
X165395124Y-145017925D01*
X165396329Y-145016535D01*
X165398000Y-145008852D01*
X165398000Y-144951568D01*
X165397715Y-144945592D01*
X165383529Y-144796906D01*
X165381270Y-144785172D01*
X165325128Y-144593801D01*
X165320698Y-144582725D01*
X165229381Y-144405422D01*
X165222931Y-144395376D01*
X165099738Y-144238543D01*
X165091501Y-144229894D01*
X164940877Y-144099188D01*
X164931153Y-144092253D01*
X164758533Y-143992390D01*
X164747669Y-143987416D01*
X164559273Y-143921993D01*
X164558284Y-143921752D01*
X164547992Y-143923220D01*
X164544000Y-143936785D01*
X164544000Y-145004285D01*
X164036000Y-145004285D01*
X164036000Y-143940998D01*
X164032027Y-143927467D01*
X164022601Y-143926112D01*
X163933463Y-143947594D01*
X163922168Y-143951483D01*
X163740618Y-144034029D01*
X163730275Y-144039976D01*
X163726678Y-144042528D01*
X163659545Y-144065630D01*
X163590579Y-144048769D01*
X163557964Y-144021595D01*
X163425224Y-143866176D01*
X163324105Y-143779812D01*
X163237424Y-143705779D01*
X163237419Y-143705776D01*
X163233659Y-143702564D01*
X163018859Y-143570934D01*
X163014289Y-143569041D01*
X163014285Y-143569039D01*
X162790684Y-143476421D01*
X162790682Y-143476420D01*
X162786111Y-143474527D01*
X162701711Y-143454265D01*
X162545961Y-143416872D01*
X162545955Y-143416871D01*
X162541148Y-143415717D01*
X162290000Y-143395951D01*
X162038852Y-143415717D01*
X162034045Y-143416871D01*
X162034039Y-143416872D01*
X161878289Y-143454265D01*
X161793889Y-143474527D01*
X161789318Y-143476420D01*
X161789316Y-143476421D01*
X161565715Y-143569039D01*
X161565711Y-143569041D01*
X161561141Y-143570934D01*
X161556921Y-143573520D01*
X161355835Y-143696746D01*
X161287301Y-143715284D01*
X161224165Y-143696746D01*
X161023079Y-143573520D01*
X161018859Y-143570934D01*
X161014289Y-143569041D01*
X161014285Y-143569039D01*
X160790684Y-143476421D01*
X160790682Y-143476420D01*
X160786111Y-143474527D01*
X160701711Y-143454265D01*
X160545961Y-143416872D01*
X160545955Y-143416871D01*
X160541148Y-143415717D01*
X160290000Y-143395951D01*
X160038852Y-143415717D01*
X160034045Y-143416871D01*
X160034039Y-143416872D01*
X159878289Y-143454265D01*
X159793889Y-143474527D01*
X159789318Y-143476420D01*
X159789316Y-143476421D01*
X159565715Y-143569039D01*
X159565711Y-143569041D01*
X159561141Y-143570934D01*
X159556922Y-143573519D01*
X159556911Y-143573525D01*
X159480135Y-143620574D01*
X159411602Y-143639113D01*
X159342390Y-143616606D01*
X159266689Y-143563992D01*
X159266682Y-143563988D01*
X159262075Y-143560786D01*
X159135915Y-143503026D01*
X159064218Y-143470200D01*
X159064216Y-143470199D01*
X159059113Y-143467863D01*
X158842902Y-143412349D01*
X158778768Y-143407133D01*
X158704689Y-143401107D01*
X158704677Y-143401107D01*
X158702138Y-143400900D01*
X157877862Y-143400900D01*
X157875323Y-143401107D01*
X157875311Y-143401107D01*
X157801232Y-143407133D01*
X157737098Y-143412349D01*
X157520887Y-143467863D01*
X157515784Y-143470199D01*
X157515782Y-143470200D01*
X157444085Y-143503026D01*
X157317925Y-143560786D01*
X157313321Y-143563986D01*
X157313319Y-143563987D01*
X157139233Y-143684980D01*
X157139231Y-143684982D01*
X157134625Y-143688183D01*
X156976783Y-143846025D01*
X156973582Y-143850631D01*
X156973580Y-143850633D01*
X156854760Y-144021593D01*
X156849386Y-144029325D01*
X156756463Y-144232287D01*
X156700949Y-144448498D01*
X156700514Y-144453851D01*
X156690032Y-144582725D01*
X156689500Y-144589262D01*
X156689500Y-145963538D01*
X118439212Y-145963538D01*
X117768370Y-145054481D01*
X117765985Y-145051137D01*
X117688432Y-144938518D01*
X117198580Y-144227182D01*
X117080372Y-144055527D01*
X117078092Y-144052097D01*
X116425395Y-143034625D01*
X116423228Y-143031122D01*
X115966988Y-142265979D01*
X115804146Y-141992881D01*
X115802097Y-141989316D01*
X115754642Y-141903470D01*
X115578599Y-141585014D01*
X115217246Y-140931334D01*
X115215313Y-140927697D01*
X114913083Y-140336092D01*
X114665372Y-139851204D01*
X114663584Y-139847559D01*
X114526915Y-139556963D01*
X115777622Y-139556963D01*
X115777851Y-139559808D01*
X115777851Y-139559811D01*
X115811602Y-139979289D01*
X115811860Y-139982501D01*
X115884525Y-140403185D01*
X115995018Y-140815551D01*
X115996003Y-140818228D01*
X116119090Y-141152766D01*
X116142431Y-141216206D01*
X116143656Y-141218786D01*
X116143659Y-141218793D01*
X116300034Y-141548116D01*
X116325549Y-141601851D01*
X116423036Y-141766692D01*
X116539519Y-141963655D01*
X116542865Y-141969313D01*
X116544527Y-141971617D01*
X116544528Y-141971619D01*
X116788605Y-142310040D01*
X116792591Y-142315567D01*
X117072671Y-142637762D01*
X117380800Y-142933247D01*
X117383018Y-142935017D01*
X117383023Y-142935022D01*
X117667616Y-143162209D01*
X117714441Y-143199589D01*
X117716804Y-143201147D01*
X117716808Y-143201150D01*
X118016795Y-143398955D01*
X118070849Y-143434597D01*
X118447088Y-143636335D01*
X118840064Y-143803143D01*
X118842773Y-143804013D01*
X118842779Y-143804015D01*
X119243814Y-143932773D01*
X119243818Y-143932774D01*
X119246540Y-143933648D01*
X119326329Y-143951483D01*
X119660378Y-144026153D01*
X119660389Y-144026155D01*
X119663172Y-144026777D01*
X120086529Y-144081761D01*
X120513127Y-144098149D01*
X120515989Y-144097999D01*
X120515990Y-144097999D01*
X120936599Y-144075956D01*
X120936606Y-144075955D01*
X120939455Y-144075806D01*
X120942278Y-144075399D01*
X120942280Y-144075399D01*
X121359182Y-144015323D01*
X121359189Y-144015322D01*
X121362004Y-144014916D01*
X121777294Y-143915980D01*
X121779992Y-143915072D01*
X121779999Y-143915070D01*
X122179197Y-143780725D01*
X122179203Y-143780723D01*
X122181909Y-143779812D01*
X122572517Y-143607533D01*
X122578312Y-143604321D01*
X122943402Y-143401949D01*
X122943404Y-143401948D01*
X122945904Y-143400562D01*
X123298995Y-143160601D01*
X123628885Y-142889627D01*
X123932858Y-142589868D01*
X123983028Y-142530500D01*
X124206567Y-142265979D01*
X124206572Y-142265973D01*
X124208413Y-142263794D01*
X124255055Y-142197183D01*
X124451645Y-141916422D01*
X124453280Y-141914087D01*
X124640137Y-141587816D01*
X135989500Y-141587816D01*
X135989749Y-141590603D01*
X135989749Y-141590609D01*
X135990972Y-141604312D01*
X136000234Y-141708087D01*
X136056259Y-141903470D01*
X136150427Y-142083596D01*
X136154458Y-142088539D01*
X136154459Y-142088540D01*
X136241317Y-142195039D01*
X136278891Y-142241109D01*
X136283831Y-142245138D01*
X136366248Y-142312355D01*
X136436404Y-142369573D01*
X136616530Y-142463741D01*
X136811913Y-142519766D01*
X136843545Y-142522589D01*
X136929391Y-142530251D01*
X136929397Y-142530251D01*
X136932184Y-142530500D01*
X138747816Y-142530500D01*
X138750603Y-142530251D01*
X138750609Y-142530251D01*
X138836455Y-142522589D01*
X138868087Y-142519766D01*
X139063470Y-142463741D01*
X139243596Y-142369573D01*
X139325617Y-142302679D01*
X139391046Y-142275126D01*
X139460987Y-142287321D01*
X139470237Y-142292376D01*
X139537745Y-142333019D01*
X139624070Y-142369573D01*
X139774962Y-142433468D01*
X139774966Y-142433469D01*
X139779060Y-142435203D01*
X139783352Y-142436341D01*
X139783355Y-142436342D01*
X139875535Y-142460783D01*
X140032365Y-142502366D01*
X140036789Y-142502890D01*
X140036791Y-142502890D01*
X140179380Y-142519766D01*
X140292607Y-142533167D01*
X140554592Y-142526993D01*
X140558986Y-142526262D01*
X140558993Y-142526261D01*
X140808692Y-142484700D01*
X140808696Y-142484699D01*
X140813094Y-142483967D01*
X140977061Y-142432111D01*
X141058709Y-142406289D01*
X141058711Y-142406288D01*
X141062955Y-142404946D01*
X141066966Y-142403020D01*
X141066971Y-142403018D01*
X141295169Y-142293439D01*
X141295170Y-142293438D01*
X141299188Y-142291509D01*
X141443566Y-142195039D01*
X141513374Y-142148395D01*
X141513379Y-142148391D01*
X141517082Y-142145917D01*
X141520398Y-142142946D01*
X141520403Y-142142943D01*
X141566606Y-142101560D01*
X141630694Y-142071011D01*
X141701125Y-142079960D01*
X141730221Y-142097704D01*
X141849778Y-142195039D01*
X141849782Y-142195042D01*
X141853235Y-142197853D01*
X141857057Y-142200154D01*
X141962763Y-142263794D01*
X142077745Y-142333019D01*
X142164070Y-142369573D01*
X142314962Y-142433468D01*
X142314966Y-142433469D01*
X142319060Y-142435203D01*
X142323352Y-142436341D01*
X142323355Y-142436342D01*
X142415535Y-142460783D01*
X142572365Y-142502366D01*
X142576789Y-142502890D01*
X142576791Y-142502890D01*
X142719380Y-142519766D01*
X142832607Y-142533167D01*
X143094592Y-142526993D01*
X143098986Y-142526262D01*
X143098993Y-142526261D01*
X143348692Y-142484700D01*
X143348696Y-142484699D01*
X143353094Y-142483967D01*
X143517061Y-142432111D01*
X143598709Y-142406289D01*
X143598711Y-142406288D01*
X143602955Y-142404946D01*
X143606966Y-142403020D01*
X143606971Y-142403018D01*
X143835169Y-142293439D01*
X143835170Y-142293438D01*
X143839188Y-142291509D01*
X143983566Y-142195039D01*
X144053374Y-142148395D01*
X144053379Y-142148391D01*
X144057082Y-142145917D01*
X144060398Y-142142946D01*
X144060403Y-142142943D01*
X144106606Y-142101560D01*
X144170694Y-142071011D01*
X144241125Y-142079960D01*
X144270221Y-142097704D01*
X144389778Y-142195039D01*
X144389782Y-142195042D01*
X144393235Y-142197853D01*
X144397057Y-142200154D01*
X144502763Y-142263794D01*
X144617745Y-142333019D01*
X144704070Y-142369573D01*
X144854962Y-142433468D01*
X144854966Y-142433469D01*
X144859060Y-142435203D01*
X144863352Y-142436341D01*
X144863355Y-142436342D01*
X144955535Y-142460783D01*
X145112365Y-142502366D01*
X145116789Y-142502890D01*
X145116791Y-142502890D01*
X145259380Y-142519766D01*
X145372607Y-142533167D01*
X145634592Y-142526993D01*
X145638986Y-142526262D01*
X145638993Y-142526261D01*
X145888692Y-142484700D01*
X145888696Y-142484699D01*
X145893094Y-142483967D01*
X146057061Y-142432111D01*
X146138709Y-142406289D01*
X146138711Y-142406288D01*
X146142955Y-142404946D01*
X146146966Y-142403020D01*
X146146971Y-142403018D01*
X146375169Y-142293439D01*
X146375170Y-142293438D01*
X146379188Y-142291509D01*
X146523566Y-142195039D01*
X146593374Y-142148395D01*
X146593379Y-142148391D01*
X146597082Y-142145917D01*
X146600398Y-142142946D01*
X146600403Y-142142943D01*
X146646606Y-142101560D01*
X146710694Y-142071011D01*
X146781125Y-142079960D01*
X146810221Y-142097704D01*
X146929778Y-142195039D01*
X146929782Y-142195042D01*
X146933235Y-142197853D01*
X146937057Y-142200154D01*
X147042763Y-142263794D01*
X147157745Y-142333019D01*
X147244070Y-142369573D01*
X147394962Y-142433468D01*
X147394966Y-142433469D01*
X147399060Y-142435203D01*
X147403352Y-142436341D01*
X147403355Y-142436342D01*
X147495535Y-142460783D01*
X147652365Y-142502366D01*
X147656789Y-142502890D01*
X147656791Y-142502890D01*
X147799380Y-142519766D01*
X147912607Y-142533167D01*
X148174592Y-142526993D01*
X148178986Y-142526262D01*
X148178993Y-142526261D01*
X148428692Y-142484700D01*
X148428696Y-142484699D01*
X148433094Y-142483967D01*
X148597061Y-142432111D01*
X148678709Y-142406289D01*
X148678711Y-142406288D01*
X148682955Y-142404946D01*
X148686966Y-142403020D01*
X148686971Y-142403018D01*
X148915169Y-142293439D01*
X148915170Y-142293438D01*
X148919188Y-142291509D01*
X149063566Y-142195039D01*
X149133374Y-142148395D01*
X149133379Y-142148391D01*
X149137082Y-142145917D01*
X149140398Y-142142946D01*
X149140403Y-142142943D01*
X149186606Y-142101560D01*
X149250694Y-142071011D01*
X149321125Y-142079960D01*
X149350221Y-142097704D01*
X149469778Y-142195039D01*
X149469782Y-142195042D01*
X149473235Y-142197853D01*
X149477057Y-142200154D01*
X149582763Y-142263794D01*
X149697745Y-142333019D01*
X149784070Y-142369573D01*
X149934962Y-142433468D01*
X149934966Y-142433469D01*
X149939060Y-142435203D01*
X149943352Y-142436341D01*
X149943355Y-142436342D01*
X150035535Y-142460783D01*
X150192365Y-142502366D01*
X150196789Y-142502890D01*
X150196791Y-142502890D01*
X150339380Y-142519766D01*
X150452607Y-142533167D01*
X150714592Y-142526993D01*
X150718986Y-142526262D01*
X150718993Y-142526261D01*
X150968692Y-142484700D01*
X150968696Y-142484699D01*
X150973094Y-142483967D01*
X151137061Y-142432111D01*
X151218709Y-142406289D01*
X151218711Y-142406288D01*
X151222955Y-142404946D01*
X151226966Y-142403020D01*
X151226971Y-142403018D01*
X151455169Y-142293439D01*
X151455170Y-142293438D01*
X151459188Y-142291509D01*
X151603566Y-142195039D01*
X151673374Y-142148395D01*
X151673379Y-142148391D01*
X151677082Y-142145917D01*
X151680398Y-142142946D01*
X151680403Y-142142943D01*
X151726606Y-142101560D01*
X151790694Y-142071011D01*
X151861125Y-142079960D01*
X151890221Y-142097704D01*
X152009778Y-142195039D01*
X152009782Y-142195042D01*
X152013235Y-142197853D01*
X152017057Y-142200154D01*
X152122763Y-142263794D01*
X152237745Y-142333019D01*
X152324070Y-142369573D01*
X152474962Y-142433468D01*
X152474966Y-142433469D01*
X152479060Y-142435203D01*
X152483352Y-142436341D01*
X152483355Y-142436342D01*
X152575535Y-142460783D01*
X152732365Y-142502366D01*
X152736789Y-142502890D01*
X152736791Y-142502890D01*
X152879380Y-142519766D01*
X152992607Y-142533167D01*
X153254592Y-142526993D01*
X153258986Y-142526262D01*
X153258993Y-142526261D01*
X153508692Y-142484700D01*
X153508696Y-142484699D01*
X153513094Y-142483967D01*
X153677061Y-142432111D01*
X153758709Y-142406289D01*
X153758711Y-142406288D01*
X153762955Y-142404946D01*
X153766966Y-142403020D01*
X153766971Y-142403018D01*
X153995169Y-142293439D01*
X153995170Y-142293438D01*
X153999188Y-142291509D01*
X154143566Y-142195039D01*
X154213374Y-142148395D01*
X154213379Y-142148391D01*
X154217082Y-142145917D01*
X154220398Y-142142946D01*
X154220403Y-142142943D01*
X154266606Y-142101560D01*
X154330694Y-142071011D01*
X154401125Y-142079960D01*
X154430221Y-142097704D01*
X154549778Y-142195039D01*
X154549782Y-142195042D01*
X154553235Y-142197853D01*
X154557057Y-142200154D01*
X154662763Y-142263794D01*
X154777745Y-142333019D01*
X154864070Y-142369573D01*
X155014962Y-142433468D01*
X155014966Y-142433469D01*
X155019060Y-142435203D01*
X155023352Y-142436341D01*
X155023355Y-142436342D01*
X155115535Y-142460783D01*
X155272365Y-142502366D01*
X155276789Y-142502890D01*
X155276791Y-142502890D01*
X155419380Y-142519766D01*
X155532607Y-142533167D01*
X155794592Y-142526993D01*
X155798986Y-142526262D01*
X155798993Y-142526261D01*
X156048692Y-142484700D01*
X156048696Y-142484699D01*
X156053094Y-142483967D01*
X156217061Y-142432111D01*
X156298709Y-142406289D01*
X156298711Y-142406288D01*
X156302955Y-142404946D01*
X156306966Y-142403020D01*
X156306971Y-142403018D01*
X156535169Y-142293439D01*
X156535170Y-142293438D01*
X156539188Y-142291509D01*
X156683566Y-142195039D01*
X156753374Y-142148395D01*
X156753379Y-142148391D01*
X156757082Y-142145917D01*
X156760398Y-142142946D01*
X156760403Y-142142943D01*
X156806606Y-142101560D01*
X156870694Y-142071011D01*
X156941125Y-142079960D01*
X156970221Y-142097704D01*
X157089778Y-142195039D01*
X157089782Y-142195042D01*
X157093235Y-142197853D01*
X157097057Y-142200154D01*
X157202763Y-142263794D01*
X157317745Y-142333019D01*
X157404070Y-142369573D01*
X157554962Y-142433468D01*
X157554966Y-142433469D01*
X157559060Y-142435203D01*
X157563352Y-142436341D01*
X157563355Y-142436342D01*
X157655535Y-142460783D01*
X157812365Y-142502366D01*
X157816789Y-142502890D01*
X157816791Y-142502890D01*
X157959380Y-142519766D01*
X158072607Y-142533167D01*
X158334592Y-142526993D01*
X158338986Y-142526262D01*
X158338993Y-142526261D01*
X158588692Y-142484700D01*
X158588696Y-142484699D01*
X158593094Y-142483967D01*
X158757061Y-142432111D01*
X158838709Y-142406289D01*
X158838711Y-142406288D01*
X158842955Y-142404946D01*
X158846966Y-142403020D01*
X158846971Y-142403018D01*
X159075169Y-142293439D01*
X159075170Y-142293438D01*
X159079188Y-142291509D01*
X159223566Y-142195039D01*
X159293380Y-142148391D01*
X159293384Y-142148388D01*
X159297082Y-142145917D01*
X159492287Y-141971076D01*
X159549116Y-141903470D01*
X159658043Y-141773886D01*
X159658045Y-141773884D01*
X159660910Y-141770475D01*
X159799586Y-141548116D01*
X159802717Y-141541035D01*
X159903749Y-141312503D01*
X159905547Y-141308436D01*
X159976681Y-141056216D01*
X159993943Y-140927697D01*
X160011139Y-140799673D01*
X160011140Y-140799665D01*
X160011566Y-140796491D01*
X160012855Y-140755488D01*
X160015126Y-140683222D01*
X160015126Y-140683217D01*
X160015227Y-140680000D01*
X159996719Y-140418596D01*
X159941563Y-140162408D01*
X159850860Y-139916547D01*
X159726420Y-139685920D01*
X159705714Y-139657886D01*
X159628799Y-139553751D01*
X170765358Y-139553751D01*
X170765587Y-139556596D01*
X170765587Y-139556599D01*
X170799130Y-139973496D01*
X170799596Y-139979289D01*
X170872261Y-140399973D01*
X170982754Y-140812339D01*
X170983739Y-140815016D01*
X171106826Y-141149554D01*
X171130167Y-141212994D01*
X171131392Y-141215574D01*
X171131395Y-141215581D01*
X171287163Y-141543627D01*
X171313285Y-141598639D01*
X171381421Y-141713851D01*
X171496907Y-141909127D01*
X171530601Y-141966101D01*
X171532263Y-141968405D01*
X171532264Y-141968407D01*
X171763507Y-142289033D01*
X171780327Y-142312355D01*
X172060407Y-142634550D01*
X172368536Y-142930035D01*
X172370754Y-142931805D01*
X172370759Y-142931810D01*
X172655089Y-143158787D01*
X172702177Y-143196377D01*
X172704540Y-143197935D01*
X172704544Y-143197938D01*
X173012352Y-143400900D01*
X173058585Y-143431385D01*
X173434824Y-143633123D01*
X173827800Y-143799931D01*
X173830509Y-143800801D01*
X173830515Y-143800803D01*
X174231550Y-143929561D01*
X174231554Y-143929562D01*
X174234276Y-143930436D01*
X174311036Y-143947594D01*
X174648114Y-144022941D01*
X174648125Y-144022943D01*
X174650908Y-144023565D01*
X175074265Y-144078549D01*
X175500863Y-144094937D01*
X175503725Y-144094787D01*
X175503726Y-144094787D01*
X175924335Y-144072744D01*
X175924342Y-144072743D01*
X175927191Y-144072594D01*
X175930014Y-144072187D01*
X175930016Y-144072187D01*
X176346918Y-144012111D01*
X176346925Y-144012110D01*
X176349740Y-144011704D01*
X176765030Y-143912768D01*
X176767728Y-143911860D01*
X176767735Y-143911858D01*
X177166933Y-143777513D01*
X177166939Y-143777511D01*
X177169645Y-143776600D01*
X177560253Y-143604321D01*
X177790992Y-143476421D01*
X177931138Y-143398737D01*
X177931140Y-143398736D01*
X177933640Y-143397350D01*
X178286731Y-143157389D01*
X178616621Y-142886415D01*
X178920594Y-142586656D01*
X179024466Y-142463741D01*
X179194303Y-142262767D01*
X179194308Y-142262761D01*
X179196149Y-142260582D01*
X179441016Y-141910875D01*
X179653180Y-141540415D01*
X179759389Y-141308436D01*
X179829707Y-141154847D01*
X179830896Y-141152250D01*
X179831841Y-141149565D01*
X179831846Y-141149554D01*
X179948524Y-140818228D01*
X179972700Y-140749576D01*
X179989490Y-140683222D01*
X180076722Y-140338486D01*
X180076723Y-140338482D01*
X180077425Y-140335707D01*
X180144209Y-139914050D01*
X180162003Y-139646149D01*
X180172386Y-139489826D01*
X180172386Y-139489818D01*
X180172502Y-139488076D01*
X180173534Y-139389531D01*
X180154168Y-138963057D01*
X180096229Y-138540094D01*
X180090717Y-138516216D01*
X180000839Y-138126912D01*
X180000838Y-138126910D01*
X180000195Y-138124123D01*
X179920933Y-137883045D01*
X179867750Y-137721290D01*
X179867750Y-137721289D01*
X179866855Y-137718568D01*
X179865724Y-137715954D01*
X179865720Y-137715944D01*
X179782081Y-137522667D01*
X179697307Y-137326766D01*
X179571739Y-137096458D01*
X179494317Y-136954456D01*
X179494313Y-136954449D01*
X179492947Y-136951944D01*
X179255458Y-136597186D01*
X178986793Y-136265412D01*
X178801752Y-136075130D01*
X178691154Y-135961400D01*
X178691150Y-135961396D01*
X178689164Y-135959354D01*
X178687006Y-135957504D01*
X178686996Y-135957495D01*
X178367195Y-135683393D01*
X178367190Y-135683389D01*
X178365021Y-135681530D01*
X178362690Y-135679873D01*
X178362683Y-135679868D01*
X178019368Y-135435887D01*
X178019366Y-135435886D01*
X178017032Y-135434227D01*
X177791289Y-135302841D01*
X177650518Y-135220910D01*
X177650511Y-135220906D01*
X177648062Y-135219481D01*
X177410706Y-135108800D01*
X177263744Y-135040270D01*
X177263734Y-135040266D01*
X177261148Y-135039060D01*
X177258451Y-135038089D01*
X176862163Y-134895417D01*
X176862154Y-134895414D01*
X176859473Y-134894449D01*
X176586014Y-134823218D01*
X176449115Y-134787558D01*
X176449109Y-134787557D01*
X176446346Y-134786837D01*
X176025165Y-134717111D01*
X176022322Y-134716902D01*
X176022320Y-134716902D01*
X175602245Y-134686054D01*
X175599399Y-134685845D01*
X175421810Y-134688945D01*
X175175402Y-134693245D01*
X175175397Y-134693245D01*
X175172551Y-134693295D01*
X175169718Y-134693603D01*
X175169714Y-134693603D01*
X174831760Y-134730317D01*
X174748135Y-134739402D01*
X174329644Y-134823784D01*
X174326911Y-134824599D01*
X174326906Y-134824600D01*
X174066056Y-134902363D01*
X173920524Y-134945748D01*
X173917863Y-134946812D01*
X173917861Y-134946813D01*
X173679197Y-135042272D01*
X173524141Y-135104290D01*
X173515290Y-135108800D01*
X173146302Y-135296808D01*
X173146297Y-135296811D01*
X173143759Y-135298104D01*
X173141341Y-135299627D01*
X173141337Y-135299629D01*
X173039094Y-135364015D01*
X172782508Y-135525596D01*
X172443362Y-135784893D01*
X172129113Y-136073860D01*
X171842347Y-136390119D01*
X171840623Y-136392406D01*
X171840622Y-136392408D01*
X171805202Y-136439412D01*
X171585424Y-136731067D01*
X171360460Y-137093897D01*
X171169306Y-137475623D01*
X171168265Y-137478279D01*
X171168262Y-137478286D01*
X171087990Y-137683117D01*
X171013535Y-137873103D01*
X171012743Y-137875830D01*
X171012739Y-137875841D01*
X170938863Y-138130124D01*
X170894430Y-138283065D01*
X170812971Y-138702134D01*
X170769829Y-139126862D01*
X170765358Y-139553751D01*
X159628799Y-139553751D01*
X159575735Y-139481907D01*
X159551353Y-139415228D01*
X159566890Y-139345953D01*
X159580636Y-139325973D01*
X159658045Y-139233883D01*
X159660910Y-139230475D01*
X159799586Y-139008116D01*
X159807407Y-138990427D01*
X159903749Y-138772503D01*
X159905547Y-138768436D01*
X159910029Y-138752546D01*
X159923340Y-138705346D01*
X159976681Y-138516216D01*
X159992563Y-138397973D01*
X160011139Y-138259673D01*
X160011140Y-138259665D01*
X160011566Y-138256491D01*
X160015227Y-138140000D01*
X159996719Y-137878596D01*
X159941563Y-137622408D01*
X159921013Y-137566703D01*
X159852401Y-137380724D01*
X159850860Y-137376547D01*
X159726420Y-137145920D01*
X159710783Y-137124748D01*
X159573370Y-136938706D01*
X159570726Y-136935126D01*
X159386884Y-136748374D01*
X159318336Y-136696060D01*
X159182107Y-136592093D01*
X159182103Y-136592090D01*
X159178562Y-136589388D01*
X158949917Y-136461340D01*
X158945768Y-136459735D01*
X158945764Y-136459733D01*
X158768631Y-136391206D01*
X158705512Y-136366787D01*
X158701191Y-136365785D01*
X158701183Y-136365783D01*
X158533069Y-136326817D01*
X158450221Y-136307614D01*
X158189141Y-136285002D01*
X158184706Y-136285246D01*
X158184702Y-136285246D01*
X157931921Y-136299157D01*
X157931914Y-136299158D01*
X157927478Y-136299402D01*
X157670456Y-136350527D01*
X157666246Y-136352005D01*
X157666244Y-136352006D01*
X157563766Y-136387994D01*
X157423201Y-136437357D01*
X157419250Y-136439410D01*
X157419244Y-136439412D01*
X157291894Y-136505566D01*
X157190647Y-136558159D01*
X157187032Y-136560742D01*
X157187026Y-136560746D01*
X156981055Y-136707935D01*
X156981051Y-136707938D01*
X156977434Y-136710523D01*
X156974215Y-136713594D01*
X156970777Y-136716438D01*
X156969900Y-136715378D01*
X156912117Y-136745172D01*
X156841441Y-136738429D01*
X156811820Y-136721614D01*
X156642107Y-136592093D01*
X156642103Y-136592090D01*
X156638562Y-136589388D01*
X156409917Y-136461340D01*
X156405768Y-136459735D01*
X156405764Y-136459733D01*
X156228631Y-136391206D01*
X156165512Y-136366787D01*
X156161191Y-136365785D01*
X156161183Y-136365783D01*
X155993069Y-136326817D01*
X155910221Y-136307614D01*
X155649141Y-136285002D01*
X155644706Y-136285246D01*
X155644702Y-136285246D01*
X155391921Y-136299157D01*
X155391914Y-136299158D01*
X155387478Y-136299402D01*
X155130456Y-136350527D01*
X155126246Y-136352005D01*
X155126244Y-136352006D01*
X155023766Y-136387994D01*
X154883201Y-136437357D01*
X154879250Y-136439410D01*
X154879244Y-136439412D01*
X154751894Y-136505566D01*
X154650647Y-136558159D01*
X154647032Y-136560742D01*
X154647026Y-136560746D01*
X154441055Y-136707935D01*
X154441051Y-136707938D01*
X154437434Y-136710523D01*
X154434215Y-136713594D01*
X154430777Y-136716438D01*
X154429900Y-136715378D01*
X154372117Y-136745172D01*
X154301441Y-136738429D01*
X154271820Y-136721614D01*
X154102107Y-136592093D01*
X154102103Y-136592090D01*
X154098562Y-136589388D01*
X153869917Y-136461340D01*
X153865768Y-136459735D01*
X153865764Y-136459733D01*
X153688631Y-136391206D01*
X153625512Y-136366787D01*
X153621191Y-136365785D01*
X153621183Y-136365783D01*
X153453069Y-136326817D01*
X153370221Y-136307614D01*
X153109141Y-136285002D01*
X153104706Y-136285246D01*
X153104702Y-136285246D01*
X152851921Y-136299157D01*
X152851914Y-136299158D01*
X152847478Y-136299402D01*
X152590456Y-136350527D01*
X152586246Y-136352005D01*
X152586244Y-136352006D01*
X152483766Y-136387994D01*
X152343201Y-136437357D01*
X152339250Y-136439410D01*
X152339244Y-136439412D01*
X152211894Y-136505566D01*
X152110647Y-136558159D01*
X152107032Y-136560742D01*
X152107026Y-136560746D01*
X151901055Y-136707935D01*
X151901051Y-136707938D01*
X151897434Y-136710523D01*
X151894215Y-136713594D01*
X151890777Y-136716438D01*
X151889900Y-136715378D01*
X151832117Y-136745172D01*
X151761441Y-136738429D01*
X151731820Y-136721614D01*
X151562107Y-136592093D01*
X151562103Y-136592090D01*
X151558562Y-136589388D01*
X151329917Y-136461340D01*
X151325768Y-136459735D01*
X151325764Y-136459733D01*
X151148631Y-136391206D01*
X151085512Y-136366787D01*
X151081191Y-136365785D01*
X151081183Y-136365783D01*
X150913069Y-136326817D01*
X150830221Y-136307614D01*
X150569141Y-136285002D01*
X150564706Y-136285246D01*
X150564702Y-136285246D01*
X150311921Y-136299157D01*
X150311914Y-136299158D01*
X150307478Y-136299402D01*
X150050456Y-136350527D01*
X150046246Y-136352005D01*
X150046244Y-136352006D01*
X149943766Y-136387994D01*
X149803201Y-136437357D01*
X149799250Y-136439410D01*
X149799244Y-136439412D01*
X149671894Y-136505566D01*
X149570647Y-136558159D01*
X149567032Y-136560742D01*
X149567026Y-136560746D01*
X149361055Y-136707935D01*
X149361051Y-136707938D01*
X149357434Y-136710523D01*
X149354215Y-136713594D01*
X149350777Y-136716438D01*
X149349900Y-136715378D01*
X149292117Y-136745172D01*
X149221441Y-136738429D01*
X149191820Y-136721614D01*
X149022107Y-136592093D01*
X149022103Y-136592090D01*
X149018562Y-136589388D01*
X148789917Y-136461340D01*
X148785768Y-136459735D01*
X148785764Y-136459733D01*
X148608631Y-136391206D01*
X148545512Y-136366787D01*
X148541191Y-136365785D01*
X148541183Y-136365783D01*
X148373069Y-136326817D01*
X148290221Y-136307614D01*
X148029141Y-136285002D01*
X148024706Y-136285246D01*
X148024702Y-136285246D01*
X147771921Y-136299157D01*
X147771914Y-136299158D01*
X147767478Y-136299402D01*
X147510456Y-136350527D01*
X147506246Y-136352005D01*
X147506244Y-136352006D01*
X147403766Y-136387994D01*
X147263201Y-136437357D01*
X147259250Y-136439410D01*
X147259244Y-136439412D01*
X147131894Y-136505566D01*
X147030647Y-136558159D01*
X147027032Y-136560742D01*
X147027026Y-136560746D01*
X146821055Y-136707935D01*
X146821051Y-136707938D01*
X146817434Y-136710523D01*
X146814215Y-136713594D01*
X146810777Y-136716438D01*
X146809900Y-136715378D01*
X146752117Y-136745172D01*
X146681441Y-136738429D01*
X146651820Y-136721614D01*
X146482107Y-136592093D01*
X146482103Y-136592090D01*
X146478562Y-136589388D01*
X146249917Y-136461340D01*
X146245768Y-136459735D01*
X146245764Y-136459733D01*
X146068631Y-136391206D01*
X146005512Y-136366787D01*
X146001191Y-136365785D01*
X146001183Y-136365783D01*
X145833069Y-136326817D01*
X145750221Y-136307614D01*
X145489141Y-136285002D01*
X145484706Y-136285246D01*
X145484702Y-136285246D01*
X145231921Y-136299157D01*
X145231914Y-136299158D01*
X145227478Y-136299402D01*
X144970456Y-136350527D01*
X144966246Y-136352005D01*
X144966244Y-136352006D01*
X144863766Y-136387994D01*
X144723201Y-136437357D01*
X144719250Y-136439410D01*
X144719244Y-136439412D01*
X144591894Y-136505566D01*
X144490647Y-136558159D01*
X144487032Y-136560742D01*
X144487026Y-136560746D01*
X144281055Y-136707935D01*
X144281051Y-136707938D01*
X144277434Y-136710523D01*
X144274215Y-136713594D01*
X144270777Y-136716438D01*
X144269900Y-136715378D01*
X144212117Y-136745172D01*
X144141441Y-136738429D01*
X144111820Y-136721614D01*
X143942107Y-136592093D01*
X143942103Y-136592090D01*
X143938562Y-136589388D01*
X143709917Y-136461340D01*
X143705768Y-136459735D01*
X143705764Y-136459733D01*
X143528631Y-136391206D01*
X143465512Y-136366787D01*
X143461191Y-136365785D01*
X143461183Y-136365783D01*
X143293069Y-136326817D01*
X143210221Y-136307614D01*
X142949141Y-136285002D01*
X142944706Y-136285246D01*
X142944702Y-136285246D01*
X142691921Y-136299157D01*
X142691914Y-136299158D01*
X142687478Y-136299402D01*
X142430456Y-136350527D01*
X142426246Y-136352005D01*
X142426244Y-136352006D01*
X142323766Y-136387994D01*
X142183201Y-136437357D01*
X142179250Y-136439410D01*
X142179244Y-136439412D01*
X142051894Y-136505566D01*
X141950647Y-136558159D01*
X141947032Y-136560742D01*
X141947026Y-136560746D01*
X141741055Y-136707935D01*
X141741051Y-136707938D01*
X141737434Y-136710523D01*
X141734215Y-136713594D01*
X141730777Y-136716438D01*
X141729900Y-136715378D01*
X141672117Y-136745172D01*
X141601441Y-136738429D01*
X141571820Y-136721614D01*
X141402107Y-136592093D01*
X141402103Y-136592090D01*
X141398562Y-136589388D01*
X141169917Y-136461340D01*
X141165768Y-136459735D01*
X141165764Y-136459733D01*
X140988631Y-136391206D01*
X140925512Y-136366787D01*
X140921191Y-136365785D01*
X140921183Y-136365783D01*
X140753069Y-136326817D01*
X140670221Y-136307614D01*
X140409141Y-136285002D01*
X140404706Y-136285246D01*
X140404702Y-136285246D01*
X140151921Y-136299157D01*
X140151914Y-136299158D01*
X140147478Y-136299402D01*
X139890456Y-136350527D01*
X139886246Y-136352005D01*
X139886244Y-136352006D01*
X139783766Y-136387994D01*
X139643201Y-136437357D01*
X139639250Y-136439410D01*
X139639244Y-136439412D01*
X139511894Y-136505566D01*
X139410647Y-136558159D01*
X139407032Y-136560742D01*
X139407026Y-136560746D01*
X139201055Y-136707935D01*
X139201051Y-136707938D01*
X139197434Y-136710523D01*
X139157756Y-136748374D01*
X139078186Y-136824280D01*
X139007816Y-136891409D01*
X139005060Y-136894905D01*
X138871943Y-137063764D01*
X138814062Y-137104877D01*
X138743142Y-137108171D01*
X138694901Y-137084640D01*
X138598139Y-137008222D01*
X138589552Y-137002517D01*
X138403117Y-136899599D01*
X138393705Y-136895369D01*
X138192959Y-136824280D01*
X138182988Y-136821646D01*
X138111837Y-136808972D01*
X138098540Y-136810432D01*
X138094000Y-136824989D01*
X138094000Y-138268000D01*
X138073998Y-138336121D01*
X138020342Y-138382614D01*
X137968000Y-138394000D01*
X136523225Y-138394000D01*
X136509694Y-138397973D01*
X136508257Y-138407966D01*
X136538565Y-138542446D01*
X136541645Y-138552275D01*
X136621770Y-138749602D01*
X136623257Y-138752546D01*
X136623499Y-138753861D01*
X136623714Y-138754390D01*
X136623605Y-138754434D01*
X136636119Y-138822368D01*
X136609190Y-138888059D01*
X136569167Y-138921020D01*
X136436404Y-138990427D01*
X136431461Y-138994458D01*
X136431460Y-138994459D01*
X136283831Y-139114862D01*
X136278891Y-139118891D01*
X136274862Y-139123831D01*
X136187886Y-139230475D01*
X136150427Y-139276404D01*
X136056259Y-139456530D01*
X136000234Y-139651913D01*
X135989500Y-139772184D01*
X135989500Y-141587816D01*
X124640137Y-141587816D01*
X124665444Y-141543627D01*
X124668102Y-141537823D01*
X124841971Y-141158059D01*
X124843160Y-141155462D01*
X124844105Y-141152777D01*
X124844110Y-141152766D01*
X124969574Y-140796491D01*
X124984964Y-140752788D01*
X125089689Y-140338919D01*
X125090646Y-140332880D01*
X125156027Y-139920077D01*
X125156473Y-139917262D01*
X125184766Y-139491288D01*
X125185798Y-139392743D01*
X125166432Y-138966269D01*
X125108493Y-138543306D01*
X125107752Y-138540094D01*
X125013103Y-138130124D01*
X125013102Y-138130122D01*
X125012459Y-138127335D01*
X124997464Y-138081726D01*
X124929227Y-137874183D01*
X136504389Y-137874183D01*
X136505912Y-137882607D01*
X136518292Y-137886000D01*
X137567885Y-137886000D01*
X137583124Y-137881525D01*
X137584329Y-137880135D01*
X137586000Y-137872452D01*
X137586000Y-136823102D01*
X137582082Y-136809758D01*
X137567806Y-136807771D01*
X137529324Y-136813660D01*
X137519288Y-136816051D01*
X137316868Y-136882212D01*
X137307359Y-136886209D01*
X137118463Y-136984542D01*
X137109738Y-136990036D01*
X136939433Y-137117905D01*
X136931726Y-137124748D01*
X136784590Y-137278717D01*
X136778104Y-137286727D01*
X136658098Y-137462649D01*
X136653000Y-137471623D01*
X136563338Y-137664783D01*
X136559775Y-137674470D01*
X136504389Y-137874183D01*
X124929227Y-137874183D01*
X124880014Y-137724502D01*
X124880014Y-137724501D01*
X124879119Y-137721780D01*
X124877988Y-137719166D01*
X124877984Y-137719156D01*
X124794345Y-137525879D01*
X124709571Y-137329978D01*
X124582660Y-137097208D01*
X124506581Y-136957668D01*
X124506577Y-136957661D01*
X124505211Y-136955156D01*
X124267722Y-136600398D01*
X123999057Y-136268624D01*
X123995934Y-136265412D01*
X123703418Y-135964612D01*
X123703414Y-135964608D01*
X123701428Y-135962566D01*
X123699270Y-135960716D01*
X123699260Y-135960707D01*
X123379459Y-135686605D01*
X123379454Y-135686601D01*
X123377285Y-135684742D01*
X123374954Y-135683085D01*
X123374947Y-135683080D01*
X123031632Y-135439099D01*
X123031630Y-135439098D01*
X123029296Y-135437439D01*
X122909847Y-135367918D01*
X122662782Y-135224122D01*
X122662775Y-135224118D01*
X122660326Y-135222693D01*
X122416082Y-135108800D01*
X122276008Y-135043482D01*
X122275998Y-135043478D01*
X122273412Y-135042272D01*
X122017185Y-134950025D01*
X121874427Y-134898629D01*
X121874418Y-134898626D01*
X121871737Y-134897661D01*
X121585947Y-134823218D01*
X121461379Y-134790770D01*
X121461373Y-134790769D01*
X121458610Y-134790049D01*
X121037429Y-134720323D01*
X121034586Y-134720114D01*
X121034584Y-134720114D01*
X120614509Y-134689266D01*
X120611663Y-134689057D01*
X120434074Y-134692157D01*
X120187666Y-134696457D01*
X120187661Y-134696457D01*
X120184815Y-134696507D01*
X120181982Y-134696815D01*
X120181978Y-134696815D01*
X119965588Y-134720323D01*
X119760399Y-134742614D01*
X119341908Y-134826996D01*
X119339175Y-134827811D01*
X119339170Y-134827812D01*
X119104867Y-134897661D01*
X118932788Y-134948960D01*
X118930127Y-134950024D01*
X118930125Y-134950025D01*
X118541190Y-135105588D01*
X118536405Y-135107502D01*
X118533858Y-135108800D01*
X118158566Y-135300020D01*
X118158561Y-135300023D01*
X118156023Y-135301316D01*
X117794772Y-135528808D01*
X117455626Y-135788105D01*
X117141377Y-136077072D01*
X116854611Y-136393331D01*
X116597688Y-136734279D01*
X116372724Y-137097109D01*
X116181570Y-137478835D01*
X116180529Y-137481491D01*
X116180526Y-137481498D01*
X116088648Y-137715944D01*
X116025799Y-137876315D01*
X116025007Y-137879042D01*
X116025003Y-137879053D01*
X115914423Y-138259673D01*
X115906694Y-138286277D01*
X115825235Y-138705346D01*
X115782093Y-139130074D01*
X115777622Y-139556963D01*
X114526915Y-139556963D01*
X114149094Y-138753609D01*
X114147406Y-138749860D01*
X113969095Y-138336121D01*
X113773641Y-137882607D01*
X113668974Y-137639747D01*
X113667406Y-137635938D01*
X113225518Y-136510794D01*
X113224075Y-136506937D01*
X113153221Y-136307614D01*
X112819178Y-135367900D01*
X112817868Y-135364015D01*
X112796839Y-135298104D01*
X112619602Y-134742614D01*
X112450428Y-134212390D01*
X112449240Y-134208446D01*
X112119629Y-133045406D01*
X112118571Y-133041425D01*
X111827152Y-131868247D01*
X111826225Y-131864235D01*
X111657287Y-131074669D01*
X118102001Y-131074669D01*
X118102371Y-131081490D01*
X118107895Y-131132352D01*
X118111521Y-131147604D01*
X118156676Y-131268054D01*
X118165214Y-131283649D01*
X118241715Y-131385724D01*
X118254276Y-131398285D01*
X118356351Y-131474786D01*
X118371946Y-131483324D01*
X118492394Y-131528478D01*
X118507649Y-131532105D01*
X118558514Y-131537631D01*
X118565328Y-131538000D01*
X119137885Y-131538000D01*
X119153124Y-131533525D01*
X119154329Y-131532135D01*
X119156000Y-131524452D01*
X119156000Y-130502115D01*
X119151525Y-130486876D01*
X119150135Y-130485671D01*
X119142452Y-130484000D01*
X118120116Y-130484000D01*
X118104877Y-130488475D01*
X118103672Y-130489865D01*
X118102001Y-130497548D01*
X118102001Y-131074669D01*
X111657287Y-131074669D01*
X111633690Y-130964383D01*
X111573305Y-130682160D01*
X111572511Y-130678126D01*
X111541481Y-130505735D01*
X111442867Y-129957885D01*
X118102000Y-129957885D01*
X118106475Y-129973124D01*
X118107865Y-129974329D01*
X118115548Y-129976000D01*
X119137885Y-129976000D01*
X119153124Y-129971525D01*
X119154329Y-129970135D01*
X119156000Y-129962452D01*
X119156000Y-128940116D01*
X119151525Y-128924877D01*
X119150135Y-128923672D01*
X119142452Y-128922001D01*
X118565331Y-128922001D01*
X118558510Y-128922371D01*
X118507648Y-128927895D01*
X118492396Y-128931521D01*
X118371946Y-128976676D01*
X118356351Y-128985214D01*
X118254276Y-129061715D01*
X118241715Y-129074276D01*
X118165214Y-129176351D01*
X118156676Y-129191946D01*
X118111522Y-129312394D01*
X118107895Y-129327649D01*
X118102369Y-129378514D01*
X118102000Y-129385328D01*
X118102000Y-129957885D01*
X111442867Y-129957885D01*
X111358361Y-129488411D01*
X111357698Y-129484347D01*
X111182547Y-128288273D01*
X111182017Y-128284188D01*
X111056938Y-127179200D01*
X111046054Y-127083045D01*
X111045658Y-127078958D01*
X111032673Y-126917044D01*
X110949020Y-125873950D01*
X110948759Y-125869859D01*
X110946931Y-125831258D01*
X110917947Y-125219412D01*
X110891559Y-124662369D01*
X110891432Y-124658252D01*
X110880033Y-123880000D01*
X118484396Y-123880000D01*
X118504779Y-124138994D01*
X118505933Y-124143801D01*
X118505934Y-124143807D01*
X118544220Y-124303276D01*
X118565427Y-124391610D01*
X118567320Y-124396181D01*
X118567321Y-124396183D01*
X118662791Y-124626666D01*
X118664846Y-124631628D01*
X118800588Y-124853140D01*
X118969311Y-125050689D01*
X119166860Y-125219412D01*
X119388372Y-125355154D01*
X119392942Y-125357047D01*
X119392946Y-125357049D01*
X119613528Y-125448417D01*
X119628390Y-125454573D01*
X119716724Y-125475780D01*
X119876193Y-125514066D01*
X119876199Y-125514067D01*
X119881006Y-125515221D01*
X120140000Y-125535604D01*
X120398994Y-125515221D01*
X120403801Y-125514067D01*
X120403807Y-125514066D01*
X120563276Y-125475780D01*
X120651610Y-125454573D01*
X120666472Y-125448417D01*
X120887054Y-125357049D01*
X120887058Y-125357047D01*
X120891628Y-125355154D01*
X121113140Y-125219412D01*
X121310689Y-125050689D01*
X121479412Y-124853140D01*
X121615154Y-124631628D01*
X121617210Y-124626666D01*
X121712679Y-124396183D01*
X121712680Y-124396181D01*
X121714573Y-124391610D01*
X121735780Y-124303276D01*
X121774066Y-124143807D01*
X121774067Y-124143801D01*
X121775221Y-124138994D01*
X121795604Y-123880000D01*
X121775221Y-123621006D01*
X121774067Y-123616199D01*
X121774066Y-123616193D01*
X121715728Y-123373202D01*
X121714573Y-123368390D01*
X121657995Y-123231798D01*
X121617049Y-123132946D01*
X121617047Y-123132942D01*
X121615154Y-123128372D01*
X121479412Y-122906860D01*
X121310689Y-122709311D01*
X121306933Y-122706103D01*
X121306928Y-122706098D01*
X121306592Y-122705811D01*
X121306500Y-122705670D01*
X121303425Y-122702595D01*
X121304071Y-122701949D01*
X121267783Y-122646361D01*
X121267275Y-122575366D01*
X121304095Y-122518075D01*
X121303425Y-122517405D01*
X121306504Y-122514326D01*
X121306592Y-122514189D01*
X121306928Y-122513902D01*
X121306933Y-122513897D01*
X121310689Y-122510689D01*
X121479412Y-122313140D01*
X121615154Y-122091628D01*
X121617210Y-122086666D01*
X121712679Y-121856183D01*
X121712680Y-121856181D01*
X121714573Y-121851610D01*
X121735780Y-121763276D01*
X121774066Y-121603807D01*
X121774067Y-121603801D01*
X121775221Y-121598994D01*
X121795604Y-121340000D01*
X121775221Y-121081006D01*
X121774067Y-121076199D01*
X121774066Y-121076193D01*
X121715728Y-120833202D01*
X121714573Y-120828390D01*
X121657995Y-120691798D01*
X121617049Y-120592946D01*
X121617047Y-120592942D01*
X121615154Y-120588372D01*
X121479412Y-120366860D01*
X121310689Y-120169311D01*
X121113140Y-120000588D01*
X120891628Y-119864846D01*
X120887058Y-119862953D01*
X120887054Y-119862951D01*
X120656183Y-119767321D01*
X120656181Y-119767320D01*
X120651610Y-119765427D01*
X120563276Y-119744220D01*
X120403807Y-119705934D01*
X120403801Y-119705933D01*
X120398994Y-119704779D01*
X120140000Y-119684396D01*
X119881006Y-119704779D01*
X119876199Y-119705933D01*
X119876193Y-119705934D01*
X119716724Y-119744220D01*
X119628390Y-119765427D01*
X119623819Y-119767320D01*
X119623817Y-119767321D01*
X119392946Y-119862951D01*
X119392942Y-119862953D01*
X119388372Y-119864846D01*
X119166860Y-120000588D01*
X118969311Y-120169311D01*
X118800588Y-120366860D01*
X118664846Y-120588372D01*
X118662953Y-120592942D01*
X118662951Y-120592946D01*
X118622005Y-120691798D01*
X118565427Y-120828390D01*
X118564272Y-120833202D01*
X118505934Y-121076193D01*
X118505933Y-121076199D01*
X118504779Y-121081006D01*
X118484396Y-121340000D01*
X118504779Y-121598994D01*
X118505933Y-121603801D01*
X118505934Y-121603807D01*
X118544220Y-121763276D01*
X118565427Y-121851610D01*
X118567320Y-121856181D01*
X118567321Y-121856183D01*
X118662791Y-122086666D01*
X118664846Y-122091628D01*
X118800588Y-122313140D01*
X118969311Y-122510689D01*
X118973067Y-122513897D01*
X118973072Y-122513902D01*
X118973408Y-122514189D01*
X118973500Y-122514330D01*
X118976575Y-122517405D01*
X118975929Y-122518051D01*
X119012217Y-122573639D01*
X119012725Y-122644634D01*
X118975905Y-122701925D01*
X118976575Y-122702595D01*
X118973496Y-122705674D01*
X118973408Y-122705811D01*
X118973072Y-122706098D01*
X118973067Y-122706103D01*
X118969311Y-122709311D01*
X118800588Y-122906860D01*
X118664846Y-123128372D01*
X118662953Y-123132942D01*
X118662951Y-123132946D01*
X118622005Y-123231798D01*
X118565427Y-123368390D01*
X118564272Y-123373202D01*
X118505934Y-123616193D01*
X118505933Y-123616199D01*
X118504779Y-123621006D01*
X118484396Y-123880000D01*
X110880033Y-123880000D01*
X110873728Y-123449571D01*
X110873735Y-123445453D01*
X110877667Y-123227534D01*
X110895544Y-122236809D01*
X110895684Y-122232722D01*
X110898146Y-122184248D01*
X110927980Y-121596682D01*
X110956987Y-121025430D01*
X110957263Y-121021321D01*
X111057988Y-119816700D01*
X111058398Y-119812602D01*
X111146039Y-119061192D01*
X111198445Y-118611883D01*
X111198986Y-118607822D01*
X111215132Y-118500121D01*
X111378198Y-117412356D01*
X111378875Y-117408293D01*
X111493450Y-116783943D01*
X111597072Y-116219277D01*
X111597878Y-116215258D01*
X111606734Y-116174547D01*
X111854810Y-115034054D01*
X111855747Y-115030060D01*
X111866637Y-114986850D01*
X111877754Y-114942736D01*
X117605070Y-114942736D01*
X117617909Y-115210041D01*
X117670118Y-115472512D01*
X117760549Y-115724383D01*
X117762765Y-115728507D01*
X117830982Y-115855465D01*
X117887215Y-115960121D01*
X117890010Y-115963864D01*
X117890012Y-115963867D01*
X117974199Y-116076607D01*
X118047335Y-116174547D01*
X118050642Y-116177825D01*
X118050647Y-116177831D01*
X118226139Y-116351797D01*
X118237390Y-116362950D01*
X118241156Y-116365712D01*
X118241158Y-116365713D01*
X118352977Y-116447702D01*
X118453205Y-116521192D01*
X118457340Y-116523368D01*
X118457344Y-116523370D01*
X118586918Y-116591542D01*
X118690039Y-116645797D01*
X118730338Y-116659870D01*
X118938273Y-116732484D01*
X118938279Y-116732486D01*
X118942690Y-116734026D01*
X119205606Y-116783943D01*
X119332616Y-116788933D01*
X119468345Y-116794266D01*
X119468350Y-116794266D01*
X119473013Y-116794449D01*
X119568943Y-116783943D01*
X119734382Y-116765825D01*
X119734387Y-116765824D01*
X119739035Y-116765315D01*
X119854567Y-116734898D01*
X119938709Y-116712745D01*
X119997829Y-116697180D01*
X120136886Y-116637437D01*
X120207369Y-116628925D01*
X120271266Y-116659870D01*
X120308290Y-116720449D01*
X120306685Y-116791428D01*
X120302819Y-116801931D01*
X120252637Y-116921602D01*
X120237755Y-116957091D01*
X120236604Y-116961623D01*
X120236603Y-116961626D01*
X120173033Y-117211933D01*
X120171881Y-117216470D01*
X120145070Y-117482736D01*
X120157909Y-117750041D01*
X120210118Y-118012512D01*
X120300549Y-118264383D01*
X120302765Y-118268507D01*
X120370982Y-118395465D01*
X120427215Y-118500121D01*
X120430010Y-118503864D01*
X120430012Y-118503867D01*
X120564992Y-118684626D01*
X120587335Y-118714547D01*
X120590642Y-118717825D01*
X120590647Y-118717831D01*
X120757954Y-118883683D01*
X120777390Y-118902950D01*
X120781156Y-118905712D01*
X120781158Y-118905713D01*
X120796265Y-118916790D01*
X120993205Y-119061192D01*
X120997340Y-119063368D01*
X120997344Y-119063370D01*
X121126918Y-119131542D01*
X121230039Y-119185797D01*
X121234458Y-119187340D01*
X121478273Y-119272484D01*
X121478279Y-119272486D01*
X121482690Y-119274026D01*
X121745606Y-119323943D01*
X121872616Y-119328933D01*
X122008345Y-119334266D01*
X122008350Y-119334266D01*
X122013013Y-119334449D01*
X122108943Y-119323943D01*
X122274382Y-119305825D01*
X122274387Y-119305824D01*
X122279035Y-119305315D01*
X122310451Y-119297044D01*
X122478709Y-119252745D01*
X122537829Y-119237180D01*
X122684094Y-119174340D01*
X122779407Y-119133391D01*
X122779410Y-119133389D01*
X122783710Y-119131542D01*
X122787690Y-119129079D01*
X122787694Y-119129077D01*
X123007302Y-118993179D01*
X123007306Y-118993176D01*
X123011275Y-118990720D01*
X123104007Y-118912217D01*
X123211960Y-118820828D01*
X123211961Y-118820827D01*
X123215526Y-118817809D01*
X123283418Y-118740393D01*
X123388894Y-118620122D01*
X123388898Y-118620117D01*
X123391976Y-118616607D01*
X123394507Y-118612672D01*
X123534219Y-118395465D01*
X123534222Y-118395460D01*
X123536747Y-118391534D01*
X123646661Y-118147534D01*
X123719302Y-117889969D01*
X123737103Y-117750041D01*
X123752677Y-117627625D01*
X123752677Y-117627621D01*
X123753075Y-117624495D01*
X123755549Y-117530000D01*
X123735717Y-117263123D01*
X123725161Y-117216470D01*
X123677686Y-117006666D01*
X123676655Y-117002109D01*
X123643477Y-116916790D01*
X123600289Y-116805733D01*
X123594242Y-116734994D01*
X123627398Y-116672216D01*
X123689232Y-116637329D01*
X123760112Y-116641410D01*
X123766514Y-116643943D01*
X123770039Y-116645797D01*
X123774458Y-116647340D01*
X123774463Y-116647342D01*
X124018273Y-116732484D01*
X124018279Y-116732486D01*
X124022690Y-116734026D01*
X124285606Y-116783943D01*
X124412616Y-116788933D01*
X124548345Y-116794266D01*
X124548350Y-116794266D01*
X124553013Y-116794449D01*
X124648943Y-116783943D01*
X124814382Y-116765825D01*
X124814387Y-116765824D01*
X124819035Y-116765315D01*
X124934567Y-116734898D01*
X125018709Y-116712745D01*
X125077829Y-116697180D01*
X125303295Y-116600313D01*
X125319407Y-116593391D01*
X125319410Y-116593389D01*
X125323710Y-116591542D01*
X125327690Y-116589079D01*
X125327694Y-116589077D01*
X125547302Y-116453179D01*
X125547306Y-116453176D01*
X125551275Y-116450720D01*
X125676022Y-116345114D01*
X125740938Y-116316365D01*
X125811091Y-116327277D01*
X125846143Y-116351801D01*
X125857390Y-116362950D01*
X125861156Y-116365712D01*
X125861158Y-116365713D01*
X125972977Y-116447702D01*
X126073205Y-116521192D01*
X126077340Y-116523368D01*
X126077344Y-116523370D01*
X126206918Y-116591542D01*
X126310039Y-116645797D01*
X126350338Y-116659870D01*
X126558273Y-116732484D01*
X126558279Y-116732486D01*
X126562690Y-116734026D01*
X126825606Y-116783943D01*
X126952616Y-116788933D01*
X127088345Y-116794266D01*
X127088350Y-116794266D01*
X127093013Y-116794449D01*
X127188943Y-116783943D01*
X127354382Y-116765825D01*
X127354387Y-116765824D01*
X127359035Y-116765315D01*
X127474567Y-116734898D01*
X127558709Y-116712745D01*
X127617829Y-116697180D01*
X127843295Y-116600313D01*
X127859407Y-116593391D01*
X127859410Y-116593389D01*
X127863710Y-116591542D01*
X127867690Y-116589079D01*
X127867694Y-116589077D01*
X128087302Y-116453179D01*
X128087306Y-116453176D01*
X128091275Y-116450720D01*
X128216022Y-116345114D01*
X128280938Y-116316365D01*
X128351091Y-116327277D01*
X128386143Y-116351801D01*
X128397390Y-116362950D01*
X128401156Y-116365712D01*
X128401158Y-116365713D01*
X128512977Y-116447702D01*
X128613205Y-116521192D01*
X128617340Y-116523368D01*
X128617344Y-116523370D01*
X128746918Y-116591542D01*
X128850039Y-116645797D01*
X128890338Y-116659870D01*
X129098273Y-116732484D01*
X129098279Y-116732486D01*
X129102690Y-116734026D01*
X129365606Y-116783943D01*
X129492616Y-116788933D01*
X129628345Y-116794266D01*
X129628350Y-116794266D01*
X129633013Y-116794449D01*
X129728943Y-116783943D01*
X129894382Y-116765825D01*
X129894387Y-116765824D01*
X129899035Y-116765315D01*
X130014567Y-116734898D01*
X130098709Y-116712745D01*
X130157829Y-116697180D01*
X130383295Y-116600313D01*
X130399407Y-116593391D01*
X130399410Y-116593389D01*
X130403710Y-116591542D01*
X130546540Y-116503156D01*
X130614991Y-116484318D01*
X130682760Y-116505479D01*
X130728332Y-116559920D01*
X130738343Y-116621501D01*
X130731483Y-116698370D01*
X130729500Y-116720584D01*
X130729500Y-118136216D01*
X130729749Y-118139003D01*
X130729749Y-118139009D01*
X130733002Y-118175454D01*
X130740234Y-118256487D01*
X130796259Y-118451870D01*
X130881537Y-118614992D01*
X130895371Y-118684626D01*
X130886284Y-118721584D01*
X130822322Y-118876002D01*
X130805427Y-118916790D01*
X130787678Y-118990720D01*
X130745934Y-119164593D01*
X130745933Y-119164599D01*
X130744779Y-119169406D01*
X130724396Y-119428400D01*
X130744779Y-119687394D01*
X130745933Y-119692201D01*
X130745934Y-119692207D01*
X130762481Y-119761127D01*
X130805427Y-119940010D01*
X130807320Y-119944581D01*
X130807321Y-119944583D01*
X130901963Y-120173067D01*
X130904846Y-120180028D01*
X130907432Y-120184247D01*
X130907435Y-120184254D01*
X131016704Y-120362566D01*
X131035242Y-120431099D01*
X131016704Y-120494234D01*
X130907435Y-120672546D01*
X130907432Y-120672553D01*
X130904846Y-120676772D01*
X130902953Y-120681342D01*
X130902951Y-120681346D01*
X130840050Y-120833202D01*
X130805427Y-120916790D01*
X130804272Y-120921602D01*
X130745934Y-121164593D01*
X130745933Y-121164599D01*
X130744779Y-121169406D01*
X130724396Y-121428400D01*
X130744779Y-121687394D01*
X130745933Y-121692201D01*
X130745934Y-121692207D01*
X130779662Y-121832691D01*
X130805427Y-121940010D01*
X130807320Y-121944581D01*
X130807321Y-121944583D01*
X130866335Y-122087054D01*
X130904846Y-122180028D01*
X131040588Y-122401540D01*
X131209311Y-122599089D01*
X131406860Y-122767812D01*
X131628372Y-122903554D01*
X131632942Y-122905447D01*
X131632946Y-122905449D01*
X131799585Y-122974473D01*
X131868390Y-123002973D01*
X131956724Y-123024180D01*
X132116193Y-123062466D01*
X132116199Y-123062467D01*
X132121006Y-123063621D01*
X132380000Y-123084004D01*
X132638994Y-123063621D01*
X132643801Y-123062467D01*
X132643807Y-123062466D01*
X132803276Y-123024180D01*
X132891610Y-123002973D01*
X132960415Y-122974473D01*
X133127054Y-122905449D01*
X133127058Y-122905447D01*
X133131628Y-122903554D01*
X133135847Y-122900968D01*
X133135854Y-122900965D01*
X133314166Y-122791696D01*
X133382699Y-122773158D01*
X133445834Y-122791696D01*
X133624146Y-122900965D01*
X133624153Y-122900968D01*
X133628372Y-122903554D01*
X133632942Y-122905447D01*
X133632946Y-122905449D01*
X133799585Y-122974473D01*
X133868390Y-123002973D01*
X133956724Y-123024180D01*
X134116193Y-123062466D01*
X134116199Y-123062467D01*
X134121006Y-123063621D01*
X134380000Y-123084004D01*
X134638994Y-123063621D01*
X134643801Y-123062467D01*
X134643807Y-123062466D01*
X134803276Y-123024180D01*
X134891610Y-123002973D01*
X134960415Y-122974473D01*
X135127054Y-122905449D01*
X135127058Y-122905447D01*
X135131628Y-122903554D01*
X135353140Y-122767812D01*
X135550689Y-122599089D01*
X135719412Y-122401540D01*
X135855154Y-122180028D01*
X135893666Y-122087054D01*
X135952679Y-121944583D01*
X135952680Y-121944581D01*
X135954573Y-121940010D01*
X135980338Y-121832691D01*
X136014066Y-121692207D01*
X136014067Y-121692201D01*
X136015221Y-121687394D01*
X136035604Y-121428400D01*
X136015221Y-121169406D01*
X136014067Y-121164599D01*
X136014066Y-121164593D01*
X135955728Y-120921602D01*
X135954573Y-120916790D01*
X135919950Y-120833202D01*
X135857049Y-120681346D01*
X135857047Y-120681342D01*
X135855154Y-120676772D01*
X135852568Y-120672553D01*
X135852565Y-120672546D01*
X135743296Y-120494234D01*
X135724758Y-120425701D01*
X135743296Y-120362566D01*
X135852565Y-120184254D01*
X135852568Y-120184247D01*
X135855154Y-120180028D01*
X135858038Y-120173067D01*
X135952679Y-119944583D01*
X135952680Y-119944581D01*
X135954573Y-119940010D01*
X135997519Y-119761127D01*
X136014066Y-119692207D01*
X136014067Y-119692201D01*
X136015221Y-119687394D01*
X136035604Y-119428400D01*
X136015221Y-119169406D01*
X136014067Y-119164599D01*
X136014066Y-119164593D01*
X135972322Y-118990720D01*
X135954573Y-118916790D01*
X135937678Y-118876002D01*
X135857049Y-118681346D01*
X135857047Y-118681342D01*
X135855154Y-118676772D01*
X135852568Y-118672553D01*
X135852565Y-118672546D01*
X135743296Y-118494234D01*
X135724758Y-118425701D01*
X135743296Y-118362566D01*
X135852565Y-118184254D01*
X135852568Y-118184247D01*
X135855154Y-118180028D01*
X135866848Y-118151798D01*
X135952679Y-117944583D01*
X135952680Y-117944581D01*
X135954573Y-117940010D01*
X136001302Y-117745371D01*
X136014066Y-117692207D01*
X136014067Y-117692201D01*
X136015221Y-117687394D01*
X136035604Y-117428400D01*
X136015221Y-117169406D01*
X136014067Y-117164599D01*
X136014066Y-117164593D01*
X135964248Y-116957091D01*
X135954573Y-116916790D01*
X135903687Y-116793940D01*
X135857049Y-116681346D01*
X135857047Y-116681342D01*
X135855154Y-116676772D01*
X135771277Y-116539896D01*
X135752739Y-116471363D01*
X135774195Y-116403687D01*
X135797294Y-116377899D01*
X135836024Y-116345112D01*
X135900938Y-116316365D01*
X135971091Y-116327277D01*
X136006138Y-116351797D01*
X136014067Y-116359657D01*
X136014074Y-116359663D01*
X136017390Y-116362950D01*
X136021156Y-116365712D01*
X136021158Y-116365713D01*
X136132977Y-116447702D01*
X136233205Y-116521192D01*
X136237340Y-116523368D01*
X136237344Y-116523370D01*
X136366918Y-116591542D01*
X136470039Y-116645797D01*
X136510338Y-116659870D01*
X136718273Y-116732484D01*
X136718279Y-116732486D01*
X136722690Y-116734026D01*
X136985606Y-116783943D01*
X137112616Y-116788933D01*
X137248345Y-116794266D01*
X137248350Y-116794266D01*
X137253013Y-116794449D01*
X137348943Y-116783943D01*
X137514382Y-116765825D01*
X137514387Y-116765824D01*
X137519035Y-116765315D01*
X137634567Y-116734898D01*
X137718709Y-116712745D01*
X137777829Y-116697180D01*
X138003295Y-116600313D01*
X138019407Y-116593391D01*
X138019410Y-116593389D01*
X138023710Y-116591542D01*
X138027690Y-116589079D01*
X138027694Y-116589077D01*
X138247302Y-116453179D01*
X138247306Y-116453176D01*
X138251275Y-116450720D01*
X138376022Y-116345114D01*
X138440938Y-116316365D01*
X138511091Y-116327277D01*
X138546143Y-116351801D01*
X138557390Y-116362950D01*
X138561156Y-116365712D01*
X138561158Y-116365713D01*
X138672977Y-116447702D01*
X138773205Y-116521192D01*
X138777340Y-116523368D01*
X138777344Y-116523370D01*
X138906918Y-116591542D01*
X139010039Y-116645797D01*
X139050338Y-116659870D01*
X139258273Y-116732484D01*
X139258279Y-116732486D01*
X139262690Y-116734026D01*
X139525606Y-116783943D01*
X139652616Y-116788933D01*
X139788345Y-116794266D01*
X139788350Y-116794266D01*
X139793013Y-116794449D01*
X139888943Y-116783943D01*
X140054382Y-116765825D01*
X140054387Y-116765824D01*
X140059035Y-116765315D01*
X140174567Y-116734898D01*
X140258709Y-116712745D01*
X140317829Y-116697180D01*
X140543295Y-116600313D01*
X140559407Y-116593391D01*
X140559410Y-116593389D01*
X140563710Y-116591542D01*
X140567690Y-116589079D01*
X140567694Y-116589077D01*
X140787302Y-116453179D01*
X140787306Y-116453176D01*
X140791275Y-116450720D01*
X140916022Y-116345114D01*
X140980938Y-116316365D01*
X141051091Y-116327277D01*
X141086143Y-116351801D01*
X141097390Y-116362950D01*
X141101156Y-116365712D01*
X141101158Y-116365713D01*
X141212977Y-116447702D01*
X141313205Y-116521192D01*
X141317340Y-116523368D01*
X141317344Y-116523370D01*
X141446918Y-116591542D01*
X141550039Y-116645797D01*
X141590338Y-116659870D01*
X141798273Y-116732484D01*
X141798279Y-116732486D01*
X141802690Y-116734026D01*
X142065606Y-116783943D01*
X142192616Y-116788933D01*
X142328345Y-116794266D01*
X142328350Y-116794266D01*
X142333013Y-116794449D01*
X142428943Y-116783943D01*
X142594382Y-116765825D01*
X142594387Y-116765824D01*
X142599035Y-116765315D01*
X142714567Y-116734898D01*
X142798709Y-116712745D01*
X142857829Y-116697180D01*
X143083295Y-116600313D01*
X143099407Y-116593391D01*
X143099410Y-116593389D01*
X143103710Y-116591542D01*
X143107690Y-116589079D01*
X143107694Y-116589077D01*
X143327302Y-116453179D01*
X143327306Y-116453176D01*
X143331275Y-116450720D01*
X143456022Y-116345114D01*
X143520938Y-116316365D01*
X143591091Y-116327277D01*
X143626143Y-116351801D01*
X143637390Y-116362950D01*
X143641156Y-116365712D01*
X143641158Y-116365713D01*
X143752977Y-116447702D01*
X143853205Y-116521192D01*
X143857340Y-116523368D01*
X143857344Y-116523370D01*
X143986918Y-116591542D01*
X144090039Y-116645797D01*
X144130338Y-116659870D01*
X144338273Y-116732484D01*
X144338279Y-116732486D01*
X144342690Y-116734026D01*
X144605606Y-116783943D01*
X144732616Y-116788933D01*
X144868345Y-116794266D01*
X144868350Y-116794266D01*
X144873013Y-116794449D01*
X144968943Y-116783943D01*
X145134382Y-116765825D01*
X145134387Y-116765824D01*
X145139035Y-116765315D01*
X145254567Y-116734898D01*
X145338709Y-116712745D01*
X145397829Y-116697180D01*
X145623295Y-116600313D01*
X145639407Y-116593391D01*
X145639410Y-116593389D01*
X145643710Y-116591542D01*
X145647690Y-116589079D01*
X145647694Y-116589077D01*
X145867302Y-116453179D01*
X145867306Y-116453176D01*
X145871275Y-116450720D01*
X145996022Y-116345114D01*
X146060938Y-116316365D01*
X146131091Y-116327277D01*
X146166143Y-116351801D01*
X146177390Y-116362950D01*
X146181156Y-116365712D01*
X146181158Y-116365713D01*
X146292977Y-116447702D01*
X146393205Y-116521192D01*
X146397340Y-116523368D01*
X146397344Y-116523370D01*
X146526918Y-116591542D01*
X146630039Y-116645797D01*
X146670338Y-116659870D01*
X146878273Y-116732484D01*
X146878279Y-116732486D01*
X146882690Y-116734026D01*
X147145606Y-116783943D01*
X147272616Y-116788933D01*
X147408345Y-116794266D01*
X147408350Y-116794266D01*
X147413013Y-116794449D01*
X147508943Y-116783943D01*
X147674382Y-116765825D01*
X147674387Y-116765824D01*
X147679035Y-116765315D01*
X147794567Y-116734898D01*
X147878709Y-116712745D01*
X147937829Y-116697180D01*
X148163295Y-116600313D01*
X148179407Y-116593391D01*
X148179410Y-116593389D01*
X148183710Y-116591542D01*
X148187690Y-116589079D01*
X148187694Y-116589077D01*
X148407302Y-116453179D01*
X148407306Y-116453176D01*
X148411275Y-116450720D01*
X148536022Y-116345114D01*
X148600938Y-116316365D01*
X148671091Y-116327277D01*
X148706143Y-116351801D01*
X148717390Y-116362950D01*
X148721156Y-116365712D01*
X148721158Y-116365713D01*
X148832977Y-116447702D01*
X148933205Y-116521192D01*
X148937340Y-116523368D01*
X148937344Y-116523370D01*
X149066918Y-116591542D01*
X149170039Y-116645797D01*
X149210338Y-116659870D01*
X149418273Y-116732484D01*
X149418279Y-116732486D01*
X149422690Y-116734026D01*
X149685606Y-116783943D01*
X149812616Y-116788933D01*
X149948345Y-116794266D01*
X149948350Y-116794266D01*
X149953013Y-116794449D01*
X150048943Y-116783943D01*
X150214382Y-116765825D01*
X150214387Y-116765824D01*
X150219035Y-116765315D01*
X150334567Y-116734898D01*
X150418709Y-116712745D01*
X150477829Y-116697180D01*
X150703295Y-116600313D01*
X150719407Y-116593391D01*
X150719410Y-116593389D01*
X150723710Y-116591542D01*
X150727690Y-116589079D01*
X150727694Y-116589077D01*
X150947302Y-116453179D01*
X150947306Y-116453176D01*
X150951275Y-116450720D01*
X151076022Y-116345114D01*
X151140938Y-116316365D01*
X151211091Y-116327277D01*
X151246143Y-116351801D01*
X151257390Y-116362950D01*
X151261156Y-116365712D01*
X151261158Y-116365713D01*
X151372977Y-116447702D01*
X151473205Y-116521192D01*
X151477340Y-116523368D01*
X151477344Y-116523370D01*
X151606918Y-116591542D01*
X151710039Y-116645797D01*
X151750338Y-116659870D01*
X151958273Y-116732484D01*
X151958279Y-116732486D01*
X151962690Y-116734026D01*
X152225606Y-116783943D01*
X152352616Y-116788933D01*
X152488345Y-116794266D01*
X152488350Y-116794266D01*
X152493013Y-116794449D01*
X152588943Y-116783943D01*
X152754382Y-116765825D01*
X152754387Y-116765824D01*
X152759035Y-116765315D01*
X152874567Y-116734898D01*
X152958709Y-116712745D01*
X153017829Y-116697180D01*
X153243295Y-116600313D01*
X153259407Y-116593391D01*
X153259410Y-116593389D01*
X153263710Y-116591542D01*
X153267690Y-116589079D01*
X153267694Y-116589077D01*
X153487302Y-116453179D01*
X153487306Y-116453176D01*
X153491275Y-116450720D01*
X153616022Y-116345114D01*
X153680938Y-116316365D01*
X153751091Y-116327277D01*
X153786143Y-116351801D01*
X153797390Y-116362950D01*
X153801156Y-116365712D01*
X153801158Y-116365713D01*
X153912977Y-116447702D01*
X154013205Y-116521192D01*
X154017340Y-116523368D01*
X154017344Y-116523370D01*
X154146918Y-116591542D01*
X154250039Y-116645797D01*
X154290338Y-116659870D01*
X154498273Y-116732484D01*
X154498279Y-116732486D01*
X154502690Y-116734026D01*
X154765606Y-116783943D01*
X154892616Y-116788933D01*
X155028345Y-116794266D01*
X155028350Y-116794266D01*
X155033013Y-116794449D01*
X155128943Y-116783943D01*
X155294382Y-116765825D01*
X155294387Y-116765824D01*
X155299035Y-116765315D01*
X155414567Y-116734898D01*
X155498709Y-116712745D01*
X155557829Y-116697180D01*
X155783295Y-116600313D01*
X155799407Y-116593391D01*
X155799410Y-116593389D01*
X155803710Y-116591542D01*
X155807690Y-116589079D01*
X155807694Y-116589077D01*
X156027302Y-116453179D01*
X156027306Y-116453176D01*
X156031275Y-116450720D01*
X156156022Y-116345114D01*
X156220938Y-116316365D01*
X156291091Y-116327277D01*
X156326143Y-116351801D01*
X156337390Y-116362950D01*
X156341156Y-116365712D01*
X156341158Y-116365713D01*
X156452977Y-116447702D01*
X156553205Y-116521192D01*
X156557340Y-116523368D01*
X156557344Y-116523370D01*
X156686918Y-116591542D01*
X156790039Y-116645797D01*
X156830338Y-116659870D01*
X157038273Y-116732484D01*
X157038279Y-116732486D01*
X157042690Y-116734026D01*
X157305606Y-116783943D01*
X157432616Y-116788933D01*
X157568345Y-116794266D01*
X157568350Y-116794266D01*
X157573013Y-116794449D01*
X157668943Y-116783943D01*
X157834382Y-116765825D01*
X157834387Y-116765824D01*
X157839035Y-116765315D01*
X157954567Y-116734898D01*
X158038709Y-116712745D01*
X158097829Y-116697180D01*
X158323295Y-116600313D01*
X158339407Y-116593391D01*
X158339410Y-116593389D01*
X158343710Y-116591542D01*
X158347690Y-116589079D01*
X158347694Y-116589077D01*
X158567302Y-116453179D01*
X158567306Y-116453176D01*
X158571275Y-116450720D01*
X158696022Y-116345114D01*
X158760938Y-116316365D01*
X158831091Y-116327277D01*
X158866143Y-116351801D01*
X158877390Y-116362950D01*
X158881156Y-116365712D01*
X158881158Y-116365713D01*
X158992977Y-116447702D01*
X159093205Y-116521192D01*
X159097340Y-116523368D01*
X159097344Y-116523370D01*
X159226918Y-116591542D01*
X159330039Y-116645797D01*
X159370338Y-116659870D01*
X159578273Y-116732484D01*
X159578279Y-116732486D01*
X159582690Y-116734026D01*
X159845606Y-116783943D01*
X159972616Y-116788933D01*
X160108345Y-116794266D01*
X160108350Y-116794266D01*
X160113013Y-116794449D01*
X160208943Y-116783943D01*
X160374382Y-116765825D01*
X160374387Y-116765824D01*
X160379035Y-116765315D01*
X160494567Y-116734898D01*
X160578709Y-116712745D01*
X160637829Y-116697180D01*
X160863295Y-116600313D01*
X160879407Y-116593391D01*
X160879410Y-116593389D01*
X160883710Y-116591542D01*
X160887690Y-116589079D01*
X160887694Y-116589077D01*
X161107302Y-116453179D01*
X161107306Y-116453176D01*
X161111275Y-116450720D01*
X161236022Y-116345114D01*
X161300938Y-116316365D01*
X161371091Y-116327277D01*
X161406143Y-116351801D01*
X161417390Y-116362950D01*
X161421156Y-116365712D01*
X161421158Y-116365713D01*
X161532977Y-116447702D01*
X161633205Y-116521192D01*
X161637340Y-116523368D01*
X161637344Y-116523370D01*
X161766918Y-116591542D01*
X161870039Y-116645797D01*
X161910338Y-116659870D01*
X162118273Y-116732484D01*
X162118279Y-116732486D01*
X162122690Y-116734026D01*
X162385606Y-116783943D01*
X162512616Y-116788933D01*
X162648345Y-116794266D01*
X162648350Y-116794266D01*
X162653013Y-116794449D01*
X162748943Y-116783943D01*
X162914382Y-116765825D01*
X162914387Y-116765824D01*
X162919035Y-116765315D01*
X163034567Y-116734898D01*
X163118709Y-116712745D01*
X163177829Y-116697180D01*
X163316886Y-116637437D01*
X163387369Y-116628925D01*
X163451266Y-116659870D01*
X163488290Y-116720449D01*
X163486685Y-116791428D01*
X163482819Y-116801931D01*
X163432637Y-116921602D01*
X163417755Y-116957091D01*
X163416604Y-116961623D01*
X163416603Y-116961626D01*
X163353033Y-117211933D01*
X163351881Y-117216470D01*
X163325070Y-117482736D01*
X163337909Y-117750041D01*
X163390118Y-118012512D01*
X163480549Y-118264383D01*
X163482765Y-118268507D01*
X163550982Y-118395465D01*
X163607215Y-118500121D01*
X163610010Y-118503864D01*
X163610012Y-118503867D01*
X163692992Y-118614990D01*
X163767335Y-118714547D01*
X163770654Y-118717837D01*
X163772927Y-118720452D01*
X163802521Y-118784987D01*
X163792527Y-118855277D01*
X163774706Y-118883683D01*
X163660075Y-119021512D01*
X163657652Y-119025505D01*
X163567337Y-119174340D01*
X163521244Y-119250298D01*
X163519437Y-119254606D01*
X163519437Y-119254607D01*
X163446560Y-119428400D01*
X163417755Y-119497091D01*
X163416604Y-119501623D01*
X163416603Y-119501626D01*
X163353033Y-119751933D01*
X163351881Y-119756470D01*
X163325070Y-120022736D01*
X163337909Y-120290041D01*
X163390118Y-120552512D01*
X163480549Y-120804383D01*
X163482765Y-120808507D01*
X163550982Y-120935465D01*
X163607215Y-121040121D01*
X163767335Y-121254547D01*
X163770654Y-121257837D01*
X163772927Y-121260452D01*
X163802521Y-121324987D01*
X163792527Y-121395277D01*
X163774706Y-121423683D01*
X163660075Y-121561512D01*
X163521244Y-121790298D01*
X163519437Y-121794606D01*
X163519437Y-121794607D01*
X163497552Y-121846798D01*
X163417755Y-122037091D01*
X163416604Y-122041623D01*
X163416603Y-122041626D01*
X163380382Y-122184248D01*
X163351881Y-122296470D01*
X163325070Y-122562736D01*
X163325294Y-122567403D01*
X163325294Y-122567408D01*
X163331727Y-122701338D01*
X163337909Y-122830041D01*
X163390118Y-123092512D01*
X163480549Y-123344383D01*
X163482765Y-123348507D01*
X163550982Y-123475465D01*
X163607215Y-123580121D01*
X163767335Y-123794547D01*
X163770654Y-123797837D01*
X163772927Y-123800452D01*
X163802521Y-123864987D01*
X163792527Y-123935277D01*
X163774706Y-123963683D01*
X163660075Y-124101512D01*
X163521244Y-124330298D01*
X163519437Y-124334606D01*
X163519437Y-124334607D01*
X163497552Y-124386798D01*
X163417755Y-124577091D01*
X163416604Y-124581623D01*
X163416603Y-124581626D01*
X163396097Y-124662369D01*
X163351881Y-124836470D01*
X163325070Y-125102736D01*
X163337909Y-125370041D01*
X163338821Y-125374626D01*
X163341767Y-125389434D01*
X163390118Y-125632512D01*
X163480549Y-125884383D01*
X163482765Y-125888507D01*
X163550982Y-126015465D01*
X163607215Y-126120121D01*
X163610010Y-126123864D01*
X163610012Y-126123867D01*
X163667695Y-126201113D01*
X163767335Y-126334547D01*
X163770654Y-126337837D01*
X163772927Y-126340452D01*
X163802521Y-126404987D01*
X163792527Y-126475277D01*
X163774706Y-126503683D01*
X163660075Y-126641512D01*
X163657652Y-126645505D01*
X163560944Y-126804875D01*
X163521244Y-126870298D01*
X163519437Y-126874606D01*
X163519437Y-126874607D01*
X163432027Y-127083057D01*
X163417755Y-127117091D01*
X163416604Y-127121623D01*
X163416603Y-127121626D01*
X163353033Y-127371933D01*
X163351881Y-127376470D01*
X163325070Y-127642736D01*
X163337909Y-127910041D01*
X163390118Y-128172512D01*
X163454802Y-128352670D01*
X163478636Y-128419054D01*
X163482830Y-128489927D01*
X163448041Y-128551816D01*
X163385315Y-128585072D01*
X163314567Y-128579137D01*
X163304321Y-128574638D01*
X163270565Y-128557992D01*
X163270558Y-128557989D01*
X163266371Y-128555924D01*
X163208759Y-128537482D01*
X163060197Y-128489927D01*
X163011497Y-128474338D01*
X162866134Y-128450665D01*
X162751976Y-128432073D01*
X162751975Y-128432073D01*
X162747364Y-128431322D01*
X162613569Y-128429571D01*
X162484451Y-128427880D01*
X162484448Y-128427880D01*
X162479774Y-128427819D01*
X162214605Y-128463907D01*
X162210118Y-128465215D01*
X162210117Y-128465215D01*
X162178817Y-128474338D01*
X161957683Y-128538792D01*
X161953430Y-128540752D01*
X161953429Y-128540753D01*
X161916035Y-128557992D01*
X161714652Y-128650831D01*
X161682030Y-128672219D01*
X161494764Y-128794996D01*
X161494759Y-128795000D01*
X161490851Y-128797562D01*
X161487359Y-128800679D01*
X161404734Y-128874424D01*
X161340593Y-128904862D01*
X161270178Y-128895790D01*
X161234500Y-128872196D01*
X161189670Y-128830024D01*
X161189667Y-128830022D01*
X161186269Y-128826825D01*
X160966385Y-128674286D01*
X160962194Y-128672219D01*
X160730559Y-128557989D01*
X160730556Y-128557988D01*
X160726371Y-128555924D01*
X160668759Y-128537482D01*
X160520197Y-128489927D01*
X160471497Y-128474338D01*
X160326134Y-128450665D01*
X160211976Y-128432073D01*
X160211975Y-128432073D01*
X160207364Y-128431322D01*
X160073569Y-128429571D01*
X159944451Y-128427880D01*
X159944448Y-128427880D01*
X159939774Y-128427819D01*
X159674605Y-128463907D01*
X159670118Y-128465215D01*
X159670117Y-128465215D01*
X159638817Y-128474338D01*
X159417683Y-128538792D01*
X159413430Y-128540752D01*
X159413429Y-128540753D01*
X159376035Y-128557992D01*
X159174652Y-128650831D01*
X159142030Y-128672219D01*
X158954764Y-128794996D01*
X158954759Y-128795000D01*
X158950851Y-128797562D01*
X158947359Y-128800679D01*
X158864734Y-128874424D01*
X158800593Y-128904862D01*
X158730178Y-128895790D01*
X158694500Y-128872196D01*
X158649670Y-128830024D01*
X158649667Y-128830022D01*
X158646269Y-128826825D01*
X158426385Y-128674286D01*
X158422194Y-128672219D01*
X158190559Y-128557989D01*
X158190556Y-128557988D01*
X158186371Y-128555924D01*
X158128759Y-128537482D01*
X157980197Y-128489927D01*
X157931497Y-128474338D01*
X157786134Y-128450665D01*
X157671976Y-128432073D01*
X157671975Y-128432073D01*
X157667364Y-128431322D01*
X157533569Y-128429571D01*
X157404451Y-128427880D01*
X157404448Y-128427880D01*
X157399774Y-128427819D01*
X157134605Y-128463907D01*
X157130118Y-128465215D01*
X157130117Y-128465215D01*
X157098817Y-128474338D01*
X156877683Y-128538792D01*
X156873430Y-128540752D01*
X156873429Y-128540753D01*
X156836035Y-128557992D01*
X156634652Y-128650831D01*
X156602030Y-128672219D01*
X156414764Y-128794996D01*
X156414759Y-128795000D01*
X156410851Y-128797562D01*
X156407359Y-128800679D01*
X156324734Y-128874424D01*
X156260593Y-128904862D01*
X156190178Y-128895790D01*
X156154500Y-128872196D01*
X156109670Y-128830024D01*
X156109667Y-128830022D01*
X156106269Y-128826825D01*
X155886385Y-128674286D01*
X155882194Y-128672219D01*
X155650559Y-128557989D01*
X155650556Y-128557988D01*
X155646371Y-128555924D01*
X155588759Y-128537482D01*
X155440197Y-128489927D01*
X155391497Y-128474338D01*
X155246134Y-128450665D01*
X155131976Y-128432073D01*
X155131975Y-128432073D01*
X155127364Y-128431322D01*
X154993569Y-128429571D01*
X154864451Y-128427880D01*
X154864448Y-128427880D01*
X154859774Y-128427819D01*
X154594605Y-128463907D01*
X154590118Y-128465215D01*
X154590117Y-128465215D01*
X154558817Y-128474338D01*
X154337683Y-128538792D01*
X154333430Y-128540752D01*
X154333429Y-128540753D01*
X154296035Y-128557992D01*
X154094652Y-128650831D01*
X154062030Y-128672219D01*
X153874764Y-128794996D01*
X153874759Y-128795000D01*
X153870851Y-128797562D01*
X153867359Y-128800679D01*
X153784734Y-128874424D01*
X153720593Y-128904862D01*
X153650178Y-128895790D01*
X153614500Y-128872196D01*
X153569670Y-128830024D01*
X153569667Y-128830022D01*
X153566269Y-128826825D01*
X153346385Y-128674286D01*
X153342194Y-128672219D01*
X153110559Y-128557989D01*
X153110556Y-128557988D01*
X153106371Y-128555924D01*
X153048759Y-128537482D01*
X152900197Y-128489927D01*
X152851497Y-128474338D01*
X152706134Y-128450665D01*
X152591976Y-128432073D01*
X152591975Y-128432073D01*
X152587364Y-128431322D01*
X152453569Y-128429571D01*
X152324451Y-128427880D01*
X152324448Y-128427880D01*
X152319774Y-128427819D01*
X152054605Y-128463907D01*
X152050118Y-128465215D01*
X152050117Y-128465215D01*
X152018817Y-128474338D01*
X151797683Y-128538792D01*
X151793430Y-128540752D01*
X151793429Y-128540753D01*
X151756035Y-128557992D01*
X151554652Y-128650831D01*
X151522030Y-128672219D01*
X151334764Y-128794996D01*
X151334759Y-128795000D01*
X151330851Y-128797562D01*
X151327359Y-128800679D01*
X151244734Y-128874424D01*
X151180593Y-128904862D01*
X151110178Y-128895790D01*
X151074500Y-128872196D01*
X151029670Y-128830024D01*
X151029667Y-128830022D01*
X151026269Y-128826825D01*
X150806385Y-128674286D01*
X150802194Y-128672219D01*
X150570559Y-128557989D01*
X150570556Y-128557988D01*
X150566371Y-128555924D01*
X150508759Y-128537482D01*
X150360197Y-128489927D01*
X150311497Y-128474338D01*
X150166134Y-128450665D01*
X150051976Y-128432073D01*
X150051975Y-128432073D01*
X150047364Y-128431322D01*
X149913569Y-128429571D01*
X149784451Y-128427880D01*
X149784448Y-128427880D01*
X149779774Y-128427819D01*
X149514605Y-128463907D01*
X149510118Y-128465215D01*
X149510117Y-128465215D01*
X149478817Y-128474338D01*
X149257683Y-128538792D01*
X149253430Y-128540752D01*
X149253429Y-128540753D01*
X149216035Y-128557992D01*
X149014652Y-128650831D01*
X148982030Y-128672219D01*
X148794764Y-128794996D01*
X148794759Y-128795000D01*
X148790851Y-128797562D01*
X148787359Y-128800679D01*
X148704734Y-128874424D01*
X148640593Y-128904862D01*
X148570178Y-128895790D01*
X148534500Y-128872196D01*
X148489670Y-128830024D01*
X148489667Y-128830022D01*
X148486269Y-128826825D01*
X148266385Y-128674286D01*
X148262194Y-128672219D01*
X148030559Y-128557989D01*
X148030556Y-128557988D01*
X148026371Y-128555924D01*
X147968759Y-128537482D01*
X147820197Y-128489927D01*
X147771497Y-128474338D01*
X147626134Y-128450665D01*
X147511976Y-128432073D01*
X147511975Y-128432073D01*
X147507364Y-128431322D01*
X147373569Y-128429571D01*
X147244451Y-128427880D01*
X147244448Y-128427880D01*
X147239774Y-128427819D01*
X146974605Y-128463907D01*
X146970118Y-128465215D01*
X146970117Y-128465215D01*
X146938817Y-128474338D01*
X146717683Y-128538792D01*
X146713430Y-128540752D01*
X146713429Y-128540753D01*
X146676035Y-128557992D01*
X146474652Y-128650831D01*
X146442030Y-128672219D01*
X146254764Y-128794996D01*
X146254759Y-128795000D01*
X146250851Y-128797562D01*
X146247359Y-128800679D01*
X146164734Y-128874424D01*
X146100593Y-128904862D01*
X146030178Y-128895790D01*
X145994500Y-128872196D01*
X145949670Y-128830024D01*
X145949667Y-128830022D01*
X145946269Y-128826825D01*
X145726385Y-128674286D01*
X145722194Y-128672219D01*
X145490559Y-128557989D01*
X145490556Y-128557988D01*
X145486371Y-128555924D01*
X145428759Y-128537482D01*
X145280197Y-128489927D01*
X145231497Y-128474338D01*
X145086134Y-128450665D01*
X144971976Y-128432073D01*
X144971975Y-128432073D01*
X144967364Y-128431322D01*
X144833569Y-128429571D01*
X144704451Y-128427880D01*
X144704448Y-128427880D01*
X144699774Y-128427819D01*
X144434605Y-128463907D01*
X144430118Y-128465215D01*
X144430117Y-128465215D01*
X144398817Y-128474338D01*
X144177683Y-128538792D01*
X144173430Y-128540752D01*
X144173429Y-128540753D01*
X144136035Y-128557992D01*
X143934652Y-128650831D01*
X143902030Y-128672219D01*
X143714764Y-128794996D01*
X143714759Y-128795000D01*
X143710851Y-128797562D01*
X143707359Y-128800679D01*
X143624734Y-128874424D01*
X143560593Y-128904862D01*
X143490178Y-128895790D01*
X143454500Y-128872196D01*
X143409670Y-128830024D01*
X143409667Y-128830022D01*
X143406269Y-128826825D01*
X143186385Y-128674286D01*
X143182194Y-128672219D01*
X142950559Y-128557989D01*
X142950556Y-128557988D01*
X142946371Y-128555924D01*
X142888759Y-128537482D01*
X142740197Y-128489927D01*
X142691497Y-128474338D01*
X142546134Y-128450665D01*
X142431976Y-128432073D01*
X142431975Y-128432073D01*
X142427364Y-128431322D01*
X142293569Y-128429571D01*
X142164451Y-128427880D01*
X142164448Y-128427880D01*
X142159774Y-128427819D01*
X141894605Y-128463907D01*
X141890118Y-128465215D01*
X141890117Y-128465215D01*
X141858817Y-128474338D01*
X141637683Y-128538792D01*
X141633430Y-128540752D01*
X141633429Y-128540753D01*
X141596035Y-128557992D01*
X141394652Y-128650831D01*
X141362030Y-128672219D01*
X141174764Y-128794996D01*
X141174759Y-128795000D01*
X141170851Y-128797562D01*
X141167359Y-128800679D01*
X141084734Y-128874424D01*
X141020593Y-128904862D01*
X140950178Y-128895790D01*
X140914500Y-128872196D01*
X140869670Y-128830024D01*
X140869667Y-128830022D01*
X140866269Y-128826825D01*
X140646385Y-128674286D01*
X140642194Y-128672219D01*
X140410559Y-128557989D01*
X140410556Y-128557988D01*
X140406371Y-128555924D01*
X140348759Y-128537482D01*
X140200197Y-128489927D01*
X140151497Y-128474338D01*
X140006134Y-128450665D01*
X139891976Y-128432073D01*
X139891975Y-128432073D01*
X139887364Y-128431322D01*
X139753569Y-128429571D01*
X139624451Y-128427880D01*
X139624448Y-128427880D01*
X139619774Y-128427819D01*
X139354605Y-128463907D01*
X139350118Y-128465215D01*
X139350117Y-128465215D01*
X139318817Y-128474338D01*
X139097683Y-128538792D01*
X139093430Y-128540752D01*
X139093429Y-128540753D01*
X139056035Y-128557992D01*
X138854652Y-128650831D01*
X138822030Y-128672219D01*
X138634764Y-128794996D01*
X138634759Y-128795000D01*
X138630851Y-128797562D01*
X138627359Y-128800679D01*
X138544734Y-128874424D01*
X138480593Y-128904862D01*
X138410178Y-128895790D01*
X138374500Y-128872196D01*
X138329670Y-128830024D01*
X138329667Y-128830022D01*
X138326269Y-128826825D01*
X138106385Y-128674286D01*
X138102194Y-128672219D01*
X137870559Y-128557989D01*
X137870556Y-128557988D01*
X137866371Y-128555924D01*
X137808759Y-128537482D01*
X137660197Y-128489927D01*
X137611497Y-128474338D01*
X137407923Y-128441184D01*
X137343904Y-128410493D01*
X137306640Y-128350062D01*
X137307963Y-128279078D01*
X137322206Y-128248661D01*
X137453415Y-128044671D01*
X137453417Y-128044668D01*
X137455947Y-128040734D01*
X137565861Y-127796734D01*
X137596852Y-127686850D01*
X137637232Y-127543673D01*
X137637233Y-127543670D01*
X137638502Y-127539169D01*
X137672275Y-127273695D01*
X137674749Y-127179200D01*
X137669813Y-127112776D01*
X137655264Y-126916988D01*
X137655263Y-126916984D01*
X137654917Y-126912323D01*
X137595855Y-126651309D01*
X137512033Y-126435760D01*
X137500555Y-126406244D01*
X137500554Y-126406242D01*
X137498862Y-126401891D01*
X137366068Y-126169550D01*
X137200390Y-125959389D01*
X137005469Y-125776025D01*
X136785585Y-125623486D01*
X136781394Y-125621419D01*
X136549759Y-125507189D01*
X136549756Y-125507188D01*
X136545571Y-125505124D01*
X136290697Y-125423538D01*
X136078014Y-125388901D01*
X136031176Y-125381273D01*
X136031175Y-125381273D01*
X136026564Y-125380522D01*
X135887384Y-125378700D01*
X135763651Y-125377080D01*
X135763648Y-125377080D01*
X135758974Y-125377019D01*
X135493805Y-125413107D01*
X135489318Y-125414415D01*
X135489317Y-125414415D01*
X135458017Y-125423538D01*
X135236883Y-125487992D01*
X135232630Y-125489952D01*
X135232629Y-125489953D01*
X135189211Y-125509969D01*
X134993852Y-125600031D01*
X134989943Y-125602594D01*
X134773964Y-125744196D01*
X134773959Y-125744200D01*
X134770051Y-125746762D01*
X134766559Y-125749879D01*
X134683934Y-125823624D01*
X134619793Y-125854062D01*
X134549378Y-125844990D01*
X134513700Y-125821396D01*
X134468870Y-125779224D01*
X134468867Y-125779222D01*
X134465469Y-125776025D01*
X134245585Y-125623486D01*
X134241394Y-125621419D01*
X134009759Y-125507189D01*
X134009756Y-125507188D01*
X134005571Y-125505124D01*
X133750697Y-125423538D01*
X133538014Y-125388901D01*
X133491176Y-125381273D01*
X133491175Y-125381273D01*
X133486564Y-125380522D01*
X133347384Y-125378700D01*
X133223651Y-125377080D01*
X133223648Y-125377080D01*
X133218974Y-125377019D01*
X132953805Y-125413107D01*
X132949318Y-125414415D01*
X132949317Y-125414415D01*
X132918017Y-125423538D01*
X132696883Y-125487992D01*
X132692630Y-125489952D01*
X132692629Y-125489953D01*
X132649211Y-125509969D01*
X132453852Y-125600031D01*
X132449943Y-125602594D01*
X132233964Y-125744196D01*
X132233959Y-125744200D01*
X132230051Y-125746762D01*
X132226559Y-125749879D01*
X132143934Y-125823624D01*
X132079793Y-125854062D01*
X132009378Y-125844990D01*
X131973700Y-125821396D01*
X131928870Y-125779224D01*
X131928867Y-125779222D01*
X131925469Y-125776025D01*
X131705585Y-125623486D01*
X131701394Y-125621419D01*
X131469759Y-125507189D01*
X131469756Y-125507188D01*
X131465571Y-125505124D01*
X131210697Y-125423538D01*
X130998014Y-125388901D01*
X130951176Y-125381273D01*
X130951175Y-125381273D01*
X130946564Y-125380522D01*
X130807384Y-125378700D01*
X130683651Y-125377080D01*
X130683648Y-125377080D01*
X130678974Y-125377019D01*
X130413805Y-125413107D01*
X130409318Y-125414415D01*
X130409317Y-125414415D01*
X130378017Y-125423538D01*
X130156883Y-125487992D01*
X130152630Y-125489952D01*
X130152629Y-125489953D01*
X130109211Y-125509969D01*
X129913852Y-125600031D01*
X129909943Y-125602594D01*
X129693964Y-125744196D01*
X129693959Y-125744200D01*
X129690051Y-125746762D01*
X129686559Y-125749879D01*
X129603934Y-125823624D01*
X129539793Y-125854062D01*
X129469378Y-125844990D01*
X129433700Y-125821396D01*
X129388870Y-125779224D01*
X129388867Y-125779222D01*
X129385469Y-125776025D01*
X129165585Y-125623486D01*
X129161394Y-125621419D01*
X128929759Y-125507189D01*
X128929756Y-125507188D01*
X128925571Y-125505124D01*
X128670697Y-125423538D01*
X128458014Y-125388901D01*
X128411176Y-125381273D01*
X128411175Y-125381273D01*
X128406564Y-125380522D01*
X128267384Y-125378700D01*
X128143651Y-125377080D01*
X128143648Y-125377080D01*
X128138974Y-125377019D01*
X127873805Y-125413107D01*
X127869318Y-125414415D01*
X127869317Y-125414415D01*
X127838017Y-125423538D01*
X127616883Y-125487992D01*
X127612630Y-125489952D01*
X127612629Y-125489953D01*
X127569211Y-125509969D01*
X127373852Y-125600031D01*
X127369947Y-125602591D01*
X127369942Y-125602594D01*
X127319664Y-125635558D01*
X127251728Y-125656181D01*
X127183428Y-125636801D01*
X127170944Y-125627829D01*
X127067745Y-125543663D01*
X127067743Y-125543662D01*
X127062796Y-125539627D01*
X126882670Y-125445459D01*
X126687287Y-125389434D01*
X126655655Y-125386611D01*
X126569809Y-125378949D01*
X126569803Y-125378949D01*
X126567016Y-125378700D01*
X124851384Y-125378700D01*
X124848597Y-125378949D01*
X124848591Y-125378949D01*
X124762745Y-125386611D01*
X124731113Y-125389434D01*
X124535730Y-125445459D01*
X124355604Y-125539627D01*
X124350661Y-125543658D01*
X124350660Y-125543659D01*
X124236456Y-125636801D01*
X124198091Y-125668091D01*
X124194062Y-125673031D01*
X124116988Y-125767534D01*
X124069627Y-125825604D01*
X123975459Y-126005730D01*
X123919434Y-126201113D01*
X123908700Y-126321384D01*
X123908700Y-128037016D01*
X123919434Y-128157287D01*
X123975459Y-128352670D01*
X123978416Y-128358326D01*
X123978897Y-128359529D01*
X123985621Y-128430207D01*
X123953066Y-128493300D01*
X123897165Y-128527284D01*
X123857683Y-128538792D01*
X123853430Y-128540752D01*
X123853429Y-128540753D01*
X123816035Y-128557992D01*
X123614652Y-128650831D01*
X123582030Y-128672219D01*
X123394764Y-128794996D01*
X123394759Y-128795000D01*
X123390851Y-128797562D01*
X123387359Y-128800679D01*
X123304734Y-128874424D01*
X123240593Y-128904862D01*
X123170178Y-128895790D01*
X123134500Y-128872196D01*
X123089670Y-128830024D01*
X123089667Y-128830022D01*
X123086269Y-128826825D01*
X122866385Y-128674286D01*
X122862194Y-128672219D01*
X122630559Y-128557989D01*
X122630556Y-128557988D01*
X122626371Y-128555924D01*
X122568759Y-128537482D01*
X122420197Y-128489927D01*
X122371497Y-128474338D01*
X122226134Y-128450665D01*
X122111976Y-128432073D01*
X122111975Y-128432073D01*
X122107364Y-128431322D01*
X121973569Y-128429571D01*
X121844451Y-128427880D01*
X121844448Y-128427880D01*
X121839774Y-128427819D01*
X121574605Y-128463907D01*
X121570118Y-128465215D01*
X121570117Y-128465215D01*
X121538817Y-128474338D01*
X121317683Y-128538792D01*
X121313430Y-128540752D01*
X121313429Y-128540753D01*
X121276035Y-128557992D01*
X121074652Y-128650831D01*
X121042030Y-128672219D01*
X120854764Y-128794996D01*
X120854759Y-128795000D01*
X120850851Y-128797562D01*
X120651197Y-128975760D01*
X120648209Y-128979353D01*
X120644957Y-128982720D01*
X120643353Y-128981171D01*
X120591987Y-129015666D01*
X120521004Y-129017099D01*
X120478493Y-128996339D01*
X120463647Y-128985213D01*
X120448054Y-128976676D01*
X120327606Y-128931522D01*
X120312351Y-128927895D01*
X120261486Y-128922369D01*
X120254672Y-128922000D01*
X119682115Y-128922000D01*
X119666876Y-128926475D01*
X119665671Y-128927865D01*
X119664000Y-128935548D01*
X119664000Y-131519884D01*
X119668475Y-131535123D01*
X119669865Y-131536328D01*
X119677548Y-131537999D01*
X120254669Y-131537999D01*
X120261490Y-131537629D01*
X120312352Y-131532105D01*
X120327604Y-131528479D01*
X120448054Y-131483324D01*
X120463649Y-131474786D01*
X120481656Y-131461290D01*
X120548162Y-131436441D01*
X120617545Y-131451493D01*
X120645928Y-131472631D01*
X120766143Y-131591801D01*
X120777390Y-131602950D01*
X120993205Y-131761192D01*
X120997340Y-131763368D01*
X120997344Y-131763370D01*
X121126918Y-131831542D01*
X121230039Y-131885797D01*
X121234458Y-131887340D01*
X121478273Y-131972484D01*
X121478279Y-131972486D01*
X121482690Y-131974026D01*
X121745606Y-132023943D01*
X121872616Y-132028933D01*
X122008345Y-132034266D01*
X122008350Y-132034266D01*
X122013013Y-132034449D01*
X122108943Y-132023943D01*
X122274382Y-132005825D01*
X122274387Y-132005824D01*
X122279035Y-132005315D01*
X122394567Y-131974898D01*
X122533309Y-131938370D01*
X122537829Y-131937180D01*
X122698276Y-131868247D01*
X122779407Y-131833391D01*
X122779410Y-131833389D01*
X122783710Y-131831542D01*
X122787690Y-131829079D01*
X122787694Y-131829077D01*
X123007302Y-131693179D01*
X123007306Y-131693176D01*
X123011275Y-131690720D01*
X123136022Y-131585114D01*
X123200938Y-131556365D01*
X123271091Y-131567277D01*
X123306143Y-131591801D01*
X123317390Y-131602950D01*
X123533205Y-131761192D01*
X123537340Y-131763368D01*
X123537344Y-131763370D01*
X123666918Y-131831542D01*
X123770039Y-131885797D01*
X123774458Y-131887340D01*
X124018273Y-131972484D01*
X124018279Y-131972486D01*
X124022690Y-131974026D01*
X124285606Y-132023943D01*
X124412616Y-132028933D01*
X124548345Y-132034266D01*
X124548350Y-132034266D01*
X124553013Y-132034449D01*
X124648943Y-132023943D01*
X124814382Y-132005825D01*
X124814387Y-132005824D01*
X124819035Y-132005315D01*
X124934567Y-131974898D01*
X125073309Y-131938370D01*
X125077829Y-131937180D01*
X125238276Y-131868247D01*
X125319407Y-131833391D01*
X125319410Y-131833389D01*
X125323710Y-131831542D01*
X125327690Y-131829079D01*
X125327694Y-131829077D01*
X125547302Y-131693179D01*
X125547306Y-131693176D01*
X125551275Y-131690720D01*
X125676022Y-131585114D01*
X125740938Y-131556365D01*
X125811091Y-131567277D01*
X125846143Y-131591801D01*
X125857390Y-131602950D01*
X126073205Y-131761192D01*
X126077340Y-131763368D01*
X126077344Y-131763370D01*
X126206918Y-131831542D01*
X126310039Y-131885797D01*
X126314458Y-131887340D01*
X126558273Y-131972484D01*
X126558279Y-131972486D01*
X126562690Y-131974026D01*
X126825606Y-132023943D01*
X126952616Y-132028933D01*
X127088345Y-132034266D01*
X127088350Y-132034266D01*
X127093013Y-132034449D01*
X127188943Y-132023943D01*
X127354382Y-132005825D01*
X127354387Y-132005824D01*
X127359035Y-132005315D01*
X127474567Y-131974898D01*
X127613309Y-131938370D01*
X127617829Y-131937180D01*
X127778276Y-131868247D01*
X127859407Y-131833391D01*
X127859410Y-131833389D01*
X127863710Y-131831542D01*
X127867690Y-131829079D01*
X127867694Y-131829077D01*
X128087302Y-131693179D01*
X128087306Y-131693176D01*
X128091275Y-131690720D01*
X128216022Y-131585114D01*
X128280938Y-131556365D01*
X128351091Y-131567277D01*
X128386143Y-131591801D01*
X128397390Y-131602950D01*
X128613205Y-131761192D01*
X128617340Y-131763368D01*
X128617344Y-131763370D01*
X128746918Y-131831542D01*
X128850039Y-131885797D01*
X128854458Y-131887340D01*
X129098273Y-131972484D01*
X129098279Y-131972486D01*
X129102690Y-131974026D01*
X129365606Y-132023943D01*
X129492616Y-132028933D01*
X129628345Y-132034266D01*
X129628350Y-132034266D01*
X129633013Y-132034449D01*
X129728943Y-132023943D01*
X129894382Y-132005825D01*
X129894387Y-132005824D01*
X129899035Y-132005315D01*
X130014567Y-131974898D01*
X130153309Y-131938370D01*
X130157829Y-131937180D01*
X130318276Y-131868247D01*
X130399407Y-131833391D01*
X130399410Y-131833389D01*
X130403710Y-131831542D01*
X130407690Y-131829079D01*
X130407694Y-131829077D01*
X130627302Y-131693179D01*
X130627306Y-131693176D01*
X130631275Y-131690720D01*
X130756022Y-131585114D01*
X130820938Y-131556365D01*
X130891091Y-131567277D01*
X130926143Y-131591801D01*
X130937390Y-131602950D01*
X131153205Y-131761192D01*
X131157340Y-131763368D01*
X131157344Y-131763370D01*
X131286918Y-131831542D01*
X131390039Y-131885797D01*
X131394458Y-131887340D01*
X131638273Y-131972484D01*
X131638279Y-131972486D01*
X131642690Y-131974026D01*
X131905606Y-132023943D01*
X132032616Y-132028933D01*
X132168345Y-132034266D01*
X132168350Y-132034266D01*
X132173013Y-132034449D01*
X132268943Y-132023943D01*
X132434382Y-132005825D01*
X132434387Y-132005824D01*
X132439035Y-132005315D01*
X132554567Y-131974898D01*
X132693309Y-131938370D01*
X132697829Y-131937180D01*
X132858276Y-131868247D01*
X132939407Y-131833391D01*
X132939410Y-131833389D01*
X132943710Y-131831542D01*
X132947690Y-131829079D01*
X132947694Y-131829077D01*
X133167302Y-131693179D01*
X133167306Y-131693176D01*
X133171275Y-131690720D01*
X133296022Y-131585114D01*
X133360938Y-131556365D01*
X133431091Y-131567277D01*
X133466143Y-131591801D01*
X133477390Y-131602950D01*
X133693205Y-131761192D01*
X133697340Y-131763368D01*
X133697344Y-131763370D01*
X133826918Y-131831542D01*
X133930039Y-131885797D01*
X133934458Y-131887340D01*
X134178273Y-131972484D01*
X134178279Y-131972486D01*
X134182690Y-131974026D01*
X134445606Y-132023943D01*
X134572616Y-132028933D01*
X134708345Y-132034266D01*
X134708350Y-132034266D01*
X134713013Y-132034449D01*
X134808943Y-132023943D01*
X134974382Y-132005825D01*
X134974387Y-132005824D01*
X134979035Y-132005315D01*
X135094567Y-131974898D01*
X135233309Y-131938370D01*
X135237829Y-131937180D01*
X135398276Y-131868247D01*
X135479407Y-131833391D01*
X135479410Y-131833389D01*
X135483710Y-131831542D01*
X135487690Y-131829079D01*
X135487694Y-131829077D01*
X135707302Y-131693179D01*
X135707306Y-131693176D01*
X135711275Y-131690720D01*
X135836022Y-131585114D01*
X135900938Y-131556365D01*
X135971091Y-131567277D01*
X136006143Y-131591801D01*
X136017390Y-131602950D01*
X136233205Y-131761192D01*
X136237340Y-131763368D01*
X136237344Y-131763370D01*
X136366918Y-131831542D01*
X136470039Y-131885797D01*
X136474458Y-131887340D01*
X136718273Y-131972484D01*
X136718279Y-131972486D01*
X136722690Y-131974026D01*
X136985606Y-132023943D01*
X137112616Y-132028933D01*
X137248345Y-132034266D01*
X137248350Y-132034266D01*
X137253013Y-132034449D01*
X137348943Y-132023943D01*
X137514382Y-132005825D01*
X137514387Y-132005824D01*
X137519035Y-132005315D01*
X137634567Y-131974898D01*
X137773309Y-131938370D01*
X137777829Y-131937180D01*
X137938276Y-131868247D01*
X138019407Y-131833391D01*
X138019410Y-131833389D01*
X138023710Y-131831542D01*
X138027690Y-131829079D01*
X138027694Y-131829077D01*
X138247302Y-131693179D01*
X138247306Y-131693176D01*
X138251275Y-131690720D01*
X138376022Y-131585114D01*
X138440938Y-131556365D01*
X138511091Y-131567277D01*
X138546143Y-131591801D01*
X138557390Y-131602950D01*
X138773205Y-131761192D01*
X138777340Y-131763368D01*
X138777344Y-131763370D01*
X138906918Y-131831542D01*
X139010039Y-131885797D01*
X139014458Y-131887340D01*
X139258273Y-131972484D01*
X139258279Y-131972486D01*
X139262690Y-131974026D01*
X139525606Y-132023943D01*
X139652616Y-132028933D01*
X139788345Y-132034266D01*
X139788350Y-132034266D01*
X139793013Y-132034449D01*
X139888943Y-132023943D01*
X140054382Y-132005825D01*
X140054387Y-132005824D01*
X140059035Y-132005315D01*
X140174567Y-131974898D01*
X140313309Y-131938370D01*
X140317829Y-131937180D01*
X140478276Y-131868247D01*
X140559407Y-131833391D01*
X140559410Y-131833389D01*
X140563710Y-131831542D01*
X140567690Y-131829079D01*
X140567694Y-131829077D01*
X140787302Y-131693179D01*
X140787306Y-131693176D01*
X140791275Y-131690720D01*
X140916022Y-131585114D01*
X140980938Y-131556365D01*
X141051091Y-131567277D01*
X141086143Y-131591801D01*
X141097390Y-131602950D01*
X141313205Y-131761192D01*
X141317340Y-131763368D01*
X141317344Y-131763370D01*
X141446918Y-131831542D01*
X141550039Y-131885797D01*
X141554458Y-131887340D01*
X141798273Y-131972484D01*
X141798279Y-131972486D01*
X141802690Y-131974026D01*
X142065606Y-132023943D01*
X142192616Y-132028933D01*
X142328345Y-132034266D01*
X142328350Y-132034266D01*
X142333013Y-132034449D01*
X142428943Y-132023943D01*
X142594382Y-132005825D01*
X142594387Y-132005824D01*
X142599035Y-132005315D01*
X142714567Y-131974898D01*
X142853309Y-131938370D01*
X142857829Y-131937180D01*
X143018276Y-131868247D01*
X143099407Y-131833391D01*
X143099410Y-131833389D01*
X143103710Y-131831542D01*
X143107690Y-131829079D01*
X143107694Y-131829077D01*
X143327302Y-131693179D01*
X143327306Y-131693176D01*
X143331275Y-131690720D01*
X143456022Y-131585114D01*
X143520938Y-131556365D01*
X143591091Y-131567277D01*
X143626143Y-131591801D01*
X143637390Y-131602950D01*
X143853205Y-131761192D01*
X143857340Y-131763368D01*
X143857344Y-131763370D01*
X143986918Y-131831542D01*
X144090039Y-131885797D01*
X144094458Y-131887340D01*
X144338273Y-131972484D01*
X144338279Y-131972486D01*
X144342690Y-131974026D01*
X144605606Y-132023943D01*
X144732616Y-132028933D01*
X144868345Y-132034266D01*
X144868350Y-132034266D01*
X144873013Y-132034449D01*
X144968943Y-132023943D01*
X145134382Y-132005825D01*
X145134387Y-132005824D01*
X145139035Y-132005315D01*
X145254567Y-131974898D01*
X145393309Y-131938370D01*
X145397829Y-131937180D01*
X145558276Y-131868247D01*
X145639407Y-131833391D01*
X145639410Y-131833389D01*
X145643710Y-131831542D01*
X145647690Y-131829079D01*
X145647694Y-131829077D01*
X145867302Y-131693179D01*
X145867306Y-131693176D01*
X145871275Y-131690720D01*
X145996022Y-131585114D01*
X146060938Y-131556365D01*
X146131091Y-131567277D01*
X146166143Y-131591801D01*
X146177390Y-131602950D01*
X146393205Y-131761192D01*
X146397340Y-131763368D01*
X146397344Y-131763370D01*
X146526918Y-131831542D01*
X146630039Y-131885797D01*
X146634458Y-131887340D01*
X146878273Y-131972484D01*
X146878279Y-131972486D01*
X146882690Y-131974026D01*
X147145606Y-132023943D01*
X147272616Y-132028933D01*
X147408345Y-132034266D01*
X147408350Y-132034266D01*
X147413013Y-132034449D01*
X147508943Y-132023943D01*
X147674382Y-132005825D01*
X147674387Y-132005824D01*
X147679035Y-132005315D01*
X147794567Y-131974898D01*
X147933309Y-131938370D01*
X147937829Y-131937180D01*
X148098276Y-131868247D01*
X148179407Y-131833391D01*
X148179410Y-131833389D01*
X148183710Y-131831542D01*
X148187690Y-131829079D01*
X148187694Y-131829077D01*
X148407302Y-131693179D01*
X148407306Y-131693176D01*
X148411275Y-131690720D01*
X148536022Y-131585114D01*
X148600938Y-131556365D01*
X148671091Y-131567277D01*
X148706143Y-131591801D01*
X148717390Y-131602950D01*
X148933205Y-131761192D01*
X148937340Y-131763368D01*
X148937344Y-131763370D01*
X149066918Y-131831542D01*
X149170039Y-131885797D01*
X149174458Y-131887340D01*
X149418273Y-131972484D01*
X149418279Y-131972486D01*
X149422690Y-131974026D01*
X149685606Y-132023943D01*
X149812616Y-132028933D01*
X149948345Y-132034266D01*
X149948350Y-132034266D01*
X149953013Y-132034449D01*
X150048943Y-132023943D01*
X150214382Y-132005825D01*
X150214387Y-132005824D01*
X150219035Y-132005315D01*
X150334567Y-131974898D01*
X150473309Y-131938370D01*
X150477829Y-131937180D01*
X150638276Y-131868247D01*
X150719407Y-131833391D01*
X150719410Y-131833389D01*
X150723710Y-131831542D01*
X150727690Y-131829079D01*
X150727694Y-131829077D01*
X150947302Y-131693179D01*
X150947306Y-131693176D01*
X150951275Y-131690720D01*
X151076022Y-131585114D01*
X151140938Y-131556365D01*
X151211091Y-131567277D01*
X151246143Y-131591801D01*
X151257390Y-131602950D01*
X151473205Y-131761192D01*
X151477340Y-131763368D01*
X151477344Y-131763370D01*
X151606918Y-131831542D01*
X151710039Y-131885797D01*
X151714458Y-131887340D01*
X151958273Y-131972484D01*
X151958279Y-131972486D01*
X151962690Y-131974026D01*
X152225606Y-132023943D01*
X152352616Y-132028933D01*
X152488345Y-132034266D01*
X152488350Y-132034266D01*
X152493013Y-132034449D01*
X152588943Y-132023943D01*
X152754382Y-132005825D01*
X152754387Y-132005824D01*
X152759035Y-132005315D01*
X152874567Y-131974898D01*
X153013309Y-131938370D01*
X153017829Y-131937180D01*
X153178276Y-131868247D01*
X153259407Y-131833391D01*
X153259410Y-131833389D01*
X153263710Y-131831542D01*
X153267690Y-131829079D01*
X153267694Y-131829077D01*
X153487302Y-131693179D01*
X153487306Y-131693176D01*
X153491275Y-131690720D01*
X153616022Y-131585114D01*
X153680938Y-131556365D01*
X153751091Y-131567277D01*
X153786143Y-131591801D01*
X153797390Y-131602950D01*
X154013205Y-131761192D01*
X154017340Y-131763368D01*
X154017344Y-131763370D01*
X154146918Y-131831542D01*
X154250039Y-131885797D01*
X154254458Y-131887340D01*
X154498273Y-131972484D01*
X154498279Y-131972486D01*
X154502690Y-131974026D01*
X154765606Y-132023943D01*
X154892616Y-132028933D01*
X155028345Y-132034266D01*
X155028350Y-132034266D01*
X155033013Y-132034449D01*
X155128943Y-132023943D01*
X155294382Y-132005825D01*
X155294387Y-132005824D01*
X155299035Y-132005315D01*
X155414567Y-131974898D01*
X155553309Y-131938370D01*
X155557829Y-131937180D01*
X155718276Y-131868247D01*
X155799407Y-131833391D01*
X155799410Y-131833389D01*
X155803710Y-131831542D01*
X155807690Y-131829079D01*
X155807694Y-131829077D01*
X156027302Y-131693179D01*
X156027306Y-131693176D01*
X156031275Y-131690720D01*
X156156022Y-131585114D01*
X156220938Y-131556365D01*
X156291091Y-131567277D01*
X156326143Y-131591801D01*
X156337390Y-131602950D01*
X156553205Y-131761192D01*
X156557340Y-131763368D01*
X156557344Y-131763370D01*
X156686918Y-131831542D01*
X156790039Y-131885797D01*
X156794458Y-131887340D01*
X157038273Y-131972484D01*
X157038279Y-131972486D01*
X157042690Y-131974026D01*
X157305606Y-132023943D01*
X157432616Y-132028933D01*
X157568345Y-132034266D01*
X157568350Y-132034266D01*
X157573013Y-132034449D01*
X157668943Y-132023943D01*
X157834382Y-132005825D01*
X157834387Y-132005824D01*
X157839035Y-132005315D01*
X157954567Y-131974898D01*
X158093309Y-131938370D01*
X158097829Y-131937180D01*
X158258276Y-131868247D01*
X158339407Y-131833391D01*
X158339410Y-131833389D01*
X158343710Y-131831542D01*
X158347690Y-131829079D01*
X158347694Y-131829077D01*
X158567302Y-131693179D01*
X158567306Y-131693176D01*
X158571275Y-131690720D01*
X158696022Y-131585114D01*
X158760938Y-131556365D01*
X158831091Y-131567277D01*
X158866143Y-131591801D01*
X158877390Y-131602950D01*
X159093205Y-131761192D01*
X159097340Y-131763368D01*
X159097344Y-131763370D01*
X159226918Y-131831542D01*
X159330039Y-131885797D01*
X159334458Y-131887340D01*
X159578273Y-131972484D01*
X159578279Y-131972486D01*
X159582690Y-131974026D01*
X159845606Y-132023943D01*
X159972616Y-132028933D01*
X160108345Y-132034266D01*
X160108350Y-132034266D01*
X160113013Y-132034449D01*
X160208943Y-132023943D01*
X160374382Y-132005825D01*
X160374387Y-132005824D01*
X160379035Y-132005315D01*
X160494567Y-131974898D01*
X160633309Y-131938370D01*
X160637829Y-131937180D01*
X160798276Y-131868247D01*
X160879407Y-131833391D01*
X160879410Y-131833389D01*
X160883710Y-131831542D01*
X160887690Y-131829079D01*
X160887694Y-131829077D01*
X161107302Y-131693179D01*
X161107306Y-131693176D01*
X161111275Y-131690720D01*
X161236022Y-131585114D01*
X161300938Y-131556365D01*
X161371091Y-131567277D01*
X161406143Y-131591801D01*
X161417390Y-131602950D01*
X161633205Y-131761192D01*
X161637340Y-131763368D01*
X161637344Y-131763370D01*
X161766918Y-131831542D01*
X161870039Y-131885797D01*
X161874458Y-131887340D01*
X162118273Y-131972484D01*
X162118279Y-131972486D01*
X162122690Y-131974026D01*
X162385606Y-132023943D01*
X162512616Y-132028933D01*
X162648345Y-132034266D01*
X162648350Y-132034266D01*
X162653013Y-132034449D01*
X162748943Y-132023943D01*
X162914382Y-132005825D01*
X162914387Y-132005824D01*
X162919035Y-132005315D01*
X163034567Y-131974898D01*
X163173309Y-131938370D01*
X163177829Y-131937180D01*
X163338276Y-131868247D01*
X163419407Y-131833391D01*
X163419410Y-131833389D01*
X163423710Y-131831542D01*
X163427690Y-131829079D01*
X163427694Y-131829077D01*
X163647302Y-131693179D01*
X163647306Y-131693176D01*
X163651275Y-131690720D01*
X163776022Y-131585114D01*
X163840938Y-131556365D01*
X163911091Y-131567277D01*
X163946143Y-131591801D01*
X163957390Y-131602950D01*
X164173205Y-131761192D01*
X164177340Y-131763368D01*
X164177344Y-131763370D01*
X164306918Y-131831542D01*
X164410039Y-131885797D01*
X164414458Y-131887340D01*
X164658273Y-131972484D01*
X164658279Y-131972486D01*
X164662690Y-131974026D01*
X164925606Y-132023943D01*
X165052616Y-132028933D01*
X165188345Y-132034266D01*
X165188350Y-132034266D01*
X165193013Y-132034449D01*
X165288943Y-132023943D01*
X165454382Y-132005825D01*
X165454387Y-132005824D01*
X165459035Y-132005315D01*
X165574567Y-131974898D01*
X165713309Y-131938370D01*
X165717829Y-131937180D01*
X165878276Y-131868247D01*
X165959407Y-131833391D01*
X165959410Y-131833389D01*
X165963710Y-131831542D01*
X165967690Y-131829079D01*
X165967694Y-131829077D01*
X166187302Y-131693179D01*
X166187306Y-131693176D01*
X166191275Y-131690720D01*
X166316022Y-131585114D01*
X166380938Y-131556365D01*
X166451091Y-131567277D01*
X166486143Y-131591801D01*
X166497390Y-131602950D01*
X166713205Y-131761192D01*
X166717340Y-131763368D01*
X166717344Y-131763370D01*
X166846918Y-131831542D01*
X166950039Y-131885797D01*
X166954458Y-131887340D01*
X167198273Y-131972484D01*
X167198279Y-131972486D01*
X167202690Y-131974026D01*
X167465606Y-132023943D01*
X167592616Y-132028933D01*
X167728345Y-132034266D01*
X167728350Y-132034266D01*
X167733013Y-132034449D01*
X167828943Y-132023943D01*
X167994382Y-132005825D01*
X167994387Y-132005824D01*
X167999035Y-132005315D01*
X168114567Y-131974898D01*
X168253309Y-131938370D01*
X168257829Y-131937180D01*
X168418276Y-131868247D01*
X168499407Y-131833391D01*
X168499410Y-131833389D01*
X168503710Y-131831542D01*
X168507690Y-131829079D01*
X168507694Y-131829077D01*
X168727302Y-131693179D01*
X168727306Y-131693176D01*
X168731275Y-131690720D01*
X168856022Y-131585114D01*
X168920938Y-131556365D01*
X168991091Y-131567277D01*
X169026143Y-131591801D01*
X169037390Y-131602950D01*
X169253205Y-131761192D01*
X169257340Y-131763368D01*
X169257344Y-131763370D01*
X169386918Y-131831542D01*
X169490039Y-131885797D01*
X169494458Y-131887340D01*
X169738273Y-131972484D01*
X169738279Y-131972486D01*
X169742690Y-131974026D01*
X170005606Y-132023943D01*
X170132616Y-132028933D01*
X170268345Y-132034266D01*
X170268350Y-132034266D01*
X170273013Y-132034449D01*
X170368943Y-132023943D01*
X170534382Y-132005825D01*
X170534387Y-132005824D01*
X170539035Y-132005315D01*
X170654567Y-131974898D01*
X170793309Y-131938370D01*
X170797829Y-131937180D01*
X170958276Y-131868247D01*
X171039407Y-131833391D01*
X171039410Y-131833389D01*
X171043710Y-131831542D01*
X171047690Y-131829079D01*
X171047694Y-131829077D01*
X171267302Y-131693179D01*
X171267306Y-131693176D01*
X171271275Y-131690720D01*
X171396022Y-131585114D01*
X171460938Y-131556365D01*
X171531091Y-131567277D01*
X171566143Y-131591801D01*
X171577390Y-131602950D01*
X171793205Y-131761192D01*
X171797340Y-131763368D01*
X171797344Y-131763370D01*
X171926918Y-131831542D01*
X172030039Y-131885797D01*
X172034458Y-131887340D01*
X172278273Y-131972484D01*
X172278279Y-131972486D01*
X172282690Y-131974026D01*
X172545606Y-132023943D01*
X172672616Y-132028933D01*
X172808345Y-132034266D01*
X172808350Y-132034266D01*
X172813013Y-132034449D01*
X172908943Y-132023943D01*
X173074382Y-132005825D01*
X173074387Y-132005824D01*
X173079035Y-132005315D01*
X173194567Y-131974898D01*
X173333309Y-131938370D01*
X173337829Y-131937180D01*
X173498276Y-131868247D01*
X173579407Y-131833391D01*
X173579410Y-131833389D01*
X173583710Y-131831542D01*
X173587690Y-131829079D01*
X173587694Y-131829077D01*
X173807302Y-131693179D01*
X173807306Y-131693176D01*
X173811275Y-131690720D01*
X173936022Y-131585114D01*
X174000938Y-131556365D01*
X174071091Y-131567277D01*
X174106143Y-131591801D01*
X174117390Y-131602950D01*
X174333205Y-131761192D01*
X174337340Y-131763368D01*
X174337344Y-131763370D01*
X174466918Y-131831542D01*
X174570039Y-131885797D01*
X174574458Y-131887340D01*
X174818273Y-131972484D01*
X174818279Y-131972486D01*
X174822690Y-131974026D01*
X175085606Y-132023943D01*
X175212616Y-132028933D01*
X175348345Y-132034266D01*
X175348350Y-132034266D01*
X175353013Y-132034449D01*
X175448943Y-132023943D01*
X175614382Y-132005825D01*
X175614387Y-132005824D01*
X175619035Y-132005315D01*
X175734567Y-131974898D01*
X175873309Y-131938370D01*
X175877829Y-131937180D01*
X176038276Y-131868247D01*
X176119407Y-131833391D01*
X176119410Y-131833389D01*
X176123710Y-131831542D01*
X176127690Y-131829079D01*
X176127694Y-131829077D01*
X176347302Y-131693179D01*
X176347306Y-131693176D01*
X176351275Y-131690720D01*
X176476022Y-131585114D01*
X176540938Y-131556365D01*
X176611091Y-131567277D01*
X176646143Y-131591801D01*
X176657390Y-131602950D01*
X176873205Y-131761192D01*
X176877340Y-131763368D01*
X176877344Y-131763370D01*
X177006918Y-131831542D01*
X177110039Y-131885797D01*
X177114458Y-131887340D01*
X177358273Y-131972484D01*
X177358279Y-131972486D01*
X177362690Y-131974026D01*
X177625606Y-132023943D01*
X177752616Y-132028933D01*
X177888345Y-132034266D01*
X177888350Y-132034266D01*
X177893013Y-132034449D01*
X177988943Y-132023943D01*
X178154382Y-132005825D01*
X178154387Y-132005824D01*
X178159035Y-132005315D01*
X178274567Y-131974898D01*
X178413309Y-131938370D01*
X178417829Y-131937180D01*
X178578276Y-131868247D01*
X178659407Y-131833391D01*
X178659410Y-131833389D01*
X178663710Y-131831542D01*
X178667690Y-131829079D01*
X178667694Y-131829077D01*
X178887302Y-131693179D01*
X178887306Y-131693176D01*
X178891275Y-131690720D01*
X178905010Y-131679092D01*
X179091960Y-131520828D01*
X179091961Y-131520827D01*
X179095526Y-131517809D01*
X179211362Y-131385724D01*
X179268894Y-131320122D01*
X179268898Y-131320117D01*
X179271976Y-131316607D01*
X179380682Y-131147604D01*
X179414219Y-131095465D01*
X179414222Y-131095460D01*
X179416747Y-131091534D01*
X179526661Y-130847534D01*
X179573299Y-130682168D01*
X179598032Y-130594473D01*
X179598033Y-130594470D01*
X179599302Y-130589969D01*
X179633075Y-130324495D01*
X179635549Y-130230000D01*
X179616550Y-129974329D01*
X179616064Y-129967788D01*
X179616063Y-129967784D01*
X179615717Y-129963123D01*
X179605161Y-129916470D01*
X179557686Y-129706666D01*
X179556655Y-129702109D01*
X179473553Y-129488411D01*
X179461355Y-129457044D01*
X179461354Y-129457042D01*
X179459662Y-129452691D01*
X179326868Y-129220350D01*
X179161190Y-129010189D01*
X178966269Y-128826825D01*
X178746385Y-128674286D01*
X178742194Y-128672219D01*
X178510559Y-128557989D01*
X178510556Y-128557988D01*
X178506371Y-128555924D01*
X178448759Y-128537482D01*
X178300197Y-128489927D01*
X178251497Y-128474338D01*
X178106134Y-128450665D01*
X177991976Y-128432073D01*
X177991975Y-128432073D01*
X177987364Y-128431322D01*
X177853569Y-128429571D01*
X177724451Y-128427880D01*
X177724448Y-128427880D01*
X177719774Y-128427819D01*
X177454605Y-128463907D01*
X177450118Y-128465215D01*
X177450117Y-128465215D01*
X177418817Y-128474338D01*
X177197683Y-128538792D01*
X177193430Y-128540752D01*
X177193429Y-128540753D01*
X177156035Y-128557992D01*
X176954652Y-128650831D01*
X176922030Y-128672219D01*
X176734764Y-128794996D01*
X176734759Y-128795000D01*
X176730851Y-128797562D01*
X176727359Y-128800679D01*
X176644734Y-128874424D01*
X176580593Y-128904862D01*
X176510178Y-128895790D01*
X176474500Y-128872196D01*
X176429670Y-128830024D01*
X176429667Y-128830022D01*
X176426269Y-128826825D01*
X176206385Y-128674286D01*
X176202194Y-128672219D01*
X175970559Y-128557989D01*
X175970556Y-128557988D01*
X175966371Y-128555924D01*
X175908759Y-128537482D01*
X175760197Y-128489927D01*
X175711497Y-128474338D01*
X175566134Y-128450665D01*
X175451976Y-128432073D01*
X175451975Y-128432073D01*
X175447364Y-128431322D01*
X175313569Y-128429571D01*
X175184451Y-128427880D01*
X175184448Y-128427880D01*
X175179774Y-128427819D01*
X174914605Y-128463907D01*
X174910118Y-128465215D01*
X174910117Y-128465215D01*
X174878817Y-128474338D01*
X174657683Y-128538792D01*
X174653430Y-128540752D01*
X174653429Y-128540753D01*
X174616035Y-128557992D01*
X174414652Y-128650831D01*
X174382030Y-128672219D01*
X174194764Y-128794996D01*
X174194759Y-128795000D01*
X174190851Y-128797562D01*
X174187359Y-128800679D01*
X174104734Y-128874424D01*
X174040593Y-128904862D01*
X173970178Y-128895790D01*
X173934500Y-128872196D01*
X173889670Y-128830024D01*
X173889667Y-128830022D01*
X173886269Y-128826825D01*
X173666385Y-128674286D01*
X173662194Y-128672219D01*
X173430559Y-128557989D01*
X173430556Y-128557988D01*
X173426371Y-128555924D01*
X173368759Y-128537482D01*
X173220197Y-128489927D01*
X173171497Y-128474338D01*
X173026134Y-128450665D01*
X172911976Y-128432073D01*
X172911975Y-128432073D01*
X172907364Y-128431322D01*
X172773569Y-128429571D01*
X172644451Y-128427880D01*
X172644448Y-128427880D01*
X172639774Y-128427819D01*
X172374605Y-128463907D01*
X172370118Y-128465215D01*
X172370117Y-128465215D01*
X172338817Y-128474338D01*
X172117683Y-128538792D01*
X172113430Y-128540752D01*
X172113429Y-128540753D01*
X172076035Y-128557992D01*
X171874652Y-128650831D01*
X171842030Y-128672219D01*
X171654764Y-128794996D01*
X171654759Y-128795000D01*
X171650851Y-128797562D01*
X171647359Y-128800679D01*
X171564734Y-128874424D01*
X171500593Y-128904862D01*
X171430178Y-128895790D01*
X171394500Y-128872196D01*
X171349670Y-128830024D01*
X171349667Y-128830022D01*
X171346269Y-128826825D01*
X171126385Y-128674286D01*
X171122194Y-128672219D01*
X170890559Y-128557989D01*
X170890556Y-128557988D01*
X170886371Y-128555924D01*
X170828759Y-128537482D01*
X170680197Y-128489927D01*
X170631497Y-128474338D01*
X170486134Y-128450665D01*
X170371976Y-128432073D01*
X170371975Y-128432073D01*
X170367364Y-128431322D01*
X170233569Y-128429571D01*
X170104451Y-128427880D01*
X170104448Y-128427880D01*
X170099774Y-128427819D01*
X169834605Y-128463907D01*
X169830118Y-128465215D01*
X169830117Y-128465215D01*
X169798817Y-128474338D01*
X169577683Y-128538792D01*
X169573430Y-128540752D01*
X169573429Y-128540753D01*
X169536035Y-128557992D01*
X169334652Y-128650831D01*
X169302030Y-128672219D01*
X169114764Y-128794996D01*
X169114759Y-128795000D01*
X169110851Y-128797562D01*
X169107359Y-128800679D01*
X169024734Y-128874424D01*
X168960593Y-128904862D01*
X168890178Y-128895790D01*
X168854500Y-128872196D01*
X168809670Y-128830024D01*
X168809667Y-128830022D01*
X168806269Y-128826825D01*
X168586385Y-128674286D01*
X168582194Y-128672219D01*
X168350559Y-128557989D01*
X168350556Y-128557988D01*
X168346371Y-128555924D01*
X168288759Y-128537482D01*
X168140197Y-128489927D01*
X168091497Y-128474338D01*
X167946134Y-128450665D01*
X167831976Y-128432073D01*
X167831975Y-128432073D01*
X167827364Y-128431322D01*
X167693569Y-128429571D01*
X167564451Y-128427880D01*
X167564448Y-128427880D01*
X167559774Y-128427819D01*
X167294605Y-128463907D01*
X167290118Y-128465215D01*
X167290117Y-128465215D01*
X167258817Y-128474338D01*
X167037683Y-128538792D01*
X167033430Y-128540752D01*
X167033429Y-128540753D01*
X166945921Y-128581095D01*
X166875684Y-128591450D01*
X166810998Y-128562188D01*
X166772401Y-128502599D01*
X166772148Y-128431603D01*
X166778288Y-128414918D01*
X166806329Y-128352670D01*
X166826661Y-128307534D01*
X166899302Y-128049969D01*
X166917103Y-127910041D01*
X166932677Y-127787625D01*
X166932677Y-127787621D01*
X166933075Y-127784495D01*
X166935549Y-127690000D01*
X166915717Y-127423123D01*
X166905161Y-127376470D01*
X166860522Y-127179200D01*
X166856655Y-127162109D01*
X166837471Y-127112776D01*
X166761355Y-126917044D01*
X166761354Y-126917042D01*
X166759662Y-126912691D01*
X166626868Y-126680350D01*
X166487595Y-126503683D01*
X166481540Y-126496002D01*
X166455075Y-126430122D01*
X166468428Y-126360393D01*
X166485755Y-126334922D01*
X166571976Y-126236607D01*
X166617468Y-126165882D01*
X166714219Y-126015465D01*
X166714222Y-126015460D01*
X166716747Y-126011534D01*
X166826661Y-125767534D01*
X166874454Y-125598074D01*
X166898032Y-125514473D01*
X166898033Y-125514470D01*
X166899302Y-125509969D01*
X166917103Y-125370041D01*
X166932677Y-125247625D01*
X166932677Y-125247621D01*
X166933075Y-125244495D01*
X166935549Y-125150000D01*
X166931691Y-125098081D01*
X166916064Y-124887788D01*
X166916063Y-124887784D01*
X166915717Y-124883123D01*
X166908933Y-124853140D01*
X166857686Y-124626666D01*
X166856655Y-124622109D01*
X166759662Y-124372691D01*
X166626868Y-124140350D01*
X166487595Y-123963683D01*
X166481540Y-123956002D01*
X166455075Y-123890122D01*
X166468428Y-123820393D01*
X166485755Y-123794922D01*
X166571976Y-123696607D01*
X166623700Y-123616193D01*
X166714219Y-123475465D01*
X166714222Y-123475460D01*
X166716747Y-123471534D01*
X166826661Y-123227534D01*
X166872780Y-123064009D01*
X166898032Y-122974473D01*
X166898033Y-122974470D01*
X166899302Y-122969969D01*
X166905060Y-122924706D01*
X166932677Y-122707625D01*
X166932677Y-122707621D01*
X166933075Y-122704495D01*
X166935549Y-122610000D01*
X166928440Y-122514330D01*
X166916064Y-122347788D01*
X166916063Y-122347784D01*
X166915717Y-122343123D01*
X166908933Y-122313140D01*
X166857686Y-122086666D01*
X166856655Y-122082109D01*
X166759662Y-121832691D01*
X166626868Y-121600350D01*
X166495200Y-121433330D01*
X166481540Y-121416002D01*
X166455075Y-121350122D01*
X166468428Y-121280393D01*
X166485755Y-121254922D01*
X166571976Y-121156607D01*
X166623700Y-121076193D01*
X166714219Y-120935465D01*
X166714222Y-120935460D01*
X166716747Y-120931534D01*
X166826661Y-120687534D01*
X166866034Y-120547927D01*
X166898032Y-120434473D01*
X166898033Y-120434470D01*
X166899302Y-120429969D01*
X166905060Y-120384706D01*
X166932677Y-120167625D01*
X166932677Y-120167621D01*
X166933075Y-120164495D01*
X166935549Y-120070000D01*
X166916573Y-119814641D01*
X166916064Y-119807788D01*
X166916063Y-119807784D01*
X166915717Y-119803123D01*
X166905161Y-119756470D01*
X166857686Y-119546666D01*
X166856655Y-119542109D01*
X166837471Y-119492776D01*
X166761355Y-119297044D01*
X166761354Y-119297042D01*
X166759662Y-119292691D01*
X166749493Y-119274898D01*
X166668614Y-119133391D01*
X166626868Y-119060350D01*
X166517488Y-118921602D01*
X166481540Y-118876002D01*
X166455075Y-118810122D01*
X166468428Y-118740393D01*
X166485755Y-118714922D01*
X166571976Y-118616607D01*
X166590370Y-118588010D01*
X166714219Y-118395465D01*
X166714222Y-118395460D01*
X166716747Y-118391534D01*
X166826661Y-118147534D01*
X166899302Y-117889969D01*
X166917103Y-117750041D01*
X166932677Y-117627625D01*
X166932677Y-117627621D01*
X166933075Y-117624495D01*
X166935549Y-117530000D01*
X166915717Y-117263123D01*
X166905161Y-117216470D01*
X166857686Y-117006666D01*
X166856655Y-117002109D01*
X166823477Y-116916790D01*
X166780289Y-116805733D01*
X166774242Y-116734994D01*
X166807398Y-116672216D01*
X166869232Y-116637329D01*
X166940112Y-116641410D01*
X166946514Y-116643943D01*
X166950039Y-116645797D01*
X166954458Y-116647340D01*
X166954463Y-116647342D01*
X167198273Y-116732484D01*
X167198279Y-116732486D01*
X167202690Y-116734026D01*
X167465606Y-116783943D01*
X167592616Y-116788933D01*
X167728345Y-116794266D01*
X167728350Y-116794266D01*
X167733013Y-116794449D01*
X167828943Y-116783943D01*
X167994382Y-116765825D01*
X167994387Y-116765824D01*
X167999035Y-116765315D01*
X168114567Y-116734898D01*
X168198709Y-116712745D01*
X168257829Y-116697180D01*
X168483295Y-116600313D01*
X168499407Y-116593391D01*
X168499410Y-116593389D01*
X168503710Y-116591542D01*
X168507690Y-116589079D01*
X168507694Y-116589077D01*
X168727302Y-116453179D01*
X168727306Y-116453176D01*
X168731275Y-116450720D01*
X168856022Y-116345114D01*
X168920938Y-116316365D01*
X168991091Y-116327277D01*
X169026143Y-116351801D01*
X169037390Y-116362950D01*
X169041156Y-116365712D01*
X169041158Y-116365713D01*
X169152977Y-116447702D01*
X169253205Y-116521192D01*
X169257340Y-116523368D01*
X169257344Y-116523370D01*
X169386918Y-116591542D01*
X169490039Y-116645797D01*
X169530338Y-116659870D01*
X169738273Y-116732484D01*
X169738279Y-116732486D01*
X169742690Y-116734026D01*
X170005606Y-116783943D01*
X170132616Y-116788933D01*
X170268345Y-116794266D01*
X170268350Y-116794266D01*
X170273013Y-116794449D01*
X170368943Y-116783943D01*
X170534382Y-116765825D01*
X170534387Y-116765824D01*
X170539035Y-116765315D01*
X170654567Y-116734898D01*
X170738709Y-116712745D01*
X170797829Y-116697180D01*
X171023295Y-116600313D01*
X171039407Y-116593391D01*
X171039410Y-116593389D01*
X171043710Y-116591542D01*
X171047690Y-116589079D01*
X171047694Y-116589077D01*
X171267302Y-116453179D01*
X171267306Y-116453176D01*
X171271275Y-116450720D01*
X171396022Y-116345114D01*
X171460938Y-116316365D01*
X171531091Y-116327277D01*
X171566143Y-116351801D01*
X171577390Y-116362950D01*
X171581156Y-116365712D01*
X171581158Y-116365713D01*
X171692977Y-116447702D01*
X171793205Y-116521192D01*
X171797340Y-116523368D01*
X171797344Y-116523370D01*
X171926918Y-116591542D01*
X172030039Y-116645797D01*
X172070338Y-116659870D01*
X172278273Y-116732484D01*
X172278279Y-116732486D01*
X172282690Y-116734026D01*
X172545606Y-116783943D01*
X172672616Y-116788933D01*
X172808345Y-116794266D01*
X172808350Y-116794266D01*
X172813013Y-116794449D01*
X172908943Y-116783943D01*
X173074382Y-116765825D01*
X173074387Y-116765824D01*
X173079035Y-116765315D01*
X173194567Y-116734898D01*
X173278709Y-116712745D01*
X173337829Y-116697180D01*
X173563295Y-116600313D01*
X173579407Y-116593391D01*
X173579410Y-116593389D01*
X173583710Y-116591542D01*
X173587690Y-116589079D01*
X173587694Y-116589077D01*
X173807302Y-116453179D01*
X173807306Y-116453176D01*
X173811275Y-116450720D01*
X173936022Y-116345114D01*
X174000938Y-116316365D01*
X174071091Y-116327277D01*
X174106143Y-116351801D01*
X174117390Y-116362950D01*
X174121156Y-116365712D01*
X174121158Y-116365713D01*
X174232977Y-116447702D01*
X174333205Y-116521192D01*
X174337340Y-116523368D01*
X174337344Y-116523370D01*
X174466918Y-116591542D01*
X174570039Y-116645797D01*
X174610338Y-116659870D01*
X174818273Y-116732484D01*
X174818279Y-116732486D01*
X174822690Y-116734026D01*
X175085606Y-116783943D01*
X175212616Y-116788933D01*
X175348345Y-116794266D01*
X175348350Y-116794266D01*
X175353013Y-116794449D01*
X175448943Y-116783943D01*
X175614382Y-116765825D01*
X175614387Y-116765824D01*
X175619035Y-116765315D01*
X175734567Y-116734898D01*
X175818709Y-116712745D01*
X175877829Y-116697180D01*
X176103295Y-116600313D01*
X176119407Y-116593391D01*
X176119410Y-116593389D01*
X176123710Y-116591542D01*
X176127690Y-116589079D01*
X176127694Y-116589077D01*
X176347302Y-116453179D01*
X176347306Y-116453176D01*
X176351275Y-116450720D01*
X176476022Y-116345114D01*
X176540938Y-116316365D01*
X176611091Y-116327277D01*
X176646143Y-116351801D01*
X176657390Y-116362950D01*
X176661156Y-116365712D01*
X176661158Y-116365713D01*
X176772977Y-116447702D01*
X176873205Y-116521192D01*
X176877340Y-116523368D01*
X176877344Y-116523370D01*
X177006918Y-116591542D01*
X177110039Y-116645797D01*
X177150338Y-116659870D01*
X177358273Y-116732484D01*
X177358279Y-116732486D01*
X177362690Y-116734026D01*
X177625606Y-116783943D01*
X177752616Y-116788933D01*
X177888345Y-116794266D01*
X177888350Y-116794266D01*
X177893013Y-116794449D01*
X177988943Y-116783943D01*
X178154382Y-116765825D01*
X178154387Y-116765824D01*
X178159035Y-116765315D01*
X178274567Y-116734898D01*
X178358709Y-116712745D01*
X178417829Y-116697180D01*
X178643295Y-116600313D01*
X178659407Y-116593391D01*
X178659410Y-116593389D01*
X178663710Y-116591542D01*
X178667690Y-116589079D01*
X178667694Y-116589077D01*
X178887302Y-116453179D01*
X178887306Y-116453176D01*
X178891275Y-116450720D01*
X178983883Y-116372322D01*
X179091960Y-116280828D01*
X179091961Y-116280827D01*
X179095526Y-116277809D01*
X179189365Y-116170807D01*
X179268894Y-116080122D01*
X179268898Y-116080117D01*
X179271976Y-116076607D01*
X179274506Y-116072674D01*
X179414219Y-115855465D01*
X179414222Y-115855460D01*
X179416747Y-115851534D01*
X179526661Y-115607534D01*
X179599302Y-115349969D01*
X179617103Y-115210041D01*
X179632677Y-115087625D01*
X179632677Y-115087621D01*
X179633075Y-115084495D01*
X179635549Y-114990000D01*
X179615717Y-114723123D01*
X179605161Y-114676470D01*
X179557686Y-114466666D01*
X179556655Y-114462109D01*
X179459662Y-114212691D01*
X179326868Y-113980350D01*
X179161190Y-113770189D01*
X178966269Y-113586825D01*
X178746385Y-113434286D01*
X178742194Y-113432219D01*
X178510559Y-113317989D01*
X178510556Y-113317988D01*
X178506371Y-113315924D01*
X178251497Y-113234338D01*
X178106134Y-113210665D01*
X177991976Y-113192073D01*
X177991975Y-113192073D01*
X177987364Y-113191322D01*
X177853569Y-113189570D01*
X177724451Y-113187880D01*
X177724448Y-113187880D01*
X177719774Y-113187819D01*
X177454605Y-113223907D01*
X177450118Y-113225215D01*
X177450117Y-113225215D01*
X177418817Y-113234338D01*
X177197683Y-113298792D01*
X177193430Y-113300752D01*
X177193429Y-113300753D01*
X177141512Y-113324687D01*
X176954652Y-113410831D01*
X176950743Y-113413394D01*
X176734764Y-113554996D01*
X176734759Y-113555000D01*
X176730851Y-113557562D01*
X176727359Y-113560679D01*
X176644734Y-113634424D01*
X176580593Y-113664862D01*
X176510178Y-113655790D01*
X176474500Y-113632196D01*
X176429670Y-113590024D01*
X176429667Y-113590022D01*
X176426269Y-113586825D01*
X176206385Y-113434286D01*
X176202194Y-113432219D01*
X175970559Y-113317989D01*
X175970556Y-113317988D01*
X175966371Y-113315924D01*
X175711497Y-113234338D01*
X175566134Y-113210665D01*
X175451976Y-113192073D01*
X175451975Y-113192073D01*
X175447364Y-113191322D01*
X175313569Y-113189570D01*
X175184451Y-113187880D01*
X175184448Y-113187880D01*
X175179774Y-113187819D01*
X174914605Y-113223907D01*
X174910118Y-113225215D01*
X174910117Y-113225215D01*
X174878817Y-113234338D01*
X174657683Y-113298792D01*
X174653430Y-113300752D01*
X174653429Y-113300753D01*
X174601512Y-113324687D01*
X174414652Y-113410831D01*
X174410743Y-113413394D01*
X174194764Y-113554996D01*
X174194759Y-113555000D01*
X174190851Y-113557562D01*
X174187359Y-113560679D01*
X174104734Y-113634424D01*
X174040593Y-113664862D01*
X173970178Y-113655790D01*
X173934500Y-113632196D01*
X173889670Y-113590024D01*
X173889667Y-113590022D01*
X173886269Y-113586825D01*
X173666385Y-113434286D01*
X173662194Y-113432219D01*
X173430559Y-113317989D01*
X173430556Y-113317988D01*
X173426371Y-113315924D01*
X173171497Y-113234338D01*
X173026134Y-113210665D01*
X172911976Y-113192073D01*
X172911975Y-113192073D01*
X172907364Y-113191322D01*
X172773569Y-113189570D01*
X172644451Y-113187880D01*
X172644448Y-113187880D01*
X172639774Y-113187819D01*
X172374605Y-113223907D01*
X172370118Y-113225215D01*
X172370117Y-113225215D01*
X172338817Y-113234338D01*
X172117683Y-113298792D01*
X172113430Y-113300752D01*
X172113429Y-113300753D01*
X172061512Y-113324687D01*
X171874652Y-113410831D01*
X171870743Y-113413394D01*
X171654764Y-113554996D01*
X171654759Y-113555000D01*
X171650851Y-113557562D01*
X171647359Y-113560679D01*
X171564734Y-113634424D01*
X171500593Y-113664862D01*
X171430178Y-113655790D01*
X171394500Y-113632196D01*
X171349670Y-113590024D01*
X171349667Y-113590022D01*
X171346269Y-113586825D01*
X171126385Y-113434286D01*
X171122194Y-113432219D01*
X170890559Y-113317989D01*
X170890556Y-113317988D01*
X170886371Y-113315924D01*
X170631497Y-113234338D01*
X170486134Y-113210665D01*
X170371976Y-113192073D01*
X170371975Y-113192073D01*
X170367364Y-113191322D01*
X170233569Y-113189570D01*
X170104451Y-113187880D01*
X170104448Y-113187880D01*
X170099774Y-113187819D01*
X169834605Y-113223907D01*
X169830118Y-113225215D01*
X169830117Y-113225215D01*
X169798817Y-113234338D01*
X169577683Y-113298792D01*
X169573430Y-113300752D01*
X169573429Y-113300753D01*
X169521512Y-113324687D01*
X169334652Y-113410831D01*
X169330743Y-113413394D01*
X169114764Y-113554996D01*
X169114759Y-113555000D01*
X169110851Y-113557562D01*
X169107359Y-113560679D01*
X169024734Y-113634424D01*
X168960593Y-113664862D01*
X168890178Y-113655790D01*
X168854500Y-113632196D01*
X168809670Y-113590024D01*
X168809667Y-113590022D01*
X168806269Y-113586825D01*
X168586385Y-113434286D01*
X168582194Y-113432219D01*
X168350559Y-113317989D01*
X168350556Y-113317988D01*
X168346371Y-113315924D01*
X168091497Y-113234338D01*
X167946134Y-113210665D01*
X167831976Y-113192073D01*
X167831975Y-113192073D01*
X167827364Y-113191322D01*
X167693569Y-113189570D01*
X167564451Y-113187880D01*
X167564448Y-113187880D01*
X167559774Y-113187819D01*
X167294605Y-113223907D01*
X167290118Y-113225215D01*
X167290117Y-113225215D01*
X167258817Y-113234338D01*
X167037683Y-113298792D01*
X167033430Y-113300752D01*
X167033429Y-113300753D01*
X166981512Y-113324687D01*
X166794652Y-113410831D01*
X166790743Y-113413394D01*
X166574764Y-113554996D01*
X166574759Y-113555000D01*
X166570851Y-113557562D01*
X166567359Y-113560679D01*
X166484734Y-113634424D01*
X166420593Y-113664862D01*
X166350178Y-113655790D01*
X166314500Y-113632196D01*
X166269670Y-113590024D01*
X166269667Y-113590022D01*
X166266269Y-113586825D01*
X166046385Y-113434286D01*
X166042194Y-113432219D01*
X165810559Y-113317989D01*
X165810556Y-113317988D01*
X165806371Y-113315924D01*
X165551497Y-113234338D01*
X165406134Y-113210665D01*
X165291976Y-113192073D01*
X165291975Y-113192073D01*
X165287364Y-113191322D01*
X165153569Y-113189570D01*
X165024451Y-113187880D01*
X165024448Y-113187880D01*
X165019774Y-113187819D01*
X164754605Y-113223907D01*
X164750118Y-113225215D01*
X164750117Y-113225215D01*
X164718817Y-113234338D01*
X164497683Y-113298792D01*
X164493430Y-113300752D01*
X164493429Y-113300753D01*
X164441512Y-113324687D01*
X164254652Y-113410831D01*
X164250743Y-113413394D01*
X164034764Y-113554996D01*
X164034759Y-113555000D01*
X164030851Y-113557562D01*
X164027359Y-113560679D01*
X163944734Y-113634424D01*
X163880593Y-113664862D01*
X163810178Y-113655790D01*
X163774500Y-113632196D01*
X163729670Y-113590024D01*
X163729667Y-113590022D01*
X163726269Y-113586825D01*
X163506385Y-113434286D01*
X163502194Y-113432219D01*
X163270559Y-113317989D01*
X163270556Y-113317988D01*
X163266371Y-113315924D01*
X163011497Y-113234338D01*
X162866134Y-113210665D01*
X162751976Y-113192073D01*
X162751975Y-113192073D01*
X162747364Y-113191322D01*
X162613569Y-113189570D01*
X162484451Y-113187880D01*
X162484448Y-113187880D01*
X162479774Y-113187819D01*
X162214605Y-113223907D01*
X162210118Y-113225215D01*
X162210117Y-113225215D01*
X162178817Y-113234338D01*
X161957683Y-113298792D01*
X161953430Y-113300752D01*
X161953429Y-113300753D01*
X161901512Y-113324687D01*
X161714652Y-113410831D01*
X161710743Y-113413394D01*
X161494764Y-113554996D01*
X161494759Y-113555000D01*
X161490851Y-113557562D01*
X161487359Y-113560679D01*
X161404734Y-113634424D01*
X161340593Y-113664862D01*
X161270178Y-113655790D01*
X161234500Y-113632196D01*
X161189670Y-113590024D01*
X161189667Y-113590022D01*
X161186269Y-113586825D01*
X160966385Y-113434286D01*
X160962194Y-113432219D01*
X160730559Y-113317989D01*
X160730556Y-113317988D01*
X160726371Y-113315924D01*
X160471497Y-113234338D01*
X160326134Y-113210665D01*
X160211976Y-113192073D01*
X160211975Y-113192073D01*
X160207364Y-113191322D01*
X160073569Y-113189570D01*
X159944451Y-113187880D01*
X159944448Y-113187880D01*
X159939774Y-113187819D01*
X159674605Y-113223907D01*
X159670118Y-113225215D01*
X159670117Y-113225215D01*
X159638817Y-113234338D01*
X159417683Y-113298792D01*
X159413430Y-113300752D01*
X159413429Y-113300753D01*
X159361512Y-113324687D01*
X159174652Y-113410831D01*
X159170743Y-113413394D01*
X158954764Y-113554996D01*
X158954759Y-113555000D01*
X158950851Y-113557562D01*
X158947359Y-113560679D01*
X158864734Y-113634424D01*
X158800593Y-113664862D01*
X158730178Y-113655790D01*
X158694500Y-113632196D01*
X158649670Y-113590024D01*
X158649667Y-113590022D01*
X158646269Y-113586825D01*
X158426385Y-113434286D01*
X158422194Y-113432219D01*
X158190559Y-113317989D01*
X158190556Y-113317988D01*
X158186371Y-113315924D01*
X157931497Y-113234338D01*
X157786134Y-113210665D01*
X157671976Y-113192073D01*
X157671975Y-113192073D01*
X157667364Y-113191322D01*
X157533569Y-113189570D01*
X157404451Y-113187880D01*
X157404448Y-113187880D01*
X157399774Y-113187819D01*
X157134605Y-113223907D01*
X157130118Y-113225215D01*
X157130117Y-113225215D01*
X157098817Y-113234338D01*
X156877683Y-113298792D01*
X156873430Y-113300752D01*
X156873429Y-113300753D01*
X156821512Y-113324687D01*
X156634652Y-113410831D01*
X156630743Y-113413394D01*
X156414764Y-113554996D01*
X156414759Y-113555000D01*
X156410851Y-113557562D01*
X156407359Y-113560679D01*
X156324734Y-113634424D01*
X156260593Y-113664862D01*
X156190178Y-113655790D01*
X156154500Y-113632196D01*
X156109670Y-113590024D01*
X156109667Y-113590022D01*
X156106269Y-113586825D01*
X155886385Y-113434286D01*
X155882194Y-113432219D01*
X155650559Y-113317989D01*
X155650556Y-113317988D01*
X155646371Y-113315924D01*
X155391497Y-113234338D01*
X155246134Y-113210665D01*
X155131976Y-113192073D01*
X155131975Y-113192073D01*
X155127364Y-113191322D01*
X154993569Y-113189570D01*
X154864451Y-113187880D01*
X154864448Y-113187880D01*
X154859774Y-113187819D01*
X154594605Y-113223907D01*
X154590118Y-113225215D01*
X154590117Y-113225215D01*
X154558817Y-113234338D01*
X154337683Y-113298792D01*
X154333430Y-113300752D01*
X154333429Y-113300753D01*
X154281512Y-113324687D01*
X154094652Y-113410831D01*
X154090743Y-113413394D01*
X153874764Y-113554996D01*
X153874759Y-113555000D01*
X153870851Y-113557562D01*
X153867359Y-113560679D01*
X153784734Y-113634424D01*
X153720593Y-113664862D01*
X153650178Y-113655790D01*
X153614500Y-113632196D01*
X153569670Y-113590024D01*
X153569667Y-113590022D01*
X153566269Y-113586825D01*
X153346385Y-113434286D01*
X153342194Y-113432219D01*
X153110559Y-113317989D01*
X153110556Y-113317988D01*
X153106371Y-113315924D01*
X152851497Y-113234338D01*
X152706134Y-113210665D01*
X152591976Y-113192073D01*
X152591975Y-113192073D01*
X152587364Y-113191322D01*
X152453569Y-113189570D01*
X152324451Y-113187880D01*
X152324448Y-113187880D01*
X152319774Y-113187819D01*
X152054605Y-113223907D01*
X152050118Y-113225215D01*
X152050117Y-113225215D01*
X152018817Y-113234338D01*
X151797683Y-113298792D01*
X151793430Y-113300752D01*
X151793429Y-113300753D01*
X151741512Y-113324687D01*
X151554652Y-113410831D01*
X151550743Y-113413394D01*
X151334764Y-113554996D01*
X151334759Y-113555000D01*
X151330851Y-113557562D01*
X151327359Y-113560679D01*
X151244734Y-113634424D01*
X151180593Y-113664862D01*
X151110178Y-113655790D01*
X151074500Y-113632196D01*
X151029670Y-113590024D01*
X151029667Y-113590022D01*
X151026269Y-113586825D01*
X150806385Y-113434286D01*
X150802194Y-113432219D01*
X150570559Y-113317989D01*
X150570556Y-113317988D01*
X150566371Y-113315924D01*
X150311497Y-113234338D01*
X150166134Y-113210665D01*
X150051976Y-113192073D01*
X150051975Y-113192073D01*
X150047364Y-113191322D01*
X149913569Y-113189570D01*
X149784451Y-113187880D01*
X149784448Y-113187880D01*
X149779774Y-113187819D01*
X149514605Y-113223907D01*
X149510118Y-113225215D01*
X149510117Y-113225215D01*
X149478817Y-113234338D01*
X149257683Y-113298792D01*
X149253430Y-113300752D01*
X149253429Y-113300753D01*
X149201512Y-113324687D01*
X149014652Y-113410831D01*
X149010743Y-113413394D01*
X148794764Y-113554996D01*
X148794759Y-113555000D01*
X148790851Y-113557562D01*
X148787359Y-113560679D01*
X148704734Y-113634424D01*
X148640593Y-113664862D01*
X148570178Y-113655790D01*
X148534500Y-113632196D01*
X148489670Y-113590024D01*
X148489667Y-113590022D01*
X148486269Y-113586825D01*
X148266385Y-113434286D01*
X148262194Y-113432219D01*
X148030559Y-113317989D01*
X148030556Y-113317988D01*
X148026371Y-113315924D01*
X147771497Y-113234338D01*
X147626134Y-113210665D01*
X147511976Y-113192073D01*
X147511975Y-113192073D01*
X147507364Y-113191322D01*
X147373569Y-113189570D01*
X147244451Y-113187880D01*
X147244448Y-113187880D01*
X147239774Y-113187819D01*
X146974605Y-113223907D01*
X146970118Y-113225215D01*
X146970117Y-113225215D01*
X146938817Y-113234338D01*
X146717683Y-113298792D01*
X146713430Y-113300752D01*
X146713429Y-113300753D01*
X146661512Y-113324687D01*
X146474652Y-113410831D01*
X146470743Y-113413394D01*
X146254764Y-113554996D01*
X146254759Y-113555000D01*
X146250851Y-113557562D01*
X146247359Y-113560679D01*
X146164734Y-113634424D01*
X146100593Y-113664862D01*
X146030178Y-113655790D01*
X145994500Y-113632196D01*
X145949670Y-113590024D01*
X145949667Y-113590022D01*
X145946269Y-113586825D01*
X145726385Y-113434286D01*
X145722194Y-113432219D01*
X145490559Y-113317989D01*
X145490556Y-113317988D01*
X145486371Y-113315924D01*
X145231497Y-113234338D01*
X145086134Y-113210665D01*
X144971976Y-113192073D01*
X144971975Y-113192073D01*
X144967364Y-113191322D01*
X144833569Y-113189570D01*
X144704451Y-113187880D01*
X144704448Y-113187880D01*
X144699774Y-113187819D01*
X144434605Y-113223907D01*
X144430118Y-113225215D01*
X144430117Y-113225215D01*
X144398817Y-113234338D01*
X144177683Y-113298792D01*
X144173430Y-113300752D01*
X144173429Y-113300753D01*
X144121512Y-113324687D01*
X143934652Y-113410831D01*
X143930743Y-113413394D01*
X143714764Y-113554996D01*
X143714759Y-113555000D01*
X143710851Y-113557562D01*
X143707359Y-113560679D01*
X143624734Y-113634424D01*
X143560593Y-113664862D01*
X143490178Y-113655790D01*
X143454500Y-113632196D01*
X143409670Y-113590024D01*
X143409667Y-113590022D01*
X143406269Y-113586825D01*
X143186385Y-113434286D01*
X143182194Y-113432219D01*
X142950559Y-113317989D01*
X142950556Y-113317988D01*
X142946371Y-113315924D01*
X142691497Y-113234338D01*
X142546134Y-113210665D01*
X142431976Y-113192073D01*
X142431975Y-113192073D01*
X142427364Y-113191322D01*
X142293569Y-113189570D01*
X142164451Y-113187880D01*
X142164448Y-113187880D01*
X142159774Y-113187819D01*
X141894605Y-113223907D01*
X141890118Y-113225215D01*
X141890117Y-113225215D01*
X141858817Y-113234338D01*
X141637683Y-113298792D01*
X141633430Y-113300752D01*
X141633429Y-113300753D01*
X141581512Y-113324687D01*
X141394652Y-113410831D01*
X141390743Y-113413394D01*
X141174764Y-113554996D01*
X141174759Y-113555000D01*
X141170851Y-113557562D01*
X141167359Y-113560679D01*
X141084734Y-113634424D01*
X141020593Y-113664862D01*
X140950178Y-113655790D01*
X140914500Y-113632196D01*
X140869670Y-113590024D01*
X140869667Y-113590022D01*
X140866269Y-113586825D01*
X140646385Y-113434286D01*
X140642194Y-113432219D01*
X140410559Y-113317989D01*
X140410556Y-113317988D01*
X140406371Y-113315924D01*
X140151497Y-113234338D01*
X140006134Y-113210665D01*
X139891976Y-113192073D01*
X139891975Y-113192073D01*
X139887364Y-113191322D01*
X139753569Y-113189570D01*
X139624451Y-113187880D01*
X139624448Y-113187880D01*
X139619774Y-113187819D01*
X139354605Y-113223907D01*
X139350118Y-113225215D01*
X139350117Y-113225215D01*
X139318817Y-113234338D01*
X139097683Y-113298792D01*
X139093430Y-113300752D01*
X139093429Y-113300753D01*
X139041512Y-113324687D01*
X138854652Y-113410831D01*
X138850743Y-113413394D01*
X138634764Y-113554996D01*
X138634759Y-113555000D01*
X138630851Y-113557562D01*
X138627359Y-113560679D01*
X138544734Y-113634424D01*
X138480593Y-113664862D01*
X138410178Y-113655790D01*
X138374500Y-113632196D01*
X138329670Y-113590024D01*
X138329667Y-113590022D01*
X138326269Y-113586825D01*
X138106385Y-113434286D01*
X138102194Y-113432219D01*
X137870559Y-113317989D01*
X137870556Y-113317988D01*
X137866371Y-113315924D01*
X137611497Y-113234338D01*
X137466134Y-113210665D01*
X137351976Y-113192073D01*
X137351975Y-113192073D01*
X137347364Y-113191322D01*
X137213569Y-113189570D01*
X137084451Y-113187880D01*
X137084448Y-113187880D01*
X137079774Y-113187819D01*
X136814605Y-113223907D01*
X136810118Y-113225215D01*
X136810117Y-113225215D01*
X136778817Y-113234338D01*
X136557683Y-113298792D01*
X136553430Y-113300752D01*
X136553429Y-113300753D01*
X136501512Y-113324687D01*
X136314652Y-113410831D01*
X136310743Y-113413394D01*
X136094764Y-113554996D01*
X136094759Y-113555000D01*
X136090851Y-113557562D01*
X136087359Y-113560679D01*
X136004734Y-113634424D01*
X135940593Y-113664862D01*
X135870178Y-113655790D01*
X135834500Y-113632196D01*
X135789670Y-113590024D01*
X135789667Y-113590022D01*
X135786269Y-113586825D01*
X135566385Y-113434286D01*
X135562194Y-113432219D01*
X135330559Y-113317989D01*
X135330556Y-113317988D01*
X135326371Y-113315924D01*
X135071497Y-113234338D01*
X134926134Y-113210665D01*
X134811976Y-113192073D01*
X134811975Y-113192073D01*
X134807364Y-113191322D01*
X134673569Y-113189570D01*
X134544451Y-113187880D01*
X134544448Y-113187880D01*
X134539774Y-113187819D01*
X134274605Y-113223907D01*
X134270118Y-113225215D01*
X134270117Y-113225215D01*
X134238817Y-113234338D01*
X134017683Y-113298792D01*
X134013430Y-113300752D01*
X134013429Y-113300753D01*
X133961512Y-113324687D01*
X133774652Y-113410831D01*
X133770743Y-113413394D01*
X133554764Y-113554996D01*
X133554759Y-113555000D01*
X133550851Y-113557562D01*
X133547359Y-113560679D01*
X133464734Y-113634424D01*
X133400593Y-113664862D01*
X133330178Y-113655790D01*
X133294500Y-113632196D01*
X133249670Y-113590024D01*
X133249667Y-113590022D01*
X133246269Y-113586825D01*
X133026385Y-113434286D01*
X133022194Y-113432219D01*
X132790559Y-113317989D01*
X132790556Y-113317988D01*
X132786371Y-113315924D01*
X132531497Y-113234338D01*
X132386134Y-113210665D01*
X132271976Y-113192073D01*
X132271975Y-113192073D01*
X132267364Y-113191322D01*
X132133569Y-113189570D01*
X132004451Y-113187880D01*
X132004448Y-113187880D01*
X131999774Y-113187819D01*
X131734605Y-113223907D01*
X131730118Y-113225215D01*
X131730117Y-113225215D01*
X131698817Y-113234338D01*
X131477683Y-113298792D01*
X131473430Y-113300752D01*
X131473429Y-113300753D01*
X131421512Y-113324687D01*
X131234652Y-113410831D01*
X131230743Y-113413394D01*
X131014764Y-113554996D01*
X131014759Y-113555000D01*
X131010851Y-113557562D01*
X131007359Y-113560679D01*
X130924734Y-113634424D01*
X130860593Y-113664862D01*
X130790178Y-113655790D01*
X130754500Y-113632196D01*
X130709670Y-113590024D01*
X130709667Y-113590022D01*
X130706269Y-113586825D01*
X130486385Y-113434286D01*
X130482194Y-113432219D01*
X130250559Y-113317989D01*
X130250556Y-113317988D01*
X130246371Y-113315924D01*
X129991497Y-113234338D01*
X129846134Y-113210665D01*
X129731976Y-113192073D01*
X129731975Y-113192073D01*
X129727364Y-113191322D01*
X129593569Y-113189570D01*
X129464451Y-113187880D01*
X129464448Y-113187880D01*
X129459774Y-113187819D01*
X129194605Y-113223907D01*
X129190118Y-113225215D01*
X129190117Y-113225215D01*
X129158817Y-113234338D01*
X128937683Y-113298792D01*
X128933430Y-113300752D01*
X128933429Y-113300753D01*
X128881512Y-113324687D01*
X128694652Y-113410831D01*
X128690743Y-113413394D01*
X128474764Y-113554996D01*
X128474759Y-113555000D01*
X128470851Y-113557562D01*
X128467359Y-113560679D01*
X128384734Y-113634424D01*
X128320593Y-113664862D01*
X128250178Y-113655790D01*
X128214500Y-113632196D01*
X128169670Y-113590024D01*
X128169667Y-113590022D01*
X128166269Y-113586825D01*
X127946385Y-113434286D01*
X127942194Y-113432219D01*
X127710559Y-113317989D01*
X127710556Y-113317988D01*
X127706371Y-113315924D01*
X127451497Y-113234338D01*
X127306134Y-113210665D01*
X127191976Y-113192073D01*
X127191975Y-113192073D01*
X127187364Y-113191322D01*
X127053569Y-113189570D01*
X126924451Y-113187880D01*
X126924448Y-113187880D01*
X126919774Y-113187819D01*
X126654605Y-113223907D01*
X126650118Y-113225215D01*
X126650117Y-113225215D01*
X126618817Y-113234338D01*
X126397683Y-113298792D01*
X126393430Y-113300752D01*
X126393429Y-113300753D01*
X126341512Y-113324687D01*
X126154652Y-113410831D01*
X126150743Y-113413394D01*
X125934764Y-113554996D01*
X125934759Y-113555000D01*
X125930851Y-113557562D01*
X125927359Y-113560679D01*
X125844734Y-113634424D01*
X125780593Y-113664862D01*
X125710178Y-113655790D01*
X125674500Y-113632196D01*
X125629670Y-113590024D01*
X125629667Y-113590022D01*
X125626269Y-113586825D01*
X125406385Y-113434286D01*
X125402194Y-113432219D01*
X125170559Y-113317989D01*
X125170556Y-113317988D01*
X125166371Y-113315924D01*
X124911497Y-113234338D01*
X124766134Y-113210665D01*
X124651976Y-113192073D01*
X124651975Y-113192073D01*
X124647364Y-113191322D01*
X124513569Y-113189570D01*
X124384451Y-113187880D01*
X124384448Y-113187880D01*
X124379774Y-113187819D01*
X124114605Y-113223907D01*
X124110118Y-113225215D01*
X124110117Y-113225215D01*
X124078817Y-113234338D01*
X123857683Y-113298792D01*
X123853430Y-113300752D01*
X123853429Y-113300753D01*
X123801512Y-113324687D01*
X123614652Y-113410831D01*
X123610743Y-113413394D01*
X123394764Y-113554996D01*
X123394759Y-113555000D01*
X123390851Y-113557562D01*
X123387359Y-113560679D01*
X123304734Y-113634424D01*
X123240593Y-113664862D01*
X123170178Y-113655790D01*
X123134500Y-113632196D01*
X123089670Y-113590024D01*
X123089667Y-113590022D01*
X123086269Y-113586825D01*
X122866385Y-113434286D01*
X122862194Y-113432219D01*
X122630559Y-113317989D01*
X122630556Y-113317988D01*
X122626371Y-113315924D01*
X122371497Y-113234338D01*
X122226134Y-113210665D01*
X122111976Y-113192073D01*
X122111975Y-113192073D01*
X122107364Y-113191322D01*
X121973569Y-113189570D01*
X121844451Y-113187880D01*
X121844448Y-113187880D01*
X121839774Y-113187819D01*
X121574605Y-113223907D01*
X121570118Y-113225215D01*
X121570117Y-113225215D01*
X121538817Y-113234338D01*
X121317683Y-113298792D01*
X121313430Y-113300752D01*
X121313429Y-113300753D01*
X121261512Y-113324687D01*
X121074652Y-113410831D01*
X121070743Y-113413394D01*
X120854764Y-113554996D01*
X120854759Y-113555000D01*
X120850851Y-113557562D01*
X120847359Y-113560679D01*
X120764734Y-113634424D01*
X120700593Y-113664862D01*
X120630178Y-113655790D01*
X120594500Y-113632196D01*
X120549670Y-113590024D01*
X120549667Y-113590022D01*
X120546269Y-113586825D01*
X120326385Y-113434286D01*
X120322194Y-113432219D01*
X120090559Y-113317989D01*
X120090556Y-113317988D01*
X120086371Y-113315924D01*
X119831497Y-113234338D01*
X119686134Y-113210665D01*
X119571976Y-113192073D01*
X119571975Y-113192073D01*
X119567364Y-113191322D01*
X119433569Y-113189570D01*
X119304451Y-113187880D01*
X119304448Y-113187880D01*
X119299774Y-113187819D01*
X119034605Y-113223907D01*
X119030118Y-113225215D01*
X119030117Y-113225215D01*
X118998817Y-113234338D01*
X118777683Y-113298792D01*
X118773430Y-113300752D01*
X118773429Y-113300753D01*
X118721512Y-113324687D01*
X118534652Y-113410831D01*
X118530743Y-113413394D01*
X118314764Y-113554996D01*
X118314759Y-113555000D01*
X118310851Y-113557562D01*
X118227231Y-113632196D01*
X118190632Y-113664862D01*
X118111197Y-113735760D01*
X117940075Y-113941512D01*
X117801244Y-114170298D01*
X117697755Y-114417091D01*
X117696604Y-114421623D01*
X117696603Y-114421626D01*
X117633033Y-114671933D01*
X117631881Y-114676470D01*
X117605070Y-114942736D01*
X111877754Y-114942736D01*
X112151154Y-113857857D01*
X112152226Y-113853882D01*
X112485775Y-112692002D01*
X112486976Y-112688062D01*
X112858329Y-111537683D01*
X112859658Y-111533785D01*
X113268411Y-110396156D01*
X113269867Y-110392303D01*
X113715582Y-109268646D01*
X113717150Y-109264873D01*
X114199358Y-108156372D01*
X114201062Y-108152623D01*
X114719242Y-107060473D01*
X114721068Y-107056781D01*
X114985688Y-106543109D01*
X115274676Y-105982134D01*
X115276613Y-105978521D01*
X115865029Y-104922578D01*
X115867092Y-104919014D01*
X116489706Y-103882865D01*
X116491885Y-103879369D01*
X117148042Y-102864107D01*
X117150334Y-102860685D01*
X117839325Y-101867409D01*
X117841728Y-101864064D01*
X118562787Y-100893874D01*
X118565297Y-100890609D01*
X119317712Y-99944466D01*
X119320328Y-99941285D01*
X120103242Y-99020264D01*
X120105961Y-99017169D01*
X120918580Y-98122206D01*
X120921398Y-98119203D01*
X121762816Y-97251295D01*
X121765731Y-97248385D01*
X122635067Y-96408442D01*
X122638075Y-96405629D01*
X123089743Y-95996915D01*
X123534436Y-95594513D01*
X123537498Y-95591833D01*
X124459849Y-94810482D01*
X124463034Y-94807871D01*
X125410469Y-94057052D01*
X125413739Y-94054547D01*
X126385156Y-93335134D01*
X126388505Y-93332737D01*
X127382949Y-92645434D01*
X127386375Y-92643148D01*
X127690863Y-92447092D01*
X128402758Y-91988710D01*
X128406213Y-91986565D01*
X128473405Y-91946345D01*
X143273573Y-91946345D01*
X143307811Y-92371883D01*
X143380476Y-92792567D01*
X143490969Y-93204933D01*
X143491954Y-93207610D01*
X143615041Y-93542148D01*
X143638382Y-93605588D01*
X143639607Y-93608168D01*
X143639610Y-93608175D01*
X143820271Y-93988645D01*
X143821500Y-93991233D01*
X144038816Y-94358695D01*
X144288542Y-94704949D01*
X144568622Y-95027144D01*
X144876751Y-95322629D01*
X144878969Y-95324399D01*
X144878974Y-95324404D01*
X145163567Y-95551591D01*
X145210392Y-95588971D01*
X145212755Y-95590529D01*
X145212759Y-95590532D01*
X145216737Y-95593155D01*
X145566800Y-95823979D01*
X145943039Y-96025717D01*
X146336015Y-96192525D01*
X146338724Y-96193395D01*
X146338730Y-96193397D01*
X146739765Y-96322155D01*
X146739769Y-96322156D01*
X146742491Y-96323030D01*
X146860074Y-96349313D01*
X147156329Y-96415535D01*
X147156340Y-96415537D01*
X147159123Y-96416159D01*
X147582480Y-96471143D01*
X148009078Y-96487531D01*
X148011940Y-96487381D01*
X148011941Y-96487381D01*
X148432550Y-96465338D01*
X148432557Y-96465337D01*
X148435406Y-96465188D01*
X148438229Y-96464781D01*
X148438231Y-96464781D01*
X148855133Y-96404705D01*
X148855140Y-96404704D01*
X148857955Y-96404298D01*
X149273245Y-96305362D01*
X149275943Y-96304454D01*
X149275950Y-96304452D01*
X149675148Y-96170107D01*
X149675154Y-96170105D01*
X149677860Y-96169194D01*
X150068468Y-95996915D01*
X150441855Y-95789944D01*
X150794946Y-95549983D01*
X151124836Y-95279009D01*
X151428809Y-94979250D01*
X151658787Y-94707109D01*
X151702518Y-94655361D01*
X151702523Y-94655355D01*
X151704364Y-94653176D01*
X151949231Y-94303469D01*
X152161395Y-93933009D01*
X152312530Y-93602903D01*
X152337922Y-93547441D01*
X152339111Y-93544844D01*
X152340056Y-93542159D01*
X152340061Y-93542148D01*
X152479964Y-93144870D01*
X152480915Y-93142170D01*
X152585640Y-92728301D01*
X152652424Y-92306644D01*
X152673614Y-91987608D01*
X152680601Y-91882420D01*
X152680601Y-91882412D01*
X152680717Y-91880670D01*
X152681749Y-91782125D01*
X152662383Y-91355651D01*
X152604444Y-90932688D01*
X152568056Y-90775071D01*
X152509054Y-90519506D01*
X152509053Y-90519504D01*
X152508410Y-90516717D01*
X152375070Y-90111162D01*
X152373939Y-90108548D01*
X152373935Y-90108538D01*
X152290296Y-89915261D01*
X152205522Y-89719360D01*
X152079954Y-89489052D01*
X152002532Y-89347050D01*
X152002528Y-89347043D01*
X152001162Y-89344538D01*
X151763673Y-88989780D01*
X151495008Y-88658006D01*
X151308732Y-88466454D01*
X151199369Y-88353994D01*
X151199365Y-88353990D01*
X151197379Y-88351948D01*
X151195221Y-88350098D01*
X151195211Y-88350089D01*
X150875410Y-88075987D01*
X150875405Y-88075983D01*
X150873236Y-88074124D01*
X150870905Y-88072467D01*
X150870898Y-88072462D01*
X150527583Y-87828481D01*
X150527581Y-87828480D01*
X150525247Y-87826821D01*
X150522778Y-87825384D01*
X150158733Y-87613504D01*
X150158726Y-87613500D01*
X150156277Y-87612075D01*
X149912033Y-87498182D01*
X149771959Y-87432864D01*
X149771949Y-87432860D01*
X149769363Y-87431654D01*
X149600956Y-87371024D01*
X149370378Y-87288011D01*
X149370369Y-87288008D01*
X149367688Y-87287043D01*
X149094229Y-87215812D01*
X148957330Y-87180152D01*
X148957324Y-87180151D01*
X148954561Y-87179431D01*
X148533380Y-87109705D01*
X148530537Y-87109496D01*
X148530535Y-87109496D01*
X148110460Y-87078648D01*
X148107614Y-87078439D01*
X147930025Y-87081539D01*
X147683617Y-87085839D01*
X147683612Y-87085839D01*
X147680766Y-87085889D01*
X147677933Y-87086197D01*
X147677929Y-87086197D01*
X147406677Y-87115665D01*
X147256350Y-87131996D01*
X146837859Y-87216378D01*
X146835126Y-87217193D01*
X146835121Y-87217194D01*
X146600818Y-87287043D01*
X146428739Y-87338342D01*
X146426078Y-87339406D01*
X146426076Y-87339407D01*
X146192417Y-87432864D01*
X146032356Y-87496884D01*
X146029809Y-87498182D01*
X145654517Y-87689402D01*
X145654512Y-87689405D01*
X145651974Y-87690698D01*
X145649556Y-87692221D01*
X145649552Y-87692223D01*
X145471348Y-87804444D01*
X145290723Y-87918190D01*
X144951577Y-88177487D01*
X144637328Y-88466454D01*
X144350562Y-88782713D01*
X144093639Y-89123661D01*
X143868675Y-89486491D01*
X143677521Y-89868217D01*
X143676480Y-89870873D01*
X143676477Y-89870880D01*
X143538733Y-90222362D01*
X143521750Y-90265697D01*
X143520958Y-90268424D01*
X143520954Y-90268435D01*
X143412015Y-90643406D01*
X143402645Y-90675659D01*
X143321186Y-91094728D01*
X143278044Y-91519456D01*
X143273573Y-91946345D01*
X128473405Y-91946345D01*
X129181775Y-91522326D01*
X129443455Y-91365689D01*
X129447023Y-91363632D01*
X130503962Y-90777011D01*
X130507596Y-90775071D01*
X131583176Y-90223291D01*
X131586845Y-90221484D01*
X132679912Y-89705142D01*
X132683589Y-89703478D01*
X133518061Y-89342159D01*
X133792915Y-89223150D01*
X133796721Y-89221575D01*
X134921149Y-88777762D01*
X134925004Y-88776313D01*
X135256037Y-88658006D01*
X136063337Y-88369488D01*
X136067179Y-88368185D01*
X137218231Y-87998773D01*
X137222168Y-87997580D01*
X138384648Y-87665994D01*
X138388587Y-87664939D01*
X138817194Y-87557700D01*
X139561294Y-87371523D01*
X139565305Y-87370589D01*
X140453529Y-87178964D01*
X140746947Y-87115662D01*
X140750961Y-87114865D01*
X141940343Y-86898689D01*
X141944390Y-86898021D01*
X143140172Y-86720838D01*
X143144240Y-86720303D01*
X144345195Y-86582295D01*
X144349270Y-86581894D01*
X145554064Y-86483215D01*
X145558129Y-86482947D01*
X146765576Y-86423693D01*
X146769691Y-86423559D01*
X146826734Y-86422627D01*
X147978341Y-86403803D01*
X147982459Y-86403803D01*
X149134066Y-86422627D01*
G37*
%TD.AperFunction*%
%TD*%
M02*
