%TF.GenerationSoftware,KiCad,Pcbnew,7.0.10-7.0.10~ubuntu22.04.1*%
%TF.CreationDate,2025-01-30T16:28:09-05:00*%
%TF.ProjectId,board_one_teensy_22,626f6172-645f-46f6-9e65-5f7465656e73,rev?*%
%TF.SameCoordinates,Original*%
%TF.FileFunction,Soldermask,Bot*%
%TF.FilePolarity,Negative*%
%FSLAX46Y46*%
G04 Gerber Fmt 4.6, Leading zero omitted, Abs format (unit mm)*
G04 Created by KiCad (PCBNEW 7.0.10-7.0.10~ubuntu22.04.1) date 2025-01-30 16:28:09*
%MOMM*%
%LPD*%
G01*
G04 APERTURE LIST*
%ADD10C,3.600000*%
%ADD11C,5.600000*%
%ADD12R,1.780000X1.600000*%
%ADD13C,1.600000*%
%ADD14R,1.700000X1.700000*%
%ADD15O,1.700000X1.700000*%
%ADD16C,2.000000*%
%ADD17C,1.665000*%
%ADD18C,1.734000*%
%ADD19C,2.082800*%
G04 APERTURE END LIST*
D10*
%TO.C,H2*%
X156700000Y-53300000D03*
D11*
X156700000Y-53300000D03*
%TD*%
D12*
%TO.C,U3*%
X135190000Y-117348000D03*
D13*
X132650000Y-117348000D03*
X130110000Y-117348000D03*
X127570000Y-117348000D03*
X125030000Y-117348000D03*
X122490000Y-117348000D03*
X119950000Y-117348000D03*
X117410000Y-117348000D03*
%TD*%
D14*
%TO.C,Pyro1*%
X111300000Y-120580000D03*
D15*
X111300000Y-123120000D03*
X111300000Y-125660000D03*
X111300000Y-128200000D03*
X111300000Y-130740000D03*
%TD*%
D10*
%TO.C,H3*%
X118600000Y-135800000D03*
D11*
X118600000Y-135800000D03*
%TD*%
D10*
%TO.C,H4*%
X156700000Y-135800000D03*
D11*
X156700000Y-135800000D03*
%TD*%
D16*
%TO.C,U6*%
X120142000Y-99648000D03*
X120142000Y-104648000D03*
%TD*%
D13*
%TO.C,U4*%
X136365000Y-79460000D03*
X136365000Y-76920000D03*
X136365000Y-74380000D03*
X136365000Y-71840000D03*
X136365000Y-69300000D03*
X136365000Y-66760000D03*
X136365000Y-64220000D03*
X136365000Y-61680000D03*
X136365000Y-59140000D03*
X110965000Y-69300000D03*
X110965000Y-71840000D03*
X110965000Y-74380000D03*
X110965000Y-76920000D03*
X110965000Y-79460000D03*
%TD*%
D17*
%TO.C,J3*%
X142240000Y-129286000D03*
X144780000Y-129286000D03*
X147320000Y-129286000D03*
X149860000Y-129286000D03*
X152400000Y-129286000D03*
X154940000Y-129286000D03*
X157480000Y-129286000D03*
X160020000Y-129286000D03*
X162560000Y-129286000D03*
X157480000Y-116586000D03*
X154940000Y-116586000D03*
X152400000Y-116586000D03*
X149860000Y-116586000D03*
X147320000Y-116586000D03*
%TD*%
D18*
%TO.C,U1*%
X161060000Y-96800000D03*
X158520000Y-96800000D03*
X155980000Y-96800000D03*
X153440000Y-96800000D03*
X130580000Y-101880000D03*
X158520000Y-112040000D03*
X150900000Y-96800000D03*
X148360000Y-96800000D03*
X145820000Y-96800000D03*
X143280000Y-96800000D03*
X140740000Y-96800000D03*
X138200000Y-96800000D03*
X135660000Y-96800000D03*
X133120000Y-96800000D03*
X130580000Y-96800000D03*
X130580000Y-112040000D03*
X133120000Y-112040000D03*
X135660000Y-112040000D03*
X138200000Y-112040000D03*
X140740000Y-112040000D03*
X143280000Y-112040000D03*
X145820000Y-112040000D03*
X148360000Y-112040000D03*
X150900000Y-112040000D03*
X153440000Y-112040000D03*
X155980000Y-112040000D03*
X163600000Y-96800000D03*
X130580000Y-104420000D03*
X161060000Y-112040000D03*
X130580000Y-109500000D03*
X130580000Y-106960000D03*
X130580000Y-99340000D03*
X163600000Y-112040000D03*
%TD*%
D19*
%TO.C,U2*%
X163293500Y-66770000D03*
X163293500Y-69310000D03*
X163293500Y-71850000D03*
X163293500Y-74390000D03*
X163293500Y-76930000D03*
X140433500Y-66770000D03*
X140433500Y-69310000D03*
X140433500Y-71850000D03*
X140433500Y-74390000D03*
X140433500Y-76930000D03*
%TD*%
D14*
%TO.C,Power1*%
X111290000Y-100360000D03*
D15*
X111290000Y-102900000D03*
X111290000Y-105440000D03*
X111290000Y-107980000D03*
%TD*%
D10*
%TO.C,H1*%
X118600000Y-53300000D03*
D11*
X118600000Y-53300000D03*
%TD*%
D14*
%TO.C,Stepper1*%
X111300000Y-111760000D03*
D15*
X111300000Y-114300000D03*
X111300000Y-116840000D03*
%TD*%
D16*
%TO.C,U5*%
X127762000Y-99314000D03*
X127762000Y-109514000D03*
%TD*%
M02*
