%TF.GenerationSoftware,KiCad,Pcbnew,7.0.10-7.0.10~ubuntu22.04.1*%
%TF.CreationDate,2025-01-30T16:28:08-05:00*%
%TF.ProjectId,board_one_teensy_22,626f6172-645f-46f6-9e65-5f7465656e73,rev?*%
%TF.SameCoordinates,Original*%
%TF.FileFunction,Legend,Top*%
%TF.FilePolarity,Positive*%
%FSLAX46Y46*%
G04 Gerber Fmt 4.6, Leading zero omitted, Abs format (unit mm)*
G04 Created by KiCad (PCBNEW 7.0.10-7.0.10~ubuntu22.04.1) date 2025-01-30 16:28:08*
%MOMM*%
%LPD*%
G01*
G04 APERTURE LIST*
%ADD10C,0.150000*%
%ADD11C,0.120000*%
%ADD12C,0.127000*%
%ADD13C,0.240000*%
%ADD14C,0.250000*%
%ADD15C,0.200000*%
%ADD16C,0.100000*%
G04 APERTURE END LIST*
D10*
X109550200Y-117728571D02*
X109597819Y-117585714D01*
X109597819Y-117585714D02*
X109597819Y-117347619D01*
X109597819Y-117347619D02*
X109550200Y-117252381D01*
X109550200Y-117252381D02*
X109502580Y-117204762D01*
X109502580Y-117204762D02*
X109407342Y-117157143D01*
X109407342Y-117157143D02*
X109312104Y-117157143D01*
X109312104Y-117157143D02*
X109216866Y-117204762D01*
X109216866Y-117204762D02*
X109169247Y-117252381D01*
X109169247Y-117252381D02*
X109121628Y-117347619D01*
X109121628Y-117347619D02*
X109074009Y-117538095D01*
X109074009Y-117538095D02*
X109026390Y-117633333D01*
X109026390Y-117633333D02*
X108978771Y-117680952D01*
X108978771Y-117680952D02*
X108883533Y-117728571D01*
X108883533Y-117728571D02*
X108788295Y-117728571D01*
X108788295Y-117728571D02*
X108693057Y-117680952D01*
X108693057Y-117680952D02*
X108645438Y-117633333D01*
X108645438Y-117633333D02*
X108597819Y-117538095D01*
X108597819Y-117538095D02*
X108597819Y-117300000D01*
X108597819Y-117300000D02*
X108645438Y-117157143D01*
X108597819Y-116871428D02*
X108597819Y-116300000D01*
X109597819Y-116585714D02*
X108597819Y-116585714D01*
X109597819Y-115204761D02*
X108597819Y-115204761D01*
X108597819Y-115204761D02*
X108597819Y-114966666D01*
X108597819Y-114966666D02*
X108645438Y-114823809D01*
X108645438Y-114823809D02*
X108740676Y-114728571D01*
X108740676Y-114728571D02*
X108835914Y-114680952D01*
X108835914Y-114680952D02*
X109026390Y-114633333D01*
X109026390Y-114633333D02*
X109169247Y-114633333D01*
X109169247Y-114633333D02*
X109359723Y-114680952D01*
X109359723Y-114680952D02*
X109454961Y-114728571D01*
X109454961Y-114728571D02*
X109550200Y-114823809D01*
X109550200Y-114823809D02*
X109597819Y-114966666D01*
X109597819Y-114966666D02*
X109597819Y-115204761D01*
X109597819Y-113633333D02*
X109121628Y-113966666D01*
X109597819Y-114204761D02*
X108597819Y-114204761D01*
X108597819Y-114204761D02*
X108597819Y-113823809D01*
X108597819Y-113823809D02*
X108645438Y-113728571D01*
X108645438Y-113728571D02*
X108693057Y-113680952D01*
X108693057Y-113680952D02*
X108788295Y-113633333D01*
X108788295Y-113633333D02*
X108931152Y-113633333D01*
X108931152Y-113633333D02*
X109026390Y-113680952D01*
X109026390Y-113680952D02*
X109074009Y-113728571D01*
X109074009Y-113728571D02*
X109121628Y-113823809D01*
X109121628Y-113823809D02*
X109121628Y-114204761D01*
X108597819Y-112442856D02*
X109407342Y-112442856D01*
X109407342Y-112442856D02*
X109502580Y-112395237D01*
X109502580Y-112395237D02*
X109550200Y-112347618D01*
X109550200Y-112347618D02*
X109597819Y-112252380D01*
X109597819Y-112252380D02*
X109597819Y-112061904D01*
X109597819Y-112061904D02*
X109550200Y-111966666D01*
X109550200Y-111966666D02*
X109502580Y-111919047D01*
X109502580Y-111919047D02*
X109407342Y-111871428D01*
X109407342Y-111871428D02*
X108597819Y-111871428D01*
X108597819Y-111490475D02*
X109597819Y-110823809D01*
X108597819Y-110823809D02*
X109597819Y-111490475D01*
X166569819Y-122615601D02*
X166569819Y-122425125D01*
X166569819Y-122425125D02*
X166522200Y-122329887D01*
X166522200Y-122329887D02*
X166474580Y-122282268D01*
X166474580Y-122282268D02*
X166331723Y-122187030D01*
X166331723Y-122187030D02*
X166141247Y-122139411D01*
X166141247Y-122139411D02*
X165760295Y-122139411D01*
X165760295Y-122139411D02*
X165665057Y-122187030D01*
X165665057Y-122187030D02*
X165617438Y-122234649D01*
X165617438Y-122234649D02*
X165569819Y-122329887D01*
X165569819Y-122329887D02*
X165569819Y-122520363D01*
X165569819Y-122520363D02*
X165617438Y-122615601D01*
X165617438Y-122615601D02*
X165665057Y-122663220D01*
X165665057Y-122663220D02*
X165760295Y-122710839D01*
X165760295Y-122710839D02*
X165998390Y-122710839D01*
X165998390Y-122710839D02*
X166093628Y-122663220D01*
X166093628Y-122663220D02*
X166141247Y-122615601D01*
X166141247Y-122615601D02*
X166188866Y-122520363D01*
X166188866Y-122520363D02*
X166188866Y-122329887D01*
X166188866Y-122329887D02*
X166141247Y-122234649D01*
X166141247Y-122234649D02*
X166093628Y-122187030D01*
X166093628Y-122187030D02*
X165998390Y-122139411D01*
X166188866Y-121710839D02*
X166188866Y-120948935D01*
X166284104Y-120520363D02*
X166284104Y-120044173D01*
X166569819Y-120615601D02*
X165569819Y-120282268D01*
X165569819Y-120282268D02*
X166569819Y-119948935D01*
X165569819Y-119710839D02*
X166569819Y-119044173D01*
X165569819Y-119044173D02*
X166569819Y-119710839D01*
X166569819Y-118663220D02*
X165569819Y-118663220D01*
X166522200Y-118234649D02*
X166569819Y-118091792D01*
X166569819Y-118091792D02*
X166569819Y-117853697D01*
X166569819Y-117853697D02*
X166522200Y-117758459D01*
X166522200Y-117758459D02*
X166474580Y-117710840D01*
X166474580Y-117710840D02*
X166379342Y-117663221D01*
X166379342Y-117663221D02*
X166284104Y-117663221D01*
X166284104Y-117663221D02*
X166188866Y-117710840D01*
X166188866Y-117710840D02*
X166141247Y-117758459D01*
X166141247Y-117758459D02*
X166093628Y-117853697D01*
X166093628Y-117853697D02*
X166046009Y-118044173D01*
X166046009Y-118044173D02*
X165998390Y-118139411D01*
X165998390Y-118139411D02*
X165950771Y-118187030D01*
X165950771Y-118187030D02*
X165855533Y-118234649D01*
X165855533Y-118234649D02*
X165760295Y-118234649D01*
X165760295Y-118234649D02*
X165665057Y-118187030D01*
X165665057Y-118187030D02*
X165617438Y-118139411D01*
X165617438Y-118139411D02*
X165569819Y-118044173D01*
X165569819Y-118044173D02*
X165569819Y-117806078D01*
X165569819Y-117806078D02*
X165617438Y-117663221D01*
X166569819Y-116472744D02*
X165569819Y-116472744D01*
X166569819Y-115996554D02*
X165569819Y-115996554D01*
X165569819Y-115996554D02*
X166284104Y-115663221D01*
X166284104Y-115663221D02*
X165569819Y-115329888D01*
X165569819Y-115329888D02*
X166569819Y-115329888D01*
X165569819Y-114853697D02*
X166379342Y-114853697D01*
X166379342Y-114853697D02*
X166474580Y-114806078D01*
X166474580Y-114806078D02*
X166522200Y-114758459D01*
X166522200Y-114758459D02*
X166569819Y-114663221D01*
X166569819Y-114663221D02*
X166569819Y-114472745D01*
X166569819Y-114472745D02*
X166522200Y-114377507D01*
X166522200Y-114377507D02*
X166474580Y-114329888D01*
X166474580Y-114329888D02*
X166379342Y-114282269D01*
X166379342Y-114282269D02*
X165569819Y-114282269D01*
X157118207Y-94823819D02*
X156784874Y-94347628D01*
X156546779Y-94823819D02*
X156546779Y-93823819D01*
X156546779Y-93823819D02*
X156927731Y-93823819D01*
X156927731Y-93823819D02*
X157022969Y-93871438D01*
X157022969Y-93871438D02*
X157070588Y-93919057D01*
X157070588Y-93919057D02*
X157118207Y-94014295D01*
X157118207Y-94014295D02*
X157118207Y-94157152D01*
X157118207Y-94157152D02*
X157070588Y-94252390D01*
X157070588Y-94252390D02*
X157022969Y-94300009D01*
X157022969Y-94300009D02*
X156927731Y-94347628D01*
X156927731Y-94347628D02*
X156546779Y-94347628D01*
X157499160Y-94538104D02*
X157975350Y-94538104D01*
X157403922Y-94823819D02*
X157737255Y-93823819D01*
X157737255Y-93823819D02*
X158070588Y-94823819D01*
X158261065Y-93823819D02*
X158594398Y-94823819D01*
X158594398Y-94823819D02*
X158927731Y-93823819D01*
X159261065Y-94300009D02*
X159594398Y-94300009D01*
X159737255Y-94823819D02*
X159261065Y-94823819D01*
X159261065Y-94823819D02*
X159261065Y-93823819D01*
X159261065Y-93823819D02*
X159737255Y-93823819D01*
X160165827Y-94823819D02*
X160165827Y-93823819D01*
X160832493Y-93823819D02*
X161022969Y-93823819D01*
X161022969Y-93823819D02*
X161118207Y-93871438D01*
X161118207Y-93871438D02*
X161213445Y-93966676D01*
X161213445Y-93966676D02*
X161261064Y-94157152D01*
X161261064Y-94157152D02*
X161261064Y-94490485D01*
X161261064Y-94490485D02*
X161213445Y-94680961D01*
X161213445Y-94680961D02*
X161118207Y-94776200D01*
X161118207Y-94776200D02*
X161022969Y-94823819D01*
X161022969Y-94823819D02*
X160832493Y-94823819D01*
X160832493Y-94823819D02*
X160737255Y-94776200D01*
X160737255Y-94776200D02*
X160642017Y-94680961D01*
X160642017Y-94680961D02*
X160594398Y-94490485D01*
X160594398Y-94490485D02*
X160594398Y-94157152D01*
X160594398Y-94157152D02*
X160642017Y-93966676D01*
X160642017Y-93966676D02*
X160737255Y-93871438D01*
X160737255Y-93871438D02*
X160832493Y-93823819D01*
X161689636Y-94823819D02*
X161689636Y-93823819D01*
X161689636Y-93823819D02*
X162261064Y-94823819D01*
X162261064Y-94823819D02*
X162261064Y-93823819D01*
X162737255Y-94823819D02*
X162737255Y-93823819D01*
X163784873Y-94728580D02*
X163737254Y-94776200D01*
X163737254Y-94776200D02*
X163594397Y-94823819D01*
X163594397Y-94823819D02*
X163499159Y-94823819D01*
X163499159Y-94823819D02*
X163356302Y-94776200D01*
X163356302Y-94776200D02*
X163261064Y-94680961D01*
X163261064Y-94680961D02*
X163213445Y-94585723D01*
X163213445Y-94585723D02*
X163165826Y-94395247D01*
X163165826Y-94395247D02*
X163165826Y-94252390D01*
X163165826Y-94252390D02*
X163213445Y-94061914D01*
X163213445Y-94061914D02*
X163261064Y-93966676D01*
X163261064Y-93966676D02*
X163356302Y-93871438D01*
X163356302Y-93871438D02*
X163499159Y-93823819D01*
X163499159Y-93823819D02*
X163594397Y-93823819D01*
X163594397Y-93823819D02*
X163737254Y-93871438D01*
X163737254Y-93871438D02*
X163784873Y-93919057D01*
X164165826Y-94776200D02*
X164308683Y-94823819D01*
X164308683Y-94823819D02*
X164546778Y-94823819D01*
X164546778Y-94823819D02*
X164642016Y-94776200D01*
X164642016Y-94776200D02*
X164689635Y-94728580D01*
X164689635Y-94728580D02*
X164737254Y-94633342D01*
X164737254Y-94633342D02*
X164737254Y-94538104D01*
X164737254Y-94538104D02*
X164689635Y-94442866D01*
X164689635Y-94442866D02*
X164642016Y-94395247D01*
X164642016Y-94395247D02*
X164546778Y-94347628D01*
X164546778Y-94347628D02*
X164356302Y-94300009D01*
X164356302Y-94300009D02*
X164261064Y-94252390D01*
X164261064Y-94252390D02*
X164213445Y-94204771D01*
X164213445Y-94204771D02*
X164165826Y-94109533D01*
X164165826Y-94109533D02*
X164165826Y-94014295D01*
X164165826Y-94014295D02*
X164213445Y-93919057D01*
X164213445Y-93919057D02*
X164261064Y-93871438D01*
X164261064Y-93871438D02*
X164356302Y-93823819D01*
X164356302Y-93823819D02*
X164594397Y-93823819D01*
X164594397Y-93823819D02*
X164737254Y-93871438D01*
X163760588Y-87467438D02*
X163665350Y-87419819D01*
X163665350Y-87419819D02*
X163522493Y-87419819D01*
X163522493Y-87419819D02*
X163379636Y-87467438D01*
X163379636Y-87467438D02*
X163284398Y-87562676D01*
X163284398Y-87562676D02*
X163236779Y-87657914D01*
X163236779Y-87657914D02*
X163189160Y-87848390D01*
X163189160Y-87848390D02*
X163189160Y-87991247D01*
X163189160Y-87991247D02*
X163236779Y-88181723D01*
X163236779Y-88181723D02*
X163284398Y-88276961D01*
X163284398Y-88276961D02*
X163379636Y-88372200D01*
X163379636Y-88372200D02*
X163522493Y-88419819D01*
X163522493Y-88419819D02*
X163617731Y-88419819D01*
X163617731Y-88419819D02*
X163760588Y-88372200D01*
X163760588Y-88372200D02*
X163808207Y-88324580D01*
X163808207Y-88324580D02*
X163808207Y-87991247D01*
X163808207Y-87991247D02*
X163617731Y-87991247D01*
X164236779Y-88419819D02*
X164236779Y-87419819D01*
X164236779Y-87419819D02*
X164617731Y-87419819D01*
X164617731Y-87419819D02*
X164712969Y-87467438D01*
X164712969Y-87467438D02*
X164760588Y-87515057D01*
X164760588Y-87515057D02*
X164808207Y-87610295D01*
X164808207Y-87610295D02*
X164808207Y-87753152D01*
X164808207Y-87753152D02*
X164760588Y-87848390D01*
X164760588Y-87848390D02*
X164712969Y-87896009D01*
X164712969Y-87896009D02*
X164617731Y-87943628D01*
X164617731Y-87943628D02*
X164236779Y-87943628D01*
X165189160Y-88372200D02*
X165332017Y-88419819D01*
X165332017Y-88419819D02*
X165570112Y-88419819D01*
X165570112Y-88419819D02*
X165665350Y-88372200D01*
X165665350Y-88372200D02*
X165712969Y-88324580D01*
X165712969Y-88324580D02*
X165760588Y-88229342D01*
X165760588Y-88229342D02*
X165760588Y-88134104D01*
X165760588Y-88134104D02*
X165712969Y-88038866D01*
X165712969Y-88038866D02*
X165665350Y-87991247D01*
X165665350Y-87991247D02*
X165570112Y-87943628D01*
X165570112Y-87943628D02*
X165379636Y-87896009D01*
X165379636Y-87896009D02*
X165284398Y-87848390D01*
X165284398Y-87848390D02*
X165236779Y-87800771D01*
X165236779Y-87800771D02*
X165189160Y-87705533D01*
X165189160Y-87705533D02*
X165189160Y-87610295D01*
X165189160Y-87610295D02*
X165236779Y-87515057D01*
X165236779Y-87515057D02*
X165284398Y-87467438D01*
X165284398Y-87467438D02*
X165379636Y-87419819D01*
X165379636Y-87419819D02*
X165617731Y-87419819D01*
X165617731Y-87419819D02*
X165760588Y-87467438D01*
X113954112Y-113392009D02*
X114096969Y-113439628D01*
X114096969Y-113439628D02*
X114144588Y-113487247D01*
X114144588Y-113487247D02*
X114192207Y-113582485D01*
X114192207Y-113582485D02*
X114192207Y-113725342D01*
X114192207Y-113725342D02*
X114144588Y-113820580D01*
X114144588Y-113820580D02*
X114096969Y-113868200D01*
X114096969Y-113868200D02*
X114001731Y-113915819D01*
X114001731Y-113915819D02*
X113620779Y-113915819D01*
X113620779Y-113915819D02*
X113620779Y-112915819D01*
X113620779Y-112915819D02*
X113954112Y-112915819D01*
X113954112Y-112915819D02*
X114049350Y-112963438D01*
X114049350Y-112963438D02*
X114096969Y-113011057D01*
X114096969Y-113011057D02*
X114144588Y-113106295D01*
X114144588Y-113106295D02*
X114144588Y-113201533D01*
X114144588Y-113201533D02*
X114096969Y-113296771D01*
X114096969Y-113296771D02*
X114049350Y-113344390D01*
X114049350Y-113344390D02*
X113954112Y-113392009D01*
X113954112Y-113392009D02*
X113620779Y-113392009D01*
X114573160Y-113630104D02*
X115049350Y-113630104D01*
X114477922Y-113915819D02*
X114811255Y-112915819D01*
X114811255Y-112915819D02*
X115144588Y-113915819D01*
X116049350Y-113915819D02*
X115716017Y-113439628D01*
X115477922Y-113915819D02*
X115477922Y-112915819D01*
X115477922Y-112915819D02*
X115858874Y-112915819D01*
X115858874Y-112915819D02*
X115954112Y-112963438D01*
X115954112Y-112963438D02*
X116001731Y-113011057D01*
X116001731Y-113011057D02*
X116049350Y-113106295D01*
X116049350Y-113106295D02*
X116049350Y-113249152D01*
X116049350Y-113249152D02*
X116001731Y-113344390D01*
X116001731Y-113344390D02*
X115954112Y-113392009D01*
X115954112Y-113392009D02*
X115858874Y-113439628D01*
X115858874Y-113439628D02*
X115477922Y-113439628D01*
X116668398Y-112915819D02*
X116858874Y-112915819D01*
X116858874Y-112915819D02*
X116954112Y-112963438D01*
X116954112Y-112963438D02*
X117049350Y-113058676D01*
X117049350Y-113058676D02*
X117096969Y-113249152D01*
X117096969Y-113249152D02*
X117096969Y-113582485D01*
X117096969Y-113582485D02*
X117049350Y-113772961D01*
X117049350Y-113772961D02*
X116954112Y-113868200D01*
X116954112Y-113868200D02*
X116858874Y-113915819D01*
X116858874Y-113915819D02*
X116668398Y-113915819D01*
X116668398Y-113915819D02*
X116573160Y-113868200D01*
X116573160Y-113868200D02*
X116477922Y-113772961D01*
X116477922Y-113772961D02*
X116430303Y-113582485D01*
X116430303Y-113582485D02*
X116430303Y-113249152D01*
X116430303Y-113249152D02*
X116477922Y-113058676D01*
X116477922Y-113058676D02*
X116573160Y-112963438D01*
X116573160Y-112963438D02*
X116668398Y-112915819D01*
X117525541Y-113915819D02*
X117525541Y-112915819D01*
X117525541Y-112915819D02*
X117858874Y-113630104D01*
X117858874Y-113630104D02*
X118192207Y-112915819D01*
X118192207Y-112915819D02*
X118192207Y-113915819D01*
X118668398Y-113392009D02*
X119001731Y-113392009D01*
X119144588Y-113915819D02*
X118668398Y-113915819D01*
X118668398Y-113915819D02*
X118668398Y-112915819D01*
X118668398Y-112915819D02*
X119144588Y-112915819D01*
X119430303Y-112915819D02*
X120001731Y-112915819D01*
X119716017Y-113915819D02*
X119716017Y-112915819D01*
X120335065Y-113392009D02*
X120668398Y-113392009D01*
X120811255Y-113915819D02*
X120335065Y-113915819D01*
X120335065Y-113915819D02*
X120335065Y-112915819D01*
X120335065Y-112915819D02*
X120811255Y-112915819D01*
X121811255Y-113915819D02*
X121477922Y-113439628D01*
X121239827Y-113915819D02*
X121239827Y-112915819D01*
X121239827Y-112915819D02*
X121620779Y-112915819D01*
X121620779Y-112915819D02*
X121716017Y-112963438D01*
X121716017Y-112963438D02*
X121763636Y-113011057D01*
X121763636Y-113011057D02*
X121811255Y-113106295D01*
X121811255Y-113106295D02*
X121811255Y-113249152D01*
X121811255Y-113249152D02*
X121763636Y-113344390D01*
X121763636Y-113344390D02*
X121716017Y-113392009D01*
X121716017Y-113392009D02*
X121620779Y-113439628D01*
X121620779Y-113439628D02*
X121239827Y-113439628D01*
X108645438Y-109290857D02*
X108597819Y-109386095D01*
X108597819Y-109386095D02*
X108597819Y-109528952D01*
X108597819Y-109528952D02*
X108645438Y-109671809D01*
X108645438Y-109671809D02*
X108740676Y-109767047D01*
X108740676Y-109767047D02*
X108835914Y-109814666D01*
X108835914Y-109814666D02*
X109026390Y-109862285D01*
X109026390Y-109862285D02*
X109169247Y-109862285D01*
X109169247Y-109862285D02*
X109359723Y-109814666D01*
X109359723Y-109814666D02*
X109454961Y-109767047D01*
X109454961Y-109767047D02*
X109550200Y-109671809D01*
X109550200Y-109671809D02*
X109597819Y-109528952D01*
X109597819Y-109528952D02*
X109597819Y-109433714D01*
X109597819Y-109433714D02*
X109550200Y-109290857D01*
X109550200Y-109290857D02*
X109502580Y-109243238D01*
X109502580Y-109243238D02*
X109169247Y-109243238D01*
X109169247Y-109243238D02*
X109169247Y-109433714D01*
X109597819Y-108814666D02*
X108597819Y-108814666D01*
X108597819Y-108814666D02*
X109597819Y-108243238D01*
X109597819Y-108243238D02*
X108597819Y-108243238D01*
X109597819Y-107767047D02*
X108597819Y-107767047D01*
X108597819Y-107767047D02*
X108597819Y-107528952D01*
X108597819Y-107528952D02*
X108645438Y-107386095D01*
X108645438Y-107386095D02*
X108740676Y-107290857D01*
X108740676Y-107290857D02*
X108835914Y-107243238D01*
X108835914Y-107243238D02*
X109026390Y-107195619D01*
X109026390Y-107195619D02*
X109169247Y-107195619D01*
X109169247Y-107195619D02*
X109359723Y-107243238D01*
X109359723Y-107243238D02*
X109454961Y-107290857D01*
X109454961Y-107290857D02*
X109550200Y-107386095D01*
X109550200Y-107386095D02*
X109597819Y-107528952D01*
X109597819Y-107528952D02*
X109597819Y-107767047D01*
X108597819Y-106100380D02*
X108597819Y-105481333D01*
X108597819Y-105481333D02*
X108978771Y-105814666D01*
X108978771Y-105814666D02*
X108978771Y-105671809D01*
X108978771Y-105671809D02*
X109026390Y-105576571D01*
X109026390Y-105576571D02*
X109074009Y-105528952D01*
X109074009Y-105528952D02*
X109169247Y-105481333D01*
X109169247Y-105481333D02*
X109407342Y-105481333D01*
X109407342Y-105481333D02*
X109502580Y-105528952D01*
X109502580Y-105528952D02*
X109550200Y-105576571D01*
X109550200Y-105576571D02*
X109597819Y-105671809D01*
X109597819Y-105671809D02*
X109597819Y-105957523D01*
X109597819Y-105957523D02*
X109550200Y-106052761D01*
X109550200Y-106052761D02*
X109502580Y-106100380D01*
X108597819Y-105195618D02*
X109597819Y-104862285D01*
X109597819Y-104862285D02*
X108597819Y-104528952D01*
X108597819Y-103576570D02*
X109597819Y-103243237D01*
X109597819Y-103243237D02*
X108597819Y-102909904D01*
X109074009Y-102243237D02*
X109121628Y-102100380D01*
X109121628Y-102100380D02*
X109169247Y-102052761D01*
X109169247Y-102052761D02*
X109264485Y-102005142D01*
X109264485Y-102005142D02*
X109407342Y-102005142D01*
X109407342Y-102005142D02*
X109502580Y-102052761D01*
X109502580Y-102052761D02*
X109550200Y-102100380D01*
X109550200Y-102100380D02*
X109597819Y-102195618D01*
X109597819Y-102195618D02*
X109597819Y-102576570D01*
X109597819Y-102576570D02*
X108597819Y-102576570D01*
X108597819Y-102576570D02*
X108597819Y-102243237D01*
X108597819Y-102243237D02*
X108645438Y-102147999D01*
X108645438Y-102147999D02*
X108693057Y-102100380D01*
X108693057Y-102100380D02*
X108788295Y-102052761D01*
X108788295Y-102052761D02*
X108883533Y-102052761D01*
X108883533Y-102052761D02*
X108978771Y-102100380D01*
X108978771Y-102100380D02*
X109026390Y-102147999D01*
X109026390Y-102147999D02*
X109074009Y-102243237D01*
X109074009Y-102243237D02*
X109074009Y-102576570D01*
X108597819Y-100338475D02*
X108597819Y-100814665D01*
X108597819Y-100814665D02*
X109074009Y-100862284D01*
X109074009Y-100862284D02*
X109026390Y-100814665D01*
X109026390Y-100814665D02*
X108978771Y-100719427D01*
X108978771Y-100719427D02*
X108978771Y-100481332D01*
X108978771Y-100481332D02*
X109026390Y-100386094D01*
X109026390Y-100386094D02*
X109074009Y-100338475D01*
X109074009Y-100338475D02*
X109169247Y-100290856D01*
X109169247Y-100290856D02*
X109407342Y-100290856D01*
X109407342Y-100290856D02*
X109502580Y-100338475D01*
X109502580Y-100338475D02*
X109550200Y-100386094D01*
X109550200Y-100386094D02*
X109597819Y-100481332D01*
X109597819Y-100481332D02*
X109597819Y-100719427D01*
X109597819Y-100719427D02*
X109550200Y-100814665D01*
X109550200Y-100814665D02*
X109502580Y-100862284D01*
X108597819Y-100005141D02*
X109597819Y-99671808D01*
X109597819Y-99671808D02*
X108597819Y-99338475D01*
X166001819Y-103946077D02*
X166001819Y-103374649D01*
X167001819Y-103660363D02*
X166001819Y-103660363D01*
X166478009Y-103041315D02*
X166478009Y-102707982D01*
X167001819Y-102565125D02*
X167001819Y-103041315D01*
X167001819Y-103041315D02*
X166001819Y-103041315D01*
X166001819Y-103041315D02*
X166001819Y-102565125D01*
X166478009Y-102136553D02*
X166478009Y-101803220D01*
X167001819Y-101660363D02*
X167001819Y-102136553D01*
X167001819Y-102136553D02*
X166001819Y-102136553D01*
X166001819Y-102136553D02*
X166001819Y-101660363D01*
X167001819Y-101231791D02*
X166001819Y-101231791D01*
X166001819Y-101231791D02*
X167001819Y-100660363D01*
X167001819Y-100660363D02*
X166001819Y-100660363D01*
X166954200Y-100231791D02*
X167001819Y-100088934D01*
X167001819Y-100088934D02*
X167001819Y-99850839D01*
X167001819Y-99850839D02*
X166954200Y-99755601D01*
X166954200Y-99755601D02*
X166906580Y-99707982D01*
X166906580Y-99707982D02*
X166811342Y-99660363D01*
X166811342Y-99660363D02*
X166716104Y-99660363D01*
X166716104Y-99660363D02*
X166620866Y-99707982D01*
X166620866Y-99707982D02*
X166573247Y-99755601D01*
X166573247Y-99755601D02*
X166525628Y-99850839D01*
X166525628Y-99850839D02*
X166478009Y-100041315D01*
X166478009Y-100041315D02*
X166430390Y-100136553D01*
X166430390Y-100136553D02*
X166382771Y-100184172D01*
X166382771Y-100184172D02*
X166287533Y-100231791D01*
X166287533Y-100231791D02*
X166192295Y-100231791D01*
X166192295Y-100231791D02*
X166097057Y-100184172D01*
X166097057Y-100184172D02*
X166049438Y-100136553D01*
X166049438Y-100136553D02*
X166001819Y-100041315D01*
X166001819Y-100041315D02*
X166001819Y-99803220D01*
X166001819Y-99803220D02*
X166049438Y-99660363D01*
X166525628Y-99041315D02*
X167001819Y-99041315D01*
X166001819Y-99374648D02*
X166525628Y-99041315D01*
X166525628Y-99041315D02*
X166001819Y-98707982D01*
X166335152Y-97184172D02*
X167001819Y-97184172D01*
X165954200Y-97422267D02*
X166668485Y-97660362D01*
X166668485Y-97660362D02*
X166668485Y-97041315D01*
X166906580Y-96660362D02*
X166954200Y-96612743D01*
X166954200Y-96612743D02*
X167001819Y-96660362D01*
X167001819Y-96660362D02*
X166954200Y-96707981D01*
X166954200Y-96707981D02*
X166906580Y-96660362D01*
X166906580Y-96660362D02*
X167001819Y-96660362D01*
X166001819Y-95993696D02*
X166001819Y-95898458D01*
X166001819Y-95898458D02*
X166049438Y-95803220D01*
X166049438Y-95803220D02*
X166097057Y-95755601D01*
X166097057Y-95755601D02*
X166192295Y-95707982D01*
X166192295Y-95707982D02*
X166382771Y-95660363D01*
X166382771Y-95660363D02*
X166620866Y-95660363D01*
X166620866Y-95660363D02*
X166811342Y-95707982D01*
X166811342Y-95707982D02*
X166906580Y-95755601D01*
X166906580Y-95755601D02*
X166954200Y-95803220D01*
X166954200Y-95803220D02*
X167001819Y-95898458D01*
X167001819Y-95898458D02*
X167001819Y-95993696D01*
X167001819Y-95993696D02*
X166954200Y-96088934D01*
X166954200Y-96088934D02*
X166906580Y-96136553D01*
X166906580Y-96136553D02*
X166811342Y-96184172D01*
X166811342Y-96184172D02*
X166620866Y-96231791D01*
X166620866Y-96231791D02*
X166382771Y-96231791D01*
X166382771Y-96231791D02*
X166192295Y-96184172D01*
X166192295Y-96184172D02*
X166097057Y-96136553D01*
X166097057Y-96136553D02*
X166049438Y-96088934D01*
X166049438Y-96088934D02*
X166001819Y-95993696D01*
X108780476Y-94959819D02*
X108780476Y-93959819D01*
X108780476Y-93959819D02*
X109161428Y-93959819D01*
X109161428Y-93959819D02*
X109256666Y-94007438D01*
X109256666Y-94007438D02*
X109304285Y-94055057D01*
X109304285Y-94055057D02*
X109351904Y-94150295D01*
X109351904Y-94150295D02*
X109351904Y-94293152D01*
X109351904Y-94293152D02*
X109304285Y-94388390D01*
X109304285Y-94388390D02*
X109256666Y-94436009D01*
X109256666Y-94436009D02*
X109161428Y-94483628D01*
X109161428Y-94483628D02*
X108780476Y-94483628D01*
X109970952Y-93959819D02*
X110161428Y-93959819D01*
X110161428Y-93959819D02*
X110256666Y-94007438D01*
X110256666Y-94007438D02*
X110351904Y-94102676D01*
X110351904Y-94102676D02*
X110399523Y-94293152D01*
X110399523Y-94293152D02*
X110399523Y-94626485D01*
X110399523Y-94626485D02*
X110351904Y-94816961D01*
X110351904Y-94816961D02*
X110256666Y-94912200D01*
X110256666Y-94912200D02*
X110161428Y-94959819D01*
X110161428Y-94959819D02*
X109970952Y-94959819D01*
X109970952Y-94959819D02*
X109875714Y-94912200D01*
X109875714Y-94912200D02*
X109780476Y-94816961D01*
X109780476Y-94816961D02*
X109732857Y-94626485D01*
X109732857Y-94626485D02*
X109732857Y-94293152D01*
X109732857Y-94293152D02*
X109780476Y-94102676D01*
X109780476Y-94102676D02*
X109875714Y-94007438D01*
X109875714Y-94007438D02*
X109970952Y-93959819D01*
X110732857Y-93959819D02*
X110970952Y-94959819D01*
X110970952Y-94959819D02*
X111161428Y-94245533D01*
X111161428Y-94245533D02*
X111351904Y-94959819D01*
X111351904Y-94959819D02*
X111590000Y-93959819D01*
X111970952Y-94436009D02*
X112304285Y-94436009D01*
X112447142Y-94959819D02*
X111970952Y-94959819D01*
X111970952Y-94959819D02*
X111970952Y-93959819D01*
X111970952Y-93959819D02*
X112447142Y-93959819D01*
X113447142Y-94959819D02*
X113113809Y-94483628D01*
X112875714Y-94959819D02*
X112875714Y-93959819D01*
X112875714Y-93959819D02*
X113256666Y-93959819D01*
X113256666Y-93959819D02*
X113351904Y-94007438D01*
X113351904Y-94007438D02*
X113399523Y-94055057D01*
X113399523Y-94055057D02*
X113447142Y-94150295D01*
X113447142Y-94150295D02*
X113447142Y-94293152D01*
X113447142Y-94293152D02*
X113399523Y-94388390D01*
X113399523Y-94388390D02*
X113351904Y-94436009D01*
X113351904Y-94436009D02*
X113256666Y-94483628D01*
X113256666Y-94483628D02*
X112875714Y-94483628D01*
X109470952Y-96522200D02*
X109613809Y-96569819D01*
X109613809Y-96569819D02*
X109851904Y-96569819D01*
X109851904Y-96569819D02*
X109947142Y-96522200D01*
X109947142Y-96522200D02*
X109994761Y-96474580D01*
X109994761Y-96474580D02*
X110042380Y-96379342D01*
X110042380Y-96379342D02*
X110042380Y-96284104D01*
X110042380Y-96284104D02*
X109994761Y-96188866D01*
X109994761Y-96188866D02*
X109947142Y-96141247D01*
X109947142Y-96141247D02*
X109851904Y-96093628D01*
X109851904Y-96093628D02*
X109661428Y-96046009D01*
X109661428Y-96046009D02*
X109566190Y-95998390D01*
X109566190Y-95998390D02*
X109518571Y-95950771D01*
X109518571Y-95950771D02*
X109470952Y-95855533D01*
X109470952Y-95855533D02*
X109470952Y-95760295D01*
X109470952Y-95760295D02*
X109518571Y-95665057D01*
X109518571Y-95665057D02*
X109566190Y-95617438D01*
X109566190Y-95617438D02*
X109661428Y-95569819D01*
X109661428Y-95569819D02*
X109899523Y-95569819D01*
X109899523Y-95569819D02*
X110042380Y-95617438D01*
X110328095Y-95569819D02*
X110899523Y-95569819D01*
X110613809Y-96569819D02*
X110613809Y-95569819D01*
X111232857Y-96046009D02*
X111566190Y-96046009D01*
X111709047Y-96569819D02*
X111232857Y-96569819D01*
X111232857Y-96569819D02*
X111232857Y-95569819D01*
X111232857Y-95569819D02*
X111709047Y-95569819D01*
X112137619Y-96569819D02*
X112137619Y-95569819D01*
X112137619Y-95569819D02*
X112518571Y-95569819D01*
X112518571Y-95569819D02*
X112613809Y-95617438D01*
X112613809Y-95617438D02*
X112661428Y-95665057D01*
X112661428Y-95665057D02*
X112709047Y-95760295D01*
X112709047Y-95760295D02*
X112709047Y-95903152D01*
X112709047Y-95903152D02*
X112661428Y-95998390D01*
X112661428Y-95998390D02*
X112613809Y-96046009D01*
X112613809Y-96046009D02*
X112518571Y-96093628D01*
X112518571Y-96093628D02*
X112137619Y-96093628D01*
X109375714Y-98179819D02*
X109375714Y-97179819D01*
X109375714Y-97179819D02*
X109756666Y-97179819D01*
X109756666Y-97179819D02*
X109851904Y-97227438D01*
X109851904Y-97227438D02*
X109899523Y-97275057D01*
X109899523Y-97275057D02*
X109947142Y-97370295D01*
X109947142Y-97370295D02*
X109947142Y-97513152D01*
X109947142Y-97513152D02*
X109899523Y-97608390D01*
X109899523Y-97608390D02*
X109851904Y-97656009D01*
X109851904Y-97656009D02*
X109756666Y-97703628D01*
X109756666Y-97703628D02*
X109375714Y-97703628D01*
X110566190Y-97703628D02*
X110566190Y-98179819D01*
X110232857Y-97179819D02*
X110566190Y-97703628D01*
X110566190Y-97703628D02*
X110899523Y-97179819D01*
X111804285Y-98179819D02*
X111470952Y-97703628D01*
X111232857Y-98179819D02*
X111232857Y-97179819D01*
X111232857Y-97179819D02*
X111613809Y-97179819D01*
X111613809Y-97179819D02*
X111709047Y-97227438D01*
X111709047Y-97227438D02*
X111756666Y-97275057D01*
X111756666Y-97275057D02*
X111804285Y-97370295D01*
X111804285Y-97370295D02*
X111804285Y-97513152D01*
X111804285Y-97513152D02*
X111756666Y-97608390D01*
X111756666Y-97608390D02*
X111709047Y-97656009D01*
X111709047Y-97656009D02*
X111613809Y-97703628D01*
X111613809Y-97703628D02*
X111232857Y-97703628D01*
X112423333Y-97179819D02*
X112613809Y-97179819D01*
X112613809Y-97179819D02*
X112709047Y-97227438D01*
X112709047Y-97227438D02*
X112804285Y-97322676D01*
X112804285Y-97322676D02*
X112851904Y-97513152D01*
X112851904Y-97513152D02*
X112851904Y-97846485D01*
X112851904Y-97846485D02*
X112804285Y-98036961D01*
X112804285Y-98036961D02*
X112709047Y-98132200D01*
X112709047Y-98132200D02*
X112613809Y-98179819D01*
X112613809Y-98179819D02*
X112423333Y-98179819D01*
X112423333Y-98179819D02*
X112328095Y-98132200D01*
X112328095Y-98132200D02*
X112232857Y-98036961D01*
X112232857Y-98036961D02*
X112185238Y-97846485D01*
X112185238Y-97846485D02*
X112185238Y-97513152D01*
X112185238Y-97513152D02*
X112232857Y-97322676D01*
X112232857Y-97322676D02*
X112328095Y-97227438D01*
X112328095Y-97227438D02*
X112423333Y-97179819D01*
X109719819Y-131319047D02*
X108719819Y-131319047D01*
X108719819Y-131319047D02*
X108719819Y-130938095D01*
X108719819Y-130938095D02*
X108767438Y-130842857D01*
X108767438Y-130842857D02*
X108815057Y-130795238D01*
X108815057Y-130795238D02*
X108910295Y-130747619D01*
X108910295Y-130747619D02*
X109053152Y-130747619D01*
X109053152Y-130747619D02*
X109148390Y-130795238D01*
X109148390Y-130795238D02*
X109196009Y-130842857D01*
X109196009Y-130842857D02*
X109243628Y-130938095D01*
X109243628Y-130938095D02*
X109243628Y-131319047D01*
X108815057Y-130366666D02*
X108767438Y-130319047D01*
X108767438Y-130319047D02*
X108719819Y-130223809D01*
X108719819Y-130223809D02*
X108719819Y-129985714D01*
X108719819Y-129985714D02*
X108767438Y-129890476D01*
X108767438Y-129890476D02*
X108815057Y-129842857D01*
X108815057Y-129842857D02*
X108910295Y-129795238D01*
X108910295Y-129795238D02*
X109005533Y-129795238D01*
X109005533Y-129795238D02*
X109148390Y-129842857D01*
X109148390Y-129842857D02*
X109719819Y-130414285D01*
X109719819Y-130414285D02*
X109719819Y-129795238D01*
X109719819Y-128604761D02*
X108719819Y-128604761D01*
X108719819Y-128604761D02*
X108719819Y-128223809D01*
X108719819Y-128223809D02*
X108767438Y-128128571D01*
X108767438Y-128128571D02*
X108815057Y-128080952D01*
X108815057Y-128080952D02*
X108910295Y-128033333D01*
X108910295Y-128033333D02*
X109053152Y-128033333D01*
X109053152Y-128033333D02*
X109148390Y-128080952D01*
X109148390Y-128080952D02*
X109196009Y-128128571D01*
X109196009Y-128128571D02*
X109243628Y-128223809D01*
X109243628Y-128223809D02*
X109243628Y-128604761D01*
X109719819Y-127080952D02*
X109719819Y-127652380D01*
X109719819Y-127366666D02*
X108719819Y-127366666D01*
X108719819Y-127366666D02*
X108862676Y-127461904D01*
X108862676Y-127461904D02*
X108957914Y-127557142D01*
X108957914Y-127557142D02*
X109005533Y-127652380D01*
X109624580Y-125319047D02*
X109672200Y-125366666D01*
X109672200Y-125366666D02*
X109719819Y-125509523D01*
X109719819Y-125509523D02*
X109719819Y-125604761D01*
X109719819Y-125604761D02*
X109672200Y-125747618D01*
X109672200Y-125747618D02*
X109576961Y-125842856D01*
X109576961Y-125842856D02*
X109481723Y-125890475D01*
X109481723Y-125890475D02*
X109291247Y-125938094D01*
X109291247Y-125938094D02*
X109148390Y-125938094D01*
X109148390Y-125938094D02*
X108957914Y-125890475D01*
X108957914Y-125890475D02*
X108862676Y-125842856D01*
X108862676Y-125842856D02*
X108767438Y-125747618D01*
X108767438Y-125747618D02*
X108719819Y-125604761D01*
X108719819Y-125604761D02*
X108719819Y-125509523D01*
X108719819Y-125509523D02*
X108767438Y-125366666D01*
X108767438Y-125366666D02*
X108815057Y-125319047D01*
X108815057Y-124938094D02*
X108767438Y-124890475D01*
X108767438Y-124890475D02*
X108719819Y-124795237D01*
X108719819Y-124795237D02*
X108719819Y-124557142D01*
X108719819Y-124557142D02*
X108767438Y-124461904D01*
X108767438Y-124461904D02*
X108815057Y-124414285D01*
X108815057Y-124414285D02*
X108910295Y-124366666D01*
X108910295Y-124366666D02*
X109005533Y-124366666D01*
X109005533Y-124366666D02*
X109148390Y-124414285D01*
X109148390Y-124414285D02*
X109719819Y-124985713D01*
X109719819Y-124985713D02*
X109719819Y-124366666D01*
X109624580Y-122604761D02*
X109672200Y-122652380D01*
X109672200Y-122652380D02*
X109719819Y-122795237D01*
X109719819Y-122795237D02*
X109719819Y-122890475D01*
X109719819Y-122890475D02*
X109672200Y-123033332D01*
X109672200Y-123033332D02*
X109576961Y-123128570D01*
X109576961Y-123128570D02*
X109481723Y-123176189D01*
X109481723Y-123176189D02*
X109291247Y-123223808D01*
X109291247Y-123223808D02*
X109148390Y-123223808D01*
X109148390Y-123223808D02*
X108957914Y-123176189D01*
X108957914Y-123176189D02*
X108862676Y-123128570D01*
X108862676Y-123128570D02*
X108767438Y-123033332D01*
X108767438Y-123033332D02*
X108719819Y-122890475D01*
X108719819Y-122890475D02*
X108719819Y-122795237D01*
X108719819Y-122795237D02*
X108767438Y-122652380D01*
X108767438Y-122652380D02*
X108815057Y-122604761D01*
X109719819Y-121652380D02*
X109719819Y-122223808D01*
X109719819Y-121938094D02*
X108719819Y-121938094D01*
X108719819Y-121938094D02*
X108862676Y-122033332D01*
X108862676Y-122033332D02*
X108957914Y-122128570D01*
X108957914Y-122128570D02*
X109005533Y-122223808D01*
X109434104Y-120509522D02*
X109434104Y-120033332D01*
X109719819Y-120604760D02*
X108719819Y-120271427D01*
X108719819Y-120271427D02*
X109719819Y-119938094D01*
X135308207Y-83319819D02*
X134974874Y-82843628D01*
X134736779Y-83319819D02*
X134736779Y-82319819D01*
X134736779Y-82319819D02*
X135117731Y-82319819D01*
X135117731Y-82319819D02*
X135212969Y-82367438D01*
X135212969Y-82367438D02*
X135260588Y-82415057D01*
X135260588Y-82415057D02*
X135308207Y-82510295D01*
X135308207Y-82510295D02*
X135308207Y-82653152D01*
X135308207Y-82653152D02*
X135260588Y-82748390D01*
X135260588Y-82748390D02*
X135212969Y-82796009D01*
X135212969Y-82796009D02*
X135117731Y-82843628D01*
X135117731Y-82843628D02*
X134736779Y-82843628D01*
X135689160Y-83034104D02*
X136165350Y-83034104D01*
X135593922Y-83319819D02*
X135927255Y-82319819D01*
X135927255Y-82319819D02*
X136260588Y-83319819D01*
X136593922Y-83319819D02*
X136593922Y-82319819D01*
X136593922Y-82319819D02*
X136832017Y-82319819D01*
X136832017Y-82319819D02*
X136974874Y-82367438D01*
X136974874Y-82367438D02*
X137070112Y-82462676D01*
X137070112Y-82462676D02*
X137117731Y-82557914D01*
X137117731Y-82557914D02*
X137165350Y-82748390D01*
X137165350Y-82748390D02*
X137165350Y-82891247D01*
X137165350Y-82891247D02*
X137117731Y-83081723D01*
X137117731Y-83081723D02*
X137070112Y-83176961D01*
X137070112Y-83176961D02*
X136974874Y-83272200D01*
X136974874Y-83272200D02*
X136832017Y-83319819D01*
X136832017Y-83319819D02*
X136593922Y-83319819D01*
X137593922Y-83319819D02*
X137593922Y-82319819D01*
X138260588Y-82319819D02*
X138451064Y-82319819D01*
X138451064Y-82319819D02*
X138546302Y-82367438D01*
X138546302Y-82367438D02*
X138641540Y-82462676D01*
X138641540Y-82462676D02*
X138689159Y-82653152D01*
X138689159Y-82653152D02*
X138689159Y-82986485D01*
X138689159Y-82986485D02*
X138641540Y-83176961D01*
X138641540Y-83176961D02*
X138546302Y-83272200D01*
X138546302Y-83272200D02*
X138451064Y-83319819D01*
X138451064Y-83319819D02*
X138260588Y-83319819D01*
X138260588Y-83319819D02*
X138165350Y-83272200D01*
X138165350Y-83272200D02*
X138070112Y-83176961D01*
X138070112Y-83176961D02*
X138022493Y-82986485D01*
X138022493Y-82986485D02*
X138022493Y-82653152D01*
X138022493Y-82653152D02*
X138070112Y-82462676D01*
X138070112Y-82462676D02*
X138165350Y-82367438D01*
X138165350Y-82367438D02*
X138260588Y-82319819D01*
X129569819Y-94113220D02*
X128569819Y-94113220D01*
X128569819Y-94113220D02*
X129284104Y-93779887D01*
X129284104Y-93779887D02*
X128569819Y-93446554D01*
X128569819Y-93446554D02*
X129569819Y-93446554D01*
X129569819Y-92970363D02*
X128569819Y-92970363D01*
X129474580Y-91922745D02*
X129522200Y-91970364D01*
X129522200Y-91970364D02*
X129569819Y-92113221D01*
X129569819Y-92113221D02*
X129569819Y-92208459D01*
X129569819Y-92208459D02*
X129522200Y-92351316D01*
X129522200Y-92351316D02*
X129426961Y-92446554D01*
X129426961Y-92446554D02*
X129331723Y-92494173D01*
X129331723Y-92494173D02*
X129141247Y-92541792D01*
X129141247Y-92541792D02*
X128998390Y-92541792D01*
X128998390Y-92541792D02*
X128807914Y-92494173D01*
X128807914Y-92494173D02*
X128712676Y-92446554D01*
X128712676Y-92446554D02*
X128617438Y-92351316D01*
X128617438Y-92351316D02*
X128569819Y-92208459D01*
X128569819Y-92208459D02*
X128569819Y-92113221D01*
X128569819Y-92113221D02*
X128617438Y-91970364D01*
X128617438Y-91970364D02*
X128665057Y-91922745D01*
X129569819Y-90922745D02*
X129093628Y-91256078D01*
X129569819Y-91494173D02*
X128569819Y-91494173D01*
X128569819Y-91494173D02*
X128569819Y-91113221D01*
X128569819Y-91113221D02*
X128617438Y-91017983D01*
X128617438Y-91017983D02*
X128665057Y-90970364D01*
X128665057Y-90970364D02*
X128760295Y-90922745D01*
X128760295Y-90922745D02*
X128903152Y-90922745D01*
X128903152Y-90922745D02*
X128998390Y-90970364D01*
X128998390Y-90970364D02*
X129046009Y-91017983D01*
X129046009Y-91017983D02*
X129093628Y-91113221D01*
X129093628Y-91113221D02*
X129093628Y-91494173D01*
X128569819Y-90303697D02*
X128569819Y-90113221D01*
X128569819Y-90113221D02*
X128617438Y-90017983D01*
X128617438Y-90017983D02*
X128712676Y-89922745D01*
X128712676Y-89922745D02*
X128903152Y-89875126D01*
X128903152Y-89875126D02*
X129236485Y-89875126D01*
X129236485Y-89875126D02*
X129426961Y-89922745D01*
X129426961Y-89922745D02*
X129522200Y-90017983D01*
X129522200Y-90017983D02*
X129569819Y-90113221D01*
X129569819Y-90113221D02*
X129569819Y-90303697D01*
X129569819Y-90303697D02*
X129522200Y-90398935D01*
X129522200Y-90398935D02*
X129426961Y-90494173D01*
X129426961Y-90494173D02*
X129236485Y-90541792D01*
X129236485Y-90541792D02*
X128903152Y-90541792D01*
X128903152Y-90541792D02*
X128712676Y-90494173D01*
X128712676Y-90494173D02*
X128617438Y-90398935D01*
X128617438Y-90398935D02*
X128569819Y-90303697D01*
X129188866Y-89446554D02*
X129188866Y-88684650D01*
X129522200Y-88256078D02*
X129569819Y-88113221D01*
X129569819Y-88113221D02*
X129569819Y-87875126D01*
X129569819Y-87875126D02*
X129522200Y-87779888D01*
X129522200Y-87779888D02*
X129474580Y-87732269D01*
X129474580Y-87732269D02*
X129379342Y-87684650D01*
X129379342Y-87684650D02*
X129284104Y-87684650D01*
X129284104Y-87684650D02*
X129188866Y-87732269D01*
X129188866Y-87732269D02*
X129141247Y-87779888D01*
X129141247Y-87779888D02*
X129093628Y-87875126D01*
X129093628Y-87875126D02*
X129046009Y-88065602D01*
X129046009Y-88065602D02*
X128998390Y-88160840D01*
X128998390Y-88160840D02*
X128950771Y-88208459D01*
X128950771Y-88208459D02*
X128855533Y-88256078D01*
X128855533Y-88256078D02*
X128760295Y-88256078D01*
X128760295Y-88256078D02*
X128665057Y-88208459D01*
X128665057Y-88208459D02*
X128617438Y-88160840D01*
X128617438Y-88160840D02*
X128569819Y-88065602D01*
X128569819Y-88065602D02*
X128569819Y-87827507D01*
X128569819Y-87827507D02*
X128617438Y-87684650D01*
X129569819Y-87256078D02*
X128569819Y-87256078D01*
X128569819Y-87256078D02*
X128569819Y-87017983D01*
X128569819Y-87017983D02*
X128617438Y-86875126D01*
X128617438Y-86875126D02*
X128712676Y-86779888D01*
X128712676Y-86779888D02*
X128807914Y-86732269D01*
X128807914Y-86732269D02*
X128998390Y-86684650D01*
X128998390Y-86684650D02*
X129141247Y-86684650D01*
X129141247Y-86684650D02*
X129331723Y-86732269D01*
X129331723Y-86732269D02*
X129426961Y-86779888D01*
X129426961Y-86779888D02*
X129522200Y-86875126D01*
X129522200Y-86875126D02*
X129569819Y-87017983D01*
X129569819Y-87017983D02*
X129569819Y-87256078D01*
X114662009Y-102453887D02*
X114709628Y-102311030D01*
X114709628Y-102311030D02*
X114757247Y-102263411D01*
X114757247Y-102263411D02*
X114852485Y-102215792D01*
X114852485Y-102215792D02*
X114995342Y-102215792D01*
X114995342Y-102215792D02*
X115090580Y-102263411D01*
X115090580Y-102263411D02*
X115138200Y-102311030D01*
X115138200Y-102311030D02*
X115185819Y-102406268D01*
X115185819Y-102406268D02*
X115185819Y-102787220D01*
X115185819Y-102787220D02*
X114185819Y-102787220D01*
X114185819Y-102787220D02*
X114185819Y-102453887D01*
X114185819Y-102453887D02*
X114233438Y-102358649D01*
X114233438Y-102358649D02*
X114281057Y-102311030D01*
X114281057Y-102311030D02*
X114376295Y-102263411D01*
X114376295Y-102263411D02*
X114471533Y-102263411D01*
X114471533Y-102263411D02*
X114566771Y-102311030D01*
X114566771Y-102311030D02*
X114614390Y-102358649D01*
X114614390Y-102358649D02*
X114662009Y-102453887D01*
X114662009Y-102453887D02*
X114662009Y-102787220D01*
X114185819Y-101787220D02*
X114995342Y-101787220D01*
X114995342Y-101787220D02*
X115090580Y-101739601D01*
X115090580Y-101739601D02*
X115138200Y-101691982D01*
X115138200Y-101691982D02*
X115185819Y-101596744D01*
X115185819Y-101596744D02*
X115185819Y-101406268D01*
X115185819Y-101406268D02*
X115138200Y-101311030D01*
X115138200Y-101311030D02*
X115090580Y-101263411D01*
X115090580Y-101263411D02*
X114995342Y-101215792D01*
X114995342Y-101215792D02*
X114185819Y-101215792D01*
X114185819Y-100834839D02*
X114185819Y-100168173D01*
X114185819Y-100168173D02*
X115185819Y-100834839D01*
X115185819Y-100834839D02*
X115185819Y-100168173D01*
X114185819Y-99882458D02*
X114185819Y-99215792D01*
X114185819Y-99215792D02*
X115185819Y-99882458D01*
X115185819Y-99882458D02*
X115185819Y-99215792D01*
X114662009Y-98834839D02*
X114662009Y-98501506D01*
X115185819Y-98358649D02*
X115185819Y-98834839D01*
X115185819Y-98834839D02*
X114185819Y-98834839D01*
X114185819Y-98834839D02*
X114185819Y-98358649D01*
X115185819Y-97358649D02*
X114709628Y-97691982D01*
X115185819Y-97930077D02*
X114185819Y-97930077D01*
X114185819Y-97930077D02*
X114185819Y-97549125D01*
X114185819Y-97549125D02*
X114233438Y-97453887D01*
X114233438Y-97453887D02*
X114281057Y-97406268D01*
X114281057Y-97406268D02*
X114376295Y-97358649D01*
X114376295Y-97358649D02*
X114519152Y-97358649D01*
X114519152Y-97358649D02*
X114614390Y-97406268D01*
X114614390Y-97406268D02*
X114662009Y-97453887D01*
X114662009Y-97453887D02*
X114709628Y-97549125D01*
X114709628Y-97549125D02*
X114709628Y-97930077D01*
X127595333Y-106626819D02*
X127262000Y-106150628D01*
X127023905Y-106626819D02*
X127023905Y-105626819D01*
X127023905Y-105626819D02*
X127404857Y-105626819D01*
X127404857Y-105626819D02*
X127500095Y-105674438D01*
X127500095Y-105674438D02*
X127547714Y-105722057D01*
X127547714Y-105722057D02*
X127595333Y-105817295D01*
X127595333Y-105817295D02*
X127595333Y-105960152D01*
X127595333Y-105960152D02*
X127547714Y-106055390D01*
X127547714Y-106055390D02*
X127500095Y-106103009D01*
X127500095Y-106103009D02*
X127404857Y-106150628D01*
X127404857Y-106150628D02*
X127023905Y-106150628D01*
X127928667Y-105626819D02*
X128595333Y-105626819D01*
X128595333Y-105626819D02*
X128166762Y-106626819D01*
X122840761Y-108500057D02*
X122745523Y-108452438D01*
X122745523Y-108452438D02*
X122650285Y-108357200D01*
X122650285Y-108357200D02*
X122507428Y-108214342D01*
X122507428Y-108214342D02*
X122412190Y-108166723D01*
X122412190Y-108166723D02*
X122316952Y-108166723D01*
X122364571Y-108404819D02*
X122269333Y-108357200D01*
X122269333Y-108357200D02*
X122174095Y-108261961D01*
X122174095Y-108261961D02*
X122126476Y-108071485D01*
X122126476Y-108071485D02*
X122126476Y-107738152D01*
X122126476Y-107738152D02*
X122174095Y-107547676D01*
X122174095Y-107547676D02*
X122269333Y-107452438D01*
X122269333Y-107452438D02*
X122364571Y-107404819D01*
X122364571Y-107404819D02*
X122555047Y-107404819D01*
X122555047Y-107404819D02*
X122650285Y-107452438D01*
X122650285Y-107452438D02*
X122745523Y-107547676D01*
X122745523Y-107547676D02*
X122793142Y-107738152D01*
X122793142Y-107738152D02*
X122793142Y-108071485D01*
X122793142Y-108071485D02*
X122745523Y-108261961D01*
X122745523Y-108261961D02*
X122650285Y-108357200D01*
X122650285Y-108357200D02*
X122555047Y-108404819D01*
X122555047Y-108404819D02*
X122364571Y-108404819D01*
X123745523Y-108404819D02*
X123174095Y-108404819D01*
X123459809Y-108404819D02*
X123459809Y-107404819D01*
X123459809Y-107404819D02*
X123364571Y-107547676D01*
X123364571Y-107547676D02*
X123269333Y-107642914D01*
X123269333Y-107642914D02*
X123174095Y-107690533D01*
X132397333Y-90906580D02*
X132349714Y-90954200D01*
X132349714Y-90954200D02*
X132206857Y-91001819D01*
X132206857Y-91001819D02*
X132111619Y-91001819D01*
X132111619Y-91001819D02*
X131968762Y-90954200D01*
X131968762Y-90954200D02*
X131873524Y-90858961D01*
X131873524Y-90858961D02*
X131825905Y-90763723D01*
X131825905Y-90763723D02*
X131778286Y-90573247D01*
X131778286Y-90573247D02*
X131778286Y-90430390D01*
X131778286Y-90430390D02*
X131825905Y-90239914D01*
X131825905Y-90239914D02*
X131873524Y-90144676D01*
X131873524Y-90144676D02*
X131968762Y-90049438D01*
X131968762Y-90049438D02*
X132111619Y-90001819D01*
X132111619Y-90001819D02*
X132206857Y-90001819D01*
X132206857Y-90001819D02*
X132349714Y-90049438D01*
X132349714Y-90049438D02*
X132397333Y-90097057D01*
X132730667Y-90001819D02*
X133349714Y-90001819D01*
X133349714Y-90001819D02*
X133016381Y-90382771D01*
X133016381Y-90382771D02*
X133159238Y-90382771D01*
X133159238Y-90382771D02*
X133254476Y-90430390D01*
X133254476Y-90430390D02*
X133302095Y-90478009D01*
X133302095Y-90478009D02*
X133349714Y-90573247D01*
X133349714Y-90573247D02*
X133349714Y-90811342D01*
X133349714Y-90811342D02*
X133302095Y-90906580D01*
X133302095Y-90906580D02*
X133254476Y-90954200D01*
X133254476Y-90954200D02*
X133159238Y-91001819D01*
X133159238Y-91001819D02*
X132873524Y-91001819D01*
X132873524Y-91001819D02*
X132778286Y-90954200D01*
X132778286Y-90954200D02*
X132730667Y-90906580D01*
X127595333Y-113484819D02*
X127262000Y-113008628D01*
X127023905Y-113484819D02*
X127023905Y-112484819D01*
X127023905Y-112484819D02*
X127404857Y-112484819D01*
X127404857Y-112484819D02*
X127500095Y-112532438D01*
X127500095Y-112532438D02*
X127547714Y-112580057D01*
X127547714Y-112580057D02*
X127595333Y-112675295D01*
X127595333Y-112675295D02*
X127595333Y-112818152D01*
X127595333Y-112818152D02*
X127547714Y-112913390D01*
X127547714Y-112913390D02*
X127500095Y-112961009D01*
X127500095Y-112961009D02*
X127404857Y-113008628D01*
X127404857Y-113008628D02*
X127023905Y-113008628D01*
X128452476Y-112484819D02*
X128262000Y-112484819D01*
X128262000Y-112484819D02*
X128166762Y-112532438D01*
X128166762Y-112532438D02*
X128119143Y-112580057D01*
X128119143Y-112580057D02*
X128023905Y-112722914D01*
X128023905Y-112722914D02*
X127976286Y-112913390D01*
X127976286Y-112913390D02*
X127976286Y-113294342D01*
X127976286Y-113294342D02*
X128023905Y-113389580D01*
X128023905Y-113389580D02*
X128071524Y-113437200D01*
X128071524Y-113437200D02*
X128166762Y-113484819D01*
X128166762Y-113484819D02*
X128357238Y-113484819D01*
X128357238Y-113484819D02*
X128452476Y-113437200D01*
X128452476Y-113437200D02*
X128500095Y-113389580D01*
X128500095Y-113389580D02*
X128547714Y-113294342D01*
X128547714Y-113294342D02*
X128547714Y-113056247D01*
X128547714Y-113056247D02*
X128500095Y-112961009D01*
X128500095Y-112961009D02*
X128452476Y-112913390D01*
X128452476Y-112913390D02*
X128357238Y-112865771D01*
X128357238Y-112865771D02*
X128166762Y-112865771D01*
X128166762Y-112865771D02*
X128071524Y-112913390D01*
X128071524Y-112913390D02*
X128023905Y-112961009D01*
X128023905Y-112961009D02*
X127976286Y-113056247D01*
X134961333Y-86560819D02*
X134628000Y-86084628D01*
X134389905Y-86560819D02*
X134389905Y-85560819D01*
X134389905Y-85560819D02*
X134770857Y-85560819D01*
X134770857Y-85560819D02*
X134866095Y-85608438D01*
X134866095Y-85608438D02*
X134913714Y-85656057D01*
X134913714Y-85656057D02*
X134961333Y-85751295D01*
X134961333Y-85751295D02*
X134961333Y-85894152D01*
X134961333Y-85894152D02*
X134913714Y-85989390D01*
X134913714Y-85989390D02*
X134866095Y-86037009D01*
X134866095Y-86037009D02*
X134770857Y-86084628D01*
X134770857Y-86084628D02*
X134389905Y-86084628D01*
X135294667Y-85560819D02*
X135913714Y-85560819D01*
X135913714Y-85560819D02*
X135580381Y-85941771D01*
X135580381Y-85941771D02*
X135723238Y-85941771D01*
X135723238Y-85941771D02*
X135818476Y-85989390D01*
X135818476Y-85989390D02*
X135866095Y-86037009D01*
X135866095Y-86037009D02*
X135913714Y-86132247D01*
X135913714Y-86132247D02*
X135913714Y-86370342D01*
X135913714Y-86370342D02*
X135866095Y-86465580D01*
X135866095Y-86465580D02*
X135818476Y-86513200D01*
X135818476Y-86513200D02*
X135723238Y-86560819D01*
X135723238Y-86560819D02*
X135437524Y-86560819D01*
X135437524Y-86560819D02*
X135342286Y-86513200D01*
X135342286Y-86513200D02*
X135294667Y-86465580D01*
X134961333Y-85036819D02*
X134628000Y-84560628D01*
X134389905Y-85036819D02*
X134389905Y-84036819D01*
X134389905Y-84036819D02*
X134770857Y-84036819D01*
X134770857Y-84036819D02*
X134866095Y-84084438D01*
X134866095Y-84084438D02*
X134913714Y-84132057D01*
X134913714Y-84132057D02*
X134961333Y-84227295D01*
X134961333Y-84227295D02*
X134961333Y-84370152D01*
X134961333Y-84370152D02*
X134913714Y-84465390D01*
X134913714Y-84465390D02*
X134866095Y-84513009D01*
X134866095Y-84513009D02*
X134770857Y-84560628D01*
X134770857Y-84560628D02*
X134389905Y-84560628D01*
X135913714Y-85036819D02*
X135342286Y-85036819D01*
X135628000Y-85036819D02*
X135628000Y-84036819D01*
X135628000Y-84036819D02*
X135532762Y-84179676D01*
X135532762Y-84179676D02*
X135437524Y-84274914D01*
X135437524Y-84274914D02*
X135342286Y-84322533D01*
X118522761Y-108500057D02*
X118427523Y-108452438D01*
X118427523Y-108452438D02*
X118332285Y-108357200D01*
X118332285Y-108357200D02*
X118189428Y-108214342D01*
X118189428Y-108214342D02*
X118094190Y-108166723D01*
X118094190Y-108166723D02*
X117998952Y-108166723D01*
X118046571Y-108404819D02*
X117951333Y-108357200D01*
X117951333Y-108357200D02*
X117856095Y-108261961D01*
X117856095Y-108261961D02*
X117808476Y-108071485D01*
X117808476Y-108071485D02*
X117808476Y-107738152D01*
X117808476Y-107738152D02*
X117856095Y-107547676D01*
X117856095Y-107547676D02*
X117951333Y-107452438D01*
X117951333Y-107452438D02*
X118046571Y-107404819D01*
X118046571Y-107404819D02*
X118237047Y-107404819D01*
X118237047Y-107404819D02*
X118332285Y-107452438D01*
X118332285Y-107452438D02*
X118427523Y-107547676D01*
X118427523Y-107547676D02*
X118475142Y-107738152D01*
X118475142Y-107738152D02*
X118475142Y-108071485D01*
X118475142Y-108071485D02*
X118427523Y-108261961D01*
X118427523Y-108261961D02*
X118332285Y-108357200D01*
X118332285Y-108357200D02*
X118237047Y-108404819D01*
X118237047Y-108404819D02*
X118046571Y-108404819D01*
X118856095Y-107500057D02*
X118903714Y-107452438D01*
X118903714Y-107452438D02*
X118998952Y-107404819D01*
X118998952Y-107404819D02*
X119237047Y-107404819D01*
X119237047Y-107404819D02*
X119332285Y-107452438D01*
X119332285Y-107452438D02*
X119379904Y-107500057D01*
X119379904Y-107500057D02*
X119427523Y-107595295D01*
X119427523Y-107595295D02*
X119427523Y-107690533D01*
X119427523Y-107690533D02*
X119379904Y-107833390D01*
X119379904Y-107833390D02*
X118808476Y-108404819D01*
X118808476Y-108404819D02*
X119427523Y-108404819D01*
X134961333Y-94896819D02*
X134628000Y-94420628D01*
X134389905Y-94896819D02*
X134389905Y-93896819D01*
X134389905Y-93896819D02*
X134770857Y-93896819D01*
X134770857Y-93896819D02*
X134866095Y-93944438D01*
X134866095Y-93944438D02*
X134913714Y-93992057D01*
X134913714Y-93992057D02*
X134961333Y-94087295D01*
X134961333Y-94087295D02*
X134961333Y-94230152D01*
X134961333Y-94230152D02*
X134913714Y-94325390D01*
X134913714Y-94325390D02*
X134866095Y-94373009D01*
X134866095Y-94373009D02*
X134770857Y-94420628D01*
X134770857Y-94420628D02*
X134389905Y-94420628D01*
X135342286Y-93992057D02*
X135389905Y-93944438D01*
X135389905Y-93944438D02*
X135485143Y-93896819D01*
X135485143Y-93896819D02*
X135723238Y-93896819D01*
X135723238Y-93896819D02*
X135818476Y-93944438D01*
X135818476Y-93944438D02*
X135866095Y-93992057D01*
X135866095Y-93992057D02*
X135913714Y-94087295D01*
X135913714Y-94087295D02*
X135913714Y-94182533D01*
X135913714Y-94182533D02*
X135866095Y-94325390D01*
X135866095Y-94325390D02*
X135294667Y-94896819D01*
X135294667Y-94896819D02*
X135913714Y-94896819D01*
X127595333Y-103070819D02*
X127262000Y-102594628D01*
X127023905Y-103070819D02*
X127023905Y-102070819D01*
X127023905Y-102070819D02*
X127404857Y-102070819D01*
X127404857Y-102070819D02*
X127500095Y-102118438D01*
X127500095Y-102118438D02*
X127547714Y-102166057D01*
X127547714Y-102166057D02*
X127595333Y-102261295D01*
X127595333Y-102261295D02*
X127595333Y-102404152D01*
X127595333Y-102404152D02*
X127547714Y-102499390D01*
X127547714Y-102499390D02*
X127500095Y-102547009D01*
X127500095Y-102547009D02*
X127404857Y-102594628D01*
X127404857Y-102594628D02*
X127023905Y-102594628D01*
X128166762Y-102499390D02*
X128071524Y-102451771D01*
X128071524Y-102451771D02*
X128023905Y-102404152D01*
X128023905Y-102404152D02*
X127976286Y-102308914D01*
X127976286Y-102308914D02*
X127976286Y-102261295D01*
X127976286Y-102261295D02*
X128023905Y-102166057D01*
X128023905Y-102166057D02*
X128071524Y-102118438D01*
X128071524Y-102118438D02*
X128166762Y-102070819D01*
X128166762Y-102070819D02*
X128357238Y-102070819D01*
X128357238Y-102070819D02*
X128452476Y-102118438D01*
X128452476Y-102118438D02*
X128500095Y-102166057D01*
X128500095Y-102166057D02*
X128547714Y-102261295D01*
X128547714Y-102261295D02*
X128547714Y-102308914D01*
X128547714Y-102308914D02*
X128500095Y-102404152D01*
X128500095Y-102404152D02*
X128452476Y-102451771D01*
X128452476Y-102451771D02*
X128357238Y-102499390D01*
X128357238Y-102499390D02*
X128166762Y-102499390D01*
X128166762Y-102499390D02*
X128071524Y-102547009D01*
X128071524Y-102547009D02*
X128023905Y-102594628D01*
X128023905Y-102594628D02*
X127976286Y-102689866D01*
X127976286Y-102689866D02*
X127976286Y-102880342D01*
X127976286Y-102880342D02*
X128023905Y-102975580D01*
X128023905Y-102975580D02*
X128071524Y-103023200D01*
X128071524Y-103023200D02*
X128166762Y-103070819D01*
X128166762Y-103070819D02*
X128357238Y-103070819D01*
X128357238Y-103070819D02*
X128452476Y-103023200D01*
X128452476Y-103023200D02*
X128500095Y-102975580D01*
X128500095Y-102975580D02*
X128547714Y-102880342D01*
X128547714Y-102880342D02*
X128547714Y-102689866D01*
X128547714Y-102689866D02*
X128500095Y-102594628D01*
X128500095Y-102594628D02*
X128452476Y-102547009D01*
X128452476Y-102547009D02*
X128357238Y-102499390D01*
X138874833Y-90342819D02*
X138541500Y-89866628D01*
X138303405Y-90342819D02*
X138303405Y-89342819D01*
X138303405Y-89342819D02*
X138684357Y-89342819D01*
X138684357Y-89342819D02*
X138779595Y-89390438D01*
X138779595Y-89390438D02*
X138827214Y-89438057D01*
X138827214Y-89438057D02*
X138874833Y-89533295D01*
X138874833Y-89533295D02*
X138874833Y-89676152D01*
X138874833Y-89676152D02*
X138827214Y-89771390D01*
X138827214Y-89771390D02*
X138779595Y-89819009D01*
X138779595Y-89819009D02*
X138684357Y-89866628D01*
X138684357Y-89866628D02*
X138303405Y-89866628D01*
X139779595Y-89342819D02*
X139303405Y-89342819D01*
X139303405Y-89342819D02*
X139255786Y-89819009D01*
X139255786Y-89819009D02*
X139303405Y-89771390D01*
X139303405Y-89771390D02*
X139398643Y-89723771D01*
X139398643Y-89723771D02*
X139636738Y-89723771D01*
X139636738Y-89723771D02*
X139731976Y-89771390D01*
X139731976Y-89771390D02*
X139779595Y-89819009D01*
X139779595Y-89819009D02*
X139827214Y-89914247D01*
X139827214Y-89914247D02*
X139827214Y-90152342D01*
X139827214Y-90152342D02*
X139779595Y-90247580D01*
X139779595Y-90247580D02*
X139731976Y-90295200D01*
X139731976Y-90295200D02*
X139636738Y-90342819D01*
X139636738Y-90342819D02*
X139398643Y-90342819D01*
X139398643Y-90342819D02*
X139303405Y-90295200D01*
X139303405Y-90295200D02*
X139255786Y-90247580D01*
X154519333Y-93577580D02*
X154471714Y-93625200D01*
X154471714Y-93625200D02*
X154328857Y-93672819D01*
X154328857Y-93672819D02*
X154233619Y-93672819D01*
X154233619Y-93672819D02*
X154090762Y-93625200D01*
X154090762Y-93625200D02*
X153995524Y-93529961D01*
X153995524Y-93529961D02*
X153947905Y-93434723D01*
X153947905Y-93434723D02*
X153900286Y-93244247D01*
X153900286Y-93244247D02*
X153900286Y-93101390D01*
X153900286Y-93101390D02*
X153947905Y-92910914D01*
X153947905Y-92910914D02*
X153995524Y-92815676D01*
X153995524Y-92815676D02*
X154090762Y-92720438D01*
X154090762Y-92720438D02*
X154233619Y-92672819D01*
X154233619Y-92672819D02*
X154328857Y-92672819D01*
X154328857Y-92672819D02*
X154471714Y-92720438D01*
X154471714Y-92720438D02*
X154519333Y-92768057D01*
X155376476Y-93006152D02*
X155376476Y-93672819D01*
X155138381Y-92625200D02*
X154900286Y-93339485D01*
X154900286Y-93339485D02*
X155519333Y-93339485D01*
X138880833Y-94406819D02*
X138547500Y-93930628D01*
X138309405Y-94406819D02*
X138309405Y-93406819D01*
X138309405Y-93406819D02*
X138690357Y-93406819D01*
X138690357Y-93406819D02*
X138785595Y-93454438D01*
X138785595Y-93454438D02*
X138833214Y-93502057D01*
X138833214Y-93502057D02*
X138880833Y-93597295D01*
X138880833Y-93597295D02*
X138880833Y-93740152D01*
X138880833Y-93740152D02*
X138833214Y-93835390D01*
X138833214Y-93835390D02*
X138785595Y-93883009D01*
X138785595Y-93883009D02*
X138690357Y-93930628D01*
X138690357Y-93930628D02*
X138309405Y-93930628D01*
X139737976Y-93740152D02*
X139737976Y-94406819D01*
X139499881Y-93359200D02*
X139261786Y-94073485D01*
X139261786Y-94073485D02*
X139880833Y-94073485D01*
X116673333Y-107293580D02*
X116625714Y-107341200D01*
X116625714Y-107341200D02*
X116482857Y-107388819D01*
X116482857Y-107388819D02*
X116387619Y-107388819D01*
X116387619Y-107388819D02*
X116244762Y-107341200D01*
X116244762Y-107341200D02*
X116149524Y-107245961D01*
X116149524Y-107245961D02*
X116101905Y-107150723D01*
X116101905Y-107150723D02*
X116054286Y-106960247D01*
X116054286Y-106960247D02*
X116054286Y-106817390D01*
X116054286Y-106817390D02*
X116101905Y-106626914D01*
X116101905Y-106626914D02*
X116149524Y-106531676D01*
X116149524Y-106531676D02*
X116244762Y-106436438D01*
X116244762Y-106436438D02*
X116387619Y-106388819D01*
X116387619Y-106388819D02*
X116482857Y-106388819D01*
X116482857Y-106388819D02*
X116625714Y-106436438D01*
X116625714Y-106436438D02*
X116673333Y-106484057D01*
X117625714Y-107388819D02*
X117054286Y-107388819D01*
X117340000Y-107388819D02*
X117340000Y-106388819D01*
X117340000Y-106388819D02*
X117244762Y-106531676D01*
X117244762Y-106531676D02*
X117149524Y-106626914D01*
X117149524Y-106626914D02*
X117054286Y-106674533D01*
X146391333Y-88751580D02*
X146343714Y-88799200D01*
X146343714Y-88799200D02*
X146200857Y-88846819D01*
X146200857Y-88846819D02*
X146105619Y-88846819D01*
X146105619Y-88846819D02*
X145962762Y-88799200D01*
X145962762Y-88799200D02*
X145867524Y-88703961D01*
X145867524Y-88703961D02*
X145819905Y-88608723D01*
X145819905Y-88608723D02*
X145772286Y-88418247D01*
X145772286Y-88418247D02*
X145772286Y-88275390D01*
X145772286Y-88275390D02*
X145819905Y-88084914D01*
X145819905Y-88084914D02*
X145867524Y-87989676D01*
X145867524Y-87989676D02*
X145962762Y-87894438D01*
X145962762Y-87894438D02*
X146105619Y-87846819D01*
X146105619Y-87846819D02*
X146200857Y-87846819D01*
X146200857Y-87846819D02*
X146343714Y-87894438D01*
X146343714Y-87894438D02*
X146391333Y-87942057D01*
X146772286Y-87942057D02*
X146819905Y-87894438D01*
X146819905Y-87894438D02*
X146915143Y-87846819D01*
X146915143Y-87846819D02*
X147153238Y-87846819D01*
X147153238Y-87846819D02*
X147248476Y-87894438D01*
X147248476Y-87894438D02*
X147296095Y-87942057D01*
X147296095Y-87942057D02*
X147343714Y-88037295D01*
X147343714Y-88037295D02*
X147343714Y-88132533D01*
X147343714Y-88132533D02*
X147296095Y-88275390D01*
X147296095Y-88275390D02*
X146724667Y-88846819D01*
X146724667Y-88846819D02*
X147343714Y-88846819D01*
D11*
%TO.C,R7*%
X126506500Y-105917276D02*
X126506500Y-106426724D01*
X125461500Y-105917276D02*
X125461500Y-106426724D01*
D12*
%TO.C,J1*%
X113700000Y-96550000D02*
X113700000Y-94676000D01*
X124950000Y-96550000D02*
X113700000Y-96550000D01*
X113700000Y-82750000D02*
X113700000Y-84150000D01*
X113700000Y-82750000D02*
X124950000Y-82750000D01*
D13*
X128770000Y-86050000D02*
G75*
G03*
X128530000Y-86050000I-120000J0D01*
G01*
X128530000Y-86050000D02*
G75*
G03*
X128770000Y-86050000I120000J0D01*
G01*
D10*
%TO.C,U3*%
X139000000Y-132588000D02*
X113600000Y-132588000D01*
X139000000Y-114808000D02*
X139000000Y-132588000D01*
X139000000Y-114808000D02*
X113600000Y-114808000D01*
X113600000Y-114808000D02*
X113600000Y-132588000D01*
D14*
X139725000Y-117348000D02*
G75*
G03*
X139475000Y-117348000I-125000J0D01*
G01*
X139475000Y-117348000D02*
G75*
G03*
X139725000Y-117348000I125000J0D01*
G01*
D12*
%TO.C,Q1*%
X121804000Y-108940000D02*
X120004000Y-108940000D01*
X120004000Y-112040000D02*
X121804000Y-112040000D01*
D15*
X123314000Y-111440000D02*
G75*
G03*
X123114000Y-111440000I-100000J0D01*
G01*
X123114000Y-111440000D02*
G75*
G03*
X123314000Y-111440000I100000J0D01*
G01*
D11*
%TO.C,Pyro1*%
X109970000Y-119250000D02*
X111300000Y-119250000D01*
X109970000Y-120580000D02*
X109970000Y-119250000D01*
X109970000Y-121850000D02*
X109970000Y-132070000D01*
X109970000Y-121850000D02*
X112630000Y-121850000D01*
X109970000Y-132070000D02*
X112630000Y-132070000D01*
X112630000Y-121850000D02*
X112630000Y-132070000D01*
%TO.C,C3*%
X130300000Y-90693267D02*
X130300000Y-90400733D01*
X131320000Y-90693267D02*
X131320000Y-90400733D01*
D16*
%TO.C,U6*%
X125042000Y-102148000D02*
G75*
G03*
X115442000Y-102148000I-4800000J0D01*
G01*
X115442000Y-102148000D02*
G75*
G03*
X125042000Y-102148000I4800000J0D01*
G01*
%TO.C,U4*%
X109695000Y-56600000D02*
X136365000Y-56600000D01*
D11*
X109695000Y-57235000D02*
X109695000Y-56600000D01*
X109695000Y-57235000D02*
X109695000Y-79460000D01*
X112235000Y-82000000D02*
X136365000Y-82000000D01*
X138905000Y-69300000D02*
X138905000Y-59140000D01*
X138905000Y-69300000D02*
X138905000Y-79460000D01*
X109695000Y-79460000D02*
G75*
G03*
X112235000Y-82000000I2540001J1D01*
G01*
X138905000Y-59140000D02*
G75*
G03*
X136365000Y-56600000I-2540000J0D01*
G01*
X136365000Y-82000000D02*
G75*
G03*
X138905000Y-79460000I0J2540000D01*
G01*
%TO.C,R6*%
X125461500Y-113181224D02*
X125461500Y-112671776D01*
X126506500Y-113181224D02*
X126506500Y-112671776D01*
%TO.C,*%
G36*
X132834161Y-52996795D02*
G01*
X132736473Y-53541943D01*
X132647305Y-54040574D01*
X132579150Y-54422770D01*
X132553079Y-54569731D01*
X132493690Y-54806206D01*
X132378177Y-54915809D01*
X132133127Y-54947013D01*
X131979583Y-54948401D01*
X131472936Y-54948401D01*
X131564528Y-54511474D01*
X131625044Y-54203231D01*
X131710599Y-53742696D01*
X131806939Y-53207266D01*
X131854197Y-52938538D01*
X132052274Y-51802529D01*
X133048395Y-51802529D01*
X132834161Y-52996795D01*
G37*
G36*
X152770184Y-52210327D02*
G01*
X152567801Y-52409361D01*
X152391132Y-52530087D01*
X152174347Y-52592076D01*
X151851616Y-52614898D01*
X151398457Y-52618125D01*
X150912860Y-52623403D01*
X150595884Y-52650328D01*
X150383178Y-52715543D01*
X150210389Y-52835687D01*
X150081405Y-52958704D01*
X149818315Y-53283942D01*
X149760292Y-53556217D01*
X149901955Y-53822628D01*
X149973854Y-53899777D01*
X150107282Y-54005897D01*
X150285480Y-54074326D01*
X150558138Y-54112981D01*
X150974945Y-54129780D01*
X151436206Y-54132804D01*
X152665530Y-54132804D01*
X152354487Y-54540602D01*
X152043444Y-54948401D01*
X150921264Y-54947965D01*
X150347013Y-54938023D01*
X149945914Y-54902723D01*
X149658667Y-54833059D01*
X149427850Y-54721172D01*
X149072762Y-54441222D01*
X148879055Y-54100093D01*
X148810572Y-53626687D01*
X148808716Y-53503693D01*
X148845179Y-53112515D01*
X148986882Y-52798660D01*
X149185566Y-52546567D01*
X149469186Y-52258479D01*
X149763767Y-52054269D01*
X150116182Y-51920290D01*
X150573304Y-51842891D01*
X151182006Y-51808425D01*
X151740674Y-51802529D01*
X153165438Y-51802529D01*
X152770184Y-52210327D01*
G37*
G36*
X124729851Y-51823421D02*
G01*
X125316670Y-51841288D01*
X125718108Y-51864389D01*
X125981744Y-51903484D01*
X126155160Y-51969332D01*
X126285935Y-52072694D01*
X126402110Y-52201575D01*
X126603335Y-52501145D01*
X126646738Y-52802177D01*
X126629763Y-52944237D01*
X126484987Y-53407080D01*
X126207624Y-53745523D01*
X125775593Y-53971389D01*
X125166817Y-54096501D01*
X124410149Y-54132804D01*
X123302762Y-54132804D01*
X123226258Y-54540602D01*
X123163385Y-54793703D01*
X123052056Y-54911943D01*
X122818214Y-54946504D01*
X122636190Y-54948401D01*
X122320935Y-54937726D01*
X122184007Y-54884550D01*
X122170956Y-54757146D01*
X122186280Y-54686245D01*
X122245108Y-54407658D01*
X122315221Y-54028096D01*
X122337098Y-53899777D01*
X122424262Y-53375465D01*
X123923653Y-53317208D01*
X124556495Y-53288316D01*
X124995580Y-53255094D01*
X125280166Y-53211141D01*
X125449514Y-53150056D01*
X125542885Y-53065438D01*
X125551890Y-53051735D01*
X125611176Y-52889336D01*
X125541606Y-52771386D01*
X125320243Y-52691743D01*
X124924154Y-52644267D01*
X124330403Y-52622814D01*
X123939301Y-52619910D01*
X122547408Y-52618125D01*
X123350460Y-51786055D01*
X124729851Y-51823421D01*
G37*
G36*
X148692203Y-52210327D02*
G01*
X148488837Y-52410142D01*
X148311222Y-52530967D01*
X148092983Y-52592664D01*
X147767748Y-52615095D01*
X147329438Y-52618125D01*
X146854556Y-52622658D01*
X146566573Y-52643652D01*
X146419423Y-52692203D01*
X146367040Y-52779406D01*
X146361927Y-52851153D01*
X146378564Y-52959223D01*
X146457219Y-53027532D01*
X146641008Y-53065109D01*
X146973046Y-53080981D01*
X147474738Y-53084180D01*
X148587548Y-53084180D01*
X148276505Y-53491979D01*
X148112478Y-53695556D01*
X147961715Y-53816776D01*
X147759857Y-53876988D01*
X147442547Y-53897541D01*
X147047181Y-53899777D01*
X146588448Y-53903816D01*
X146314908Y-53925018D01*
X146178752Y-53977008D01*
X146132173Y-54073409D01*
X146127309Y-54161933D01*
X146094227Y-54585937D01*
X145976571Y-54827433D01*
X145737065Y-54932091D01*
X145485393Y-54948401D01*
X145171041Y-54932457D01*
X145036284Y-54869153D01*
X145026991Y-54744502D01*
X145063459Y-54544665D01*
X145126991Y-54177436D01*
X145206843Y-53705359D01*
X145252160Y-53433722D01*
X145338440Y-52922509D01*
X145416633Y-52474308D01*
X145475013Y-52155681D01*
X145493343Y-52064685D01*
X145523035Y-51964512D01*
X145584807Y-51893782D01*
X145714328Y-51847374D01*
X145947268Y-51820167D01*
X146319298Y-51807037D01*
X146866087Y-51802865D01*
X147319113Y-51802529D01*
X149087456Y-51802529D01*
X148692203Y-52210327D01*
G37*
G36*
X136769350Y-52610632D02*
G01*
X135536051Y-52643507D01*
X134972069Y-52664295D01*
X134604362Y-52694830D01*
X134396205Y-52741295D01*
X134310874Y-52809873D01*
X134302753Y-52851153D01*
X134344191Y-52930819D01*
X134491995Y-52989000D01*
X134781397Y-53031914D01*
X135247633Y-53065778D01*
X135623317Y-53084180D01*
X136211835Y-53115168D01*
X136611552Y-53152219D01*
X136866679Y-53203798D01*
X137021431Y-53278372D01*
X137108867Y-53368606D01*
X137259581Y-53721853D01*
X137207691Y-54121398D01*
X137107821Y-54348934D01*
X136970497Y-54561459D01*
X136787011Y-54717984D01*
X136522730Y-54826676D01*
X136143020Y-54895702D01*
X135613247Y-54933229D01*
X134898779Y-54947425D01*
X134565699Y-54948401D01*
X132800619Y-54948401D01*
X133195872Y-54540602D01*
X133591126Y-54132804D01*
X134843045Y-54132804D01*
X135431449Y-54121367D01*
X135869294Y-54089103D01*
X136123710Y-54039088D01*
X136171764Y-54008539D01*
X136212792Y-53907660D01*
X136164764Y-53839252D01*
X135993086Y-53795327D01*
X135663166Y-53767900D01*
X135140411Y-53748985D01*
X135035340Y-53746183D01*
X134342249Y-53705639D01*
X133851489Y-53616683D01*
X133534983Y-53465741D01*
X133364653Y-53239239D01*
X133312422Y-52923603D01*
X133312386Y-52913221D01*
X133422047Y-52449924D01*
X133593307Y-52187696D01*
X133874227Y-51860786D01*
X135719683Y-51823735D01*
X137565138Y-51786684D01*
X136769350Y-52610632D01*
G37*
G36*
X129786667Y-51813248D02*
G01*
X130300977Y-51852295D01*
X130665262Y-51930017D01*
X130920676Y-52056756D01*
X131108372Y-52242855D01*
X131167648Y-52326921D01*
X131285974Y-52701260D01*
X131231004Y-53123296D01*
X131025628Y-53514969D01*
X130744875Y-53768789D01*
X130403818Y-53976198D01*
X130761301Y-54462299D01*
X131118784Y-54948401D01*
X130427969Y-54948401D01*
X130038047Y-54940662D01*
X129807297Y-54895405D01*
X129661903Y-54779566D01*
X129528052Y-54560083D01*
X129517541Y-54540602D01*
X129385560Y-54317352D01*
X129248332Y-54195382D01*
X129034955Y-54144102D01*
X128674524Y-54132921D01*
X128572363Y-54132804D01*
X127846799Y-54132804D01*
X127770295Y-54540602D01*
X127707421Y-54793703D01*
X127596093Y-54911943D01*
X127362250Y-54946504D01*
X127180227Y-54948401D01*
X126864972Y-54937726D01*
X126728044Y-54884550D01*
X126714993Y-54757146D01*
X126730316Y-54686245D01*
X126789166Y-54407664D01*
X126859334Y-54028109D01*
X126881237Y-53899777D01*
X126968504Y-53375465D01*
X128480124Y-53344146D01*
X129124184Y-53325968D01*
X129573673Y-53299226D01*
X129867021Y-53258732D01*
X130042662Y-53199297D01*
X130135412Y-53120678D01*
X130233161Y-52934385D01*
X130193561Y-52797992D01*
X129996111Y-52704898D01*
X129620309Y-52648504D01*
X129045651Y-52622208D01*
X128574345Y-52618125D01*
X127127222Y-52618125D01*
X127452602Y-52210331D01*
X127777982Y-51802536D01*
X129081177Y-51802533D01*
X129786667Y-51813248D01*
G37*
G36*
X142455654Y-51911820D02*
G01*
X142488939Y-51948171D01*
X142546819Y-52115337D01*
X142618631Y-52463932D01*
X142695358Y-52943491D01*
X142767983Y-53503548D01*
X142770009Y-53521107D01*
X142934066Y-54948401D01*
X142441375Y-54948401D01*
X142131987Y-54937441D01*
X141979896Y-54861595D01*
X141912516Y-54656407D01*
X141883710Y-54453217D01*
X141833351Y-54023567D01*
X141793635Y-53608146D01*
X141789186Y-53550235D01*
X141759634Y-53142437D01*
X141088847Y-54045419D01*
X140758185Y-54476530D01*
X140517346Y-54747290D01*
X140328101Y-54892039D01*
X140152222Y-54945119D01*
X140083618Y-54948401D01*
X139840248Y-54921459D01*
X139663122Y-54811375D01*
X139516000Y-54574261D01*
X139362642Y-54166231D01*
X139313940Y-54016291D01*
X139190492Y-53653919D01*
X139084946Y-53386342D01*
X139034833Y-53292371D01*
X138957072Y-53351316D01*
X138814931Y-53580703D01*
X138634625Y-53936278D01*
X138568933Y-54078839D01*
X138372522Y-54506390D01*
X138229603Y-54764171D01*
X138098526Y-54895132D01*
X137937644Y-54942225D01*
X137725742Y-54948401D01*
X137439129Y-54925214D01*
X137283295Y-54867495D01*
X137273854Y-54846862D01*
X137323566Y-54689137D01*
X137456480Y-54374954D01*
X137648258Y-53954585D01*
X137874567Y-53478301D01*
X138111069Y-52996376D01*
X138333430Y-52559082D01*
X138517314Y-52216691D01*
X138638386Y-52019476D01*
X138648838Y-52006428D01*
X138913765Y-51838088D01*
X139222668Y-51819264D01*
X139470139Y-51956247D01*
X139471064Y-51957356D01*
X139573785Y-52138525D01*
X139723670Y-52470229D01*
X139889717Y-52883472D01*
X139902999Y-52918594D01*
X140054562Y-53313513D01*
X140174870Y-53612465D01*
X140240764Y-53758152D01*
X140244321Y-53763049D01*
X140325860Y-53695615D01*
X140505954Y-53482491D01*
X140747760Y-53167645D01*
X140781302Y-53122223D01*
X141078376Y-52728782D01*
X141366366Y-52364857D01*
X141570945Y-52122942D01*
X141883652Y-51881868D01*
X142199195Y-51807564D01*
X142455654Y-51911820D01*
G37*
D16*
%TO.C,J3*%
X139700000Y-114046000D02*
X165100000Y-114046000D01*
X139700000Y-122936000D02*
X139700000Y-114046000D01*
X139700000Y-131826000D02*
X139700000Y-122936000D01*
X139700000Y-131826000D02*
X165100000Y-131826000D01*
X165100000Y-114046000D02*
X165100000Y-131826000D01*
%TO.C,G\u002A\u002A\u002A*%
G36*
X132865021Y-133673244D02*
G01*
X132894050Y-133706881D01*
X132870480Y-133795512D01*
X132866497Y-133806968D01*
X132784163Y-133946256D01*
X132666681Y-134005977D01*
X132586140Y-134001643D01*
X132521760Y-133971966D01*
X132512239Y-133910333D01*
X132554789Y-133794487D01*
X132559015Y-133785155D01*
X132623438Y-133698363D01*
X132729471Y-133668837D01*
X132763687Y-133667953D01*
X132865021Y-133673244D01*
G37*
G36*
X132527756Y-134551942D02*
G01*
X132542539Y-134591969D01*
X132541088Y-134596080D01*
X132519547Y-134654951D01*
X132471385Y-134787761D01*
X132401173Y-134981869D01*
X132313482Y-135224630D01*
X132212881Y-135503403D01*
X132136363Y-135715598D01*
X132028335Y-136011723D01*
X131928041Y-136279981D01*
X131840356Y-136507865D01*
X131770153Y-136682866D01*
X131722305Y-136792476D01*
X131704594Y-136823728D01*
X131620753Y-136857217D01*
X131571908Y-136854497D01*
X131544625Y-136849705D01*
X131524345Y-136842828D01*
X131513772Y-136824427D01*
X131515615Y-136785057D01*
X131532578Y-136715280D01*
X131567369Y-136605652D01*
X131622693Y-136446732D01*
X131701257Y-136229079D01*
X131805767Y-135943251D01*
X131931331Y-135600562D01*
X132051031Y-135274857D01*
X132144536Y-135025394D01*
X132216828Y-134841829D01*
X132272890Y-134713817D01*
X132317704Y-134631014D01*
X132356254Y-134583075D01*
X132393521Y-134559656D01*
X132434489Y-134550413D01*
X132437326Y-134550065D01*
X132527756Y-134551942D01*
G37*
G36*
X135615085Y-133439210D02*
G01*
X135573346Y-133532723D01*
X135492697Y-133697406D01*
X135484510Y-133713968D01*
X135420298Y-133856515D01*
X135337000Y-134059518D01*
X135245216Y-134296323D01*
X135155546Y-134540275D01*
X135152394Y-134549127D01*
X134990821Y-134985030D01*
X134798567Y-135473522D01*
X134587633Y-135985661D01*
X134370018Y-136492503D01*
X134157723Y-136965104D01*
X134093975Y-137102031D01*
X133831548Y-137660202D01*
X133629020Y-137683030D01*
X133410621Y-137745284D01*
X133254640Y-137836936D01*
X133082788Y-137968014D01*
X133184418Y-137825287D01*
X133334367Y-137679473D01*
X133544306Y-137562970D01*
X133646947Y-137526434D01*
X133681193Y-137479628D01*
X133740881Y-137359953D01*
X133820006Y-137181031D01*
X133912562Y-136956481D01*
X134012544Y-136699924D01*
X134019681Y-136681078D01*
X134194669Y-136229981D01*
X134376954Y-135781749D01*
X134561979Y-135346071D01*
X134745186Y-134932635D01*
X134922016Y-134551131D01*
X135087912Y-134211246D01*
X135238316Y-133922668D01*
X135368671Y-133695088D01*
X135474417Y-133538192D01*
X135525039Y-133481200D01*
X135589112Y-133423897D01*
X135619734Y-133406418D01*
X135615085Y-133439210D01*
G37*
G36*
X135788548Y-133649515D02*
G01*
X135784379Y-133675820D01*
X135767949Y-133731461D01*
X135737084Y-133822625D01*
X135689613Y-133955495D01*
X135623362Y-134136257D01*
X135536157Y-134371097D01*
X135425826Y-134666198D01*
X135290195Y-135027745D01*
X135127093Y-135461925D01*
X134934344Y-135974921D01*
X134893476Y-136083714D01*
X134167541Y-138016323D01*
X133900255Y-138002430D01*
X133688211Y-138006799D01*
X133519450Y-138050721D01*
X133455509Y-138080497D01*
X133278048Y-138172456D01*
X133363372Y-138078175D01*
X133513408Y-137955387D01*
X133687727Y-137875079D01*
X133807007Y-137855272D01*
X133872824Y-137841254D01*
X133928357Y-137787046D01*
X133987932Y-137674419D01*
X134033009Y-137567682D01*
X134120761Y-137352832D01*
X134230401Y-137087434D01*
X134357247Y-136782563D01*
X134496612Y-136449297D01*
X134643813Y-136098711D01*
X134794165Y-135741882D01*
X134942982Y-135389886D01*
X135085580Y-135053799D01*
X135217275Y-134744698D01*
X135333382Y-134473658D01*
X135429216Y-134251757D01*
X135500092Y-134090070D01*
X135541326Y-133999674D01*
X135546165Y-133990055D01*
X135629658Y-133849522D01*
X135718636Y-133723181D01*
X135726077Y-133713968D01*
X135749221Y-133684774D01*
X135768796Y-133660178D01*
X135782630Y-133646363D01*
X135788548Y-133649515D01*
G37*
G36*
X131953441Y-133631969D02*
G01*
X131938285Y-133677563D01*
X131895366Y-133798979D01*
X131828507Y-133985599D01*
X131741530Y-134226806D01*
X131638259Y-134511982D01*
X131522514Y-134830509D01*
X131470289Y-134973914D01*
X131349381Y-135309927D01*
X131239540Y-135623323D01*
X131144689Y-135902257D01*
X131068751Y-136134885D01*
X131015652Y-136309361D01*
X130989313Y-136413841D01*
X130987137Y-136432415D01*
X131007042Y-136537255D01*
X131082540Y-136588390D01*
X131104917Y-136594674D01*
X131191508Y-136639252D01*
X131196946Y-136691343D01*
X131173479Y-136777403D01*
X131171195Y-136800702D01*
X131134158Y-136837597D01*
X131044328Y-136842849D01*
X130933626Y-136820775D01*
X130833970Y-136775692D01*
X130803079Y-136750924D01*
X130729205Y-136620639D01*
X130713344Y-136509348D01*
X130729456Y-136429942D01*
X130773999Y-136276220D01*
X130843043Y-136060020D01*
X130932660Y-135793181D01*
X131038920Y-135487538D01*
X131157895Y-135154929D01*
X131213521Y-135002374D01*
X131352847Y-134623489D01*
X131464939Y-134322177D01*
X131553846Y-134089463D01*
X131623616Y-133916370D01*
X131678300Y-133793923D01*
X131721945Y-133713146D01*
X131758601Y-133665064D01*
X131792317Y-133640699D01*
X131827141Y-133631078D01*
X131832422Y-133630386D01*
X131921468Y-133624912D01*
X131953441Y-133631969D01*
G37*
G36*
X145941782Y-134534790D02*
G01*
X145921338Y-134627649D01*
X145894213Y-134683297D01*
X145809380Y-134755866D01*
X145728759Y-134772301D01*
X145556712Y-134812365D01*
X145392471Y-134917663D01*
X145281519Y-135049128D01*
X145250464Y-135116655D01*
X145195132Y-135251334D01*
X145121628Y-135437043D01*
X145036058Y-135657662D01*
X144944529Y-135897069D01*
X144853145Y-136139144D01*
X144768013Y-136367765D01*
X144695238Y-136566811D01*
X144640926Y-136720161D01*
X144611183Y-136811695D01*
X144607426Y-136828938D01*
X144567364Y-136838807D01*
X144470936Y-136842953D01*
X144470054Y-136842953D01*
X144332682Y-136842953D01*
X144417345Y-136624385D01*
X144458508Y-136515140D01*
X144524676Y-136336009D01*
X144609733Y-136103710D01*
X144707561Y-135834964D01*
X144812044Y-135546491D01*
X144838208Y-135474022D01*
X144949300Y-135167322D01*
X145034840Y-134936529D01*
X145100179Y-134770866D01*
X145150666Y-134659555D01*
X145191652Y-134591819D01*
X145228486Y-134556878D01*
X145266519Y-134543956D01*
X145300740Y-134542229D01*
X145389988Y-134554568D01*
X145409504Y-134603124D01*
X145404073Y-134630176D01*
X145397330Y-134677517D01*
X145423121Y-134687229D01*
X145499115Y-134657240D01*
X145600237Y-134607169D01*
X145783347Y-134525097D01*
X145896490Y-134500788D01*
X145941782Y-134534790D01*
G37*
G36*
X139931203Y-134514180D02*
G01*
X140075806Y-134589873D01*
X140163255Y-134724174D01*
X140183568Y-134909877D01*
X140161033Y-135036885D01*
X140107888Y-135118943D01*
X140008580Y-135140417D01*
X139922649Y-135130212D01*
X139897041Y-135080536D01*
X139904195Y-135001952D01*
X139896677Y-134854868D01*
X139833260Y-134764230D01*
X139729982Y-134729082D01*
X139602877Y-134748469D01*
X139467984Y-134821437D01*
X139341336Y-134947030D01*
X139280499Y-135039092D01*
X139213380Y-135177144D01*
X139129387Y-135376470D01*
X139038493Y-135610318D01*
X138950668Y-135851934D01*
X138875883Y-136074565D01*
X138824111Y-136251459D01*
X138815865Y-136285697D01*
X138798408Y-136469214D01*
X138837459Y-136595516D01*
X138929255Y-136655313D01*
X138967003Y-136658895D01*
X139168155Y-136616730D01*
X139327569Y-136494251D01*
X139390914Y-136400403D01*
X139470358Y-136289098D01*
X139563089Y-136247076D01*
X139601172Y-136244765D01*
X139687428Y-136252246D01*
X139704788Y-136293201D01*
X139679672Y-136371305D01*
X139570984Y-136555715D01*
X139408460Y-136708067D01*
X139212974Y-136819443D01*
X139005399Y-136880922D01*
X138806609Y-136883587D01*
X138637478Y-136818519D01*
X138635781Y-136817337D01*
X138561359Y-136721114D01*
X138534788Y-136566462D01*
X138556382Y-136347971D01*
X138626456Y-136060233D01*
X138692078Y-135851579D01*
X138826670Y-135473686D01*
X138952993Y-135175712D01*
X139077959Y-134946807D01*
X139208484Y-134776124D01*
X139351482Y-134652811D01*
X139510471Y-134567432D01*
X139739430Y-134504298D01*
X139931203Y-134514180D01*
G37*
G36*
X144563118Y-133856070D02*
G01*
X144595996Y-133880073D01*
X144595344Y-133941757D01*
X144562173Y-134058861D01*
X144515397Y-134197120D01*
X144466745Y-134344437D01*
X144433389Y-134456735D01*
X144423368Y-134503418D01*
X144464144Y-134527963D01*
X144565728Y-134541378D01*
X144603119Y-134542229D01*
X144718120Y-134548392D01*
X144762856Y-134575068D01*
X144759411Y-134631931D01*
X144721000Y-134692019D01*
X144630711Y-134724157D01*
X144525827Y-134735463D01*
X144315701Y-134749294D01*
X144026407Y-135531540D01*
X143933099Y-135788801D01*
X143852086Y-136021620D01*
X143788612Y-136214144D01*
X143747926Y-136350524D01*
X143735132Y-136411685D01*
X143772128Y-136532565D01*
X143885975Y-136605886D01*
X143945985Y-136619976D01*
X144014407Y-136647293D01*
X144013759Y-136714171D01*
X144004986Y-136739421D01*
X143932845Y-136816774D01*
X143813159Y-136846351D01*
X143677517Y-136827354D01*
X143557509Y-136758987D01*
X143549093Y-136750924D01*
X143497771Y-136683583D01*
X143470852Y-136599533D01*
X143470341Y-136487170D01*
X143498245Y-136334892D01*
X143556571Y-136131095D01*
X143647325Y-135864176D01*
X143751998Y-135577555D01*
X143843883Y-135325950D01*
X143921663Y-135104113D01*
X143980588Y-134926344D01*
X144015905Y-134806942D01*
X144023388Y-134760798D01*
X143967383Y-134733853D01*
X143895794Y-134726287D01*
X143817398Y-134710213D01*
X143808536Y-134648123D01*
X143811847Y-134634258D01*
X143857574Y-134566242D01*
X143961625Y-134542720D01*
X143988497Y-134542229D01*
X144104748Y-134525938D01*
X144162996Y-134465853D01*
X144173055Y-134438696D01*
X144255422Y-134187767D01*
X144325128Y-134015372D01*
X144388505Y-133909994D01*
X144451886Y-133860120D01*
X144495696Y-133852011D01*
X144563118Y-133856070D01*
G37*
G36*
X138284131Y-134516891D02*
G01*
X138286926Y-134517403D01*
X138410747Y-134560270D01*
X138488220Y-134650067D01*
X138515883Y-134709051D01*
X138545237Y-134809345D01*
X138551019Y-134926873D01*
X138530524Y-135075502D01*
X138481044Y-135269096D01*
X138399870Y-135521523D01*
X138304699Y-135790583D01*
X138150690Y-136168857D01*
X137994090Y-136459358D01*
X137832230Y-136666340D01*
X137682245Y-136783389D01*
X137484051Y-136861289D01*
X137278799Y-136885618D01*
X137097899Y-136854754D01*
X137025274Y-136817337D01*
X136947813Y-136714842D01*
X136921894Y-136549443D01*
X136926157Y-136511191D01*
X137167345Y-136511191D01*
X137199512Y-136590378D01*
X137303382Y-136649910D01*
X137444239Y-136647201D01*
X137594065Y-136585155D01*
X137651246Y-136543523D01*
X137739383Y-136437319D01*
X137840056Y-136265300D01*
X137945810Y-136046968D01*
X138049191Y-135801824D01*
X138142742Y-135549370D01*
X138219008Y-135309107D01*
X138270533Y-135100536D01*
X138289862Y-134943158D01*
X138284492Y-134887125D01*
X138221560Y-134784234D01*
X138113502Y-134742949D01*
X137979764Y-134759302D01*
X137839791Y-134829326D01*
X137713030Y-134949054D01*
X137668678Y-135012762D01*
X137609224Y-135130652D01*
X137531389Y-135312498D01*
X137444024Y-135534346D01*
X137355978Y-135772243D01*
X137276100Y-136002235D01*
X137213240Y-136200370D01*
X137176248Y-136342695D01*
X137175070Y-136348802D01*
X137167345Y-136511191D01*
X136926157Y-136511191D01*
X136947743Y-136317516D01*
X137025589Y-136015434D01*
X137087671Y-135826616D01*
X137227623Y-135448060D01*
X137358288Y-135149761D01*
X137486672Y-134921400D01*
X137619780Y-134752659D01*
X137764618Y-134633219D01*
X137928194Y-134552762D01*
X137960162Y-134541625D01*
X138122475Y-134512028D01*
X138284131Y-134516891D01*
G37*
G36*
X147362746Y-134550093D02*
G01*
X147382027Y-134562237D01*
X147384019Y-134594769D01*
X147364890Y-134654836D01*
X147320811Y-134749584D01*
X147247953Y-134886161D01*
X147142484Y-135071711D01*
X147000575Y-135313383D01*
X146818397Y-135618321D01*
X146592119Y-135993674D01*
X146565502Y-136037700D01*
X146330331Y-136425488D01*
X146136500Y-136742030D01*
X145978560Y-136995326D01*
X145851066Y-137193380D01*
X145748570Y-137344194D01*
X145665625Y-137455769D01*
X145596785Y-137536109D01*
X145536603Y-137593215D01*
X145479632Y-137635089D01*
X145477119Y-137636703D01*
X145327114Y-137713864D01*
X145183150Y-137757059D01*
X145065500Y-137764340D01*
X144994435Y-137733761D01*
X144984043Y-137684064D01*
X145036532Y-137618915D01*
X145154527Y-137553446D01*
X145205986Y-137533820D01*
X145329991Y-137479680D01*
X145431752Y-137400968D01*
X145536294Y-137275262D01*
X145605411Y-137175933D01*
X145664513Y-137087700D01*
X145712098Y-137010873D01*
X145750830Y-136933720D01*
X145783375Y-136844510D01*
X145812397Y-136731511D01*
X145840559Y-136582991D01*
X145870528Y-136387220D01*
X145904967Y-136132466D01*
X145946540Y-135806998D01*
X145984119Y-135508533D01*
X146102897Y-134565236D01*
X146256812Y-134550491D01*
X146359927Y-134545827D01*
X146394102Y-134576330D01*
X146381866Y-134667044D01*
X146377922Y-134685109D01*
X146359774Y-134779727D01*
X146330415Y-134946586D01*
X146293022Y-135167029D01*
X146250772Y-135422398D01*
X146219391Y-135615797D01*
X146173124Y-135914547D01*
X146144414Y-136128064D01*
X146132801Y-136261364D01*
X146137825Y-136319462D01*
X146155399Y-136312697D01*
X146196247Y-136248126D01*
X146274434Y-136116899D01*
X146382090Y-135932517D01*
X146511342Y-135708481D01*
X146654320Y-135458292D01*
X146685226Y-135403917D01*
X146828978Y-135154493D01*
X146960561Y-134933194D01*
X147072313Y-134752348D01*
X147156571Y-134624286D01*
X147205671Y-134561335D01*
X147211447Y-134557256D01*
X147303640Y-134545475D01*
X147362746Y-134550093D01*
G37*
G36*
X143200809Y-134546067D02*
G01*
X143328932Y-134649283D01*
X143358750Y-134699074D01*
X143390911Y-134786532D01*
X143396376Y-134881348D01*
X143374546Y-135015018D01*
X143350812Y-135116000D01*
X143300907Y-135299412D01*
X143245955Y-135473515D01*
X143210585Y-135568854D01*
X143141032Y-135735319D01*
X142668237Y-135748466D01*
X142195443Y-135761613D01*
X142087627Y-136106173D01*
X142025900Y-136339028D01*
X142012034Y-136501152D01*
X142048332Y-136601772D01*
X142137092Y-136650116D01*
X142225190Y-136657872D01*
X142407384Y-136614293D01*
X142568180Y-136484313D01*
X142651350Y-136371305D01*
X142723181Y-136299039D01*
X142816158Y-136250976D01*
X142900946Y-136236133D01*
X142948210Y-136263528D01*
X142950733Y-136279276D01*
X142919079Y-136367711D01*
X142838404Y-136489597D01*
X142729201Y-136618076D01*
X142611964Y-136726287D01*
X142606394Y-136730580D01*
X142432759Y-136825077D01*
X142233431Y-136876619D01*
X142039534Y-136881464D01*
X141882193Y-136835873D01*
X141858060Y-136820526D01*
X141780251Y-136717007D01*
X141753477Y-136552806D01*
X141778004Y-136323635D01*
X141854094Y-136025204D01*
X141919193Y-135826616D01*
X142047108Y-135480705D01*
X142306702Y-135480705D01*
X142322251Y-135520203D01*
X142380923Y-135542901D01*
X142500749Y-135552903D01*
X142631151Y-135554548D01*
X142955601Y-135554548D01*
X143023283Y-135392561D01*
X143091193Y-135188410D01*
X143121826Y-135002182D01*
X143113461Y-134855910D01*
X143071368Y-134776805D01*
X142965062Y-134739751D01*
X142823675Y-134749387D01*
X142687061Y-134798984D01*
X142615748Y-134853727D01*
X142547169Y-134950032D01*
X142467303Y-135090183D01*
X142390841Y-135244372D01*
X142332474Y-135382796D01*
X142306894Y-135475648D01*
X142306702Y-135480705D01*
X142047108Y-135480705D01*
X142059487Y-135447230D01*
X142190621Y-135148242D01*
X142319661Y-134919463D01*
X142453671Y-134750704D01*
X142599720Y-134631775D01*
X142764871Y-134552488D01*
X142813866Y-134536491D01*
X143023442Y-134506776D01*
X143200809Y-134546067D01*
G37*
G36*
X133825724Y-134512478D02*
G01*
X133947704Y-134582401D01*
X134014442Y-134717944D01*
X134024093Y-134815293D01*
X134009038Y-134900630D01*
X133967595Y-135053831D01*
X133905346Y-135258708D01*
X133827872Y-135499073D01*
X133740754Y-135758741D01*
X133649575Y-136021523D01*
X133559916Y-136271233D01*
X133477360Y-136491684D01*
X133407486Y-136666689D01*
X133355878Y-136780060D01*
X133335463Y-136812338D01*
X133264183Y-136837307D01*
X133205253Y-136835346D01*
X133174357Y-136825068D01*
X133158489Y-136798824D01*
X133160513Y-136744941D01*
X133183294Y-136651742D01*
X133229695Y-136507551D01*
X133302581Y-136300694D01*
X133404817Y-136019495D01*
X133406573Y-136014693D01*
X133528306Y-135681398D01*
X133621244Y-135423497D01*
X133688137Y-135229931D01*
X133731739Y-135089642D01*
X133754802Y-134991570D01*
X133760078Y-134924657D01*
X133750318Y-134877844D01*
X133728276Y-134840072D01*
X133705940Y-134811764D01*
X133619008Y-134740856D01*
X133508499Y-134741867D01*
X133498768Y-134744218D01*
X133401390Y-134781758D01*
X133314784Y-134849287D01*
X133231846Y-134958332D01*
X133145475Y-135120418D01*
X133048567Y-135347070D01*
X132934019Y-135649813D01*
X132924439Y-135676127D01*
X132831080Y-135932960D01*
X132741258Y-136179819D01*
X132663089Y-136394420D01*
X132604686Y-136554479D01*
X132587528Y-136601377D01*
X132528497Y-136743832D01*
X132474840Y-136817272D01*
X132409733Y-136841996D01*
X132387272Y-136842953D01*
X132302618Y-136830817D01*
X132276228Y-136808443D01*
X132291681Y-136757550D01*
X132334823Y-136632249D01*
X132401403Y-136444443D01*
X132487172Y-136206032D01*
X132587879Y-135928920D01*
X132682879Y-135669584D01*
X132807588Y-135331630D01*
X132905785Y-135070270D01*
X132982180Y-134875530D01*
X133041482Y-134737432D01*
X133088401Y-134646000D01*
X133127646Y-134591258D01*
X133163927Y-134563229D01*
X133201953Y-134551938D01*
X133211078Y-134550703D01*
X133297024Y-134552013D01*
X133311215Y-134591917D01*
X133306833Y-134605175D01*
X133305374Y-134640883D01*
X133354603Y-134632444D01*
X133454887Y-134585197D01*
X133658214Y-134512101D01*
X133825724Y-134512478D01*
G37*
G36*
X136789503Y-133629680D02*
G01*
X136976402Y-133655890D01*
X137102132Y-133705052D01*
X137181589Y-133781649D01*
X137206327Y-133826506D01*
X137232784Y-133975705D01*
X137211714Y-134176766D01*
X137151153Y-134408190D01*
X137059136Y-134648475D01*
X136943701Y-134876122D01*
X136812882Y-135069630D01*
X136696544Y-135190429D01*
X136588027Y-135271237D01*
X136503668Y-135318974D01*
X136482415Y-135324475D01*
X136459833Y-135367816D01*
X136437161Y-135487167D01*
X136415793Y-135666521D01*
X136397121Y-135889871D01*
X136382538Y-136141211D01*
X136373437Y-136404533D01*
X136371041Y-136604434D01*
X136368438Y-136745709D01*
X136353002Y-136816576D01*
X136312826Y-136838651D01*
X136244292Y-136834506D01*
X136117752Y-136819946D01*
X136134780Y-136115478D01*
X136151807Y-135411011D01*
X135928077Y-135425261D01*
X135704348Y-135439511D01*
X135450905Y-136141150D01*
X135355801Y-136402381D01*
X135284597Y-136589241D01*
X135230591Y-136714151D01*
X135187081Y-136789532D01*
X135147366Y-136827806D01*
X135104743Y-136841394D01*
X135072293Y-136842871D01*
X134947123Y-136842953D01*
X135125274Y-136348298D01*
X135238056Y-136036148D01*
X135359320Y-135702270D01*
X135484429Y-135359263D01*
X135560345Y-135151921D01*
X135819631Y-135151921D01*
X135859244Y-135178651D01*
X135962530Y-135188241D01*
X136103122Y-135182579D01*
X136254654Y-135163556D01*
X136390759Y-135133060D01*
X136462860Y-135105835D01*
X136584054Y-135010832D01*
X136700050Y-134860174D01*
X136803546Y-134673509D01*
X136887241Y-134470486D01*
X136943834Y-134270754D01*
X136966022Y-134093962D01*
X136946504Y-133959758D01*
X136908937Y-133905444D01*
X136811222Y-133870470D01*
X136639089Y-133858897D01*
X136553271Y-133861215D01*
X136267531Y-133875019D01*
X136044068Y-134496214D01*
X135964189Y-134720374D01*
X135896795Y-134913514D01*
X135847509Y-135059209D01*
X135821951Y-135141034D01*
X135819631Y-135151921D01*
X135560345Y-135151921D01*
X135608747Y-135019725D01*
X135727638Y-134696254D01*
X135836466Y-134401451D01*
X135930593Y-134147913D01*
X136005385Y-133948240D01*
X136056205Y-133815030D01*
X136073110Y-133772609D01*
X136136064Y-133621939D01*
X136526539Y-133621939D01*
X136789503Y-133629680D01*
G37*
G36*
X141335656Y-133627914D02*
G01*
X141370183Y-133671591D01*
X141364561Y-133702464D01*
X141301666Y-133866518D01*
X141223644Y-134076542D01*
X141135596Y-134318082D01*
X141042621Y-134576685D01*
X140949821Y-134837895D01*
X140862294Y-135087259D01*
X140785141Y-135310322D01*
X140723463Y-135492629D01*
X140682359Y-135619726D01*
X140666929Y-135677160D01*
X140667185Y-135678920D01*
X140703002Y-135653194D01*
X140791057Y-135570585D01*
X140920829Y-135441521D01*
X141081798Y-135276429D01*
X141231421Y-135119655D01*
X141432645Y-134908449D01*
X141583162Y-134755782D01*
X141694416Y-134652321D01*
X141777851Y-134588733D01*
X141844911Y-134555684D01*
X141907040Y-134543844D01*
X141938586Y-134542953D01*
X142031553Y-134551421D01*
X142059180Y-134571534D01*
X142053622Y-134577444D01*
X142005542Y-134621982D01*
X141907615Y-134719079D01*
X141773661Y-134854841D01*
X141617501Y-135015377D01*
X141602324Y-135031089D01*
X141197041Y-135450928D01*
X141249750Y-136127565D01*
X141267277Y-136366230D01*
X141280209Y-136569868D01*
X141287663Y-136722064D01*
X141288755Y-136806404D01*
X141286917Y-136817861D01*
X141215057Y-136851599D01*
X141121862Y-136868371D01*
X141055195Y-136860795D01*
X141048521Y-136854632D01*
X141036897Y-136796297D01*
X141022490Y-136665266D01*
X141007106Y-136480761D01*
X140992552Y-136262000D01*
X140992116Y-136254572D01*
X140976959Y-136039474D01*
X140959577Y-135862408D01*
X140942054Y-135740973D01*
X140926472Y-135692770D01*
X140925609Y-135692591D01*
X140872498Y-135725947D01*
X140783307Y-135811768D01*
X140676889Y-135928684D01*
X140572098Y-136055325D01*
X140487786Y-136170322D01*
X140453252Y-136227999D01*
X140399875Y-136349432D01*
X140338314Y-136511715D01*
X140307607Y-136601377D01*
X140256861Y-136741231D01*
X140210162Y-136813595D01*
X140148547Y-136840085D01*
X140095678Y-136842953D01*
X139962703Y-136842953D01*
X140141229Y-136348298D01*
X140363438Y-135733576D01*
X140557952Y-135197512D01*
X140724320Y-134741332D01*
X140862089Y-134366265D01*
X140970807Y-134073536D01*
X141050022Y-133864373D01*
X141099283Y-133740003D01*
X141114377Y-133706396D01*
X141176918Y-133645801D01*
X141260956Y-133619479D01*
X141335656Y-133627914D01*
G37*
G36*
X130704351Y-133593531D02*
G01*
X130861882Y-133655823D01*
X130973448Y-133778082D01*
X130989901Y-133812671D01*
X131014652Y-133907111D01*
X131016566Y-134027045D01*
X130993166Y-134183387D01*
X130941977Y-134387048D01*
X130860523Y-134648941D01*
X130746328Y-134979979D01*
X130688675Y-135140417D01*
X130528254Y-135571481D01*
X130388853Y-135920354D01*
X130267438Y-136193679D01*
X130160977Y-136398095D01*
X130066436Y-136540242D01*
X130030079Y-136582422D01*
X129830784Y-136746890D01*
X129613640Y-136849660D01*
X129397085Y-136886958D01*
X129199553Y-136855008D01*
X129069872Y-136779013D01*
X128989779Y-136695504D01*
X128954920Y-136603430D01*
X128951034Y-136463151D01*
X128951567Y-136450204D01*
X128964884Y-136362349D01*
X129204842Y-136362349D01*
X129205537Y-136437812D01*
X129229772Y-136499586D01*
X129254652Y-136539724D01*
X129365976Y-136637058D01*
X129515418Y-136653294D01*
X129697017Y-136588118D01*
X129736942Y-136565121D01*
X129833619Y-136485633D01*
X129926488Y-136360363D01*
X130028197Y-136171078D01*
X130066487Y-136090092D01*
X130148246Y-135901386D01*
X130241805Y-135666414D01*
X130341566Y-135401434D01*
X130441930Y-135122703D01*
X130537299Y-134846476D01*
X130622073Y-134589012D01*
X130690655Y-134366568D01*
X130737444Y-134195399D01*
X130756842Y-134091763D01*
X130757064Y-134084900D01*
X130722717Y-133939564D01*
X130631657Y-133850036D01*
X130501852Y-133818347D01*
X130351271Y-133846531D01*
X130197884Y-133936618D01*
X130119288Y-134012772D01*
X130014434Y-134154921D01*
X129914062Y-134326426D01*
X129882940Y-134390966D01*
X129807005Y-134573843D01*
X129712037Y-134819857D01*
X129606863Y-135104437D01*
X129500310Y-135403008D01*
X129401205Y-135690998D01*
X129318376Y-135943835D01*
X129279266Y-136071484D01*
X129228985Y-136248479D01*
X129204842Y-136362349D01*
X128964884Y-136362349D01*
X128973899Y-136302873D01*
X129027487Y-136088235D01*
X129106327Y-135823131D01*
X129204413Y-135524404D01*
X129315742Y-135208895D01*
X129434309Y-134893445D01*
X129554110Y-134594898D01*
X129669140Y-134330093D01*
X129773395Y-134115874D01*
X129803368Y-134060990D01*
X129943802Y-133875126D01*
X130120579Y-133732003D01*
X130317237Y-133635066D01*
X130517315Y-133587760D01*
X130704351Y-133593531D01*
G37*
D11*
%TO.C,R3*%
X132779724Y-86594500D02*
X132270276Y-86594500D01*
X132779724Y-85549500D02*
X132270276Y-85549500D01*
%TO.C,R1*%
X132270276Y-84059500D02*
X132779724Y-84059500D01*
X132270276Y-85104500D02*
X132779724Y-85104500D01*
D12*
%TO.C,U1*%
X165570000Y-95530000D02*
X165570000Y-113310000D01*
X129310000Y-95530000D02*
X165570000Y-95530000D01*
X165570000Y-113310000D02*
X129310000Y-113310000D01*
X129310000Y-113310000D02*
X129310000Y-95530000D01*
D16*
%TO.C,U2*%
X165706500Y-56737000D02*
X139290500Y-56737000D01*
D11*
X139290500Y-56737000D02*
X139290500Y-86963000D01*
X165706500Y-86963000D02*
X165706500Y-56737000D01*
X139290500Y-86963000D02*
X165706500Y-86963000D01*
D12*
%TO.C,Q2*%
X117486000Y-108940000D02*
X115686000Y-108940000D01*
X115686000Y-112040000D02*
X117486000Y-112040000D01*
D15*
X118996000Y-111440000D02*
G75*
G03*
X118796000Y-111440000I-100000J0D01*
G01*
X118796000Y-111440000D02*
G75*
G03*
X118996000Y-111440000I100000J0D01*
G01*
D11*
%TO.C,Power1*%
X109960000Y-99030000D02*
X111290000Y-99030000D01*
X109960000Y-100360000D02*
X109960000Y-99030000D01*
X109960000Y-101630000D02*
X109960000Y-109310000D01*
X109960000Y-101630000D02*
X112620000Y-101630000D01*
X109960000Y-109310000D02*
X112620000Y-109310000D01*
X112620000Y-101630000D02*
X112620000Y-109310000D01*
%TO.C,R2*%
X132320276Y-93965500D02*
X132829724Y-93965500D01*
X132320276Y-95010500D02*
X132829724Y-95010500D01*
D12*
%TO.C,D3*%
X148540000Y-87924000D02*
X149440000Y-87924000D01*
X148540000Y-88824000D02*
X148540000Y-87924000D01*
X148540000Y-88824000D02*
X149440000Y-87924000D01*
X148540000Y-92924000D02*
X148540000Y-88824000D01*
X149340000Y-87224000D02*
X148540000Y-87924000D01*
X149440000Y-87924000D02*
X149740000Y-87624000D01*
X149440000Y-87924000D02*
X153540000Y-87924000D01*
X149740000Y-87624000D02*
X149340000Y-87224000D01*
X153540000Y-87924000D02*
X153540000Y-92924000D01*
X153540000Y-92924000D02*
X148540000Y-92924000D01*
X152760460Y-90424000D02*
G75*
G03*
X149319540Y-90424000I-1720460J0D01*
G01*
X149319540Y-90424000D02*
G75*
G03*
X152760460Y-90424000I1720460J0D01*
G01*
D11*
%TO.C,R8*%
X126506500Y-102361276D02*
X126506500Y-102870724D01*
X125461500Y-102361276D02*
X125461500Y-102870724D01*
%TO.C,R5*%
X139296224Y-91708500D02*
X138786776Y-91708500D01*
X139296224Y-90663500D02*
X138786776Y-90663500D01*
%TO.C,Stepper1*%
X109970000Y-110430000D02*
X111300000Y-110430000D01*
X109970000Y-111760000D02*
X109970000Y-110430000D01*
X109970000Y-113030000D02*
X109970000Y-118170000D01*
X109970000Y-113030000D02*
X112630000Y-113030000D01*
X109970000Y-118170000D02*
X112630000Y-118170000D01*
X112630000Y-113030000D02*
X112630000Y-118170000D01*
D12*
%TO.C,D5*%
X156140000Y-87924000D02*
X157040000Y-87924000D01*
X156140000Y-88824000D02*
X156140000Y-87924000D01*
X156140000Y-88824000D02*
X157040000Y-87924000D01*
X156140000Y-92924000D02*
X156140000Y-88824000D01*
X156940000Y-87224000D02*
X156140000Y-87924000D01*
X157040000Y-87924000D02*
X157340000Y-87624000D01*
X157040000Y-87924000D02*
X161140000Y-87924000D01*
X157340000Y-87624000D02*
X156940000Y-87224000D01*
X161140000Y-87924000D02*
X161140000Y-92924000D01*
X161140000Y-92924000D02*
X156140000Y-92924000D01*
X160360460Y-90424000D02*
G75*
G03*
X156919540Y-90424000I-1720460J0D01*
G01*
X156919540Y-90424000D02*
G75*
G03*
X160360460Y-90424000I1720460J0D01*
G01*
D11*
%TO.C,C4*%
X154839580Y-94998000D02*
X154558420Y-94998000D01*
X154839580Y-93978000D02*
X154558420Y-93978000D01*
%TO.C,R4*%
X138792776Y-92159500D02*
X139302224Y-92159500D01*
X138792776Y-93204500D02*
X139302224Y-93204500D01*
%TO.C,C1*%
X115826000Y-106787733D02*
X115826000Y-107080267D01*
X114806000Y-106787733D02*
X114806000Y-107080267D01*
%TO.C,C2*%
X147050000Y-90532733D02*
X147050000Y-90825267D01*
X146030000Y-90532733D02*
X146030000Y-90825267D01*
%TD*%
M02*
