%TF.GenerationSoftware,KiCad,Pcbnew,7.0.10-7.0.10~ubuntu22.04.1*%
%TF.CreationDate,2025-01-30T16:28:08-05:00*%
%TF.ProjectId,board_one_teensy_22,626f6172-645f-46f6-9e65-5f7465656e73,rev?*%
%TF.SameCoordinates,Original*%
%TF.FileFunction,Copper,L1,Top*%
%TF.FilePolarity,Positive*%
%FSLAX46Y46*%
G04 Gerber Fmt 4.6, Leading zero omitted, Abs format (unit mm)*
G04 Created by KiCad (PCBNEW 7.0.10-7.0.10~ubuntu22.04.1) date 2025-01-30 16:28:08*
%MOMM*%
%LPD*%
G01*
G04 APERTURE LIST*
G04 Aperture macros list*
%AMRoundRect*
0 Rectangle with rounded corners*
0 $1 Rounding radius*
0 $2 $3 $4 $5 $6 $7 $8 $9 X,Y pos of 4 corners*
0 Add a 4 corners polygon primitive as box body*
4,1,4,$2,$3,$4,$5,$6,$7,$8,$9,$2,$3,0*
0 Add four circle primitives for the rounded corners*
1,1,$1+$1,$2,$3*
1,1,$1+$1,$4,$5*
1,1,$1+$1,$6,$7*
1,1,$1+$1,$8,$9*
0 Add four rect primitives between the rounded corners*
20,1,$1+$1,$2,$3,$4,$5,0*
20,1,$1+$1,$4,$5,$6,$7,0*
20,1,$1+$1,$6,$7,$8,$9,0*
20,1,$1+$1,$8,$9,$2,$3,0*%
G04 Aperture macros list end*
%TA.AperFunction,SMDPad,CuDef*%
%ADD10RoundRect,0.237500X-0.237500X0.250000X-0.237500X-0.250000X0.237500X-0.250000X0.237500X0.250000X0*%
%TD*%
%TA.AperFunction,SMDPad,CuDef*%
%ADD11R,2.000000X0.700000*%
%TD*%
%TA.AperFunction,SMDPad,CuDef*%
%ADD12R,1.400000X2.700000*%
%TD*%
%TA.AperFunction,SMDPad,CuDef*%
%ADD13R,2.600000X1.000000*%
%TD*%
%TA.AperFunction,SMDPad,CuDef*%
%ADD14R,2.600000X1.500000*%
%TD*%
%TA.AperFunction,SMDPad,CuDef*%
%ADD15R,1.200000X1.200000*%
%TD*%
%TA.AperFunction,ComponentPad*%
%ADD16C,3.600000*%
%TD*%
%TA.AperFunction,ConnectorPad*%
%ADD17C,5.600000*%
%TD*%
%TA.AperFunction,ComponentPad*%
%ADD18R,1.780000X1.600000*%
%TD*%
%TA.AperFunction,ComponentPad*%
%ADD19C,1.600000*%
%TD*%
%TA.AperFunction,SMDPad,CuDef*%
%ADD20RoundRect,0.088500X0.516500X0.206500X-0.516500X0.206500X-0.516500X-0.206500X0.516500X-0.206500X0*%
%TD*%
%TA.AperFunction,ComponentPad*%
%ADD21R,1.700000X1.700000*%
%TD*%
%TA.AperFunction,ComponentPad*%
%ADD22O,1.700000X1.700000*%
%TD*%
%TA.AperFunction,SMDPad,CuDef*%
%ADD23RoundRect,0.237500X0.237500X-0.300000X0.237500X0.300000X-0.237500X0.300000X-0.237500X-0.300000X0*%
%TD*%
%TA.AperFunction,ComponentPad*%
%ADD24C,2.000000*%
%TD*%
%TA.AperFunction,SMDPad,CuDef*%
%ADD25RoundRect,0.237500X0.237500X-0.250000X0.237500X0.250000X-0.237500X0.250000X-0.237500X-0.250000X0*%
%TD*%
%TA.AperFunction,ComponentPad*%
%ADD26C,1.665000*%
%TD*%
%TA.AperFunction,SMDPad,CuDef*%
%ADD27RoundRect,0.237500X0.250000X0.237500X-0.250000X0.237500X-0.250000X-0.237500X0.250000X-0.237500X0*%
%TD*%
%TA.AperFunction,SMDPad,CuDef*%
%ADD28RoundRect,0.237500X-0.250000X-0.237500X0.250000X-0.237500X0.250000X0.237500X-0.250000X0.237500X0*%
%TD*%
%TA.AperFunction,ComponentPad*%
%ADD29C,1.530000*%
%TD*%
%TA.AperFunction,ComponentPad*%
%ADD30C,1.879600*%
%TD*%
%TA.AperFunction,SMDPad,CuDef*%
%ADD31R,1.500000X0.900000*%
%TD*%
%TA.AperFunction,SMDPad,CuDef*%
%ADD32RoundRect,0.225000X0.225000X0.250000X-0.225000X0.250000X-0.225000X-0.250000X0.225000X-0.250000X0*%
%TD*%
%TA.AperFunction,SMDPad,CuDef*%
%ADD33RoundRect,0.237500X-0.237500X0.300000X-0.237500X-0.300000X0.237500X-0.300000X0.237500X0.300000X0*%
%TD*%
%TA.AperFunction,ViaPad*%
%ADD34C,0.800000*%
%TD*%
%TA.AperFunction,Conductor*%
%ADD35C,0.500000*%
%TD*%
%TA.AperFunction,Conductor*%
%ADD36C,0.300000*%
%TD*%
G04 APERTURE END LIST*
D10*
%TO.P,R7,1*%
%TO.N,GND*%
X125984000Y-105259500D03*
%TO.P,R7,2*%
%TO.N,/BUZZER 1*%
X125984000Y-107084500D03*
%TD*%
D11*
%TO.P,J1,1,DAT2*%
%TO.N,Net-(J1-DAT2)*%
X127100000Y-86650000D03*
%TO.P,J1,2,DAT3/CD*%
%TO.N,/SD_CS*%
X127100000Y-87750000D03*
%TO.P,J1,3,CMD*%
%TO.N,/MOSI*%
X127100000Y-88850000D03*
%TO.P,J1,4,VDD*%
%TO.N,/3.3V*%
X127100000Y-89950000D03*
%TO.P,J1,5,CLK*%
%TO.N,/SD_SCK*%
X127100000Y-91050000D03*
%TO.P,J1,6,VSS*%
%TO.N,GND*%
X127100000Y-92150000D03*
%TO.P,J1,7,DAT0*%
%TO.N,/MISO*%
X127100000Y-93250000D03*
%TO.P,J1,8,DAT1*%
%TO.N,Net-(J1-DAT1)*%
X127100000Y-94350000D03*
D12*
%TO.P,J1,9,DET_A*%
%TO.N,/SD_DETECT*%
X114400000Y-88050000D03*
D13*
%TO.P,J1,S1*%
%TO.N,N/C*%
X126600000Y-96450000D03*
D14*
%TO.P,J1,S2*%
X126600000Y-83100000D03*
D12*
%TO.P,J1,S3*%
X114400000Y-92950000D03*
D15*
%TO.P,J1,S5*%
X114300000Y-85000000D03*
%TD*%
D16*
%TO.P,H2,1*%
%TO.N,N/C*%
X156700000Y-53300000D03*
D17*
X156700000Y-53300000D03*
%TD*%
D18*
%TO.P,U3,1,VIN*%
%TO.N,/3.3V*%
X135190000Y-117348000D03*
D19*
%TO.P,U3,2,3VO*%
%TO.N,unconnected-(U3-3VO-Pad2)*%
X132650000Y-117348000D03*
%TO.P,U3,3,GND*%
%TO.N,GND*%
X130110000Y-117348000D03*
%TO.P,U3,4,SCK/SCL*%
%TO.N,/SCL*%
X127570000Y-117348000D03*
%TO.P,U3,5,SDO/ADR*%
%TO.N,unconnected-(U3-SDO{slash}ADR-Pad5)*%
X125030000Y-117348000D03*
%TO.P,U3,6,SDI/SDA*%
%TO.N,/SDA*%
X122490000Y-117348000D03*
%TO.P,U3,7,~{CS}*%
%TO.N,unconnected-(U3-~{CS}-Pad7)*%
X119950000Y-117348000D03*
%TO.P,U3,8,INT*%
%TO.N,unconnected-(U3-INT-Pad8)*%
X117410000Y-117348000D03*
%TD*%
D20*
%TO.P,Q1,1*%
%TO.N,/BUZZER 1*%
X122159000Y-111440000D03*
%TO.P,Q1,2*%
%TO.N,GND*%
X122159000Y-109540000D03*
%TO.P,Q1,3*%
%TO.N,Net-(U5-N)*%
X119649000Y-110490000D03*
%TD*%
D21*
%TO.P,Pyro1,1,Pin_1*%
%TO.N,/CONT 2*%
X111300000Y-120580000D03*
D22*
%TO.P,Pyro1,2,Pin_2*%
%TO.N,/CONT 1*%
X111300000Y-123120000D03*
%TO.P,Pyro1,3,Pin_3*%
%TO.N,/ARM*%
X111300000Y-125660000D03*
%TO.P,Pyro1,4,Pin_4*%
%TO.N,/PYRO 1*%
X111300000Y-128200000D03*
%TO.P,Pyro1,5,Pin_5*%
%TO.N,/PYRO 2*%
X111300000Y-130740000D03*
%TD*%
D16*
%TO.P,H3,1*%
%TO.N,N/C*%
X118600000Y-135800000D03*
D17*
X118600000Y-135800000D03*
%TD*%
D23*
%TO.P,C3,1*%
%TO.N,GND*%
X130810000Y-91409500D03*
%TO.P,C3,2*%
%TO.N,/3.3V*%
X130810000Y-89684500D03*
%TD*%
D16*
%TO.P,H4,1,GND*%
%TO.N,GND*%
X156700000Y-135800000D03*
D17*
X156700000Y-135800000D03*
%TD*%
D24*
%TO.P,U6,1,P*%
%TO.N,/VBAT*%
X120142000Y-99648000D03*
%TO.P,U6,2,N*%
%TO.N,Net-(U6-N)*%
X120142000Y-104648000D03*
%TD*%
D19*
%TO.P,U4,1,VIN*%
%TO.N,/3.3V*%
X136365000Y-79460000D03*
%TO.P,U4,2,GND*%
%TO.N,GND*%
X136365000Y-76920000D03*
%TO.P,U4,3,EN*%
%TO.N,unconnected-(U4-EN-Pad3)*%
X136365000Y-74380000D03*
%TO.P,U4,4,G0*%
%TO.N,/RX 5*%
X136365000Y-71840000D03*
%TO.P,U4,5,SCK*%
%TO.N,/SD_SCK*%
X136365000Y-69300000D03*
%TO.P,U4,6,MISO*%
%TO.N,/MISO*%
X136365000Y-66760000D03*
%TO.P,U4,7,MOSI*%
%TO.N,/MOSI*%
X136365000Y-64220000D03*
%TO.P,U4,8,CS*%
%TO.N,/CS 1*%
X136365000Y-61680000D03*
%TO.P,U4,9,RST*%
%TO.N,/Radio_RST*%
X136365000Y-59140000D03*
%TO.P,U4,10,G5*%
%TO.N,unconnected-(U4-G5-Pad10)*%
X110965000Y-69300000D03*
%TO.P,U4,11,G4*%
%TO.N,unconnected-(U4-G4-Pad11)*%
X110965000Y-71840000D03*
%TO.P,U4,12,G3*%
%TO.N,unconnected-(U4-G3-Pad12)*%
X110965000Y-74380000D03*
%TO.P,U4,13,G2*%
%TO.N,unconnected-(U4-G2-Pad13)*%
X110965000Y-76920000D03*
%TO.P,U4,14,G1*%
%TO.N,unconnected-(U4-G1-Pad14)*%
X110965000Y-79460000D03*
%TD*%
D25*
%TO.P,R6,1*%
%TO.N,Net-(R6-Pad1)*%
X125984000Y-113839000D03*
%TO.P,R6,2*%
%TO.N,/UART*%
X125984000Y-112014000D03*
%TD*%
D26*
%TO.P,J3,1,VIN*%
%TO.N,unconnected-(J3-VIN-Pad1)*%
X142240000Y-129286000D03*
%TO.P,J3,2,3V3*%
%TO.N,/3.3V*%
X144780000Y-129286000D03*
%TO.P,J3,3,GND*%
%TO.N,GND*%
X147320000Y-129286000D03*
%TO.P,J3,4,SCL*%
%TO.N,/SCL*%
X149860000Y-129286000D03*
%TO.P,J3,5,SDA*%
%TO.N,/SDA*%
X152400000Y-129286000D03*
%TO.P,J3,6,CSAG*%
%TO.N,unconnected-(J3-CSAG-Pad6)*%
X154940000Y-129286000D03*
%TO.P,J3,7,CSM*%
%TO.N,unconnected-(J3-CSM-Pad7)*%
X157480000Y-129286000D03*
%TO.P,J3,8,SDOAG*%
%TO.N,unconnected-(J3-SDOAG-Pad8)*%
X160020000Y-129286000D03*
%TO.P,J3,9,SDOM*%
%TO.N,unconnected-(J3-SDOM-Pad9)*%
X162560000Y-129286000D03*
%TO.P,J3,10,INTM*%
%TO.N,unconnected-(J3-INTM-Pad10)*%
X157480000Y-116586000D03*
%TO.P,J3,11,DRDY*%
%TO.N,unconnected-(J3-DRDY-Pad11)*%
X154940000Y-116586000D03*
%TO.P,J3,12,INT1*%
%TO.N,unconnected-(J3-INT1-Pad12)*%
X152400000Y-116586000D03*
%TO.P,J3,13,INT2*%
%TO.N,unconnected-(J3-INT2-Pad13)*%
X149860000Y-116586000D03*
%TO.P,J3,14,DEN*%
%TO.N,unconnected-(J3-DEN-Pad14)*%
X147320000Y-116586000D03*
%TD*%
D27*
%TO.P,R3,1*%
%TO.N,/3.3V*%
X133437500Y-86072000D03*
%TO.P,R3,2*%
%TO.N,Net-(J1-DAT2)*%
X131612500Y-86072000D03*
%TD*%
D28*
%TO.P,R1,1*%
%TO.N,/SD_DETECT*%
X131612500Y-84582000D03*
%TO.P,R1,2*%
%TO.N,/3.3V*%
X133437500Y-84582000D03*
%TD*%
D29*
%TO.P,U1,0,0*%
%TO.N,/NEOPIXEL*%
X161060000Y-96800000D03*
%TO.P,U1,1,1*%
%TO.N,/SD_DETECT*%
X158520000Y-96800000D03*
%TO.P,U1,2,2*%
%TO.N,unconnected-(U1-Pad2)*%
X155980000Y-96800000D03*
%TO.P,U1,3,3*%
%TO.N,/PYRO 1*%
X153440000Y-96800000D03*
%TO.P,U1,3.3V_1,3.3V_1*%
%TO.N,/3.3V*%
X130580000Y-101880000D03*
%TO.P,U1,3.3V_2,3.3V_2*%
X158520000Y-112040000D03*
%TO.P,U1,4,4*%
%TO.N,/PYRO 2*%
X150900000Y-96800000D03*
%TO.P,U1,5,5*%
%TO.N,/BUZZER 1*%
X148360000Y-96800000D03*
%TO.P,U1,6,6*%
%TO.N,/BUZZER 2*%
X145820000Y-96800000D03*
%TO.P,U1,7,7*%
%TO.N,/RX 5*%
X143280000Y-96800000D03*
%TO.P,U1,8,8*%
%TO.N,/Radio_RST*%
X140740000Y-96800000D03*
%TO.P,U1,9,9*%
%TO.N,/CS 1*%
X138200000Y-96800000D03*
%TO.P,U1,10,10*%
%TO.N,/SD_CS*%
X135660000Y-96800000D03*
%TO.P,U1,11,11*%
%TO.N,/MOSI*%
X133120000Y-96800000D03*
%TO.P,U1,12,12*%
%TO.N,/MISO*%
X130580000Y-96800000D03*
%TO.P,U1,13,13*%
%TO.N,/SD_SCK*%
X130580000Y-112040000D03*
%TO.P,U1,14,14*%
%TO.N,/CONT 2*%
X133120000Y-112040000D03*
%TO.P,U1,15,15*%
%TO.N,/STEP*%
X135660000Y-112040000D03*
%TO.P,U1,16,16*%
%TO.N,/UART*%
X138200000Y-112040000D03*
%TO.P,U1,17,17*%
%TO.N,Net-(R6-Pad1)*%
X140740000Y-112040000D03*
%TO.P,U1,18,18*%
%TO.N,/SDA*%
X143280000Y-112040000D03*
%TO.P,U1,19,19*%
%TO.N,/SCL*%
X145820000Y-112040000D03*
%TO.P,U1,20,20*%
%TO.N,/DIR*%
X148360000Y-112040000D03*
%TO.P,U1,21,21*%
%TO.N,/CONT 1*%
X150900000Y-112040000D03*
%TO.P,U1,22,22*%
%TO.N,/ARM*%
X153440000Y-112040000D03*
%TO.P,U1,23,23*%
%TO.N,/V_Mon*%
X155980000Y-112040000D03*
%TO.P,U1,G1,G1*%
%TO.N,GND*%
X163600000Y-96800000D03*
%TO.P,U1,G2,G2*%
X130580000Y-104420000D03*
%TO.P,U1,G3,G3*%
X161060000Y-112040000D03*
%TO.P,U1,ON-OFF,ON/OFF*%
%TO.N,unconnected-(U1-ON{slash}OFF-PadON-OFF)*%
X130580000Y-109500000D03*
%TO.P,U1,PGM,PROGRAM*%
%TO.N,unconnected-(U1-PROGRAM-PadPGM)*%
X130580000Y-106960000D03*
%TO.P,U1,VBAT,VBAT*%
%TO.N,unconnected-(U1-PadVBAT)*%
X130580000Y-99340000D03*
%TO.P,U1,VIN,VIN*%
%TO.N,/5V*%
X163600000Y-112040000D03*
%TD*%
D30*
%TO.P,U2,1,WAKE*%
%TO.N,unconnected-(U2-WAKE-Pad1)*%
X163293500Y-66770000D03*
%TO.P,U2,2,RST*%
%TO.N,unconnected-(U2-RST-Pad2)*%
X163293500Y-69310000D03*
%TO.P,U2,3,PPS*%
%TO.N,unconnected-(U2-PPS-Pad3)*%
X163293500Y-71850000D03*
%TO.P,U2,4,RX*%
%TO.N,unconnected-(U2-RX-Pad4)*%
X163293500Y-74390000D03*
%TO.P,U2,5,TX*%
%TO.N,unconnected-(U2-TX-Pad5)*%
X163293500Y-76930000D03*
%TO.P,U2,6,INT*%
%TO.N,unconnected-(U2-INT-Pad6)*%
X140433500Y-66770000D03*
%TO.P,U2,7,GND*%
%TO.N,GND*%
X140433500Y-69310000D03*
%TO.P,U2,8,3.3V*%
%TO.N,/3.3V*%
X140433500Y-71850000D03*
%TO.P,U2,9,SDA*%
%TO.N,/SDA*%
X140433500Y-74390000D03*
%TO.P,U2,10,SCL*%
%TO.N,/SCL*%
X140433500Y-76930000D03*
%TD*%
D20*
%TO.P,Q2,1*%
%TO.N,/BUZZER 2*%
X117841000Y-111440000D03*
%TO.P,Q2,2*%
%TO.N,GND*%
X117841000Y-109540000D03*
%TO.P,Q2,3*%
%TO.N,Net-(U6-N)*%
X115331000Y-110490000D03*
%TD*%
D21*
%TO.P,Power1,1,Pin_1*%
%TO.N,/5V*%
X111290000Y-100360000D03*
D22*
%TO.P,Power1,2,Pin_2*%
%TO.N,/VBAT*%
X111290000Y-102900000D03*
%TO.P,Power1,3,Pin_3*%
%TO.N,/3.3V*%
X111290000Y-105440000D03*
%TO.P,Power1,4,Pin_4*%
%TO.N,GND*%
X111290000Y-107980000D03*
%TD*%
D28*
%TO.P,R2,1*%
%TO.N,Net-(J1-DAT1)*%
X131662500Y-94488000D03*
%TO.P,R2,2*%
%TO.N,/3.3V*%
X133487500Y-94488000D03*
%TD*%
D31*
%TO.P,D3,1,VDD*%
%TO.N,/5V*%
X153490000Y-92074000D03*
%TO.P,D3,2,DOUT*%
%TO.N,unconnected-(D3-DOUT-Pad2)*%
X153490000Y-88774000D03*
%TO.P,D3,3,VSS*%
%TO.N,GND*%
X148590000Y-88774000D03*
%TO.P,D3,4,DIN*%
%TO.N,Net-(D3-DIN)*%
X148590000Y-92074000D03*
%TD*%
D10*
%TO.P,R8,1*%
%TO.N,GND*%
X125984000Y-101703500D03*
%TO.P,R8,2*%
%TO.N,/BUZZER 2*%
X125984000Y-103528500D03*
%TD*%
D27*
%TO.P,R5,1*%
%TO.N,/V_Mon*%
X139954000Y-91186000D03*
%TO.P,R5,2*%
%TO.N,GND*%
X138129000Y-91186000D03*
%TD*%
D16*
%TO.P,H1,1*%
%TO.N,N/C*%
X118600000Y-53300000D03*
D17*
X118600000Y-53300000D03*
%TD*%
D21*
%TO.P,Stepper1,1,Pin_1*%
%TO.N,/UART*%
X111300000Y-111760000D03*
D22*
%TO.P,Stepper1,2,Pin_2*%
%TO.N,/DIR*%
X111300000Y-114300000D03*
%TO.P,Stepper1,3,Pin_3*%
%TO.N,/STEP*%
X111300000Y-116840000D03*
%TD*%
D31*
%TO.P,D5,1,VDD*%
%TO.N,/5V*%
X161090000Y-92074000D03*
%TO.P,D5,2,DOUT*%
%TO.N,Net-(D3-DIN)*%
X161090000Y-88774000D03*
%TO.P,D5,3,VSS*%
%TO.N,GND*%
X156190000Y-88774000D03*
%TO.P,D5,4,DIN*%
%TO.N,/NEOPIXEL*%
X156190000Y-92074000D03*
%TD*%
D32*
%TO.P,C4,1*%
%TO.N,GND*%
X155474000Y-94488000D03*
%TO.P,C4,2*%
%TO.N,/V_Mon*%
X153924000Y-94488000D03*
%TD*%
D28*
%TO.P,R4,1*%
%TO.N,/VBAT*%
X138135000Y-92682000D03*
%TO.P,R4,2*%
%TO.N,/V_Mon*%
X139960000Y-92682000D03*
%TD*%
D33*
%TO.P,C1,1*%
%TO.N,/VBAT*%
X115316000Y-106071500D03*
%TO.P,C1,2*%
%TO.N,GND*%
X115316000Y-107796500D03*
%TD*%
%TO.P,C2,1*%
%TO.N,GND*%
X146540000Y-89816500D03*
%TO.P,C2,2*%
%TO.N,/5V*%
X146540000Y-91541500D03*
%TD*%
D24*
%TO.P,U5,1,P*%
%TO.N,/VBAT*%
X127762000Y-99314000D03*
%TO.P,U5,2,N*%
%TO.N,Net-(U5-N)*%
X127762000Y-109514000D03*
%TD*%
D34*
%TO.N,GND*%
X138176000Y-89408000D03*
X124460000Y-105156000D03*
X132334000Y-90932000D03*
X144526000Y-95250000D03*
X128016000Y-103632000D03*
X117602000Y-105918000D03*
X151384000Y-87630000D03*
X144018000Y-90932000D03*
X157226000Y-94742000D03*
X119888000Y-107950000D03*
%TO.N,/PYRO 1*%
X155448000Y-98806000D03*
%TO.N,/PYRO 2*%
X153670000Y-100838000D03*
X150622000Y-100838000D03*
%TO.N,/CONT 1*%
X143002000Y-118872000D03*
X147066000Y-118872000D03*
%TO.N,/CONT 2*%
X115824000Y-113030000D03*
X114173000Y-117475000D03*
%TO.N,/ARM*%
X147066000Y-120650000D03*
X143002000Y-120650000D03*
%TO.N,/MISO*%
X130075000Y-82675000D03*
X127508000Y-95350500D03*
X130556000Y-79756000D03*
%TO.N,/BUZZER 1*%
X132588000Y-108204000D03*
X128016000Y-107188000D03*
%TO.N,/SD_CS*%
X135636000Y-94234000D03*
%TO.N,/3.3V*%
X143002000Y-102362000D03*
X141986000Y-80884000D03*
X140462000Y-99822000D03*
X124570000Y-100850000D03*
X154178000Y-102362000D03*
X147320000Y-123952000D03*
X146050000Y-102362000D03*
X139900000Y-82970000D03*
X144272000Y-123952000D03*
%TO.N,/VBAT*%
X114046000Y-105156000D03*
X117348000Y-102870000D03*
%TO.N,/BUZZER 2*%
X132588000Y-105664000D03*
X128016000Y-105664000D03*
%TO.N,/SD_SCK*%
X131883409Y-92964000D03*
X129168000Y-91050000D03*
X135530000Y-82510000D03*
X135380000Y-84930000D03*
X135636000Y-92652591D03*
%TO.N,/MOSI*%
X129000000Y-88950000D03*
X130225000Y-84050000D03*
X129032000Y-79756000D03*
%TO.N,/DIR*%
X144018000Y-114808000D03*
%TO.N,/V_Mon*%
X146558000Y-93726000D03*
X139954000Y-89662000D03*
%TO.N,/RX 5*%
X144272000Y-85598000D03*
X141732000Y-83312000D03*
%TO.N,/NEOPIXEL*%
X161060000Y-94258000D03*
X156210000Y-90932000D03*
%TO.N,/SDA*%
X143256000Y-109220000D03*
X143764000Y-74422000D03*
%TO.N,/SCL*%
X144526000Y-76930000D03*
%TO.N,/SD_DETECT*%
X139954000Y-85090000D03*
X158496000Y-91948000D03*
X147320000Y-86360000D03*
X132588000Y-82550000D03*
X135636000Y-81026000D03*
%TD*%
D35*
%TO.N,GND*%
X130810000Y-91409500D02*
X131856500Y-91409500D01*
X131856500Y-91409500D02*
X132334000Y-90932000D01*
X126087500Y-101703500D02*
X125984000Y-101703500D01*
X138129000Y-91186000D02*
X138129000Y-89455000D01*
X148970000Y-88774000D02*
X148590000Y-88774000D01*
X155046000Y-87630000D02*
X150114000Y-87630000D01*
X119888000Y-107950000D02*
X119431000Y-107950000D01*
X115132500Y-107980000D02*
X115316000Y-107796500D01*
X119888000Y-107950000D02*
X120569000Y-107950000D01*
X144018000Y-94742000D02*
X144526000Y-95250000D01*
X130069500Y-92150000D02*
X127100000Y-92150000D01*
X130810000Y-91409500D02*
X130069500Y-92150000D01*
X115723500Y-107796500D02*
X117602000Y-105918000D01*
X156972000Y-94488000D02*
X157226000Y-94742000D01*
X146540000Y-89904000D02*
X147460000Y-89904000D01*
X150114000Y-87630000D02*
X148970000Y-88774000D01*
X115316000Y-107796500D02*
X115723500Y-107796500D01*
X128016000Y-103632000D02*
X126087500Y-101703500D01*
X155474000Y-94488000D02*
X156972000Y-94488000D01*
X156190000Y-88774000D02*
X155046000Y-87630000D01*
X138129000Y-89455000D02*
X138176000Y-89408000D01*
X144018000Y-90932000D02*
X144018000Y-94742000D01*
X120569000Y-107950000D02*
X122159000Y-109540000D01*
X119431000Y-107950000D02*
X117841000Y-109540000D01*
X156190000Y-88774000D02*
X155810000Y-88774000D01*
X147460000Y-89904000D02*
X148590000Y-88774000D01*
X124460000Y-105156000D02*
X124563500Y-105259500D01*
X111290000Y-107980000D02*
X115132500Y-107980000D01*
X124563500Y-105259500D02*
X125984000Y-105259500D01*
D36*
%TO.N,/PYRO 1*%
X161036000Y-114292000D02*
X161036000Y-123698000D01*
X109982000Y-129518000D02*
X111300000Y-128200000D01*
X162306000Y-113022000D02*
X161036000Y-114292000D01*
X139446000Y-129032000D02*
X114972682Y-129032000D01*
X110603318Y-132104000D02*
X109982000Y-131482682D01*
X156210000Y-130302000D02*
X155956000Y-130556000D01*
X152400000Y-132080000D02*
X142494000Y-132080000D01*
X162306000Y-105666000D02*
X162306000Y-113022000D01*
X161036000Y-123698000D02*
X156210000Y-128524000D01*
X155956000Y-130556000D02*
X153924000Y-130556000D01*
X109982000Y-131482682D02*
X109982000Y-129518000D01*
X114972682Y-129032000D02*
X111900682Y-132104000D01*
X155448000Y-98808000D02*
X155448000Y-98806000D01*
X162306000Y-105666000D02*
X155448000Y-98808000D01*
X111900682Y-132104000D02*
X110603318Y-132104000D01*
X156210000Y-128524000D02*
X156210000Y-130302000D01*
X153924000Y-130556000D02*
X152400000Y-132080000D01*
X142494000Y-132080000D02*
X139446000Y-129032000D01*
%TO.N,/PYRO 2*%
X154686000Y-100838000D02*
X159766000Y-105918000D01*
X153670000Y-100838000D02*
X154686000Y-100838000D01*
X153670000Y-127508000D02*
X153670000Y-129794000D01*
X143510000Y-128778000D02*
X142748000Y-128016000D01*
X153670000Y-129794000D02*
X152286061Y-131177939D01*
X143510000Y-130121348D02*
X143510000Y-128778000D01*
X142748000Y-128016000D02*
X114024000Y-128016000D01*
X159766000Y-121412000D02*
X153670000Y-127508000D01*
X144566591Y-131177939D02*
X143510000Y-130121348D01*
X159766000Y-105918000D02*
X159766000Y-121412000D01*
X150900000Y-100560000D02*
X150900000Y-96800000D01*
X152286061Y-131177939D02*
X144566591Y-131177939D01*
X150622000Y-100838000D02*
X150900000Y-100560000D01*
X114024000Y-128016000D02*
X111300000Y-130740000D01*
%TO.N,/CONT 1*%
X150900000Y-112040000D02*
X148590000Y-114350000D01*
X148590000Y-117348000D02*
X147066000Y-118872000D01*
X143002000Y-118872000D02*
X138754000Y-123120000D01*
X148590000Y-114350000D02*
X148590000Y-117348000D01*
X138754000Y-123120000D02*
X111300000Y-123120000D01*
%TO.N,/CONT 2*%
X124468000Y-111250542D02*
X124468000Y-111752000D01*
X129739107Y-113538000D02*
X126699107Y-110498000D01*
X114173000Y-117707000D02*
X111300000Y-120580000D01*
X131084470Y-113538000D02*
X129739107Y-113538000D01*
X125220542Y-110498000D02*
X124468000Y-111250542D01*
X124468000Y-111752000D02*
X123190000Y-113030000D01*
X131424470Y-113198000D02*
X131084470Y-113538000D01*
X123190000Y-113030000D02*
X115824000Y-113030000D01*
X114173000Y-117475000D02*
X114173000Y-117707000D01*
X131962000Y-113198000D02*
X131424470Y-113198000D01*
X126699107Y-110498000D02*
X125220542Y-110498000D01*
X133120000Y-112040000D02*
X131962000Y-113198000D01*
%TO.N,/ARM*%
X137992000Y-125660000D02*
X111300000Y-125660000D01*
X147955000Y-120650000D02*
X147066000Y-120650000D01*
X143002000Y-120650000D02*
X137992000Y-125660000D01*
X151130000Y-114350000D02*
X151130000Y-117475000D01*
X153440000Y-112040000D02*
X151130000Y-114350000D01*
X151130000Y-117475000D02*
X147955000Y-120650000D01*
%TO.N,Net-(J1-DAT2)*%
X131122000Y-86650000D02*
X131700000Y-86072000D01*
X127100000Y-86650000D02*
X131122000Y-86650000D01*
%TO.N,/MISO*%
X130075000Y-82675000D02*
X127625000Y-85125000D01*
X125717894Y-85125000D02*
X125000000Y-85842894D01*
X130556000Y-79756000D02*
X130556000Y-69850000D01*
X133646000Y-66760000D02*
X136365000Y-66760000D01*
X127625000Y-85125000D02*
X125717894Y-85125000D01*
X125800000Y-93250000D02*
X127100000Y-93250000D01*
X130556000Y-69850000D02*
X133646000Y-66760000D01*
X125000000Y-92450000D02*
X125800000Y-93250000D01*
X127207500Y-95050000D02*
X125750000Y-95050000D01*
X125750000Y-95050000D02*
X125000000Y-94300000D01*
X125000000Y-94300000D02*
X125000000Y-92450000D01*
X127508000Y-95350500D02*
X127207500Y-95050000D01*
X125000000Y-85842894D02*
X125000000Y-92450000D01*
%TO.N,/BUZZER 1*%
X132588000Y-107862500D02*
X134532500Y-105918000D01*
X137668000Y-105918000D02*
X144872000Y-98714000D01*
X122309240Y-111440000D02*
X122159000Y-111440000D01*
X127912500Y-107084500D02*
X125984000Y-107084500D01*
X123690000Y-109378500D02*
X123690000Y-110059240D01*
X147595000Y-96800000D02*
X148360000Y-96800000D01*
X123690000Y-110059240D02*
X122309240Y-111440000D01*
X128016000Y-107188000D02*
X127912500Y-107084500D01*
X145681000Y-98714000D02*
X147595000Y-96800000D01*
X134532500Y-105918000D02*
X137668000Y-105918000D01*
X144872000Y-98714000D02*
X145681000Y-98714000D01*
X132588000Y-108204000D02*
X132588000Y-107862500D01*
X125984000Y-107084500D02*
X123690000Y-109378500D01*
%TO.N,/SD_CS*%
X132600000Y-87364000D02*
X132214000Y-87750000D01*
X134366000Y-92964000D02*
X134366000Y-83824296D01*
X134366000Y-83824296D02*
X134107704Y-83566000D01*
X132842000Y-83566000D02*
X132600000Y-83808000D01*
X134107704Y-83566000D02*
X132842000Y-83566000D01*
X132214000Y-87750000D02*
X127100000Y-87750000D01*
X135636000Y-94234000D02*
X134366000Y-92964000D01*
X132600000Y-83808000D02*
X132600000Y-87364000D01*
D35*
%TO.N,/3.3V*%
X158254178Y-118077939D02*
X159002500Y-117329617D01*
X141224000Y-84319000D02*
X141224000Y-93472000D01*
X134249500Y-95250000D02*
X133400000Y-94400500D01*
X140716000Y-93980000D02*
X137414000Y-93980000D01*
X123870000Y-101550000D02*
X115112000Y-101550000D01*
X146050000Y-102362000D02*
X143002000Y-102362000D01*
X133350000Y-89199000D02*
X133350000Y-84582000D01*
X141986000Y-73402500D02*
X140433500Y-71850000D01*
X141986000Y-80884000D02*
X141986000Y-73402500D01*
X139875000Y-82970000D02*
X139900000Y-82970000D01*
X140462000Y-99822000D02*
X134620000Y-99822000D01*
X130544500Y-89950000D02*
X130810000Y-89684500D01*
X136365000Y-79460000D02*
X139875000Y-82970000D01*
X133400000Y-94400500D02*
X133400000Y-90220000D01*
X139900000Y-82995000D02*
X141224000Y-84319000D01*
X147320000Y-123952000D02*
X147320000Y-123698000D01*
X144272000Y-123952000D02*
X144272000Y-118618000D01*
X143002000Y-117348000D02*
X135190000Y-117348000D01*
X132562000Y-101880000D02*
X134620000Y-99822000D01*
X147320000Y-123698000D02*
X152940061Y-118077939D01*
X159002500Y-117329617D02*
X159002500Y-112522500D01*
X158520000Y-106704000D02*
X158520000Y-112040000D01*
X144272000Y-123952000D02*
X144272000Y-124968000D01*
X134620000Y-99822000D02*
X136906000Y-97536000D01*
X154178000Y-102362000D02*
X158520000Y-106704000D01*
X132864500Y-89684500D02*
X133350000Y-89199000D01*
X144780000Y-125476000D02*
X144780000Y-129286000D01*
X136906000Y-96093000D02*
X136317000Y-95504000D01*
X136144000Y-95250000D02*
X136063000Y-95250000D01*
X136317000Y-95504000D02*
X136063000Y-95250000D01*
X111290000Y-105372000D02*
X111290000Y-105440000D01*
X141224000Y-93472000D02*
X140716000Y-93980000D01*
X130580000Y-101880000D02*
X132562000Y-101880000D01*
X133400000Y-90220000D02*
X132864500Y-89684500D01*
X136063000Y-95250000D02*
X134249500Y-95250000D01*
X137414000Y-93980000D02*
X136144000Y-95250000D01*
X127100000Y-89950000D02*
X130544500Y-89950000D01*
X152940061Y-118077939D02*
X158254178Y-118077939D01*
X124570000Y-100850000D02*
X123870000Y-101550000D01*
X136906000Y-97536000D02*
X136906000Y-96093000D01*
X144272000Y-118618000D02*
X143002000Y-117348000D01*
X132864500Y-89684500D02*
X130810000Y-89684500D01*
X159002500Y-112522500D02*
X158520000Y-112040000D01*
X115112000Y-101550000D02*
X111290000Y-105372000D01*
X144272000Y-124968000D02*
X144780000Y-125476000D01*
X139900000Y-82970000D02*
X139900000Y-82995000D01*
%TO.N,/VBAT*%
X136906000Y-84709000D02*
X136906000Y-91453000D01*
X115416500Y-106071500D02*
X115316000Y-106071500D01*
X114046000Y-105156000D02*
X114961500Y-106071500D01*
X132588000Y-81026000D02*
X135382000Y-83820000D01*
X115142000Y-99648000D02*
X112690000Y-97196000D01*
X127762000Y-99314000D02*
X127428000Y-99648000D01*
X135382000Y-83820000D02*
X136017000Y-83820000D01*
X127428000Y-99648000D02*
X120142000Y-99648000D01*
X112690000Y-84668000D02*
X116332000Y-81026000D01*
X116332000Y-81026000D02*
X132588000Y-81026000D01*
X136906000Y-91453000D02*
X138135000Y-92682000D01*
X120142000Y-99648000D02*
X115142000Y-99648000D01*
X117348000Y-104140000D02*
X115416500Y-106071500D01*
X117348000Y-102870000D02*
X117348000Y-104140000D01*
X112690000Y-97196000D02*
X112690000Y-84668000D01*
X136017000Y-83820000D02*
X136906000Y-84709000D01*
X114961500Y-106071500D02*
X115316000Y-106071500D01*
D36*
%TO.N,/BUZZER 2*%
X128016000Y-105560500D02*
X125984000Y-103528500D01*
X117841000Y-110954866D02*
X117841000Y-111440000D01*
X132588000Y-105664000D02*
X132842000Y-105410000D01*
X121120866Y-109845000D02*
X118950866Y-109845000D01*
X132842000Y-105410000D02*
X137160000Y-105410000D01*
X123190000Y-109852134D02*
X122857134Y-110185000D01*
X123190000Y-104648000D02*
X123190000Y-109852134D01*
X121460866Y-110185000D02*
X121120866Y-109845000D01*
X125984000Y-103528500D02*
X124309500Y-103528500D01*
X137160000Y-105410000D02*
X145770000Y-96800000D01*
X122857134Y-110185000D02*
X121460866Y-110185000D01*
X145770000Y-96800000D02*
X145820000Y-96800000D01*
X124309500Y-103528500D02*
X123190000Y-104648000D01*
X128016000Y-105664000D02*
X128016000Y-105560500D01*
X118950866Y-109845000D02*
X117841000Y-110954866D01*
%TO.N,/SD_SCK*%
X131883409Y-92964000D02*
X132588000Y-93668591D01*
X132588000Y-93668591D02*
X132588000Y-94996000D01*
X135530000Y-82460000D02*
X135530000Y-82510000D01*
X135530000Y-82510000D02*
X134620000Y-81600000D01*
X129286000Y-110744000D02*
X129285000Y-110745000D01*
X129168000Y-91050000D02*
X127100000Y-91050000D01*
X135380000Y-84930000D02*
X135370000Y-84930000D01*
X132080000Y-95504000D02*
X130048000Y-95504000D01*
X134620000Y-81600000D02*
X134620000Y-71045000D01*
X129286000Y-96266000D02*
X129286000Y-110744000D01*
X130048000Y-95504000D02*
X129286000Y-96266000D01*
X135370000Y-84930000D02*
X135370000Y-84930000D01*
X132588000Y-94996000D02*
X132080000Y-95504000D01*
X129285000Y-110745000D02*
X130580000Y-112040000D01*
X135636000Y-85196000D02*
X135380000Y-84940000D01*
X134620000Y-71045000D02*
X136365000Y-69300000D01*
X135380000Y-84940000D02*
X135380000Y-84930000D01*
X135636000Y-92652591D02*
X135636000Y-85196000D01*
%TO.N,/MOSI*%
X129032000Y-79756000D02*
X129032000Y-68580000D01*
X126150000Y-88850000D02*
X127100000Y-88850000D01*
X133392000Y-64220000D02*
X136365000Y-64220000D01*
X125925000Y-85625000D02*
X125500000Y-86050000D01*
X129000000Y-88950000D02*
X127200000Y-88950000D01*
X130225000Y-84050000D02*
X128650000Y-85625000D01*
X125500000Y-88200000D02*
X126150000Y-88850000D01*
X127200000Y-88950000D02*
X127100000Y-88850000D01*
X129032000Y-68580000D02*
X133392000Y-64220000D01*
X125500000Y-86050000D02*
X125500000Y-88200000D01*
X128650000Y-85625000D02*
X125925000Y-85625000D01*
D35*
%TO.N,/5V*%
X108712000Y-102938000D02*
X108712000Y-131826000D01*
X159810000Y-93354000D02*
X154770000Y-93354000D01*
X163576000Y-105664000D02*
X162306000Y-104394000D01*
X146540000Y-92240396D02*
X147653604Y-93354000D01*
X164137536Y-130248464D02*
X164137536Y-112577536D01*
X111290000Y-100360000D02*
X108712000Y-102938000D01*
X163576000Y-112016000D02*
X163576000Y-105664000D01*
X164137536Y-112577536D02*
X163600000Y-112040000D01*
X146540000Y-91454000D02*
X146540000Y-92240396D01*
X161090000Y-92074000D02*
X159810000Y-93354000D01*
X115062000Y-133096000D02*
X116288736Y-131869264D01*
X141986000Y-133350000D02*
X153162000Y-133350000D01*
X147653604Y-93354000D02*
X152210000Y-93354000D01*
X154686000Y-131826000D02*
X162560000Y-131826000D01*
X153162000Y-133350000D02*
X154686000Y-131826000D01*
X162306000Y-93290000D02*
X161090000Y-92074000D01*
X108712000Y-131826000D02*
X109982000Y-133096000D01*
X140505264Y-131869264D02*
X141986000Y-133350000D01*
X116288736Y-131869264D02*
X140505264Y-131869264D01*
X162560000Y-131826000D02*
X164137536Y-130248464D01*
X154770000Y-93354000D02*
X153490000Y-92074000D01*
X163600000Y-112040000D02*
X163576000Y-112016000D01*
X162306000Y-104394000D02*
X162306000Y-93290000D01*
X109982000Y-133096000D02*
X115062000Y-133096000D01*
X152210000Y-93354000D02*
X153490000Y-92074000D01*
D36*
%TO.N,Net-(J1-DAT1)*%
X127238000Y-94488000D02*
X131662500Y-94488000D01*
X127100000Y-94350000D02*
X127238000Y-94488000D01*
%TO.N,/STEP*%
X135660000Y-112040000D02*
X134162000Y-113538000D01*
X124968000Y-111457648D02*
X124968000Y-112068894D01*
X109474000Y-110490000D02*
X109474000Y-115124000D01*
X122990894Y-114046000D02*
X115062000Y-114046000D01*
X134162000Y-113538000D02*
X132329106Y-113538000D01*
X132329106Y-113538000D02*
X132169106Y-113698000D01*
X124968000Y-112068894D02*
X122990894Y-114046000D01*
X113030000Y-110490000D02*
X112522000Y-109982000D01*
X115062000Y-114046000D02*
X113030000Y-112014000D01*
X131631576Y-113698000D02*
X131283576Y-114046000D01*
X113030000Y-112014000D02*
X113030000Y-110490000D01*
X109982000Y-109982000D02*
X109474000Y-110490000D01*
X126492000Y-110998000D02*
X125427648Y-110998000D01*
X112522000Y-109982000D02*
X109982000Y-109982000D01*
X131283576Y-114046000D02*
X129540000Y-114046000D01*
X125427648Y-110998000D02*
X124968000Y-111457648D01*
X132169106Y-113698000D02*
X131631576Y-113698000D01*
X129540000Y-114046000D02*
X126492000Y-110998000D01*
X109474000Y-115124000D02*
X111300000Y-116950000D01*
%TO.N,/DIR*%
X117594000Y-119372000D02*
X112632000Y-114410000D01*
X144018000Y-114808000D02*
X142748000Y-116078000D01*
X142748000Y-116078000D02*
X134204000Y-116078000D01*
X134204000Y-116078000D02*
X133858000Y-116424000D01*
X133858000Y-118618000D02*
X133104000Y-119372000D01*
X133104000Y-119372000D02*
X117594000Y-119372000D01*
X133858000Y-116424000D02*
X133858000Y-118618000D01*
X112632000Y-114410000D02*
X111300000Y-114410000D01*
D35*
%TO.N,/V_Mon*%
X155980000Y-106704000D02*
X152400000Y-103124000D01*
X152400000Y-100076000D02*
X154686000Y-97790000D01*
D36*
X152400000Y-94488000D02*
X147320000Y-94488000D01*
D35*
X154686000Y-97790000D02*
X154686000Y-95250000D01*
X155980000Y-112040000D02*
X155980000Y-106704000D01*
X154686000Y-95250000D02*
X153924000Y-94488000D01*
D36*
X139954000Y-89662000D02*
X139954000Y-91186000D01*
D35*
X152400000Y-103124000D02*
X152400000Y-100076000D01*
D36*
X153924000Y-94488000D02*
X152400000Y-94488000D01*
X147320000Y-94488000D02*
X146558000Y-93726000D01*
X139954000Y-92676000D02*
X139960000Y-92682000D01*
X139954000Y-91186000D02*
X139954000Y-92676000D01*
%TO.N,/Radio_RST*%
X142494000Y-95046000D02*
X142494000Y-94742000D01*
X142748000Y-65523000D02*
X136365000Y-59140000D01*
X136365000Y-59149000D02*
X136365000Y-59140000D01*
X142748000Y-82350894D02*
X142748000Y-65523000D01*
X143764000Y-83366894D02*
X142748000Y-82350894D01*
X143764000Y-84582000D02*
X143764000Y-83366894D01*
X142486000Y-85860000D02*
X143764000Y-84582000D01*
X142494000Y-94742000D02*
X142486000Y-94734000D01*
X142486000Y-94734000D02*
X142486000Y-85860000D01*
X140740000Y-96800000D02*
X142494000Y-95046000D01*
%TO.N,/CS 1*%
X140258000Y-94742000D02*
X138200000Y-96800000D01*
X143002000Y-84328000D02*
X141986000Y-85344000D01*
X141986000Y-85344000D02*
X141986000Y-93726000D01*
X138684000Y-63999000D02*
X138684000Y-78994000D01*
X136365000Y-61680000D02*
X138684000Y-63999000D01*
X143002000Y-83312000D02*
X143002000Y-84328000D01*
X140970000Y-94742000D02*
X140258000Y-94742000D01*
X138684000Y-78994000D02*
X143002000Y-83312000D01*
X141986000Y-93726000D02*
X140970000Y-94742000D01*
%TO.N,/RX 5*%
X137668000Y-79248000D02*
X137668000Y-73143000D01*
X141732000Y-83312000D02*
X137668000Y-79248000D01*
X144272000Y-85598000D02*
X143002000Y-86868000D01*
X143002000Y-96522000D02*
X143280000Y-96800000D01*
X143002000Y-86868000D02*
X143002000Y-96522000D01*
X137668000Y-73143000D02*
X136365000Y-71840000D01*
%TO.N,/NEOPIXEL*%
X156210000Y-90932000D02*
X156210000Y-92054000D01*
X161060000Y-96800000D02*
X161060000Y-94258000D01*
X156210000Y-92054000D02*
X156190000Y-92074000D01*
X161036000Y-94234000D02*
X161060000Y-94258000D01*
%TO.N,Net-(D3-DIN)*%
X161090000Y-88774000D02*
X159910000Y-89954000D01*
X159910000Y-89954000D02*
X151090000Y-89954000D01*
X148970000Y-92074000D02*
X148590000Y-92074000D01*
X151090000Y-89954000D02*
X148970000Y-92074000D01*
%TO.N,/SDA*%
X122490000Y-117348000D02*
X123190000Y-118048000D01*
X123190000Y-118110000D02*
X123952000Y-118872000D01*
X143280000Y-113006000D02*
X143280000Y-112040000D01*
X152400000Y-129286000D02*
X151008061Y-130677939D01*
X143510000Y-74676000D02*
X143510000Y-82405786D01*
X140716000Y-115570000D02*
X143280000Y-113006000D01*
X123952000Y-118872000D02*
X130810000Y-118872000D01*
X143282000Y-112040000D02*
X143280000Y-112040000D01*
X148590000Y-128016000D02*
X145034000Y-124460000D01*
X132460000Y-115698000D02*
X132997532Y-115698000D01*
X146304000Y-95504000D02*
X148844000Y-95504000D01*
X145288000Y-87376000D02*
X145034000Y-87630000D01*
X148844000Y-95504000D02*
X149606000Y-96266000D01*
X132997532Y-115698000D02*
X133125532Y-115570000D01*
X131318000Y-118364000D02*
X131318000Y-116840000D01*
X145034000Y-94234000D02*
X146304000Y-95504000D01*
X145034000Y-113792000D02*
X143282000Y-112040000D01*
X149473939Y-130677939D02*
X148590000Y-129794000D01*
X133125532Y-115570000D02*
X140716000Y-115570000D01*
X145288000Y-84183786D02*
X145288000Y-87376000D01*
X130810000Y-118872000D02*
X131318000Y-118364000D01*
X145034000Y-124460000D02*
X145034000Y-113792000D01*
X145034000Y-87630000D02*
X145034000Y-94234000D01*
X143764000Y-74422000D02*
X143510000Y-74676000D01*
X143510000Y-82405786D02*
X145288000Y-84183786D01*
X148590000Y-129794000D02*
X148590000Y-128016000D01*
X131318000Y-116840000D02*
X132460000Y-115698000D01*
X149606000Y-96266000D02*
X149606000Y-102870000D01*
X123190000Y-118048000D02*
X123190000Y-118110000D01*
X149606000Y-102870000D02*
X143256000Y-109220000D01*
X151008061Y-130677939D02*
X149473939Y-130677939D01*
%TO.N,/SCL*%
X144526000Y-76930000D02*
X146304000Y-78708000D01*
X141986000Y-111252000D02*
X142494000Y-110744000D01*
X131880894Y-115570000D02*
X132252894Y-115198000D01*
X152146000Y-97790000D02*
X151638000Y-98298000D01*
X132252894Y-115198000D02*
X132790425Y-115198000D01*
X146304000Y-78708000D02*
X146304000Y-83820000D01*
X146558000Y-94996000D02*
X151130000Y-94996000D01*
X128840000Y-115570000D02*
X131880894Y-115570000D01*
X127570000Y-116840000D02*
X128840000Y-115570000D01*
X151130000Y-94996000D02*
X152146000Y-96012000D01*
X146050000Y-87884000D02*
X145542000Y-88392000D01*
X132790425Y-115198000D02*
X132926425Y-115062000D01*
X141986000Y-112776000D02*
X141986000Y-111252000D01*
X127570000Y-117348000D02*
X127570000Y-116840000D01*
X149860000Y-128270000D02*
X145788000Y-124198000D01*
X151638000Y-98298000D02*
X151638000Y-106222000D01*
X144524000Y-110744000D02*
X145820000Y-112040000D01*
X152146000Y-96012000D02*
X152146000Y-97790000D01*
X146304000Y-83820000D02*
X146050000Y-84074000D01*
X145542000Y-93980000D02*
X146558000Y-94996000D01*
X145788000Y-124198000D02*
X145788000Y-112072000D01*
X139700000Y-115062000D02*
X141986000Y-112776000D01*
X145542000Y-88392000D02*
X145542000Y-93980000D01*
X142494000Y-110744000D02*
X144524000Y-110744000D01*
X149860000Y-129286000D02*
X149860000Y-128270000D01*
X146050000Y-84074000D02*
X146050000Y-87884000D01*
X132926425Y-115062000D02*
X139700000Y-115062000D01*
X151638000Y-106222000D02*
X145820000Y-112040000D01*
X145788000Y-112072000D02*
X145820000Y-112040000D01*
%TO.N,/SD_DETECT*%
X131612500Y-82550000D02*
X131612500Y-84582000D01*
X130913166Y-81626000D02*
X131612500Y-82325334D01*
X132588000Y-82550000D02*
X131612500Y-82550000D01*
X147574000Y-86106000D02*
X161036000Y-86106000D01*
X161036000Y-86106000D02*
X162306000Y-87376000D01*
X114400000Y-88050000D02*
X120824000Y-81626000D01*
X161134976Y-90424000D02*
X160528000Y-90424000D01*
X135636000Y-81026000D02*
X135636000Y-81280000D01*
X135636000Y-81280000D02*
X139446000Y-85090000D01*
X160528000Y-90424000D02*
X159004000Y-91948000D01*
X139446000Y-85090000D02*
X139954000Y-85090000D01*
X162306000Y-87376000D02*
X162306000Y-89252976D01*
X120824000Y-81626000D02*
X130913166Y-81626000D01*
X159004000Y-91948000D02*
X158496000Y-91948000D01*
X131612500Y-82325334D02*
X131612500Y-82550000D01*
X162306000Y-89252976D02*
X161134976Y-90424000D01*
X147320000Y-86360000D02*
X147574000Y-86106000D01*
%TO.N,Net-(R6-Pad1)*%
X138226000Y-114554000D02*
X132727318Y-114554000D01*
X131681788Y-115062000D02*
X127207000Y-115062000D01*
X140740000Y-112040000D02*
X138226000Y-114554000D01*
X132045788Y-114698000D02*
X131681788Y-115062000D01*
X132583318Y-114698000D02*
X132045788Y-114698000D01*
X132727318Y-114554000D02*
X132583318Y-114698000D01*
X127207000Y-115062000D02*
X125984000Y-113839000D01*
%TO.N,/UART*%
X131838682Y-114198000D02*
X131482682Y-114554000D01*
X125984000Y-112014000D02*
X123190000Y-114808000D01*
X132376212Y-114198000D02*
X131838682Y-114198000D01*
X136186000Y-114054000D02*
X132520211Y-114054000D01*
X132520211Y-114054000D02*
X132376212Y-114198000D01*
X123190000Y-114808000D02*
X114348000Y-114808000D01*
X128524000Y-114554000D02*
X125984000Y-112014000D01*
X138200000Y-112040000D02*
X136186000Y-114054000D01*
X114348000Y-114808000D02*
X111300000Y-111760000D01*
X131482682Y-114554000D02*
X128524000Y-114554000D01*
D35*
%TO.N,Net-(U5-N)*%
X123805000Y-111278556D02*
X122815556Y-112268000D01*
X123805000Y-110792768D02*
X123805000Y-111278556D01*
X125083768Y-109514000D02*
X123805000Y-110792768D01*
X121427000Y-112268000D02*
X119649000Y-110490000D01*
X127762000Y-109514000D02*
X125083768Y-109514000D01*
X122815556Y-112268000D02*
X121427000Y-112268000D01*
%TO.N,Net-(U6-N)*%
X115331000Y-110490000D02*
X120142000Y-105679000D01*
X120142000Y-105679000D02*
X120142000Y-104648000D01*
%TD*%
%TA.AperFunction,Conductor*%
%TO.N,GND*%
G36*
X116674260Y-50395502D02*
G01*
X116720753Y-50449158D01*
X116730857Y-50519432D01*
X116701363Y-50584012D01*
X116682391Y-50601808D01*
X116454977Y-50774682D01*
X116454962Y-50774695D01*
X116194516Y-51021404D01*
X115962256Y-51294843D01*
X115760924Y-51591785D01*
X115760922Y-51591789D01*
X115592876Y-51908759D01*
X115592872Y-51908768D01*
X115460084Y-52242040D01*
X115364103Y-52587730D01*
X115306064Y-52941762D01*
X115286641Y-53299996D01*
X115286641Y-53300003D01*
X115306064Y-53658237D01*
X115364103Y-54012269D01*
X115460084Y-54357959D01*
X115460085Y-54357961D01*
X115592877Y-54691243D01*
X115760925Y-55008215D01*
X115962258Y-55305159D01*
X116194516Y-55578595D01*
X116454962Y-55825304D01*
X116454977Y-55825317D01*
X116740586Y-56042431D01*
X117047995Y-56227393D01*
X117373599Y-56378033D01*
X117713583Y-56492587D01*
X118063958Y-56569711D01*
X118420618Y-56608500D01*
X118420626Y-56608500D01*
X118779374Y-56608500D01*
X118779382Y-56608500D01*
X119136042Y-56569711D01*
X119486417Y-56492587D01*
X119826401Y-56378033D01*
X120152005Y-56227393D01*
X120459414Y-56042431D01*
X120745023Y-55825317D01*
X121005484Y-55578595D01*
X121237742Y-55305159D01*
X121439075Y-55008215D01*
X121607123Y-54691243D01*
X121739915Y-54357961D01*
X121835895Y-54012274D01*
X121893936Y-53658237D01*
X121913359Y-53300000D01*
X121893936Y-52941763D01*
X121840990Y-52618804D01*
X121835896Y-52587730D01*
X121799177Y-52455481D01*
X121739915Y-52242039D01*
X121607123Y-51908757D01*
X121439075Y-51591785D01*
X121237742Y-51294841D01*
X121005484Y-51021405D01*
X120949838Y-50968694D01*
X120745037Y-50774695D01*
X120745022Y-50774682D01*
X120656425Y-50707333D01*
X120517608Y-50601807D01*
X120475483Y-50544659D01*
X120470942Y-50473808D01*
X120505426Y-50411749D01*
X120567988Y-50378185D01*
X120593861Y-50375500D01*
X154706139Y-50375500D01*
X154774260Y-50395502D01*
X154820753Y-50449158D01*
X154830857Y-50519432D01*
X154801363Y-50584012D01*
X154782391Y-50601808D01*
X154554977Y-50774682D01*
X154554962Y-50774695D01*
X154294516Y-51021404D01*
X154062256Y-51294843D01*
X153860924Y-51591785D01*
X153860922Y-51591789D01*
X153692876Y-51908759D01*
X153692872Y-51908768D01*
X153560084Y-52242040D01*
X153464103Y-52587730D01*
X153406064Y-52941762D01*
X153386641Y-53299996D01*
X153386641Y-53300003D01*
X153406064Y-53658237D01*
X153464103Y-54012269D01*
X153560084Y-54357959D01*
X153560085Y-54357961D01*
X153692877Y-54691243D01*
X153860925Y-55008215D01*
X154062258Y-55305159D01*
X154294516Y-55578595D01*
X154554962Y-55825304D01*
X154554977Y-55825317D01*
X154840586Y-56042431D01*
X155147995Y-56227393D01*
X155473599Y-56378033D01*
X155813583Y-56492587D01*
X156163958Y-56569711D01*
X156520618Y-56608500D01*
X156520626Y-56608500D01*
X156879374Y-56608500D01*
X156879382Y-56608500D01*
X157236042Y-56569711D01*
X157586417Y-56492587D01*
X157926401Y-56378033D01*
X158252005Y-56227393D01*
X158559414Y-56042431D01*
X158845023Y-55825317D01*
X159105484Y-55578595D01*
X159337742Y-55305159D01*
X159539075Y-55008215D01*
X159707123Y-54691243D01*
X159839915Y-54357961D01*
X159935895Y-54012274D01*
X159993936Y-53658237D01*
X160013359Y-53300000D01*
X159993936Y-52941763D01*
X159940990Y-52618804D01*
X159935896Y-52587730D01*
X159899177Y-52455481D01*
X159839915Y-52242039D01*
X159707123Y-51908757D01*
X159539075Y-51591785D01*
X159337742Y-51294841D01*
X159105484Y-51021405D01*
X159049838Y-50968694D01*
X158845037Y-50774695D01*
X158845022Y-50774682D01*
X158756425Y-50707333D01*
X158617608Y-50601807D01*
X158575483Y-50544659D01*
X158570942Y-50473808D01*
X158605426Y-50411749D01*
X158667988Y-50378185D01*
X158693861Y-50375500D01*
X165552405Y-50375500D01*
X165596195Y-50375500D01*
X165603802Y-50375730D01*
X165862345Y-50391368D01*
X165877426Y-50393199D01*
X166128459Y-50439203D01*
X166143210Y-50442839D01*
X166386869Y-50518765D01*
X166401086Y-50524158D01*
X166633796Y-50628892D01*
X166647267Y-50635962D01*
X166865666Y-50767990D01*
X166878169Y-50776619D01*
X167079073Y-50934017D01*
X167090453Y-50944100D01*
X167270899Y-51124546D01*
X167280983Y-51135927D01*
X167438377Y-51336827D01*
X167447013Y-51349338D01*
X167579036Y-51567730D01*
X167586107Y-51581203D01*
X167690839Y-51813908D01*
X167696235Y-51828135D01*
X167772157Y-52071778D01*
X167775798Y-52086551D01*
X167821798Y-52337561D01*
X167823632Y-52352665D01*
X167839270Y-52611196D01*
X167839500Y-52618804D01*
X167839500Y-136431195D01*
X167839270Y-136438803D01*
X167823632Y-136697334D01*
X167821798Y-136712438D01*
X167775798Y-136963448D01*
X167772157Y-136978221D01*
X167696235Y-137221864D01*
X167690839Y-137236091D01*
X167586107Y-137468796D01*
X167579036Y-137482269D01*
X167447013Y-137700661D01*
X167438370Y-137713183D01*
X167280989Y-137914065D01*
X167270899Y-137925453D01*
X167090453Y-138105899D01*
X167079065Y-138115989D01*
X166878183Y-138273370D01*
X166865661Y-138282013D01*
X166647269Y-138414036D01*
X166633796Y-138421107D01*
X166401091Y-138525839D01*
X166386864Y-138531235D01*
X166143221Y-138607157D01*
X166128448Y-138610798D01*
X165877438Y-138656798D01*
X165862334Y-138658632D01*
X165644390Y-138671815D01*
X165603801Y-138674270D01*
X165596195Y-138674500D01*
X158758810Y-138674500D01*
X158690689Y-138654498D01*
X158644196Y-138600842D01*
X158634092Y-138530568D01*
X158663586Y-138465988D01*
X158682558Y-138448192D01*
X158844701Y-138324932D01*
X158855495Y-138314706D01*
X158855495Y-138314704D01*
X157640795Y-137100004D01*
X157643365Y-137098430D01*
X157834870Y-136934870D01*
X157998430Y-136743365D01*
X158000004Y-136740795D01*
X159211830Y-137952621D01*
X159211831Y-137952621D01*
X159337340Y-137804862D01*
X159337342Y-137804858D01*
X159538647Y-137507956D01*
X159538649Y-137507952D01*
X159706669Y-137191030D01*
X159706673Y-137191021D01*
X159839440Y-136857801D01*
X159935407Y-136512162D01*
X159993438Y-136158183D01*
X160012859Y-135800003D01*
X160012859Y-135799996D01*
X159993438Y-135441816D01*
X159935407Y-135087837D01*
X159839440Y-134742198D01*
X159706673Y-134408978D01*
X159706669Y-134408969D01*
X159538649Y-134092047D01*
X159538647Y-134092043D01*
X159337348Y-133795150D01*
X159211830Y-133647378D01*
X158000004Y-134859204D01*
X157998430Y-134856635D01*
X157834870Y-134665130D01*
X157643365Y-134501570D01*
X157640794Y-134499994D01*
X158855496Y-133285293D01*
X158855496Y-133285292D01*
X158844702Y-133275067D01*
X158844699Y-133275065D01*
X158559150Y-133057994D01*
X158559132Y-133057982D01*
X158251772Y-132873050D01*
X158251765Y-132873046D01*
X158147600Y-132824854D01*
X158094174Y-132778098D01*
X158074508Y-132709879D01*
X158094845Y-132641858D01*
X158148729Y-132595630D01*
X158200506Y-132584500D01*
X162495559Y-132584500D01*
X162513819Y-132585830D01*
X162519489Y-132586660D01*
X162537789Y-132589341D01*
X162587646Y-132584978D01*
X162598627Y-132584500D01*
X162604175Y-132584500D01*
X162604180Y-132584500D01*
X162635287Y-132580863D01*
X162638889Y-132580495D01*
X162714426Y-132573887D01*
X162714430Y-132573885D01*
X162721618Y-132572402D01*
X162721631Y-132572468D01*
X162728987Y-132570836D01*
X162728972Y-132570771D01*
X162736102Y-132569080D01*
X162736113Y-132569079D01*
X162807400Y-132543132D01*
X162810769Y-132541961D01*
X162882738Y-132518114D01*
X162882747Y-132518108D01*
X162889389Y-132515012D01*
X162889418Y-132515074D01*
X162896203Y-132511789D01*
X162896173Y-132511729D01*
X162902724Y-132508437D01*
X162902732Y-132508435D01*
X162966091Y-132466761D01*
X162969161Y-132464806D01*
X163033651Y-132425030D01*
X163033659Y-132425021D01*
X163039408Y-132420477D01*
X163039450Y-132420531D01*
X163045289Y-132415775D01*
X163045246Y-132415723D01*
X163050864Y-132411007D01*
X163050874Y-132411001D01*
X163102961Y-132355790D01*
X163105448Y-132353231D01*
X164628314Y-130830365D01*
X164642153Y-130818405D01*
X164661594Y-130803933D01*
X164693763Y-130765594D01*
X164701181Y-130757498D01*
X164705117Y-130753564D01*
X164724561Y-130728971D01*
X164726801Y-130726221D01*
X164775568Y-130668104D01*
X164775569Y-130668100D01*
X164775572Y-130668098D01*
X164779606Y-130661966D01*
X164779663Y-130662003D01*
X164783707Y-130655655D01*
X164783648Y-130655619D01*
X164787501Y-130649371D01*
X164787503Y-130649369D01*
X164819571Y-130580596D01*
X164821093Y-130577453D01*
X164855145Y-130509652D01*
X164855145Y-130509648D01*
X164855147Y-130509646D01*
X164857655Y-130502755D01*
X164857720Y-130502778D01*
X164860194Y-130495661D01*
X164860130Y-130495640D01*
X164862439Y-130488671D01*
X164877774Y-130414400D01*
X164878558Y-130410861D01*
X164896036Y-130337120D01*
X164896036Y-130337119D01*
X164896888Y-130329832D01*
X164896955Y-130329839D01*
X164897721Y-130322341D01*
X164897655Y-130322336D01*
X164898293Y-130315029D01*
X164898295Y-130315022D01*
X164896089Y-130239204D01*
X164896036Y-130235540D01*
X164896036Y-112641977D01*
X164897366Y-112623718D01*
X164898476Y-112616136D01*
X164900877Y-112599747D01*
X164896515Y-112549888D01*
X164896036Y-112538908D01*
X164896036Y-112533349D01*
X164892402Y-112502270D01*
X164892032Y-112498658D01*
X164885423Y-112423110D01*
X164885421Y-112423106D01*
X164883939Y-112415924D01*
X164884005Y-112415910D01*
X164882373Y-112408548D01*
X164882308Y-112408564D01*
X164880616Y-112401426D01*
X164860201Y-112345336D01*
X164855698Y-112274482D01*
X164856887Y-112269658D01*
X164858944Y-112261986D01*
X164878365Y-112040000D01*
X164858944Y-111818014D01*
X164801270Y-111602773D01*
X164707097Y-111400818D01*
X164579284Y-111218283D01*
X164579283Y-111218282D01*
X164579280Y-111218278D01*
X164421723Y-111060721D01*
X164421715Y-111060714D01*
X164388228Y-111037266D01*
X164343900Y-110981809D01*
X164334500Y-110934054D01*
X164334500Y-105728435D01*
X164335831Y-105710172D01*
X164337982Y-105695488D01*
X164339341Y-105686211D01*
X164334979Y-105636351D01*
X164334500Y-105625371D01*
X164334500Y-105619825D01*
X164334500Y-105619820D01*
X164330863Y-105588712D01*
X164330492Y-105585080D01*
X164323887Y-105509573D01*
X164323886Y-105509569D01*
X164322403Y-105502387D01*
X164322469Y-105502373D01*
X164320839Y-105495019D01*
X164320773Y-105495035D01*
X164319079Y-105487890D01*
X164319079Y-105487887D01*
X164293137Y-105416612D01*
X164291963Y-105413234D01*
X164268115Y-105341264D01*
X164265014Y-105334615D01*
X164265076Y-105334586D01*
X164261791Y-105327800D01*
X164261731Y-105327831D01*
X164258434Y-105321267D01*
X164216775Y-105257925D01*
X164214807Y-105254836D01*
X164185061Y-105206612D01*
X164175030Y-105190349D01*
X164175027Y-105190346D01*
X164170477Y-105184591D01*
X164170530Y-105184548D01*
X164165766Y-105178700D01*
X164165715Y-105178744D01*
X164160998Y-105173122D01*
X164105826Y-105121070D01*
X164103197Y-105118516D01*
X163101405Y-104116724D01*
X163067379Y-104054412D01*
X163064500Y-104027629D01*
X163064500Y-98138626D01*
X163084502Y-98070505D01*
X163138158Y-98024012D01*
X163208432Y-98013908D01*
X163223111Y-98016919D01*
X163378102Y-98058448D01*
X163600000Y-98077862D01*
X163821897Y-98058448D01*
X164037053Y-98000798D01*
X164037058Y-98000796D01*
X164238931Y-97906662D01*
X164238932Y-97906661D01*
X164302757Y-97861969D01*
X164302757Y-97861967D01*
X163736419Y-97295629D01*
X163745161Y-97294373D01*
X163878562Y-97233451D01*
X163989395Y-97137413D01*
X164068682Y-97014040D01*
X164092417Y-96933206D01*
X164661968Y-97502757D01*
X164661969Y-97502757D01*
X164706661Y-97438932D01*
X164706662Y-97438931D01*
X164800796Y-97237058D01*
X164800798Y-97237053D01*
X164858448Y-97021897D01*
X164877862Y-96800000D01*
X164858448Y-96578102D01*
X164800798Y-96362946D01*
X164800796Y-96362941D01*
X164706661Y-96161068D01*
X164661969Y-96097241D01*
X164661967Y-96097241D01*
X164092416Y-96666791D01*
X164068682Y-96585960D01*
X163989395Y-96462587D01*
X163878562Y-96366549D01*
X163745161Y-96305627D01*
X163736419Y-96304370D01*
X164302757Y-95738030D01*
X164302757Y-95738029D01*
X164238930Y-95693337D01*
X164238931Y-95693337D01*
X164037058Y-95599203D01*
X164037053Y-95599201D01*
X163821897Y-95541551D01*
X163600000Y-95522137D01*
X163378101Y-95541551D01*
X163223110Y-95583080D01*
X163152134Y-95581390D01*
X163093338Y-95541595D01*
X163065391Y-95476331D01*
X163064500Y-95461373D01*
X163064500Y-93354441D01*
X163065830Y-93336182D01*
X163066940Y-93328600D01*
X163069341Y-93312211D01*
X163064979Y-93262352D01*
X163064500Y-93251372D01*
X163064500Y-93245813D01*
X163060866Y-93214734D01*
X163060496Y-93211122D01*
X163053887Y-93135574D01*
X163053885Y-93135570D01*
X163052403Y-93128388D01*
X163052469Y-93128374D01*
X163050837Y-93121012D01*
X163050772Y-93121028D01*
X163049081Y-93113893D01*
X163049079Y-93113887D01*
X163023139Y-93042620D01*
X163021952Y-93039203D01*
X163016963Y-93024147D01*
X162998114Y-92967262D01*
X162998109Y-92967255D01*
X162995012Y-92960611D01*
X162995074Y-92960581D01*
X162991788Y-92953795D01*
X162991728Y-92953826D01*
X162988433Y-92947265D01*
X162946782Y-92883939D01*
X162944812Y-92880846D01*
X162905032Y-92816351D01*
X162900478Y-92810592D01*
X162900531Y-92810549D01*
X162895766Y-92804700D01*
X162895715Y-92804744D01*
X162890998Y-92799122D01*
X162835826Y-92747070D01*
X162833197Y-92744516D01*
X162385405Y-92296724D01*
X162351379Y-92234412D01*
X162348500Y-92207629D01*
X162348500Y-91575367D01*
X162348499Y-91575350D01*
X162341990Y-91514803D01*
X162341988Y-91514795D01*
X162300325Y-91403095D01*
X162290889Y-91377796D01*
X162290888Y-91377794D01*
X162290887Y-91377792D01*
X162203261Y-91260738D01*
X162086207Y-91173112D01*
X162086202Y-91173110D01*
X161949204Y-91122011D01*
X161949196Y-91122009D01*
X161888649Y-91115500D01*
X161888638Y-91115500D01*
X161685306Y-91115500D01*
X161617185Y-91095498D01*
X161570692Y-91041842D01*
X161560588Y-90971568D01*
X161588219Y-90909187D01*
X161589331Y-90907842D01*
X161589333Y-90907841D01*
X161618788Y-90872233D01*
X161626757Y-90863477D01*
X162710386Y-89779848D01*
X162723129Y-89769641D01*
X162722969Y-89769447D01*
X162729075Y-89764394D01*
X162729080Y-89764392D01*
X162777638Y-89712681D01*
X162780298Y-89709936D01*
X162800927Y-89689309D01*
X162803642Y-89685807D01*
X162811346Y-89676785D01*
X162842972Y-89643109D01*
X162853310Y-89624303D01*
X162864152Y-89607799D01*
X162877304Y-89590844D01*
X162895653Y-89548442D01*
X162900877Y-89537779D01*
X162923123Y-89497315D01*
X162923124Y-89497313D01*
X162928457Y-89476538D01*
X162934856Y-89457845D01*
X162943380Y-89438152D01*
X162950609Y-89392497D01*
X162953009Y-89380912D01*
X162964500Y-89336164D01*
X162964500Y-89314717D01*
X162966051Y-89295006D01*
X162966429Y-89292621D01*
X162969406Y-89273824D01*
X162965059Y-89227835D01*
X162964500Y-89215978D01*
X162964500Y-87462611D01*
X162966292Y-87446382D01*
X162966042Y-87446359D01*
X162966788Y-87438465D01*
X162965781Y-87406436D01*
X162964562Y-87367629D01*
X162964500Y-87363671D01*
X162964500Y-87334576D01*
X162964500Y-87334568D01*
X162963942Y-87330157D01*
X162963012Y-87318333D01*
X162962189Y-87292135D01*
X162961562Y-87272169D01*
X162955579Y-87251576D01*
X162951571Y-87232218D01*
X162948882Y-87210939D01*
X162948882Y-87210936D01*
X162931869Y-87167966D01*
X162928030Y-87156751D01*
X162915145Y-87112400D01*
X162904226Y-87093939D01*
X162895528Y-87076182D01*
X162887635Y-87056244D01*
X162860477Y-87018864D01*
X162853965Y-87008951D01*
X162830452Y-86969193D01*
X162830451Y-86969192D01*
X162830450Y-86969190D01*
X162815291Y-86954031D01*
X162802450Y-86938998D01*
X162789841Y-86921643D01*
X162754231Y-86892184D01*
X162745461Y-86884202D01*
X161562875Y-85701615D01*
X161552664Y-85688869D01*
X161552471Y-85689030D01*
X161547417Y-85682921D01*
X161543929Y-85679646D01*
X161495741Y-85634394D01*
X161492930Y-85631670D01*
X161472333Y-85611073D01*
X161472331Y-85611071D01*
X161472325Y-85611066D01*
X161468827Y-85608353D01*
X161459803Y-85600646D01*
X161457576Y-85598555D01*
X161426133Y-85569028D01*
X161426130Y-85569026D01*
X161426125Y-85569023D01*
X161407338Y-85558694D01*
X161390818Y-85547843D01*
X161373867Y-85534695D01*
X161331465Y-85516346D01*
X161320810Y-85511126D01*
X161304221Y-85502006D01*
X161280338Y-85488876D01*
X161280335Y-85488875D01*
X161259568Y-85483543D01*
X161240865Y-85477140D01*
X161227972Y-85471561D01*
X161221176Y-85468620D01*
X161221174Y-85468619D01*
X161221176Y-85468619D01*
X161175552Y-85461394D01*
X161163929Y-85458987D01*
X161119188Y-85447500D01*
X161097741Y-85447500D01*
X161078032Y-85445949D01*
X161056848Y-85442594D01*
X161056847Y-85442594D01*
X161036770Y-85444491D01*
X161010859Y-85446941D01*
X160999004Y-85447500D01*
X147660611Y-85447500D01*
X147644379Y-85445708D01*
X147644356Y-85445958D01*
X147636463Y-85445211D01*
X147565631Y-85447438D01*
X147561673Y-85447500D01*
X147532568Y-85447500D01*
X147528163Y-85448056D01*
X147516345Y-85448986D01*
X147470170Y-85450437D01*
X147462341Y-85451678D01*
X147461985Y-85449430D01*
X147422195Y-85450885D01*
X147422058Y-85452190D01*
X147415491Y-85451500D01*
X147415487Y-85451500D01*
X147224513Y-85451500D01*
X147037711Y-85491206D01*
X146885749Y-85558864D01*
X146815382Y-85568298D01*
X146751085Y-85538191D01*
X146713271Y-85478103D01*
X146708500Y-85443757D01*
X146708500Y-84401088D01*
X146728502Y-84332967D01*
X146742648Y-84314837D01*
X146775652Y-84279690D01*
X146778312Y-84276945D01*
X146798926Y-84256333D01*
X146801645Y-84252826D01*
X146809343Y-84243813D01*
X146840972Y-84210133D01*
X146851303Y-84191339D01*
X146862151Y-84174823D01*
X146875304Y-84157869D01*
X146893659Y-84115451D01*
X146898875Y-84104806D01*
X146902583Y-84098062D01*
X146921124Y-84064337D01*
X146926456Y-84043567D01*
X146932861Y-84024863D01*
X146933716Y-84022884D01*
X146941380Y-84005177D01*
X146948607Y-83959540D01*
X146951008Y-83947941D01*
X146962500Y-83903188D01*
X146962500Y-83881742D01*
X146964051Y-83862031D01*
X146967406Y-83840849D01*
X146963059Y-83794860D01*
X146962500Y-83783003D01*
X146962500Y-78794614D01*
X146964292Y-78778379D01*
X146964043Y-78778356D01*
X146964787Y-78770470D01*
X146964789Y-78770463D01*
X146962562Y-78699611D01*
X146962500Y-78695653D01*
X146962500Y-78666571D01*
X146962499Y-78666564D01*
X146961946Y-78662187D01*
X146961012Y-78650335D01*
X146959924Y-78615703D01*
X146959562Y-78604169D01*
X146953579Y-78583576D01*
X146949571Y-78564218D01*
X146946882Y-78542939D01*
X146946882Y-78542936D01*
X146929869Y-78499966D01*
X146926030Y-78488751D01*
X146913145Y-78444400D01*
X146902224Y-78425935D01*
X146893531Y-78408189D01*
X146885635Y-78388244D01*
X146858483Y-78350874D01*
X146851965Y-78340951D01*
X146828452Y-78301191D01*
X146813288Y-78286027D01*
X146800447Y-78270993D01*
X146787841Y-78253643D01*
X146787836Y-78253637D01*
X146752248Y-78224197D01*
X146743467Y-78216207D01*
X145468969Y-76941709D01*
X145462575Y-76930000D01*
X161840236Y-76930000D01*
X161858307Y-77148086D01*
X161860058Y-77169206D01*
X161918976Y-77401870D01*
X161918977Y-77401871D01*
X161918978Y-77401874D01*
X162015392Y-77621677D01*
X162146671Y-77822613D01*
X162146674Y-77822617D01*
X162146676Y-77822619D01*
X162309225Y-77999195D01*
X162309231Y-77999201D01*
X162498640Y-78146624D01*
X162709731Y-78260860D01*
X162936745Y-78338795D01*
X163173490Y-78378300D01*
X163173494Y-78378300D01*
X163413506Y-78378300D01*
X163413510Y-78378300D01*
X163650255Y-78338795D01*
X163877269Y-78260860D01*
X164088360Y-78146624D01*
X164277769Y-77999201D01*
X164440329Y-77822613D01*
X164571608Y-77621677D01*
X164668022Y-77401874D01*
X164726943Y-77169199D01*
X164746764Y-76930000D01*
X164726943Y-76690801D01*
X164689025Y-76541066D01*
X164668023Y-76458129D01*
X164668022Y-76458128D01*
X164668022Y-76458126D01*
X164571608Y-76238323D01*
X164440329Y-76037387D01*
X164402803Y-75996623D01*
X164277774Y-75860804D01*
X164277772Y-75860802D01*
X164277769Y-75860799D01*
X164147531Y-75759430D01*
X164106061Y-75701807D01*
X164102327Y-75630908D01*
X164137517Y-75569246D01*
X164147531Y-75560569D01*
X164277769Y-75459201D01*
X164440329Y-75282613D01*
X164571608Y-75081677D01*
X164668022Y-74861874D01*
X164726943Y-74629199D01*
X164746764Y-74390000D01*
X164726943Y-74150801D01*
X164668022Y-73918126D01*
X164571608Y-73698323D01*
X164440329Y-73497387D01*
X164432261Y-73488623D01*
X164277774Y-73320804D01*
X164277772Y-73320802D01*
X164277769Y-73320799D01*
X164147531Y-73219430D01*
X164106061Y-73161807D01*
X164102327Y-73090908D01*
X164137517Y-73029246D01*
X164147531Y-73020569D01*
X164277769Y-72919201D01*
X164440329Y-72742613D01*
X164571608Y-72541677D01*
X164668022Y-72321874D01*
X164726943Y-72089199D01*
X164746764Y-71850000D01*
X164726943Y-71610801D01*
X164668022Y-71378126D01*
X164571608Y-71158323D01*
X164440329Y-70957387D01*
X164350516Y-70859824D01*
X164277774Y-70780804D01*
X164277772Y-70780802D01*
X164277769Y-70780799D01*
X164147531Y-70679430D01*
X164106061Y-70621807D01*
X164102327Y-70550908D01*
X164137517Y-70489246D01*
X164147531Y-70480569D01*
X164277769Y-70379201D01*
X164440329Y-70202613D01*
X164571608Y-70001677D01*
X164668022Y-69781874D01*
X164726943Y-69549199D01*
X164746764Y-69310000D01*
X164726943Y-69070801D01*
X164702407Y-68973910D01*
X164668023Y-68838129D01*
X164668022Y-68838128D01*
X164668022Y-68838126D01*
X164571608Y-68618323D01*
X164440329Y-68417387D01*
X164419558Y-68394824D01*
X164277774Y-68240804D01*
X164277772Y-68240802D01*
X164277769Y-68240799D01*
X164147531Y-68139430D01*
X164106061Y-68081807D01*
X164102327Y-68010908D01*
X164137517Y-67949246D01*
X164147531Y-67940569D01*
X164277769Y-67839201D01*
X164440329Y-67662613D01*
X164571608Y-67461677D01*
X164668022Y-67241874D01*
X164726943Y-67009199D01*
X164746764Y-66770000D01*
X164726943Y-66530801D01*
X164693523Y-66398826D01*
X164668023Y-66298129D01*
X164668022Y-66298128D01*
X164668022Y-66298126D01*
X164571608Y-66078323D01*
X164440329Y-65877387D01*
X164413230Y-65847950D01*
X164277774Y-65700804D01*
X164277772Y-65700802D01*
X164277769Y-65700799D01*
X164088360Y-65553376D01*
X163877269Y-65439140D01*
X163877266Y-65439139D01*
X163877265Y-65439138D01*
X163650259Y-65361206D01*
X163650250Y-65361204D01*
X163603174Y-65353348D01*
X163413510Y-65321700D01*
X163173490Y-65321700D01*
X163015474Y-65348067D01*
X162936749Y-65361204D01*
X162936740Y-65361206D01*
X162709734Y-65439138D01*
X162709731Y-65439140D01*
X162498640Y-65553376D01*
X162498638Y-65553377D01*
X162498637Y-65553378D01*
X162309230Y-65700800D01*
X162309225Y-65700804D01*
X162146676Y-65877380D01*
X162015392Y-66078323D01*
X161918977Y-66298128D01*
X161918976Y-66298129D01*
X161860058Y-66530793D01*
X161860057Y-66530799D01*
X161860057Y-66530801D01*
X161840236Y-66770000D01*
X161858307Y-66988086D01*
X161860058Y-67009206D01*
X161918976Y-67241870D01*
X161918977Y-67241871D01*
X161918978Y-67241874D01*
X162015392Y-67461677D01*
X162146671Y-67662613D01*
X162146674Y-67662617D01*
X162146676Y-67662619D01*
X162242027Y-67766198D01*
X162309231Y-67839201D01*
X162309234Y-67839203D01*
X162309237Y-67839206D01*
X162439467Y-67940569D01*
X162480938Y-67998194D01*
X162484671Y-68069092D01*
X162449481Y-68130754D01*
X162439467Y-68139431D01*
X162309237Y-68240793D01*
X162309225Y-68240804D01*
X162146676Y-68417380D01*
X162015392Y-68618323D01*
X161918977Y-68838128D01*
X161918976Y-68838129D01*
X161860058Y-69070793D01*
X161860057Y-69070799D01*
X161860057Y-69070801D01*
X161840236Y-69310000D01*
X161858307Y-69528086D01*
X161860058Y-69549206D01*
X161918976Y-69781870D01*
X161918977Y-69781871D01*
X161918978Y-69781874D01*
X162015392Y-70001677D01*
X162146671Y-70202613D01*
X162146674Y-70202617D01*
X162146676Y-70202619D01*
X162242027Y-70306198D01*
X162309231Y-70379201D01*
X162309234Y-70379203D01*
X162309237Y-70379206D01*
X162439467Y-70480569D01*
X162480938Y-70538194D01*
X162484671Y-70609092D01*
X162449481Y-70670754D01*
X162439467Y-70679431D01*
X162309237Y-70780793D01*
X162309225Y-70780804D01*
X162146676Y-70957380D01*
X162146672Y-70957385D01*
X162146671Y-70957387D01*
X162103051Y-71024152D01*
X162015392Y-71158323D01*
X161918977Y-71378128D01*
X161918976Y-71378129D01*
X161860058Y-71610793D01*
X161860057Y-71610799D01*
X161860057Y-71610801D01*
X161840236Y-71850000D01*
X161858307Y-72068086D01*
X161860058Y-72089206D01*
X161918976Y-72321870D01*
X161918977Y-72321871D01*
X161918978Y-72321874D01*
X162015392Y-72541677D01*
X162146671Y-72742613D01*
X162146674Y-72742617D01*
X162146676Y-72742619D01*
X162309225Y-72919195D01*
X162309231Y-72919201D01*
X162309234Y-72919203D01*
X162309237Y-72919206D01*
X162439467Y-73020569D01*
X162480938Y-73078194D01*
X162484671Y-73149092D01*
X162449481Y-73210754D01*
X162439467Y-73219431D01*
X162309237Y-73320793D01*
X162309225Y-73320804D01*
X162146676Y-73497380D01*
X162146672Y-73497385D01*
X162146671Y-73497387D01*
X162088325Y-73586692D01*
X162015392Y-73698323D01*
X161918977Y-73918128D01*
X161918976Y-73918129D01*
X161860058Y-74150793D01*
X161860057Y-74150799D01*
X161860057Y-74150801D01*
X161840236Y-74390000D01*
X161858307Y-74608086D01*
X161860058Y-74629206D01*
X161918976Y-74861870D01*
X161918977Y-74861871D01*
X161918978Y-74861874D01*
X162015392Y-75081677D01*
X162146671Y-75282613D01*
X162146674Y-75282617D01*
X162146676Y-75282619D01*
X162309225Y-75459195D01*
X162309231Y-75459201D01*
X162309234Y-75459203D01*
X162309237Y-75459206D01*
X162439467Y-75560569D01*
X162480938Y-75618194D01*
X162484671Y-75689092D01*
X162449481Y-75750754D01*
X162439467Y-75759431D01*
X162309237Y-75860793D01*
X162309225Y-75860804D01*
X162146676Y-76037380D01*
X162146672Y-76037385D01*
X162146671Y-76037387D01*
X162121642Y-76075697D01*
X162015392Y-76238323D01*
X161918977Y-76458128D01*
X161918976Y-76458129D01*
X161860058Y-76690793D01*
X161860057Y-76690799D01*
X161860057Y-76690801D01*
X161840236Y-76930000D01*
X145462575Y-76930000D01*
X145434943Y-76879397D01*
X145432754Y-76865784D01*
X145419542Y-76740074D01*
X145419541Y-76740069D01*
X145403894Y-76691913D01*
X145360527Y-76558444D01*
X145265040Y-76393056D01*
X145265038Y-76393054D01*
X145265034Y-76393048D01*
X145137255Y-76251135D01*
X144982752Y-76138882D01*
X144808288Y-76061206D01*
X144621487Y-76021500D01*
X144430513Y-76021500D01*
X144320697Y-76044842D01*
X144249906Y-76039440D01*
X144193274Y-75996623D01*
X144168780Y-75929985D01*
X144168500Y-75921595D01*
X144168500Y-75315281D01*
X144188502Y-75247160D01*
X144220439Y-75213345D01*
X144220750Y-75213118D01*
X144220752Y-75213118D01*
X144375253Y-75100866D01*
X144503040Y-74958944D01*
X144598527Y-74793556D01*
X144657542Y-74611928D01*
X144677504Y-74422000D01*
X144657542Y-74232072D01*
X144598527Y-74050444D01*
X144503040Y-73885056D01*
X144503038Y-73885054D01*
X144503034Y-73885048D01*
X144375255Y-73743135D01*
X144220752Y-73630882D01*
X144046288Y-73553206D01*
X143859487Y-73513500D01*
X143668513Y-73513500D01*
X143558697Y-73536842D01*
X143487906Y-73531440D01*
X143431274Y-73488623D01*
X143406780Y-73421985D01*
X143406500Y-73413595D01*
X143406500Y-65609611D01*
X143408292Y-65593382D01*
X143408042Y-65593359D01*
X143408788Y-65585465D01*
X143406562Y-65514629D01*
X143406500Y-65510671D01*
X143406500Y-65481576D01*
X143406500Y-65481568D01*
X143405942Y-65477157D01*
X143405012Y-65465333D01*
X143404189Y-65439138D01*
X143403562Y-65419169D01*
X143397579Y-65398576D01*
X143393571Y-65379218D01*
X143390882Y-65357939D01*
X143390882Y-65357936D01*
X143373869Y-65314966D01*
X143370030Y-65303751D01*
X143357145Y-65259400D01*
X143346226Y-65240939D01*
X143337528Y-65223182D01*
X143329635Y-65203244D01*
X143302477Y-65165864D01*
X143295965Y-65155951D01*
X143272452Y-65116193D01*
X143272451Y-65116192D01*
X143272450Y-65116190D01*
X143257291Y-65101031D01*
X143244450Y-65085998D01*
X143231841Y-65068643D01*
X143196231Y-65039184D01*
X143187461Y-65031202D01*
X140493008Y-62336749D01*
X137681620Y-59525360D01*
X137647596Y-59463051D01*
X137649010Y-59403659D01*
X137658543Y-59368087D01*
X137678498Y-59140000D01*
X137658543Y-58911913D01*
X137599284Y-58690757D01*
X137502523Y-58483251D01*
X137371198Y-58295700D01*
X137209300Y-58133802D01*
X137021749Y-58002477D01*
X136814246Y-57905717D01*
X136814240Y-57905715D01*
X136720771Y-57880670D01*
X136593087Y-57846457D01*
X136365000Y-57826502D01*
X136136913Y-57846457D01*
X135915759Y-57905715D01*
X135915753Y-57905717D01*
X135708250Y-58002477D01*
X135520703Y-58133799D01*
X135520697Y-58133804D01*
X135358804Y-58295697D01*
X135358799Y-58295703D01*
X135227477Y-58483250D01*
X135130717Y-58690753D01*
X135130716Y-58690757D01*
X135071457Y-58911913D01*
X135051502Y-59140000D01*
X135071457Y-59368087D01*
X135130716Y-59589243D01*
X135227477Y-59796749D01*
X135358802Y-59984300D01*
X135520700Y-60146198D01*
X135708251Y-60277523D01*
X135743359Y-60293894D01*
X135747457Y-60295805D01*
X135800742Y-60342722D01*
X135820203Y-60410999D01*
X135799661Y-60478959D01*
X135747457Y-60524195D01*
X135708250Y-60542477D01*
X135520703Y-60673799D01*
X135520697Y-60673804D01*
X135358804Y-60835697D01*
X135358799Y-60835703D01*
X135227477Y-61023250D01*
X135130717Y-61230753D01*
X135130716Y-61230757D01*
X135071457Y-61451913D01*
X135051502Y-61680000D01*
X135071457Y-61908087D01*
X135130716Y-62129243D01*
X135227477Y-62336749D01*
X135358802Y-62524300D01*
X135520700Y-62686198D01*
X135708251Y-62817523D01*
X135743359Y-62833894D01*
X135747457Y-62835805D01*
X135800742Y-62882722D01*
X135820203Y-62950999D01*
X135799661Y-63018959D01*
X135747457Y-63064195D01*
X135708250Y-63082477D01*
X135520703Y-63213799D01*
X135520697Y-63213804D01*
X135358804Y-63375697D01*
X135358799Y-63375703D01*
X135266325Y-63507771D01*
X135210868Y-63552099D01*
X135163112Y-63561500D01*
X133478611Y-63561500D01*
X133462379Y-63559708D01*
X133462356Y-63559958D01*
X133454463Y-63559211D01*
X133383631Y-63561438D01*
X133379673Y-63561500D01*
X133350568Y-63561500D01*
X133346163Y-63562056D01*
X133334345Y-63562986D01*
X133288172Y-63564437D01*
X133288170Y-63564437D01*
X133288169Y-63564438D01*
X133267571Y-63570421D01*
X133248221Y-63574428D01*
X133226940Y-63577116D01*
X133226934Y-63577118D01*
X133183974Y-63594126D01*
X133172749Y-63597969D01*
X133128406Y-63610852D01*
X133128399Y-63610855D01*
X133109937Y-63621773D01*
X133092191Y-63630466D01*
X133072248Y-63638362D01*
X133072245Y-63638364D01*
X133034872Y-63665517D01*
X133024953Y-63672032D01*
X132985194Y-63695546D01*
X132970022Y-63710717D01*
X132954996Y-63723550D01*
X132937644Y-63736157D01*
X132937643Y-63736158D01*
X132908191Y-63771758D01*
X132900204Y-63780534D01*
X128627611Y-68053127D01*
X128614865Y-68063340D01*
X128615025Y-68063533D01*
X128608920Y-68068583D01*
X128560395Y-68120256D01*
X128557643Y-68123096D01*
X128537074Y-68143665D01*
X128537073Y-68143667D01*
X128534344Y-68147184D01*
X128526650Y-68156191D01*
X128495029Y-68189865D01*
X128495027Y-68189867D01*
X128484691Y-68208667D01*
X128473843Y-68225180D01*
X128460699Y-68242126D01*
X128460694Y-68242135D01*
X128442350Y-68284524D01*
X128437131Y-68295178D01*
X128414877Y-68335661D01*
X128414873Y-68335670D01*
X128409541Y-68356436D01*
X128403139Y-68375136D01*
X128394620Y-68394820D01*
X128394620Y-68394823D01*
X128387393Y-68440452D01*
X128384986Y-68452072D01*
X128373500Y-68496810D01*
X128373500Y-68518258D01*
X128371949Y-68537967D01*
X128368594Y-68559150D01*
X128368594Y-68559152D01*
X128372941Y-68605138D01*
X128373500Y-68616996D01*
X128373500Y-79081240D01*
X128353498Y-79149361D01*
X128341136Y-79165550D01*
X128292965Y-79219048D01*
X128292958Y-79219058D01*
X128197476Y-79384438D01*
X128197473Y-79384445D01*
X128138457Y-79566072D01*
X128118496Y-79756000D01*
X128138457Y-79945927D01*
X128161992Y-80018360D01*
X128189353Y-80102565D01*
X128191381Y-80173531D01*
X128154719Y-80234329D01*
X128091007Y-80265654D01*
X128069520Y-80267500D01*
X116396441Y-80267500D01*
X116378182Y-80266170D01*
X116354212Y-80262659D01*
X116354211Y-80262659D01*
X116308617Y-80266648D01*
X116304354Y-80267021D01*
X116293373Y-80267500D01*
X116287816Y-80267500D01*
X116256713Y-80271135D01*
X116253070Y-80271507D01*
X116177575Y-80278112D01*
X116170389Y-80279596D01*
X116170376Y-80279533D01*
X116163003Y-80281168D01*
X116163018Y-80281231D01*
X116155881Y-80282922D01*
X116084633Y-80308853D01*
X116081176Y-80310055D01*
X116036417Y-80324887D01*
X116009262Y-80333886D01*
X116009260Y-80333886D01*
X116009260Y-80333887D01*
X116002612Y-80336987D01*
X116002583Y-80336926D01*
X115995792Y-80340214D01*
X115995822Y-80340273D01*
X115989269Y-80343563D01*
X115925920Y-80385229D01*
X115922830Y-80387197D01*
X115858351Y-80426968D01*
X115852588Y-80431525D01*
X115852547Y-80431473D01*
X115846704Y-80436233D01*
X115846746Y-80436283D01*
X115841128Y-80440996D01*
X115789087Y-80496156D01*
X115786534Y-80498783D01*
X112199225Y-84086092D01*
X112185376Y-84098062D01*
X112165943Y-84112529D01*
X112133771Y-84150870D01*
X112126360Y-84158958D01*
X112122420Y-84162898D01*
X112122414Y-84162905D01*
X112102997Y-84187460D01*
X112100689Y-84190294D01*
X112051964Y-84248364D01*
X112047935Y-84254491D01*
X112047880Y-84254455D01*
X112043825Y-84260820D01*
X112043882Y-84260855D01*
X112040030Y-84267098D01*
X112007996Y-84335794D01*
X112006401Y-84339087D01*
X111972394Y-84406805D01*
X111969882Y-84413707D01*
X111969820Y-84413684D01*
X111967343Y-84420810D01*
X111967404Y-84420831D01*
X111965096Y-84427795D01*
X111949759Y-84502064D01*
X111948967Y-84505637D01*
X111931500Y-84579340D01*
X111930648Y-84586634D01*
X111930581Y-84586626D01*
X111929814Y-84594126D01*
X111929881Y-84594132D01*
X111929241Y-84601442D01*
X111931447Y-84677258D01*
X111931500Y-84680922D01*
X111931500Y-97131559D01*
X111930170Y-97149819D01*
X111926659Y-97173786D01*
X111926659Y-97173795D01*
X111931020Y-97223633D01*
X111931500Y-97234616D01*
X111931500Y-97240185D01*
X111935135Y-97271289D01*
X111935507Y-97274932D01*
X111942111Y-97350418D01*
X111943596Y-97357606D01*
X111943531Y-97357619D01*
X111945165Y-97364989D01*
X111945229Y-97364975D01*
X111946921Y-97372116D01*
X111972846Y-97443342D01*
X111974049Y-97446804D01*
X111997884Y-97518735D01*
X112000987Y-97525388D01*
X112000926Y-97525416D01*
X112004211Y-97532202D01*
X112004270Y-97532173D01*
X112007563Y-97538730D01*
X112049232Y-97602084D01*
X112051171Y-97605127D01*
X112090970Y-97669651D01*
X112090972Y-97669654D01*
X112095522Y-97675408D01*
X112095468Y-97675450D01*
X112100228Y-97681292D01*
X112100279Y-97681250D01*
X112104997Y-97686872D01*
X112160155Y-97738911D01*
X112162784Y-97741465D01*
X114560092Y-100138773D01*
X114572065Y-100152627D01*
X114578834Y-100161720D01*
X114586531Y-100172058D01*
X114624874Y-100204231D01*
X114632967Y-100211648D01*
X114636900Y-100215581D01*
X114643597Y-100220876D01*
X114661455Y-100234997D01*
X114664295Y-100237311D01*
X114714984Y-100279843D01*
X114722360Y-100286032D01*
X114722364Y-100286034D01*
X114728495Y-100290067D01*
X114728458Y-100290122D01*
X114734811Y-100294169D01*
X114734847Y-100294113D01*
X114741092Y-100297965D01*
X114741095Y-100297967D01*
X114809786Y-100329998D01*
X114813084Y-100331595D01*
X114815177Y-100332646D01*
X114880812Y-100365609D01*
X114880814Y-100365609D01*
X114887713Y-100368121D01*
X114887689Y-100368185D01*
X114894805Y-100370659D01*
X114894827Y-100370595D01*
X114901791Y-100372903D01*
X114976063Y-100388238D01*
X114979630Y-100389029D01*
X115053344Y-100406500D01*
X115053351Y-100406500D01*
X115060633Y-100407352D01*
X115060625Y-100407419D01*
X115068122Y-100408185D01*
X115068128Y-100408119D01*
X115075435Y-100408757D01*
X115075442Y-100408759D01*
X115150189Y-100406584D01*
X115151259Y-100406553D01*
X115154923Y-100406500D01*
X118767035Y-100406500D01*
X118835156Y-100426502D01*
X118874466Y-100466663D01*
X118917824Y-100537416D01*
X118957080Y-100583379D01*
X118957329Y-100583670D01*
X118986359Y-100648460D01*
X118975754Y-100718660D01*
X118928879Y-100771982D01*
X118861517Y-100791500D01*
X115176441Y-100791500D01*
X115158181Y-100790170D01*
X115134212Y-100786659D01*
X115134211Y-100786659D01*
X115094081Y-100790170D01*
X115084354Y-100791021D01*
X115073373Y-100791500D01*
X115067814Y-100791500D01*
X115036709Y-100795135D01*
X115033067Y-100795507D01*
X114957577Y-100802112D01*
X114950386Y-100803597D01*
X114950372Y-100803532D01*
X114943014Y-100805163D01*
X114943030Y-100805228D01*
X114935891Y-100806920D01*
X114935888Y-100806920D01*
X114935887Y-100806921D01*
X114906156Y-100817741D01*
X114864654Y-100832846D01*
X114861198Y-100834047D01*
X114789259Y-100857886D01*
X114782613Y-100860986D01*
X114782585Y-100860926D01*
X114775801Y-100864210D01*
X114775831Y-100864269D01*
X114769268Y-100867565D01*
X114705931Y-100909221D01*
X114702844Y-100911187D01*
X114638351Y-100950968D01*
X114632592Y-100955522D01*
X114632551Y-100955470D01*
X114626704Y-100960233D01*
X114626746Y-100960283D01*
X114621128Y-100964996D01*
X114569087Y-101020156D01*
X114566534Y-101022783D01*
X112847567Y-102741750D01*
X112785255Y-102775776D01*
X112714440Y-102770711D01*
X112657604Y-102728164D01*
X112637166Y-102680349D01*
X112635844Y-102680684D01*
X112579297Y-102457387D01*
X112579296Y-102457386D01*
X112579296Y-102457384D01*
X112488860Y-102251209D01*
X112449379Y-102190779D01*
X112365724Y-102062734D01*
X112365719Y-102062729D01*
X112299175Y-101990444D01*
X112222524Y-101907179D01*
X112191103Y-101843514D01*
X112199090Y-101772968D01*
X112243948Y-101717939D01*
X112271183Y-101703789D01*
X112386204Y-101660889D01*
X112503261Y-101573261D01*
X112590889Y-101456204D01*
X112641989Y-101319201D01*
X112642173Y-101317495D01*
X112648499Y-101258649D01*
X112648500Y-101258632D01*
X112648500Y-99461367D01*
X112648499Y-99461350D01*
X112641990Y-99400803D01*
X112641988Y-99400795D01*
X112602764Y-99295633D01*
X112590889Y-99263796D01*
X112590888Y-99263794D01*
X112590887Y-99263792D01*
X112503261Y-99146738D01*
X112386207Y-99059112D01*
X112386202Y-99059110D01*
X112249204Y-99008011D01*
X112249196Y-99008009D01*
X112188649Y-99001500D01*
X112188638Y-99001500D01*
X110391362Y-99001500D01*
X110391350Y-99001500D01*
X110330803Y-99008009D01*
X110330795Y-99008011D01*
X110193797Y-99059110D01*
X110193792Y-99059112D01*
X110076738Y-99146738D01*
X109989112Y-99263792D01*
X109989110Y-99263797D01*
X109938011Y-99400795D01*
X109938009Y-99400803D01*
X109931500Y-99461350D01*
X109931500Y-100593628D01*
X109911498Y-100661749D01*
X109894595Y-100682723D01*
X108221225Y-102356092D01*
X108207376Y-102368062D01*
X108187943Y-102382529D01*
X108155771Y-102420870D01*
X108148360Y-102428958D01*
X108144420Y-102432898D01*
X108144414Y-102432905D01*
X108124997Y-102457460D01*
X108122689Y-102460294D01*
X108073964Y-102518364D01*
X108069935Y-102524491D01*
X108069880Y-102524455D01*
X108065825Y-102530820D01*
X108065882Y-102530855D01*
X108062030Y-102537098D01*
X108029996Y-102605794D01*
X108028401Y-102609087D01*
X107994394Y-102676805D01*
X107991882Y-102683707D01*
X107991820Y-102683684D01*
X107989343Y-102690810D01*
X107989404Y-102690831D01*
X107987096Y-102697795D01*
X107971759Y-102772064D01*
X107970967Y-102775637D01*
X107953500Y-102849340D01*
X107952648Y-102856634D01*
X107952581Y-102856626D01*
X107951814Y-102864126D01*
X107951881Y-102864132D01*
X107951241Y-102871442D01*
X107953447Y-102947258D01*
X107953500Y-102950922D01*
X107953500Y-131761559D01*
X107952170Y-131779819D01*
X107948659Y-131803786D01*
X107948659Y-131803795D01*
X107953020Y-131853633D01*
X107953500Y-131864616D01*
X107953500Y-131870185D01*
X107957135Y-131901289D01*
X107957507Y-131904932D01*
X107964111Y-131980418D01*
X107965596Y-131987606D01*
X107965531Y-131987619D01*
X107967165Y-131994989D01*
X107967229Y-131994975D01*
X107968921Y-132002116D01*
X107994846Y-132073342D01*
X107996049Y-132076804D01*
X108019884Y-132148735D01*
X108022987Y-132155388D01*
X108022926Y-132155416D01*
X108026211Y-132162202D01*
X108026270Y-132162173D01*
X108029563Y-132168730D01*
X108071232Y-132232084D01*
X108073171Y-132235127D01*
X108112970Y-132299651D01*
X108112972Y-132299654D01*
X108117522Y-132305408D01*
X108117468Y-132305450D01*
X108122228Y-132311292D01*
X108122279Y-132311250D01*
X108126997Y-132316872D01*
X108126998Y-132316873D01*
X108126999Y-132316874D01*
X108145809Y-132334620D01*
X108182155Y-132368911D01*
X108184784Y-132371465D01*
X109400092Y-133586773D01*
X109412065Y-133600627D01*
X109426531Y-133620058D01*
X109464874Y-133652231D01*
X109472967Y-133659648D01*
X109476899Y-133663580D01*
X109501452Y-133682994D01*
X109504284Y-133685300D01*
X109562360Y-133734032D01*
X109562366Y-133734035D01*
X109568495Y-133738067D01*
X109568457Y-133738123D01*
X109574811Y-133742171D01*
X109574847Y-133742114D01*
X109581089Y-133745964D01*
X109581091Y-133745965D01*
X109581094Y-133745967D01*
X109649832Y-133778020D01*
X109653030Y-133779568D01*
X109720812Y-133813609D01*
X109720813Y-133813609D01*
X109720817Y-133813611D01*
X109727713Y-133816121D01*
X109727689Y-133816184D01*
X109734806Y-133818658D01*
X109734828Y-133818594D01*
X109741793Y-133820902D01*
X109761154Y-133824899D01*
X109816062Y-133836236D01*
X109819526Y-133837003D01*
X109893344Y-133854500D01*
X109893346Y-133854500D01*
X109900632Y-133855352D01*
X109900624Y-133855418D01*
X109908122Y-133856184D01*
X109908128Y-133856118D01*
X109915435Y-133856756D01*
X109915442Y-133856758D01*
X109990185Y-133854583D01*
X109991224Y-133854553D01*
X109994888Y-133854500D01*
X114997559Y-133854500D01*
X115015819Y-133855830D01*
X115021489Y-133856660D01*
X115039789Y-133859341D01*
X115089646Y-133854978D01*
X115100627Y-133854500D01*
X115106175Y-133854500D01*
X115106180Y-133854500D01*
X115137287Y-133850863D01*
X115140889Y-133850495D01*
X115216426Y-133843887D01*
X115216430Y-133843885D01*
X115223618Y-133842402D01*
X115223631Y-133842468D01*
X115230987Y-133840836D01*
X115230972Y-133840771D01*
X115238102Y-133839080D01*
X115238113Y-133839079D01*
X115309400Y-133813132D01*
X115312769Y-133811961D01*
X115384738Y-133788114D01*
X115384747Y-133788108D01*
X115391389Y-133785012D01*
X115391418Y-133785074D01*
X115398203Y-133781789D01*
X115398173Y-133781729D01*
X115404724Y-133778437D01*
X115404732Y-133778435D01*
X115468091Y-133736761D01*
X115471161Y-133734806D01*
X115472418Y-133734031D01*
X115535651Y-133695030D01*
X115535659Y-133695021D01*
X115541408Y-133690477D01*
X115541450Y-133690531D01*
X115547289Y-133685775D01*
X115547246Y-133685723D01*
X115552864Y-133681007D01*
X115552874Y-133681001D01*
X115604962Y-133625789D01*
X115607414Y-133623265D01*
X116566014Y-132664666D01*
X116628324Y-132630643D01*
X116655107Y-132627764D01*
X117004791Y-132627764D01*
X117072912Y-132647766D01*
X117119405Y-132701422D01*
X117129509Y-132771696D01*
X117100015Y-132836276D01*
X117057698Y-132868118D01*
X117047993Y-132872607D01*
X117047993Y-132872608D01*
X116740587Y-133057568D01*
X116740581Y-133057572D01*
X116454977Y-133274682D01*
X116454962Y-133274695D01*
X116194516Y-133521404D01*
X115962256Y-133794843D01*
X115760924Y-134091785D01*
X115760922Y-134091789D01*
X115592876Y-134408759D01*
X115592872Y-134408768D01*
X115460084Y-134742040D01*
X115364103Y-135087730D01*
X115306064Y-135441762D01*
X115286641Y-135799996D01*
X115286641Y-135800003D01*
X115306064Y-136158237D01*
X115364103Y-136512269D01*
X115460084Y-136857959D01*
X115592788Y-137191021D01*
X115592877Y-137191243D01*
X115612968Y-137229138D01*
X115760787Y-137507956D01*
X115760925Y-137508215D01*
X115962258Y-137805159D01*
X116087513Y-137952621D01*
X116194516Y-138078595D01*
X116454962Y-138325304D01*
X116454977Y-138325317D01*
X116616617Y-138448192D01*
X116658743Y-138505341D01*
X116663284Y-138576192D01*
X116628800Y-138638251D01*
X116566238Y-138671815D01*
X116540365Y-138674500D01*
X109723805Y-138674500D01*
X109716198Y-138674270D01*
X109663127Y-138671059D01*
X109457665Y-138658632D01*
X109442561Y-138656798D01*
X109191551Y-138610798D01*
X109176778Y-138607157D01*
X108933135Y-138531235D01*
X108918908Y-138525839D01*
X108686203Y-138421107D01*
X108672730Y-138414036D01*
X108454338Y-138282013D01*
X108441827Y-138273377D01*
X108240927Y-138115983D01*
X108229546Y-138105899D01*
X108049100Y-137925453D01*
X108039017Y-137914073D01*
X107881619Y-137713169D01*
X107872986Y-137700661D01*
X107756647Y-137508214D01*
X107740962Y-137482267D01*
X107733892Y-137468796D01*
X107629158Y-137236086D01*
X107623764Y-137221864D01*
X107547839Y-136978210D01*
X107544203Y-136963459D01*
X107498199Y-136712426D01*
X107496368Y-136697345D01*
X107480730Y-136438802D01*
X107480500Y-136431195D01*
X107480500Y-79460000D01*
X109651502Y-79460000D01*
X109671457Y-79688086D01*
X109730715Y-79909240D01*
X109730717Y-79909246D01*
X109827477Y-80116749D01*
X109958174Y-80303404D01*
X109958802Y-80304300D01*
X110120700Y-80466198D01*
X110308251Y-80597523D01*
X110515757Y-80694284D01*
X110736913Y-80753543D01*
X110965000Y-80773498D01*
X111193087Y-80753543D01*
X111414243Y-80694284D01*
X111621749Y-80597523D01*
X111809300Y-80466198D01*
X111971198Y-80304300D01*
X112102523Y-80116749D01*
X112199284Y-79909243D01*
X112258543Y-79688087D01*
X112278498Y-79460000D01*
X112258543Y-79231913D01*
X112199284Y-79010757D01*
X112102523Y-78803251D01*
X111971198Y-78615700D01*
X111809300Y-78453802D01*
X111621749Y-78322477D01*
X111609499Y-78316765D01*
X111582543Y-78304195D01*
X111529258Y-78257279D01*
X111509796Y-78189002D01*
X111530337Y-78121042D01*
X111582543Y-78075805D01*
X111585483Y-78074434D01*
X111621749Y-78057523D01*
X111809300Y-77926198D01*
X111971198Y-77764300D01*
X112102523Y-77576749D01*
X112199284Y-77369243D01*
X112258543Y-77148087D01*
X112278498Y-76920000D01*
X112258543Y-76691913D01*
X112199284Y-76470757D01*
X112102523Y-76263251D01*
X111971198Y-76075700D01*
X111809300Y-75913802D01*
X111621749Y-75782477D01*
X111582543Y-75764195D01*
X111529258Y-75717279D01*
X111509796Y-75649002D01*
X111530337Y-75581042D01*
X111582543Y-75535805D01*
X111584997Y-75534660D01*
X111621749Y-75517523D01*
X111809300Y-75386198D01*
X111971198Y-75224300D01*
X112102523Y-75036749D01*
X112199284Y-74829243D01*
X112258543Y-74608087D01*
X112278498Y-74380000D01*
X112258543Y-74151913D01*
X112199284Y-73930757D01*
X112102523Y-73723251D01*
X111971198Y-73535700D01*
X111809300Y-73373802D01*
X111621749Y-73242477D01*
X111582543Y-73224195D01*
X111529258Y-73177279D01*
X111509796Y-73109002D01*
X111530337Y-73041042D01*
X111582543Y-72995805D01*
X111584997Y-72994660D01*
X111621749Y-72977523D01*
X111809300Y-72846198D01*
X111971198Y-72684300D01*
X112102523Y-72496749D01*
X112199284Y-72289243D01*
X112258543Y-72068087D01*
X112278498Y-71840000D01*
X112258543Y-71611913D01*
X112199284Y-71390757D01*
X112102523Y-71183251D01*
X111971198Y-70995700D01*
X111809300Y-70833802D01*
X111621749Y-70702477D01*
X111582543Y-70684195D01*
X111529258Y-70637279D01*
X111509796Y-70569002D01*
X111530337Y-70501042D01*
X111582543Y-70455805D01*
X111584997Y-70454660D01*
X111621749Y-70437523D01*
X111809300Y-70306198D01*
X111971198Y-70144300D01*
X112102523Y-69956749D01*
X112199284Y-69749243D01*
X112258543Y-69528087D01*
X112278498Y-69300000D01*
X112258543Y-69071913D01*
X112199284Y-68850757D01*
X112102523Y-68643251D01*
X111971198Y-68455700D01*
X111809300Y-68293802D01*
X111621749Y-68162477D01*
X111572329Y-68139432D01*
X111414246Y-68065717D01*
X111414240Y-68065715D01*
X111277225Y-68029002D01*
X111193087Y-68006457D01*
X110965000Y-67986502D01*
X110736913Y-68006457D01*
X110515759Y-68065715D01*
X110515753Y-68065717D01*
X110308250Y-68162477D01*
X110120703Y-68293799D01*
X110120697Y-68293804D01*
X109958804Y-68455697D01*
X109958799Y-68455703D01*
X109827477Y-68643250D01*
X109730717Y-68850753D01*
X109730715Y-68850759D01*
X109681056Y-69036088D01*
X109671457Y-69071913D01*
X109651502Y-69300000D01*
X109671457Y-69528087D01*
X109705670Y-69655771D01*
X109730715Y-69749240D01*
X109730717Y-69749246D01*
X109827477Y-69956749D01*
X109958802Y-70144300D01*
X110120700Y-70306198D01*
X110308251Y-70437523D01*
X110343359Y-70453894D01*
X110347457Y-70455805D01*
X110400742Y-70502722D01*
X110420203Y-70570999D01*
X110399661Y-70638959D01*
X110347457Y-70684195D01*
X110308250Y-70702477D01*
X110120703Y-70833799D01*
X110120697Y-70833804D01*
X109958804Y-70995697D01*
X109958799Y-70995703D01*
X109827477Y-71183250D01*
X109730717Y-71390753D01*
X109730716Y-71390757D01*
X109671457Y-71611913D01*
X109651502Y-71840000D01*
X109671457Y-72068087D01*
X109699816Y-72173924D01*
X109730715Y-72289240D01*
X109730717Y-72289246D01*
X109772879Y-72379663D01*
X109827477Y-72496749D01*
X109958802Y-72684300D01*
X110120700Y-72846198D01*
X110308251Y-72977523D01*
X110343359Y-72993894D01*
X110347457Y-72995805D01*
X110400742Y-73042722D01*
X110420203Y-73110999D01*
X110399661Y-73178959D01*
X110347457Y-73224195D01*
X110308250Y-73242477D01*
X110120703Y-73373799D01*
X110120697Y-73373804D01*
X109958804Y-73535697D01*
X109958799Y-73535703D01*
X109827477Y-73723250D01*
X109730717Y-73930753D01*
X109730715Y-73930759D01*
X109671457Y-74151913D01*
X109651502Y-74380000D01*
X109671457Y-74608086D01*
X109730715Y-74829240D01*
X109730717Y-74829246D01*
X109745932Y-74861874D01*
X109827477Y-75036749D01*
X109958802Y-75224300D01*
X110120700Y-75386198D01*
X110308251Y-75517523D01*
X110343359Y-75533894D01*
X110347457Y-75535805D01*
X110400742Y-75582722D01*
X110420203Y-75650999D01*
X110399661Y-75718959D01*
X110347457Y-75764195D01*
X110308250Y-75782477D01*
X110120703Y-75913799D01*
X110120697Y-75913804D01*
X109958804Y-76075697D01*
X109958799Y-76075703D01*
X109827477Y-76263250D01*
X109730717Y-76470753D01*
X109730715Y-76470759D01*
X109696127Y-76599844D01*
X109671457Y-76691913D01*
X109651502Y-76920000D01*
X109667767Y-77105915D01*
X109671457Y-77148086D01*
X109730715Y-77369240D01*
X109730717Y-77369246D01*
X109745932Y-77401874D01*
X109827477Y-77576749D01*
X109958802Y-77764300D01*
X110120700Y-77926198D01*
X110308251Y-78057523D01*
X110343359Y-78073894D01*
X110347457Y-78075805D01*
X110400742Y-78122722D01*
X110420203Y-78190999D01*
X110399661Y-78258959D01*
X110347457Y-78304195D01*
X110308250Y-78322477D01*
X110120703Y-78453799D01*
X110120697Y-78453804D01*
X109958804Y-78615697D01*
X109958799Y-78615703D01*
X109827477Y-78803250D01*
X109730717Y-79010753D01*
X109730715Y-79010759D01*
X109671457Y-79231913D01*
X109651502Y-79460000D01*
X107480500Y-79460000D01*
X107480500Y-52618804D01*
X107480730Y-52611197D01*
X107483898Y-52558827D01*
X107496368Y-52352652D01*
X107498199Y-52337575D01*
X107544204Y-52086536D01*
X107547838Y-52071792D01*
X107623767Y-51828125D01*
X107629156Y-51813918D01*
X107733896Y-51581194D01*
X107740958Y-51567738D01*
X107872994Y-51349325D01*
X107881613Y-51336837D01*
X108039024Y-51135917D01*
X108049092Y-51124554D01*
X108229554Y-50944092D01*
X108240917Y-50934024D01*
X108441837Y-50776613D01*
X108454325Y-50767994D01*
X108672738Y-50635958D01*
X108686194Y-50628896D01*
X108918918Y-50524156D01*
X108933125Y-50518767D01*
X109176792Y-50442838D01*
X109191536Y-50439204D01*
X109442575Y-50393199D01*
X109457652Y-50391368D01*
X109716198Y-50375730D01*
X109723805Y-50375500D01*
X109767595Y-50375500D01*
X116606139Y-50375500D01*
X116674260Y-50395502D01*
G37*
%TD.AperFunction*%
%TA.AperFunction,Conductor*%
G36*
X140207014Y-132647766D02*
G01*
X140227988Y-132664669D01*
X141404092Y-133840773D01*
X141416065Y-133854627D01*
X141419574Y-133859341D01*
X141430531Y-133874058D01*
X141468874Y-133906231D01*
X141476967Y-133913648D01*
X141480900Y-133917581D01*
X141480903Y-133917583D01*
X141505455Y-133936997D01*
X141508295Y-133939311D01*
X141566355Y-133988028D01*
X141566360Y-133988032D01*
X141566364Y-133988034D01*
X141572495Y-133992067D01*
X141572458Y-133992122D01*
X141578811Y-133996169D01*
X141578847Y-133996113D01*
X141585092Y-133999965D01*
X141585095Y-133999967D01*
X141653147Y-134031700D01*
X141653786Y-134031998D01*
X141657084Y-134033595D01*
X141686102Y-134048168D01*
X141724812Y-134067609D01*
X141724814Y-134067609D01*
X141731713Y-134070121D01*
X141731689Y-134070185D01*
X141738805Y-134072659D01*
X141738827Y-134072595D01*
X141745791Y-134074903D01*
X141820063Y-134090238D01*
X141823630Y-134091029D01*
X141897344Y-134108500D01*
X141897351Y-134108500D01*
X141904633Y-134109352D01*
X141904625Y-134109419D01*
X141912122Y-134110185D01*
X141912128Y-134110119D01*
X141919435Y-134110757D01*
X141919442Y-134110759D01*
X141994189Y-134108584D01*
X141995259Y-134108553D01*
X141998923Y-134108500D01*
X153097559Y-134108500D01*
X153115819Y-134109830D01*
X153121489Y-134110660D01*
X153139789Y-134113341D01*
X153189646Y-134108978D01*
X153200627Y-134108500D01*
X153206175Y-134108500D01*
X153206180Y-134108500D01*
X153237287Y-134104863D01*
X153240889Y-134104495D01*
X153316426Y-134097887D01*
X153316430Y-134097885D01*
X153323618Y-134096402D01*
X153323631Y-134096468D01*
X153330987Y-134094836D01*
X153330972Y-134094771D01*
X153338102Y-134093080D01*
X153338113Y-134093079D01*
X153409400Y-134067132D01*
X153412769Y-134065961D01*
X153484738Y-134042114D01*
X153484747Y-134042108D01*
X153491389Y-134039012D01*
X153491418Y-134039074D01*
X153498203Y-134035789D01*
X153498173Y-134035729D01*
X153504724Y-134032437D01*
X153504732Y-134032435D01*
X153568091Y-133990761D01*
X153571161Y-133988806D01*
X153572416Y-133988032D01*
X153635651Y-133949030D01*
X153635659Y-133949021D01*
X153641408Y-133944477D01*
X153641450Y-133944531D01*
X153647289Y-133939775D01*
X153647246Y-133939723D01*
X153652866Y-133935005D01*
X153652874Y-133935001D01*
X153697129Y-133888092D01*
X153758423Y-133852269D01*
X153829356Y-133855271D01*
X153887406Y-133896146D01*
X153914142Y-133961916D01*
X153901076Y-134031700D01*
X153893068Y-134045266D01*
X153861350Y-134092047D01*
X153693330Y-134408969D01*
X153693326Y-134408978D01*
X153560559Y-134742198D01*
X153464592Y-135087837D01*
X153406561Y-135441816D01*
X153387141Y-135799996D01*
X153387141Y-135800003D01*
X153406561Y-136158183D01*
X153464592Y-136512162D01*
X153560559Y-136857801D01*
X153693326Y-137191021D01*
X153693330Y-137191030D01*
X153861350Y-137507952D01*
X153861352Y-137507956D01*
X154062654Y-137804854D01*
X154188167Y-137952621D01*
X155399994Y-136740794D01*
X155401570Y-136743365D01*
X155565130Y-136934870D01*
X155756635Y-137098430D01*
X155759203Y-137100004D01*
X154544502Y-138314705D01*
X154544502Y-138314706D01*
X154555293Y-138324928D01*
X154717443Y-138448192D01*
X154759569Y-138505341D01*
X154764110Y-138576192D01*
X154729626Y-138638251D01*
X154667064Y-138671815D01*
X154641191Y-138674500D01*
X120659635Y-138674500D01*
X120591514Y-138654498D01*
X120545021Y-138600842D01*
X120534917Y-138530568D01*
X120564411Y-138465988D01*
X120583383Y-138448192D01*
X120619013Y-138421107D01*
X120745023Y-138325317D01*
X120745430Y-138324932D01*
X120801384Y-138271928D01*
X121005484Y-138078595D01*
X121237742Y-137805159D01*
X121439075Y-137508215D01*
X121607123Y-137191243D01*
X121739915Y-136857961D01*
X121835895Y-136512274D01*
X121835914Y-136512162D01*
X121871358Y-136295956D01*
X121893936Y-136158237D01*
X121913359Y-135800000D01*
X121893936Y-135441763D01*
X121852823Y-135190984D01*
X121835896Y-135087730D01*
X121831353Y-135071369D01*
X121739915Y-134742039D01*
X121607123Y-134408757D01*
X121439075Y-134091785D01*
X121237742Y-133794841D01*
X121005484Y-133521405D01*
X121005483Y-133521404D01*
X120745037Y-133274695D01*
X120745022Y-133274682D01*
X120459418Y-133057572D01*
X120459412Y-133057568D01*
X120397233Y-133020156D01*
X120152006Y-132872607D01*
X120142302Y-132868118D01*
X120088877Y-132821361D01*
X120069211Y-132753143D01*
X120089548Y-132685122D01*
X120143432Y-132638894D01*
X120195209Y-132627764D01*
X140138893Y-132627764D01*
X140207014Y-132647766D01*
G37*
%TD.AperFunction*%
%TA.AperFunction,Conductor*%
G36*
X146792128Y-129473606D02*
G01*
X146862319Y-129609067D01*
X146966453Y-129720567D01*
X147096809Y-129799838D01*
X147150364Y-129814843D01*
X146563730Y-130401477D01*
X146553564Y-130452062D01*
X146504164Y-130503055D01*
X146442032Y-130519439D01*
X145747211Y-130519439D01*
X145679090Y-130499437D01*
X145632597Y-130445781D01*
X145622493Y-130375507D01*
X145651987Y-130310927D01*
X145658116Y-130304344D01*
X145726920Y-130235540D01*
X145811189Y-130151271D01*
X145945776Y-129959061D01*
X145947092Y-129957182D01*
X146002549Y-129912853D01*
X146073168Y-129905544D01*
X146136529Y-129937574D01*
X146153518Y-129957181D01*
X146209564Y-130037223D01*
X146788868Y-129457920D01*
X146792128Y-129473606D01*
G37*
%TD.AperFunction*%
%TA.AperFunction,Conductor*%
G36*
X145747012Y-126104725D02*
G01*
X145753595Y-126110854D01*
X147370887Y-127728146D01*
X147404913Y-127790458D01*
X147399848Y-127861273D01*
X147357301Y-127918109D01*
X147292774Y-127942762D01*
X147086337Y-127960823D01*
X146859772Y-128021530D01*
X146859767Y-128021532D01*
X146647189Y-128120659D01*
X146568775Y-128175565D01*
X147148575Y-128755364D01*
X147028920Y-128807339D01*
X146910573Y-128903621D01*
X146822591Y-129028263D01*
X146791246Y-129116455D01*
X146209565Y-128534774D01*
X146153518Y-128614818D01*
X146098061Y-128659146D01*
X146027441Y-128666455D01*
X145964081Y-128634424D01*
X145947092Y-128614818D01*
X145811191Y-128420732D01*
X145811186Y-128420726D01*
X145645273Y-128254813D01*
X145645267Y-128254808D01*
X145592229Y-128217670D01*
X145547901Y-128162212D01*
X145538500Y-128114457D01*
X145538500Y-126199949D01*
X145558502Y-126131828D01*
X145612158Y-126085335D01*
X145682432Y-126075231D01*
X145747012Y-126104725D01*
G37*
%TD.AperFunction*%
%TA.AperFunction,Conductor*%
G36*
X124919594Y-101724936D02*
G01*
X124976227Y-101767753D01*
X125000720Y-101834391D01*
X125001000Y-101842781D01*
X125001000Y-102003184D01*
X125011430Y-102105273D01*
X125011431Y-102105276D01*
X125066248Y-102270707D01*
X125157737Y-102419033D01*
X125157742Y-102419039D01*
X125265254Y-102526551D01*
X125299280Y-102588863D01*
X125294215Y-102659678D01*
X125265254Y-102704741D01*
X125157341Y-102812653D01*
X125152788Y-102818412D01*
X125151144Y-102817112D01*
X125106099Y-102857627D01*
X125051647Y-102870000D01*
X124396111Y-102870000D01*
X124379879Y-102868208D01*
X124379856Y-102868458D01*
X124371963Y-102867711D01*
X124301131Y-102869938D01*
X124297173Y-102870000D01*
X124268068Y-102870000D01*
X124263663Y-102870556D01*
X124251845Y-102871486D01*
X124205672Y-102872937D01*
X124205670Y-102872937D01*
X124205669Y-102872938D01*
X124185071Y-102878921D01*
X124165721Y-102882928D01*
X124144440Y-102885616D01*
X124144434Y-102885618D01*
X124101474Y-102902626D01*
X124090249Y-102906469D01*
X124045906Y-102919352D01*
X124045899Y-102919355D01*
X124027437Y-102930273D01*
X124009691Y-102938966D01*
X123989748Y-102946862D01*
X123989745Y-102946864D01*
X123952372Y-102974017D01*
X123942453Y-102980532D01*
X123902694Y-103004046D01*
X123887522Y-103019217D01*
X123872496Y-103032050D01*
X123855144Y-103044657D01*
X123855143Y-103044658D01*
X123825691Y-103080258D01*
X123817704Y-103089034D01*
X122785611Y-104121127D01*
X122772865Y-104131340D01*
X122773025Y-104131533D01*
X122766920Y-104136583D01*
X122718395Y-104188256D01*
X122715643Y-104191096D01*
X122695074Y-104211665D01*
X122695073Y-104211667D01*
X122692344Y-104215184D01*
X122684650Y-104224191D01*
X122653029Y-104257865D01*
X122653027Y-104257867D01*
X122642691Y-104276667D01*
X122631843Y-104293180D01*
X122618699Y-104310126D01*
X122618694Y-104310135D01*
X122600350Y-104352524D01*
X122595131Y-104363178D01*
X122572877Y-104403661D01*
X122572873Y-104403670D01*
X122567541Y-104424436D01*
X122561139Y-104443136D01*
X122552620Y-104462820D01*
X122552620Y-104462823D01*
X122545393Y-104508452D01*
X122542986Y-104520072D01*
X122531500Y-104564810D01*
X122531500Y-104586258D01*
X122529949Y-104605967D01*
X122527869Y-104619103D01*
X122526594Y-104627152D01*
X122529428Y-104657138D01*
X122530941Y-104673138D01*
X122531500Y-104684996D01*
X122531500Y-108611000D01*
X122511498Y-108679121D01*
X122457842Y-108725614D01*
X122415083Y-108734915D01*
X122413000Y-108736999D01*
X122413000Y-109400500D01*
X122392998Y-109468621D01*
X122339342Y-109515114D01*
X122287000Y-109526500D01*
X122031000Y-109526500D01*
X121962879Y-109506498D01*
X121916386Y-109452842D01*
X121905000Y-109400500D01*
X121905000Y-108737000D01*
X121603414Y-108737000D01*
X121603401Y-108737001D01*
X121486783Y-108752353D01*
X121486779Y-108752355D01*
X121341676Y-108812456D01*
X121217070Y-108908070D01*
X121121456Y-109032676D01*
X121089961Y-109108717D01*
X121045414Y-109163998D01*
X120978051Y-109186420D01*
X120973552Y-109186500D01*
X119037480Y-109186500D01*
X119021236Y-109184706D01*
X119021213Y-109184956D01*
X119013887Y-109184263D01*
X119012611Y-109183753D01*
X119009987Y-109183464D01*
X119005586Y-109182480D01*
X119005900Y-109181073D01*
X118947953Y-109157935D01*
X118909343Y-109107039D01*
X118878541Y-109032675D01*
X118782929Y-108908070D01*
X118658323Y-108812456D01*
X118513218Y-108752354D01*
X118437906Y-108742439D01*
X118372979Y-108713717D01*
X118333887Y-108654451D01*
X118333042Y-108583460D01*
X118365255Y-108528424D01*
X120632778Y-106260901D01*
X120646617Y-106248941D01*
X120666058Y-106234469D01*
X120698227Y-106196130D01*
X120705645Y-106188034D01*
X120709580Y-106184101D01*
X120729044Y-106159483D01*
X120731241Y-106156785D01*
X120780032Y-106098640D01*
X120780034Y-106098634D01*
X120780037Y-106098632D01*
X120784066Y-106092508D01*
X120784122Y-106092545D01*
X120788171Y-106086190D01*
X120788113Y-106086154D01*
X120791965Y-106079908D01*
X120791967Y-106079906D01*
X120815760Y-106028878D01*
X120862675Y-105975594D01*
X120864086Y-105974715D01*
X121031416Y-105872176D01*
X121211969Y-105717969D01*
X121366176Y-105537416D01*
X121490240Y-105334963D01*
X121581105Y-105115594D01*
X121636535Y-104884711D01*
X121655165Y-104648000D01*
X121636535Y-104411289D01*
X121581105Y-104180406D01*
X121490240Y-103961037D01*
X121366176Y-103758584D01*
X121350450Y-103740171D01*
X121211969Y-103578030D01*
X121031419Y-103423826D01*
X121031417Y-103423825D01*
X121031416Y-103423824D01*
X120828963Y-103299760D01*
X120825038Y-103298134D01*
X120609592Y-103208894D01*
X120428699Y-103165466D01*
X120378711Y-103153465D01*
X120142000Y-103134835D01*
X119905289Y-103153465D01*
X119674407Y-103208894D01*
X119455038Y-103299759D01*
X119252582Y-103423825D01*
X119252580Y-103423826D01*
X119072030Y-103578030D01*
X118917826Y-103758580D01*
X118917825Y-103758582D01*
X118793759Y-103961038D01*
X118702894Y-104180407D01*
X118654927Y-104380207D01*
X118647465Y-104411289D01*
X118628835Y-104648000D01*
X118647465Y-104884711D01*
X118660882Y-104940597D01*
X118702894Y-105115592D01*
X118760571Y-105254836D01*
X118793760Y-105334963D01*
X118917824Y-105537416D01*
X118977188Y-105606922D01*
X119006218Y-105671710D01*
X118995613Y-105741910D01*
X118970471Y-105777846D01*
X116514095Y-108234223D01*
X116451783Y-108268248D01*
X116380968Y-108263184D01*
X116324132Y-108220637D01*
X116299321Y-108154117D01*
X116299000Y-108145128D01*
X116299000Y-108050500D01*
X115570000Y-108050500D01*
X115570000Y-108842000D01*
X115602128Y-108842000D01*
X115670249Y-108862002D01*
X115716742Y-108915658D01*
X115726846Y-108985932D01*
X115697352Y-109050512D01*
X115691236Y-109057081D01*
X115392194Y-109356124D01*
X115098722Y-109649596D01*
X115036410Y-109683621D01*
X115009628Y-109686500D01*
X114775376Y-109686500D01*
X114775367Y-109686501D01*
X114670324Y-109700330D01*
X114658652Y-109701867D01*
X114658650Y-109701867D01*
X114658649Y-109701868D01*
X114513424Y-109762020D01*
X114388714Y-109857714D01*
X114293020Y-109982424D01*
X114232867Y-110127651D01*
X114217500Y-110244372D01*
X114217500Y-110735623D01*
X114217501Y-110735632D01*
X114224181Y-110786367D01*
X114232867Y-110852348D01*
X114236810Y-110861867D01*
X114293020Y-110997575D01*
X114388714Y-111122285D01*
X114513424Y-111217979D01*
X114605004Y-111255911D01*
X114658652Y-111278133D01*
X114775375Y-111293500D01*
X115886624Y-111293499D01*
X115888668Y-111293230D01*
X115891344Y-111292877D01*
X116003348Y-111278133D01*
X116124224Y-111228065D01*
X116148575Y-111217979D01*
X116273285Y-111122285D01*
X116368979Y-110997575D01*
X116399804Y-110923154D01*
X116429133Y-110852348D01*
X116444500Y-110735625D01*
X116444499Y-110501371D01*
X116464501Y-110433251D01*
X116481398Y-110412281D01*
X116721318Y-110172361D01*
X116783627Y-110138339D01*
X116854442Y-110143403D01*
X116892019Y-110167553D01*
X116892519Y-110166902D01*
X117023676Y-110267543D01*
X117168781Y-110327645D01*
X117243694Y-110337508D01*
X117308621Y-110366230D01*
X117347713Y-110425495D01*
X117348558Y-110496487D01*
X117319102Y-110548679D01*
X117304029Y-110564730D01*
X117304027Y-110564733D01*
X117293691Y-110583533D01*
X117282571Y-110600396D01*
X117282546Y-110600428D01*
X117224846Y-110641795D01*
X117199703Y-110647779D01*
X117168652Y-110651867D01*
X117168649Y-110651868D01*
X117023424Y-110712020D01*
X116898714Y-110807714D01*
X116803020Y-110932424D01*
X116742867Y-111077651D01*
X116727500Y-111194372D01*
X116727500Y-111685623D01*
X116727501Y-111685632D01*
X116735386Y-111745524D01*
X116742867Y-111802348D01*
X116742868Y-111802350D01*
X116803020Y-111947575D01*
X116898714Y-112072285D01*
X116994179Y-112145538D01*
X117036046Y-112202876D01*
X117040268Y-112273747D01*
X117005504Y-112335650D01*
X116942791Y-112368931D01*
X116917475Y-112371500D01*
X116504224Y-112371500D01*
X116436103Y-112351498D01*
X116430163Y-112347436D01*
X116280752Y-112238882D01*
X116106288Y-112161206D01*
X115919487Y-112121500D01*
X115728513Y-112121500D01*
X115541711Y-112161206D01*
X115367247Y-112238882D01*
X115212744Y-112351135D01*
X115084965Y-112493048D01*
X115084958Y-112493058D01*
X114998980Y-112641977D01*
X114989473Y-112658444D01*
X114959971Y-112749240D01*
X114958896Y-112752550D01*
X114918822Y-112811155D01*
X114853425Y-112838792D01*
X114783469Y-112826685D01*
X114749968Y-112802708D01*
X113725405Y-111778145D01*
X113691379Y-111715833D01*
X113688500Y-111689050D01*
X113688500Y-110576611D01*
X113690292Y-110560382D01*
X113690042Y-110560359D01*
X113690788Y-110552465D01*
X113688562Y-110481629D01*
X113688500Y-110477671D01*
X113688500Y-110448576D01*
X113688500Y-110448568D01*
X113687942Y-110444157D01*
X113687012Y-110432333D01*
X113685562Y-110386169D01*
X113679580Y-110365581D01*
X113675570Y-110346218D01*
X113673224Y-110327645D01*
X113672882Y-110324936D01*
X113672881Y-110324934D01*
X113672881Y-110324932D01*
X113661331Y-110295762D01*
X113655875Y-110281984D01*
X113652034Y-110270766D01*
X113639145Y-110226399D01*
X113628228Y-110207940D01*
X113619529Y-110190182D01*
X113611637Y-110170248D01*
X113611636Y-110170247D01*
X113611635Y-110170244D01*
X113584468Y-110132852D01*
X113577971Y-110122961D01*
X113554452Y-110083193D01*
X113554451Y-110083192D01*
X113554450Y-110083190D01*
X113539291Y-110068031D01*
X113526450Y-110052998D01*
X113513841Y-110035643D01*
X113478236Y-110006187D01*
X113469459Y-109998199D01*
X113048875Y-109577615D01*
X113038664Y-109564869D01*
X113038471Y-109565030D01*
X113033417Y-109558921D01*
X112981742Y-109510395D01*
X112978930Y-109507670D01*
X112958333Y-109487073D01*
X112958331Y-109487071D01*
X112958325Y-109487066D01*
X112954827Y-109484353D01*
X112945803Y-109476646D01*
X112937257Y-109468621D01*
X112912133Y-109445028D01*
X112912130Y-109445026D01*
X112912125Y-109445023D01*
X112893338Y-109434694D01*
X112876818Y-109423843D01*
X112859867Y-109410695D01*
X112817465Y-109392346D01*
X112806810Y-109387126D01*
X112780851Y-109372855D01*
X112766338Y-109364876D01*
X112766335Y-109364875D01*
X112745568Y-109359543D01*
X112726865Y-109353140D01*
X112716703Y-109348743D01*
X112707176Y-109344620D01*
X112707174Y-109344619D01*
X112707176Y-109344619D01*
X112661552Y-109337394D01*
X112649929Y-109334987D01*
X112605188Y-109323500D01*
X112583741Y-109323500D01*
X112564032Y-109321949D01*
X112542848Y-109318594D01*
X112542847Y-109318594D01*
X112522770Y-109320491D01*
X112496859Y-109322941D01*
X112485004Y-109323500D01*
X112141857Y-109323500D01*
X112073736Y-109303498D01*
X112027243Y-109249842D01*
X112017139Y-109179568D01*
X112046633Y-109114988D01*
X112064466Y-109098069D01*
X112212899Y-108982537D01*
X112365325Y-108816958D01*
X112488419Y-108628548D01*
X112578820Y-108422456D01*
X112578823Y-108422449D01*
X112626544Y-108234000D01*
X111721116Y-108234000D01*
X111749493Y-108189844D01*
X111790000Y-108051889D01*
X111790000Y-108050500D01*
X114333000Y-108050500D01*
X114333000Y-108146184D01*
X114343430Y-108248273D01*
X114343431Y-108248276D01*
X114398248Y-108413707D01*
X114489737Y-108562033D01*
X114489742Y-108562039D01*
X114612960Y-108685257D01*
X114612966Y-108685262D01*
X114761292Y-108776751D01*
X114926723Y-108831568D01*
X114926726Y-108831569D01*
X115028815Y-108841999D01*
X115028815Y-108842000D01*
X115062000Y-108842000D01*
X115062000Y-108050500D01*
X114333000Y-108050500D01*
X111790000Y-108050500D01*
X111790000Y-107908111D01*
X111749493Y-107770156D01*
X111721116Y-107726000D01*
X112626544Y-107726000D01*
X112626544Y-107725999D01*
X112578823Y-107537550D01*
X112578820Y-107537543D01*
X112488419Y-107331451D01*
X112365325Y-107143041D01*
X112212902Y-106977465D01*
X112035301Y-106839232D01*
X112035300Y-106839231D01*
X112001791Y-106821097D01*
X111951401Y-106771083D01*
X111936050Y-106701766D01*
X111960612Y-106635153D01*
X112001790Y-106599472D01*
X112035576Y-106581189D01*
X112213240Y-106442906D01*
X112365722Y-106277268D01*
X112488860Y-106088791D01*
X112579296Y-105882616D01*
X112634564Y-105664368D01*
X112653156Y-105440000D01*
X112634564Y-105215632D01*
X112628798Y-105192862D01*
X112631463Y-105121917D01*
X112661844Y-105072835D01*
X112966100Y-104768579D01*
X113028410Y-104734555D01*
X113099225Y-104739620D01*
X113156061Y-104782167D01*
X113180872Y-104848687D01*
X113175026Y-104896612D01*
X113152457Y-104966070D01*
X113132496Y-105156000D01*
X113152457Y-105345927D01*
X113174327Y-105413234D01*
X113211473Y-105527556D01*
X113230710Y-105560875D01*
X113306958Y-105692941D01*
X113306965Y-105692951D01*
X113434744Y-105834864D01*
X113477978Y-105866275D01*
X113589248Y-105947118D01*
X113763712Y-106024794D01*
X113826769Y-106038197D01*
X113889243Y-106071925D01*
X113889668Y-106072349D01*
X114322929Y-106505610D01*
X114353438Y-106555072D01*
X114397789Y-106688916D01*
X114397790Y-106688918D01*
X114397791Y-106688920D01*
X114489342Y-106837346D01*
X114497252Y-106845256D01*
X114531278Y-106907565D01*
X114526216Y-106978381D01*
X114497258Y-107023445D01*
X114489737Y-107030966D01*
X114398248Y-107179292D01*
X114343431Y-107344723D01*
X114343430Y-107344726D01*
X114333000Y-107446815D01*
X114333000Y-107542500D01*
X116299000Y-107542500D01*
X116299000Y-107446815D01*
X116288569Y-107344726D01*
X116288568Y-107344723D01*
X116233751Y-107179292D01*
X116142262Y-107030966D01*
X116142257Y-107030960D01*
X116134745Y-107023448D01*
X116100719Y-106961136D01*
X116105784Y-106890321D01*
X116134747Y-106845256D01*
X116142658Y-106837346D01*
X116234209Y-106688920D01*
X116289062Y-106523381D01*
X116299500Y-106421213D01*
X116299499Y-106313369D01*
X116319500Y-106245250D01*
X116336399Y-106224280D01*
X117838778Y-104721901D01*
X117852617Y-104709941D01*
X117872058Y-104695469D01*
X117904227Y-104657130D01*
X117911645Y-104649034D01*
X117915580Y-104645101D01*
X117935044Y-104620483D01*
X117937241Y-104617785D01*
X117986032Y-104559640D01*
X117986034Y-104559634D01*
X117986037Y-104559632D01*
X117990066Y-104553508D01*
X117990122Y-104553545D01*
X117994171Y-104547190D01*
X117994113Y-104547154D01*
X117997963Y-104540911D01*
X117997962Y-104540911D01*
X117997967Y-104540906D01*
X118030022Y-104472159D01*
X118031571Y-104468960D01*
X118065609Y-104401188D01*
X118065610Y-104401181D01*
X118068120Y-104394289D01*
X118068183Y-104394312D01*
X118070657Y-104387196D01*
X118070593Y-104387175D01*
X118072899Y-104380211D01*
X118072902Y-104380207D01*
X118088237Y-104305931D01*
X118089004Y-104302468D01*
X118106500Y-104228656D01*
X118106500Y-104228653D01*
X118107352Y-104221368D01*
X118107418Y-104221375D01*
X118108184Y-104213877D01*
X118108118Y-104213872D01*
X118108756Y-104206565D01*
X118108758Y-104206558D01*
X118106553Y-104130774D01*
X118106500Y-104127110D01*
X118106500Y-103406999D01*
X118123380Y-103344000D01*
X118182527Y-103241556D01*
X118241542Y-103059928D01*
X118261504Y-102870000D01*
X118241542Y-102680072D01*
X118182527Y-102498444D01*
X118181983Y-102497501D01*
X118181835Y-102496891D01*
X118179840Y-102492410D01*
X118180659Y-102492045D01*
X118165244Y-102428506D01*
X118188463Y-102361414D01*
X118244270Y-102317526D01*
X118291101Y-102308500D01*
X123805559Y-102308500D01*
X123823819Y-102309830D01*
X123829489Y-102310660D01*
X123847789Y-102313341D01*
X123897646Y-102308978D01*
X123908627Y-102308500D01*
X123914175Y-102308500D01*
X123914180Y-102308500D01*
X123945287Y-102304863D01*
X123948889Y-102304495D01*
X124024426Y-102297887D01*
X124024430Y-102297885D01*
X124031618Y-102296402D01*
X124031631Y-102296468D01*
X124038987Y-102294836D01*
X124038972Y-102294771D01*
X124046102Y-102293080D01*
X124046113Y-102293079D01*
X124117400Y-102267132D01*
X124120769Y-102265961D01*
X124192738Y-102242114D01*
X124192747Y-102242108D01*
X124199389Y-102239012D01*
X124199418Y-102239074D01*
X124206203Y-102235789D01*
X124206173Y-102235729D01*
X124212724Y-102232437D01*
X124212732Y-102232435D01*
X124276091Y-102190761D01*
X124279161Y-102188806D01*
X124343651Y-102149030D01*
X124343659Y-102149021D01*
X124349408Y-102144477D01*
X124349450Y-102144531D01*
X124355289Y-102139775D01*
X124355246Y-102139723D01*
X124360864Y-102135007D01*
X124360874Y-102135001D01*
X124412961Y-102079790D01*
X124415448Y-102077231D01*
X124726332Y-101766347D01*
X124788642Y-101732323D01*
X124788946Y-101732257D01*
X124848805Y-101719534D01*
X124919594Y-101724936D01*
G37*
%TD.AperFunction*%
%TA.AperFunction,Conductor*%
G36*
X109859784Y-102967063D02*
G01*
X109916620Y-103009610D01*
X109941321Y-103074712D01*
X109945133Y-103120706D01*
X109945437Y-103124375D01*
X110000702Y-103342612D01*
X110000703Y-103342613D01*
X110000704Y-103342616D01*
X110036326Y-103423826D01*
X110091141Y-103548793D01*
X110214275Y-103737265D01*
X110214279Y-103737270D01*
X110366762Y-103902908D01*
X110421331Y-103945381D01*
X110544424Y-104041189D01*
X110577680Y-104059186D01*
X110628071Y-104109200D01*
X110643423Y-104178516D01*
X110618862Y-104245129D01*
X110577680Y-104280813D01*
X110554829Y-104293180D01*
X110544426Y-104298810D01*
X110544424Y-104298811D01*
X110366762Y-104437091D01*
X110214279Y-104602729D01*
X110214275Y-104602734D01*
X110091141Y-104791206D01*
X110000703Y-104997386D01*
X110000702Y-104997387D01*
X109945437Y-105215624D01*
X109945437Y-105215627D01*
X109945436Y-105215632D01*
X109926844Y-105440000D01*
X109943114Y-105636351D01*
X109945437Y-105664375D01*
X110000702Y-105882612D01*
X110000703Y-105882613D01*
X110000704Y-105882616D01*
X110072899Y-106047205D01*
X110091141Y-106088793D01*
X110214275Y-106277265D01*
X110214279Y-106277270D01*
X110366762Y-106442908D01*
X110384440Y-106456667D01*
X110544424Y-106581189D01*
X110578205Y-106599470D01*
X110628596Y-106649482D01*
X110643949Y-106718799D01*
X110619389Y-106785412D01*
X110578209Y-106821096D01*
X110544704Y-106839228D01*
X110544698Y-106839232D01*
X110367097Y-106977465D01*
X110214674Y-107143041D01*
X110091580Y-107331451D01*
X110001179Y-107537543D01*
X110001176Y-107537550D01*
X109953455Y-107725999D01*
X109953456Y-107726000D01*
X110858884Y-107726000D01*
X110830507Y-107770156D01*
X110790000Y-107908111D01*
X110790000Y-108051889D01*
X110830507Y-108189844D01*
X110858884Y-108234000D01*
X109953455Y-108234000D01*
X110001176Y-108422449D01*
X110001179Y-108422456D01*
X110091580Y-108628548D01*
X110214674Y-108816958D01*
X110367100Y-108982537D01*
X110515534Y-109098069D01*
X110557005Y-109155694D01*
X110560738Y-109226592D01*
X110525549Y-109288254D01*
X110462608Y-109321102D01*
X110438143Y-109323500D01*
X110068611Y-109323500D01*
X110052379Y-109321708D01*
X110052356Y-109321958D01*
X110044463Y-109321211D01*
X109973631Y-109323438D01*
X109969673Y-109323500D01*
X109940568Y-109323500D01*
X109936163Y-109324056D01*
X109924345Y-109324986D01*
X109878168Y-109326437D01*
X109857570Y-109332421D01*
X109838224Y-109336428D01*
X109816935Y-109339118D01*
X109773983Y-109356124D01*
X109762756Y-109359967D01*
X109718400Y-109372854D01*
X109699933Y-109383775D01*
X109682184Y-109392469D01*
X109662248Y-109400362D01*
X109657194Y-109403141D01*
X109587862Y-109418426D01*
X109521273Y-109393801D01*
X109478568Y-109337084D01*
X109470500Y-109292722D01*
X109470500Y-103304371D01*
X109490502Y-103236250D01*
X109507405Y-103215276D01*
X109726657Y-102996024D01*
X109788969Y-102961998D01*
X109859784Y-102967063D01*
G37*
%TD.AperFunction*%
%TA.AperFunction,Conductor*%
G36*
X125119768Y-104207002D02*
G01*
X125151654Y-104239483D01*
X125152788Y-104238588D01*
X125157341Y-104244346D01*
X125218254Y-104305259D01*
X125252280Y-104367571D01*
X125247215Y-104438386D01*
X125218254Y-104483449D01*
X125157742Y-104543960D01*
X125157737Y-104543966D01*
X125066248Y-104692292D01*
X125011431Y-104857723D01*
X125011430Y-104857726D01*
X125001000Y-104959815D01*
X125001000Y-105005500D01*
X126112000Y-105005500D01*
X126180121Y-105025502D01*
X126226614Y-105079158D01*
X126238000Y-105131500D01*
X126238000Y-105387500D01*
X126217998Y-105455621D01*
X126164342Y-105502114D01*
X126112000Y-105513500D01*
X125001000Y-105513500D01*
X125001000Y-105559184D01*
X125011430Y-105661273D01*
X125011431Y-105661276D01*
X125066248Y-105826707D01*
X125157737Y-105975033D01*
X125157742Y-105975039D01*
X125265254Y-106082551D01*
X125299280Y-106144863D01*
X125294215Y-106215678D01*
X125265254Y-106260741D01*
X125157347Y-106368647D01*
X125157342Y-106368653D01*
X125065791Y-106517080D01*
X125010937Y-106682622D01*
X125000500Y-106784778D01*
X125000500Y-107084549D01*
X124980498Y-107152670D01*
X124963595Y-107173644D01*
X124063595Y-108073644D01*
X124001283Y-108107670D01*
X123930468Y-108102605D01*
X123873632Y-108060058D01*
X123848821Y-107993538D01*
X123848500Y-107984549D01*
X123848500Y-104972950D01*
X123868502Y-104904829D01*
X123885405Y-104883855D01*
X124545355Y-104223905D01*
X124607667Y-104189879D01*
X124634450Y-104187000D01*
X125051647Y-104187000D01*
X125119768Y-104207002D01*
G37*
%TD.AperFunction*%
%TA.AperFunction,Conductor*%
G36*
X131648512Y-105129301D02*
G01*
X131693447Y-105138332D01*
X131744440Y-105187732D01*
X131760630Y-105256858D01*
X131754657Y-105288801D01*
X131753473Y-105292442D01*
X131753473Y-105292444D01*
X131741985Y-105327800D01*
X131694457Y-105474072D01*
X131674496Y-105664000D01*
X131694457Y-105853927D01*
X131734199Y-105976237D01*
X131736227Y-106047205D01*
X131699564Y-106108003D01*
X131635852Y-106139328D01*
X131565318Y-106131236D01*
X131525271Y-106104269D01*
X131401720Y-105980718D01*
X131341798Y-105938760D01*
X131219183Y-105852903D01*
X131219181Y-105852902D01*
X131219182Y-105852902D01*
X131114135Y-105803918D01*
X131060850Y-105757000D01*
X131041389Y-105688723D01*
X131061931Y-105620763D01*
X131114137Y-105575528D01*
X131218924Y-105526666D01*
X131218932Y-105526661D01*
X131282757Y-105481969D01*
X131282757Y-105481967D01*
X130716419Y-104915629D01*
X130725161Y-104914373D01*
X130858562Y-104853451D01*
X130969395Y-104757413D01*
X131048682Y-104634040D01*
X131072417Y-104553206D01*
X131648512Y-105129301D01*
G37*
%TD.AperFunction*%
%TA.AperFunction,Conductor*%
G36*
X139987534Y-100600502D02*
G01*
X139993471Y-100604562D01*
X140005248Y-100613118D01*
X140179712Y-100690794D01*
X140366513Y-100730500D01*
X140557488Y-100730500D01*
X140568248Y-100728212D01*
X140586843Y-100724260D01*
X140657633Y-100729660D01*
X140714267Y-100772476D01*
X140738762Y-100839113D01*
X140723342Y-100908415D01*
X140702137Y-100936601D01*
X136924145Y-104714595D01*
X136861833Y-104748620D01*
X136835050Y-104751500D01*
X132928611Y-104751500D01*
X132912379Y-104749708D01*
X132912356Y-104749958D01*
X132904463Y-104749211D01*
X132833631Y-104751438D01*
X132829673Y-104751500D01*
X132800568Y-104751500D01*
X132796163Y-104752056D01*
X132784345Y-104752986D01*
X132738170Y-104754437D01*
X132730341Y-104755678D01*
X132729985Y-104753430D01*
X132690195Y-104754885D01*
X132690058Y-104756190D01*
X132683491Y-104755500D01*
X132683487Y-104755500D01*
X132492513Y-104755500D01*
X132305711Y-104795206D01*
X132131247Y-104872882D01*
X131978674Y-104983733D01*
X131911806Y-105007592D01*
X131842654Y-104991511D01*
X131793174Y-104940597D01*
X131779075Y-104871014D01*
X131782906Y-104849186D01*
X131838448Y-104641897D01*
X131857862Y-104420000D01*
X131838448Y-104198102D01*
X131780798Y-103982946D01*
X131780796Y-103982941D01*
X131686661Y-103781068D01*
X131641969Y-103717241D01*
X131641967Y-103717241D01*
X131072416Y-104286791D01*
X131048682Y-104205960D01*
X130969395Y-104082587D01*
X130858562Y-103986549D01*
X130725161Y-103925627D01*
X130716419Y-103924370D01*
X131282757Y-103358030D01*
X131282757Y-103358029D01*
X131218930Y-103313337D01*
X131218927Y-103313335D01*
X131114136Y-103264471D01*
X131060850Y-103217554D01*
X131041389Y-103149277D01*
X131061930Y-103081317D01*
X131114136Y-103036081D01*
X131182833Y-103004047D01*
X131219183Y-102987097D01*
X131401717Y-102859284D01*
X131559284Y-102701717D01*
X131559289Y-102701710D01*
X131565929Y-102692228D01*
X131621387Y-102647900D01*
X131669141Y-102638500D01*
X132497559Y-102638500D01*
X132515819Y-102639830D01*
X132521489Y-102640660D01*
X132539789Y-102643341D01*
X132589646Y-102638978D01*
X132600627Y-102638500D01*
X132606175Y-102638500D01*
X132606180Y-102638500D01*
X132637287Y-102634863D01*
X132640889Y-102634495D01*
X132716426Y-102627887D01*
X132716430Y-102627885D01*
X132723618Y-102626402D01*
X132723631Y-102626468D01*
X132730987Y-102624836D01*
X132730972Y-102624771D01*
X132738102Y-102623080D01*
X132738113Y-102623079D01*
X132809400Y-102597132D01*
X132812769Y-102595961D01*
X132884738Y-102572114D01*
X132884747Y-102572108D01*
X132891389Y-102569012D01*
X132891418Y-102569074D01*
X132898203Y-102565789D01*
X132898173Y-102565729D01*
X132904724Y-102562437D01*
X132904732Y-102562435D01*
X132968091Y-102520761D01*
X132971161Y-102518806D01*
X132971878Y-102518364D01*
X133035651Y-102479030D01*
X133035659Y-102479021D01*
X133041408Y-102474477D01*
X133041450Y-102474531D01*
X133047289Y-102469775D01*
X133047246Y-102469723D01*
X133052864Y-102465007D01*
X133052874Y-102465001D01*
X133104962Y-102409789D01*
X133107414Y-102407265D01*
X134897278Y-100617402D01*
X134959588Y-100583379D01*
X134986371Y-100580500D01*
X139919413Y-100580500D01*
X139987534Y-100600502D01*
G37*
%TD.AperFunction*%
%TA.AperFunction,Conductor*%
G36*
X126740049Y-100426502D02*
G01*
X126753749Y-100436682D01*
X126872584Y-100538176D01*
X127075037Y-100662240D01*
X127294406Y-100753105D01*
X127525289Y-100808535D01*
X127762000Y-100827165D01*
X127998711Y-100808535D01*
X128229594Y-100753105D01*
X128448963Y-100662240D01*
X128448968Y-100662236D01*
X128453282Y-100660450D01*
X128523872Y-100652861D01*
X128587359Y-100684640D01*
X128623586Y-100745698D01*
X128627500Y-100776859D01*
X128627500Y-104747757D01*
X128607498Y-104815878D01*
X128553842Y-104862371D01*
X128483568Y-104872475D01*
X128450251Y-104862864D01*
X128298288Y-104795206D01*
X128279470Y-104791206D01*
X128187071Y-104771565D01*
X128124598Y-104737837D01*
X128124174Y-104737414D01*
X127004404Y-103617644D01*
X126970378Y-103555332D01*
X126967499Y-103528549D01*
X126967499Y-103228787D01*
X126957062Y-103126619D01*
X126933389Y-103055177D01*
X126902209Y-102961080D01*
X126810658Y-102812654D01*
X126810657Y-102812653D01*
X126810652Y-102812647D01*
X126702746Y-102704741D01*
X126668720Y-102642429D01*
X126673785Y-102571614D01*
X126702746Y-102526551D01*
X126810257Y-102419039D01*
X126810262Y-102419033D01*
X126901751Y-102270707D01*
X126956568Y-102105276D01*
X126956569Y-102105273D01*
X126966999Y-102003184D01*
X126967000Y-102003184D01*
X126967000Y-101957500D01*
X125856000Y-101957500D01*
X125787879Y-101937498D01*
X125741386Y-101883842D01*
X125730000Y-101831500D01*
X125730000Y-100708000D01*
X126238000Y-100708000D01*
X126238000Y-101449500D01*
X126967000Y-101449500D01*
X126967000Y-101403815D01*
X126956569Y-101301726D01*
X126956568Y-101301723D01*
X126901751Y-101136292D01*
X126810262Y-100987966D01*
X126810257Y-100987960D01*
X126687039Y-100864742D01*
X126687033Y-100864737D01*
X126538707Y-100773248D01*
X126373276Y-100718431D01*
X126373273Y-100718430D01*
X126271184Y-100708000D01*
X126238000Y-100708000D01*
X125730000Y-100708000D01*
X125696815Y-100708000D01*
X125587879Y-100719130D01*
X125587574Y-100716153D01*
X125529876Y-100711723D01*
X125473263Y-100668879D01*
X125454692Y-100632836D01*
X125434741Y-100571435D01*
X125432714Y-100500469D01*
X125469377Y-100439671D01*
X125533089Y-100408345D01*
X125554575Y-100406500D01*
X126671928Y-100406500D01*
X126740049Y-100426502D01*
G37*
%TD.AperFunction*%
%TA.AperFunction,Conductor*%
G36*
X144548093Y-86488559D02*
G01*
X144604726Y-86531375D01*
X144629220Y-86598013D01*
X144629500Y-86606404D01*
X144629500Y-87048911D01*
X144609498Y-87117032D01*
X144595348Y-87135166D01*
X144562393Y-87170258D01*
X144559642Y-87173097D01*
X144539074Y-87193665D01*
X144539073Y-87193667D01*
X144536344Y-87197184D01*
X144528650Y-87206191D01*
X144497029Y-87239865D01*
X144497027Y-87239867D01*
X144486691Y-87258667D01*
X144475843Y-87275180D01*
X144462699Y-87292126D01*
X144462694Y-87292135D01*
X144444350Y-87334524D01*
X144439131Y-87345178D01*
X144416877Y-87385661D01*
X144416873Y-87385670D01*
X144411541Y-87406436D01*
X144405139Y-87425136D01*
X144396620Y-87444820D01*
X144396620Y-87444823D01*
X144389393Y-87490452D01*
X144386986Y-87502072D01*
X144375500Y-87546810D01*
X144375500Y-87568258D01*
X144373949Y-87587967D01*
X144370594Y-87609150D01*
X144370594Y-87609152D01*
X144374941Y-87655138D01*
X144375500Y-87666996D01*
X144375500Y-94147389D01*
X144373708Y-94163620D01*
X144373958Y-94163644D01*
X144373211Y-94171536D01*
X144375438Y-94242369D01*
X144375500Y-94246327D01*
X144375500Y-94275432D01*
X144376056Y-94279833D01*
X144376986Y-94291655D01*
X144378437Y-94337829D01*
X144378438Y-94337832D01*
X144384421Y-94358429D01*
X144388428Y-94377780D01*
X144391117Y-94399060D01*
X144391117Y-94399061D01*
X144391117Y-94399063D01*
X144391118Y-94399064D01*
X144395133Y-94409204D01*
X144408124Y-94442018D01*
X144411967Y-94453244D01*
X144424853Y-94497597D01*
X144424853Y-94497598D01*
X144435771Y-94516058D01*
X144444468Y-94533811D01*
X144452364Y-94553755D01*
X144452368Y-94553761D01*
X144479514Y-94591123D01*
X144486033Y-94601047D01*
X144502892Y-94629554D01*
X144509547Y-94640807D01*
X144524714Y-94655974D01*
X144537552Y-94671005D01*
X144550158Y-94688356D01*
X144585751Y-94717801D01*
X144594531Y-94725791D01*
X145313293Y-95444553D01*
X145347319Y-95506865D01*
X145342254Y-95577680D01*
X145299707Y-95634516D01*
X145277449Y-95647842D01*
X145180824Y-95692899D01*
X145180823Y-95692900D01*
X145180822Y-95692901D01*
X145180818Y-95692903D01*
X145107771Y-95744051D01*
X144998282Y-95820716D01*
X144998278Y-95820719D01*
X144840719Y-95978278D01*
X144840716Y-95978282D01*
X144761005Y-96092121D01*
X144718202Y-96153251D01*
X144712901Y-96160821D01*
X144664195Y-96265272D01*
X144617277Y-96318557D01*
X144549000Y-96338018D01*
X144481040Y-96317476D01*
X144435805Y-96265272D01*
X144387881Y-96162500D01*
X144387097Y-96160818D01*
X144259284Y-95978283D01*
X144259283Y-95978282D01*
X144259280Y-95978278D01*
X144101720Y-95820718D01*
X144041304Y-95778414D01*
X143919183Y-95692903D01*
X143919181Y-95692902D01*
X143919182Y-95692902D01*
X143733250Y-95606201D01*
X143679965Y-95559284D01*
X143660500Y-95492006D01*
X143660500Y-87192950D01*
X143680502Y-87124829D01*
X143697405Y-87103855D01*
X144257855Y-86543405D01*
X144320167Y-86509379D01*
X144346950Y-86506500D01*
X144367491Y-86506500D01*
X144477302Y-86483158D01*
X144548093Y-86488559D01*
G37*
%TD.AperFunction*%
%TA.AperFunction,Conductor*%
G36*
X160113843Y-94128931D02*
G01*
X160147394Y-94191500D01*
X160149384Y-94230516D01*
X160146496Y-94257998D01*
X160166457Y-94447927D01*
X160187777Y-94513542D01*
X160225473Y-94629556D01*
X160247866Y-94668342D01*
X160320961Y-94794946D01*
X160369135Y-94848447D01*
X160399853Y-94912454D01*
X160401500Y-94932759D01*
X160401500Y-95640838D01*
X160381498Y-95708959D01*
X160347774Y-95744048D01*
X160238283Y-95820716D01*
X160238280Y-95820718D01*
X160238274Y-95820723D01*
X160080719Y-95978278D01*
X160080716Y-95978282D01*
X160001005Y-96092121D01*
X159958202Y-96153251D01*
X159952901Y-96160821D01*
X159904195Y-96265272D01*
X159857277Y-96318557D01*
X159789000Y-96338018D01*
X159721040Y-96317476D01*
X159675805Y-96265272D01*
X159627881Y-96162500D01*
X159627097Y-96160818D01*
X159499284Y-95978283D01*
X159499283Y-95978282D01*
X159499280Y-95978278D01*
X159341720Y-95820718D01*
X159281304Y-95778414D01*
X159159183Y-95692903D01*
X159159181Y-95692902D01*
X159159182Y-95692902D01*
X158957230Y-95598731D01*
X158957225Y-95598729D01*
X158828289Y-95564181D01*
X158741986Y-95541056D01*
X158520000Y-95521635D01*
X158298014Y-95541056D01*
X158240341Y-95556509D01*
X158082774Y-95598729D01*
X158082769Y-95598731D01*
X157880821Y-95692901D01*
X157698282Y-95820716D01*
X157698278Y-95820719D01*
X157540719Y-95978278D01*
X157540716Y-95978282D01*
X157461005Y-96092121D01*
X157418202Y-96153251D01*
X157412901Y-96160821D01*
X157364195Y-96265272D01*
X157317277Y-96318557D01*
X157249000Y-96338018D01*
X157181040Y-96317476D01*
X157135805Y-96265272D01*
X157087881Y-96162500D01*
X157087097Y-96160818D01*
X156959284Y-95978283D01*
X156959283Y-95978282D01*
X156959280Y-95978278D01*
X156801720Y-95820718D01*
X156741304Y-95778414D01*
X156619183Y-95692903D01*
X156619181Y-95692902D01*
X156619182Y-95692902D01*
X156417230Y-95598731D01*
X156417225Y-95598729D01*
X156338668Y-95577680D01*
X156201986Y-95541056D01*
X156201980Y-95541055D01*
X156198773Y-95540196D01*
X156138150Y-95503244D01*
X156107129Y-95439384D01*
X156115557Y-95368889D01*
X156153241Y-95319648D01*
X156156731Y-95316888D01*
X156277885Y-95195734D01*
X156277890Y-95195728D01*
X156367847Y-95049884D01*
X156421742Y-94887241D01*
X156421744Y-94887229D01*
X156431999Y-94786852D01*
X156432000Y-94786852D01*
X156432000Y-94742000D01*
X155346000Y-94742000D01*
X155277879Y-94721998D01*
X155231386Y-94668342D01*
X155220000Y-94616000D01*
X155220000Y-94360000D01*
X155240002Y-94291879D01*
X155293658Y-94245386D01*
X155346000Y-94234000D01*
X156432001Y-94234000D01*
X156433870Y-94232130D01*
X156452002Y-94170379D01*
X156505658Y-94123886D01*
X156558000Y-94112500D01*
X159745559Y-94112500D01*
X159763819Y-94113830D01*
X159769489Y-94114660D01*
X159787789Y-94117341D01*
X159837646Y-94112978D01*
X159848627Y-94112500D01*
X159854175Y-94112500D01*
X159854180Y-94112500D01*
X159885287Y-94108863D01*
X159888889Y-94108495D01*
X159964426Y-94101887D01*
X159964430Y-94101885D01*
X159971618Y-94100402D01*
X159971631Y-94100468D01*
X159978987Y-94098836D01*
X159978972Y-94098771D01*
X159986109Y-94097079D01*
X159986113Y-94097079D01*
X159986116Y-94097077D01*
X159993255Y-94095386D01*
X159993906Y-94098133D01*
X160051791Y-94094434D01*
X160113843Y-94128931D01*
G37*
%TD.AperFunction*%
%TA.AperFunction,Conductor*%
G36*
X132566250Y-90463002D02*
G01*
X132587224Y-90479905D01*
X132604595Y-90497276D01*
X132638621Y-90559588D01*
X132641500Y-90586371D01*
X132641500Y-92144529D01*
X132621498Y-92212650D01*
X132567842Y-92259143D01*
X132497568Y-92269247D01*
X132441439Y-92246465D01*
X132340161Y-92172882D01*
X132165697Y-92095206D01*
X131978896Y-92055500D01*
X131892700Y-92055500D01*
X131824579Y-92035498D01*
X131778086Y-91981842D01*
X131767982Y-91911568D01*
X131773096Y-91889867D01*
X131782567Y-91861285D01*
X131782569Y-91861273D01*
X131792999Y-91759184D01*
X131793000Y-91759184D01*
X131793000Y-91663500D01*
X131064000Y-91663500D01*
X131064000Y-92477980D01*
X131070383Y-92489670D01*
X131065318Y-92560485D01*
X131056384Y-92579448D01*
X131048885Y-92592436D01*
X131048882Y-92592442D01*
X131048882Y-92592444D01*
X131043471Y-92609098D01*
X130989866Y-92774072D01*
X130969905Y-92964000D01*
X130989866Y-93153927D01*
X131009624Y-93214734D01*
X131048882Y-93335556D01*
X131081208Y-93391547D01*
X131099543Y-93423303D01*
X131116281Y-93492298D01*
X131093061Y-93559390D01*
X131056571Y-93593543D01*
X130946659Y-93661338D01*
X130946652Y-93661343D01*
X130910948Y-93697048D01*
X130823342Y-93784654D01*
X130823340Y-93784656D01*
X130818154Y-93789843D01*
X130816493Y-93788182D01*
X130767778Y-93822679D01*
X130726882Y-93829500D01*
X128729328Y-93829500D01*
X128661207Y-93809498D01*
X128614714Y-93755842D01*
X128604050Y-93690031D01*
X128608499Y-93648647D01*
X128608500Y-93648632D01*
X128608500Y-92851367D01*
X128608499Y-92851350D01*
X128601990Y-92790803D01*
X128601989Y-92790798D01*
X128590009Y-92758681D01*
X128584278Y-92743316D01*
X128579213Y-92672502D01*
X128584279Y-92655250D01*
X128601493Y-92609098D01*
X128601494Y-92609093D01*
X128607999Y-92548597D01*
X128608000Y-92548585D01*
X128608000Y-92404000D01*
X128247991Y-92404000D01*
X128217196Y-92398443D01*
X128216870Y-92399823D01*
X128209200Y-92398010D01*
X128148649Y-92391500D01*
X128148638Y-92391500D01*
X126972000Y-92391500D01*
X126903879Y-92371498D01*
X126857386Y-92317842D01*
X126846000Y-92265500D01*
X126846000Y-92034500D01*
X126866002Y-91966379D01*
X126919658Y-91919886D01*
X126972000Y-91908500D01*
X128148632Y-91908500D01*
X128148638Y-91908500D01*
X128148645Y-91908499D01*
X128148649Y-91908499D01*
X128186760Y-91904401D01*
X128209201Y-91901989D01*
X128209202Y-91901988D01*
X128216870Y-91900177D01*
X128217196Y-91901556D01*
X128247991Y-91896000D01*
X128608000Y-91896000D01*
X128616547Y-91887453D01*
X128678858Y-91853427D01*
X128749674Y-91858491D01*
X128756894Y-91861440D01*
X128885712Y-91918794D01*
X129072513Y-91958500D01*
X129263487Y-91958500D01*
X129450288Y-91918794D01*
X129624752Y-91841118D01*
X129651333Y-91821805D01*
X129718196Y-91797948D01*
X129787348Y-91814027D01*
X129836829Y-91864940D01*
X129844997Y-91884109D01*
X129892248Y-92026707D01*
X129983737Y-92175033D01*
X129983742Y-92175039D01*
X130106960Y-92298257D01*
X130106966Y-92298262D01*
X130255292Y-92389751D01*
X130420723Y-92444568D01*
X130420726Y-92444569D01*
X130522815Y-92454999D01*
X130522815Y-92455000D01*
X130556000Y-92455000D01*
X130556000Y-91281500D01*
X130576002Y-91213379D01*
X130629658Y-91166886D01*
X130682000Y-91155500D01*
X131793000Y-91155500D01*
X131793000Y-91059815D01*
X131782569Y-90957726D01*
X131782568Y-90957723D01*
X131727751Y-90792292D01*
X131632410Y-90637721D01*
X131634463Y-90636454D01*
X131612218Y-90581301D01*
X131625474Y-90511553D01*
X131674334Y-90460044D01*
X131737616Y-90443000D01*
X132498129Y-90443000D01*
X132566250Y-90463002D01*
G37*
%TD.AperFunction*%
%TA.AperFunction,Conductor*%
G36*
X137839258Y-84421215D02*
G01*
X137866805Y-84442065D01*
X138919125Y-85494385D01*
X138929338Y-85507131D01*
X138929531Y-85506972D01*
X138934583Y-85513079D01*
X138986257Y-85561604D01*
X138989099Y-85564359D01*
X139009667Y-85584927D01*
X139012958Y-85587480D01*
X139013171Y-85587645D01*
X139022198Y-85595355D01*
X139055867Y-85626972D01*
X139074669Y-85637308D01*
X139091175Y-85648151D01*
X139108132Y-85661304D01*
X139150542Y-85679656D01*
X139161182Y-85684870D01*
X139201659Y-85707122D01*
X139201663Y-85707124D01*
X139222432Y-85712456D01*
X139241134Y-85718859D01*
X139260824Y-85727380D01*
X139268730Y-85728632D01*
X139332883Y-85759039D01*
X139342660Y-85768769D01*
X139342747Y-85768866D01*
X139342749Y-85768868D01*
X139442500Y-85841341D01*
X139497248Y-85881118D01*
X139671712Y-85958794D01*
X139858513Y-85998500D01*
X140049487Y-85998500D01*
X140236288Y-85958794D01*
X140288250Y-85935658D01*
X140358617Y-85926224D01*
X140422915Y-85956330D01*
X140460728Y-86016418D01*
X140465500Y-86050765D01*
X140465500Y-88701234D01*
X140445498Y-88769355D01*
X140391842Y-88815848D01*
X140321568Y-88825952D01*
X140288252Y-88816341D01*
X140236290Y-88793206D01*
X140049487Y-88753500D01*
X139858513Y-88753500D01*
X139671711Y-88793206D01*
X139497247Y-88870882D01*
X139342744Y-88983135D01*
X139214965Y-89125048D01*
X139214958Y-89125058D01*
X139119476Y-89290438D01*
X139119473Y-89290444D01*
X139114033Y-89307186D01*
X139060457Y-89472072D01*
X139040496Y-89662000D01*
X139060457Y-89851927D01*
X139080090Y-89912349D01*
X139119473Y-90033556D01*
X139183255Y-90144030D01*
X139214962Y-90198947D01*
X139214964Y-90198950D01*
X139221938Y-90206696D01*
X139252654Y-90270704D01*
X139243888Y-90341157D01*
X139217396Y-90380099D01*
X139130242Y-90467254D01*
X139067930Y-90501279D01*
X138997114Y-90496215D01*
X138952051Y-90467254D01*
X138844539Y-90359742D01*
X138844533Y-90359737D01*
X138696207Y-90268248D01*
X138530776Y-90213431D01*
X138530773Y-90213430D01*
X138428684Y-90203000D01*
X138383000Y-90203000D01*
X138383000Y-91314000D01*
X138362998Y-91382121D01*
X138309342Y-91428614D01*
X138257000Y-91440000D01*
X138017871Y-91440000D01*
X137949750Y-91419998D01*
X137928776Y-91403095D01*
X137911905Y-91386224D01*
X137877879Y-91323912D01*
X137875000Y-91297129D01*
X137875000Y-90203000D01*
X137829324Y-90203000D01*
X137803306Y-90205658D01*
X137733505Y-90192682D01*
X137681799Y-90144030D01*
X137664500Y-90080310D01*
X137664500Y-84773441D01*
X137665830Y-84755182D01*
X137666940Y-84747600D01*
X137669341Y-84731211D01*
X137664979Y-84681352D01*
X137664500Y-84670372D01*
X137664500Y-84664813D01*
X137660866Y-84633734D01*
X137660496Y-84630122D01*
X137653887Y-84554574D01*
X137653886Y-84554571D01*
X137653247Y-84547264D01*
X137655097Y-84547102D01*
X137660125Y-84485885D01*
X137703269Y-84429501D01*
X137770047Y-84405393D01*
X137839258Y-84421215D01*
G37*
%TD.AperFunction*%
%TA.AperFunction,Conductor*%
G36*
X160779171Y-86784502D02*
G01*
X160800145Y-86801405D01*
X161599145Y-87600405D01*
X161633171Y-87662717D01*
X161628106Y-87733532D01*
X161585559Y-87790368D01*
X161519039Y-87815179D01*
X161510050Y-87815500D01*
X160291350Y-87815500D01*
X160230803Y-87822009D01*
X160230795Y-87822011D01*
X160093797Y-87873110D01*
X160093792Y-87873112D01*
X159976738Y-87960738D01*
X159889112Y-88077792D01*
X159889110Y-88077797D01*
X159838011Y-88214795D01*
X159838009Y-88214803D01*
X159831500Y-88275350D01*
X159831500Y-89049050D01*
X159811498Y-89117171D01*
X159794595Y-89138145D01*
X159674145Y-89258595D01*
X159611833Y-89292621D01*
X159585050Y-89295500D01*
X157574000Y-89295500D01*
X157505879Y-89275498D01*
X157459386Y-89221842D01*
X157448000Y-89169500D01*
X157448000Y-89028000D01*
X156062000Y-89028000D01*
X155993879Y-89007998D01*
X155947386Y-88954342D01*
X155936000Y-88902000D01*
X155936000Y-87816000D01*
X156444000Y-87816000D01*
X156444000Y-88520000D01*
X157448000Y-88520000D01*
X157448000Y-88275414D01*
X157447999Y-88275402D01*
X157441494Y-88214906D01*
X157390444Y-88078035D01*
X157390444Y-88078034D01*
X157302904Y-87961095D01*
X157185965Y-87873555D01*
X157049093Y-87822505D01*
X156988597Y-87816000D01*
X156444000Y-87816000D01*
X155936000Y-87816000D01*
X155391402Y-87816000D01*
X155330906Y-87822505D01*
X155194035Y-87873555D01*
X155194034Y-87873555D01*
X155077095Y-87961095D01*
X154989555Y-88078034D01*
X154989554Y-88078037D01*
X154958321Y-88161775D01*
X154915774Y-88218610D01*
X154849254Y-88243420D01*
X154779880Y-88228328D01*
X154729678Y-88178125D01*
X154722216Y-88161786D01*
X154690889Y-88077796D01*
X154690887Y-88077794D01*
X154690887Y-88077792D01*
X154603261Y-87960738D01*
X154486207Y-87873112D01*
X154486202Y-87873110D01*
X154349204Y-87822011D01*
X154349196Y-87822009D01*
X154288649Y-87815500D01*
X154288638Y-87815500D01*
X152691362Y-87815500D01*
X152691350Y-87815500D01*
X152630803Y-87822009D01*
X152630795Y-87822011D01*
X152493797Y-87873110D01*
X152493792Y-87873112D01*
X152376738Y-87960738D01*
X152289112Y-88077792D01*
X152289110Y-88077797D01*
X152238011Y-88214795D01*
X152238009Y-88214803D01*
X152231500Y-88275350D01*
X152231500Y-89169500D01*
X152211498Y-89237621D01*
X152157842Y-89284114D01*
X152105500Y-89295500D01*
X151176614Y-89295500D01*
X151160379Y-89293707D01*
X151160356Y-89293957D01*
X151152463Y-89293211D01*
X151081612Y-89295438D01*
X151077654Y-89295500D01*
X151048568Y-89295500D01*
X151048562Y-89295500D01*
X151048556Y-89295501D01*
X151044161Y-89296056D01*
X151032341Y-89296986D01*
X150986172Y-89298437D01*
X150986170Y-89298437D01*
X150986169Y-89298438D01*
X150965571Y-89304421D01*
X150946221Y-89308428D01*
X150924940Y-89311116D01*
X150924934Y-89311118D01*
X150881974Y-89328126D01*
X150870749Y-89331969D01*
X150826406Y-89344852D01*
X150826399Y-89344855D01*
X150807937Y-89355773D01*
X150790191Y-89364466D01*
X150770248Y-89372362D01*
X150770245Y-89372364D01*
X150732872Y-89399517D01*
X150722953Y-89406032D01*
X150683194Y-89429546D01*
X150668022Y-89444717D01*
X150652996Y-89457550D01*
X150635644Y-89470157D01*
X150635643Y-89470158D01*
X150606191Y-89505758D01*
X150598204Y-89514534D01*
X149034143Y-91078596D01*
X148971833Y-91112620D01*
X148945050Y-91115500D01*
X147791350Y-91115500D01*
X147730803Y-91122009D01*
X147730799Y-91122010D01*
X147669074Y-91145033D01*
X147598258Y-91150097D01*
X147535946Y-91116072D01*
X147505437Y-91066609D01*
X147503186Y-91059815D01*
X147458209Y-90924080D01*
X147366658Y-90775654D01*
X147358746Y-90767742D01*
X147324721Y-90705434D01*
X147329783Y-90634618D01*
X147358748Y-90589547D01*
X147366262Y-90582033D01*
X147457751Y-90433707D01*
X147512568Y-90268276D01*
X147512569Y-90268273D01*
X147522999Y-90166184D01*
X147523000Y-90166184D01*
X147523000Y-90070500D01*
X146412000Y-90070500D01*
X146343879Y-90050498D01*
X146297386Y-89996842D01*
X146286000Y-89944500D01*
X146286000Y-88771000D01*
X146794000Y-88771000D01*
X146794000Y-89562500D01*
X147442638Y-89562500D01*
X147510759Y-89582502D01*
X147555311Y-89632101D01*
X147566000Y-89653456D01*
X147594036Y-89674445D01*
X147730905Y-89725494D01*
X147791402Y-89731999D01*
X147791415Y-89732000D01*
X148336000Y-89732000D01*
X148336000Y-89028000D01*
X148844000Y-89028000D01*
X148844000Y-89732000D01*
X149388585Y-89732000D01*
X149388597Y-89731999D01*
X149449093Y-89725494D01*
X149585964Y-89674444D01*
X149585965Y-89674444D01*
X149702904Y-89586904D01*
X149790444Y-89469965D01*
X149790444Y-89469964D01*
X149841494Y-89333093D01*
X149847999Y-89272597D01*
X149848000Y-89272585D01*
X149848000Y-89028000D01*
X148844000Y-89028000D01*
X148336000Y-89028000D01*
X147395487Y-89028000D01*
X147327366Y-89007998D01*
X147306392Y-88991095D01*
X147243039Y-88927742D01*
X147243033Y-88927737D01*
X147094707Y-88836248D01*
X146929276Y-88781431D01*
X146929273Y-88781430D01*
X146827184Y-88771000D01*
X146794000Y-88771000D01*
X146286000Y-88771000D01*
X146286000Y-88770999D01*
X146279225Y-88764224D01*
X146245199Y-88701912D01*
X146250264Y-88631097D01*
X146279222Y-88586035D01*
X146345257Y-88520000D01*
X147332000Y-88520000D01*
X148336000Y-88520000D01*
X148336000Y-87816000D01*
X148844000Y-87816000D01*
X148844000Y-88520000D01*
X149848000Y-88520000D01*
X149848000Y-88275414D01*
X149847999Y-88275402D01*
X149841494Y-88214906D01*
X149790444Y-88078035D01*
X149790444Y-88078034D01*
X149702904Y-87961095D01*
X149585965Y-87873555D01*
X149449093Y-87822505D01*
X149388597Y-87816000D01*
X148844000Y-87816000D01*
X148336000Y-87816000D01*
X147791402Y-87816000D01*
X147730906Y-87822505D01*
X147594035Y-87873555D01*
X147594034Y-87873555D01*
X147477095Y-87961095D01*
X147389555Y-88078034D01*
X147389555Y-88078035D01*
X147338505Y-88214906D01*
X147332000Y-88275402D01*
X147332000Y-88520000D01*
X146345257Y-88520000D01*
X146454384Y-88410873D01*
X146467126Y-88400667D01*
X146466966Y-88400474D01*
X146473077Y-88395418D01*
X146473077Y-88395417D01*
X146473080Y-88395416D01*
X146521653Y-88343689D01*
X146524313Y-88340944D01*
X146544926Y-88320333D01*
X146547645Y-88316826D01*
X146555343Y-88307813D01*
X146586972Y-88274133D01*
X146597303Y-88255339D01*
X146608151Y-88238823D01*
X146621304Y-88221869D01*
X146639661Y-88179446D01*
X146644864Y-88168827D01*
X146667124Y-88128337D01*
X146672460Y-88107549D01*
X146678857Y-88088869D01*
X146687379Y-88069177D01*
X146694605Y-88023547D01*
X146697013Y-88011923D01*
X146708498Y-87967194D01*
X146708500Y-87967186D01*
X146708500Y-87945742D01*
X146710051Y-87926031D01*
X146713406Y-87904849D01*
X146709059Y-87858863D01*
X146708500Y-87847005D01*
X146708500Y-87276242D01*
X146728502Y-87208121D01*
X146782158Y-87161628D01*
X146852432Y-87151524D01*
X146885742Y-87161133D01*
X147037712Y-87228794D01*
X147224513Y-87268500D01*
X147415487Y-87268500D01*
X147602288Y-87228794D01*
X147776752Y-87151118D01*
X147931253Y-87038866D01*
X147949263Y-87018864D01*
X148059034Y-86896951D01*
X148059034Y-86896950D01*
X148059040Y-86896944D01*
X148099134Y-86827498D01*
X148150517Y-86778506D01*
X148208253Y-86764500D01*
X160711050Y-86764500D01*
X160779171Y-86784502D01*
G37*
%TD.AperFunction*%
%TA.AperFunction,Conductor*%
G36*
X135841884Y-77105915D02*
G01*
X135911442Y-77240156D01*
X136014638Y-77350652D01*
X136143819Y-77429209D01*
X136199419Y-77444787D01*
X135637110Y-78007097D01*
X135637110Y-78007100D01*
X135708498Y-78057086D01*
X135708502Y-78057088D01*
X135748049Y-78075530D01*
X135801334Y-78122447D01*
X135820794Y-78190724D01*
X135800252Y-78258684D01*
X135748049Y-78303918D01*
X135708252Y-78322475D01*
X135520703Y-78453799D01*
X135493594Y-78480908D01*
X135431281Y-78514932D01*
X135360466Y-78509866D01*
X135303631Y-78467318D01*
X135278821Y-78400798D01*
X135278500Y-78391811D01*
X135278500Y-77699480D01*
X135298502Y-77631359D01*
X135315405Y-77610384D01*
X135838097Y-77087691D01*
X135841884Y-77105915D01*
G37*
%TD.AperFunction*%
%TA.AperFunction,Conductor*%
G36*
X135487012Y-75352964D02*
G01*
X135493595Y-75359093D01*
X135520700Y-75386198D01*
X135708251Y-75517523D01*
X135747318Y-75535740D01*
X135748049Y-75536081D01*
X135801334Y-75582998D01*
X135820795Y-75651275D01*
X135800253Y-75719235D01*
X135748050Y-75764470D01*
X135708503Y-75782911D01*
X135708501Y-75782912D01*
X135637109Y-75832899D01*
X136197376Y-76393165D01*
X136076542Y-76445651D01*
X135959261Y-76541066D01*
X135872072Y-76664585D01*
X135840162Y-76754371D01*
X135315405Y-76229614D01*
X135281379Y-76167302D01*
X135278500Y-76140519D01*
X135278500Y-75448188D01*
X135298502Y-75380067D01*
X135352158Y-75333574D01*
X135422432Y-75323470D01*
X135487012Y-75352964D01*
G37*
%TD.AperFunction*%
%TA.AperFunction,Conductor*%
G36*
X141621455Y-70138746D02*
G01*
X141621456Y-70138746D01*
X141711167Y-70001434D01*
X141807545Y-69781714D01*
X141807548Y-69781707D01*
X141841356Y-69648204D01*
X141877468Y-69587078D01*
X141940895Y-69555179D01*
X142011499Y-69562636D01*
X142066864Y-69607080D01*
X142089411Y-69674401D01*
X142089500Y-69679135D01*
X142089500Y-71478826D01*
X142069498Y-71546947D01*
X142015842Y-71593440D01*
X141945568Y-71603544D01*
X141880988Y-71574050D01*
X141842604Y-71514324D01*
X141841356Y-71509757D01*
X141808023Y-71378129D01*
X141808022Y-71378128D01*
X141808022Y-71378126D01*
X141711608Y-71158323D01*
X141580329Y-70957387D01*
X141490516Y-70859824D01*
X141417774Y-70780804D01*
X141417772Y-70780802D01*
X141417769Y-70780799D01*
X141287123Y-70679113D01*
X141245653Y-70621488D01*
X141241919Y-70550590D01*
X141262172Y-70515100D01*
X141263179Y-70498888D01*
X140568154Y-69803863D01*
X140578092Y-69802435D01*
X140710970Y-69741752D01*
X140821369Y-69646090D01*
X140900345Y-69523201D01*
X140924305Y-69441596D01*
X141621455Y-70138746D01*
G37*
%TD.AperFunction*%
%TA.AperFunction,Conductor*%
G36*
X142011499Y-67024674D02*
G01*
X142066864Y-67069118D01*
X142089411Y-67136439D01*
X142089500Y-67141173D01*
X142089500Y-68940864D01*
X142069498Y-69008985D01*
X142015842Y-69055478D01*
X141945568Y-69065582D01*
X141880988Y-69036088D01*
X141842604Y-68976362D01*
X141841356Y-68971795D01*
X141807548Y-68838292D01*
X141807545Y-68838285D01*
X141711167Y-68618565D01*
X141621456Y-68481252D01*
X140924305Y-69178402D01*
X140900345Y-69096799D01*
X140821369Y-68973910D01*
X140710970Y-68878248D01*
X140578092Y-68817565D01*
X140568152Y-68816136D01*
X141263178Y-68121111D01*
X141262183Y-68105091D01*
X141245653Y-68082120D01*
X141241921Y-68011222D01*
X141277112Y-67949561D01*
X141287119Y-67940889D01*
X141417769Y-67839201D01*
X141580329Y-67662613D01*
X141711608Y-67461677D01*
X141808022Y-67241874D01*
X141809002Y-67238001D01*
X141841356Y-67110242D01*
X141877468Y-67049116D01*
X141940895Y-67017217D01*
X142011499Y-67024674D01*
G37*
%TD.AperFunction*%
%TD*%
M02*
