%TF.GenerationSoftware,KiCad,Pcbnew,7.0.10-7.0.10~ubuntu22.04.1*%
%TF.CreationDate,2024-01-29T18:04:04-05:00*%
%TF.ProjectId,CoreIO,436f7265-494f-42e6-9b69-6361645f7063,rev?*%
%TF.SameCoordinates,Original*%
%TF.FileFunction,Soldermask,Bot*%
%TF.FilePolarity,Negative*%
%FSLAX46Y46*%
G04 Gerber Fmt 4.6, Leading zero omitted, Abs format (unit mm)*
G04 Created by KiCad (PCBNEW 7.0.10-7.0.10~ubuntu22.04.1) date 2024-01-29 18:04:04*
%MOMM*%
%LPD*%
G01*
G04 APERTURE LIST*
G04 Aperture macros list*
%AMRoundRect*
0 Rectangle with rounded corners*
0 $1 Rounding radius*
0 $2 $3 $4 $5 $6 $7 $8 $9 X,Y pos of 4 corners*
0 Add a 4 corners polygon primitive as box body*
4,1,4,$2,$3,$4,$5,$6,$7,$8,$9,$2,$3,0*
0 Add four circle primitives for the rounded corners*
1,1,$1+$1,$2,$3*
1,1,$1+$1,$4,$5*
1,1,$1+$1,$6,$7*
1,1,$1+$1,$8,$9*
0 Add four rect primitives between the rounded corners*
20,1,$1+$1,$2,$3,$4,$5,0*
20,1,$1+$1,$4,$5,$6,$7,0*
20,1,$1+$1,$6,$7,$8,$9,0*
20,1,$1+$1,$8,$9,$2,$3,0*%
G04 Aperture macros list end*
%ADD10R,1.700000X1.700000*%
%ADD11O,1.700000X1.700000*%
%ADD12C,3.600000*%
%ADD13C,5.600000*%
%ADD14R,1.750000X1.750000*%
%ADD15C,1.750000*%
%ADD16R,1.800000X1.800000*%
%ADD17C,1.800000*%
%ADD18RoundRect,0.102000X0.754000X-0.754000X0.754000X0.754000X-0.754000X0.754000X-0.754000X-0.754000X0*%
%ADD19C,1.712000*%
%ADD20C,2.400000*%
%ADD21O,2.400000X2.400000*%
%ADD22R,1.000000X1.500000*%
G04 APERTURE END LIST*
D10*
%TO.C,J5*%
X174210000Y-100970000D03*
D11*
X174210000Y-103510000D03*
X174210000Y-106050000D03*
X174210000Y-108590000D03*
%TD*%
D12*
%TO.C,H4*%
X128821044Y-136276378D03*
D13*
X128821044Y-136276378D03*
%TD*%
D14*
%TO.C,J2*%
X128910400Y-72665000D03*
D15*
X126410400Y-72665000D03*
%TD*%
D16*
%TO.C,S1*%
X151023176Y-81059176D03*
D17*
X145943176Y-81059176D03*
X140863176Y-81059176D03*
%TD*%
D14*
%TO.C,J3*%
X168255000Y-72665000D03*
D15*
X165755000Y-72665000D03*
%TD*%
D16*
%TO.C,S2*%
X151023058Y-70888941D03*
D17*
X145943058Y-70888941D03*
X140863058Y-70888941D03*
%TD*%
D12*
%TO.C,H3*%
X166909025Y-53739054D03*
D13*
X166909025Y-53739054D03*
%TD*%
D10*
%TO.C,Pyro2*%
X174223940Y-121061705D03*
D11*
X174223940Y-123601705D03*
X174223940Y-126141705D03*
X174223940Y-128681705D03*
X174223940Y-131221705D03*
%TD*%
D14*
%TO.C,J4*%
X165755000Y-117348410D03*
D15*
X168255000Y-117348410D03*
%TD*%
D14*
%TO.C,J1*%
X126410400Y-117348410D03*
D15*
X128910400Y-117348410D03*
X131410400Y-117348410D03*
X133910400Y-117348410D03*
%TD*%
D18*
%TO.C,U1*%
X133350000Y-104140000D03*
D19*
X135890000Y-104140000D03*
X138430000Y-104140000D03*
X140970000Y-104140000D03*
X143510000Y-104140000D03*
X146050000Y-104140000D03*
X148590000Y-104140000D03*
X151130000Y-104140000D03*
X133350000Y-91440000D03*
X135890000Y-91440000D03*
X138430000Y-91440000D03*
X140970000Y-91440000D03*
X143510000Y-91440000D03*
X146050000Y-91440000D03*
X148590000Y-91440000D03*
X151130000Y-91440000D03*
X151130000Y-96520000D03*
X151130000Y-93980000D03*
%TD*%
D12*
%TO.C,H2*%
X166902698Y-136268782D03*
D13*
X166902698Y-136268782D03*
%TD*%
D16*
%TO.C,S3*%
X151059176Y-60762470D03*
D17*
X145979176Y-60762470D03*
X140899176Y-60762470D03*
%TD*%
D12*
%TO.C,H1*%
X128816000Y-53739054D03*
D13*
X128816000Y-53739054D03*
%TD*%
D10*
%TO.C,Stepper2*%
X174223940Y-112241705D03*
D11*
X174223940Y-114781705D03*
X174223940Y-117321705D03*
%TD*%
D14*
%TO.C,BT1*%
X158095000Y-95610000D03*
D15*
X155595000Y-95610000D03*
%TD*%
D20*
%TO.C,R4*%
X165658800Y-113080800D03*
D21*
X165658800Y-97840800D03*
%TD*%
D22*
%TO.C,JP3*%
X144810000Y-63500000D03*
X143510000Y-63500000D03*
X142210000Y-63500000D03*
%TD*%
%TO.C,JP2*%
X144840000Y-73660000D03*
X143540000Y-73660000D03*
X142240000Y-73660000D03*
%TD*%
D20*
%TO.C,R3*%
X169113200Y-76606400D03*
D21*
X169113200Y-91846400D03*
%TD*%
D22*
%TO.C,JP1*%
X144840000Y-83820000D03*
X143540000Y-83820000D03*
X142240000Y-83820000D03*
%TD*%
M02*
