M48
; DRILL file {KiCad 7.0.10-7.0.10~ubuntu22.04.1} date Thu 30 Jan 2025 04:33:14 PM EST
; FORMAT={-:-/ absolute / inch / decimal}
; #@! TF.CreationDate,2025-01-30T16:33:14-05:00
; #@! TF.GenerationSoftware,Kicad,Pcbnew,7.0.10-7.0.10~ubuntu22.04.1
; #@! TF.FileFunction,Plated,1,2,PTH
FMAT,2
INCH
; #@! TA.AperFunction,Plated,PTH,ViaDrill
T1C0.0157
; #@! TA.AperFunction,Plated,PTH,ComponentDrill
T2C0.0394
; #@! TA.AperFunction,Plated,PTH,ViaDrill
T3C0.0472
; #@! TA.AperFunction,Plated,PTH,ComponentDrill
T4C0.0472
; #@! TA.AperFunction,Plated,PTH,ViaDrill
T5C0.0591
; #@! TA.AperFunction,Plated,PTH,ComponentDrill
T6C0.1260
%
G90
G05
T1
X6.225Y-4.71
X6.225Y-4.837
X6.466Y-4.773
X6.484Y-3.301
X6.5287Y-4.815
X6.5335Y-4.8638
X6.547Y-4.536
X6.5583Y-3.322
X6.577Y-4.292
X6.5791Y-3.2953
X6.5886Y-4.8343
X6.602Y-3.3228
X6.6697Y-4.9559
X6.6705Y-4.8087
X6.7327Y-4.7988
X6.7671Y-4.9569
X6.781Y-3.2
X6.816Y-3.67
T2
X4.9768Y-2.8608
X4.9768Y-4.62
X5.0752Y-2.8608
X5.0752Y-4.62
X5.1736Y-4.62
X5.25Y-3.6
X5.25Y-4.1
X5.2721Y-4.62
X5.35Y-3.6
X5.35Y-4.1
X5.45Y-3.6
X5.45Y-4.1
X5.55Y-3.6
X5.55Y-4.1
X5.65Y-3.6
X5.65Y-4.1
X5.75Y-3.6
X5.75Y-4.1
X5.85Y-3.6
X5.85Y-4.1
X5.95Y-3.6
X5.95Y-3.7
X5.95Y-3.8
X5.95Y-4.1
X6.1258Y-3.7642
X6.2242Y-3.7642
X6.5258Y-2.8608
X6.5258Y-4.62
X6.6242Y-2.8608
X6.6242Y-4.62
X6.8587Y-3.9752
X6.8587Y-4.0752
X6.8587Y-4.1752
X6.8587Y-4.2752
X6.8592Y-4.419
X6.8592Y-4.519
X6.8592Y-4.619
X6.8592Y-4.7662
X6.8592Y-4.8662
X6.8592Y-4.9662
X6.8592Y-5.0662
X6.8592Y-5.1662
T3
X5.65Y-2.775
T4
X5.5458Y-2.7909
X5.5458Y-3.1913
X5.5472Y-2.3922
X5.7458Y-2.7909
X5.7458Y-3.1913
X5.7472Y-2.3922
X5.9458Y-2.7909
X5.9458Y-3.1913
X5.9472Y-2.3922
X6.522Y-3.852
X6.522Y-4.452
X6.658Y-3.016
X6.658Y-3.616
T5
X5.65Y-3.125
T6
X5.0715Y-2.1157
X5.0717Y-5.3652
X6.571Y-5.3649
X6.5712Y-2.1157
M30
