%TF.GenerationSoftware,KiCad,Pcbnew,7.0.10-7.0.10~ubuntu22.04.1*%
%TF.CreationDate,2025-01-30T16:33:20-05:00*%
%TF.ProjectId,CoreIO,436f7265-494f-42e6-9b69-6361645f7063,rev?*%
%TF.SameCoordinates,Original*%
%TF.FileFunction,Soldermask,Top*%
%TF.FilePolarity,Negative*%
%FSLAX46Y46*%
G04 Gerber Fmt 4.6, Leading zero omitted, Abs format (unit mm)*
G04 Created by KiCad (PCBNEW 7.0.10-7.0.10~ubuntu22.04.1) date 2025-01-30 16:33:20*
%MOMM*%
%LPD*%
G01*
G04 APERTURE LIST*
G04 Aperture macros list*
%AMRoundRect*
0 Rectangle with rounded corners*
0 $1 Rounding radius*
0 $2 $3 $4 $5 $6 $7 $8 $9 X,Y pos of 4 corners*
0 Add a 4 corners polygon primitive as box body*
4,1,4,$2,$3,$4,$5,$6,$7,$8,$9,$2,$3,0*
0 Add four circle primitives for the rounded corners*
1,1,$1+$1,$2,$3*
1,1,$1+$1,$4,$5*
1,1,$1+$1,$6,$7*
1,1,$1+$1,$8,$9*
0 Add four rect primitives between the rounded corners*
20,1,$1+$1,$2,$3,$4,$5,0*
20,1,$1+$1,$4,$5,$6,$7,0*
20,1,$1+$1,$6,$7,$8,$9,0*
20,1,$1+$1,$8,$9,$2,$3,0*%
G04 Aperture macros list end*
%ADD10R,1.700000X1.700000*%
%ADD11O,1.700000X1.700000*%
%ADD12RoundRect,0.088500X0.206500X-0.516500X0.206500X0.516500X-0.206500X0.516500X-0.206500X-0.516500X0*%
%ADD13C,3.600000*%
%ADD14C,5.600000*%
%ADD15R,1.800000X1.700000*%
%ADD16R,1.750000X1.750000*%
%ADD17C,1.750000*%
%ADD18R,1.800000X1.800000*%
%ADD19C,1.800000*%
%ADD20RoundRect,0.200000X-0.275000X0.200000X-0.275000X-0.200000X0.275000X-0.200000X0.275000X0.200000X0*%
%ADD21RoundRect,0.218750X0.218750X0.256250X-0.218750X0.256250X-0.218750X-0.256250X0.218750X-0.256250X0*%
%ADD22RoundRect,0.250000X0.450000X0.425000X-0.450000X0.425000X-0.450000X-0.425000X0.450000X-0.425000X0*%
%ADD23RoundRect,0.200000X-0.200000X-0.275000X0.200000X-0.275000X0.200000X0.275000X-0.200000X0.275000X0*%
%ADD24RoundRect,0.088500X-0.206500X0.516500X-0.206500X-0.516500X0.206500X-0.516500X0.206500X0.516500X0*%
%ADD25RoundRect,0.102000X0.754000X-0.754000X0.754000X0.754000X-0.754000X0.754000X-0.754000X-0.754000X0*%
%ADD26C,1.712000*%
%ADD27RoundRect,0.200000X0.275000X-0.200000X0.275000X0.200000X-0.275000X0.200000X-0.275000X-0.200000X0*%
%ADD28R,2.000000X1.500000*%
%ADD29R,2.000000X3.800000*%
%ADD30RoundRect,0.200000X0.200000X0.275000X-0.200000X0.275000X-0.200000X-0.275000X0.200000X-0.275000X0*%
%ADD31C,2.400000*%
%ADD32O,2.400000X2.400000*%
G04 APERTURE END LIST*
D10*
%TO.C,J5*%
X174210000Y-100970000D03*
D11*
X174210000Y-103510000D03*
X174210000Y-106050000D03*
X174210000Y-108590000D03*
%TD*%
D12*
%TO.C,Q2*%
X164785000Y-79172500D03*
X166685000Y-79172500D03*
X165735000Y-76662500D03*
%TD*%
D13*
%TO.C,H4*%
X128821044Y-136276378D03*
D14*
X128821044Y-136276378D03*
%TD*%
D15*
%TO.C,D2*%
X158750000Y-91440000D03*
X154650000Y-91440000D03*
%TD*%
D16*
%TO.C,J2*%
X128910400Y-72665000D03*
D17*
X126410400Y-72665000D03*
%TD*%
D18*
%TO.C,S1*%
X151023176Y-81059176D03*
D19*
X145943176Y-81059176D03*
X140863176Y-81059176D03*
%TD*%
D20*
%TO.C,R6*%
X164719000Y-80963000D03*
X164719000Y-82613000D03*
%TD*%
%TO.C,R8*%
X172237400Y-78550000D03*
X172237400Y-80200000D03*
%TD*%
D21*
%TO.C,D1*%
X174675900Y-96215200D03*
X173100900Y-96215200D03*
%TD*%
D22*
%TO.C,C1*%
X169164000Y-94691200D03*
X166464000Y-94691200D03*
%TD*%
D16*
%TO.C,J3*%
X168255000Y-72665000D03*
D17*
X165755000Y-72665000D03*
%TD*%
D18*
%TO.C,S2*%
X151023058Y-70888941D03*
D19*
X145943058Y-70888941D03*
X140863058Y-70888941D03*
%TD*%
D13*
%TO.C,H3*%
X166909025Y-53739054D03*
D14*
X166909025Y-53739054D03*
%TD*%
D20*
%TO.C,R5*%
X159385000Y-119571000D03*
X159385000Y-121221000D03*
%TD*%
D10*
%TO.C,Pyro2*%
X174223940Y-121061705D03*
D11*
X174223940Y-123601705D03*
X174223940Y-126141705D03*
X174223940Y-128681705D03*
X174223940Y-131221705D03*
%TD*%
D16*
%TO.C,J4*%
X165755000Y-117348410D03*
D17*
X168255000Y-117348410D03*
%TD*%
D20*
%TO.C,R10*%
X161544000Y-122822200D03*
X161544000Y-124472200D03*
%TD*%
D23*
%TO.C,R1*%
X173063400Y-94437200D03*
X174713400Y-94437200D03*
%TD*%
D24*
%TO.C,Q1*%
X169860000Y-110794100D03*
X167960000Y-110794100D03*
X168910000Y-113304100D03*
%TD*%
D16*
%TO.C,J1*%
X126410400Y-117348410D03*
D17*
X128910400Y-117348410D03*
X131410400Y-117348410D03*
X133910400Y-117348410D03*
%TD*%
D25*
%TO.C,U1*%
X133350000Y-104140000D03*
D26*
X135890000Y-104140000D03*
X138430000Y-104140000D03*
X140970000Y-104140000D03*
X143510000Y-104140000D03*
X146050000Y-104140000D03*
X148590000Y-104140000D03*
X151130000Y-104140000D03*
X133350000Y-91440000D03*
X135890000Y-91440000D03*
X138430000Y-91440000D03*
X140970000Y-91440000D03*
X143510000Y-91440000D03*
X146050000Y-91440000D03*
X148590000Y-91440000D03*
X151130000Y-91440000D03*
X151130000Y-96520000D03*
X151130000Y-93980000D03*
%TD*%
D27*
%TO.C,R11*%
X159410400Y-124523000D03*
X159410400Y-122873000D03*
%TD*%
D13*
%TO.C,H2*%
X166902698Y-136268782D03*
D14*
X166902698Y-136268782D03*
%TD*%
D20*
%TO.C,R7*%
X172237400Y-75400400D03*
X172237400Y-77050400D03*
%TD*%
D18*
%TO.C,S3*%
X151059176Y-60762470D03*
D19*
X145979176Y-60762470D03*
X140899176Y-60762470D03*
%TD*%
D27*
%TO.C,R2*%
X161544000Y-121221000D03*
X161544000Y-119571000D03*
%TD*%
D22*
%TO.C,C2*%
X169193200Y-100838000D03*
X166493200Y-100838000D03*
%TD*%
D28*
%TO.C,U2*%
X167150000Y-84060000D03*
X167150000Y-86360000D03*
D29*
X173450000Y-86360000D03*
D28*
X167150000Y-88660000D03*
%TD*%
D13*
%TO.C,H1*%
X128816000Y-53739054D03*
D14*
X128816000Y-53739054D03*
%TD*%
D10*
%TO.C,Stepper2*%
X174223940Y-112241705D03*
D11*
X174223940Y-114781705D03*
X174223940Y-117321705D03*
%TD*%
D30*
%TO.C,R9*%
X169912800Y-108610400D03*
X168262800Y-108610400D03*
%TD*%
D16*
%TO.C,BT1*%
X158095000Y-95610000D03*
D17*
X155595000Y-95610000D03*
%TD*%
D31*
%TO.C,R4*%
X165658800Y-113080800D03*
D32*
X165658800Y-97840800D03*
%TD*%
D31*
%TO.C,R3*%
X169113200Y-76606400D03*
D32*
X169113200Y-91846400D03*
%TD*%
M02*
