%TF.GenerationSoftware,KiCad,Pcbnew,7.0.10-7.0.10~ubuntu22.04.1*%
%TF.CreationDate,2024-01-29T18:04:03-05:00*%
%TF.ProjectId,CoreIO,436f7265-494f-42e6-9b69-6361645f7063,rev?*%
%TF.SameCoordinates,Original*%
%TF.FileFunction,Copper,L2,Bot*%
%TF.FilePolarity,Positive*%
%FSLAX46Y46*%
G04 Gerber Fmt 4.6, Leading zero omitted, Abs format (unit mm)*
G04 Created by KiCad (PCBNEW 7.0.10-7.0.10~ubuntu22.04.1) date 2024-01-29 18:04:03*
%MOMM*%
%LPD*%
G01*
G04 APERTURE LIST*
%TA.AperFunction,ComponentPad*%
%ADD10R,1.700000X1.700000*%
%TD*%
%TA.AperFunction,ComponentPad*%
%ADD11O,1.700000X1.700000*%
%TD*%
%TA.AperFunction,ComponentPad*%
%ADD12C,3.600000*%
%TD*%
%TA.AperFunction,ConnectorPad*%
%ADD13C,5.600000*%
%TD*%
%TA.AperFunction,ComponentPad*%
%ADD14R,1.750000X1.750000*%
%TD*%
%TA.AperFunction,ComponentPad*%
%ADD15C,1.750000*%
%TD*%
%TA.AperFunction,ComponentPad*%
%ADD16R,1.800000X1.800000*%
%TD*%
%TA.AperFunction,ComponentPad*%
%ADD17C,1.800000*%
%TD*%
%TA.AperFunction,ComponentPad*%
%ADD18R,1.508000X1.508000*%
%TD*%
%TA.AperFunction,ComponentPad*%
%ADD19C,1.508000*%
%TD*%
%TA.AperFunction,ComponentPad*%
%ADD20C,2.400000*%
%TD*%
%TA.AperFunction,ComponentPad*%
%ADD21O,2.400000X2.400000*%
%TD*%
%TA.AperFunction,SMDPad,CuDef*%
%ADD22R,1.000000X1.500000*%
%TD*%
%TA.AperFunction,ViaPad*%
%ADD23C,0.800000*%
%TD*%
%TA.AperFunction,ViaPad*%
%ADD24C,2.500000*%
%TD*%
%TA.AperFunction,ViaPad*%
%ADD25C,2.300000*%
%TD*%
%TA.AperFunction,Conductor*%
%ADD26C,0.250000*%
%TD*%
%TA.AperFunction,Conductor*%
%ADD27C,0.508000*%
%TD*%
%TA.AperFunction,Conductor*%
%ADD28C,2.300000*%
%TD*%
%TA.AperFunction,Conductor*%
%ADD29C,1.000000*%
%TD*%
%TA.AperFunction,Conductor*%
%ADD30C,2.500000*%
%TD*%
%TA.AperFunction,Conductor*%
%ADD31C,1.500000*%
%TD*%
%TA.AperFunction,Conductor*%
%ADD32C,2.000000*%
%TD*%
%TA.AperFunction,Conductor*%
%ADD33C,1.200000*%
%TD*%
G04 APERTURE END LIST*
D10*
%TO.P,J5,1,Pin_1*%
%TO.N,/5V*%
X174210000Y-100970000D03*
D11*
%TO.P,J5,2,Pin_2*%
%TO.N,/V_BATT*%
X174210000Y-103510000D03*
%TO.P,J5,3,Pin_3*%
%TO.N,/3.3V*%
X174210000Y-106050000D03*
%TO.P,J5,4,Pin_4*%
%TO.N,GND*%
X174210000Y-108590000D03*
%TD*%
D12*
%TO.P,H4,1*%
%TO.N,N/C*%
X128821044Y-136276378D03*
D13*
X128821044Y-136276378D03*
%TD*%
D14*
%TO.P,J2,1,Pin_1*%
%TO.N,Net-(J2-Pin_1)*%
X128910400Y-72665000D03*
D15*
%TO.P,J2,2,Pin_2*%
%TO.N,Net-(J2-Pin_2)*%
X126410400Y-72665000D03*
%TD*%
D16*
%TO.P,S1,1*%
%TO.N,/SWITCH1*%
X151023176Y-81059176D03*
D17*
%TO.P,S1,2*%
%TO.N,Net-(JP1-A)*%
X145943176Y-81059176D03*
%TO.P,S1,3*%
%TO.N,Net-(JP1-B)*%
X140863176Y-81059176D03*
%TD*%
D14*
%TO.P,J3,1,Pin_1*%
%TO.N,/V_IGNITOR*%
X168255000Y-72665000D03*
D15*
%TO.P,J3,2,Pin_2*%
%TO.N,Net-(J3-Pin_2)*%
X165755000Y-72665000D03*
%TD*%
D16*
%TO.P,S2,1*%
%TO.N,/V_BATT*%
X151023058Y-70888941D03*
D17*
%TO.P,S2,2*%
%TO.N,Net-(JP2-A)*%
X145943058Y-70888941D03*
%TO.P,S2,3*%
%TO.N,Net-(JP2-B)*%
X140863058Y-70888941D03*
%TD*%
D12*
%TO.P,H3,1*%
%TO.N,N/C*%
X166909025Y-53739054D03*
D13*
X166909025Y-53739054D03*
%TD*%
D10*
%TO.P,Pyro2,1,Pin_1*%
%TO.N,/CONT 2*%
X174223940Y-121061705D03*
D11*
%TO.P,Pyro2,2,Pin_2*%
%TO.N,/CONT 1*%
X174223940Y-123601705D03*
%TO.P,Pyro2,3,Pin_3*%
%TO.N,/ARM*%
X174223940Y-126141705D03*
%TO.P,Pyro2,4,Pin_4*%
%TO.N,/PYRO 1*%
X174223940Y-128681705D03*
%TO.P,Pyro2,5,Pin_5*%
%TO.N,/PYRO 2*%
X174223940Y-131221705D03*
%TD*%
D14*
%TO.P,J4,1,Pin_1*%
%TO.N,/V_IGNITOR*%
X165755000Y-117348410D03*
D15*
%TO.P,J4,2,Pin_2*%
%TO.N,Net-(J4-Pin_2)*%
X168255000Y-117348410D03*
%TD*%
D14*
%TO.P,J1,1,Pin_1*%
%TO.N,Net-(J1-Pin_1)*%
X126410400Y-117348410D03*
D15*
%TO.P,J1,2,Pin_2*%
%TO.N,Net-(J1-Pin_2)*%
X128910400Y-117348410D03*
%TO.P,J1,3,Pin_3*%
%TO.N,Net-(J1-Pin_3)*%
X131410400Y-117348410D03*
%TO.P,J1,4,Pin_4*%
%TO.N,Net-(J1-Pin_4)*%
X133910400Y-117348410D03*
%TD*%
D18*
%TO.P,U1,1,GND*%
%TO.N,GND*%
X133350000Y-104140000D03*
D19*
%TO.P,U1,2,VIO*%
%TO.N,/3.3V*%
X135890000Y-104140000D03*
%TO.P,U1,3,M1B*%
%TO.N,Net-(J1-Pin_1)*%
X138430000Y-104140000D03*
%TO.P,U1,4,M1A*%
%TO.N,Net-(J1-Pin_2)*%
X140970000Y-104140000D03*
%TO.P,U1,5,M2A*%
%TO.N,Net-(J1-Pin_3)*%
X143510000Y-104140000D03*
%TO.P,U1,6,M2B*%
%TO.N,Net-(J1-Pin_4)*%
X146050000Y-104140000D03*
%TO.P,U1,7,GND*%
%TO.N,GND*%
X148590000Y-104140000D03*
%TO.P,U1,8,VM*%
%TO.N,/V_BATT*%
X151130000Y-104140000D03*
%TO.P,U1,9,DIR*%
%TO.N,/DIR*%
X133350000Y-91440000D03*
%TO.P,U1,10,STEP*%
%TO.N,/STEP*%
X135890000Y-91440000D03*
%TO.P,U1,11,PDN*%
%TO.N,unconnected-(U1-PDN-Pad11)*%
X138430000Y-91440000D03*
%TO.P,U1,12,UART*%
%TO.N,/UART*%
X140970000Y-91440000D03*
%TO.P,U1,13,SPRD*%
%TO.N,unconnected-(U1-SPRD-Pad13)*%
X143510000Y-91440000D03*
%TO.P,U1,14,MS2*%
%TO.N,unconnected-(U1-MS2-Pad14)*%
X146050000Y-91440000D03*
%TO.P,U1,15,MS1*%
%TO.N,unconnected-(U1-MS1-Pad15)*%
X148590000Y-91440000D03*
%TO.P,U1,16,~{EN}*%
%TO.N,GND*%
X151130000Y-91440000D03*
%TO.P,U1,17,INDEX*%
%TO.N,unconnected-(U1-INDEX-Pad17)*%
X151130000Y-96520000D03*
%TO.P,U1,18,DIAG*%
%TO.N,unconnected-(U1-DIAG-Pad18)*%
X151130000Y-93980000D03*
%TD*%
D12*
%TO.P,H2,1*%
%TO.N,N/C*%
X166902698Y-136268782D03*
D13*
X166902698Y-136268782D03*
%TD*%
D16*
%TO.P,S3,1*%
%TO.N,Net-(J2-Pin_2)*%
X151059176Y-60762470D03*
D17*
%TO.P,S3,2*%
%TO.N,Net-(JP3-A)*%
X145979176Y-60762470D03*
%TO.P,S3,3*%
%TO.N,Net-(JP3-B)*%
X140899176Y-60762470D03*
%TD*%
D12*
%TO.P,H1,1,1*%
%TO.N,GND*%
X128816000Y-53739054D03*
D13*
X128816000Y-53739054D03*
%TD*%
D10*
%TO.P,Stepper2,1,Pin_1*%
%TO.N,/UART*%
X174223940Y-112241705D03*
D11*
%TO.P,Stepper2,2,Pin_2*%
%TO.N,/DIR*%
X174223940Y-114781705D03*
%TO.P,Stepper2,3,Pin_3*%
%TO.N,/STEP*%
X174223940Y-117321705D03*
%TD*%
D14*
%TO.P,BT1,1,+*%
%TO.N,Net-(BT1-+)*%
X158095000Y-95610000D03*
D15*
%TO.P,BT1,2,-*%
%TO.N,GND*%
X155595000Y-95610000D03*
%TD*%
D20*
%TO.P,R4,1*%
%TO.N,Net-(Q1-Pad2)*%
X165658800Y-113080800D03*
D21*
%TO.P,R4,2*%
%TO.N,GND*%
X165658800Y-97840800D03*
%TD*%
D22*
%TO.P,JP3,1,A*%
%TO.N,Net-(JP3-A)*%
X144810000Y-63500000D03*
%TO.P,JP3,2,C*%
%TO.N,Net-(J2-Pin_1)*%
X143510000Y-63500000D03*
%TO.P,JP3,3,B*%
%TO.N,Net-(JP3-B)*%
X142210000Y-63500000D03*
%TD*%
%TO.P,JP2,1,A*%
%TO.N,Net-(JP2-A)*%
X144840000Y-73660000D03*
%TO.P,JP2,2,C*%
%TO.N,/V_IGNITOR*%
X143540000Y-73660000D03*
%TO.P,JP2,3,B*%
%TO.N,Net-(JP2-B)*%
X142240000Y-73660000D03*
%TD*%
D20*
%TO.P,R3,1*%
%TO.N,Net-(Q2-Pad2)*%
X169113200Y-76606400D03*
D21*
%TO.P,R3,2*%
%TO.N,GND*%
X169113200Y-91846400D03*
%TD*%
D22*
%TO.P,JP1,1,A*%
%TO.N,Net-(JP1-A)*%
X144840000Y-83820000D03*
%TO.P,JP1,2,C*%
%TO.N,/V_BATT*%
X143540000Y-83820000D03*
%TO.P,JP1,3,B*%
%TO.N,Net-(JP1-B)*%
X142240000Y-83820000D03*
%TD*%
D23*
%TO.N,GND*%
X167110000Y-83700000D03*
X167690000Y-84400000D03*
X166580000Y-84380000D03*
%TO.N,/ARM*%
X169410000Y-125880000D03*
X171884281Y-125905143D03*
X164236400Y-121234200D03*
X165830000Y-122300000D03*
%TO.N,/CONT 2*%
X169430000Y-122140000D03*
X171010000Y-121890000D03*
X167350000Y-122790000D03*
X165950000Y-123540000D03*
D24*
%TO.N,/V_BATT*%
X143510000Y-79375000D03*
D23*
%TO.N,GND*%
X172237400Y-81280000D03*
X173126400Y-93218000D03*
X158115000Y-119634000D03*
X167055800Y-109016800D03*
X158115000Y-122859800D03*
X164693600Y-83845400D03*
D25*
%TO.N,/V_IGNITOR*%
X143510000Y-70485000D03*
D23*
%TO.N,/DIR*%
X166293800Y-115214400D03*
%TD*%
D26*
%TO.N,/ARM*%
X164236400Y-121234200D02*
X164408895Y-121061705D01*
X171805143Y-125880000D02*
X171780000Y-125880000D01*
X169410000Y-125880000D02*
X171754857Y-125880000D01*
X164734200Y-121234200D02*
X165800000Y-122300000D01*
X171754857Y-125880000D02*
X171884281Y-125905143D01*
X164236400Y-121234200D02*
X164734200Y-121234200D01*
X165830000Y-122330000D02*
X165740000Y-122240000D01*
X165800000Y-122300000D02*
X165830000Y-122300000D01*
X171884281Y-125905143D02*
X171805143Y-125880000D01*
X165830000Y-122300000D02*
X165830000Y-122330000D01*
%TO.N,/CONT 2*%
X165930000Y-123540000D02*
X165940000Y-123530000D01*
X171010000Y-121890000D02*
X170810000Y-122090000D01*
X169470000Y-122090000D02*
X169520000Y-122090000D01*
X165950000Y-123540000D02*
X165930000Y-123540000D01*
X167350000Y-122790000D02*
X166680000Y-122790000D01*
X165950000Y-123520000D02*
X165950000Y-123540000D01*
X169430000Y-122140000D02*
X169470000Y-122090000D01*
X169570000Y-122090000D02*
X169430000Y-122140000D01*
X170810000Y-122090000D02*
X169570000Y-122090000D01*
X166680000Y-122790000D02*
X165950000Y-123520000D01*
D27*
%TO.N,/V_BATT*%
X143540000Y-81945000D02*
X143510000Y-81915000D01*
D28*
X143510000Y-81620000D02*
X143540000Y-81620000D01*
X143510000Y-79375000D02*
X143510000Y-81620000D01*
D29*
X143540000Y-83820000D02*
X143540000Y-81945000D01*
D30*
%TO.N,GND*%
X155595000Y-97770000D02*
X155575000Y-97790000D01*
X155595000Y-95610000D02*
X155595000Y-97770000D01*
X148590000Y-104140000D02*
X148590000Y-101600000D01*
X133350000Y-104140000D02*
X133350000Y-101600000D01*
D28*
%TO.N,/V_IGNITOR*%
X143510000Y-70485000D02*
X143510000Y-71460000D01*
D29*
X143540000Y-71490000D02*
X143540000Y-73660000D01*
D27*
X143510000Y-71460000D02*
X143540000Y-71490000D01*
D31*
%TO.N,Net-(J1-Pin_1)*%
X126410400Y-116159600D02*
X126410400Y-117348410D01*
X138430000Y-104140000D02*
X126410400Y-116159600D01*
%TO.N,Net-(J1-Pin_2)*%
X128910400Y-116199600D02*
X128910400Y-117348410D01*
X140970000Y-104140000D02*
X128910400Y-116199600D01*
%TO.N,Net-(J1-Pin_3)*%
X143510000Y-104140000D02*
X131410400Y-116239600D01*
X131410400Y-116239600D02*
X131410400Y-117348410D01*
%TO.N,Net-(J1-Pin_4)*%
X146050000Y-104140000D02*
X146050000Y-104241600D01*
X146050000Y-104241600D02*
X133910400Y-116381200D01*
X133910400Y-116381200D02*
X133910400Y-117348410D01*
D27*
%TO.N,Net-(J2-Pin_1)*%
X143164000Y-64704000D02*
X136871400Y-64704000D01*
D26*
X143510000Y-63500000D02*
X143510000Y-64100000D01*
D27*
X143510000Y-63500000D02*
X143510000Y-64358000D01*
X143510000Y-64358000D02*
X143164000Y-64704000D01*
X136871400Y-64704000D02*
X128910400Y-72665000D01*
D32*
%TO.N,Net-(JP1-A)*%
X145943176Y-82716824D02*
X145943176Y-81059176D01*
D33*
X144840000Y-83820000D02*
X145943176Y-82716824D01*
D32*
%TO.N,Net-(JP1-B)*%
X140863176Y-82443176D02*
X140863176Y-81059176D01*
D33*
X142240000Y-83820000D02*
X140863176Y-82443176D01*
%TO.N,Net-(JP2-A)*%
X144840000Y-73660000D02*
X145943058Y-72556942D01*
D32*
X145943058Y-72556942D02*
X145943058Y-70888941D01*
%TO.N,Net-(JP2-B)*%
X140863058Y-72283058D02*
X140863058Y-70888941D01*
D33*
X142240000Y-73660000D02*
X140863058Y-72283058D01*
D27*
%TO.N,Net-(JP3-A)*%
X144810000Y-63500000D02*
X144810000Y-61931646D01*
X144810000Y-61931646D02*
X145979176Y-60762470D01*
%TO.N,Net-(JP3-B)*%
X142210000Y-62073294D02*
X140899176Y-60762470D01*
X142210000Y-63500000D02*
X142210000Y-62073294D01*
D26*
%TO.N,/DIR*%
X166293800Y-115214400D02*
X166726495Y-114781705D01*
X166726495Y-114781705D02*
X174223940Y-114781705D01*
%TD*%
%TA.AperFunction,Conductor*%
%TO.N,GND*%
G36*
X127310880Y-50577207D02*
G01*
X127357373Y-50630863D01*
X127367477Y-50701137D01*
X127337983Y-50765717D01*
X127295665Y-50797560D01*
X127264223Y-50812106D01*
X126956867Y-50997036D01*
X126956861Y-50997040D01*
X126671299Y-51214121D01*
X126660502Y-51224347D01*
X127875204Y-52439049D01*
X127872635Y-52440624D01*
X127681130Y-52604184D01*
X127517570Y-52795689D01*
X127515995Y-52798258D01*
X126304168Y-51586431D01*
X126178654Y-51734199D01*
X125977352Y-52031097D01*
X125977350Y-52031101D01*
X125809330Y-52348023D01*
X125809326Y-52348032D01*
X125676559Y-52681252D01*
X125580592Y-53026891D01*
X125522561Y-53380870D01*
X125503141Y-53739050D01*
X125503141Y-53739057D01*
X125522561Y-54097237D01*
X125580592Y-54451216D01*
X125676559Y-54796855D01*
X125809326Y-55130075D01*
X125809330Y-55130084D01*
X125977350Y-55447006D01*
X125977352Y-55447010D01*
X126178654Y-55743908D01*
X126304167Y-55891675D01*
X127515994Y-54679848D01*
X127517570Y-54682419D01*
X127681130Y-54873924D01*
X127872635Y-55037484D01*
X127875203Y-55039058D01*
X126660502Y-56253759D01*
X126660502Y-56253760D01*
X126671297Y-56263986D01*
X126671300Y-56263988D01*
X126956849Y-56481059D01*
X126956867Y-56481071D01*
X127264227Y-56666003D01*
X127264234Y-56666007D01*
X127589766Y-56816615D01*
X127589785Y-56816623D01*
X127929706Y-56931155D01*
X127929723Y-56931160D01*
X128280022Y-57008267D01*
X128280050Y-57008272D01*
X128636637Y-57047053D01*
X128636653Y-57047054D01*
X128995347Y-57047054D01*
X128995362Y-57047053D01*
X129351949Y-57008272D01*
X129351977Y-57008267D01*
X129702276Y-56931160D01*
X129702293Y-56931155D01*
X130042214Y-56816623D01*
X130042233Y-56816615D01*
X130367765Y-56666007D01*
X130367772Y-56666003D01*
X130675132Y-56481071D01*
X130675138Y-56481067D01*
X130960701Y-56263986D01*
X130971495Y-56253760D01*
X130971495Y-56253758D01*
X129756795Y-55039058D01*
X129759365Y-55037484D01*
X129950870Y-54873924D01*
X130114430Y-54682419D01*
X130116004Y-54679849D01*
X131327830Y-55891675D01*
X131327831Y-55891675D01*
X131453340Y-55743916D01*
X131453342Y-55743912D01*
X131654647Y-55447010D01*
X131654649Y-55447006D01*
X131822669Y-55130084D01*
X131822673Y-55130075D01*
X131955440Y-54796855D01*
X132051407Y-54451216D01*
X132109438Y-54097237D01*
X132128859Y-53739057D01*
X132128859Y-53739050D01*
X132109438Y-53380870D01*
X132051407Y-53026891D01*
X131955440Y-52681252D01*
X131822673Y-52348032D01*
X131822669Y-52348023D01*
X131654649Y-52031101D01*
X131654647Y-52031097D01*
X131453348Y-51734204D01*
X131327830Y-51586432D01*
X130116004Y-52798258D01*
X130114430Y-52795689D01*
X129950870Y-52604184D01*
X129759365Y-52440624D01*
X129756795Y-52439049D01*
X130971496Y-51224347D01*
X130971496Y-51224346D01*
X130960702Y-51214121D01*
X130960699Y-51214119D01*
X130675150Y-50997048D01*
X130675132Y-50997036D01*
X130367776Y-50812106D01*
X130336335Y-50797560D01*
X130282909Y-50750803D01*
X130263243Y-50682585D01*
X130283580Y-50614563D01*
X130337463Y-50568335D01*
X130389241Y-50557205D01*
X164440623Y-50557205D01*
X164508744Y-50577207D01*
X164555237Y-50630863D01*
X164565341Y-50701137D01*
X164535847Y-50765717D01*
X164522701Y-50778804D01*
X164487860Y-50808714D01*
X164287243Y-50980936D01*
X164021667Y-51260322D01*
X164021660Y-51260330D01*
X164021659Y-51260332D01*
X163864206Y-51463744D01*
X163785705Y-51565159D01*
X163581800Y-51892293D01*
X163581800Y-51892294D01*
X163412040Y-52238372D01*
X163278160Y-52599857D01*
X163181536Y-52973039D01*
X163181534Y-52973048D01*
X163123165Y-53354062D01*
X163123163Y-53354081D01*
X163103641Y-53739048D01*
X163103641Y-53739059D01*
X163123163Y-54124026D01*
X163123165Y-54124045D01*
X163181534Y-54505059D01*
X163181536Y-54505068D01*
X163278160Y-54878250D01*
X163412040Y-55239735D01*
X163513712Y-55447006D01*
X163581800Y-55585814D01*
X163785705Y-55912949D01*
X164021659Y-56217776D01*
X164021664Y-56217781D01*
X164021667Y-56217785D01*
X164247094Y-56454934D01*
X164287241Y-56497169D01*
X164579727Y-56748259D01*
X164896114Y-56968471D01*
X165233156Y-57155545D01*
X165587395Y-57307561D01*
X165955196Y-57422959D01*
X166332784Y-57500556D01*
X166716285Y-57539554D01*
X166716286Y-57539554D01*
X167101764Y-57539554D01*
X167101765Y-57539554D01*
X167485266Y-57500556D01*
X167862854Y-57422959D01*
X168230655Y-57307561D01*
X168584894Y-57155545D01*
X168921936Y-56968471D01*
X169238323Y-56748259D01*
X169530809Y-56497169D01*
X169796391Y-56217776D01*
X170032345Y-55912949D01*
X170236250Y-55585814D01*
X170406012Y-55239729D01*
X170539891Y-54878246D01*
X170636513Y-54505072D01*
X170694885Y-54124038D01*
X170696245Y-54097237D01*
X170714409Y-53739059D01*
X170714409Y-53739048D01*
X170694886Y-53354081D01*
X170694884Y-53354062D01*
X170636515Y-52973048D01*
X170636513Y-52973039D01*
X170636513Y-52973036D01*
X170539891Y-52599862D01*
X170406012Y-52238379D01*
X170405170Y-52236663D01*
X170349401Y-52122970D01*
X170236250Y-51892294D01*
X170032345Y-51565159D01*
X169796391Y-51260332D01*
X169796384Y-51260324D01*
X169796382Y-51260322D01*
X169530806Y-50980936D01*
X169355684Y-50830600D01*
X169295352Y-50778807D01*
X169256696Y-50719260D01*
X169256369Y-50648264D01*
X169294476Y-50588362D01*
X169358921Y-50558571D01*
X169377427Y-50557205D01*
X175800399Y-50557205D01*
X175807464Y-50557402D01*
X175919578Y-50563700D01*
X176088178Y-50573902D01*
X176101651Y-50575450D01*
X176233501Y-50597854D01*
X176234876Y-50598096D01*
X176380053Y-50624703D01*
X176392192Y-50627557D01*
X176524707Y-50665736D01*
X176527172Y-50666476D01*
X176663993Y-50709113D01*
X176674688Y-50712985D01*
X176803616Y-50766391D01*
X176807008Y-50767856D01*
X176936154Y-50825981D01*
X176945376Y-50830595D01*
X177068249Y-50898507D01*
X177072420Y-50900919D01*
X177192860Y-50973730D01*
X177200568Y-50978784D01*
X177296345Y-51046743D01*
X177315412Y-51060272D01*
X177320188Y-51063835D01*
X177430614Y-51150349D01*
X177436866Y-51155583D01*
X177542001Y-51249539D01*
X177547137Y-51254394D01*
X177646243Y-51353502D01*
X177651084Y-51358622D01*
X177745034Y-51463754D01*
X177750261Y-51469998D01*
X177836806Y-51580467D01*
X177840382Y-51585262D01*
X177921827Y-51700051D01*
X177926893Y-51707777D01*
X177991583Y-51814786D01*
X177999675Y-51828173D01*
X178002123Y-51832404D01*
X178070026Y-51955268D01*
X178074647Y-51964505D01*
X178132729Y-52093560D01*
X178134223Y-52097018D01*
X178182122Y-52212658D01*
X178187620Y-52225930D01*
X178191506Y-52236663D01*
X178234109Y-52373384D01*
X178234890Y-52375988D01*
X178273050Y-52508446D01*
X178275910Y-52520615D01*
X178302471Y-52665556D01*
X178302755Y-52667162D01*
X178325158Y-52799018D01*
X178326707Y-52812498D01*
X178336535Y-52974591D01*
X178336568Y-52975151D01*
X178343242Y-53093978D01*
X178343440Y-53101044D01*
X178343440Y-136913164D01*
X178343242Y-136920230D01*
X178336965Y-137031979D01*
X178336933Y-137032520D01*
X178326747Y-137200929D01*
X178325197Y-137214429D01*
X178302803Y-137346226D01*
X178302519Y-137347831D01*
X178275952Y-137492801D01*
X178273092Y-137504971D01*
X178234928Y-137637440D01*
X178234147Y-137640043D01*
X178191548Y-137776749D01*
X178187662Y-137787482D01*
X178134273Y-137916376D01*
X178132764Y-137919869D01*
X178074678Y-138048933D01*
X178070056Y-138058170D01*
X178002172Y-138180998D01*
X177999722Y-138185235D01*
X177926934Y-138305641D01*
X177921867Y-138313368D01*
X177840394Y-138428194D01*
X177836819Y-138432987D01*
X177750307Y-138543414D01*
X177745073Y-138549668D01*
X177651113Y-138654811D01*
X177646256Y-138659947D01*
X177547167Y-138759036D01*
X177542032Y-138763891D01*
X177436894Y-138857849D01*
X177430642Y-138863083D01*
X177320229Y-138949588D01*
X177315435Y-138953164D01*
X177200584Y-139034657D01*
X177192856Y-139039725D01*
X177072505Y-139112482D01*
X177068269Y-139114932D01*
X176945389Y-139182847D01*
X176936152Y-139187468D01*
X176807114Y-139245545D01*
X176803620Y-139247054D01*
X176674711Y-139300451D01*
X176663979Y-139304337D01*
X176527255Y-139346944D01*
X176524651Y-139347725D01*
X176392215Y-139385881D01*
X176380046Y-139388742D01*
X176235054Y-139415315D01*
X176233447Y-139415598D01*
X176101685Y-139437987D01*
X176088174Y-139439539D01*
X175914663Y-139450018D01*
X175914134Y-139450049D01*
X175818386Y-139455427D01*
X175808070Y-139456007D01*
X175801005Y-139456205D01*
X169364607Y-139456205D01*
X169296486Y-139436203D01*
X169249993Y-139382547D01*
X169239889Y-139312273D01*
X169269383Y-139247693D01*
X169282528Y-139234606D01*
X169524482Y-139026897D01*
X169790064Y-138747504D01*
X170026018Y-138442677D01*
X170229923Y-138115542D01*
X170399685Y-137769457D01*
X170533564Y-137407974D01*
X170630186Y-137034800D01*
X170688558Y-136653766D01*
X170708082Y-136268782D01*
X170688944Y-135891405D01*
X170688559Y-135883809D01*
X170688557Y-135883790D01*
X170630188Y-135502776D01*
X170630186Y-135502767D01*
X170630186Y-135502764D01*
X170533564Y-135129590D01*
X170399685Y-134768107D01*
X170229923Y-134422022D01*
X170026018Y-134094887D01*
X169790064Y-133790060D01*
X169790057Y-133790052D01*
X169790055Y-133790050D01*
X169584701Y-133574018D01*
X169524482Y-133510667D01*
X169231996Y-133259577D01*
X168915609Y-133039365D01*
X168578567Y-132852291D01*
X168576133Y-132851246D01*
X168224327Y-132700274D01*
X167856524Y-132584876D01*
X167739091Y-132560743D01*
X167478939Y-132507280D01*
X167478930Y-132507279D01*
X167095439Y-132468282D01*
X167095438Y-132468282D01*
X166709958Y-132468282D01*
X166709956Y-132468282D01*
X166326465Y-132507279D01*
X166326463Y-132507279D01*
X166326457Y-132507280D01*
X166129235Y-132547810D01*
X165948871Y-132584876D01*
X165581068Y-132700274D01*
X165226835Y-132852288D01*
X165226831Y-132852289D01*
X165226829Y-132852291D01*
X165213144Y-132859887D01*
X164889786Y-133039365D01*
X164573403Y-133259574D01*
X164280916Y-133510664D01*
X164015340Y-133790050D01*
X164015333Y-133790058D01*
X164015332Y-133790060D01*
X163779378Y-134094887D01*
X163575473Y-134422021D01*
X163575473Y-134422022D01*
X163405713Y-134768100D01*
X163271833Y-135129585D01*
X163175209Y-135502767D01*
X163175207Y-135502776D01*
X163116838Y-135883790D01*
X163116836Y-135883809D01*
X163097314Y-136268776D01*
X163097314Y-136268787D01*
X163116836Y-136653754D01*
X163116838Y-136653773D01*
X163175207Y-137034787D01*
X163175209Y-137034796D01*
X163271833Y-137407978D01*
X163405713Y-137769463D01*
X163477778Y-137916376D01*
X163575473Y-138115542D01*
X163779378Y-138442677D01*
X164015332Y-138747504D01*
X164015337Y-138747509D01*
X164015340Y-138747513D01*
X164207437Y-138949599D01*
X164280914Y-139026897D01*
X164522863Y-139234602D01*
X164561520Y-139294150D01*
X164561847Y-139365146D01*
X164523740Y-139425048D01*
X164459295Y-139454839D01*
X164440789Y-139456205D01*
X131291801Y-139456205D01*
X131223680Y-139436203D01*
X131177187Y-139382547D01*
X131167083Y-139312273D01*
X131196577Y-139247693D01*
X131209729Y-139234601D01*
X131270016Y-139182847D01*
X131442828Y-139034493D01*
X131708410Y-138755100D01*
X131944364Y-138450273D01*
X132148269Y-138123138D01*
X132318031Y-137777053D01*
X132451910Y-137415570D01*
X132548532Y-137042396D01*
X132606904Y-136661362D01*
X132607290Y-136653766D01*
X132626428Y-136276383D01*
X132626428Y-136276372D01*
X132606905Y-135891405D01*
X132606903Y-135891386D01*
X132548534Y-135510372D01*
X132548532Y-135510363D01*
X132548532Y-135510360D01*
X132451910Y-135137186D01*
X132318031Y-134775703D01*
X132148269Y-134429618D01*
X131944364Y-134102483D01*
X131708410Y-133797656D01*
X131708403Y-133797648D01*
X131708401Y-133797646D01*
X131442825Y-133518260D01*
X131298162Y-133394072D01*
X131150342Y-133267173D01*
X131139424Y-133259574D01*
X130833955Y-133046961D01*
X130752556Y-133001781D01*
X130496913Y-132859887D01*
X130479205Y-132852288D01*
X130142673Y-132707870D01*
X129774870Y-132592472D01*
X129657437Y-132568339D01*
X129397285Y-132514876D01*
X129397276Y-132514875D01*
X129013785Y-132475878D01*
X129013784Y-132475878D01*
X128628304Y-132475878D01*
X128628302Y-132475878D01*
X128244811Y-132514875D01*
X128244809Y-132514875D01*
X128244803Y-132514876D01*
X128047581Y-132555406D01*
X127867217Y-132592472D01*
X127499414Y-132707870D01*
X127145181Y-132859884D01*
X127145177Y-132859885D01*
X127145175Y-132859887D01*
X127056190Y-132909278D01*
X126808132Y-133046961D01*
X126491749Y-133267170D01*
X126199262Y-133518260D01*
X125933686Y-133797646D01*
X125697724Y-134102483D01*
X125493819Y-134429617D01*
X125493819Y-134429618D01*
X125324059Y-134775696D01*
X125190179Y-135137181D01*
X125093555Y-135510363D01*
X125093553Y-135510372D01*
X125035184Y-135891386D01*
X125035182Y-135891405D01*
X125015660Y-136276372D01*
X125015660Y-136276383D01*
X125035182Y-136661350D01*
X125035184Y-136661369D01*
X125093553Y-137042383D01*
X125093555Y-137042392D01*
X125190179Y-137415574D01*
X125324059Y-137777059D01*
X125392398Y-137916376D01*
X125493819Y-138123138D01*
X125697724Y-138450273D01*
X125933678Y-138755100D01*
X125933683Y-138755105D01*
X125933686Y-138755109D01*
X126073488Y-138902181D01*
X126192041Y-139026899D01*
X126199266Y-139034499D01*
X126432359Y-139234601D01*
X126471018Y-139294150D01*
X126471346Y-139365145D01*
X126433238Y-139425048D01*
X126368794Y-139454838D01*
X126350287Y-139456205D01*
X119927476Y-139456205D01*
X119920414Y-139456007D01*
X119910968Y-139455476D01*
X119808628Y-139449730D01*
X119808086Y-139449698D01*
X119639715Y-139439516D01*
X119626218Y-139437966D01*
X119494407Y-139415573D01*
X119492799Y-139415289D01*
X119347832Y-139388724D01*
X119335663Y-139385864D01*
X119203211Y-139347707D01*
X119200608Y-139346926D01*
X119063882Y-139304323D01*
X119053148Y-139300437D01*
X118924282Y-139247061D01*
X118920788Y-139245552D01*
X118791699Y-139187455D01*
X118782463Y-139182834D01*
X118659631Y-139114949D01*
X118655395Y-139112499D01*
X118534989Y-139039713D01*
X118527260Y-139034645D01*
X118412435Y-138953174D01*
X118407642Y-138949599D01*
X118297205Y-138863080D01*
X118290951Y-138857845D01*
X118185830Y-138763904D01*
X118180694Y-138759049D01*
X118081590Y-138659947D01*
X118076735Y-138654811D01*
X117982765Y-138549660D01*
X117977545Y-138543425D01*
X117891000Y-138432960D01*
X117887481Y-138428242D01*
X117805969Y-138313364D01*
X117800917Y-138305660D01*
X117728105Y-138185216D01*
X117725697Y-138181052D01*
X117657774Y-138058155D01*
X117653157Y-138048926D01*
X117595081Y-137919887D01*
X117593572Y-137916395D01*
X117582827Y-137890454D01*
X117540172Y-137787479D01*
X117536297Y-137776779D01*
X117493666Y-137639973D01*
X117492907Y-137637440D01*
X117454741Y-137504966D01*
X117451882Y-137492800D01*
X117425328Y-137347901D01*
X117425044Y-137346296D01*
X117424472Y-137342927D01*
X117402639Y-137214429D01*
X117401092Y-137200952D01*
X117390514Y-137025670D01*
X117384638Y-136921036D01*
X117384440Y-136913972D01*
X117384440Y-121234200D01*
X162831100Y-121234200D01*
X162850266Y-121465508D01*
X162850267Y-121465514D01*
X162907242Y-121690499D01*
X162907244Y-121690503D01*
X163000475Y-121903048D01*
X163044048Y-121969742D01*
X163127421Y-122097353D01*
X163284616Y-122268113D01*
X163446372Y-122394012D01*
X163467773Y-122410669D01*
X163467774Y-122410670D01*
X163671897Y-122521136D01*
X163671899Y-122521137D01*
X163781740Y-122558845D01*
X163891419Y-122596498D01*
X164120351Y-122634700D01*
X164120355Y-122634700D01*
X164352452Y-122634700D01*
X164357639Y-122634270D01*
X164357765Y-122635798D01*
X164421342Y-122643473D01*
X164476038Y-122688738D01*
X164493755Y-122728311D01*
X164500843Y-122756301D01*
X164500844Y-122756303D01*
X164594074Y-122968847D01*
X164604096Y-122984185D01*
X164624610Y-123052153D01*
X164620758Y-123084033D01*
X164563868Y-123308682D01*
X164563866Y-123308691D01*
X164544700Y-123540000D01*
X164563866Y-123771308D01*
X164563867Y-123771314D01*
X164620842Y-123996299D01*
X164620844Y-123996303D01*
X164714075Y-124208848D01*
X164820924Y-124372393D01*
X164841021Y-124403153D01*
X164998216Y-124573913D01*
X165164749Y-124703530D01*
X165181373Y-124716469D01*
X165181374Y-124716470D01*
X165385497Y-124826936D01*
X165385499Y-124826937D01*
X165500754Y-124866504D01*
X165605019Y-124902298D01*
X165833951Y-124940500D01*
X165833955Y-124940500D01*
X166066045Y-124940500D01*
X166066049Y-124940500D01*
X166294981Y-124902298D01*
X166514503Y-124826936D01*
X166718626Y-124716470D01*
X166901784Y-124573913D01*
X167058979Y-124403153D01*
X167160617Y-124247585D01*
X167214621Y-124201496D01*
X167266100Y-124190500D01*
X167466045Y-124190500D01*
X167466049Y-124190500D01*
X167694981Y-124152298D01*
X167914503Y-124076936D01*
X168118626Y-123966470D01*
X168301784Y-123823913D01*
X168458979Y-123653153D01*
X168585924Y-123458849D01*
X168595889Y-123436130D01*
X168641566Y-123381783D01*
X168709378Y-123360757D01*
X168771243Y-123375928D01*
X168865497Y-123426936D01*
X169085019Y-123502298D01*
X169313951Y-123540500D01*
X169313955Y-123540500D01*
X169546045Y-123540500D01*
X169546049Y-123540500D01*
X169774981Y-123502298D01*
X169994503Y-123426936D01*
X170198626Y-123316470D01*
X170281075Y-123252298D01*
X170294219Y-123242068D01*
X170360261Y-123216012D01*
X170371609Y-123215500D01*
X170536804Y-123215500D01*
X170577716Y-123222327D01*
X170665019Y-123252298D01*
X170893951Y-123290500D01*
X170893955Y-123290500D01*
X171126045Y-123290500D01*
X171126049Y-123290500D01*
X171354981Y-123252298D01*
X171574503Y-123176936D01*
X171778626Y-123066470D01*
X171961784Y-122923913D01*
X172118979Y-122753153D01*
X172245924Y-122558849D01*
X172248978Y-122551887D01*
X172294389Y-122448361D01*
X172340070Y-122394012D01*
X172407882Y-122372988D01*
X172476296Y-122391964D01*
X172521456Y-122440635D01*
X172534242Y-122465112D01*
X172601641Y-122547770D01*
X172601642Y-122547771D01*
X172629188Y-122613206D01*
X172616985Y-122683146D01*
X172614578Y-122687781D01*
X172536365Y-122831016D01*
X172443863Y-123079026D01*
X172387596Y-123337682D01*
X172368713Y-123601705D01*
X172387596Y-123865727D01*
X172443863Y-124124383D01*
X172536365Y-124372393D01*
X172566144Y-124426928D01*
X172581235Y-124496302D01*
X172556424Y-124562822D01*
X172499588Y-124605369D01*
X172428773Y-124610433D01*
X172414644Y-124606486D01*
X172229266Y-124542846D01*
X172229259Y-124542844D01*
X172131281Y-124526495D01*
X172000330Y-124504643D01*
X171768232Y-124504643D01*
X171653664Y-124523761D01*
X171539302Y-124542844D01*
X171539295Y-124542846D01*
X171319780Y-124618205D01*
X171319778Y-124618206D01*
X171115655Y-124728672D01*
X171111290Y-124731525D01*
X171110514Y-124730337D01*
X171050557Y-124753989D01*
X171039216Y-124754500D01*
X170287368Y-124754500D01*
X170219247Y-124734498D01*
X170209977Y-124727931D01*
X170178634Y-124703535D01*
X170178625Y-124703529D01*
X169974502Y-124593063D01*
X169974500Y-124593062D01*
X169754985Y-124517703D01*
X169754978Y-124517701D01*
X169657000Y-124501352D01*
X169526049Y-124479500D01*
X169293951Y-124479500D01*
X169179383Y-124498618D01*
X169065021Y-124517701D01*
X169065014Y-124517703D01*
X168845499Y-124593062D01*
X168845497Y-124593063D01*
X168641374Y-124703529D01*
X168641373Y-124703530D01*
X168458213Y-124846089D01*
X168301018Y-125016850D01*
X168174075Y-125211151D01*
X168080844Y-125423696D01*
X168080842Y-125423700D01*
X168023867Y-125648685D01*
X168023866Y-125648691D01*
X168004700Y-125880000D01*
X168023866Y-126111308D01*
X168023867Y-126111314D01*
X168080842Y-126336299D01*
X168080844Y-126336303D01*
X168174075Y-126548848D01*
X168174076Y-126548849D01*
X168301021Y-126743153D01*
X168417518Y-126869703D01*
X168456817Y-126912394D01*
X168458216Y-126913913D01*
X168641373Y-127056469D01*
X168641374Y-127056470D01*
X168845497Y-127166936D01*
X168845499Y-127166937D01*
X168892010Y-127182904D01*
X169065019Y-127242298D01*
X169293951Y-127280500D01*
X169293955Y-127280500D01*
X169526045Y-127280500D01*
X169526049Y-127280500D01*
X169754981Y-127242298D01*
X169974503Y-127166936D01*
X170178626Y-127056470D01*
X170209977Y-127032069D01*
X170276019Y-127006012D01*
X170287368Y-127005500D01*
X170974609Y-127005500D01*
X171042730Y-127025502D01*
X171051995Y-127032064D01*
X171115654Y-127081612D01*
X171115655Y-127081613D01*
X171319778Y-127192079D01*
X171319780Y-127192080D01*
X171435035Y-127231647D01*
X171539300Y-127267441D01*
X171768232Y-127305643D01*
X171768236Y-127305643D01*
X172000326Y-127305643D01*
X172000330Y-127305643D01*
X172229262Y-127267441D01*
X172448784Y-127192079D01*
X172530974Y-127147599D01*
X172600403Y-127132769D01*
X172666830Y-127157829D01*
X172691811Y-127182904D01*
X172806564Y-127336196D01*
X172831375Y-127402716D01*
X172816284Y-127472090D01*
X172806564Y-127487214D01*
X172663222Y-127678696D01*
X172536367Y-127911012D01*
X172536366Y-127911016D01*
X172443863Y-128159026D01*
X172387596Y-128417682D01*
X172368713Y-128681705D01*
X172387596Y-128945727D01*
X172443863Y-129204383D01*
X172536366Y-129452393D01*
X172536367Y-129452397D01*
X172663222Y-129684713D01*
X172806564Y-129876196D01*
X172831375Y-129942716D01*
X172816283Y-130012090D01*
X172806564Y-130027214D01*
X172663222Y-130218696D01*
X172536367Y-130451012D01*
X172536366Y-130451016D01*
X172443863Y-130699026D01*
X172387596Y-130957682D01*
X172368713Y-131221705D01*
X172387596Y-131485727D01*
X172443863Y-131744383D01*
X172536366Y-131992393D01*
X172536367Y-131992397D01*
X172663222Y-132224713D01*
X172821854Y-132436621D01*
X172821862Y-132436630D01*
X173009014Y-132623782D01*
X173009023Y-132623790D01*
X173009025Y-132623792D01*
X173220929Y-132782421D01*
X173453251Y-132909279D01*
X173701262Y-133001782D01*
X173959914Y-133058048D01*
X174223940Y-133076932D01*
X174487966Y-133058048D01*
X174746618Y-133001782D01*
X174994629Y-132909279D01*
X175226951Y-132782421D01*
X175438855Y-132623792D01*
X175626027Y-132436620D01*
X175784656Y-132224716D01*
X175911514Y-131992394D01*
X176004017Y-131744383D01*
X176060283Y-131485731D01*
X176079167Y-131221705D01*
X176060283Y-130957679D01*
X176004017Y-130699027D01*
X175911514Y-130451016D01*
X175784656Y-130218694D01*
X175641313Y-130027210D01*
X175616504Y-129960694D01*
X175631595Y-129891320D01*
X175641307Y-129876207D01*
X175784656Y-129684716D01*
X175911514Y-129452394D01*
X176004017Y-129204383D01*
X176060283Y-128945731D01*
X176079167Y-128681705D01*
X176060283Y-128417679D01*
X176004017Y-128159027D01*
X175911514Y-127911016D01*
X175784656Y-127678694D01*
X175641313Y-127487210D01*
X175616504Y-127420694D01*
X175631595Y-127351320D01*
X175641307Y-127336207D01*
X175784656Y-127144716D01*
X175911514Y-126912394D01*
X176004017Y-126664383D01*
X176060283Y-126405731D01*
X176079167Y-126141705D01*
X176060283Y-125877679D01*
X176004017Y-125619027D01*
X175911514Y-125371016D01*
X175784656Y-125138694D01*
X175641313Y-124947210D01*
X175616504Y-124880694D01*
X175631595Y-124811320D01*
X175641307Y-124796207D01*
X175784656Y-124604716D01*
X175911514Y-124372394D01*
X176004017Y-124124383D01*
X176060283Y-123865731D01*
X176079167Y-123601705D01*
X176060283Y-123337679D01*
X176004017Y-123079027D01*
X175911514Y-122831016D01*
X175911512Y-122831012D01*
X175833302Y-122687782D01*
X175818210Y-122618408D01*
X175843021Y-122551887D01*
X175846224Y-122547787D01*
X175913638Y-122465112D01*
X176007849Y-122284754D01*
X176063826Y-122089123D01*
X176074440Y-121969742D01*
X176074439Y-120153669D01*
X176063826Y-120034287D01*
X176007849Y-119838656D01*
X175913638Y-119658298D01*
X175785049Y-119500596D01*
X175627347Y-119372007D01*
X175627345Y-119372006D01*
X175627344Y-119372005D01*
X175446991Y-119277797D01*
X175446990Y-119277796D01*
X175446989Y-119277796D01*
X175251358Y-119221819D01*
X175131977Y-119211205D01*
X175131974Y-119211205D01*
X175118491Y-119211205D01*
X175050370Y-119191203D01*
X175003877Y-119137547D01*
X174993773Y-119067273D01*
X175023267Y-119002693D01*
X175058103Y-118974619D01*
X175226951Y-118882421D01*
X175438855Y-118723792D01*
X175626027Y-118536620D01*
X175784656Y-118324716D01*
X175911514Y-118092394D01*
X176004017Y-117844383D01*
X176060283Y-117585731D01*
X176079167Y-117321705D01*
X176060283Y-117057679D01*
X176004017Y-116799027D01*
X175911514Y-116551016D01*
X175784656Y-116318694D01*
X175641313Y-116127210D01*
X175616504Y-116060694D01*
X175631595Y-115991320D01*
X175641307Y-115976207D01*
X175784656Y-115784716D01*
X175911514Y-115552394D01*
X176004017Y-115304383D01*
X176060283Y-115045731D01*
X176079167Y-114781705D01*
X176060283Y-114517679D01*
X176004017Y-114259027D01*
X175911514Y-114011016D01*
X175864383Y-113924702D01*
X175833302Y-113867782D01*
X175818210Y-113798408D01*
X175843021Y-113731887D01*
X175846224Y-113727787D01*
X175913638Y-113645112D01*
X176007849Y-113464754D01*
X176063826Y-113269123D01*
X176074440Y-113149742D01*
X176074439Y-111333669D01*
X176063826Y-111214287D01*
X176007849Y-111018656D01*
X175913638Y-110838298D01*
X175785049Y-110680596D01*
X175627347Y-110552007D01*
X175627345Y-110552006D01*
X175627344Y-110552005D01*
X175446991Y-110457797D01*
X175446990Y-110457796D01*
X175446989Y-110457796D01*
X175251358Y-110401819D01*
X175131977Y-110391205D01*
X175131972Y-110391205D01*
X173315912Y-110391205D01*
X173315902Y-110391206D01*
X173196528Y-110401818D01*
X173196525Y-110401818D01*
X173196522Y-110401819D01*
X173000891Y-110457796D01*
X173000888Y-110457797D01*
X172820535Y-110552005D01*
X172662831Y-110680596D01*
X172534240Y-110838300D01*
X172440032Y-111018653D01*
X172440031Y-111018655D01*
X172440031Y-111018656D01*
X172384054Y-111214287D01*
X172384054Y-111214293D01*
X172373440Y-111333670D01*
X172373440Y-113149732D01*
X172373441Y-113149739D01*
X172373441Y-113149741D01*
X172384054Y-113269123D01*
X172412532Y-113368649D01*
X172440032Y-113464757D01*
X172443747Y-113471869D01*
X172457557Y-113541509D01*
X172431524Y-113607561D01*
X172373914Y-113649052D01*
X172332065Y-113656205D01*
X167941487Y-113656205D01*
X167873366Y-113636203D01*
X167826873Y-113582547D01*
X167816769Y-113512273D01*
X167817908Y-113505623D01*
X167826038Y-113464754D01*
X167845156Y-113368639D01*
X167859503Y-113149741D01*
X167864022Y-113080803D01*
X167864022Y-113080796D01*
X167845156Y-112792965D01*
X167845156Y-112792961D01*
X167788881Y-112510047D01*
X167696159Y-112236898D01*
X167568578Y-111978189D01*
X167514183Y-111896781D01*
X167408326Y-111738354D01*
X167408323Y-111738350D01*
X167408321Y-111738348D01*
X167408320Y-111738346D01*
X167338567Y-111658809D01*
X167218127Y-111521472D01*
X167003977Y-111333668D01*
X167001254Y-111331280D01*
X167001252Y-111331278D01*
X167001249Y-111331276D01*
X167001245Y-111331273D01*
X166761408Y-111171020D01*
X166502708Y-111043444D01*
X166502702Y-111043441D01*
X166410066Y-111011995D01*
X166229558Y-110950720D01*
X166229554Y-110950719D01*
X165946649Y-110894445D01*
X165946634Y-110894443D01*
X165658803Y-110875578D01*
X165658797Y-110875578D01*
X165370965Y-110894443D01*
X165370950Y-110894445D01*
X165088045Y-110950719D01*
X165088041Y-110950720D01*
X164819655Y-111041825D01*
X164814898Y-111043441D01*
X164814895Y-111043442D01*
X164814891Y-111043444D01*
X164556191Y-111171020D01*
X164316354Y-111331273D01*
X164316350Y-111331276D01*
X164099472Y-111521472D01*
X163909276Y-111738350D01*
X163909273Y-111738354D01*
X163749020Y-111978191D01*
X163621444Y-112236891D01*
X163621440Y-112236901D01*
X163528720Y-112510041D01*
X163528719Y-112510045D01*
X163472445Y-112792950D01*
X163472443Y-112792965D01*
X163453578Y-113080796D01*
X163453578Y-113080803D01*
X163472443Y-113368634D01*
X163472445Y-113368649D01*
X163528719Y-113651554D01*
X163528720Y-113651558D01*
X163576879Y-113793428D01*
X163621441Y-113924702D01*
X163621444Y-113924708D01*
X163749020Y-114183408D01*
X163909273Y-114423245D01*
X163909276Y-114423249D01*
X164099472Y-114640127D01*
X164236809Y-114760567D01*
X164316346Y-114830320D01*
X164316348Y-114830321D01*
X164316350Y-114830323D01*
X164316354Y-114830326D01*
X164474781Y-114936183D01*
X164556189Y-114990578D01*
X164812959Y-115117203D01*
X164818597Y-115119983D01*
X164817769Y-115121660D01*
X164867143Y-115161460D01*
X164889204Y-115222900D01*
X164898934Y-115340329D01*
X164884627Y-115409868D01*
X164834994Y-115460633D01*
X164784522Y-115476239D01*
X164702588Y-115483522D01*
X164506948Y-115539502D01*
X164326595Y-115633710D01*
X164168891Y-115762301D01*
X164040300Y-115920005D01*
X163946092Y-116100358D01*
X163946092Y-116100359D01*
X163946091Y-116100361D01*
X163890114Y-116295992D01*
X163888096Y-116318696D01*
X163879500Y-116415375D01*
X163879500Y-118281437D01*
X163879501Y-118281447D01*
X163883347Y-118324716D01*
X163890114Y-118400828D01*
X163941310Y-118579749D01*
X163946092Y-118596461D01*
X164036442Y-118769429D01*
X164040302Y-118776817D01*
X164168891Y-118934519D01*
X164326593Y-119063108D01*
X164506951Y-119157319D01*
X164702582Y-119213296D01*
X164821963Y-119223910D01*
X166688036Y-119223909D01*
X166807418Y-119213296D01*
X167003049Y-119157319D01*
X167183407Y-119063108D01*
X167237437Y-119019051D01*
X167302871Y-118991505D01*
X167372811Y-119003707D01*
X167377427Y-119006105D01*
X167473899Y-119058783D01*
X167725261Y-119152536D01*
X167987407Y-119209562D01*
X168255000Y-119228701D01*
X168522593Y-119209562D01*
X168784739Y-119152536D01*
X169036101Y-119058783D01*
X169271562Y-118930211D01*
X169486329Y-118769439D01*
X169676029Y-118579739D01*
X169836801Y-118364972D01*
X169965373Y-118129511D01*
X170059126Y-117878149D01*
X170116152Y-117616003D01*
X170135291Y-117348410D01*
X170116152Y-117080817D01*
X170059126Y-116818671D01*
X169965373Y-116567309D01*
X169836801Y-116331848D01*
X169676029Y-116117081D01*
X169676024Y-116117076D01*
X169676022Y-116117073D01*
X169674839Y-116115707D01*
X169674587Y-116115156D01*
X169673332Y-116113479D01*
X169673697Y-116113205D01*
X169645353Y-116051123D01*
X169655464Y-115980850D01*
X169701963Y-115927200D01*
X169770072Y-115907205D01*
X172691847Y-115907205D01*
X172759968Y-115927207D01*
X172792715Y-115957696D01*
X172806564Y-115976196D01*
X172831375Y-116042716D01*
X172816284Y-116112090D01*
X172806564Y-116127214D01*
X172663222Y-116318696D01*
X172536367Y-116551012D01*
X172536366Y-116551016D01*
X172443863Y-116799026D01*
X172387596Y-117057682D01*
X172368713Y-117321705D01*
X172387596Y-117585727D01*
X172443863Y-117844383D01*
X172536366Y-118092393D01*
X172536367Y-118092397D01*
X172639597Y-118281447D01*
X172663224Y-118324716D01*
X172720195Y-118400821D01*
X172821854Y-118536621D01*
X172821862Y-118536630D01*
X173009014Y-118723782D01*
X173009023Y-118723790D01*
X173009025Y-118723792D01*
X173220929Y-118882421D01*
X173389775Y-118974618D01*
X173439976Y-119024820D01*
X173455068Y-119094194D01*
X173430257Y-119160714D01*
X173373422Y-119203261D01*
X173329397Y-119211205D01*
X173315916Y-119211205D01*
X173315902Y-119211206D01*
X173196528Y-119221818D01*
X173196525Y-119221818D01*
X173196522Y-119221819D01*
X173000891Y-119277796D01*
X173000888Y-119277797D01*
X172820535Y-119372005D01*
X172662831Y-119500596D01*
X172534240Y-119658300D01*
X172440032Y-119838653D01*
X172440031Y-119838655D01*
X172440031Y-119838656D01*
X172384054Y-120034287D01*
X172384054Y-120034293D01*
X172373440Y-120153670D01*
X172373440Y-120993101D01*
X172353438Y-121061222D01*
X172299782Y-121107715D01*
X172229508Y-121117819D01*
X172164928Y-121088325D01*
X172141958Y-121062017D01*
X172118983Y-121026851D01*
X171961786Y-120856089D01*
X171961785Y-120856088D01*
X171961784Y-120856087D01*
X171778626Y-120713530D01*
X171778625Y-120713529D01*
X171574502Y-120603063D01*
X171574500Y-120603062D01*
X171354985Y-120527703D01*
X171354978Y-120527701D01*
X171257000Y-120511352D01*
X171126049Y-120489500D01*
X170893951Y-120489500D01*
X170779383Y-120508618D01*
X170665021Y-120527701D01*
X170665014Y-120527703D01*
X170445499Y-120603062D01*
X170445497Y-120603063D01*
X170241374Y-120713529D01*
X170241366Y-120713535D01*
X170095219Y-120827285D01*
X170029177Y-120853341D01*
X169976917Y-120847026D01*
X169774985Y-120777703D01*
X169774978Y-120777701D01*
X169677000Y-120761352D01*
X169546049Y-120739500D01*
X169313951Y-120739500D01*
X169199383Y-120758618D01*
X169085021Y-120777701D01*
X169085014Y-120777703D01*
X168865499Y-120853062D01*
X168865497Y-120853063D01*
X168661374Y-120963529D01*
X168661373Y-120963530D01*
X168478213Y-121106089D01*
X168321018Y-121276850D01*
X168194078Y-121471147D01*
X168194072Y-121471157D01*
X168184108Y-121493873D01*
X168138425Y-121548220D01*
X168070612Y-121569242D01*
X168008755Y-121554070D01*
X167914503Y-121503064D01*
X167914499Y-121503062D01*
X167914498Y-121503062D01*
X167694985Y-121427703D01*
X167694978Y-121427701D01*
X167597000Y-121411352D01*
X167466049Y-121389500D01*
X167233951Y-121389500D01*
X167088932Y-121413699D01*
X167007732Y-121427249D01*
X166937249Y-121418731D01*
X166894292Y-121388304D01*
X166781786Y-121266089D01*
X166781785Y-121266088D01*
X166781784Y-121266087D01*
X166598626Y-121123530D01*
X166598625Y-121123529D01*
X166394502Y-121013063D01*
X166394500Y-121013062D01*
X166174981Y-120937702D01*
X166174968Y-120937699D01*
X166040052Y-120915185D01*
X165976152Y-120884244D01*
X165971696Y-120879999D01*
X165603943Y-120512246D01*
X165590396Y-120496231D01*
X165588665Y-120493800D01*
X165521603Y-120429857D01*
X165519498Y-120427801D01*
X165492135Y-120400438D01*
X165492134Y-120400437D01*
X165492131Y-120400434D01*
X165485263Y-120394763D01*
X165478548Y-120388804D01*
X165433103Y-120345473D01*
X165433102Y-120345472D01*
X165405408Y-120327674D01*
X165393308Y-120318839D01*
X165367920Y-120297877D01*
X165312823Y-120267792D01*
X165305088Y-120263202D01*
X165252292Y-120229271D01*
X165252282Y-120229266D01*
X165252280Y-120229265D01*
X165221712Y-120217027D01*
X165208168Y-120210646D01*
X165194749Y-120203318D01*
X165177759Y-120192172D01*
X165005026Y-120057730D01*
X165005025Y-120057729D01*
X164800902Y-119947263D01*
X164800900Y-119947262D01*
X164581385Y-119871903D01*
X164581378Y-119871901D01*
X164483400Y-119855552D01*
X164352449Y-119833700D01*
X164120351Y-119833700D01*
X164005783Y-119852818D01*
X163891421Y-119871901D01*
X163891414Y-119871903D01*
X163671899Y-119947262D01*
X163671897Y-119947263D01*
X163467774Y-120057729D01*
X163467773Y-120057730D01*
X163284613Y-120200289D01*
X163127418Y-120371050D01*
X163000475Y-120565351D01*
X162907244Y-120777896D01*
X162907242Y-120777900D01*
X162850267Y-121002885D01*
X162850266Y-121002891D01*
X162831100Y-121234200D01*
X117384440Y-121234200D01*
X117384440Y-118281437D01*
X124534900Y-118281437D01*
X124534901Y-118281447D01*
X124538747Y-118324716D01*
X124545514Y-118400828D01*
X124596710Y-118579749D01*
X124601492Y-118596461D01*
X124691842Y-118769429D01*
X124695702Y-118776817D01*
X124824291Y-118934519D01*
X124981993Y-119063108D01*
X125162351Y-119157319D01*
X125357982Y-119213296D01*
X125477363Y-119223910D01*
X127343436Y-119223909D01*
X127462818Y-119213296D01*
X127658449Y-119157319D01*
X127838807Y-119063108D01*
X127892837Y-119019051D01*
X127958271Y-118991505D01*
X128028211Y-119003707D01*
X128032827Y-119006105D01*
X128129299Y-119058783D01*
X128380661Y-119152536D01*
X128642807Y-119209562D01*
X128910400Y-119228701D01*
X129177993Y-119209562D01*
X129440139Y-119152536D01*
X129691501Y-119058783D01*
X129926962Y-118930211D01*
X130084894Y-118811984D01*
X130151411Y-118787175D01*
X130220785Y-118802266D01*
X130235897Y-118811978D01*
X130393838Y-118930211D01*
X130458494Y-118965516D01*
X130567100Y-119024820D01*
X130629299Y-119058783D01*
X130880661Y-119152536D01*
X131142807Y-119209562D01*
X131410400Y-119228701D01*
X131677993Y-119209562D01*
X131940139Y-119152536D01*
X132191501Y-119058783D01*
X132426962Y-118930211D01*
X132584894Y-118811984D01*
X132651411Y-118787175D01*
X132720785Y-118802266D01*
X132735897Y-118811978D01*
X132893838Y-118930211D01*
X132958494Y-118965516D01*
X133067100Y-119024820D01*
X133129299Y-119058783D01*
X133380661Y-119152536D01*
X133642807Y-119209562D01*
X133910400Y-119228701D01*
X134177993Y-119209562D01*
X134440139Y-119152536D01*
X134691501Y-119058783D01*
X134926962Y-118930211D01*
X135141729Y-118769439D01*
X135331429Y-118579739D01*
X135492201Y-118364972D01*
X135620773Y-118129511D01*
X135714526Y-117878149D01*
X135771552Y-117616003D01*
X135790691Y-117348410D01*
X135771552Y-117080817D01*
X135770957Y-117078082D01*
X135771024Y-117077143D01*
X135770912Y-117076363D01*
X135771081Y-117076338D01*
X135776018Y-117007267D01*
X135804979Y-116962200D01*
X146717179Y-106050000D01*
X172354773Y-106050000D01*
X172373656Y-106314022D01*
X172429923Y-106572678D01*
X172522426Y-106820688D01*
X172522427Y-106820692D01*
X172649282Y-107053008D01*
X172807914Y-107264916D01*
X172807922Y-107264925D01*
X172995074Y-107452077D01*
X172995083Y-107452085D01*
X172995085Y-107452087D01*
X173086987Y-107520883D01*
X173130084Y-107553146D01*
X173172631Y-107609982D01*
X173177695Y-107680798D01*
X173147279Y-107739349D01*
X173134674Y-107753041D01*
X173011580Y-107941451D01*
X172921179Y-108147543D01*
X172921176Y-108147550D01*
X172873455Y-108335999D01*
X172873456Y-108336000D01*
X173778884Y-108336000D01*
X173750507Y-108380156D01*
X173710000Y-108518111D01*
X173710000Y-108661889D01*
X173750507Y-108799844D01*
X173778884Y-108844000D01*
X172873455Y-108844000D01*
X172921176Y-109032449D01*
X172921179Y-109032456D01*
X173011580Y-109238548D01*
X173134674Y-109426958D01*
X173287097Y-109592534D01*
X173464698Y-109730767D01*
X173464699Y-109730768D01*
X173662628Y-109837882D01*
X173662630Y-109837883D01*
X173875483Y-109910955D01*
X173875492Y-109910957D01*
X173956000Y-109924391D01*
X173956000Y-109023674D01*
X174067685Y-109074680D01*
X174174237Y-109090000D01*
X174245763Y-109090000D01*
X174352315Y-109074680D01*
X174464000Y-109023674D01*
X174464000Y-109924390D01*
X174544507Y-109910957D01*
X174544516Y-109910955D01*
X174757369Y-109837883D01*
X174757371Y-109837882D01*
X174955300Y-109730768D01*
X174955301Y-109730767D01*
X175132902Y-109592534D01*
X175285325Y-109426958D01*
X175408419Y-109238548D01*
X175498820Y-109032456D01*
X175498823Y-109032449D01*
X175546544Y-108844000D01*
X174641116Y-108844000D01*
X174669493Y-108799844D01*
X174710000Y-108661889D01*
X174710000Y-108518111D01*
X174669493Y-108380156D01*
X174641116Y-108336000D01*
X175546544Y-108336000D01*
X175546544Y-108335999D01*
X175498823Y-108147550D01*
X175498820Y-108147543D01*
X175408419Y-107941451D01*
X175285321Y-107753038D01*
X175272723Y-107739352D01*
X175241302Y-107675686D01*
X175249289Y-107605141D01*
X175289914Y-107553147D01*
X175424915Y-107452087D01*
X175612087Y-107264915D01*
X175770716Y-107053011D01*
X175897574Y-106820689D01*
X175990077Y-106572678D01*
X176046343Y-106314026D01*
X176065227Y-106050000D01*
X176046343Y-105785974D01*
X175990077Y-105527322D01*
X175897574Y-105279311D01*
X175893937Y-105272651D01*
X175770717Y-105046991D01*
X175770716Y-105046989D01*
X175627373Y-104855505D01*
X175602564Y-104788989D01*
X175617655Y-104719615D01*
X175627367Y-104704502D01*
X175770716Y-104513011D01*
X175897574Y-104280689D01*
X175990077Y-104032678D01*
X176046343Y-103774026D01*
X176065227Y-103510000D01*
X176046343Y-103245974D01*
X175990077Y-102987322D01*
X175897574Y-102739311D01*
X175830404Y-102616299D01*
X175819362Y-102596077D01*
X175804270Y-102526703D01*
X175829081Y-102460182D01*
X175832284Y-102456082D01*
X175899698Y-102373407D01*
X175993909Y-102193049D01*
X176049886Y-101997418D01*
X176060500Y-101878037D01*
X176060499Y-100061964D01*
X176049886Y-99942582D01*
X175993909Y-99746951D01*
X175899698Y-99566593D01*
X175771109Y-99408891D01*
X175613407Y-99280302D01*
X175613405Y-99280301D01*
X175613404Y-99280300D01*
X175433051Y-99186092D01*
X175433050Y-99186091D01*
X175433049Y-99186091D01*
X175237418Y-99130114D01*
X175118037Y-99119500D01*
X175118032Y-99119500D01*
X173301972Y-99119500D01*
X173301962Y-99119501D01*
X173182588Y-99130113D01*
X173182585Y-99130113D01*
X173182582Y-99130114D01*
X173008546Y-99179912D01*
X172986948Y-99186092D01*
X172806595Y-99280300D01*
X172648891Y-99408891D01*
X172520300Y-99566595D01*
X172426092Y-99746948D01*
X172426091Y-99746950D01*
X172426091Y-99746951D01*
X172370114Y-99942582D01*
X172370114Y-99942588D01*
X172359500Y-100061965D01*
X172359500Y-101878027D01*
X172359501Y-101878034D01*
X172359501Y-101878036D01*
X172370114Y-101997418D01*
X172426091Y-102193049D01*
X172520302Y-102373407D01*
X172587701Y-102456065D01*
X172587702Y-102456066D01*
X172615248Y-102521501D01*
X172603045Y-102591441D01*
X172600638Y-102596076D01*
X172522425Y-102739311D01*
X172429923Y-102987321D01*
X172373656Y-103245977D01*
X172354773Y-103510000D01*
X172373656Y-103774022D01*
X172429923Y-104032678D01*
X172522426Y-104280688D01*
X172522427Y-104280692D01*
X172641748Y-104499210D01*
X172649284Y-104513011D01*
X172732878Y-104624680D01*
X172792624Y-104704491D01*
X172817435Y-104771011D01*
X172802343Y-104840385D01*
X172792624Y-104855509D01*
X172649282Y-105046991D01*
X172522427Y-105279307D01*
X172522426Y-105279311D01*
X172429923Y-105527321D01*
X172373656Y-105785977D01*
X172354773Y-106050000D01*
X146717179Y-106050000D01*
X147263002Y-105504177D01*
X147266314Y-105500985D01*
X147336805Y-105435581D01*
X147396747Y-105360414D01*
X147399673Y-105356882D01*
X147462398Y-105283997D01*
X147476125Y-105262148D01*
X147484303Y-105250623D01*
X147500386Y-105230457D01*
X147548434Y-105147233D01*
X147550860Y-105143208D01*
X147601979Y-105061854D01*
X147601979Y-105061851D01*
X147601983Y-105061847D01*
X147612307Y-105038181D01*
X147618664Y-105025591D01*
X147631568Y-105003243D01*
X147666678Y-104913782D01*
X147668469Y-104909458D01*
X147671119Y-104903384D01*
X147706900Y-104821375D01*
X147713578Y-104796448D01*
X147717991Y-104783038D01*
X147727420Y-104759016D01*
X147748806Y-104665314D01*
X147749929Y-104660785D01*
X147755806Y-104638853D01*
X147788417Y-104582372D01*
X148105638Y-104265149D01*
X148130507Y-104349844D01*
X148208239Y-104470798D01*
X148316900Y-104564952D01*
X148447685Y-104624680D01*
X148462412Y-104626797D01*
X147895138Y-105194070D01*
X147895138Y-105194072D01*
X147956582Y-105237095D01*
X147956583Y-105237096D01*
X148156718Y-105330420D01*
X148156723Y-105330422D01*
X148370020Y-105387574D01*
X148590000Y-105406820D01*
X148809979Y-105387574D01*
X149023276Y-105330422D01*
X149023281Y-105330420D01*
X149223406Y-105237101D01*
X149284860Y-105194070D01*
X149284860Y-105194069D01*
X148717588Y-104626797D01*
X148732315Y-104624680D01*
X148863100Y-104564952D01*
X148971761Y-104470798D01*
X149049493Y-104349844D01*
X149074361Y-104265150D01*
X149418147Y-104608936D01*
X149445732Y-104654716D01*
X149447024Y-104654210D01*
X149448745Y-104658597D01*
X149448746Y-104658598D01*
X149451391Y-104665337D01*
X149544813Y-104903377D01*
X149544815Y-104903381D01*
X149676296Y-105131113D01*
X149676298Y-105131116D01*
X149676299Y-105131117D01*
X149689162Y-105147247D01*
X149840257Y-105336714D01*
X149946812Y-105435581D01*
X150033020Y-105515570D01*
X150033026Y-105515574D01*
X150250280Y-105663696D01*
X150250287Y-105663700D01*
X150250290Y-105663702D01*
X150487212Y-105777798D01*
X150707907Y-105845873D01*
X150738485Y-105855306D01*
X150738492Y-105855308D01*
X150998518Y-105894500D01*
X150998522Y-105894500D01*
X151261478Y-105894500D01*
X151261482Y-105894500D01*
X151521508Y-105855308D01*
X151772788Y-105777798D01*
X152009710Y-105663702D01*
X152226980Y-105515570D01*
X152396133Y-105358620D01*
X152419742Y-105336714D01*
X152419742Y-105336712D01*
X152419746Y-105336710D01*
X152583701Y-105131117D01*
X152715183Y-104903384D01*
X152733973Y-104855509D01*
X152759832Y-104789620D01*
X152811254Y-104658598D01*
X152869769Y-104402228D01*
X152889420Y-104140000D01*
X152869769Y-103877772D01*
X152811254Y-103621402D01*
X152767532Y-103510000D01*
X152715186Y-103376622D01*
X152715184Y-103376618D01*
X152583703Y-103148886D01*
X152465782Y-103001018D01*
X152419746Y-102943290D01*
X152419745Y-102943289D01*
X152419742Y-102943285D01*
X152226985Y-102764435D01*
X152226980Y-102764430D01*
X152226973Y-102764425D01*
X152009719Y-102616303D01*
X152009712Y-102616299D01*
X151772793Y-102502204D01*
X151772790Y-102502203D01*
X151772788Y-102502202D01*
X151684896Y-102475090D01*
X151521514Y-102424693D01*
X151521509Y-102424692D01*
X151521508Y-102424692D01*
X151261482Y-102385500D01*
X150998518Y-102385500D01*
X150738492Y-102424692D01*
X150738491Y-102424692D01*
X150738485Y-102424693D01*
X150487206Y-102502204D01*
X150250287Y-102616299D01*
X150250280Y-102616303D01*
X150033026Y-102764425D01*
X150033014Y-102764435D01*
X149840257Y-102943285D01*
X149676296Y-103148886D01*
X149544815Y-103376618D01*
X149544813Y-103376622D01*
X149447024Y-103625790D01*
X149445740Y-103625286D01*
X149418148Y-103671060D01*
X149074360Y-104014848D01*
X149049493Y-103930156D01*
X148971761Y-103809202D01*
X148863100Y-103715048D01*
X148732315Y-103655320D01*
X148717586Y-103653202D01*
X149284860Y-103085928D01*
X149223412Y-103042902D01*
X149023281Y-102949579D01*
X149023276Y-102949577D01*
X148809979Y-102892425D01*
X148590000Y-102873179D01*
X148370020Y-102892425D01*
X148156723Y-102949577D01*
X148156718Y-102949579D01*
X147956586Y-103042902D01*
X147895139Y-103085927D01*
X147895139Y-103085928D01*
X148462413Y-103653202D01*
X148447685Y-103655320D01*
X148316900Y-103715048D01*
X148208239Y-103809202D01*
X148130507Y-103930156D01*
X148105638Y-104014849D01*
X147761853Y-103671064D01*
X147734274Y-103625281D01*
X147732977Y-103625791D01*
X147635186Y-103376622D01*
X147635184Y-103376618D01*
X147503703Y-103148886D01*
X147385782Y-103001018D01*
X147339746Y-102943290D01*
X147339745Y-102943289D01*
X147339742Y-102943285D01*
X147146985Y-102764435D01*
X147146980Y-102764430D01*
X147146973Y-102764425D01*
X146929719Y-102616303D01*
X146929712Y-102616299D01*
X146692793Y-102502204D01*
X146692790Y-102502203D01*
X146692788Y-102502202D01*
X146604896Y-102475090D01*
X146441514Y-102424693D01*
X146441509Y-102424692D01*
X146441508Y-102424692D01*
X146181482Y-102385500D01*
X145918518Y-102385500D01*
X145658492Y-102424692D01*
X145658491Y-102424692D01*
X145658485Y-102424693D01*
X145407206Y-102502204D01*
X145170287Y-102616299D01*
X145170280Y-102616303D01*
X144953023Y-102764427D01*
X144865701Y-102845449D01*
X144802159Y-102877120D01*
X144731583Y-102869410D01*
X144694299Y-102845449D01*
X144606985Y-102764435D01*
X144606980Y-102764430D01*
X144606973Y-102764425D01*
X144389719Y-102616303D01*
X144389712Y-102616299D01*
X144152793Y-102502204D01*
X144152790Y-102502203D01*
X144152788Y-102502202D01*
X144064896Y-102475090D01*
X143901514Y-102424693D01*
X143901509Y-102424692D01*
X143901508Y-102424692D01*
X143641482Y-102385500D01*
X143378518Y-102385500D01*
X143118492Y-102424692D01*
X143118491Y-102424692D01*
X143118485Y-102424693D01*
X142867206Y-102502204D01*
X142630287Y-102616299D01*
X142630280Y-102616303D01*
X142413023Y-102764427D01*
X142325701Y-102845449D01*
X142262159Y-102877120D01*
X142191583Y-102869410D01*
X142154299Y-102845449D01*
X142066985Y-102764435D01*
X142066980Y-102764430D01*
X142066973Y-102764425D01*
X141849719Y-102616303D01*
X141849712Y-102616299D01*
X141612793Y-102502204D01*
X141612790Y-102502203D01*
X141612788Y-102502202D01*
X141524896Y-102475090D01*
X141361514Y-102424693D01*
X141361509Y-102424692D01*
X141361508Y-102424692D01*
X141101482Y-102385500D01*
X140838518Y-102385500D01*
X140578492Y-102424692D01*
X140578491Y-102424692D01*
X140578485Y-102424693D01*
X140327206Y-102502204D01*
X140090287Y-102616299D01*
X140090280Y-102616303D01*
X139873023Y-102764427D01*
X139785701Y-102845449D01*
X139722159Y-102877120D01*
X139651583Y-102869410D01*
X139614299Y-102845449D01*
X139526985Y-102764435D01*
X139526980Y-102764430D01*
X139526973Y-102764425D01*
X139309719Y-102616303D01*
X139309712Y-102616299D01*
X139072793Y-102502204D01*
X139072790Y-102502203D01*
X139072788Y-102502202D01*
X138984896Y-102475090D01*
X138821514Y-102424693D01*
X138821509Y-102424692D01*
X138821508Y-102424692D01*
X138561482Y-102385500D01*
X138298518Y-102385500D01*
X138038492Y-102424692D01*
X138038491Y-102424692D01*
X138038485Y-102424693D01*
X137787206Y-102502204D01*
X137550287Y-102616299D01*
X137550280Y-102616303D01*
X137333023Y-102764427D01*
X137245701Y-102845449D01*
X137182159Y-102877120D01*
X137111583Y-102869410D01*
X137074299Y-102845449D01*
X136986985Y-102764435D01*
X136986980Y-102764430D01*
X136986973Y-102764425D01*
X136769719Y-102616303D01*
X136769712Y-102616299D01*
X136532793Y-102502204D01*
X136532790Y-102502203D01*
X136532788Y-102502202D01*
X136444896Y-102475090D01*
X136281514Y-102424693D01*
X136281509Y-102424692D01*
X136281508Y-102424692D01*
X136021482Y-102385500D01*
X135758518Y-102385500D01*
X135498492Y-102424692D01*
X135498491Y-102424692D01*
X135498485Y-102424693D01*
X135247206Y-102502204D01*
X135010287Y-102616299D01*
X135010280Y-102616303D01*
X134793026Y-102764425D01*
X134793014Y-102764435D01*
X134600256Y-102943287D01*
X134600253Y-102943290D01*
X134586742Y-102960232D01*
X134528630Y-103001018D01*
X134457692Y-103003911D01*
X134412725Y-102982537D01*
X134349965Y-102935555D01*
X134213093Y-102884505D01*
X134152597Y-102878000D01*
X133604000Y-102878000D01*
X133604000Y-103706325D01*
X133492315Y-103655320D01*
X133385763Y-103640000D01*
X133314237Y-103640000D01*
X133207685Y-103655320D01*
X133096000Y-103706325D01*
X133096000Y-102878000D01*
X132547402Y-102878000D01*
X132486906Y-102884505D01*
X132350035Y-102935555D01*
X132350034Y-102935555D01*
X132233095Y-103023095D01*
X132145555Y-103140034D01*
X132145555Y-103140035D01*
X132094505Y-103276906D01*
X132088000Y-103337402D01*
X132088000Y-103886000D01*
X132918884Y-103886000D01*
X132890507Y-103930156D01*
X132850000Y-104068111D01*
X132850000Y-104211889D01*
X132890507Y-104349844D01*
X132918884Y-104394000D01*
X132088000Y-104394000D01*
X132088000Y-104942597D01*
X132094505Y-105003093D01*
X132145555Y-105139964D01*
X132145555Y-105139965D01*
X132233095Y-105256904D01*
X132350034Y-105344444D01*
X132486906Y-105395494D01*
X132547402Y-105401999D01*
X132547415Y-105402000D01*
X133096000Y-105402000D01*
X133096000Y-104573674D01*
X133207685Y-104624680D01*
X133314237Y-104640000D01*
X133385763Y-104640000D01*
X133492315Y-104624680D01*
X133604000Y-104573674D01*
X133604000Y-105402000D01*
X134152585Y-105402000D01*
X134152597Y-105401999D01*
X134213093Y-105395494D01*
X134349963Y-105344445D01*
X134412724Y-105297462D01*
X134479244Y-105272651D01*
X134548618Y-105287742D01*
X134586747Y-105319773D01*
X134599907Y-105336276D01*
X134626739Y-105402007D01*
X134613776Y-105471810D01*
X134590489Y-105503928D01*
X125197421Y-114896996D01*
X125194029Y-114900264D01*
X125123598Y-114965615D01*
X125123587Y-114965628D01*
X125063701Y-115040722D01*
X125060697Y-115044349D01*
X124998003Y-115117202D01*
X124997992Y-115117216D01*
X124984268Y-115139057D01*
X124976101Y-115150568D01*
X124960015Y-115170741D01*
X124960010Y-115170747D01*
X124911965Y-115253963D01*
X124909535Y-115257996D01*
X124858419Y-115339348D01*
X124848101Y-115362997D01*
X124841736Y-115375605D01*
X124828831Y-115397958D01*
X124793721Y-115487415D01*
X124791919Y-115491766D01*
X124753497Y-115579831D01*
X124746821Y-115604746D01*
X124742408Y-115618158D01*
X124732980Y-115642181D01*
X124711593Y-115735882D01*
X124710459Y-115740453D01*
X124685595Y-115833247D01*
X124685594Y-115833253D01*
X124682707Y-115858881D01*
X124680340Y-115872809D01*
X124674599Y-115897961D01*
X124674597Y-115897977D01*
X124671075Y-115944963D01*
X124657110Y-115993880D01*
X124601491Y-116100359D01*
X124593807Y-116127214D01*
X124545514Y-116295992D01*
X124543496Y-116318696D01*
X124534900Y-116415375D01*
X124534900Y-118281437D01*
X117384440Y-118281437D01*
X117384440Y-91440000D01*
X131590580Y-91440000D01*
X131610231Y-91702231D01*
X131668746Y-91958599D01*
X131668747Y-91958602D01*
X131764813Y-92203377D01*
X131764815Y-92203381D01*
X131896296Y-92431113D01*
X132060257Y-92636714D01*
X132165701Y-92734550D01*
X132253020Y-92815570D01*
X132253026Y-92815574D01*
X132470280Y-92963696D01*
X132470287Y-92963700D01*
X132470290Y-92963702D01*
X132707212Y-93077798D01*
X132927907Y-93145873D01*
X132958485Y-93155306D01*
X132958492Y-93155308D01*
X133218518Y-93194500D01*
X133218522Y-93194500D01*
X133481478Y-93194500D01*
X133481482Y-93194500D01*
X133741508Y-93155308D01*
X133992788Y-93077798D01*
X134229710Y-92963702D01*
X134446980Y-92815570D01*
X134534299Y-92734549D01*
X134597839Y-92702879D01*
X134668416Y-92710588D01*
X134705699Y-92734548D01*
X134793020Y-92815570D01*
X134793026Y-92815574D01*
X135010280Y-92963696D01*
X135010287Y-92963700D01*
X135010290Y-92963702D01*
X135247212Y-93077798D01*
X135467907Y-93145873D01*
X135498485Y-93155306D01*
X135498492Y-93155308D01*
X135758518Y-93194500D01*
X135758522Y-93194500D01*
X136021478Y-93194500D01*
X136021482Y-93194500D01*
X136281508Y-93155308D01*
X136532788Y-93077798D01*
X136769710Y-92963702D01*
X136986980Y-92815570D01*
X137074299Y-92734549D01*
X137137839Y-92702879D01*
X137208416Y-92710588D01*
X137245699Y-92734548D01*
X137333020Y-92815570D01*
X137333026Y-92815574D01*
X137550280Y-92963696D01*
X137550287Y-92963700D01*
X137550290Y-92963702D01*
X137787212Y-93077798D01*
X138007907Y-93145873D01*
X138038485Y-93155306D01*
X138038492Y-93155308D01*
X138298518Y-93194500D01*
X138298522Y-93194500D01*
X138561478Y-93194500D01*
X138561482Y-93194500D01*
X138821508Y-93155308D01*
X139072788Y-93077798D01*
X139309710Y-92963702D01*
X139526980Y-92815570D01*
X139614299Y-92734549D01*
X139677839Y-92702879D01*
X139748416Y-92710588D01*
X139785699Y-92734548D01*
X139873020Y-92815570D01*
X139873026Y-92815574D01*
X140090280Y-92963696D01*
X140090287Y-92963700D01*
X140090290Y-92963702D01*
X140327212Y-93077798D01*
X140547907Y-93145873D01*
X140578485Y-93155306D01*
X140578492Y-93155308D01*
X140838518Y-93194500D01*
X140838522Y-93194500D01*
X141101478Y-93194500D01*
X141101482Y-93194500D01*
X141361508Y-93155308D01*
X141612788Y-93077798D01*
X141849710Y-92963702D01*
X142066980Y-92815570D01*
X142154299Y-92734549D01*
X142217839Y-92702879D01*
X142288416Y-92710588D01*
X142325699Y-92734548D01*
X142413020Y-92815570D01*
X142413026Y-92815574D01*
X142630280Y-92963696D01*
X142630287Y-92963700D01*
X142630290Y-92963702D01*
X142867212Y-93077798D01*
X143087907Y-93145873D01*
X143118485Y-93155306D01*
X143118492Y-93155308D01*
X143378518Y-93194500D01*
X143378522Y-93194500D01*
X143641478Y-93194500D01*
X143641482Y-93194500D01*
X143901508Y-93155308D01*
X144152788Y-93077798D01*
X144389710Y-92963702D01*
X144606980Y-92815570D01*
X144694299Y-92734549D01*
X144757839Y-92702879D01*
X144828416Y-92710588D01*
X144865699Y-92734548D01*
X144953020Y-92815570D01*
X144953026Y-92815574D01*
X145170280Y-92963696D01*
X145170287Y-92963700D01*
X145170290Y-92963702D01*
X145407212Y-93077798D01*
X145627907Y-93145873D01*
X145658485Y-93155306D01*
X145658492Y-93155308D01*
X145918518Y-93194500D01*
X145918522Y-93194500D01*
X146181478Y-93194500D01*
X146181482Y-93194500D01*
X146441508Y-93155308D01*
X146692788Y-93077798D01*
X146929710Y-92963702D01*
X147146980Y-92815570D01*
X147234299Y-92734549D01*
X147297839Y-92702879D01*
X147368416Y-92710588D01*
X147405699Y-92734548D01*
X147493020Y-92815570D01*
X147493026Y-92815574D01*
X147710280Y-92963696D01*
X147710287Y-92963700D01*
X147710290Y-92963702D01*
X147947212Y-93077798D01*
X148167907Y-93145873D01*
X148198485Y-93155306D01*
X148198492Y-93155308D01*
X148458518Y-93194500D01*
X148458522Y-93194500D01*
X148721478Y-93194500D01*
X148721482Y-93194500D01*
X148981508Y-93155308D01*
X149232788Y-93077798D01*
X149407970Y-92993434D01*
X149478019Y-92981900D01*
X149543188Y-93010069D01*
X149582783Y-93068999D01*
X149584231Y-93139981D01*
X149571756Y-93169956D01*
X149544813Y-93216622D01*
X149448747Y-93461397D01*
X149448746Y-93461400D01*
X149390231Y-93717768D01*
X149370580Y-93980000D01*
X149390231Y-94242231D01*
X149448746Y-94498599D01*
X149448747Y-94498602D01*
X149544813Y-94743377D01*
X149544815Y-94743381D01*
X149676296Y-94971113D01*
X149676301Y-94971119D01*
X149836051Y-95171441D01*
X149862885Y-95237171D01*
X149849923Y-95306974D01*
X149836051Y-95328559D01*
X149676301Y-95528880D01*
X149676296Y-95528886D01*
X149544815Y-95756618D01*
X149544813Y-95756622D01*
X149448747Y-96001397D01*
X149448746Y-96001400D01*
X149390231Y-96257768D01*
X149370580Y-96520000D01*
X149390231Y-96782231D01*
X149448746Y-97038599D01*
X149448747Y-97038602D01*
X149544813Y-97283377D01*
X149544815Y-97283381D01*
X149676296Y-97511113D01*
X149840257Y-97716714D01*
X149973992Y-97840800D01*
X150033020Y-97895570D01*
X150033026Y-97895574D01*
X150250280Y-98043696D01*
X150250287Y-98043700D01*
X150250290Y-98043702D01*
X150487212Y-98157798D01*
X150707907Y-98225873D01*
X150738485Y-98235306D01*
X150738492Y-98235308D01*
X150998518Y-98274500D01*
X150998522Y-98274500D01*
X151261478Y-98274500D01*
X151261482Y-98274500D01*
X151521508Y-98235308D01*
X151772788Y-98157798D01*
X151903604Y-98094800D01*
X163965045Y-98094800D01*
X163965141Y-98096080D01*
X164022105Y-98345654D01*
X164022106Y-98345656D01*
X164115626Y-98583944D01*
X164115628Y-98583948D01*
X164243624Y-98805644D01*
X164403237Y-99005792D01*
X164590895Y-99179912D01*
X164590894Y-99179912D01*
X164802410Y-99324121D01*
X164802411Y-99324122D01*
X165033039Y-99435186D01*
X165277662Y-99510644D01*
X165277668Y-99510645D01*
X165404800Y-99529807D01*
X165404800Y-98385024D01*
X165502169Y-98425356D01*
X165619477Y-98440800D01*
X165698123Y-98440800D01*
X165815431Y-98425356D01*
X165912800Y-98385024D01*
X165912800Y-99529807D01*
X166039931Y-99510645D01*
X166039941Y-99510643D01*
X166284546Y-99435192D01*
X166284553Y-99435189D01*
X166515189Y-99324122D01*
X166515190Y-99324121D01*
X166726704Y-99179912D01*
X166914362Y-99005792D01*
X167073975Y-98805644D01*
X167201971Y-98583948D01*
X167201973Y-98583944D01*
X167295493Y-98345656D01*
X167295494Y-98345654D01*
X167352458Y-98096080D01*
X167352555Y-98094800D01*
X166203025Y-98094800D01*
X166243356Y-97997431D01*
X166263977Y-97840800D01*
X166243356Y-97684169D01*
X166203025Y-97586800D01*
X167352554Y-97586800D01*
X167352458Y-97585519D01*
X167295494Y-97335945D01*
X167295493Y-97335943D01*
X167201973Y-97097655D01*
X167201971Y-97097651D01*
X167073975Y-96875955D01*
X166914362Y-96675807D01*
X166726704Y-96501687D01*
X166726705Y-96501687D01*
X166515190Y-96357478D01*
X166515189Y-96357477D01*
X166284553Y-96246410D01*
X166284546Y-96246407D01*
X166039935Y-96170954D01*
X165912800Y-96151791D01*
X165912800Y-97296575D01*
X165815431Y-97256244D01*
X165698123Y-97240800D01*
X165619477Y-97240800D01*
X165502169Y-97256244D01*
X165404800Y-97296575D01*
X165404800Y-96151791D01*
X165277666Y-96170954D01*
X165033039Y-96246413D01*
X164802411Y-96357477D01*
X164802410Y-96357478D01*
X164590895Y-96501687D01*
X164403237Y-96675807D01*
X164243624Y-96875955D01*
X164115628Y-97097651D01*
X164115626Y-97097655D01*
X164022106Y-97335943D01*
X164022105Y-97335945D01*
X163965141Y-97585519D01*
X163965045Y-97586800D01*
X165114575Y-97586800D01*
X165074244Y-97684169D01*
X165053623Y-97840800D01*
X165074244Y-97997431D01*
X165114575Y-98094800D01*
X163965045Y-98094800D01*
X151903604Y-98094800D01*
X152009710Y-98043702D01*
X152226980Y-97895570D01*
X152419746Y-97716710D01*
X152583701Y-97511117D01*
X152715183Y-97283384D01*
X152811254Y-97038598D01*
X152869769Y-96782228D01*
X152889420Y-96520000D01*
X152869769Y-96257772D01*
X152811254Y-96001402D01*
X152787469Y-95940798D01*
X152715186Y-95756622D01*
X152715184Y-95756618D01*
X152630534Y-95610000D01*
X154207260Y-95610000D01*
X154226188Y-95838419D01*
X154282451Y-96060596D01*
X154374519Y-96270490D01*
X154453859Y-96391929D01*
X155110638Y-95735150D01*
X155135507Y-95819844D01*
X155213239Y-95940798D01*
X155321900Y-96034952D01*
X155452685Y-96094680D01*
X155467410Y-96096797D01*
X154811495Y-96752712D01*
X154835976Y-96771767D01*
X154835981Y-96771770D01*
X155037551Y-96880855D01*
X155037554Y-96880856D01*
X155254325Y-96955274D01*
X155254334Y-96955276D01*
X155480405Y-96993000D01*
X155709595Y-96993000D01*
X155935665Y-96955276D01*
X155935674Y-96955274D01*
X156152441Y-96880857D01*
X156153457Y-96880308D01*
X156153922Y-96880208D01*
X156157220Y-96878762D01*
X156157517Y-96879440D01*
X156222885Y-96865467D01*
X156289315Y-96890518D01*
X156325124Y-96932775D01*
X156336877Y-96955274D01*
X156380302Y-97038407D01*
X156508891Y-97196109D01*
X156666593Y-97324698D01*
X156846951Y-97418909D01*
X157042582Y-97474886D01*
X157161963Y-97485500D01*
X159028036Y-97485499D01*
X159147418Y-97474886D01*
X159343049Y-97418909D01*
X159523407Y-97324698D01*
X159681109Y-97196109D01*
X159809698Y-97038407D01*
X159903909Y-96858049D01*
X159959886Y-96662418D01*
X159970500Y-96543037D01*
X159970499Y-94676964D01*
X159959886Y-94557582D01*
X159903909Y-94361951D01*
X159809698Y-94181593D01*
X159681109Y-94023891D01*
X159523407Y-93895302D01*
X159523405Y-93895301D01*
X159523404Y-93895300D01*
X159343051Y-93801092D01*
X159343050Y-93801091D01*
X159343049Y-93801091D01*
X159147418Y-93745114D01*
X159028037Y-93734500D01*
X159028032Y-93734500D01*
X157161972Y-93734500D01*
X157161962Y-93734501D01*
X157042588Y-93745113D01*
X157042585Y-93745113D01*
X157042582Y-93745114D01*
X156846951Y-93801091D01*
X156846948Y-93801092D01*
X156666595Y-93895300D01*
X156508891Y-94023891D01*
X156380300Y-94181595D01*
X156325124Y-94287224D01*
X156275855Y-94338343D01*
X156206771Y-94354709D01*
X156157408Y-94340807D01*
X156157220Y-94341238D01*
X156154141Y-94339887D01*
X156153472Y-94339699D01*
X156152447Y-94339144D01*
X156152445Y-94339143D01*
X155935674Y-94264725D01*
X155935665Y-94264723D01*
X155709595Y-94227000D01*
X155480405Y-94227000D01*
X155254334Y-94264723D01*
X155254325Y-94264725D01*
X155037554Y-94339143D01*
X155037551Y-94339144D01*
X154835978Y-94448230D01*
X154835969Y-94448236D01*
X154811496Y-94467285D01*
X154811496Y-94467286D01*
X155467413Y-95123202D01*
X155452685Y-95125320D01*
X155321900Y-95185048D01*
X155213239Y-95279202D01*
X155135507Y-95400156D01*
X155110639Y-95484848D01*
X154453859Y-94828068D01*
X154453858Y-94828069D01*
X154374523Y-94949500D01*
X154374519Y-94949508D01*
X154282451Y-95159403D01*
X154226188Y-95381580D01*
X154207260Y-95610000D01*
X152630534Y-95610000D01*
X152583703Y-95528886D01*
X152583701Y-95528883D01*
X152423947Y-95328558D01*
X152397114Y-95262830D01*
X152410076Y-95193026D01*
X152423945Y-95171444D01*
X152583701Y-94971117D01*
X152715183Y-94743384D01*
X152811254Y-94498598D01*
X152869769Y-94242228D01*
X152889420Y-93980000D01*
X152869769Y-93717772D01*
X152811254Y-93461402D01*
X152759574Y-93329722D01*
X152715186Y-93216622D01*
X152715184Y-93216618D01*
X152583703Y-92988886D01*
X152563619Y-92963702D01*
X152419746Y-92783290D01*
X152419745Y-92783289D01*
X152419742Y-92783285D01*
X152226985Y-92604435D01*
X152226980Y-92604430D01*
X152226973Y-92604425D01*
X152009719Y-92456303D01*
X152009712Y-92456299D01*
X151772793Y-92342204D01*
X151772790Y-92342203D01*
X151772788Y-92342202D01*
X151658336Y-92306898D01*
X151606381Y-92275591D01*
X151257587Y-91926797D01*
X151272315Y-91924680D01*
X151403100Y-91864952D01*
X151511761Y-91770798D01*
X151589493Y-91649844D01*
X151614360Y-91565151D01*
X152184069Y-92134860D01*
X152184070Y-92134860D01*
X152208199Y-92100400D01*
X167419445Y-92100400D01*
X167419541Y-92101680D01*
X167476505Y-92351254D01*
X167476506Y-92351256D01*
X167570026Y-92589544D01*
X167570028Y-92589548D01*
X167698024Y-92811244D01*
X167857637Y-93011392D01*
X168045295Y-93185512D01*
X168045294Y-93185512D01*
X168256810Y-93329721D01*
X168256811Y-93329722D01*
X168487439Y-93440786D01*
X168732062Y-93516244D01*
X168732068Y-93516245D01*
X168859200Y-93535407D01*
X168859200Y-92390624D01*
X168956569Y-92430956D01*
X169073877Y-92446400D01*
X169152523Y-92446400D01*
X169269831Y-92430956D01*
X169367200Y-92390624D01*
X169367200Y-93535407D01*
X169494331Y-93516245D01*
X169494341Y-93516243D01*
X169738946Y-93440792D01*
X169738953Y-93440789D01*
X169969589Y-93329722D01*
X169969590Y-93329721D01*
X170181104Y-93185512D01*
X170368762Y-93011392D01*
X170528375Y-92811244D01*
X170656371Y-92589548D01*
X170656373Y-92589544D01*
X170749893Y-92351256D01*
X170749894Y-92351254D01*
X170806858Y-92101680D01*
X170806955Y-92100400D01*
X169657425Y-92100400D01*
X169697756Y-92003031D01*
X169718377Y-91846400D01*
X169697756Y-91689769D01*
X169657425Y-91592400D01*
X170806954Y-91592400D01*
X170806858Y-91591119D01*
X170749894Y-91341545D01*
X170749893Y-91341543D01*
X170656373Y-91103255D01*
X170656371Y-91103251D01*
X170528375Y-90881555D01*
X170368762Y-90681407D01*
X170181104Y-90507287D01*
X170181105Y-90507287D01*
X169969590Y-90363078D01*
X169969589Y-90363077D01*
X169738953Y-90252010D01*
X169738946Y-90252007D01*
X169494335Y-90176554D01*
X169367200Y-90157391D01*
X169367200Y-91302175D01*
X169269831Y-91261844D01*
X169152523Y-91246400D01*
X169073877Y-91246400D01*
X168956569Y-91261844D01*
X168859200Y-91302175D01*
X168859200Y-90157391D01*
X168732066Y-90176554D01*
X168487439Y-90252013D01*
X168256811Y-90363077D01*
X168256810Y-90363078D01*
X168045295Y-90507287D01*
X167857637Y-90681407D01*
X167698024Y-90881555D01*
X167570028Y-91103251D01*
X167570026Y-91103255D01*
X167476506Y-91341543D01*
X167476505Y-91341545D01*
X167419541Y-91591119D01*
X167419445Y-91592400D01*
X168568975Y-91592400D01*
X168528644Y-91689769D01*
X168508023Y-91846400D01*
X168528644Y-92003031D01*
X168568975Y-92100400D01*
X167419445Y-92100400D01*
X152208199Y-92100400D01*
X152227101Y-92073406D01*
X152320420Y-91873281D01*
X152320422Y-91873276D01*
X152377574Y-91659979D01*
X152396820Y-91440000D01*
X152377574Y-91220020D01*
X152320422Y-91006723D01*
X152320420Y-91006718D01*
X152227099Y-90806590D01*
X152184069Y-90745139D01*
X151614360Y-91314848D01*
X151589493Y-91230156D01*
X151511761Y-91109202D01*
X151403100Y-91015048D01*
X151272315Y-90955320D01*
X151257586Y-90953202D01*
X151824860Y-90385928D01*
X151763412Y-90342902D01*
X151563281Y-90249579D01*
X151563276Y-90249577D01*
X151349979Y-90192425D01*
X151130000Y-90173179D01*
X150910020Y-90192425D01*
X150696723Y-90249577D01*
X150696718Y-90249579D01*
X150496586Y-90342902D01*
X150435139Y-90385927D01*
X150435139Y-90385928D01*
X151002413Y-90953202D01*
X150987685Y-90955320D01*
X150856900Y-91015048D01*
X150748239Y-91109202D01*
X150670507Y-91230156D01*
X150645639Y-91314849D01*
X150301853Y-90971063D01*
X150274274Y-90925281D01*
X150272977Y-90925791D01*
X150175186Y-90676622D01*
X150175184Y-90676618D01*
X150043703Y-90448886D01*
X149879742Y-90243285D01*
X149686985Y-90064435D01*
X149686980Y-90064430D01*
X149686973Y-90064425D01*
X149469719Y-89916303D01*
X149469712Y-89916299D01*
X149232793Y-89802204D01*
X149232790Y-89802203D01*
X149232788Y-89802202D01*
X149144896Y-89775090D01*
X148981514Y-89724693D01*
X148981509Y-89724692D01*
X148981508Y-89724692D01*
X148721482Y-89685500D01*
X148458518Y-89685500D01*
X148198492Y-89724692D01*
X148198491Y-89724692D01*
X148198485Y-89724693D01*
X147947206Y-89802204D01*
X147710287Y-89916299D01*
X147710280Y-89916303D01*
X147493023Y-90064427D01*
X147405701Y-90145449D01*
X147342159Y-90177120D01*
X147271583Y-90169410D01*
X147234299Y-90145449D01*
X147146985Y-90064435D01*
X147146980Y-90064430D01*
X147146973Y-90064425D01*
X146929719Y-89916303D01*
X146929712Y-89916299D01*
X146692793Y-89802204D01*
X146692790Y-89802203D01*
X146692788Y-89802202D01*
X146604896Y-89775090D01*
X146441514Y-89724693D01*
X146441509Y-89724692D01*
X146441508Y-89724692D01*
X146181482Y-89685500D01*
X145918518Y-89685500D01*
X145658492Y-89724692D01*
X145658491Y-89724692D01*
X145658485Y-89724693D01*
X145407206Y-89802204D01*
X145170287Y-89916299D01*
X145170280Y-89916303D01*
X144953023Y-90064427D01*
X144865701Y-90145449D01*
X144802159Y-90177120D01*
X144731583Y-90169410D01*
X144694299Y-90145449D01*
X144606985Y-90064435D01*
X144606980Y-90064430D01*
X144606973Y-90064425D01*
X144389719Y-89916303D01*
X144389712Y-89916299D01*
X144152793Y-89802204D01*
X144152790Y-89802203D01*
X144152788Y-89802202D01*
X144064896Y-89775090D01*
X143901514Y-89724693D01*
X143901509Y-89724692D01*
X143901508Y-89724692D01*
X143641482Y-89685500D01*
X143378518Y-89685500D01*
X143118492Y-89724692D01*
X143118491Y-89724692D01*
X143118485Y-89724693D01*
X142867206Y-89802204D01*
X142630287Y-89916299D01*
X142630280Y-89916303D01*
X142413023Y-90064427D01*
X142325701Y-90145449D01*
X142262159Y-90177120D01*
X142191583Y-90169410D01*
X142154299Y-90145449D01*
X142066985Y-90064435D01*
X142066980Y-90064430D01*
X142066973Y-90064425D01*
X141849719Y-89916303D01*
X141849712Y-89916299D01*
X141612793Y-89802204D01*
X141612790Y-89802203D01*
X141612788Y-89802202D01*
X141524896Y-89775090D01*
X141361514Y-89724693D01*
X141361509Y-89724692D01*
X141361508Y-89724692D01*
X141101482Y-89685500D01*
X140838518Y-89685500D01*
X140578492Y-89724692D01*
X140578491Y-89724692D01*
X140578485Y-89724693D01*
X140327206Y-89802204D01*
X140090287Y-89916299D01*
X140090280Y-89916303D01*
X139873023Y-90064427D01*
X139785701Y-90145449D01*
X139722159Y-90177120D01*
X139651583Y-90169410D01*
X139614299Y-90145449D01*
X139526985Y-90064435D01*
X139526980Y-90064430D01*
X139526973Y-90064425D01*
X139309719Y-89916303D01*
X139309712Y-89916299D01*
X139072793Y-89802204D01*
X139072790Y-89802203D01*
X139072788Y-89802202D01*
X138984896Y-89775090D01*
X138821514Y-89724693D01*
X138821509Y-89724692D01*
X138821508Y-89724692D01*
X138561482Y-89685500D01*
X138298518Y-89685500D01*
X138038492Y-89724692D01*
X138038491Y-89724692D01*
X138038485Y-89724693D01*
X137787206Y-89802204D01*
X137550287Y-89916299D01*
X137550280Y-89916303D01*
X137333023Y-90064427D01*
X137245701Y-90145449D01*
X137182159Y-90177120D01*
X137111583Y-90169410D01*
X137074299Y-90145449D01*
X136986985Y-90064435D01*
X136986980Y-90064430D01*
X136986973Y-90064425D01*
X136769719Y-89916303D01*
X136769712Y-89916299D01*
X136532793Y-89802204D01*
X136532790Y-89802203D01*
X136532788Y-89802202D01*
X136444896Y-89775090D01*
X136281514Y-89724693D01*
X136281509Y-89724692D01*
X136281508Y-89724692D01*
X136021482Y-89685500D01*
X135758518Y-89685500D01*
X135498492Y-89724692D01*
X135498491Y-89724692D01*
X135498485Y-89724693D01*
X135247206Y-89802204D01*
X135010287Y-89916299D01*
X135010280Y-89916303D01*
X134793023Y-90064427D01*
X134705701Y-90145449D01*
X134642159Y-90177120D01*
X134571583Y-90169410D01*
X134534299Y-90145449D01*
X134446985Y-90064435D01*
X134446980Y-90064430D01*
X134446973Y-90064425D01*
X134229719Y-89916303D01*
X134229712Y-89916299D01*
X133992793Y-89802204D01*
X133992790Y-89802203D01*
X133992788Y-89802202D01*
X133904896Y-89775090D01*
X133741514Y-89724693D01*
X133741509Y-89724692D01*
X133741508Y-89724692D01*
X133481482Y-89685500D01*
X133218518Y-89685500D01*
X132958492Y-89724692D01*
X132958491Y-89724692D01*
X132958485Y-89724693D01*
X132707206Y-89802204D01*
X132470287Y-89916299D01*
X132470280Y-89916303D01*
X132253026Y-90064425D01*
X132253014Y-90064435D01*
X132060257Y-90243285D01*
X131896296Y-90448886D01*
X131764815Y-90676618D01*
X131764813Y-90676622D01*
X131668747Y-90921397D01*
X131668746Y-90921400D01*
X131610231Y-91177768D01*
X131590580Y-91440000D01*
X117384440Y-91440000D01*
X117384440Y-82514618D01*
X138862676Y-82514618D01*
X138877979Y-82728600D01*
X138938807Y-83008222D01*
X139038808Y-83276336D01*
X139038813Y-83276346D01*
X139175944Y-83527483D01*
X139175948Y-83527488D01*
X139347438Y-83756572D01*
X139347446Y-83756581D01*
X139549770Y-83958905D01*
X139549779Y-83958913D01*
X139549781Y-83958915D01*
X139778861Y-84130402D01*
X139778863Y-84130403D01*
X139778868Y-84130407D01*
X140030005Y-84267538D01*
X140030015Y-84267543D01*
X140298130Y-84367545D01*
X140550769Y-84422503D01*
X140613076Y-84456525D01*
X140613079Y-84456528D01*
X140702796Y-84546245D01*
X140736822Y-84608557D01*
X140738998Y-84625277D01*
X140739254Y-84625255D01*
X140750112Y-84747411D01*
X140750113Y-84747417D01*
X140750114Y-84747418D01*
X140806091Y-84943049D01*
X140900302Y-85123407D01*
X141028891Y-85281109D01*
X141186593Y-85409698D01*
X141366951Y-85503909D01*
X141562582Y-85559886D01*
X141681963Y-85570500D01*
X142798036Y-85570499D01*
X142878840Y-85563315D01*
X142901155Y-85563315D01*
X142981963Y-85570500D01*
X144098036Y-85570499D01*
X144178840Y-85563315D01*
X144201155Y-85563315D01*
X144281963Y-85570500D01*
X145398036Y-85570499D01*
X145517418Y-85559886D01*
X145713049Y-85503909D01*
X145893407Y-85409698D01*
X146051109Y-85281109D01*
X146179698Y-85123407D01*
X146273909Y-84943049D01*
X146329733Y-84747949D01*
X146367701Y-84687964D01*
X146424085Y-84659495D01*
X146508222Y-84641193D01*
X146776337Y-84541191D01*
X146806320Y-84524818D01*
X147027483Y-84404055D01*
X147027485Y-84404053D01*
X147027491Y-84404050D01*
X147256571Y-84232563D01*
X147458915Y-84030219D01*
X147630402Y-83801139D01*
X147630405Y-83801133D01*
X147630407Y-83801131D01*
X147767538Y-83549994D01*
X147767543Y-83549985D01*
X147867545Y-83281870D01*
X147928372Y-83002252D01*
X147943676Y-82788272D01*
X147943676Y-82017203D01*
X149122676Y-82017203D01*
X149122677Y-82017210D01*
X149122677Y-82017212D01*
X149133290Y-82136594D01*
X149189267Y-82332225D01*
X149283478Y-82512583D01*
X149412067Y-82670285D01*
X149569769Y-82798874D01*
X149750127Y-82893085D01*
X149945758Y-82949062D01*
X150065139Y-82959676D01*
X151981212Y-82959675D01*
X152100594Y-82949062D01*
X152296225Y-82893085D01*
X152476583Y-82798874D01*
X152634285Y-82670285D01*
X152762874Y-82512583D01*
X152857085Y-82332225D01*
X152913062Y-82136594D01*
X152923676Y-82017213D01*
X152923675Y-80101140D01*
X152913062Y-79981758D01*
X152857085Y-79786127D01*
X152762874Y-79605769D01*
X152634285Y-79448067D01*
X152476583Y-79319478D01*
X152476581Y-79319477D01*
X152476580Y-79319476D01*
X152296227Y-79225268D01*
X152296226Y-79225267D01*
X152296225Y-79225267D01*
X152100594Y-79169290D01*
X151981213Y-79158676D01*
X151981208Y-79158676D01*
X150065148Y-79158676D01*
X150065138Y-79158677D01*
X149945764Y-79169289D01*
X149945761Y-79169289D01*
X149945758Y-79169290D01*
X149750127Y-79225267D01*
X149750124Y-79225268D01*
X149569771Y-79319476D01*
X149412067Y-79448067D01*
X149283476Y-79605771D01*
X149189268Y-79786124D01*
X149189267Y-79786126D01*
X149189267Y-79786127D01*
X149133290Y-79981758D01*
X149133290Y-79981764D01*
X149122676Y-80101141D01*
X149122676Y-82017203D01*
X147943676Y-82017203D01*
X147943676Y-80987728D01*
X147928372Y-80773748D01*
X147867545Y-80494130D01*
X147767543Y-80226015D01*
X147767538Y-80226005D01*
X147630407Y-79974868D01*
X147630403Y-79974863D01*
X147630402Y-79974861D01*
X147458915Y-79745781D01*
X147458913Y-79745779D01*
X147458905Y-79745770D01*
X147256581Y-79543446D01*
X147256572Y-79543438D01*
X147027488Y-79371948D01*
X147027483Y-79371944D01*
X146776346Y-79234813D01*
X146776336Y-79234808D01*
X146508222Y-79134807D01*
X146228600Y-79073979D01*
X145969165Y-79055424D01*
X145943176Y-79053566D01*
X145943175Y-79053566D01*
X145854373Y-79059917D01*
X145784999Y-79044825D01*
X145734797Y-78994623D01*
X145721806Y-78958819D01*
X145688481Y-78791278D01*
X145593652Y-78511923D01*
X145463172Y-78247336D01*
X145299273Y-78002043D01*
X145104758Y-77780242D01*
X144882957Y-77585727D01*
X144882958Y-77585727D01*
X144882955Y-77585725D01*
X144637662Y-77421826D01*
X144373083Y-77291351D01*
X144373077Y-77291348D01*
X144278336Y-77259187D01*
X144093727Y-77196520D01*
X144093720Y-77196518D01*
X143804393Y-77138968D01*
X143804375Y-77138965D01*
X143510003Y-77119671D01*
X143509997Y-77119671D01*
X143215624Y-77138965D01*
X143215606Y-77138968D01*
X142926279Y-77196518D01*
X142926272Y-77196520D01*
X142646923Y-77291347D01*
X142382338Y-77421826D01*
X142137050Y-77585721D01*
X142137043Y-77585726D01*
X142137043Y-77585727D01*
X141996465Y-77709011D01*
X141915242Y-77780242D01*
X141720721Y-78002050D01*
X141556826Y-78247338D01*
X141426347Y-78511923D01*
X141331520Y-78791272D01*
X141331518Y-78791279D01*
X141295056Y-78974590D01*
X141262148Y-79037500D01*
X141200453Y-79072632D01*
X141153278Y-79073060D01*
X141153054Y-79074620D01*
X141148603Y-79073979D01*
X140863176Y-79053566D01*
X140577751Y-79073979D01*
X140298129Y-79134807D01*
X140030015Y-79234808D01*
X140030005Y-79234813D01*
X139778868Y-79371944D01*
X139778863Y-79371948D01*
X139549779Y-79543438D01*
X139549770Y-79543446D01*
X139347446Y-79745770D01*
X139347438Y-79745779D01*
X139175948Y-79974863D01*
X139175944Y-79974868D01*
X139038813Y-80226005D01*
X139038808Y-80226015D01*
X138938807Y-80494129D01*
X138877979Y-80773751D01*
X138862676Y-80987733D01*
X138862676Y-82514618D01*
X117384440Y-82514618D01*
X117384440Y-72665000D01*
X124530109Y-72665000D01*
X124549247Y-72932589D01*
X124606274Y-73194739D01*
X124700026Y-73446100D01*
X124700028Y-73446104D01*
X124828597Y-73681559D01*
X124828599Y-73681562D01*
X124969914Y-73870338D01*
X124989372Y-73896330D01*
X124989380Y-73896339D01*
X125179060Y-74086019D01*
X125179069Y-74086027D01*
X125179071Y-74086029D01*
X125393838Y-74246801D01*
X125401729Y-74251110D01*
X125556535Y-74335641D01*
X125629299Y-74375373D01*
X125880661Y-74469126D01*
X126142807Y-74526152D01*
X126410400Y-74545291D01*
X126677993Y-74526152D01*
X126940139Y-74469126D01*
X127191501Y-74375373D01*
X127287954Y-74322705D01*
X127357324Y-74307614D01*
X127423845Y-74332424D01*
X127427937Y-74335621D01*
X127481993Y-74379698D01*
X127662351Y-74473909D01*
X127857982Y-74529886D01*
X127977363Y-74540500D01*
X129843436Y-74540499D01*
X129962818Y-74529886D01*
X130158449Y-74473909D01*
X130338807Y-74379698D01*
X130496509Y-74251109D01*
X130625098Y-74093407D01*
X130719309Y-73913049D01*
X130775286Y-73717418D01*
X130785900Y-73598037D01*
X130785899Y-72615819D01*
X130805901Y-72547699D01*
X130822799Y-72526730D01*
X130995023Y-72354506D01*
X138862558Y-72354506D01*
X138865627Y-72397410D01*
X138877861Y-72568482D01*
X138938689Y-72848104D01*
X139038690Y-73116218D01*
X139038695Y-73116228D01*
X139175826Y-73367365D01*
X139175830Y-73367370D01*
X139175832Y-73367373D01*
X139192847Y-73390103D01*
X139347320Y-73596454D01*
X139347328Y-73596463D01*
X139549652Y-73798787D01*
X139549661Y-73798795D01*
X139549663Y-73798797D01*
X139778743Y-73970284D01*
X139778745Y-73970285D01*
X139778750Y-73970289D01*
X140029887Y-74107420D01*
X140029897Y-74107425D01*
X140298012Y-74207427D01*
X140550651Y-74262385D01*
X140612958Y-74296407D01*
X140612961Y-74296410D01*
X140702796Y-74386245D01*
X140736822Y-74448557D01*
X140738998Y-74465277D01*
X140739254Y-74465255D01*
X140739500Y-74468033D01*
X140739501Y-74468036D01*
X140740681Y-74481310D01*
X140750112Y-74587411D01*
X140750113Y-74587417D01*
X140750114Y-74587418D01*
X140806091Y-74783049D01*
X140900302Y-74963407D01*
X141028891Y-75121109D01*
X141186593Y-75249698D01*
X141366951Y-75343909D01*
X141562582Y-75399886D01*
X141681963Y-75410500D01*
X142798036Y-75410499D01*
X142878840Y-75403315D01*
X142901155Y-75403315D01*
X142981963Y-75410500D01*
X144098036Y-75410499D01*
X144178840Y-75403315D01*
X144201155Y-75403315D01*
X144281963Y-75410500D01*
X145398036Y-75410499D01*
X145517418Y-75399886D01*
X145713049Y-75343909D01*
X145893407Y-75249698D01*
X146051109Y-75121109D01*
X146179698Y-74963407D01*
X146273909Y-74783049D01*
X146329705Y-74588049D01*
X146367673Y-74528063D01*
X146424057Y-74499593D01*
X146508104Y-74481311D01*
X146776219Y-74381309D01*
X146843529Y-74344555D01*
X147027365Y-74244173D01*
X147027367Y-74244171D01*
X147027373Y-74244168D01*
X147256453Y-74072681D01*
X147458797Y-73870337D01*
X147630284Y-73641257D01*
X147630287Y-73641251D01*
X147630289Y-73641249D01*
X147767420Y-73390112D01*
X147767425Y-73390103D01*
X147867427Y-73121988D01*
X147928254Y-72842370D01*
X147943558Y-72628390D01*
X147943558Y-71846968D01*
X149122558Y-71846968D01*
X149122559Y-71846975D01*
X149122559Y-71846977D01*
X149133172Y-71966359D01*
X149189149Y-72161990D01*
X149283360Y-72342348D01*
X149411949Y-72500050D01*
X149569651Y-72628639D01*
X149750009Y-72722850D01*
X149945640Y-72778827D01*
X150065021Y-72789441D01*
X151981094Y-72789440D01*
X152100476Y-72778827D01*
X152296107Y-72722850D01*
X152406855Y-72665000D01*
X163874709Y-72665000D01*
X163893847Y-72932589D01*
X163950874Y-73194739D01*
X164044626Y-73446100D01*
X164044628Y-73446104D01*
X164173197Y-73681559D01*
X164173199Y-73681562D01*
X164314514Y-73870338D01*
X164333972Y-73896330D01*
X164333980Y-73896339D01*
X164523660Y-74086019D01*
X164523669Y-74086027D01*
X164523671Y-74086029D01*
X164738438Y-74246801D01*
X164746329Y-74251110D01*
X164901135Y-74335641D01*
X164973899Y-74375373D01*
X165225261Y-74469126D01*
X165487407Y-74526152D01*
X165755000Y-74545291D01*
X166022593Y-74526152D01*
X166284739Y-74469126D01*
X166536101Y-74375373D01*
X166632554Y-74322705D01*
X166701924Y-74307614D01*
X166768445Y-74332424D01*
X166772537Y-74335621D01*
X166826593Y-74379698D01*
X167006951Y-74473909D01*
X167202582Y-74529886D01*
X167321963Y-74540500D01*
X167828876Y-74540499D01*
X167896996Y-74560501D01*
X167943489Y-74614156D01*
X167953593Y-74684430D01*
X167924100Y-74749011D01*
X167898877Y-74771264D01*
X167770754Y-74856873D01*
X167770750Y-74856876D01*
X167553872Y-75047072D01*
X167363676Y-75263950D01*
X167363673Y-75263954D01*
X167203420Y-75503791D01*
X167075844Y-75762491D01*
X167075840Y-75762501D01*
X166983120Y-76035641D01*
X166983119Y-76035645D01*
X166926845Y-76318550D01*
X166926843Y-76318565D01*
X166907978Y-76606396D01*
X166907978Y-76606403D01*
X166926843Y-76894234D01*
X166926845Y-76894249D01*
X166983119Y-77177154D01*
X166983120Y-77177158D01*
X166989693Y-77196520D01*
X167075841Y-77450302D01*
X167075844Y-77450308D01*
X167203420Y-77709008D01*
X167363673Y-77948845D01*
X167363676Y-77948849D01*
X167553872Y-78165727D01*
X167646930Y-78247336D01*
X167770746Y-78355920D01*
X167770748Y-78355921D01*
X167770750Y-78355923D01*
X167770754Y-78355926D01*
X167929181Y-78461783D01*
X168010589Y-78516178D01*
X168269298Y-78643759D01*
X168542447Y-78736481D01*
X168758031Y-78779363D01*
X168825350Y-78792754D01*
X168825352Y-78792754D01*
X168825361Y-78792756D01*
X168989840Y-78803536D01*
X169113197Y-78811622D01*
X169113200Y-78811622D01*
X169113203Y-78811622D01*
X169221139Y-78804547D01*
X169401039Y-78792756D01*
X169683953Y-78736481D01*
X169957102Y-78643759D01*
X170215811Y-78516178D01*
X170455654Y-78355920D01*
X170672527Y-78165727D01*
X170862720Y-77948854D01*
X171022978Y-77709011D01*
X171150559Y-77450302D01*
X171243281Y-77177153D01*
X171299556Y-76894239D01*
X171318422Y-76606400D01*
X171299556Y-76318561D01*
X171243281Y-76035647D01*
X171150559Y-75762498D01*
X171022978Y-75503789D01*
X170916150Y-75343909D01*
X170862726Y-75263954D01*
X170862723Y-75263950D01*
X170862721Y-75263948D01*
X170862720Y-75263946D01*
X170737455Y-75121109D01*
X170672527Y-75047072D01*
X170455649Y-74856876D01*
X170455645Y-74856873D01*
X170215808Y-74696620D01*
X169957108Y-74569044D01*
X169957102Y-74569041D01*
X169887134Y-74545290D01*
X169815397Y-74520938D01*
X169757321Y-74480100D01*
X169730543Y-74414347D01*
X169743565Y-74344555D01*
X169776272Y-74303975D01*
X169841109Y-74251109D01*
X169969698Y-74093407D01*
X170063909Y-73913049D01*
X170119886Y-73717418D01*
X170130500Y-73598037D01*
X170130499Y-71731964D01*
X170119886Y-71612582D01*
X170063909Y-71416951D01*
X169969698Y-71236593D01*
X169841109Y-71078891D01*
X169683407Y-70950302D01*
X169683405Y-70950301D01*
X169683404Y-70950300D01*
X169503051Y-70856092D01*
X169503050Y-70856091D01*
X169503049Y-70856091D01*
X169307418Y-70800114D01*
X169188037Y-70789500D01*
X169188032Y-70789500D01*
X167321972Y-70789500D01*
X167321962Y-70789501D01*
X167202588Y-70800113D01*
X167202585Y-70800113D01*
X167202582Y-70800114D01*
X167006951Y-70856091D01*
X167006948Y-70856092D01*
X166826594Y-70950301D01*
X166826591Y-70950303D01*
X166772561Y-70994358D01*
X166707125Y-71021904D01*
X166637186Y-71009700D01*
X166632552Y-71007293D01*
X166536099Y-70954626D01*
X166536100Y-70954626D01*
X166284739Y-70860874D01*
X166022589Y-70803847D01*
X165755000Y-70784709D01*
X165487410Y-70803847D01*
X165225260Y-70860874D01*
X164973899Y-70954626D01*
X164973895Y-70954628D01*
X164738440Y-71083197D01*
X164523669Y-71243972D01*
X164523660Y-71243980D01*
X164333980Y-71433660D01*
X164333972Y-71433669D01*
X164173197Y-71648440D01*
X164044628Y-71883895D01*
X164044626Y-71883899D01*
X163950874Y-72135260D01*
X163893847Y-72397410D01*
X163874709Y-72665000D01*
X152406855Y-72665000D01*
X152476465Y-72628639D01*
X152634167Y-72500050D01*
X152762756Y-72342348D01*
X152856967Y-72161990D01*
X152912944Y-71966359D01*
X152923558Y-71846978D01*
X152923557Y-69930905D01*
X152912944Y-69811523D01*
X152856967Y-69615892D01*
X152762756Y-69435534D01*
X152634167Y-69277832D01*
X152476465Y-69149243D01*
X152476463Y-69149242D01*
X152476462Y-69149241D01*
X152296109Y-69055033D01*
X152296108Y-69055032D01*
X152296107Y-69055032D01*
X152100476Y-68999055D01*
X151981095Y-68988441D01*
X151981090Y-68988441D01*
X150065030Y-68988441D01*
X150065020Y-68988442D01*
X149945646Y-68999054D01*
X149945643Y-68999054D01*
X149945640Y-68999055D01*
X149750009Y-69055032D01*
X149750006Y-69055033D01*
X149569653Y-69149241D01*
X149411949Y-69277832D01*
X149283358Y-69435536D01*
X149189150Y-69615889D01*
X149189149Y-69615891D01*
X149189149Y-69615892D01*
X149133172Y-69811523D01*
X149133172Y-69811529D01*
X149122558Y-69930906D01*
X149122558Y-71846968D01*
X147943558Y-71846968D01*
X147943558Y-70817493D01*
X147928254Y-70603513D01*
X147867427Y-70323895D01*
X147767425Y-70055780D01*
X147767420Y-70055770D01*
X147630289Y-69804633D01*
X147630285Y-69804628D01*
X147630284Y-69804626D01*
X147458797Y-69575546D01*
X147458795Y-69575544D01*
X147458787Y-69575535D01*
X147256463Y-69373211D01*
X147256454Y-69373203D01*
X147027370Y-69201713D01*
X147027365Y-69201709D01*
X146776228Y-69064578D01*
X146776218Y-69064573D01*
X146508104Y-68964572D01*
X146228482Y-68903744D01*
X145943058Y-68883331D01*
X145657633Y-68903744D01*
X145378011Y-68964572D01*
X145200540Y-69030765D01*
X145129724Y-69035829D01*
X145067412Y-69001804D01*
X145064423Y-68998711D01*
X144981260Y-68909665D01*
X144981250Y-68909657D01*
X144981246Y-68909653D01*
X144753056Y-68724006D01*
X144753052Y-68724003D01*
X144753049Y-68724001D01*
X144501682Y-68571141D01*
X144501683Y-68571141D01*
X144501679Y-68571139D01*
X144231847Y-68453935D01*
X144231843Y-68453933D01*
X144231841Y-68453933D01*
X143948555Y-68374560D01*
X143948554Y-68374559D01*
X143948551Y-68374559D01*
X143657111Y-68334500D01*
X143657098Y-68334500D01*
X143362902Y-68334500D01*
X143362888Y-68334500D01*
X143071448Y-68374559D01*
X142788152Y-68453935D01*
X142518320Y-68571139D01*
X142266943Y-68724006D01*
X142038753Y-68909653D01*
X142038737Y-68909668D01*
X141893946Y-69064700D01*
X141832831Y-69100833D01*
X141761884Y-69098188D01*
X141741477Y-69089286D01*
X141696224Y-69064576D01*
X141696218Y-69064573D01*
X141428104Y-68964572D01*
X141148482Y-68903744D01*
X140863058Y-68883331D01*
X140577633Y-68903744D01*
X140298011Y-68964572D01*
X140029897Y-69064573D01*
X140029887Y-69064578D01*
X139778750Y-69201709D01*
X139778745Y-69201713D01*
X139549661Y-69373203D01*
X139549652Y-69373211D01*
X139347328Y-69575535D01*
X139347320Y-69575544D01*
X139175830Y-69804628D01*
X139175826Y-69804633D01*
X139038695Y-70055770D01*
X139038690Y-70055780D01*
X138938689Y-70323894D01*
X138877861Y-70603516D01*
X138867345Y-70750553D01*
X138862558Y-70817493D01*
X138862558Y-72354506D01*
X130995023Y-72354506D01*
X137354126Y-65995405D01*
X137416438Y-65961379D01*
X137443221Y-65958500D01*
X143086475Y-65958500D01*
X143100580Y-65959292D01*
X143106947Y-65960009D01*
X143135738Y-65963253D01*
X143202009Y-65958785D01*
X143210484Y-65958500D01*
X143220339Y-65958500D01*
X143220343Y-65958500D01*
X143261050Y-65954835D01*
X143263855Y-65954614D01*
X143361040Y-65948063D01*
X143365164Y-65947023D01*
X143384657Y-65943711D01*
X143388905Y-65943329D01*
X143482887Y-65917390D01*
X143485513Y-65916697D01*
X143580010Y-65892888D01*
X143583887Y-65891126D01*
X143602477Y-65884386D01*
X143606582Y-65883254D01*
X143694376Y-65840973D01*
X143696861Y-65839810D01*
X143785609Y-65799501D01*
X143789100Y-65797081D01*
X143806196Y-65787124D01*
X143810033Y-65785277D01*
X143888959Y-65727933D01*
X143891087Y-65726424D01*
X143971228Y-65670903D01*
X143974230Y-65667899D01*
X143989277Y-65655048D01*
X143992721Y-65652547D01*
X144060119Y-65582052D01*
X144062009Y-65580120D01*
X144342251Y-65299878D01*
X144352775Y-65290473D01*
X144368438Y-65277984D01*
X144434169Y-65251153D01*
X144446992Y-65250499D01*
X145368028Y-65250499D01*
X145368036Y-65250499D01*
X145487418Y-65239886D01*
X145683049Y-65183909D01*
X145863407Y-65089698D01*
X146021109Y-64961109D01*
X146149698Y-64803407D01*
X146243909Y-64623049D01*
X146299886Y-64427418D01*
X146310500Y-64308037D01*
X146310499Y-62736879D01*
X146330501Y-62668759D01*
X146384157Y-62622266D01*
X146409710Y-62613761D01*
X146515977Y-62590645D01*
X146770689Y-62495642D01*
X147009289Y-62365357D01*
X147226918Y-62202441D01*
X147419147Y-62010212D01*
X147582063Y-61792583D01*
X147621425Y-61720497D01*
X149158676Y-61720497D01*
X149158677Y-61720507D01*
X149165084Y-61792583D01*
X149169290Y-61839888D01*
X149218026Y-62010212D01*
X149225268Y-62035521D01*
X149312461Y-62202445D01*
X149319478Y-62215877D01*
X149448067Y-62373579D01*
X149605769Y-62502168D01*
X149786127Y-62596379D01*
X149981758Y-62652356D01*
X150101139Y-62662970D01*
X152017212Y-62662969D01*
X152136594Y-62652356D01*
X152332225Y-62596379D01*
X152512583Y-62502168D01*
X152670285Y-62373579D01*
X152798874Y-62215877D01*
X152893085Y-62035519D01*
X152949062Y-61839888D01*
X152959676Y-61720507D01*
X152959675Y-59804434D01*
X152949062Y-59685052D01*
X152893085Y-59489421D01*
X152798874Y-59309063D01*
X152670285Y-59151361D01*
X152512583Y-59022772D01*
X152512581Y-59022771D01*
X152512580Y-59022770D01*
X152332227Y-58928562D01*
X152332226Y-58928561D01*
X152332225Y-58928561D01*
X152136594Y-58872584D01*
X152017213Y-58861970D01*
X152017208Y-58861970D01*
X150101148Y-58861970D01*
X150101138Y-58861971D01*
X149981764Y-58872583D01*
X149981761Y-58872583D01*
X149981758Y-58872584D01*
X149786127Y-58928561D01*
X149786124Y-58928562D01*
X149605771Y-59022770D01*
X149448067Y-59151361D01*
X149319476Y-59309065D01*
X149225268Y-59489418D01*
X149225267Y-59489420D01*
X149225267Y-59489421D01*
X149169290Y-59685052D01*
X149169290Y-59685058D01*
X149158676Y-59804435D01*
X149158676Y-61720497D01*
X147621425Y-61720497D01*
X147712348Y-61553983D01*
X147807351Y-61299271D01*
X147865137Y-61033630D01*
X147884531Y-60762470D01*
X147865137Y-60491310D01*
X147807351Y-60225669D01*
X147712348Y-59970957D01*
X147582063Y-59732357D01*
X147419147Y-59514728D01*
X147226918Y-59322499D01*
X147226915Y-59322497D01*
X147226912Y-59322494D01*
X147009292Y-59159585D01*
X147009290Y-59159584D01*
X147009289Y-59159583D01*
X146770689Y-59029298D01*
X146770688Y-59029297D01*
X146515977Y-58934295D01*
X146250332Y-58876508D01*
X145979176Y-58857115D01*
X145708019Y-58876508D01*
X145442374Y-58934295D01*
X145187663Y-59029297D01*
X144949059Y-59159585D01*
X144731439Y-59322494D01*
X144731430Y-59322502D01*
X144539208Y-59514724D01*
X144539200Y-59514733D01*
X144376291Y-59732353D01*
X144246003Y-59970957D01*
X144151001Y-60225668D01*
X144093214Y-60491313D01*
X144073821Y-60762470D01*
X144073821Y-60762471D01*
X144078474Y-60827541D01*
X144063382Y-60896915D01*
X144041890Y-60925623D01*
X143977756Y-60989757D01*
X143967224Y-60999170D01*
X143939560Y-61021232D01*
X143895859Y-61071251D01*
X143890078Y-61077435D01*
X143883095Y-61084418D01*
X143883091Y-61084423D01*
X143856909Y-61115782D01*
X143855079Y-61117925D01*
X143790988Y-61191286D01*
X143790981Y-61191296D01*
X143788795Y-61194954D01*
X143777371Y-61211054D01*
X143774634Y-61214332D01*
X143774631Y-61214337D01*
X143726560Y-61299056D01*
X143725138Y-61301498D01*
X143675164Y-61385140D01*
X143673662Y-61389143D01*
X143665299Y-61407018D01*
X143663194Y-61410729D01*
X143663187Y-61410743D01*
X143631018Y-61502677D01*
X143630055Y-61505334D01*
X143601723Y-61580824D01*
X143559060Y-61637573D01*
X143492489Y-61662248D01*
X143423146Y-61647015D01*
X143373046Y-61596710D01*
X143370251Y-61591252D01*
X143346951Y-61542871D01*
X143345817Y-61540444D01*
X143305501Y-61451685D01*
X143303075Y-61448183D01*
X143293124Y-61431096D01*
X143291278Y-61427264D01*
X143291277Y-61427261D01*
X143234022Y-61348455D01*
X143232388Y-61346151D01*
X143176909Y-61266074D01*
X143176906Y-61266070D01*
X143176903Y-61266066D01*
X143173895Y-61263058D01*
X143161050Y-61248018D01*
X143158549Y-61244576D01*
X143158547Y-61244573D01*
X143088054Y-61177175D01*
X143086077Y-61175240D01*
X142836461Y-60925624D01*
X142802435Y-60863312D01*
X142799877Y-60827540D01*
X142804531Y-60762470D01*
X142785137Y-60491310D01*
X142727351Y-60225669D01*
X142632348Y-59970957D01*
X142502063Y-59732357D01*
X142339147Y-59514728D01*
X142146918Y-59322499D01*
X142146915Y-59322497D01*
X142146912Y-59322494D01*
X141929292Y-59159585D01*
X141929290Y-59159584D01*
X141929289Y-59159583D01*
X141690689Y-59029298D01*
X141690688Y-59029297D01*
X141435977Y-58934295D01*
X141170332Y-58876508D01*
X140899176Y-58857115D01*
X140628019Y-58876508D01*
X140362374Y-58934295D01*
X140107663Y-59029297D01*
X139869059Y-59159585D01*
X139651439Y-59322494D01*
X139651430Y-59322502D01*
X139459208Y-59514724D01*
X139459200Y-59514733D01*
X139296291Y-59732353D01*
X139166003Y-59970957D01*
X139071001Y-60225668D01*
X139013214Y-60491313D01*
X138993821Y-60762470D01*
X139013214Y-61033626D01*
X139071001Y-61299271D01*
X139166003Y-61553982D01*
X139296291Y-61792586D01*
X139459200Y-62010206D01*
X139459203Y-62010209D01*
X139459205Y-62010212D01*
X139651434Y-62202441D01*
X139869063Y-62365357D01*
X140107663Y-62495642D01*
X140362375Y-62590645D01*
X140610285Y-62644574D01*
X140672595Y-62678597D01*
X140706620Y-62740909D01*
X140709500Y-62767693D01*
X140709500Y-63323500D01*
X140689498Y-63391621D01*
X140635842Y-63438114D01*
X140583500Y-63449500D01*
X136948925Y-63449500D01*
X136934820Y-63448708D01*
X136899663Y-63444747D01*
X136899662Y-63444747D01*
X136844901Y-63448439D01*
X136833391Y-63449215D01*
X136824916Y-63449500D01*
X136815049Y-63449500D01*
X136774362Y-63453161D01*
X136771551Y-63453382D01*
X136674363Y-63459936D01*
X136670228Y-63460978D01*
X136650748Y-63464288D01*
X136646500Y-63464670D01*
X136646490Y-63464672D01*
X136552607Y-63490582D01*
X136549875Y-63491303D01*
X136455389Y-63515112D01*
X136455382Y-63515114D01*
X136451497Y-63516879D01*
X136432937Y-63523608D01*
X136428824Y-63524743D01*
X136428809Y-63524749D01*
X136341073Y-63567000D01*
X136338515Y-63568198D01*
X136298072Y-63586568D01*
X136249791Y-63608499D01*
X136249789Y-63608499D01*
X136249785Y-63608502D01*
X136246279Y-63610931D01*
X136229212Y-63620871D01*
X136225367Y-63622722D01*
X136146551Y-63679984D01*
X136144249Y-63681617D01*
X136064168Y-63737099D01*
X136061148Y-63740119D01*
X136046145Y-63752933D01*
X136042684Y-63755448D01*
X136042681Y-63755451D01*
X135975322Y-63825901D01*
X135973346Y-63827921D01*
X129048672Y-70752595D01*
X128986360Y-70786621D01*
X128959577Y-70789500D01*
X127977372Y-70789500D01*
X127977362Y-70789501D01*
X127857988Y-70800113D01*
X127857985Y-70800113D01*
X127857982Y-70800114D01*
X127662351Y-70856091D01*
X127662348Y-70856092D01*
X127481994Y-70950301D01*
X127481991Y-70950303D01*
X127427961Y-70994358D01*
X127362525Y-71021904D01*
X127292586Y-71009700D01*
X127287952Y-71007293D01*
X127191499Y-70954626D01*
X127191500Y-70954626D01*
X126940139Y-70860874D01*
X126677989Y-70803847D01*
X126410400Y-70784709D01*
X126142810Y-70803847D01*
X125880660Y-70860874D01*
X125629299Y-70954626D01*
X125629295Y-70954628D01*
X125393840Y-71083197D01*
X125179069Y-71243972D01*
X125179060Y-71243980D01*
X124989380Y-71433660D01*
X124989372Y-71433669D01*
X124828597Y-71648440D01*
X124700028Y-71883895D01*
X124700026Y-71883899D01*
X124606274Y-72135260D01*
X124549247Y-72397410D01*
X124530109Y-72665000D01*
X117384440Y-72665000D01*
X117384440Y-53100243D01*
X117384638Y-53093179D01*
X117390910Y-52981482D01*
X117390942Y-52980938D01*
X117391293Y-52975151D01*
X117401132Y-52812476D01*
X117402682Y-52798982D01*
X117425101Y-52667033D01*
X117425329Y-52665744D01*
X117451931Y-52520580D01*
X117454775Y-52508480D01*
X117492995Y-52375815D01*
X117493675Y-52373547D01*
X117536336Y-52236645D01*
X117540209Y-52225949D01*
X117593656Y-52096917D01*
X117595079Y-52093625D01*
X117653213Y-51964457D01*
X117657790Y-51955307D01*
X117725752Y-51832341D01*
X117728128Y-51828232D01*
X117800975Y-51707730D01*
X117805970Y-51700113D01*
X117887521Y-51585178D01*
X117891036Y-51580467D01*
X117977614Y-51469959D01*
X117982771Y-51463798D01*
X118076780Y-51358603D01*
X118081590Y-51353515D01*
X118180736Y-51254371D01*
X118185828Y-51249557D01*
X118291007Y-51155564D01*
X118297228Y-51150359D01*
X118407708Y-51063805D01*
X118412392Y-51060310D01*
X118527302Y-50978779D01*
X118534990Y-50973737D01*
X118655476Y-50900903D01*
X118659589Y-50898524D01*
X118782514Y-50830588D01*
X118791693Y-50825995D01*
X118920900Y-50767845D01*
X118924173Y-50766432D01*
X119053189Y-50712993D01*
X119063863Y-50709129D01*
X119200721Y-50666484D01*
X119203143Y-50665758D01*
X119335703Y-50627570D01*
X119347796Y-50624727D01*
X119493076Y-50598105D01*
X119494304Y-50597889D01*
X119626266Y-50575469D01*
X119639693Y-50573927D01*
X119803565Y-50563998D01*
X119914988Y-50557742D01*
X119921038Y-50557403D01*
X119928099Y-50557205D01*
X127242759Y-50557205D01*
X127310880Y-50577207D01*
G37*
%TD.AperFunction*%
%TD*%
M02*
