0
SECTION
2
HEADER
9
$INSUNITS
70
1
9
$ACADVER
1
AC1014
9
$HANDSEED
5
FFFF
0
ENDSEC
0
SECTION
2
TABLES
0
TABLE
2
VPORT
5
8
100
AcDbSymbolTable
0
ENDTAB
0
TABLE
2
LTYPE
5
5
100
AcDbSymbolTable
0
LTYPE
5
14
100
AcDbSymbolTableRecord
100
AcDbLinetypeTableRecord
2
BYBLOCK
70
0
0
LTYPE
5
15
100
AcDbSymbolTableRecord
100
AcDbLinetypeTableRecord
2
BYLAYER
70
0
0
ENDTAB
0
TABLE
2
LAYER
5
2
100
AcDbSymbolTable
70
2
0
LAYER
5
50
100
AcDbSymbolTableRecord
100
AcDbLayerTableRecord
2
0
70
0
6
CONTINUOUS
0
ENDTAB
0
TABLE
2
STYLE
5
3
100
AcDbSymbolTable
70
1
0
STYLE
5
11
100
AcDbSymbolTableRecord
100
AcDbTextStyleTableRecord
2
STANDARD
70
0
0
ENDTAB
0
TABLE
2
VIEW
5
6
100
AcDbSymbolTable
70
0
0
ENDTAB
0
TABLE
2
UCS
5
7
100
AcDbSymbolTable
70
0
0
ENDTAB
0
TABLE
2
APPID
5
9
100
AcDbSymbolTable
70
2
0
APPID
5
12
100
AcDbSymbolTableRecord
100
AcDbRegAppTableRecord
2
ACAD
70
0
0
ENDTAB
0
TABLE
2
DIMSTYLE
5
A
100
AcDbSymbolTable
70
1
0
ENDTAB
0
TABLE
2
BLOCK_RECORD
5
1
100
AcDbSymbolTable
70
1
0
BLOCK_RECORD
5
1F
100
AcDbSymbolTableRecord
100
AcDbBlockTableRecord
2
*MODEL_SPACE
0
BLOCK_RECORD
5
1B
100
AcDbSymbolTableRecord
100
AcDbBlockTableRecord
2
*PAPER_SPACE
0
ENDTAB
0
ENDSEC
0
SECTION
2
BLOCKS
0
BLOCK
5
20
100
AcDbEntity
100
AcDbBlockBegin
2
*MODEL_SPACE
0
ENDBLK
5
21
100
AcDbEntity
100
AcDbBlockEnd
0
BLOCK
5
1C
100
AcDbEntity
100
AcDbBlockBegin
2
*PAPER_SPACE
0
ENDBLK
5
1D
100
AcDbEntity
100
AcDbBlockEnd
0
ENDSEC
0
SECTION
2
ENTITIES
0
LINE
5
100
100
AcDbEntity
8
0
100
AcDbLine
10
0
20
0
30
0
11
-0.87570866141732273
21
0
31
0
0
LWPOLYLINE
5
101
100
AcDbEntity
8
0
100
AcDbPolyline
90
4
70
1
43
0.0
10
-1.0449999999999997
20
0.33267716535433062
10
-0.70641732283464564
20
0.33267716535433056
10
-0.70641732283464564
20
-0.33267716535433067
10
-1.0449999999999997
20
-0.33267716535433062
0
LINE
5
102
100
AcDbEntity
8
0
100
AcDbLine
10
-1.0449999999999997
20
0.33267716535433062
30
0
11
-0.70641732283464564
21
-0.33267716535433067
31
0
0
LINE
5
103
100
AcDbEntity
8
0
100
AcDbLine
10
-0.70641732283464564
20
0.33267716535433056
30
0
11
-1.0449999999999997
21
-0.33267716535433062
31
0
0
LINE
5
104
100
AcDbEntity
8
0
100
AcDbLine
10
-1.1999999999999988
20
1.6499999999999997
30
0
11
-1.2000000000000011
21
-1.649999999999999
31
0
0
LWPOLYLINE
5
105
100
AcDbEntity
8
0
100
AcDbPolyline
90
4
70
1
43
0.0
10
0.62500000000000011
20
-1.4449999968775069
10
-0.47499999999999981
20
-1.4449999968775069
10
-0.47499999999999981
20
-0.2550000031224956
10
0.62500000000000011
20
-0.25500000312249554
0
LWPOLYLINE
5
106
100
AcDbEntity
8
0
100
AcDbPolyline
90
8
70
1
43
0.0
10
1.1000000000000014
20
-1.75
42
0.41421356237309404
10
1.2000000000000011
20
-1.6499999999999997
10
1.2000000000000008
20
1.649999999999999
42
0.41421356237309609
10
1.100000000000001
20
1.7499999999999993
10
-1.0999999999999992
20
1.75
42
0.41421356237309354
10
-1.1999999999999988
20
1.6499999999999997
10
-1.2000000000000011
20
-1.6499999999999995
42
0.41421356237309354
10
-1.100000000000001
20
-1.7499999999999993
0
CIRCLE
5
107
100
AcDbEntity
8
0
100
AcDbCircle
10
0.50000000000000011
20
-0.84999999999999931
30
0
40
0.039370078740157514
210
0
220
-0
230
1
0
LWPOLYLINE
5
108
100
AcDbEntity
8
0
100
AcDbPolyline
90
4
70
1
43
0.0
10
-0.17899999999999941
20
-1.1379999999999995
10
0.32900000000000068
20
-1.1379999999999992
10
0.32900000000000063
20
-1.3619999999999997
10
-0.17899999999999941
20
-1.3619999999999992
0
CIRCLE
5
109
100
AcDbEntity
8
0
100
AcDbCircle
10
-0.3499999999999997
20
-1.2499999999999993
30
0
40
0.039370078740157466
210
0
220
-0
230
1
0
CIRCLE
5
110
100
AcDbEntity
8
0
100
AcDbCircle
10
0.50000000000000011
20
-0.44999999999999934
30
0
40
0.039370078740157514
210
0
220
-0
230
1
0
CIRCLE
5
111
100
AcDbEntity
8
0
100
AcDbCircle
10
-0.3499999999999997
20
-0.84999999999999931
30
0
40
0.039370078740157466
210
0
220
-0
230
1
0
LWPOLYLINE
5
112
100
AcDbEntity
8
0
100
AcDbPolyline
90
4
70
1
43
0.0
10
-0.17899999999999938
20
-0.9619999999999993
10
-0.17899999999999941
20
-0.73799999999999943
10
0.32900000000000068
20
-0.73799999999999921
10
0.32900000000000063
20
-0.96199999999999963
0
CIRCLE
5
113
100
AcDbEntity
8
0
100
AcDbCircle
10
0.50000000000000011
20
-1.2499999999999993
30
0
40
0.039370078740157514
210
0
220
-0
230
1
0
LWPOLYLINE
5
114
100
AcDbEntity
8
0
100
AcDbPolyline
90
4
70
1
43
0.0
10
-0.17899999999999938
20
-0.56199999999999928
10
-0.17899999999999941
20
-0.33799999999999941
10
0.32900000000000068
20
-0.33799999999999925
10
0.32900000000000063
20
-0.56199999999999961
0
CIRCLE
5
115
100
AcDbEntity
8
0
100
AcDbCircle
10
-0.3499999999999997
20
-0.44999999999999934
30
0
40
0.039370078740157466
210
0
220
-0
230
1
0
CIRCLE
5
116
100
AcDbEntity
8
0
100
AcDbCircle
10
-0.74999999999999978
20
1.6250000000000011
30
0
40
0.065000000000000002
210
0
220
0
230
1
0
CIRCLE
5
117
100
AcDbEntity
8
0
100
AcDbCircle
10
0.75000000000000078
20
-1.6249999999999989
30
0
40
0.065000000000000002
210
0
220
0
230
1
0
CIRCLE
5
118
100
AcDbEntity
8
0
100
AcDbCircle
10
0.75
20
1.6250000000000011
30
0
40
0.064999999999999919
210
0
220
0
230
1
0
CIRCLE
5
119
100
AcDbEntity
8
0
100
AcDbCircle
10
-0.74999999999999978
20
-1.6249999999999989
30
0
40
0.065000000000000002
210
0
220
0
230
1
0
ENDSEC
0
SECTION
2
OBJECTS
0
DICTIONARY
5
C
100
AcDbDictionary
3
ACAD_GROUP
350
D
3
ACAD_MLINESTYLE
350
17
0
DICTIONARY
5
D
100
AcDbDictionary
0
DICTIONARY
5
1A
330
C
100
AcDbDictionary
0
DICTIONARY
5
17
100
AcDbDictionary
0
ENDSEC
0
EOF
