%TF.GenerationSoftware,KiCad,Pcbnew,(6.0.7)*%
%TF.CreationDate,2023-03-09T00:13:32-05:00*%
%TF.ProjectId,board_one_teensy_22,626f6172-645f-46f6-9e65-5f7465656e73,rev?*%
%TF.SameCoordinates,Original*%
%TF.FileFunction,Paste,Bot*%
%TF.FilePolarity,Positive*%
%FSLAX46Y46*%
G04 Gerber Fmt 4.6, Leading zero omitted, Abs format (unit mm)*
G04 Created by KiCad (PCBNEW (6.0.7)) date 2023-03-09 00:13:32*
%MOMM*%
%LPD*%
G01*
G04 APERTURE LIST*
%ADD10C,0.010000*%
G04 APERTURE END LIST*
%TO.C,LS1*%
G36*
X148748810Y-107204080D02*
G01*
X146910330Y-109042560D01*
X146008250Y-108090480D01*
X146008250Y-106252000D01*
X147846730Y-106252000D01*
X148748810Y-107204080D01*
G37*
D10*
X148748810Y-107204080D02*
X146910330Y-109042560D01*
X146008250Y-108090480D01*
X146008250Y-106252000D01*
X147846730Y-106252000D01*
X148748810Y-107204080D01*
G36*
X155508250Y-108090480D02*
G01*
X154606170Y-109042560D01*
X152767690Y-107204080D01*
X153669770Y-106252000D01*
X155508250Y-106252000D01*
X155508250Y-108090480D01*
G37*
X155508250Y-108090480D02*
X154606170Y-109042560D01*
X152767690Y-107204080D01*
X153669770Y-106252000D01*
X155508250Y-106252000D01*
X155508250Y-108090480D01*
G36*
X148748810Y-114799920D02*
G01*
X147846730Y-115752000D01*
X146008250Y-115752000D01*
X146008250Y-113913520D01*
X146910330Y-112961440D01*
X148748810Y-114799920D01*
G37*
X148748810Y-114799920D02*
X147846730Y-115752000D01*
X146008250Y-115752000D01*
X146008250Y-113913520D01*
X146910330Y-112961440D01*
X148748810Y-114799920D01*
G36*
X155758250Y-114213520D02*
G01*
X153919770Y-116052000D01*
X152767690Y-114799920D01*
X154606170Y-112961440D01*
X155758250Y-114213520D01*
G37*
X155758250Y-114213520D02*
X153919770Y-116052000D01*
X152767690Y-114799920D01*
X154606170Y-112961440D01*
X155758250Y-114213520D01*
%TD*%
M02*
