%TF.GenerationSoftware,KiCad,Pcbnew,(6.0.7)*%
%TF.CreationDate,2023-03-09T00:13:32-05:00*%
%TF.ProjectId,board_one_teensy_22,626f6172-645f-46f6-9e65-5f7465656e73,rev?*%
%TF.SameCoordinates,Original*%
%TF.FileFunction,Soldermask,Top*%
%TF.FilePolarity,Negative*%
%FSLAX46Y46*%
G04 Gerber Fmt 4.6, Leading zero omitted, Abs format (unit mm)*
G04 Created by KiCad (PCBNEW (6.0.7)) date 2023-03-09 00:13:32*
%MOMM*%
%LPD*%
G01*
G04 APERTURE LIST*
G04 Aperture macros list*
%AMRoundRect*
0 Rectangle with rounded corners*
0 $1 Rounding radius*
0 $2 $3 $4 $5 $6 $7 $8 $9 X,Y pos of 4 corners*
0 Add a 4 corners polygon primitive as box body*
4,1,4,$2,$3,$4,$5,$6,$7,$8,$9,$2,$3,0*
0 Add four circle primitives for the rounded corners*
1,1,$1+$1,$2,$3*
1,1,$1+$1,$4,$5*
1,1,$1+$1,$6,$7*
1,1,$1+$1,$8,$9*
0 Add four rect primitives between the rounded corners*
20,1,$1+$1,$2,$3,$4,$5,0*
20,1,$1+$1,$4,$5,$6,$7,0*
20,1,$1+$1,$6,$7,$8,$9,0*
20,1,$1+$1,$8,$9,$2,$3,0*%
G04 Aperture macros list end*
%ADD10RoundRect,0.200000X0.275000X-0.200000X0.275000X0.200000X-0.275000X0.200000X-0.275000X-0.200000X0*%
%ADD11R,1.000000X1.500000*%
%ADD12C,3.600000*%
%ADD13C,5.600000*%
%ADD14RoundRect,0.250000X-0.625000X0.350000X-0.625000X-0.350000X0.625000X-0.350000X0.625000X0.350000X0*%
%ADD15O,1.750000X1.200000*%
%ADD16RoundRect,0.225000X0.250000X-0.225000X0.250000X0.225000X-0.250000X0.225000X-0.250000X-0.225000X0*%
%ADD17RoundRect,0.225000X-0.250000X0.225000X-0.250000X-0.225000X0.250000X-0.225000X0.250000X0.225000X0*%
%ADD18C,1.600000*%
%ADD19R,1.800000X1.700000*%
%ADD20RoundRect,0.200000X-0.275000X0.200000X-0.275000X-0.200000X0.275000X-0.200000X0.275000X0.200000X0*%
%ADD21C,0.958000*%
%ADD22O,1.816000X0.908000*%
%ADD23R,1.600000X1.600000*%
%ADD24R,1.300000X1.300000*%
%ADD25C,1.300000*%
%ADD26RoundRect,0.250000X0.350000X0.625000X-0.350000X0.625000X-0.350000X-0.625000X0.350000X-0.625000X0*%
%ADD27O,1.200000X1.750000*%
G04 APERTURE END LIST*
D10*
%TO.C,R5*%
X142494000Y-66865000D03*
X142494000Y-65215000D03*
%TD*%
D11*
%TO.C,D5*%
X120640000Y-105780000D03*
X117440000Y-105780000D03*
X117440000Y-110680000D03*
X120640000Y-110680000D03*
%TD*%
D12*
%TO.C,H1*%
X118614971Y-53255682D03*
D13*
X118614971Y-53255682D03*
%TD*%
D11*
%TO.C,D4*%
X120470000Y-113707500D03*
X117270000Y-113707500D03*
X117270000Y-118607500D03*
X120470000Y-118607500D03*
%TD*%
D14*
%TO.C,J2*%
X117820000Y-88560000D03*
D15*
X117820000Y-90560000D03*
X117820000Y-92560000D03*
X117820000Y-94560000D03*
X117820000Y-96560000D03*
X117820000Y-98560000D03*
X117820000Y-100560000D03*
%TD*%
D16*
%TO.C,C2*%
X115062000Y-112281000D03*
X115062000Y-110731000D03*
%TD*%
D17*
%TO.C,C1*%
X142494000Y-60947000D03*
X142494000Y-62497000D03*
%TD*%
D12*
%TO.C,H4*%
X118603304Y-135797904D03*
D13*
X118603304Y-135797904D03*
%TD*%
D12*
%TO.C,H3*%
X156706146Y-53242782D03*
D13*
X156706146Y-53242782D03*
%TD*%
D18*
%TO.C,U2*%
X146690000Y-88650000D03*
X146690000Y-86110000D03*
X146690000Y-83570000D03*
X146690000Y-81030000D03*
X164470000Y-78490000D03*
X164470000Y-81030000D03*
X164470000Y-83570000D03*
X164470000Y-86110000D03*
X164470000Y-88650000D03*
X164470000Y-91190000D03*
%TD*%
D19*
%TO.C,D1*%
X160256000Y-65278000D03*
X164356000Y-65278000D03*
%TD*%
D20*
%TO.C,R4*%
X144272000Y-62675000D03*
X144272000Y-64325000D03*
%TD*%
D21*
%TO.C,J3*%
X122092500Y-69830000D03*
X121092500Y-70480000D03*
X122092500Y-71130000D03*
X121092500Y-71780000D03*
X122092500Y-72430000D03*
D22*
X121872500Y-67555000D03*
X121872500Y-74705000D03*
%TD*%
D12*
%TO.C,H2*%
X156701211Y-135804448D03*
D13*
X156701211Y-135804448D03*
%TD*%
D19*
%TO.C,D2*%
X160256000Y-60960000D03*
X164356000Y-60960000D03*
%TD*%
D23*
%TO.C,U1*%
X124855000Y-60190000D03*
D18*
X124855000Y-62730000D03*
X124855000Y-65270000D03*
X124855000Y-67810000D03*
X124855000Y-70350000D03*
X124855000Y-72890000D03*
X124855000Y-75430000D03*
X124855000Y-77970000D03*
X124855000Y-80510000D03*
X124855000Y-83050000D03*
X124855000Y-85590000D03*
X124855000Y-88130000D03*
X124855000Y-90670000D03*
X124855000Y-93210000D03*
X124855000Y-95750000D03*
X124855000Y-98290000D03*
X124855000Y-100830000D03*
X124855000Y-103370000D03*
X124855000Y-105910000D03*
X124855000Y-108450000D03*
X124855000Y-110990000D03*
X124855000Y-113530000D03*
X124855000Y-116070000D03*
X124855000Y-118610000D03*
X140095000Y-118610000D03*
X140095000Y-116070000D03*
X140095000Y-113530000D03*
X140095000Y-110990000D03*
X140095000Y-108450000D03*
X140095000Y-105910000D03*
X140095000Y-103370000D03*
X140095000Y-100830000D03*
X140095000Y-98290000D03*
X140095000Y-95750000D03*
X140095000Y-93210000D03*
X140095000Y-90670000D03*
X140095000Y-88130000D03*
X140095000Y-85590000D03*
X140095000Y-83050000D03*
X140095000Y-80510000D03*
X140095000Y-77970000D03*
X140095000Y-75430000D03*
X140095000Y-72890000D03*
X140095000Y-70350000D03*
X140095000Y-67810000D03*
X140095000Y-65270000D03*
X140095000Y-62730000D03*
X140095000Y-60190000D03*
X137555000Y-62730000D03*
X127395000Y-105910000D03*
X129935000Y-105910000D03*
X132475000Y-105910000D03*
X135015000Y-105910000D03*
X137555000Y-105910000D03*
D23*
X127905800Y-66489200D03*
D18*
X127905800Y-69029200D03*
X127905800Y-71569200D03*
X127905800Y-74109200D03*
X127905800Y-76649200D03*
D24*
X137656600Y-73160000D03*
D25*
X135656600Y-73160000D03*
X133656600Y-73160000D03*
X133656600Y-75160000D03*
X135656600Y-75160000D03*
X137656600Y-75160000D03*
X133745000Y-60920000D03*
X131205000Y-60920000D03*
%TD*%
D26*
%TO.C,J1*%
X153880000Y-65780000D03*
D27*
X151880000Y-65780000D03*
X149880000Y-65780000D03*
X147880000Y-65780000D03*
%TD*%
M02*
