%TF.GenerationSoftware,KiCad,Pcbnew,(6.0.7)*%
%TF.CreationDate,2023-03-09T00:13:32-05:00*%
%TF.ProjectId,board_one_teensy_22,626f6172-645f-46f6-9e65-5f7465656e73,rev?*%
%TF.SameCoordinates,Original*%
%TF.FileFunction,Copper,L1,Top*%
%TF.FilePolarity,Positive*%
%FSLAX46Y46*%
G04 Gerber Fmt 4.6, Leading zero omitted, Abs format (unit mm)*
G04 Created by KiCad (PCBNEW (6.0.7)) date 2023-03-09 00:13:32*
%MOMM*%
%LPD*%
G01*
G04 APERTURE LIST*
G04 Aperture macros list*
%AMRoundRect*
0 Rectangle with rounded corners*
0 $1 Rounding radius*
0 $2 $3 $4 $5 $6 $7 $8 $9 X,Y pos of 4 corners*
0 Add a 4 corners polygon primitive as box body*
4,1,4,$2,$3,$4,$5,$6,$7,$8,$9,$2,$3,0*
0 Add four circle primitives for the rounded corners*
1,1,$1+$1,$2,$3*
1,1,$1+$1,$4,$5*
1,1,$1+$1,$6,$7*
1,1,$1+$1,$8,$9*
0 Add four rect primitives between the rounded corners*
20,1,$1+$1,$2,$3,$4,$5,0*
20,1,$1+$1,$4,$5,$6,$7,0*
20,1,$1+$1,$6,$7,$8,$9,0*
20,1,$1+$1,$8,$9,$2,$3,0*%
G04 Aperture macros list end*
%TA.AperFunction,SMDPad,CuDef*%
%ADD10RoundRect,0.200000X0.275000X-0.200000X0.275000X0.200000X-0.275000X0.200000X-0.275000X-0.200000X0*%
%TD*%
%TA.AperFunction,ComponentPad*%
%ADD11R,1.780000X1.780000*%
%TD*%
%TA.AperFunction,ComponentPad*%
%ADD12C,1.780000*%
%TD*%
%TA.AperFunction,SMDPad,CuDef*%
%ADD13R,1.000000X1.500000*%
%TD*%
%TA.AperFunction,ComponentPad*%
%ADD14C,3.600000*%
%TD*%
%TA.AperFunction,ConnectorPad*%
%ADD15C,5.600000*%
%TD*%
%TA.AperFunction,ComponentPad*%
%ADD16RoundRect,0.250000X-0.625000X0.350000X-0.625000X-0.350000X0.625000X-0.350000X0.625000X0.350000X0*%
%TD*%
%TA.AperFunction,ComponentPad*%
%ADD17O,1.750000X1.200000*%
%TD*%
%TA.AperFunction,SMDPad,CuDef*%
%ADD18RoundRect,0.225000X0.250000X-0.225000X0.250000X0.225000X-0.250000X0.225000X-0.250000X-0.225000X0*%
%TD*%
%TA.AperFunction,SMDPad,CuDef*%
%ADD19RoundRect,0.225000X-0.250000X0.225000X-0.250000X-0.225000X0.250000X-0.225000X0.250000X0.225000X0*%
%TD*%
%TA.AperFunction,ComponentPad*%
%ADD20C,1.600000*%
%TD*%
%TA.AperFunction,SMDPad,CuDef*%
%ADD21R,1.800000X1.700000*%
%TD*%
%TA.AperFunction,SMDPad,CuDef*%
%ADD22RoundRect,0.200000X-0.275000X0.200000X-0.275000X-0.200000X0.275000X-0.200000X0.275000X0.200000X0*%
%TD*%
%TA.AperFunction,ComponentPad*%
%ADD23C,0.958000*%
%TD*%
%TA.AperFunction,ComponentPad*%
%ADD24O,1.816000X0.908000*%
%TD*%
%TA.AperFunction,ComponentPad*%
%ADD25R,1.600000X1.600000*%
%TD*%
%TA.AperFunction,ComponentPad*%
%ADD26R,1.300000X1.300000*%
%TD*%
%TA.AperFunction,ComponentPad*%
%ADD27C,1.300000*%
%TD*%
%TA.AperFunction,ComponentPad*%
%ADD28RoundRect,0.250000X0.350000X0.625000X-0.350000X0.625000X-0.350000X-0.625000X0.350000X-0.625000X0*%
%TD*%
%TA.AperFunction,ComponentPad*%
%ADD29O,1.200000X1.750000*%
%TD*%
%TA.AperFunction,ViaPad*%
%ADD30C,0.800000*%
%TD*%
%TA.AperFunction,Conductor*%
%ADD31C,0.508000*%
%TD*%
%TA.AperFunction,Conductor*%
%ADD32C,0.203200*%
%TD*%
%TA.AperFunction,Conductor*%
%ADD33C,0.250000*%
%TD*%
G04 APERTURE END LIST*
D10*
%TO.P,R5,1*%
%TO.N,Net-(R4-Pad2)*%
X142494000Y-66865000D03*
%TO.P,R5,2*%
%TO.N,GND*%
X142494000Y-65215000D03*
%TD*%
D11*
%TO.P,U3,1,VIN*%
%TO.N,/3.3V*%
X160830000Y-123700000D03*
D12*
%TO.P,U3,2,3VO*%
%TO.N,unconnected-(U3-Pad2)*%
X160830000Y-121160000D03*
%TO.P,U3,3,GND*%
%TO.N,GND*%
X160830000Y-118620000D03*
%TO.P,U3,4,SCK/SCL*%
%TO.N,/SCL 0*%
X160830000Y-116080000D03*
%TO.P,U3,5,SDO/ADR*%
%TO.N,unconnected-(U3-Pad5)*%
X160830000Y-113540000D03*
%TO.P,U3,6,SDI/SDA*%
%TO.N,/SDA 0*%
X160830000Y-111000000D03*
%TO.P,U3,7,~{CS}*%
%TO.N,unconnected-(U3-Pad7)*%
X160830000Y-108460000D03*
%TO.P,U3,8,INT*%
%TO.N,unconnected-(U3-Pad8)*%
X160830000Y-105920000D03*
%TD*%
D13*
%TO.P,D5,1,DOUT*%
%TO.N,unconnected-(D5-Pad1)*%
X120640000Y-105780000D03*
%TO.P,D5,2,GND*%
%TO.N,GND*%
X117440000Y-105780000D03*
%TO.P,D5,3,VDD*%
%TO.N,/3.3V*%
X117440000Y-110680000D03*
%TO.P,D5,4,DIN*%
%TO.N,Net-(D4-Pad1)*%
X120640000Y-110680000D03*
%TD*%
D14*
%TO.P,H1,1,1*%
%TO.N,unconnected-(H1-Pad1)*%
X118614971Y-53255682D03*
D15*
X118614971Y-53255682D03*
%TD*%
D13*
%TO.P,D4,1,DOUT*%
%TO.N,Net-(D4-Pad1)*%
X120470000Y-113707500D03*
%TO.P,D4,2,GND*%
%TO.N,GND*%
X117270000Y-113707500D03*
%TO.P,D4,3,VDD*%
%TO.N,/3.3V*%
X117270000Y-118607500D03*
%TO.P,D4,4,DIN*%
%TO.N,/NEOPIXEL*%
X120470000Y-118607500D03*
%TD*%
D16*
%TO.P,J2,1,Pin_1*%
%TO.N,GND*%
X117820000Y-88560000D03*
D17*
%TO.P,J2,2,Pin_2*%
%TO.N,/V_BATT*%
X117820000Y-90560000D03*
%TO.P,J2,3,Pin_3*%
%TO.N,/PYRO 1*%
X117820000Y-92560000D03*
%TO.P,J2,4,Pin_4*%
%TO.N,/PYRO 2*%
X117820000Y-94560000D03*
%TO.P,J2,5,Pin_5*%
%TO.N,/ARM*%
X117820000Y-96560000D03*
%TO.P,J2,6,Pin_6*%
%TO.N,/CONT 1*%
X117820000Y-98560000D03*
%TO.P,J2,7,Pin_7*%
%TO.N,/CONT 2*%
X117820000Y-100560000D03*
%TD*%
D18*
%TO.P,C2,1*%
%TO.N,GND*%
X115062000Y-112281000D03*
%TO.P,C2,2*%
%TO.N,/3.3V*%
X115062000Y-110731000D03*
%TD*%
D19*
%TO.P,C1,1*%
%TO.N,/VIN*%
X142494000Y-60947000D03*
%TO.P,C1,2*%
%TO.N,GND*%
X142494000Y-62497000D03*
%TD*%
D14*
%TO.P,H4,1*%
%TO.N,N/C*%
X118603304Y-135797904D03*
D15*
X118603304Y-135797904D03*
%TD*%
D14*
%TO.P,H3,1*%
%TO.N,N/C*%
X156706146Y-53242782D03*
D15*
X156706146Y-53242782D03*
%TD*%
D20*
%TO.P,U2,10,PS0*%
%TO.N,unconnected-(U2-Pad10)*%
X146690000Y-88650000D03*
%TO.P,U2,9,PS1*%
%TO.N,unconnected-(U2-Pad9)*%
X146690000Y-86110000D03*
%TO.P,U2,8,INT*%
%TO.N,unconnected-(U2-Pad8)*%
X146690000Y-83570000D03*
%TO.P,U2,7,ADR*%
%TO.N,unconnected-(U2-Pad7)*%
X146690000Y-81030000D03*
%TO.P,U2,6,RST*%
%TO.N,unconnected-(U2-Pad6)*%
X164470000Y-78490000D03*
%TO.P,U2,5,SCL*%
%TO.N,/SCL 0*%
X164470000Y-81030000D03*
%TO.P,U2,4,SDA*%
%TO.N,/SDA 0*%
X164470000Y-83570000D03*
%TO.P,U2,3,GND*%
%TO.N,GND*%
X164470000Y-86110000D03*
%TO.P,U2,2,3VO*%
%TO.N,unconnected-(U2-Pad2)*%
X164470000Y-88650000D03*
%TO.P,U2,1,VIN*%
%TO.N,/3.3V*%
X164470000Y-91190000D03*
%TD*%
D21*
%TO.P,D1,A*%
%TO.N,/V_BATT*%
X160256000Y-65278000D03*
%TO.P,D1,C*%
%TO.N,/VIN*%
X164356000Y-65278000D03*
%TD*%
D22*
%TO.P,R4,1*%
%TO.N,/VIN*%
X144272000Y-62675000D03*
%TO.P,R4,2*%
%TO.N,Net-(R4-Pad2)*%
X144272000Y-64325000D03*
%TD*%
D23*
%TO.P,J3,1,VCC*%
%TO.N,/V_USB*%
X122092500Y-69830000D03*
%TO.P,J3,2,D-*%
%TO.N,Net-(J3-Pad2)*%
X121092500Y-70480000D03*
%TO.P,J3,3,D+*%
%TO.N,Net-(J3-Pad3)*%
X122092500Y-71130000D03*
%TO.P,J3,4,ID*%
%TO.N,unconnected-(J3-Pad4)*%
X121092500Y-71780000D03*
%TO.P,J3,5,GND*%
%TO.N,GND*%
X122092500Y-72430000D03*
D24*
%TO.P,J3,S1,SHIELD*%
X121872500Y-67555000D03*
%TO.P,J3,S2,SHIELD*%
X121872500Y-74705000D03*
%TD*%
D14*
%TO.P,H2,1*%
%TO.N,N/C*%
X156701211Y-135804448D03*
D15*
X156701211Y-135804448D03*
%TD*%
D21*
%TO.P,D2,A*%
%TO.N,/V_USB*%
X160256000Y-60960000D03*
%TO.P,D2,C*%
%TO.N,/VIN*%
X164356000Y-60960000D03*
%TD*%
D25*
%TO.P,U1,1,GND*%
%TO.N,GND*%
X124855000Y-60190000D03*
D20*
%TO.P,U1,2,0_RX1_CRX2_CS1*%
%TO.N,unconnected-(U1-Pad2)*%
X124855000Y-62730000D03*
%TO.P,U1,3,1_TX1_CTX2_MISO1*%
%TO.N,unconnected-(U1-Pad3)*%
X124855000Y-65270000D03*
%TO.P,U1,4,2_OUT2*%
%TO.N,unconnected-(U1-Pad4)*%
X124855000Y-67810000D03*
%TO.P,U1,5,3_LRCLK2*%
%TO.N,unconnected-(U1-Pad5)*%
X124855000Y-70350000D03*
%TO.P,U1,6,4_BCLK2*%
%TO.N,unconnected-(U1-Pad6)*%
X124855000Y-72890000D03*
%TO.P,U1,7,5_IN2*%
%TO.N,unconnected-(U1-Pad7)*%
X124855000Y-75430000D03*
%TO.P,U1,8,6_OUT1D*%
%TO.N,unconnected-(U1-Pad8)*%
X124855000Y-77970000D03*
%TO.P,U1,9,7_RX2_OUT1A*%
%TO.N,unconnected-(U1-Pad9)*%
X124855000Y-80510000D03*
%TO.P,U1,10,8_TX2_IN1*%
%TO.N,unconnected-(U1-Pad10)*%
X124855000Y-83050000D03*
%TO.P,U1,11,9_OUT1C*%
%TO.N,unconnected-(U1-Pad11)*%
X124855000Y-85590000D03*
%TO.P,U1,12,10_CS_MQSR*%
%TO.N,unconnected-(U1-Pad12)*%
X124855000Y-88130000D03*
%TO.P,U1,13,11_MOSI_CTX1*%
%TO.N,unconnected-(U1-Pad13)*%
X124855000Y-90670000D03*
%TO.P,U1,14,12_MISO_MQSL*%
%TO.N,unconnected-(U1-Pad14)*%
X124855000Y-93210000D03*
%TO.P,U1,15,3V3*%
%TO.N,/3.3V*%
X124855000Y-95750000D03*
%TO.P,U1,16,24_A10_TX6_SCL2*%
%TO.N,/PYRO 1*%
X124855000Y-98290000D03*
%TO.P,U1,17,25_A11_RX6_SDA2*%
%TO.N,/PYRO 2*%
X124855000Y-100830000D03*
%TO.P,U1,18,26_A12_MOSI1*%
%TO.N,/ARM*%
X124855000Y-103370000D03*
%TO.P,U1,19,27_A13_SCK1*%
%TO.N,unconnected-(U1-Pad19)*%
X124855000Y-105910000D03*
%TO.P,U1,20,28_RX7*%
%TO.N,unconnected-(U1-Pad20)*%
X124855000Y-108450000D03*
%TO.P,U1,21,29_TX7*%
%TO.N,unconnected-(U1-Pad21)*%
X124855000Y-110990000D03*
%TO.P,U1,22,30_CRX3*%
%TO.N,unconnected-(U1-Pad22)*%
X124855000Y-113530000D03*
%TO.P,U1,23,31_CTX3*%
%TO.N,unconnected-(U1-Pad23)*%
X124855000Y-116070000D03*
%TO.P,U1,24,32_OUT1B*%
%TO.N,unconnected-(U1-Pad24)*%
X124855000Y-118610000D03*
%TO.P,U1,25,33_MCLK2*%
%TO.N,/BUZZER*%
X140095000Y-118610000D03*
%TO.P,U1,26,34_RX8*%
%TO.N,/NEOPIXEL*%
X140095000Y-116070000D03*
%TO.P,U1,27,35_TX8*%
%TO.N,unconnected-(U1-Pad27)*%
X140095000Y-113530000D03*
%TO.P,U1,28,36_CS*%
%TO.N,unconnected-(U1-Pad28)*%
X140095000Y-110990000D03*
%TO.P,U1,29,37_CS*%
%TO.N,unconnected-(U1-Pad29)*%
X140095000Y-108450000D03*
%TO.P,U1,30,38_CS1_IN1*%
%TO.N,unconnected-(U1-Pad30)*%
X140095000Y-105910000D03*
%TO.P,U1,31,39_MISO1_OUT1A*%
%TO.N,unconnected-(U1-Pad31)*%
X140095000Y-103370000D03*
%TO.P,U1,32,40_A16*%
%TO.N,/CONT 2*%
X140095000Y-100830000D03*
%TO.P,U1,33,41_A17*%
%TO.N,/CONT 1*%
X140095000Y-98290000D03*
%TO.P,U1,34,GND*%
%TO.N,unconnected-(U1-Pad34)*%
X140095000Y-95750000D03*
%TO.P,U1,35,13_SCK_LED*%
%TO.N,unconnected-(U1-Pad35)*%
X140095000Y-93210000D03*
%TO.P,U1,36,14_A0_TX3_SPDIF_OUT*%
%TO.N,unconnected-(U1-Pad36)*%
X140095000Y-90670000D03*
%TO.P,U1,37,15_A1_RX3_SPDIF_IN*%
%TO.N,unconnected-(U1-Pad37)*%
X140095000Y-88130000D03*
%TO.P,U1,38,16_A2_RX4_SCL1*%
%TO.N,unconnected-(U1-Pad38)*%
X140095000Y-85590000D03*
%TO.P,U1,39,17_A3_TX4_SDA1*%
%TO.N,unconnected-(U1-Pad39)*%
X140095000Y-83050000D03*
%TO.P,U1,40,18_A4_SDA*%
%TO.N,/SDA 0*%
X140095000Y-80510000D03*
%TO.P,U1,41,19_A5_SCL*%
%TO.N,/SCL 0*%
X140095000Y-77970000D03*
%TO.P,U1,42,20_A6_TX5_LRCLK1*%
%TO.N,/TX 0*%
X140095000Y-75430000D03*
%TO.P,U1,43,21_A7_RX5_BCLK1*%
%TO.N,/RX 0*%
X140095000Y-72890000D03*
%TO.P,U1,44,22_A8_CTX1*%
%TO.N,Net-(R4-Pad2)*%
X140095000Y-70350000D03*
%TO.P,U1,45,23_A9_CRX1_MCLK1*%
%TO.N,unconnected-(U1-Pad45)*%
X140095000Y-67810000D03*
%TO.P,U1,46,3V3*%
%TO.N,unconnected-(U1-Pad46)*%
X140095000Y-65270000D03*
%TO.P,U1,47,GND*%
%TO.N,unconnected-(U1-Pad47)*%
X140095000Y-62730000D03*
%TO.P,U1,48,VIN*%
%TO.N,/VIN*%
X140095000Y-60190000D03*
%TO.P,U1,49,VUSB*%
%TO.N,unconnected-(U1-Pad49)*%
X137555000Y-62730000D03*
%TO.P,U1,50,VBAT*%
%TO.N,unconnected-(U1-Pad50)*%
X127395000Y-105910000D03*
%TO.P,U1,51,3V3*%
%TO.N,unconnected-(U1-Pad51)*%
X129935000Y-105910000D03*
%TO.P,U1,52,GND*%
%TO.N,unconnected-(U1-Pad52)*%
X132475000Y-105910000D03*
%TO.P,U1,53,PROGRAM*%
%TO.N,unconnected-(U1-Pad53)*%
X135015000Y-105910000D03*
%TO.P,U1,54,ON_OFF*%
%TO.N,unconnected-(U1-Pad54)*%
X137555000Y-105910000D03*
D25*
%TO.P,U1,55,5V*%
%TO.N,unconnected-(U1-Pad55)*%
X127905800Y-66489200D03*
D20*
%TO.P,U1,56,D-*%
%TO.N,unconnected-(U1-Pad56)*%
X127905800Y-69029200D03*
%TO.P,U1,57,D+*%
%TO.N,unconnected-(U1-Pad57)*%
X127905800Y-71569200D03*
%TO.P,U1,58,GND*%
%TO.N,unconnected-(U1-Pad58)*%
X127905800Y-74109200D03*
%TO.P,U1,59,GND*%
%TO.N,unconnected-(U1-Pad59)*%
X127905800Y-76649200D03*
D26*
%TO.P,U1,60,R+*%
%TO.N,unconnected-(U1-Pad60)*%
X137656600Y-73160000D03*
D27*
%TO.P,U1,61,LED*%
%TO.N,unconnected-(U1-Pad61)*%
X135656600Y-73160000D03*
%TO.P,U1,62,T-*%
%TO.N,unconnected-(U1-Pad62)*%
X133656600Y-73160000D03*
%TO.P,U1,63,T+*%
%TO.N,unconnected-(U1-Pad63)*%
X133656600Y-75160000D03*
%TO.P,U1,64,GND*%
%TO.N,unconnected-(U1-Pad64)*%
X135656600Y-75160000D03*
%TO.P,U1,65,R-*%
%TO.N,unconnected-(U1-Pad65)*%
X137656600Y-75160000D03*
%TO.P,U1,66,D-*%
%TO.N,Net-(J3-Pad2)*%
X133745000Y-60920000D03*
%TO.P,U1,67,D+*%
%TO.N,Net-(J3-Pad3)*%
X131205000Y-60920000D03*
%TD*%
D28*
%TO.P,J1,1,Pin_1*%
%TO.N,GND*%
X153880000Y-65780000D03*
D29*
%TO.P,J1,2,Pin_2*%
%TO.N,/V_BATT*%
X151880000Y-65780000D03*
%TO.P,J1,3,Pin_3*%
%TO.N,/TX 0*%
X149880000Y-65780000D03*
%TO.P,J1,4,Pin_4*%
%TO.N,/RX 0*%
X147880000Y-65780000D03*
%TD*%
D30*
%TO.N,/V_BATT*%
X145796000Y-59690000D03*
X143764000Y-59182000D03*
%TO.N,GND*%
X163068000Y-116078000D03*
X118130000Y-115520000D03*
X161544000Y-87884000D03*
X144272000Y-65786000D03*
X119420700Y-74676000D03*
X115620000Y-104480000D03*
X155670000Y-68800000D03*
X121666000Y-66040000D03*
%TO.N,/3.3V*%
X162220000Y-91270000D03*
%TO.N,/V_USB*%
X122150000Y-59773500D03*
X122660000Y-57605500D03*
%TO.N,Net-(J3-Pad2)*%
X133546500Y-58066500D03*
X117713700Y-70320000D03*
%TD*%
D31*
%TO.N,/V_BATT*%
X143764000Y-59182000D02*
X143502000Y-58920000D01*
X143502000Y-58920000D02*
X121710000Y-58920000D01*
X119149000Y-89231000D02*
X117820000Y-90560000D01*
X118567200Y-62062800D02*
X118567200Y-87506000D01*
X118736606Y-87506000D02*
X119149000Y-87918394D01*
X159240000Y-64262000D02*
X160256000Y-65278000D01*
X119149000Y-87918394D02*
X119149000Y-89231000D01*
X151880000Y-65780000D02*
X153398000Y-64262000D01*
X145796000Y-59690000D02*
X145796000Y-59696000D01*
X118567200Y-87506000D02*
X118736606Y-87506000D01*
X121710000Y-58920000D02*
X118567200Y-62062800D01*
X145796000Y-59696000D02*
X151880000Y-65780000D01*
X153398000Y-64262000D02*
X159240000Y-64262000D01*
%TO.N,GND*%
X117270000Y-114660000D02*
X118130000Y-115520000D01*
D32*
X121666000Y-66040000D02*
X121872500Y-66246500D01*
D31*
X160830000Y-118620000D02*
X160830000Y-118316000D01*
D32*
X119449700Y-74705000D02*
X121872500Y-74705000D01*
D31*
X116920000Y-105780000D02*
X115620000Y-104480000D01*
D32*
X119420700Y-74676000D02*
X119449700Y-74705000D01*
D31*
X163318000Y-86110000D02*
X164470000Y-86110000D01*
X161544000Y-87884000D02*
X163318000Y-86110000D01*
X142494000Y-62497000D02*
X142494000Y-65215000D01*
X117270000Y-113707500D02*
X115843500Y-112281000D01*
X117440000Y-105780000D02*
X116920000Y-105780000D01*
X115843500Y-112281000D02*
X115062000Y-112281000D01*
D32*
X121872500Y-66246500D02*
X121872500Y-67555000D01*
D31*
X144272000Y-65786000D02*
X143701000Y-65215000D01*
X153880000Y-65780000D02*
X153880000Y-67010000D01*
X160830000Y-118316000D02*
X163068000Y-116078000D01*
X117270000Y-113707500D02*
X117270000Y-114660000D01*
X153880000Y-67010000D02*
X155670000Y-68800000D01*
X143701000Y-65215000D02*
X142494000Y-65215000D01*
D33*
%TO.N,/TX 0*%
X149880000Y-65780000D02*
X148472110Y-67187890D01*
X147087890Y-67187890D02*
X145949780Y-68326000D01*
X142904000Y-68326000D02*
X142227600Y-69002400D01*
X145949780Y-68326000D02*
X142904000Y-68326000D01*
X148472110Y-67187890D02*
X147087890Y-67187890D01*
X142227600Y-73297400D02*
X140095000Y-75430000D01*
X142227600Y-69002400D02*
X142227600Y-73297400D01*
%TO.N,/PYRO 1*%
X119125000Y-92560000D02*
X124855000Y-98290000D01*
X117820000Y-92560000D02*
X119125000Y-92560000D01*
%TO.N,/PYRO 2*%
X117820000Y-94560000D02*
X118585000Y-94560000D01*
X118585000Y-94560000D02*
X124032500Y-100007500D01*
D32*
X124032500Y-100007500D02*
X124855000Y-100830000D01*
%TO.N,/CONT 1*%
X118448200Y-98560000D02*
X117820000Y-98560000D01*
X124359800Y-104471600D02*
X118448200Y-98560000D01*
X133913400Y-104471600D02*
X124359800Y-104471600D01*
X140095000Y-98290000D02*
X133913400Y-104471600D01*
%TO.N,/CONT 2*%
X136453400Y-106218200D02*
X136453400Y-104471600D01*
X120381449Y-103121449D02*
X117820000Y-100560000D01*
X120508551Y-103121449D02*
X120381449Y-103121449D01*
X136453400Y-104471600D02*
X140095000Y-100830000D01*
X120400000Y-103012898D02*
X120508551Y-103121449D01*
X120508551Y-103121449D02*
X124398702Y-107011600D01*
X124398702Y-107011600D02*
X135660000Y-107011600D01*
X135660000Y-107011600D02*
X136453400Y-106218200D01*
D33*
%TO.N,/ARM*%
X118045000Y-96560000D02*
X122967500Y-101482500D01*
X117820000Y-96560000D02*
X118045000Y-96560000D01*
D32*
X122967500Y-101482500D02*
X124855000Y-103370000D01*
%TO.N,Net-(R4-Pad2)*%
X142494000Y-66865000D02*
X141351000Y-68008000D01*
X141351000Y-69094000D02*
X140095000Y-70350000D01*
X145034000Y-66548000D02*
X145034000Y-65087000D01*
X145034000Y-65087000D02*
X144272000Y-64325000D01*
X141351000Y-68008000D02*
X141351000Y-69094000D01*
X142494000Y-66865000D02*
X144717000Y-66865000D01*
X144717000Y-66865000D02*
X145034000Y-66548000D01*
D33*
%TO.N,/SCL 0*%
X161410000Y-77970000D02*
X164470000Y-81030000D01*
X165595000Y-82155000D02*
X165595000Y-111315000D01*
X165595000Y-111315000D02*
X160830000Y-116080000D01*
X164470000Y-81030000D02*
X165595000Y-82155000D01*
X140095000Y-77970000D02*
X161410000Y-77970000D01*
%TO.N,/SDA 0*%
X140095000Y-80510000D02*
X141335000Y-79270000D01*
X160782000Y-88806695D02*
X160782000Y-87258000D01*
X164760000Y-93180000D02*
X162945000Y-91365000D01*
X162945000Y-91365000D02*
X162945000Y-90969695D01*
X164630000Y-107200000D02*
X164630000Y-93310000D01*
X162945000Y-90969695D02*
X160782000Y-88806695D01*
X141335000Y-79270000D02*
X160220000Y-79270000D01*
X164630000Y-93310000D02*
X164760000Y-93180000D01*
X160220000Y-79320000D02*
X164470000Y-83570000D01*
X160220000Y-79270000D02*
X160220000Y-79320000D01*
X160830000Y-111000000D02*
X164630000Y-107200000D01*
X160782000Y-87258000D02*
X164470000Y-83570000D01*
%TO.N,/RX 0*%
X142717604Y-67876000D02*
X141777600Y-68816004D01*
X147859384Y-65780000D02*
X145763384Y-67876000D01*
X141777600Y-71207400D02*
X140095000Y-72890000D01*
X147880000Y-65780000D02*
X147859384Y-65780000D01*
X141777600Y-68816004D02*
X141777600Y-71207400D01*
X145763384Y-67876000D02*
X142717604Y-67876000D01*
D31*
%TO.N,/3.3V*%
X158250000Y-121120000D02*
X160830000Y-123700000D01*
X141160000Y-97320000D02*
X158250000Y-97320000D01*
X126135000Y-97030000D02*
X124855000Y-95750000D01*
X141160000Y-97320000D02*
X140870000Y-97030000D01*
X138841000Y-106397424D02*
X138841000Y-105253000D01*
X117270000Y-118607500D02*
X114950000Y-116287500D01*
X123954000Y-109476000D02*
X124206000Y-109728000D01*
X114950000Y-111377000D02*
X114950000Y-110950000D01*
X139446000Y-104648000D02*
X140970000Y-104648000D01*
X140870000Y-97030000D02*
X126135000Y-97030000D01*
X158250000Y-97320000D02*
X158250000Y-121120000D01*
X124206000Y-109728000D02*
X135510424Y-109728000D01*
X138841000Y-105253000D02*
X139446000Y-104648000D01*
X158250000Y-97320000D02*
X162220000Y-93350000D01*
X141520000Y-97680000D02*
X141160000Y-97320000D01*
X114530749Y-111377000D02*
X114950000Y-111377000D01*
X135510424Y-109728000D02*
X138841000Y-106397424D01*
X117440000Y-110680000D02*
X118644000Y-109476000D01*
X114133000Y-111774749D02*
X114530749Y-111377000D01*
X114530749Y-113185000D02*
X114133000Y-112787251D01*
X140970000Y-104648000D02*
X141520000Y-104098000D01*
X118644000Y-109476000D02*
X123954000Y-109476000D01*
X114950000Y-116287500D02*
X114950000Y-113185000D01*
X114133000Y-112787251D02*
X114133000Y-111774749D01*
X117440000Y-110680000D02*
X115113000Y-110680000D01*
X115113000Y-110680000D02*
X115062000Y-110731000D01*
X162220000Y-93350000D02*
X162220000Y-91270000D01*
X114950000Y-110950000D02*
X115044000Y-110856000D01*
X114950000Y-113185000D02*
X114530749Y-113185000D01*
X141520000Y-104098000D02*
X141520000Y-97680000D01*
D33*
%TO.N,Net-(D4-Pad1)*%
X120640000Y-113537500D02*
X120470000Y-113707500D01*
X120640000Y-110680000D02*
X120640000Y-113537500D01*
%TO.N,/NEOPIXEL*%
X138970000Y-117195000D02*
X140095000Y-116070000D01*
X120470000Y-118607500D02*
X121882500Y-117195000D01*
X121882500Y-117195000D02*
X138970000Y-117195000D01*
D31*
%TO.N,/VIN*%
X162578000Y-62738000D02*
X162578000Y-63500000D01*
X162578000Y-62738000D02*
X164356000Y-60960000D01*
X142494000Y-60947000D02*
X144031000Y-60947000D01*
X162578000Y-63500000D02*
X164356000Y-65278000D01*
X155704236Y-57912000D02*
X157988000Y-60195764D01*
X142544000Y-60947000D02*
X144272000Y-62675000D01*
X145288000Y-57912000D02*
X155704236Y-57912000D01*
X140095000Y-60190000D02*
X141979000Y-60190000D01*
X142494000Y-60947000D02*
X142544000Y-60947000D01*
X157988000Y-62230000D02*
X158496000Y-62738000D01*
X157988000Y-60195764D02*
X157988000Y-62230000D01*
X144780000Y-60198000D02*
X144780000Y-58420000D01*
X144031000Y-60947000D02*
X144780000Y-60198000D01*
X141979000Y-60432000D02*
X142494000Y-60947000D01*
X144780000Y-58420000D02*
X145288000Y-57912000D01*
X141979000Y-60190000D02*
X141979000Y-60432000D01*
X158496000Y-62738000D02*
X162578000Y-62738000D01*
%TO.N,/V_USB*%
X158816000Y-60022500D02*
X159318500Y-60022500D01*
X122092500Y-69830000D02*
X119275200Y-67012700D01*
X159318500Y-60022500D02*
X160256000Y-60960000D01*
X119275200Y-67012700D02*
X119275200Y-62648300D01*
X119275200Y-62648300D02*
X122150000Y-59773500D01*
X122660000Y-57605500D02*
X123053000Y-57212500D01*
X144717500Y-57212500D02*
X144780000Y-57150000D01*
X123053000Y-57212500D02*
X144717500Y-57212500D01*
X155943500Y-57150000D02*
X158816000Y-60022500D01*
X144780000Y-57150000D02*
X155943500Y-57150000D01*
D33*
%TO.N,Net-(J3-Pad2)*%
X120880000Y-58330000D02*
X117810000Y-61400000D01*
X117810000Y-70223700D02*
X117713700Y-70320000D01*
X133283000Y-58330000D02*
X120880000Y-58330000D01*
X117810000Y-61400000D02*
X117810000Y-70223700D01*
X133546500Y-58066500D02*
X133283000Y-58330000D01*
D32*
%TO.N,Net-(J3-Pad3)*%
X123230000Y-69992500D02*
X122092500Y-71130000D01*
X131205000Y-60920000D02*
X130510840Y-61614160D01*
X123856640Y-61614160D02*
X123230000Y-62240800D01*
X123230000Y-62240800D02*
X123230000Y-69992500D01*
X130510840Y-61614160D02*
X123856640Y-61614160D01*
%TD*%
M02*
