%TF.GenerationSoftware,KiCad,Pcbnew,(6.0.7)*%
%TF.CreationDate,2023-03-09T00:13:32-05:00*%
%TF.ProjectId,board_one_teensy_22,626f6172-645f-46f6-9e65-5f7465656e73,rev?*%
%TF.SameCoordinates,Original*%
%TF.FileFunction,Legend,Top*%
%TF.FilePolarity,Positive*%
%FSLAX46Y46*%
G04 Gerber Fmt 4.6, Leading zero omitted, Abs format (unit mm)*
G04 Created by KiCad (PCBNEW (6.0.7)) date 2023-03-09 00:13:32*
%MOMM*%
%LPD*%
G01*
G04 APERTURE LIST*
%ADD10C,0.150000*%
%ADD11C,0.300000*%
%ADD12C,0.120000*%
%ADD13C,0.250000*%
%ADD14C,0.127000*%
%ADD15C,0.200000*%
%ADD16C,0.254000*%
%ADD17C,0.010000*%
%ADD18C,0.100000*%
G04 APERTURE END LIST*
D10*
%TO.C,U3*%
X153884380Y-119806404D02*
X154693904Y-119806404D01*
X154789142Y-119758785D01*
X154836761Y-119711166D01*
X154884380Y-119615928D01*
X154884380Y-119425452D01*
X154836761Y-119330214D01*
X154789142Y-119282595D01*
X154693904Y-119234976D01*
X153884380Y-119234976D01*
X153884380Y-118854023D02*
X153884380Y-118234976D01*
X154265333Y-118568309D01*
X154265333Y-118425452D01*
X154312952Y-118330214D01*
X154360571Y-118282595D01*
X154455809Y-118234976D01*
X154693904Y-118234976D01*
X154789142Y-118282595D01*
X154836761Y-118330214D01*
X154884380Y-118425452D01*
X154884380Y-118711166D01*
X154836761Y-118806404D01*
X154789142Y-118854023D01*
X153784523Y-117047619D02*
X153784523Y-116261428D01*
X154268333Y-116684761D01*
X154268333Y-116503333D01*
X154328809Y-116382380D01*
X154389285Y-116321904D01*
X154510238Y-116261428D01*
X154812619Y-116261428D01*
X154933571Y-116321904D01*
X154994047Y-116382380D01*
X155054523Y-116503333D01*
X155054523Y-116866190D01*
X154994047Y-116987142D01*
X154933571Y-117047619D01*
X155054523Y-115656666D02*
X155054523Y-115414761D01*
X154994047Y-115293809D01*
X154933571Y-115233333D01*
X154752142Y-115112380D01*
X154510238Y-115051904D01*
X154026428Y-115051904D01*
X153905476Y-115112380D01*
X153845000Y-115172857D01*
X153784523Y-115293809D01*
X153784523Y-115535714D01*
X153845000Y-115656666D01*
X153905476Y-115717142D01*
X154026428Y-115777619D01*
X154328809Y-115777619D01*
X154449761Y-115717142D01*
X154510238Y-115656666D01*
X154570714Y-115535714D01*
X154570714Y-115293809D01*
X154510238Y-115172857D01*
X154449761Y-115112380D01*
X154328809Y-115051904D01*
X153784523Y-113963333D02*
X153784523Y-114205238D01*
X153845000Y-114326190D01*
X153905476Y-114386666D01*
X154086904Y-114507619D01*
X154328809Y-114568095D01*
X154812619Y-114568095D01*
X154933571Y-114507619D01*
X154994047Y-114447142D01*
X155054523Y-114326190D01*
X155054523Y-114084285D01*
X154994047Y-113963333D01*
X154933571Y-113902857D01*
X154812619Y-113842380D01*
X154510238Y-113842380D01*
X154389285Y-113902857D01*
X154328809Y-113963333D01*
X154268333Y-114084285D01*
X154268333Y-114326190D01*
X154328809Y-114447142D01*
X154389285Y-114507619D01*
X154510238Y-114568095D01*
X153784523Y-112753809D02*
X153784523Y-112995714D01*
X153845000Y-113116666D01*
X153905476Y-113177142D01*
X154086904Y-113298095D01*
X154328809Y-113358571D01*
X154812619Y-113358571D01*
X154933571Y-113298095D01*
X154994047Y-113237619D01*
X155054523Y-113116666D01*
X155054523Y-112874761D01*
X154994047Y-112753809D01*
X154933571Y-112693333D01*
X154812619Y-112632857D01*
X154510238Y-112632857D01*
X154389285Y-112693333D01*
X154328809Y-112753809D01*
X154268333Y-112874761D01*
X154268333Y-113116666D01*
X154328809Y-113237619D01*
X154389285Y-113298095D01*
X154510238Y-113358571D01*
%TO.C,J2*%
X114514380Y-85169333D02*
X115228666Y-85169333D01*
X115371523Y-85216952D01*
X115466761Y-85312190D01*
X115514380Y-85455047D01*
X115514380Y-85550285D01*
X114609619Y-84740761D02*
X114562000Y-84693142D01*
X114514380Y-84597904D01*
X114514380Y-84359809D01*
X114562000Y-84264571D01*
X114609619Y-84216952D01*
X114704857Y-84169333D01*
X114800095Y-84169333D01*
X114942952Y-84216952D01*
X115514380Y-84788380D01*
X115514380Y-84169333D01*
D11*
%TO.C,*%
D10*
%TO.C,U2*%
X154697180Y-85851904D02*
X155506704Y-85851904D01*
X155601942Y-85804285D01*
X155649561Y-85756666D01*
X155697180Y-85661428D01*
X155697180Y-85470952D01*
X155649561Y-85375714D01*
X155601942Y-85328095D01*
X155506704Y-85280476D01*
X154697180Y-85280476D01*
X154792419Y-84851904D02*
X154744800Y-84804285D01*
X154697180Y-84709047D01*
X154697180Y-84470952D01*
X154744800Y-84375714D01*
X154792419Y-84328095D01*
X154887657Y-84280476D01*
X154982895Y-84280476D01*
X155125752Y-84328095D01*
X155697180Y-84899523D01*
X155697180Y-84280476D01*
X153175238Y-96833571D02*
X153318095Y-96881190D01*
X153365714Y-96928809D01*
X153413333Y-97024047D01*
X153413333Y-97166904D01*
X153365714Y-97262142D01*
X153318095Y-97309761D01*
X153222857Y-97357380D01*
X152841904Y-97357380D01*
X152841904Y-96357380D01*
X153175238Y-96357380D01*
X153270476Y-96405000D01*
X153318095Y-96452619D01*
X153365714Y-96547857D01*
X153365714Y-96643095D01*
X153318095Y-96738333D01*
X153270476Y-96785952D01*
X153175238Y-96833571D01*
X152841904Y-96833571D01*
X153841904Y-97357380D02*
X153841904Y-96357380D01*
X154413333Y-97357380D01*
X154413333Y-96357380D01*
X155080000Y-96357380D02*
X155270476Y-96357380D01*
X155365714Y-96405000D01*
X155460952Y-96500238D01*
X155508571Y-96690714D01*
X155508571Y-97024047D01*
X155460952Y-97214523D01*
X155365714Y-97309761D01*
X155270476Y-97357380D01*
X155080000Y-97357380D01*
X154984761Y-97309761D01*
X154889523Y-97214523D01*
X154841904Y-97024047D01*
X154841904Y-96690714D01*
X154889523Y-96500238D01*
X154984761Y-96405000D01*
X155080000Y-96357380D01*
X156127619Y-96357380D02*
X156222857Y-96357380D01*
X156318095Y-96405000D01*
X156365714Y-96452619D01*
X156413333Y-96547857D01*
X156460952Y-96738333D01*
X156460952Y-96976428D01*
X156413333Y-97166904D01*
X156365714Y-97262142D01*
X156318095Y-97309761D01*
X156222857Y-97357380D01*
X156127619Y-97357380D01*
X156032380Y-97309761D01*
X155984761Y-97262142D01*
X155937142Y-97166904D01*
X155889523Y-96976428D01*
X155889523Y-96738333D01*
X155937142Y-96547857D01*
X155984761Y-96452619D01*
X156032380Y-96405000D01*
X156127619Y-96357380D01*
X157365714Y-96357380D02*
X156889523Y-96357380D01*
X156841904Y-96833571D01*
X156889523Y-96785952D01*
X156984761Y-96738333D01*
X157222857Y-96738333D01*
X157318095Y-96785952D01*
X157365714Y-96833571D01*
X157413333Y-96928809D01*
X157413333Y-97166904D01*
X157365714Y-97262142D01*
X157318095Y-97309761D01*
X157222857Y-97357380D01*
X156984761Y-97357380D01*
X156889523Y-97309761D01*
X156841904Y-97262142D01*
X158318095Y-96357380D02*
X157841904Y-96357380D01*
X157794285Y-96833571D01*
X157841904Y-96785952D01*
X157937142Y-96738333D01*
X158175238Y-96738333D01*
X158270476Y-96785952D01*
X158318095Y-96833571D01*
X158365714Y-96928809D01*
X158365714Y-97166904D01*
X158318095Y-97262142D01*
X158270476Y-97309761D01*
X158175238Y-97357380D01*
X157937142Y-97357380D01*
X157841904Y-97309761D01*
X157794285Y-97262142D01*
%TO.C,D1*%
X161032904Y-67651380D02*
X161032904Y-66651380D01*
X161271000Y-66651380D01*
X161413857Y-66699000D01*
X161509095Y-66794238D01*
X161556714Y-66889476D01*
X161604333Y-67079952D01*
X161604333Y-67222809D01*
X161556714Y-67413285D01*
X161509095Y-67508523D01*
X161413857Y-67603761D01*
X161271000Y-67651380D01*
X161032904Y-67651380D01*
X162556714Y-67651380D02*
X161985285Y-67651380D01*
X162271000Y-67651380D02*
X162271000Y-66651380D01*
X162175761Y-66794238D01*
X162080523Y-66889476D01*
X161985285Y-66937095D01*
%TO.C,D2*%
X161032904Y-63333380D02*
X161032904Y-62333380D01*
X161271000Y-62333380D01*
X161413857Y-62381000D01*
X161509095Y-62476238D01*
X161556714Y-62571476D01*
X161604333Y-62761952D01*
X161604333Y-62904809D01*
X161556714Y-63095285D01*
X161509095Y-63190523D01*
X161413857Y-63285761D01*
X161271000Y-63333380D01*
X161032904Y-63333380D01*
X161985285Y-62428619D02*
X162032904Y-62381000D01*
X162128142Y-62333380D01*
X162366238Y-62333380D01*
X162461476Y-62381000D01*
X162509095Y-62428619D01*
X162556714Y-62523857D01*
X162556714Y-62619095D01*
X162509095Y-62761952D01*
X161937666Y-63333380D01*
X162556714Y-63333380D01*
D11*
%TO.C,*%
D10*
%TO.C,U1*%
X132040380Y-97027904D02*
X132849904Y-97027904D01*
X132945142Y-96980285D01*
X132992761Y-96932666D01*
X133040380Y-96837428D01*
X133040380Y-96646952D01*
X132992761Y-96551714D01*
X132945142Y-96504095D01*
X132849904Y-96456476D01*
X132040380Y-96456476D01*
X133040380Y-95456476D02*
X133040380Y-96027904D01*
X133040380Y-95742190D02*
X132040380Y-95742190D01*
X132183238Y-95837428D01*
X132278476Y-95932666D01*
X132326095Y-96027904D01*
X129438180Y-74243723D02*
X130247704Y-74243723D01*
X130342942Y-74196104D01*
X130390561Y-74148485D01*
X130438180Y-74053247D01*
X130438180Y-73862771D01*
X130390561Y-73767533D01*
X130342942Y-73719914D01*
X130247704Y-73672295D01*
X129438180Y-73672295D01*
X130390561Y-73243723D02*
X130438180Y-73100866D01*
X130438180Y-72862771D01*
X130390561Y-72767533D01*
X130342942Y-72719914D01*
X130247704Y-72672295D01*
X130152466Y-72672295D01*
X130057228Y-72719914D01*
X130009609Y-72767533D01*
X129961990Y-72862771D01*
X129914371Y-73053247D01*
X129866752Y-73148485D01*
X129819133Y-73196104D01*
X129723895Y-73243723D01*
X129628657Y-73243723D01*
X129533419Y-73196104D01*
X129485800Y-73148485D01*
X129438180Y-73053247D01*
X129438180Y-72815152D01*
X129485800Y-72672295D01*
X129914371Y-71910390D02*
X129961990Y-71767533D01*
X130009609Y-71719914D01*
X130104847Y-71672295D01*
X130247704Y-71672295D01*
X130342942Y-71719914D01*
X130390561Y-71767533D01*
X130438180Y-71862771D01*
X130438180Y-72243723D01*
X129438180Y-72243723D01*
X129438180Y-71910390D01*
X129485800Y-71815152D01*
X129533419Y-71767533D01*
X129628657Y-71719914D01*
X129723895Y-71719914D01*
X129819133Y-71767533D01*
X129866752Y-71815152D01*
X129914371Y-71910390D01*
X129914371Y-72243723D01*
X130438180Y-70481819D02*
X129438180Y-70481819D01*
X129914371Y-70481819D02*
X129914371Y-69910390D01*
X130438180Y-69910390D02*
X129438180Y-69910390D01*
X130438180Y-69291342D02*
X130390561Y-69386580D01*
X130342942Y-69434200D01*
X130247704Y-69481819D01*
X129961990Y-69481819D01*
X129866752Y-69434200D01*
X129819133Y-69386580D01*
X129771514Y-69291342D01*
X129771514Y-69148485D01*
X129819133Y-69053247D01*
X129866752Y-69005628D01*
X129961990Y-68958009D01*
X130247704Y-68958009D01*
X130342942Y-69005628D01*
X130390561Y-69053247D01*
X130438180Y-69148485D01*
X130438180Y-69291342D01*
X130390561Y-68577057D02*
X130438180Y-68481819D01*
X130438180Y-68291342D01*
X130390561Y-68196104D01*
X130295323Y-68148485D01*
X130247704Y-68148485D01*
X130152466Y-68196104D01*
X130104847Y-68291342D01*
X130104847Y-68434200D01*
X130057228Y-68529438D01*
X129961990Y-68577057D01*
X129914371Y-68577057D01*
X129819133Y-68529438D01*
X129771514Y-68434200D01*
X129771514Y-68291342D01*
X129819133Y-68196104D01*
X129771514Y-67862771D02*
X129771514Y-67481819D01*
X129438180Y-67719914D02*
X130295323Y-67719914D01*
X130390561Y-67672295D01*
X130438180Y-67577057D01*
X130438180Y-67481819D01*
X129391666Y-88446666D02*
X129391666Y-87746666D01*
X129625000Y-88246666D01*
X129858333Y-87746666D01*
X129858333Y-88446666D01*
X130191666Y-88446666D02*
X130191666Y-87746666D01*
X130525000Y-88446666D02*
X130525000Y-87746666D01*
X130758333Y-88246666D01*
X130991666Y-87746666D01*
X130991666Y-88446666D01*
X131258333Y-87746666D02*
X131725000Y-88446666D01*
X131725000Y-87746666D02*
X131258333Y-88446666D01*
X132391666Y-88446666D02*
X132158333Y-88113333D01*
X131991666Y-88446666D02*
X131991666Y-87746666D01*
X132258333Y-87746666D01*
X132325000Y-87780000D01*
X132358333Y-87813333D01*
X132391666Y-87880000D01*
X132391666Y-87980000D01*
X132358333Y-88046666D01*
X132325000Y-88080000D01*
X132258333Y-88113333D01*
X131991666Y-88113333D01*
X132591666Y-87746666D02*
X132991666Y-87746666D01*
X132791666Y-88446666D02*
X132791666Y-87746666D01*
X133591666Y-88446666D02*
X133191666Y-88446666D01*
X133391666Y-88446666D02*
X133391666Y-87746666D01*
X133325000Y-87846666D01*
X133258333Y-87913333D01*
X133191666Y-87946666D01*
X134025000Y-87746666D02*
X134091666Y-87746666D01*
X134158333Y-87780000D01*
X134191666Y-87813333D01*
X134225000Y-87880000D01*
X134258333Y-88013333D01*
X134258333Y-88180000D01*
X134225000Y-88313333D01*
X134191666Y-88380000D01*
X134158333Y-88413333D01*
X134091666Y-88446666D01*
X134025000Y-88446666D01*
X133958333Y-88413333D01*
X133925000Y-88380000D01*
X133891666Y-88313333D01*
X133858333Y-88180000D01*
X133858333Y-88013333D01*
X133891666Y-87880000D01*
X133925000Y-87813333D01*
X133958333Y-87780000D01*
X134025000Y-87746666D01*
X134858333Y-87746666D02*
X134725000Y-87746666D01*
X134658333Y-87780000D01*
X134625000Y-87813333D01*
X134558333Y-87913333D01*
X134525000Y-88046666D01*
X134525000Y-88313333D01*
X134558333Y-88380000D01*
X134591666Y-88413333D01*
X134658333Y-88446666D01*
X134791666Y-88446666D01*
X134858333Y-88413333D01*
X134891666Y-88380000D01*
X134925000Y-88313333D01*
X134925000Y-88146666D01*
X134891666Y-88080000D01*
X134858333Y-88046666D01*
X134791666Y-88013333D01*
X134658333Y-88013333D01*
X134591666Y-88046666D01*
X134558333Y-88080000D01*
X134525000Y-88146666D01*
X135191666Y-87813333D02*
X135225000Y-87780000D01*
X135291666Y-87746666D01*
X135458333Y-87746666D01*
X135525000Y-87780000D01*
X135558333Y-87813333D01*
X135591666Y-87880000D01*
X135591666Y-87946666D01*
X135558333Y-88046666D01*
X135158333Y-88446666D01*
X135591666Y-88446666D01*
X132927380Y-116649047D02*
X131927380Y-116649047D01*
X132641666Y-116315714D01*
X131927380Y-115982380D01*
X132927380Y-115982380D01*
X132927380Y-115506190D02*
X132260714Y-115506190D01*
X131927380Y-115506190D02*
X131975000Y-115553809D01*
X132022619Y-115506190D01*
X131975000Y-115458571D01*
X131927380Y-115506190D01*
X132022619Y-115506190D01*
X132879761Y-114601428D02*
X132927380Y-114696666D01*
X132927380Y-114887142D01*
X132879761Y-114982380D01*
X132832142Y-115030000D01*
X132736904Y-115077619D01*
X132451190Y-115077619D01*
X132355952Y-115030000D01*
X132308333Y-114982380D01*
X132260714Y-114887142D01*
X132260714Y-114696666D01*
X132308333Y-114601428D01*
X132927380Y-114172857D02*
X132260714Y-114172857D01*
X132451190Y-114172857D02*
X132355952Y-114125238D01*
X132308333Y-114077619D01*
X132260714Y-113982380D01*
X132260714Y-113887142D01*
X132927380Y-113410952D02*
X132879761Y-113506190D01*
X132832142Y-113553809D01*
X132736904Y-113601428D01*
X132451190Y-113601428D01*
X132355952Y-113553809D01*
X132308333Y-113506190D01*
X132260714Y-113410952D01*
X132260714Y-113268095D01*
X132308333Y-113172857D01*
X132355952Y-113125238D01*
X132451190Y-113077619D01*
X132736904Y-113077619D01*
X132832142Y-113125238D01*
X132879761Y-113172857D01*
X132927380Y-113268095D01*
X132927380Y-113410952D01*
X132879761Y-111934761D02*
X132927380Y-111791904D01*
X132927380Y-111553809D01*
X132879761Y-111458571D01*
X132832142Y-111410952D01*
X132736904Y-111363333D01*
X132641666Y-111363333D01*
X132546428Y-111410952D01*
X132498809Y-111458571D01*
X132451190Y-111553809D01*
X132403571Y-111744285D01*
X132355952Y-111839523D01*
X132308333Y-111887142D01*
X132213095Y-111934761D01*
X132117857Y-111934761D01*
X132022619Y-111887142D01*
X131975000Y-111839523D01*
X131927380Y-111744285D01*
X131927380Y-111506190D01*
X131975000Y-111363333D01*
X132927380Y-110934761D02*
X131927380Y-110934761D01*
X131927380Y-110696666D01*
X131975000Y-110553809D01*
X132070238Y-110458571D01*
X132165476Y-110410952D01*
X132355952Y-110363333D01*
X132498809Y-110363333D01*
X132689285Y-110410952D01*
X132784523Y-110458571D01*
X132879761Y-110553809D01*
X132927380Y-110696666D01*
X132927380Y-110934761D01*
X131213095Y-62182380D02*
X131213095Y-62991904D01*
X131260714Y-63087142D01*
X131308333Y-63134761D01*
X131403571Y-63182380D01*
X131594047Y-63182380D01*
X131689285Y-63134761D01*
X131736904Y-63087142D01*
X131784523Y-62991904D01*
X131784523Y-62182380D01*
X132213095Y-63134761D02*
X132355952Y-63182380D01*
X132594047Y-63182380D01*
X132689285Y-63134761D01*
X132736904Y-63087142D01*
X132784523Y-62991904D01*
X132784523Y-62896666D01*
X132736904Y-62801428D01*
X132689285Y-62753809D01*
X132594047Y-62706190D01*
X132403571Y-62658571D01*
X132308333Y-62610952D01*
X132260714Y-62563333D01*
X132213095Y-62468095D01*
X132213095Y-62372857D01*
X132260714Y-62277619D01*
X132308333Y-62230000D01*
X132403571Y-62182380D01*
X132641666Y-62182380D01*
X132784523Y-62230000D01*
X133546428Y-62658571D02*
X133689285Y-62706190D01*
X133736904Y-62753809D01*
X133784523Y-62849047D01*
X133784523Y-62991904D01*
X133736904Y-63087142D01*
X133689285Y-63134761D01*
X133594047Y-63182380D01*
X133213095Y-63182380D01*
X133213095Y-62182380D01*
X133546428Y-62182380D01*
X133641666Y-62230000D01*
X133689285Y-62277619D01*
X133736904Y-62372857D01*
X133736904Y-62468095D01*
X133689285Y-62563333D01*
X133641666Y-62610952D01*
X133546428Y-62658571D01*
X133213095Y-62658571D01*
X132894457Y-77263571D02*
X133227790Y-77263571D01*
X133370647Y-77787380D02*
X132894457Y-77787380D01*
X132894457Y-76787380D01*
X133370647Y-76787380D01*
X133656361Y-77120714D02*
X134037314Y-77120714D01*
X133799219Y-76787380D02*
X133799219Y-77644523D01*
X133846838Y-77739761D01*
X133942076Y-77787380D01*
X134037314Y-77787380D01*
X134370647Y-77787380D02*
X134370647Y-76787380D01*
X134799219Y-77787380D02*
X134799219Y-77263571D01*
X134751600Y-77168333D01*
X134656361Y-77120714D01*
X134513504Y-77120714D01*
X134418266Y-77168333D01*
X134370647Y-77215952D01*
X135656361Y-77739761D02*
X135561123Y-77787380D01*
X135370647Y-77787380D01*
X135275409Y-77739761D01*
X135227790Y-77644523D01*
X135227790Y-77263571D01*
X135275409Y-77168333D01*
X135370647Y-77120714D01*
X135561123Y-77120714D01*
X135656361Y-77168333D01*
X135703980Y-77263571D01*
X135703980Y-77358809D01*
X135227790Y-77454047D01*
X136132552Y-77787380D02*
X136132552Y-77120714D01*
X136132552Y-77311190D02*
X136180171Y-77215952D01*
X136227790Y-77168333D01*
X136323028Y-77120714D01*
X136418266Y-77120714D01*
X136751600Y-77120714D02*
X136751600Y-77787380D01*
X136751600Y-77215952D02*
X136799219Y-77168333D01*
X136894457Y-77120714D01*
X137037314Y-77120714D01*
X137132552Y-77168333D01*
X137180171Y-77263571D01*
X137180171Y-77787380D01*
X138037314Y-77739761D02*
X137942076Y-77787380D01*
X137751600Y-77787380D01*
X137656361Y-77739761D01*
X137608742Y-77644523D01*
X137608742Y-77263571D01*
X137656361Y-77168333D01*
X137751600Y-77120714D01*
X137942076Y-77120714D01*
X138037314Y-77168333D01*
X138084933Y-77263571D01*
X138084933Y-77358809D01*
X137608742Y-77454047D01*
X138370647Y-77120714D02*
X138751600Y-77120714D01*
X138513504Y-76787380D02*
X138513504Y-77644523D01*
X138561123Y-77739761D01*
X138656361Y-77787380D01*
X138751600Y-77787380D01*
X131271666Y-87176666D02*
X131271666Y-86476666D01*
X131438333Y-86476666D01*
X131538333Y-86510000D01*
X131605000Y-86576666D01*
X131638333Y-86643333D01*
X131671666Y-86776666D01*
X131671666Y-86876666D01*
X131638333Y-87010000D01*
X131605000Y-87076666D01*
X131538333Y-87143333D01*
X131438333Y-87176666D01*
X131271666Y-87176666D01*
X131871666Y-86476666D02*
X132105000Y-87176666D01*
X132338333Y-86476666D01*
X132771666Y-86476666D02*
X132771666Y-86976666D01*
X132738333Y-87076666D01*
X132671666Y-87143333D01*
X132571666Y-87176666D01*
X132505000Y-87176666D01*
X133405000Y-86476666D02*
X133271666Y-86476666D01*
X133205000Y-86510000D01*
X133171666Y-86543333D01*
X133105000Y-86643333D01*
X133071666Y-86776666D01*
X133071666Y-87043333D01*
X133105000Y-87110000D01*
X133138333Y-87143333D01*
X133205000Y-87176666D01*
X133338333Y-87176666D01*
X133405000Y-87143333D01*
X133438333Y-87110000D01*
X133471666Y-87043333D01*
X133471666Y-86876666D01*
X133438333Y-86810000D01*
X133405000Y-86776666D01*
X133338333Y-86743333D01*
X133205000Y-86743333D01*
X133138333Y-86776666D01*
X133105000Y-86810000D01*
X133071666Y-86876666D01*
X133738333Y-86976666D02*
X134071666Y-86976666D01*
X133671666Y-87176666D02*
X133905000Y-86476666D01*
X134138333Y-87176666D01*
D12*
%TO.C,R5*%
X143016500Y-66277258D02*
X143016500Y-65802742D01*
X141971500Y-66277258D02*
X141971500Y-65802742D01*
D10*
%TO.C,U3*%
X163370000Y-127510000D02*
X163370000Y-102110000D01*
X163370000Y-127510000D02*
X145590000Y-127510000D01*
X145590000Y-127510000D02*
X145590000Y-102110000D01*
X163370000Y-102110000D02*
X145590000Y-102110000D01*
D13*
X160955000Y-128110000D02*
G75*
G03*
X160955000Y-128110000I-125000J0D01*
G01*
D14*
%TO.C,D5*%
X116540000Y-105730000D02*
X116540000Y-110730000D01*
X118253500Y-105730000D02*
X119826500Y-105730000D01*
X121540000Y-110730000D02*
X121540000Y-105730000D01*
X118253500Y-110730000D02*
X119826500Y-110730000D01*
D15*
X120740000Y-104480000D02*
G75*
G03*
X120740000Y-104480000I-100000J0D01*
G01*
D14*
%TO.C,D4*%
X116370000Y-113657500D02*
X116370000Y-118657500D01*
X118083500Y-113657500D02*
X119656500Y-113657500D01*
X118083500Y-118657500D02*
X119656500Y-118657500D01*
X121370000Y-118657500D02*
X121370000Y-113657500D01*
D15*
X120570000Y-112407500D02*
G75*
G03*
X120570000Y-112407500I-100000J0D01*
G01*
D12*
%TO.C,J2*%
X119280000Y-101700000D02*
X117680000Y-101700000D01*
X113720000Y-87260000D02*
X113720000Y-88260000D01*
X113720000Y-101860000D02*
X113720000Y-100860000D01*
X117680000Y-101700000D02*
X117680000Y-101420000D01*
X119280000Y-86500000D02*
X111460000Y-86500000D01*
X113720000Y-88260000D02*
X115320000Y-88260000D01*
X113720000Y-88260000D02*
X111460000Y-88260000D01*
X119280000Y-102620000D02*
X119280000Y-101700000D01*
X111460000Y-89060000D02*
X115820000Y-89060000D01*
X115820000Y-89060000D02*
X115820000Y-100060000D01*
X119280000Y-87420000D02*
X119280000Y-86500000D01*
X113720000Y-87760000D02*
X111460000Y-87760000D01*
X117680000Y-87420000D02*
X119280000Y-87420000D01*
X115820000Y-100060000D02*
X111460000Y-100060000D01*
X115320000Y-100860000D02*
X115320000Y-101860000D01*
X115320000Y-87260000D02*
X113720000Y-87260000D01*
X113720000Y-100860000D02*
X115320000Y-100860000D01*
X115320000Y-101860000D02*
X113720000Y-101860000D01*
X117680000Y-87700000D02*
X118895000Y-87700000D01*
X115320000Y-88260000D02*
X115320000Y-87260000D01*
X117680000Y-86500000D02*
X117680000Y-87420000D01*
X117680000Y-102620000D02*
X117680000Y-101700000D01*
X111460000Y-86500000D02*
X111460000Y-102620000D01*
X111460000Y-102620000D02*
X119280000Y-102620000D01*
X117680000Y-87700000D02*
X117680000Y-87420000D01*
%TO.C,C2*%
X114552000Y-111646580D02*
X114552000Y-111365420D01*
X115572000Y-111646580D02*
X115572000Y-111365420D01*
%TO.C,*%
G36*
X124729851Y-51823421D02*
G01*
X125316670Y-51841288D01*
X125718108Y-51864389D01*
X125981744Y-51903484D01*
X126155160Y-51969332D01*
X126285935Y-52072694D01*
X126402110Y-52201575D01*
X126603335Y-52501145D01*
X126646738Y-52802177D01*
X126629763Y-52944237D01*
X126484987Y-53407080D01*
X126207624Y-53745523D01*
X125775593Y-53971389D01*
X125166817Y-54096501D01*
X124410149Y-54132804D01*
X123302762Y-54132804D01*
X123226258Y-54540602D01*
X123163385Y-54793703D01*
X123052056Y-54911943D01*
X122818214Y-54946504D01*
X122636190Y-54948401D01*
X122320935Y-54937726D01*
X122184007Y-54884550D01*
X122170956Y-54757146D01*
X122186280Y-54686245D01*
X122245108Y-54407658D01*
X122315221Y-54028096D01*
X122337098Y-53899777D01*
X122424262Y-53375465D01*
X123923653Y-53317208D01*
X124556495Y-53288316D01*
X124995580Y-53255094D01*
X125280166Y-53211141D01*
X125449514Y-53150056D01*
X125542885Y-53065438D01*
X125551890Y-53051735D01*
X125611176Y-52889336D01*
X125541606Y-52771386D01*
X125320243Y-52691743D01*
X124924154Y-52644267D01*
X124330403Y-52622814D01*
X123939301Y-52619910D01*
X122547408Y-52618125D01*
X123350460Y-51786055D01*
X124729851Y-51823421D01*
G37*
G36*
X136769350Y-52610632D02*
G01*
X135536051Y-52643507D01*
X134972069Y-52664295D01*
X134604362Y-52694830D01*
X134396205Y-52741295D01*
X134310874Y-52809873D01*
X134302753Y-52851153D01*
X134344191Y-52930819D01*
X134491995Y-52989000D01*
X134781397Y-53031914D01*
X135247633Y-53065778D01*
X135623317Y-53084180D01*
X136211835Y-53115168D01*
X136611552Y-53152219D01*
X136866679Y-53203798D01*
X137021431Y-53278372D01*
X137108867Y-53368606D01*
X137259581Y-53721853D01*
X137207691Y-54121398D01*
X137107821Y-54348934D01*
X136970497Y-54561459D01*
X136787011Y-54717984D01*
X136522730Y-54826676D01*
X136143020Y-54895702D01*
X135613247Y-54933229D01*
X134898779Y-54947425D01*
X134565699Y-54948401D01*
X132800619Y-54948401D01*
X133195872Y-54540602D01*
X133591126Y-54132804D01*
X134843045Y-54132804D01*
X135431449Y-54121367D01*
X135869294Y-54089103D01*
X136123710Y-54039088D01*
X136171764Y-54008539D01*
X136212792Y-53907660D01*
X136164764Y-53839252D01*
X135993086Y-53795327D01*
X135663166Y-53767900D01*
X135140411Y-53748985D01*
X135035340Y-53746183D01*
X134342249Y-53705639D01*
X133851489Y-53616683D01*
X133534983Y-53465741D01*
X133364653Y-53239239D01*
X133312422Y-52923603D01*
X133312386Y-52913221D01*
X133422047Y-52449924D01*
X133593307Y-52187696D01*
X133874227Y-51860786D01*
X135719683Y-51823735D01*
X137565138Y-51786684D01*
X136769350Y-52610632D01*
G37*
G36*
X129786667Y-51813248D02*
G01*
X130300977Y-51852295D01*
X130665262Y-51930017D01*
X130920676Y-52056756D01*
X131108372Y-52242855D01*
X131167648Y-52326921D01*
X131285974Y-52701260D01*
X131231004Y-53123296D01*
X131025628Y-53514969D01*
X130744875Y-53768789D01*
X130403818Y-53976198D01*
X130761301Y-54462299D01*
X131118784Y-54948401D01*
X130427969Y-54948401D01*
X130038047Y-54940662D01*
X129807297Y-54895405D01*
X129661903Y-54779566D01*
X129528052Y-54560083D01*
X129517541Y-54540602D01*
X129385560Y-54317352D01*
X129248332Y-54195382D01*
X129034955Y-54144102D01*
X128674524Y-54132921D01*
X128572363Y-54132804D01*
X127846799Y-54132804D01*
X127770295Y-54540602D01*
X127707421Y-54793703D01*
X127596093Y-54911943D01*
X127362250Y-54946504D01*
X127180227Y-54948401D01*
X126864972Y-54937726D01*
X126728044Y-54884550D01*
X126714993Y-54757146D01*
X126730316Y-54686245D01*
X126789166Y-54407664D01*
X126859334Y-54028109D01*
X126881237Y-53899777D01*
X126968504Y-53375465D01*
X128480124Y-53344146D01*
X129124184Y-53325968D01*
X129573673Y-53299226D01*
X129867021Y-53258732D01*
X130042662Y-53199297D01*
X130135412Y-53120678D01*
X130233161Y-52934385D01*
X130193561Y-52797992D01*
X129996111Y-52704898D01*
X129620309Y-52648504D01*
X129045651Y-52622208D01*
X128574345Y-52618125D01*
X127127222Y-52618125D01*
X127452602Y-52210331D01*
X127777982Y-51802536D01*
X129081177Y-51802533D01*
X129786667Y-51813248D01*
G37*
G36*
X152770184Y-52210327D02*
G01*
X152567801Y-52409361D01*
X152391132Y-52530087D01*
X152174347Y-52592076D01*
X151851616Y-52614898D01*
X151398457Y-52618125D01*
X150912860Y-52623403D01*
X150595884Y-52650328D01*
X150383178Y-52715543D01*
X150210389Y-52835687D01*
X150081405Y-52958704D01*
X149818315Y-53283942D01*
X149760292Y-53556217D01*
X149901955Y-53822628D01*
X149973854Y-53899777D01*
X150107282Y-54005897D01*
X150285480Y-54074326D01*
X150558138Y-54112981D01*
X150974945Y-54129780D01*
X151436206Y-54132804D01*
X152665530Y-54132804D01*
X152354487Y-54540602D01*
X152043444Y-54948401D01*
X150921264Y-54947965D01*
X150347013Y-54938023D01*
X149945914Y-54902723D01*
X149658667Y-54833059D01*
X149427850Y-54721172D01*
X149072762Y-54441222D01*
X148879055Y-54100093D01*
X148810572Y-53626687D01*
X148808716Y-53503693D01*
X148845179Y-53112515D01*
X148986882Y-52798660D01*
X149185566Y-52546567D01*
X149469186Y-52258479D01*
X149763767Y-52054269D01*
X150116182Y-51920290D01*
X150573304Y-51842891D01*
X151182006Y-51808425D01*
X151740674Y-51802529D01*
X153165438Y-51802529D01*
X152770184Y-52210327D01*
G37*
G36*
X142455654Y-51911820D02*
G01*
X142488939Y-51948171D01*
X142546819Y-52115337D01*
X142618631Y-52463932D01*
X142695358Y-52943491D01*
X142767983Y-53503548D01*
X142770009Y-53521107D01*
X142934066Y-54948401D01*
X142441375Y-54948401D01*
X142131987Y-54937441D01*
X141979896Y-54861595D01*
X141912516Y-54656407D01*
X141883710Y-54453217D01*
X141833351Y-54023567D01*
X141793635Y-53608146D01*
X141789186Y-53550235D01*
X141759634Y-53142437D01*
X141088847Y-54045419D01*
X140758185Y-54476530D01*
X140517346Y-54747290D01*
X140328101Y-54892039D01*
X140152222Y-54945119D01*
X140083618Y-54948401D01*
X139840248Y-54921459D01*
X139663122Y-54811375D01*
X139516000Y-54574261D01*
X139362642Y-54166231D01*
X139313940Y-54016291D01*
X139190492Y-53653919D01*
X139084946Y-53386342D01*
X139034833Y-53292371D01*
X138957072Y-53351316D01*
X138814931Y-53580703D01*
X138634625Y-53936278D01*
X138568933Y-54078839D01*
X138372522Y-54506390D01*
X138229603Y-54764171D01*
X138098526Y-54895132D01*
X137937644Y-54942225D01*
X137725742Y-54948401D01*
X137439129Y-54925214D01*
X137283295Y-54867495D01*
X137273854Y-54846862D01*
X137323566Y-54689137D01*
X137456480Y-54374954D01*
X137648258Y-53954585D01*
X137874567Y-53478301D01*
X138111069Y-52996376D01*
X138333430Y-52559082D01*
X138517314Y-52216691D01*
X138638386Y-52019476D01*
X138648838Y-52006428D01*
X138913765Y-51838088D01*
X139222668Y-51819264D01*
X139470139Y-51956247D01*
X139471064Y-51957356D01*
X139573785Y-52138525D01*
X139723670Y-52470229D01*
X139889717Y-52883472D01*
X139902999Y-52918594D01*
X140054562Y-53313513D01*
X140174870Y-53612465D01*
X140240764Y-53758152D01*
X140244321Y-53763049D01*
X140325860Y-53695615D01*
X140505954Y-53482491D01*
X140747760Y-53167645D01*
X140781302Y-53122223D01*
X141078376Y-52728782D01*
X141366366Y-52364857D01*
X141570945Y-52122942D01*
X141883652Y-51881868D01*
X142199195Y-51807564D01*
X142455654Y-51911820D01*
G37*
G36*
X148692203Y-52210327D02*
G01*
X148488837Y-52410142D01*
X148311222Y-52530967D01*
X148092983Y-52592664D01*
X147767748Y-52615095D01*
X147329438Y-52618125D01*
X146854556Y-52622658D01*
X146566573Y-52643652D01*
X146419423Y-52692203D01*
X146367040Y-52779406D01*
X146361927Y-52851153D01*
X146378564Y-52959223D01*
X146457219Y-53027532D01*
X146641008Y-53065109D01*
X146973046Y-53080981D01*
X147474738Y-53084180D01*
X148587548Y-53084180D01*
X148276505Y-53491979D01*
X148112478Y-53695556D01*
X147961715Y-53816776D01*
X147759857Y-53876988D01*
X147442547Y-53897541D01*
X147047181Y-53899777D01*
X146588448Y-53903816D01*
X146314908Y-53925018D01*
X146178752Y-53977008D01*
X146132173Y-54073409D01*
X146127309Y-54161933D01*
X146094227Y-54585937D01*
X145976571Y-54827433D01*
X145737065Y-54932091D01*
X145485393Y-54948401D01*
X145171041Y-54932457D01*
X145036284Y-54869153D01*
X145026991Y-54744502D01*
X145063459Y-54544665D01*
X145126991Y-54177436D01*
X145206843Y-53705359D01*
X145252160Y-53433722D01*
X145338440Y-52922509D01*
X145416633Y-52474308D01*
X145475013Y-52155681D01*
X145493343Y-52064685D01*
X145523035Y-51964512D01*
X145584807Y-51893782D01*
X145714328Y-51847374D01*
X145947268Y-51820167D01*
X146319298Y-51807037D01*
X146866087Y-51802865D01*
X147319113Y-51802529D01*
X149087456Y-51802529D01*
X148692203Y-52210327D01*
G37*
G36*
X132834161Y-52996795D02*
G01*
X132736473Y-53541943D01*
X132647305Y-54040574D01*
X132579150Y-54422770D01*
X132553079Y-54569731D01*
X132493690Y-54806206D01*
X132378177Y-54915809D01*
X132133127Y-54947013D01*
X131979583Y-54948401D01*
X131472936Y-54948401D01*
X131564528Y-54511474D01*
X131625044Y-54203231D01*
X131710599Y-53742696D01*
X131806939Y-53207266D01*
X131854197Y-52938538D01*
X132052274Y-51802529D01*
X133048395Y-51802529D01*
X132834161Y-52996795D01*
G37*
%TO.C,C1*%
X143004000Y-61581420D02*
X143004000Y-61862580D01*
X141984000Y-61581420D02*
X141984000Y-61862580D01*
%TO.C,U2*%
X145420000Y-95635000D02*
G75*
G03*
X147960000Y-98175000I2540001J1D01*
G01*
X147960000Y-71505000D02*
G75*
G03*
X145420000Y-74045000I0J-2540000D01*
G01*
X165740000Y-74045000D02*
G75*
G03*
X163200000Y-71505000I-2540000J0D01*
G01*
X163200000Y-98175000D02*
G75*
G03*
X165740000Y-95635000I-1J2540001D01*
G01*
X147960000Y-98175000D02*
X163200000Y-98175000D01*
X165740000Y-95635000D02*
X165740000Y-74045000D01*
X147960000Y-71505000D02*
X163200000Y-71505000D01*
X145420000Y-74045000D02*
X145420000Y-95635000D01*
D16*
%TO.C,D1*%
X162056000Y-66028000D02*
X162056000Y-64578000D01*
X162056000Y-64578000D02*
X163106000Y-65278000D01*
X163106000Y-65278000D02*
X162056000Y-66028000D01*
G36*
X163306000Y-66328000D02*
G01*
X163006000Y-66328000D01*
X163006000Y-64228000D01*
X163306000Y-64228000D01*
X163306000Y-66328000D01*
G37*
D17*
X163306000Y-66328000D02*
X163006000Y-66328000D01*
X163006000Y-64228000D01*
X163306000Y-64228000D01*
X163306000Y-66328000D01*
D12*
%TO.C,R4*%
X144794500Y-63262742D02*
X144794500Y-63737258D01*
X143749500Y-63262742D02*
X143749500Y-63737258D01*
D15*
%TO.C,J3*%
X120422500Y-72630000D02*
X120422500Y-75100000D01*
X120422500Y-67160000D02*
X120612500Y-67160000D01*
X123322500Y-67160000D02*
X123322500Y-75100000D01*
X123132500Y-67160000D02*
X123322500Y-67160000D01*
X120422500Y-67160000D02*
X120422500Y-69630000D01*
X120422500Y-75100000D02*
X120612500Y-75100000D01*
X123132500Y-75100000D02*
X123322500Y-75100000D01*
X123972500Y-69630000D02*
G75*
G03*
X123972500Y-69630000I-100000J0D01*
G01*
D16*
%TO.C,D2*%
X162056000Y-61710000D02*
X162056000Y-60260000D01*
X163106000Y-60960000D02*
X162056000Y-61710000D01*
X162056000Y-60260000D02*
X163106000Y-60960000D01*
G36*
X163306000Y-62010000D02*
G01*
X163006000Y-62010000D01*
X163006000Y-59910000D01*
X163306000Y-59910000D01*
X163306000Y-62010000D01*
G37*
D17*
X163306000Y-62010000D02*
X163006000Y-62010000D01*
X163006000Y-59910000D01*
X163306000Y-59910000D01*
X163306000Y-62010000D01*
%TO.C,*%
G36*
X131897886Y-132918525D02*
G01*
X131982297Y-133000446D01*
X132030714Y-133113897D01*
X132040573Y-133273802D01*
X132009310Y-133495085D01*
X131934360Y-133792671D01*
X131813161Y-134181484D01*
X131643148Y-134676449D01*
X131551867Y-134932685D01*
X131386302Y-135392427D01*
X131258984Y-135738337D01*
X131161818Y-135986611D01*
X131086707Y-136153449D01*
X131025555Y-136255048D01*
X130970266Y-136307607D01*
X130912743Y-136327325D01*
X130853277Y-136330375D01*
X130717501Y-136315405D01*
X130689794Y-136254019D01*
X130703155Y-136210399D01*
X130888186Y-135725972D01*
X131065955Y-135242719D01*
X131230004Y-134779915D01*
X131373873Y-134356838D01*
X131491104Y-133992761D01*
X131575240Y-133706961D01*
X131619820Y-133518713D01*
X131624800Y-133459746D01*
X131555328Y-133262696D01*
X131414000Y-133181984D01*
X131210930Y-133222874D01*
X131189301Y-133233027D01*
X131070320Y-133302538D01*
X130964421Y-133396480D01*
X130862569Y-133531812D01*
X130755731Y-133725493D01*
X130634872Y-133994483D01*
X130490960Y-134355741D01*
X130314960Y-134826226D01*
X130258441Y-134980553D01*
X130110990Y-135379249D01*
X129976463Y-135733295D01*
X129862921Y-136022244D01*
X129778427Y-136225651D01*
X129731045Y-136323070D01*
X129727222Y-136327654D01*
X129617741Y-136355972D01*
X129549249Y-136348718D01*
X129447552Y-136303360D01*
X129429717Y-136274360D01*
X129452783Y-136199368D01*
X129517053Y-136012584D01*
X129616198Y-135731819D01*
X129743888Y-135374881D01*
X129893796Y-134959581D01*
X130035000Y-134571133D01*
X130220022Y-134065144D01*
X130365354Y-133673967D01*
X130478174Y-133382569D01*
X130565661Y-133175918D01*
X130634994Y-133038983D01*
X130693351Y-132956732D01*
X130747913Y-132914133D01*
X130805857Y-132896155D01*
X130836989Y-132891855D01*
X130974982Y-132892283D01*
X131003734Y-132946387D01*
X130997188Y-132967509D01*
X130999629Y-133017333D01*
X131084302Y-132997912D01*
X131209352Y-132938499D01*
X131486512Y-132831091D01*
X131710973Y-132829484D01*
X131897886Y-132918525D01*
G37*
G36*
X128945309Y-131525160D02*
G01*
X128922441Y-131596186D01*
X128857697Y-131780701D01*
X128756861Y-132062642D01*
X128625720Y-132425942D01*
X128470059Y-132854539D01*
X128295663Y-133332368D01*
X128220580Y-133537436D01*
X128038776Y-134039940D01*
X127873671Y-134508594D01*
X127731196Y-134925580D01*
X127617281Y-135273080D01*
X127537857Y-135533276D01*
X127498856Y-135688350D01*
X127495852Y-135714738D01*
X127525456Y-135872210D01*
X127637909Y-135949013D01*
X127672523Y-135958769D01*
X127802409Y-136025635D01*
X127810567Y-136103772D01*
X127775365Y-136232862D01*
X127771939Y-136267811D01*
X127715107Y-136319691D01*
X127577083Y-136328854D01*
X127406573Y-136299297D01*
X127252282Y-136235020D01*
X127235123Y-136223741D01*
X127120046Y-136090699D01*
X127084783Y-135885581D01*
X127084838Y-135861377D01*
X127109325Y-135729803D01*
X127177532Y-135485519D01*
X127284141Y-135144850D01*
X127423832Y-134724125D01*
X127591287Y-134239672D01*
X127781187Y-133707817D01*
X127831196Y-133570318D01*
X128039033Y-133002274D01*
X128206143Y-132550601D01*
X128338612Y-132201810D01*
X128442530Y-131942408D01*
X128523985Y-131758904D01*
X128589063Y-131637809D01*
X128643853Y-131565630D01*
X128694442Y-131528876D01*
X128746919Y-131514058D01*
X128759872Y-131512336D01*
X128895160Y-131507420D01*
X128945309Y-131525160D01*
G37*
G36*
X124524145Y-135276100D02*
G01*
X124622952Y-134934399D01*
X124763772Y-134506310D01*
X124932747Y-134028957D01*
X125116019Y-133539464D01*
X125299729Y-133074955D01*
X125470018Y-132672554D01*
X125598950Y-132396948D01*
X125794846Y-132049771D01*
X125988871Y-131806138D01*
X126210161Y-131635078D01*
X126407485Y-131537471D01*
X126767220Y-131437871D01*
X127077003Y-131449571D01*
X127321288Y-131562588D01*
X127484532Y-131766938D01*
X127551188Y-132052639D01*
X127537668Y-132263286D01*
X127493449Y-132449086D01*
X127407538Y-132736100D01*
X127289509Y-133097367D01*
X127148939Y-133505930D01*
X126995402Y-133934831D01*
X126838473Y-134357112D01*
X126687728Y-134745815D01*
X126552740Y-135073981D01*
X126485162Y-135226563D01*
X126347704Y-135499149D01*
X126202400Y-135746491D01*
X126077317Y-135921434D01*
X126060297Y-135940357D01*
X125768918Y-136180130D01*
X125446781Y-136334514D01*
X125123948Y-136396632D01*
X124830482Y-136359609D01*
X124648515Y-136263257D01*
X124510106Y-136120337D01*
X124440939Y-135946518D01*
X124437393Y-135713044D01*
X124450136Y-135642868D01*
X124804236Y-135642868D01*
X124841753Y-135776713D01*
X124911451Y-135901699D01*
X125076514Y-136028327D01*
X125302378Y-136042914D01*
X125568480Y-135944937D01*
X125612226Y-135919507D01*
X125787589Y-135768249D01*
X125944392Y-135562740D01*
X125972879Y-135511736D01*
X126099054Y-135243011D01*
X126245769Y-134896070D01*
X126404595Y-134494709D01*
X126567105Y-134062722D01*
X126724871Y-133623907D01*
X126869464Y-133202058D01*
X126992457Y-132820971D01*
X127085421Y-132504441D01*
X127139928Y-132276264D01*
X127150743Y-132186199D01*
X127092860Y-131969204D01*
X126937113Y-131831850D01*
X126710361Y-131794610D01*
X126647931Y-131802924D01*
X126430675Y-131884286D01*
X126231938Y-132051797D01*
X126039392Y-132320390D01*
X125840710Y-132704996D01*
X125767702Y-132869174D01*
X125656383Y-133140331D01*
X125526403Y-133477516D01*
X125386218Y-133856389D01*
X125244283Y-134252610D01*
X125109050Y-134641842D01*
X124988976Y-134999745D01*
X124892513Y-135301979D01*
X124828117Y-135524207D01*
X124804242Y-135642088D01*
X124804236Y-135642868D01*
X124450136Y-135642868D01*
X124495843Y-135391156D01*
X124524145Y-135276100D01*
G37*
G36*
X149915555Y-132850121D02*
G01*
X149927917Y-132879154D01*
X149867722Y-133077758D01*
X149710390Y-133201394D01*
X149579367Y-133225209D01*
X149344056Y-133292159D01*
X149130059Y-133449530D01*
X149037365Y-133547102D01*
X148949433Y-133672154D01*
X148857028Y-133844285D01*
X148750913Y-134083094D01*
X148621855Y-134408178D01*
X148460616Y-134839137D01*
X148409444Y-134978714D01*
X148261598Y-135378313D01*
X148126892Y-135733245D01*
X148013330Y-136023142D01*
X147928921Y-136227642D01*
X147881669Y-136326378D01*
X147877619Y-136331443D01*
X147774177Y-136353105D01*
X147677162Y-136337993D01*
X147635233Y-136320300D01*
X147610487Y-136285195D01*
X147606994Y-136217790D01*
X147628822Y-136103195D01*
X147680042Y-135926519D01*
X147764722Y-135672872D01*
X147886932Y-135327365D01*
X148050741Y-134875107D01*
X148155324Y-134588388D01*
X148343650Y-134073912D01*
X148491928Y-133674647D01*
X148607092Y-133376005D01*
X148696079Y-133163397D01*
X148765823Y-133022233D01*
X148823260Y-132937923D01*
X148875327Y-132895879D01*
X148928957Y-132881510D01*
X148967417Y-132880100D01*
X149099824Y-132897248D01*
X149128732Y-132970128D01*
X149117056Y-133028084D01*
X149078358Y-133176067D01*
X149278817Y-133033521D01*
X149460488Y-132930270D01*
X149652798Y-132859191D01*
X149817302Y-132829427D01*
X149915555Y-132850121D01*
G37*
G36*
X144309965Y-133774513D02*
G01*
X144504848Y-133428622D01*
X144700534Y-133177778D01*
X144778187Y-133103107D01*
X145043041Y-132931484D01*
X145331724Y-132841898D01*
X145612927Y-132833511D01*
X145855343Y-132905483D01*
X146027663Y-133056975D01*
X146069209Y-133137694D01*
X146094571Y-133337234D01*
X146065234Y-133625327D01*
X145987729Y-133966804D01*
X145868590Y-134326498D01*
X145831025Y-134420038D01*
X145726695Y-134669736D01*
X144308311Y-134709176D01*
X144148652Y-135219426D01*
X144057855Y-135551936D01*
X144031521Y-135781183D01*
X144071896Y-135927131D01*
X144181222Y-136009745D01*
X144239564Y-136028248D01*
X144488856Y-136024834D01*
X144733607Y-135908971D01*
X144932800Y-135701347D01*
X144953540Y-135668136D01*
X145092002Y-135494249D01*
X145246346Y-135434502D01*
X145266622Y-135433905D01*
X145395278Y-135442934D01*
X145431898Y-135491974D01*
X145386212Y-135613949D01*
X145344134Y-135696164D01*
X145165719Y-135946390D01*
X144923851Y-136171803D01*
X144673440Y-136321748D01*
X144660516Y-136326796D01*
X144380847Y-136390076D01*
X144092208Y-136388152D01*
X143852747Y-136323325D01*
X143800340Y-136292763D01*
X143684150Y-136139020D01*
X143645271Y-135890922D01*
X143684044Y-135543031D01*
X143800814Y-135089909D01*
X143893936Y-134806681D01*
X144099433Y-134254223D01*
X144491206Y-134254223D01*
X144515041Y-134350091D01*
X144631854Y-134387653D01*
X144852928Y-134389054D01*
X144975608Y-134384347D01*
X145476015Y-134364068D01*
X145604573Y-133968337D01*
X145687420Y-133620854D01*
X145677043Y-133373667D01*
X145573167Y-133225010D01*
X145482398Y-133186133D01*
X145237219Y-133191837D01*
X145003361Y-133329578D01*
X144788658Y-133593393D01*
X144677330Y-133798991D01*
X144549064Y-134077905D01*
X144491206Y-134254223D01*
X144099433Y-134254223D01*
X144108718Y-134229262D01*
X144309965Y-133774513D01*
G37*
G36*
X136577267Y-134976420D02*
G01*
X136616664Y-134858280D01*
X136849600Y-134234549D01*
X137078820Y-133738743D01*
X137311374Y-133361165D01*
X137554310Y-133092115D01*
X137814679Y-132921898D01*
X138081307Y-132843389D01*
X138412993Y-132838854D01*
X138655517Y-132936743D01*
X138805749Y-133135486D01*
X138833932Y-133220558D01*
X138843469Y-133443300D01*
X138792752Y-133756737D01*
X138692673Y-134133268D01*
X138554123Y-134545289D01*
X138387994Y-134965198D01*
X138205176Y-135365393D01*
X138016561Y-135718272D01*
X137833041Y-135996232D01*
X137671148Y-136167439D01*
X137414535Y-136306032D01*
X137117591Y-136381562D01*
X136827782Y-136388496D01*
X136592571Y-136321303D01*
X136554955Y-136297546D01*
X136434351Y-136125656D01*
X136397932Y-135846678D01*
X136413411Y-135722045D01*
X136768250Y-135722045D01*
X136782549Y-135833307D01*
X136801161Y-135882399D01*
X136928727Y-136026015D01*
X137113521Y-136060796D01*
X137330195Y-135988528D01*
X137534160Y-135830780D01*
X137670364Y-135649244D01*
X137822122Y-135374871D01*
X137978489Y-135037160D01*
X138128521Y-134665609D01*
X138261272Y-134289717D01*
X138365799Y-133938983D01*
X138431157Y-133642905D01*
X138446401Y-133430983D01*
X138439903Y-133389546D01*
X138341788Y-133239330D01*
X138164447Y-133180651D01*
X137937481Y-133220112D01*
X137851834Y-133258313D01*
X137669623Y-133417183D01*
X137476076Y-133711494D01*
X137270890Y-134141837D01*
X137053761Y-134708803D01*
X136949486Y-135016570D01*
X136846788Y-135342459D01*
X136788020Y-135568023D01*
X136768250Y-135722045D01*
X136413411Y-135722045D01*
X136445603Y-135462853D01*
X136577267Y-134976420D01*
G37*
G36*
X134613718Y-133091883D02*
G01*
X134777013Y-132649730D01*
X134917850Y-132270633D01*
X135029298Y-131973428D01*
X135104421Y-131776953D01*
X135127525Y-131719177D01*
X135224669Y-131486679D01*
X135921895Y-131510428D01*
X136242564Y-131523847D01*
X136455727Y-131542654D01*
X136591907Y-131573972D01*
X136681632Y-131624925D01*
X136755427Y-131702637D01*
X136757734Y-131705481D01*
X136842843Y-131842996D01*
X136869216Y-132002561D01*
X136851916Y-132211721D01*
X136753895Y-132662476D01*
X136590311Y-133094366D01*
X136377695Y-133477590D01*
X136132578Y-133782346D01*
X135871764Y-133978693D01*
X135654470Y-134087981D01*
X135604556Y-135209584D01*
X135554641Y-136331187D01*
X135174197Y-136331187D01*
X135246389Y-134183129D01*
X134909390Y-134204577D01*
X134572391Y-134226024D01*
X134195585Y-135278606D01*
X134054287Y-135670421D01*
X133948604Y-135950639D01*
X133868459Y-136137925D01*
X133803775Y-136250943D01*
X133744475Y-136308358D01*
X133680483Y-136328836D01*
X133627306Y-136331187D01*
X133435832Y-136331187D01*
X133703058Y-135589204D01*
X133874637Y-135114322D01*
X134058426Y-134608312D01*
X134247491Y-134090011D01*
X134351363Y-133806369D01*
X134743135Y-133806369D01*
X134804033Y-133841484D01*
X134960082Y-133851674D01*
X135171318Y-133840283D01*
X135397773Y-133810656D01*
X135599481Y-133766137D01*
X135709438Y-133725509D01*
X135890451Y-133581651D01*
X136065599Y-133350720D01*
X136222669Y-133064110D01*
X136349447Y-132753218D01*
X136433721Y-132449436D01*
X136463275Y-132184159D01*
X136425898Y-131988782D01*
X136400455Y-131949269D01*
X136282346Y-131882105D01*
X136057893Y-131849404D01*
X135878501Y-131844774D01*
X135443270Y-131844774D01*
X135293500Y-132241649D01*
X135178978Y-132549432D01*
X135060850Y-132874157D01*
X134948782Y-133188337D01*
X134852444Y-133464484D01*
X134781504Y-133675110D01*
X134745630Y-133792727D01*
X134743135Y-133806369D01*
X134351363Y-133806369D01*
X134434900Y-133578256D01*
X134613718Y-133091883D01*
G37*
G36*
X143041997Y-131506231D02*
G01*
X143094765Y-131520693D01*
X143072109Y-131588642D01*
X143008540Y-131767889D01*
X142910658Y-132040120D01*
X142785064Y-132387023D01*
X142638359Y-132790287D01*
X142543121Y-133051205D01*
X142387998Y-133479464D01*
X142251851Y-133862641D01*
X142140978Y-134182401D01*
X142061677Y-134420407D01*
X142020246Y-134558320D01*
X142016191Y-134585403D01*
X142068933Y-134545855D01*
X142199754Y-134420806D01*
X142392944Y-134226041D01*
X142632791Y-133977348D01*
X142852456Y-133745109D01*
X143151414Y-133428627D01*
X143374699Y-133200033D01*
X143539635Y-133045197D01*
X143663545Y-132949989D01*
X143763754Y-132900279D01*
X143857585Y-132881937D01*
X143913009Y-132880100D01*
X144162012Y-132880100D01*
X142814400Y-134232788D01*
X142891673Y-135216281D01*
X142916762Y-135577216D01*
X142932671Y-135893979D01*
X142938452Y-136138648D01*
X142933158Y-136283304D01*
X142928632Y-136304833D01*
X142833688Y-136382242D01*
X142732710Y-136387795D01*
X142639541Y-136355354D01*
X142582992Y-136268273D01*
X142545799Y-136091971D01*
X142532162Y-135986079D01*
X142507473Y-135710753D01*
X142488516Y-135376997D01*
X142480395Y-135106051D01*
X142469464Y-134863199D01*
X142446935Y-134685335D01*
X142417408Y-134606774D01*
X142413338Y-134605644D01*
X142329188Y-134655820D01*
X142191483Y-134785081D01*
X142028755Y-134961528D01*
X141869536Y-135153261D01*
X141742356Y-135328378D01*
X141695025Y-135408756D01*
X141614894Y-135591043D01*
X141522568Y-135834436D01*
X141476828Y-135968011D01*
X141398625Y-136193654D01*
X141333855Y-136314574D01*
X141255766Y-136358116D01*
X141137610Y-136351623D01*
X141106412Y-136346660D01*
X140992053Y-136307332D01*
X140968369Y-136266666D01*
X140996161Y-136191584D01*
X141065886Y-136001679D01*
X141172114Y-135711788D01*
X141309410Y-135336750D01*
X141472344Y-134891403D01*
X141655483Y-134390587D01*
X141850804Y-133856227D01*
X142075587Y-133241815D01*
X142258673Y-132744691D01*
X142405609Y-132352437D01*
X142521942Y-132052632D01*
X142613219Y-131832859D01*
X142684988Y-131680699D01*
X142742795Y-131583731D01*
X142792187Y-131529537D01*
X142838712Y-131505698D01*
X142887917Y-131499796D01*
X142903386Y-131499666D01*
X143041997Y-131506231D01*
G37*
G36*
X134725847Y-131539204D02*
G01*
X134707112Y-131603198D01*
X134673683Y-131693724D01*
X134596557Y-131900395D01*
X134480634Y-132210147D01*
X134330810Y-132609918D01*
X134151985Y-133086644D01*
X133949057Y-133627263D01*
X133726925Y-134218712D01*
X133490485Y-134847928D01*
X133464808Y-134916242D01*
X132271376Y-138091242D01*
X131884236Y-138067543D01*
X131572702Y-138072454D01*
X131313726Y-138140861D01*
X131204762Y-138190605D01*
X130912428Y-138337366D01*
X131136216Y-138129475D01*
X131321147Y-137988769D01*
X131506217Y-137894274D01*
X131550347Y-137881514D01*
X131724503Y-137835018D01*
X131830902Y-137793788D01*
X131875825Y-137721922D01*
X131967643Y-137535785D01*
X132100452Y-137248654D01*
X132268349Y-136873805D01*
X132465431Y-136424517D01*
X132685795Y-135914065D01*
X132923538Y-135355727D01*
X133079624Y-134985263D01*
X133375943Y-134279618D01*
X133624427Y-133689701D01*
X133830405Y-133203847D01*
X133999210Y-132810388D01*
X134136172Y-132497660D01*
X134246623Y-132253996D01*
X134335892Y-132067730D01*
X134409311Y-131927196D01*
X134472210Y-131820728D01*
X134529922Y-131736660D01*
X134587776Y-131663325D01*
X134609323Y-131637709D01*
X134702585Y-131535796D01*
X134725847Y-131539204D01*
G37*
G36*
X129805580Y-132894528D02*
G01*
X129830954Y-132953712D01*
X129828607Y-132960877D01*
X129522166Y-133811616D01*
X129260200Y-134534195D01*
X129041877Y-135130851D01*
X128866366Y-135603822D01*
X128732834Y-135955343D01*
X128640449Y-136187652D01*
X128588379Y-136302986D01*
X128581464Y-136313932D01*
X128487728Y-136392382D01*
X128374672Y-136363299D01*
X128337808Y-136341112D01*
X128319654Y-136294093D01*
X128331635Y-136185540D01*
X128377392Y-136003299D01*
X128460568Y-135735219D01*
X128584805Y-135369148D01*
X128753746Y-134892935D01*
X128859880Y-134599370D01*
X129046030Y-134088332D01*
X129192572Y-133692307D01*
X129306551Y-133396386D01*
X129395012Y-133185658D01*
X129464999Y-133045216D01*
X129523556Y-132960150D01*
X129577728Y-132915551D01*
X129634560Y-132896510D01*
X129666686Y-132891855D01*
X129805580Y-132894528D01*
G37*
G36*
X150553925Y-132890756D02*
G01*
X150606719Y-132940423D01*
X150594647Y-133035399D01*
X150562883Y-133189286D01*
X150519133Y-133435771D01*
X150467469Y-133747909D01*
X150411962Y-134098754D01*
X150356684Y-134461360D01*
X150305706Y-134808782D01*
X150263098Y-135114074D01*
X150232933Y-135350290D01*
X150219281Y-135490485D01*
X150219857Y-135515973D01*
X150258346Y-135477727D01*
X150354340Y-135335136D01*
X150497924Y-135104318D01*
X150679182Y-134801388D01*
X150888200Y-134442463D01*
X150993924Y-134257749D01*
X151217251Y-133870636D01*
X151422138Y-133525234D01*
X151597558Y-133239352D01*
X151732485Y-133030801D01*
X151815891Y-132917394D01*
X151833082Y-132902349D01*
X151970890Y-132884931D01*
X152057762Y-132891897D01*
X152086492Y-132910628D01*
X152088712Y-132960873D01*
X152058658Y-133053462D01*
X151990566Y-133199224D01*
X151878673Y-133408987D01*
X151717216Y-133693580D01*
X151500432Y-134063833D01*
X151222557Y-134530573D01*
X150897440Y-135072050D01*
X150597194Y-135569782D01*
X150316578Y-136032882D01*
X150064184Y-136447329D01*
X149848604Y-136799101D01*
X149678430Y-137074178D01*
X149562253Y-137258539D01*
X149509177Y-137337557D01*
X149351304Y-137466259D01*
X149112562Y-137595244D01*
X148847441Y-137697695D01*
X148702781Y-137734444D01*
X148547318Y-137751032D01*
X148485717Y-137710224D01*
X148478461Y-137654679D01*
X148538270Y-137480171D01*
X148696604Y-137379937D01*
X148800562Y-137366513D01*
X148966013Y-137308862D01*
X149162059Y-137154885D01*
X149360275Y-136933047D01*
X149532235Y-136671813D01*
X149573020Y-136592984D01*
X149631851Y-136462286D01*
X149682377Y-136322878D01*
X149727851Y-136156740D01*
X149771527Y-135945855D01*
X149816657Y-135672204D01*
X149866496Y-135317771D01*
X149924297Y-134864537D01*
X149993313Y-134294484D01*
X150003527Y-134208769D01*
X150161650Y-132880100D01*
X150397375Y-132880100D01*
X150553925Y-132890756D01*
G37*
G36*
X130361787Y-131605362D02*
G01*
X130339192Y-131705255D01*
X130321624Y-131752076D01*
X130202320Y-131994428D01*
X130072451Y-132106335D01*
X129920376Y-132095389D01*
X129851434Y-132058765D01*
X129792497Y-131974272D01*
X129815686Y-131821417D01*
X129822258Y-131800991D01*
X129894278Y-131661898D01*
X130020020Y-131598382D01*
X130141142Y-131581784D01*
X130305540Y-131573423D01*
X130361787Y-131605362D01*
G37*
G36*
X134422026Y-131260331D02*
G01*
X134334283Y-131445150D01*
X134301003Y-131506425D01*
X134205224Y-131704508D01*
X134085304Y-131988295D01*
X133959962Y-132312270D01*
X133892215Y-132500481D01*
X133200991Y-134338698D01*
X132414242Y-136171478D01*
X132159161Y-136719812D01*
X131762318Y-137557078D01*
X131458602Y-137591311D01*
X131131211Y-137684625D01*
X130897107Y-137822161D01*
X130639329Y-138018778D01*
X130798576Y-137795137D01*
X130982245Y-137597890D01*
X131202998Y-137445246D01*
X131411374Y-137369610D01*
X131452801Y-137366513D01*
X131546035Y-137308765D01*
X131625629Y-137176704D01*
X131677429Y-137041586D01*
X131765797Y-136808329D01*
X131878964Y-136508096D01*
X132005161Y-136172051D01*
X132023124Y-136124122D01*
X132250575Y-135535054D01*
X132498584Y-134924383D01*
X132759129Y-134309399D01*
X133024188Y-133707392D01*
X133285737Y-133135654D01*
X133535755Y-132611474D01*
X133766219Y-132152144D01*
X133969108Y-131774953D01*
X134136397Y-131497192D01*
X134228809Y-131370243D01*
X134367756Y-131219986D01*
X134432672Y-131184313D01*
X134422026Y-131260331D01*
G37*
G36*
X147914326Y-131906766D02*
G01*
X147906783Y-132028044D01*
X147839293Y-132242941D01*
X147788209Y-132380433D01*
X147712142Y-132591950D01*
X147662018Y-132753157D01*
X147650200Y-132811819D01*
X147711339Y-132854994D01*
X147863660Y-132878600D01*
X147919825Y-132880100D01*
X148092327Y-132889345D01*
X148159431Y-132929359D01*
X148154264Y-133014654D01*
X148096727Y-133104724D01*
X147961480Y-133152921D01*
X147803503Y-133169952D01*
X147487929Y-133190698D01*
X147055501Y-134364068D01*
X146915991Y-134749598D01*
X146794743Y-135097975D01*
X146699612Y-135385533D01*
X146638456Y-135588604D01*
X146618973Y-135678932D01*
X146671504Y-135865557D01*
X146824698Y-135971335D01*
X146932814Y-135986079D01*
X147044397Y-136013430D01*
X147051210Y-136115514D01*
X147049595Y-136121861D01*
X146965523Y-136285719D01*
X146812874Y-136346331D01*
X146618246Y-136325904D01*
X146371254Y-136221221D01*
X146235312Y-136035725D01*
X146203077Y-135817588D01*
X146227162Y-135686052D01*
X146292589Y-135450695D01*
X146391477Y-135136667D01*
X146515946Y-134769117D01*
X146641822Y-134417442D01*
X146778344Y-134038509D01*
X146893449Y-133705515D01*
X146980282Y-133439441D01*
X147031986Y-133261271D01*
X147042115Y-133192306D01*
X146951746Y-133163506D01*
X146851408Y-133156187D01*
X146738477Y-133129856D01*
X146729991Y-133029893D01*
X146732918Y-133018144D01*
X146801887Y-132915879D01*
X146958738Y-132880765D01*
X146996792Y-132880100D01*
X147114183Y-132873583D01*
X147194652Y-132835705D01*
X147259851Y-132738978D01*
X147331430Y-132555913D01*
X147390939Y-132379693D01*
X147482171Y-132121375D01*
X147555803Y-131967575D01*
X147631007Y-131889755D01*
X147726956Y-131859379D01*
X147741800Y-131857445D01*
X147859980Y-131857202D01*
X147914326Y-131906766D01*
G37*
G36*
X140889543Y-132840068D02*
G01*
X141115008Y-132939541D01*
X141258702Y-133119531D01*
X141300200Y-133328106D01*
X141280392Y-133580362D01*
X141212004Y-133721820D01*
X141081584Y-133775180D01*
X141033984Y-133777428D01*
X140913541Y-133762341D01*
X140862275Y-133690168D01*
X140851559Y-133520970D01*
X140834767Y-133340720D01*
X140763944Y-133244206D01*
X140661610Y-133196954D01*
X140443564Y-133190183D01*
X140213428Y-133316853D01*
X139977356Y-133573570D01*
X139976608Y-133574583D01*
X139854348Y-133784401D01*
X139717317Y-134088930D01*
X139578666Y-134449782D01*
X139451544Y-134828567D01*
X139349100Y-135186897D01*
X139284484Y-135486383D01*
X139268796Y-135640970D01*
X139264059Y-136020590D01*
X139490733Y-136042394D01*
X139664534Y-136033087D01*
X139819787Y-135949778D01*
X139945537Y-135835328D01*
X140089047Y-135678800D01*
X140185887Y-135549961D01*
X140204033Y-135514127D01*
X140291090Y-135449777D01*
X140422562Y-135445105D01*
X140610725Y-135468416D01*
X140489566Y-135705084D01*
X140250772Y-136030784D01*
X139928948Y-136260438D01*
X139551424Y-136375553D01*
X139489058Y-136382002D01*
X139208063Y-136382185D01*
X139017126Y-136326652D01*
X138970716Y-136297546D01*
X138854002Y-136142267D01*
X138813842Y-135895967D01*
X138850631Y-135552210D01*
X138964767Y-135104564D01*
X139062415Y-134806681D01*
X139264114Y-134256735D01*
X139448626Y-133824899D01*
X139626933Y-133494147D01*
X139810021Y-133247452D01*
X140008873Y-133067786D01*
X140234474Y-132938121D01*
X140280854Y-132917905D01*
X140604195Y-132829920D01*
X140889543Y-132840068D01*
G37*
D10*
%TO.C,U1*%
X129175800Y-67759200D02*
X126635800Y-67759200D01*
X126635800Y-77919200D02*
X126635800Y-65219200D01*
X126125000Y-81780000D02*
X126125000Y-94480000D01*
X129175800Y-77919200D02*
X126635800Y-77919200D01*
X128665000Y-58920000D02*
X128665000Y-57650000D01*
X128665000Y-64000000D02*
X128665000Y-58920000D01*
X138826600Y-72150000D02*
X138576600Y-72150000D01*
X138576600Y-72150000D02*
X132576600Y-72150000D01*
X138825000Y-94480000D02*
X138825000Y-81780000D01*
X138826600Y-76150000D02*
X138826600Y-72150000D01*
X126125000Y-94480000D02*
X138825000Y-94480000D01*
X129175800Y-65219200D02*
X129175800Y-67759200D01*
X138825000Y-81780000D02*
X126125000Y-81780000D01*
X123585000Y-119880000D02*
X123585000Y-58920000D01*
X132576600Y-76150000D02*
X138826600Y-76150000D01*
X129175800Y-65219200D02*
X129175800Y-77919200D01*
X137555000Y-118610000D02*
X127395000Y-118610000D01*
X138825000Y-119880000D02*
X138825000Y-107180000D01*
X131205000Y-99560000D02*
X133745000Y-99560000D01*
X136285000Y-57650000D02*
X136285000Y-58920000D01*
X127395000Y-118610000D02*
X127395000Y-119880000D01*
X141365000Y-119880000D02*
X123585000Y-119880000D01*
X138825000Y-107180000D02*
X126125000Y-107180000D01*
X132576600Y-72150000D02*
X132576600Y-76150000D01*
X128665000Y-57650000D02*
X136285000Y-57650000D01*
X131205000Y-103370000D02*
X131205000Y-99560000D01*
X137555000Y-119880000D02*
X137555000Y-118610000D01*
X133745000Y-103370000D02*
X131205000Y-103370000D01*
X133745000Y-99560000D02*
X133745000Y-103370000D01*
X141365000Y-58920000D02*
X141365000Y-119880000D01*
X126635800Y-65219200D02*
X129175800Y-65219200D01*
X128665000Y-64000000D02*
X136285000Y-64000000D01*
X123585000Y-58920000D02*
X141365000Y-58920000D01*
X126125000Y-107180000D02*
X126125000Y-119880000D01*
X136285000Y-64000000D02*
X136285000Y-58920000D01*
X133373026Y-101465000D02*
G75*
G03*
X133373026Y-101465000I-898026J0D01*
G01*
G36*
X133036000Y-90438000D02*
G01*
X132655000Y-90692000D01*
X132401000Y-90438000D01*
X132782000Y-90184000D01*
X133036000Y-90438000D01*
G37*
D18*
X133036000Y-90438000D02*
X132655000Y-90692000D01*
X132401000Y-90438000D01*
X132782000Y-90184000D01*
X133036000Y-90438000D01*
G36*
X132528000Y-90819000D02*
G01*
X132147000Y-91073000D01*
X131893000Y-90819000D01*
X132274000Y-90565000D01*
X132528000Y-90819000D01*
G37*
X132528000Y-90819000D02*
X132147000Y-91073000D01*
X131893000Y-90819000D01*
X132274000Y-90565000D01*
X132528000Y-90819000D01*
G36*
X132909000Y-91200000D02*
G01*
X132528000Y-91454000D01*
X132274000Y-91200000D01*
X132655000Y-90946000D01*
X132909000Y-91200000D01*
G37*
X132909000Y-91200000D02*
X132528000Y-91454000D01*
X132274000Y-91200000D01*
X132655000Y-90946000D01*
X132909000Y-91200000D01*
G36*
X133163000Y-92343000D02*
G01*
X132782000Y-92597000D01*
X132528000Y-92343000D01*
X132909000Y-92089000D01*
X133163000Y-92343000D01*
G37*
X133163000Y-92343000D02*
X132782000Y-92597000D01*
X132528000Y-92343000D01*
X132909000Y-92089000D01*
X133163000Y-92343000D01*
G36*
X132782000Y-91962000D02*
G01*
X132401000Y-92216000D01*
X132147000Y-91962000D01*
X132528000Y-91708000D01*
X132782000Y-91962000D01*
G37*
X132782000Y-91962000D02*
X132401000Y-92216000D01*
X132147000Y-91962000D01*
X132528000Y-91708000D01*
X132782000Y-91962000D01*
G36*
X132401000Y-91581000D02*
G01*
X132020000Y-91835000D01*
X131766000Y-91581000D01*
X132147000Y-91327000D01*
X132401000Y-91581000D01*
G37*
X132401000Y-91581000D02*
X132020000Y-91835000D01*
X131766000Y-91581000D01*
X132147000Y-91327000D01*
X132401000Y-91581000D01*
G36*
X133417000Y-90819000D02*
G01*
X133036000Y-91073000D01*
X132782000Y-90819000D01*
X133163000Y-90565000D01*
X133417000Y-90819000D01*
G37*
X133417000Y-90819000D02*
X133036000Y-91073000D01*
X132782000Y-90819000D01*
X133163000Y-90565000D01*
X133417000Y-90819000D01*
G36*
X133544000Y-90057000D02*
G01*
X133163000Y-90311000D01*
X132909000Y-90057000D01*
X133290000Y-89803000D01*
X133544000Y-90057000D01*
G37*
X133544000Y-90057000D02*
X133163000Y-90311000D01*
X132909000Y-90057000D01*
X133290000Y-89803000D01*
X133544000Y-90057000D01*
D12*
%TO.C,J1*%
X153380000Y-63780000D02*
X148380000Y-63780000D01*
X145820000Y-65640000D02*
X146740000Y-65640000D01*
X146740000Y-65640000D02*
X147020000Y-65640000D01*
X154680000Y-61680000D02*
X154680000Y-59420000D01*
X155020000Y-67240000D02*
X155940000Y-67240000D01*
X146580000Y-63280000D02*
X146580000Y-61680000D01*
X147580000Y-61680000D02*
X147580000Y-63280000D01*
X147580000Y-63280000D02*
X146580000Y-63280000D01*
X146740000Y-67240000D02*
X146740000Y-65640000D01*
X146580000Y-61680000D02*
X147580000Y-61680000D01*
X155940000Y-67240000D02*
X155940000Y-59420000D01*
X155180000Y-63280000D02*
X155180000Y-61680000D01*
X155940000Y-65640000D02*
X155020000Y-65640000D01*
X155180000Y-61680000D02*
X154180000Y-61680000D01*
X145820000Y-67240000D02*
X146740000Y-67240000D01*
X154180000Y-61680000D02*
X154180000Y-63280000D01*
X153380000Y-59420000D02*
X153380000Y-63780000D01*
X155020000Y-65640000D02*
X155020000Y-67240000D01*
X148380000Y-63780000D02*
X148380000Y-59420000D01*
X154180000Y-63280000D02*
X155180000Y-63280000D01*
X145820000Y-59420000D02*
X145820000Y-67240000D01*
X154180000Y-61680000D02*
X154180000Y-59420000D01*
X154740000Y-65640000D02*
X154740000Y-66855000D01*
X155940000Y-59420000D02*
X145820000Y-59420000D01*
X154740000Y-65640000D02*
X155020000Y-65640000D01*
%TD*%
M02*
