M48
; DRILL file {KiCad (6.0.7)} date Sat Apr  1 23:58:33 2023
; FORMAT={-:-/ absolute / inch / decimal}
; #@! TF.CreationDate,2023-04-01T23:58:33-04:00
; #@! TF.GenerationSoftware,Kicad,Pcbnew,(6.0.7)
; #@! TF.FileFunction,MixedPlating,1,2
FMAT,2
INCH
; #@! TA.AperFunction,Plated,PTH,ViaDrill
T1C0.0157
; #@! TA.AperFunction,Plated,PTH,ComponentDrill
T2C0.0157
; #@! TA.AperFunction,Plated,PTH,ComponentDrill
T3C0.0177
; #@! TA.AperFunction,Plated,PTH,ComponentDrill
T4C0.0295
; #@! TA.AperFunction,Plated,PTH,ComponentDrill
T5C0.0315
; #@! TA.AperFunction,Plated,PTH,ComponentDrill
T6C0.0394
; #@! TA.AperFunction,Plated,PTH,ComponentDrill
T7C0.0433
; #@! TA.AperFunction,Plated,PTH,ComponentDrill
T8C0.1260
%
G90
G05
T1
X4.6344Y-2.7685
X4.7016Y-2.94
X4.758Y-4.284
X4.79Y-2.6
X4.8091Y-2.3533
X4.8291Y-2.2679
X5.2577Y-2.2861
X5.66Y-2.33
X5.68Y-2.59
X5.74Y-2.35
X6.1287Y-2.7087
X6.3866Y-3.5933
T3
X4.7674Y-2.7748
X4.7674Y-2.826
X4.8068Y-2.7492
X4.8068Y-2.8004
X4.8068Y-2.8516
T4
X4.6386Y-3.4866
X4.6386Y-3.5654
X4.6386Y-3.6441
X4.6386Y-3.7228
X4.6386Y-3.8016
X4.6386Y-3.8803
X4.6386Y-3.9591
X5.822Y-2.5898
X5.9008Y-2.5898
X5.9795Y-2.5898
X6.0583Y-2.5898
T5
X5.1656Y-2.3984
X5.2621Y-2.8803
X5.2621Y-2.9591
X5.2656Y-2.3984
X5.3408Y-2.8803
X5.3408Y-2.9591
X5.4196Y-2.8803
X5.4196Y-2.9591
T6
X6.3319Y-4.1701
X6.3319Y-4.2701
X6.3319Y-4.3701
X6.3319Y-4.4701
X6.3319Y-4.5701
X6.3319Y-4.6701
X6.3319Y-4.7701
X6.3319Y-4.8701
T7
X4.9156Y-2.3697
X4.9156Y-2.4697
X4.9156Y-2.5697
X4.9156Y-2.6697
X4.9156Y-2.7697
X4.9156Y-2.8697
X4.9156Y-2.9697
X4.9156Y-3.0697
X4.9156Y-3.1697
X4.9156Y-3.2697
X4.9156Y-3.3697
X4.9156Y-3.4697
X4.9156Y-3.5697
X4.9156Y-3.6697
X4.9156Y-3.7697
X4.9156Y-3.8697
X4.9156Y-3.9697
X4.9156Y-4.0697
X4.9156Y-4.1697
X4.9156Y-4.2697
X4.9156Y-4.3697
X4.9156Y-4.4697
X4.9156Y-4.5697
X4.9156Y-4.6697
X5.0156Y-4.1697
X5.0357Y-2.6177
X5.0357Y-2.7177
X5.0357Y-2.8177
X5.0357Y-2.9177
X5.0357Y-3.0177
X5.1156Y-4.1697
X5.2156Y-4.1697
X5.3156Y-4.1697
X5.4156Y-2.4697
X5.4156Y-4.1697
X5.5156Y-2.3697
X5.5156Y-2.4697
X5.5156Y-2.5697
X5.5156Y-2.6697
X5.5156Y-2.7697
X5.5156Y-2.8697
X5.5156Y-2.9697
X5.5156Y-3.0697
X5.5156Y-3.1697
X5.5156Y-3.2697
X5.5156Y-3.3697
X5.5156Y-3.4697
X5.5156Y-3.5697
X5.5156Y-3.6697
X5.5156Y-3.7697
X5.5156Y-3.8697
X5.5156Y-3.9697
X5.5156Y-4.0697
X5.5156Y-4.1697
X5.5156Y-4.2697
X5.5156Y-4.3697
X5.5156Y-4.4697
X5.5156Y-4.5697
X5.5156Y-4.6697
X5.7752Y-3.1902
X5.7752Y-3.2902
X5.7752Y-3.3902
X5.7752Y-3.4902
X6.4752Y-3.0902
X6.4752Y-3.1902
X6.4752Y-3.2902
X6.4752Y-3.3902
X6.4752Y-3.4902
X6.4752Y-3.5902
T8
X4.6694Y-5.3464
X4.6699Y-2.0967
X6.1693Y-5.3466
X6.1695Y-2.0962
T2
G00X4.8178Y-2.6596
M15
G01X4.7784Y-2.6596
M16
G05
G00X4.8178Y-2.9411
M15
G01X4.7784Y-2.9411
M16
G05
T0
M30
