%TF.GenerationSoftware,KiCad,Pcbnew,(6.0.7)*%
%TF.CreationDate,2023-04-01T23:58:30-04:00*%
%TF.ProjectId,board_one_teensy_22,626f6172-645f-46f6-9e65-5f7465656e73,rev?*%
%TF.SameCoordinates,Original*%
%TF.FileFunction,Legend,Bot*%
%TF.FilePolarity,Positive*%
%FSLAX46Y46*%
G04 Gerber Fmt 4.6, Leading zero omitted, Abs format (unit mm)*
G04 Created by KiCad (PCBNEW (6.0.7)) date 2023-04-01 23:58:30*
%MOMM*%
%LPD*%
G01*
G04 APERTURE LIST*
%ADD10C,0.150000*%
%ADD11C,0.127000*%
G04 APERTURE END LIST*
D10*
X160330571Y-81375200D02*
X159759142Y-81375200D01*
X160444857Y-81718057D02*
X160044857Y-80518057D01*
X159644857Y-81718057D01*
X159244857Y-81718057D02*
X159244857Y-80918057D01*
X159244857Y-81146628D02*
X159187714Y-81032342D01*
X159130571Y-80975200D01*
X159016285Y-80918057D01*
X158902000Y-80918057D01*
X158502000Y-81718057D02*
X158502000Y-80918057D01*
X158502000Y-80518057D02*
X158559142Y-80575200D01*
X158502000Y-80632342D01*
X158444857Y-80575200D01*
X158502000Y-80518057D01*
X158502000Y-80632342D01*
X156616285Y-81089485D02*
X156444857Y-81146628D01*
X156387714Y-81203771D01*
X156330571Y-81318057D01*
X156330571Y-81489485D01*
X156387714Y-81603771D01*
X156444857Y-81660914D01*
X156559142Y-81718057D01*
X157016285Y-81718057D01*
X157016285Y-80518057D01*
X156616285Y-80518057D01*
X156502000Y-80575200D01*
X156444857Y-80632342D01*
X156387714Y-80746628D01*
X156387714Y-80860914D01*
X156444857Y-80975200D01*
X156502000Y-81032342D01*
X156616285Y-81089485D01*
X157016285Y-81089485D01*
X155644857Y-81718057D02*
X155759142Y-81660914D01*
X155816285Y-81603771D01*
X155873428Y-81489485D01*
X155873428Y-81146628D01*
X155816285Y-81032342D01*
X155759142Y-80975200D01*
X155644857Y-80918057D01*
X155473428Y-80918057D01*
X155359142Y-80975200D01*
X155302000Y-81032342D01*
X155244857Y-81146628D01*
X155244857Y-81489485D01*
X155302000Y-81603771D01*
X155359142Y-81660914D01*
X155473428Y-81718057D01*
X155644857Y-81718057D01*
X154730571Y-81718057D02*
X154730571Y-80518057D01*
X154730571Y-80975200D02*
X154616285Y-80918057D01*
X154387714Y-80918057D01*
X154273428Y-80975200D01*
X154216285Y-81032342D01*
X154159142Y-81146628D01*
X154159142Y-81489485D01*
X154216285Y-81603771D01*
X154273428Y-81660914D01*
X154387714Y-81718057D01*
X154616285Y-81718057D01*
X154730571Y-81660914D01*
X153187714Y-81660914D02*
X153302000Y-81718057D01*
X153530571Y-81718057D01*
X153644857Y-81660914D01*
X153702000Y-81546628D01*
X153702000Y-81089485D01*
X153644857Y-80975200D01*
X153530571Y-80918057D01*
X153302000Y-80918057D01*
X153187714Y-80975200D01*
X153130571Y-81089485D01*
X153130571Y-81203771D01*
X153702000Y-81318057D01*
X152673428Y-81660914D02*
X152559142Y-81718057D01*
X152330571Y-81718057D01*
X152216285Y-81660914D01*
X152159142Y-81546628D01*
X152159142Y-81489485D01*
X152216285Y-81375200D01*
X152330571Y-81318057D01*
X152502000Y-81318057D01*
X152616285Y-81260914D01*
X152673428Y-81146628D01*
X152673428Y-81089485D01*
X152616285Y-80975200D01*
X152502000Y-80918057D01*
X152330571Y-80918057D01*
X152216285Y-80975200D01*
X151644857Y-81718057D02*
X151644857Y-80518057D01*
X151130571Y-81718057D02*
X151130571Y-81089485D01*
X151187714Y-80975200D01*
X151302000Y-80918057D01*
X151473428Y-80918057D01*
X151587714Y-80975200D01*
X151644857Y-81032342D01*
X160559142Y-83535771D02*
X160616285Y-83592914D01*
X160787714Y-83650057D01*
X160902000Y-83650057D01*
X161073428Y-83592914D01*
X161187714Y-83478628D01*
X161244857Y-83364342D01*
X161302000Y-83135771D01*
X161302000Y-82964342D01*
X161244857Y-82735771D01*
X161187714Y-82621485D01*
X161073428Y-82507200D01*
X160902000Y-82450057D01*
X160787714Y-82450057D01*
X160616285Y-82507200D01*
X160559142Y-82564342D01*
X160044857Y-83650057D02*
X160044857Y-82450057D01*
X159530571Y-83650057D02*
X159530571Y-83021485D01*
X159587714Y-82907200D01*
X159702000Y-82850057D01*
X159873428Y-82850057D01*
X159987714Y-82907200D01*
X160044857Y-82964342D01*
X158444857Y-83650057D02*
X158444857Y-83021485D01*
X158502000Y-82907200D01*
X158616285Y-82850057D01*
X158844857Y-82850057D01*
X158959142Y-82907200D01*
X158444857Y-83592914D02*
X158559142Y-83650057D01*
X158844857Y-83650057D01*
X158959142Y-83592914D01*
X159016285Y-83478628D01*
X159016285Y-83364342D01*
X158959142Y-83250057D01*
X158844857Y-83192914D01*
X158559142Y-83192914D01*
X158444857Y-83135771D01*
X157873428Y-83650057D02*
X157873428Y-82850057D01*
X157873428Y-83078628D02*
X157816285Y-82964342D01*
X157759142Y-82907200D01*
X157644857Y-82850057D01*
X157530571Y-82850057D01*
X156959142Y-83650057D02*
X157073428Y-83592914D01*
X157130571Y-83478628D01*
X157130571Y-82450057D01*
X156502000Y-83650057D02*
X156502000Y-82850057D01*
X156502000Y-82450057D02*
X156559142Y-82507200D01*
X156502000Y-82564342D01*
X156444857Y-82507200D01*
X156502000Y-82450057D01*
X156502000Y-82564342D01*
X155473428Y-83592914D02*
X155587714Y-83650057D01*
X155816285Y-83650057D01*
X155930571Y-83592914D01*
X155987714Y-83478628D01*
X155987714Y-83021485D01*
X155930571Y-82907200D01*
X155816285Y-82850057D01*
X155587714Y-82850057D01*
X155473428Y-82907200D01*
X155416285Y-83021485D01*
X155416285Y-83135771D01*
X155987714Y-83250057D01*
X153587714Y-83021485D02*
X153416285Y-83078628D01*
X153359142Y-83135771D01*
X153302000Y-83250057D01*
X153302000Y-83421485D01*
X153359142Y-83535771D01*
X153416285Y-83592914D01*
X153530571Y-83650057D01*
X153987714Y-83650057D01*
X153987714Y-82450057D01*
X153587714Y-82450057D01*
X153473428Y-82507200D01*
X153416285Y-82564342D01*
X153359142Y-82678628D01*
X153359142Y-82792914D01*
X153416285Y-82907200D01*
X153473428Y-82964342D01*
X153587714Y-83021485D01*
X153987714Y-83021485D01*
X152273428Y-83650057D02*
X152273428Y-83021485D01*
X152330571Y-82907200D01*
X152444857Y-82850057D01*
X152673428Y-82850057D01*
X152787714Y-82907200D01*
X152273428Y-83592914D02*
X152387714Y-83650057D01*
X152673428Y-83650057D01*
X152787714Y-83592914D01*
X152844857Y-83478628D01*
X152844857Y-83364342D01*
X152787714Y-83250057D01*
X152673428Y-83192914D01*
X152387714Y-83192914D01*
X152273428Y-83135771D01*
X151702000Y-83650057D02*
X151702000Y-82450057D01*
X151702000Y-82907200D02*
X151587714Y-82850057D01*
X151359142Y-82850057D01*
X151244857Y-82907200D01*
X151187714Y-82964342D01*
X151130571Y-83078628D01*
X151130571Y-83421485D01*
X151187714Y-83535771D01*
X151244857Y-83592914D01*
X151359142Y-83650057D01*
X151587714Y-83650057D01*
X151702000Y-83592914D01*
X150159142Y-83592914D02*
X150273428Y-83650057D01*
X150502000Y-83650057D01*
X150616285Y-83592914D01*
X150673428Y-83478628D01*
X150673428Y-83021485D01*
X150616285Y-82907200D01*
X150502000Y-82850057D01*
X150273428Y-82850057D01*
X150159142Y-82907200D01*
X150102000Y-83021485D01*
X150102000Y-83135771D01*
X150673428Y-83250057D01*
X160216285Y-84382057D02*
X160216285Y-85239200D01*
X160273428Y-85410628D01*
X160387714Y-85524914D01*
X160559142Y-85582057D01*
X160673428Y-85582057D01*
X159644857Y-85582057D02*
X159644857Y-84782057D01*
X159644857Y-84382057D02*
X159702000Y-84439200D01*
X159644857Y-84496342D01*
X159587714Y-84439200D01*
X159644857Y-84382057D01*
X159644857Y-84496342D01*
X158559142Y-85582057D02*
X158559142Y-84953485D01*
X158616285Y-84839200D01*
X158730571Y-84782057D01*
X158959142Y-84782057D01*
X159073428Y-84839200D01*
X158559142Y-85524914D02*
X158673428Y-85582057D01*
X158959142Y-85582057D01*
X159073428Y-85524914D01*
X159130571Y-85410628D01*
X159130571Y-85296342D01*
X159073428Y-85182057D01*
X158959142Y-85124914D01*
X158673428Y-85124914D01*
X158559142Y-85067771D01*
X158102000Y-84782057D02*
X157816285Y-85582057D01*
X157530571Y-84782057D02*
X157816285Y-85582057D01*
X157930571Y-85867771D01*
X157987714Y-85924914D01*
X158102000Y-85982057D01*
X156559142Y-84782057D02*
X156559142Y-85582057D01*
X157073428Y-84782057D02*
X157073428Y-85410628D01*
X157016285Y-85524914D01*
X156902000Y-85582057D01*
X156730571Y-85582057D01*
X156616285Y-85524914D01*
X156559142Y-85467771D01*
X155473428Y-85582057D02*
X155473428Y-84953485D01*
X155530571Y-84839200D01*
X155644857Y-84782057D01*
X155873428Y-84782057D01*
X155987714Y-84839200D01*
X155473428Y-85524914D02*
X155587714Y-85582057D01*
X155873428Y-85582057D01*
X155987714Y-85524914D01*
X156044857Y-85410628D01*
X156044857Y-85296342D01*
X155987714Y-85182057D01*
X155873428Y-85124914D01*
X155587714Y-85124914D01*
X155473428Y-85067771D01*
X154902000Y-84782057D02*
X154902000Y-85582057D01*
X154902000Y-84896342D02*
X154844857Y-84839200D01*
X154730571Y-84782057D01*
X154559142Y-84782057D01*
X154444857Y-84839200D01*
X154387714Y-84953485D01*
X154387714Y-85582057D01*
X152330571Y-85582057D02*
X152902000Y-85582057D01*
X152902000Y-84382057D01*
X151930571Y-85582057D02*
X151930571Y-84782057D01*
X151930571Y-84382057D02*
X151987714Y-84439200D01*
X151930571Y-84496342D01*
X151873428Y-84439200D01*
X151930571Y-84382057D01*
X151930571Y-84496342D01*
X150844857Y-84782057D02*
X150844857Y-85582057D01*
X151359142Y-84782057D02*
X151359142Y-85410628D01*
X151302000Y-85524914D01*
X151187714Y-85582057D01*
X151016285Y-85582057D01*
X150902000Y-85524914D01*
X150844857Y-85467771D01*
X159187714Y-87514057D02*
X159759142Y-87514057D01*
X159759142Y-86314057D01*
X158787714Y-87514057D02*
X158787714Y-86714057D01*
X158787714Y-86314057D02*
X158844857Y-86371200D01*
X158787714Y-86428342D01*
X158730571Y-86371200D01*
X158787714Y-86314057D01*
X158787714Y-86428342D01*
X158044857Y-87514057D02*
X158159142Y-87456914D01*
X158216285Y-87342628D01*
X158216285Y-86314057D01*
X157587714Y-87514057D02*
X157587714Y-86714057D01*
X157587714Y-86314057D02*
X157644857Y-86371200D01*
X157587714Y-86428342D01*
X157530571Y-86371200D01*
X157587714Y-86314057D01*
X157587714Y-86428342D01*
X155702000Y-86885485D02*
X155530571Y-86942628D01*
X155473428Y-86999771D01*
X155416285Y-87114057D01*
X155416285Y-87285485D01*
X155473428Y-87399771D01*
X155530571Y-87456914D01*
X155644857Y-87514057D01*
X156102000Y-87514057D01*
X156102000Y-86314057D01*
X155702000Y-86314057D01*
X155587714Y-86371200D01*
X155530571Y-86428342D01*
X155473428Y-86542628D01*
X155473428Y-86656914D01*
X155530571Y-86771200D01*
X155587714Y-86828342D01*
X155702000Y-86885485D01*
X156102000Y-86885485D01*
X154387714Y-87514057D02*
X154387714Y-86885485D01*
X154444857Y-86771200D01*
X154559142Y-86714057D01*
X154787714Y-86714057D01*
X154902000Y-86771200D01*
X154387714Y-87456914D02*
X154502000Y-87514057D01*
X154787714Y-87514057D01*
X154902000Y-87456914D01*
X154959142Y-87342628D01*
X154959142Y-87228342D01*
X154902000Y-87114057D01*
X154787714Y-87056914D01*
X154502000Y-87056914D01*
X154387714Y-86999771D01*
X153816285Y-87514057D02*
X153816285Y-86314057D01*
X153702000Y-87056914D02*
X153359142Y-87514057D01*
X153359142Y-86714057D02*
X153816285Y-87171200D01*
X152387714Y-87456914D02*
X152502000Y-87514057D01*
X152730571Y-87514057D01*
X152844857Y-87456914D01*
X152902000Y-87342628D01*
X152902000Y-86885485D01*
X152844857Y-86771200D01*
X152730571Y-86714057D01*
X152502000Y-86714057D01*
X152387714Y-86771200D01*
X152330571Y-86885485D01*
X152330571Y-86999771D01*
X152902000Y-87114057D01*
X151816285Y-87514057D02*
X151816285Y-86714057D01*
X151816285Y-86942628D02*
X151759142Y-86828342D01*
X151702000Y-86771200D01*
X151587714Y-86714057D01*
X151473428Y-86714057D01*
X161616285Y-89446057D02*
X162016285Y-88874628D01*
X162302000Y-89446057D02*
X162302000Y-88246057D01*
X161844857Y-88246057D01*
X161730571Y-88303200D01*
X161673428Y-88360342D01*
X161616285Y-88474628D01*
X161616285Y-88646057D01*
X161673428Y-88760342D01*
X161730571Y-88817485D01*
X161844857Y-88874628D01*
X162302000Y-88874628D01*
X160930571Y-89446057D02*
X161044857Y-89388914D01*
X161102000Y-89331771D01*
X161159142Y-89217485D01*
X161159142Y-88874628D01*
X161102000Y-88760342D01*
X161044857Y-88703200D01*
X160930571Y-88646057D01*
X160759142Y-88646057D01*
X160644857Y-88703200D01*
X160587714Y-88760342D01*
X160530571Y-88874628D01*
X160530571Y-89217485D01*
X160587714Y-89331771D01*
X160644857Y-89388914D01*
X160759142Y-89446057D01*
X160930571Y-89446057D01*
X160130571Y-88646057D02*
X159902000Y-89446057D01*
X159673428Y-88874628D01*
X159444857Y-89446057D01*
X159216285Y-88646057D01*
X158244857Y-89446057D02*
X158244857Y-88817485D01*
X158302000Y-88703200D01*
X158416285Y-88646057D01*
X158644857Y-88646057D01*
X158759142Y-88703200D01*
X158244857Y-89388914D02*
X158359142Y-89446057D01*
X158644857Y-89446057D01*
X158759142Y-89388914D01*
X158816285Y-89274628D01*
X158816285Y-89160342D01*
X158759142Y-89046057D01*
X158644857Y-88988914D01*
X158359142Y-88988914D01*
X158244857Y-88931771D01*
X157673428Y-88646057D02*
X157673428Y-89446057D01*
X157673428Y-88760342D02*
X157616285Y-88703200D01*
X157502000Y-88646057D01*
X157330571Y-88646057D01*
X157216285Y-88703200D01*
X157159142Y-88817485D01*
X157159142Y-89446057D01*
X155330571Y-88246057D02*
X155330571Y-89103200D01*
X155387714Y-89274628D01*
X155502000Y-89388914D01*
X155673428Y-89446057D01*
X155787714Y-89446057D01*
X154244857Y-89446057D02*
X154244857Y-88817485D01*
X154302000Y-88703200D01*
X154416285Y-88646057D01*
X154644857Y-88646057D01*
X154759142Y-88703200D01*
X154244857Y-89388914D02*
X154359142Y-89446057D01*
X154644857Y-89446057D01*
X154759142Y-89388914D01*
X154816285Y-89274628D01*
X154816285Y-89160342D01*
X154759142Y-89046057D01*
X154644857Y-88988914D01*
X154359142Y-88988914D01*
X154244857Y-88931771D01*
X153673428Y-88646057D02*
X153673428Y-89446057D01*
X153673428Y-88760342D02*
X153616285Y-88703200D01*
X153502000Y-88646057D01*
X153330571Y-88646057D01*
X153216285Y-88703200D01*
X153159142Y-88817485D01*
X153159142Y-89446057D01*
X152644857Y-89388914D02*
X152530571Y-89446057D01*
X152302000Y-89446057D01*
X152187714Y-89388914D01*
X152130571Y-89274628D01*
X152130571Y-89217485D01*
X152187714Y-89103200D01*
X152302000Y-89046057D01*
X152473428Y-89046057D01*
X152587714Y-88988914D01*
X152644857Y-88874628D01*
X152644857Y-88817485D01*
X152587714Y-88703200D01*
X152473428Y-88646057D01*
X152302000Y-88646057D01*
X152187714Y-88703200D01*
X151159142Y-89388914D02*
X151273428Y-89446057D01*
X151502000Y-89446057D01*
X151616285Y-89388914D01*
X151673428Y-89274628D01*
X151673428Y-88817485D01*
X151616285Y-88703200D01*
X151502000Y-88646057D01*
X151273428Y-88646057D01*
X151159142Y-88703200D01*
X151102000Y-88817485D01*
X151102000Y-88931771D01*
X151673428Y-89046057D01*
X150587714Y-88646057D02*
X150587714Y-89446057D01*
X150587714Y-88760342D02*
X150530571Y-88703200D01*
X150416285Y-88646057D01*
X150244857Y-88646057D01*
X150130571Y-88703200D01*
X150073428Y-88817485D01*
X150073428Y-89446057D01*
X149559142Y-89388914D02*
X149444857Y-89446057D01*
X149216285Y-89446057D01*
X149102000Y-89388914D01*
X149044857Y-89274628D01*
X149044857Y-89217485D01*
X149102000Y-89103200D01*
X149216285Y-89046057D01*
X149387714Y-89046057D01*
X149502000Y-88988914D01*
X149559142Y-88874628D01*
X149559142Y-88817485D01*
X149502000Y-88703200D01*
X149387714Y-88646057D01*
X149216285Y-88646057D01*
X149102000Y-88703200D01*
%TO.C,LS1*%
X149976107Y-117689380D02*
X150452297Y-117689380D01*
X150452297Y-116689380D01*
X149690392Y-117641761D02*
X149547535Y-117689380D01*
X149309440Y-117689380D01*
X149214202Y-117641761D01*
X149166583Y-117594142D01*
X149118964Y-117498904D01*
X149118964Y-117403666D01*
X149166583Y-117308428D01*
X149214202Y-117260809D01*
X149309440Y-117213190D01*
X149499916Y-117165571D01*
X149595154Y-117117952D01*
X149642773Y-117070333D01*
X149690392Y-116975095D01*
X149690392Y-116879857D01*
X149642773Y-116784619D01*
X149595154Y-116737000D01*
X149499916Y-116689380D01*
X149261821Y-116689380D01*
X149118964Y-116737000D01*
X148166583Y-117689380D02*
X148738011Y-117689380D01*
X148452297Y-117689380D02*
X148452297Y-116689380D01*
X148547535Y-116832238D01*
X148642773Y-116927476D01*
X148738011Y-116975095D01*
D11*
X145008250Y-114752000D02*
X144008250Y-114752000D01*
X145258250Y-107252000D02*
X144258250Y-107252000D01*
X149258250Y-106752000D02*
X152258250Y-106752000D01*
X149258250Y-115252000D02*
X152258250Y-115252000D01*
X155008250Y-112502000D02*
X155008250Y-109502000D01*
X144508250Y-115252000D02*
X144508250Y-114252000D01*
X146508250Y-112502000D02*
X146508250Y-109502000D01*
%TD*%
M02*
