%TF.GenerationSoftware,KiCad,Pcbnew,(6.0.7)*%
%TF.CreationDate,2023-03-09T00:13:32-05:00*%
%TF.ProjectId,board_one_teensy_22,626f6172-645f-46f6-9e65-5f7465656e73,rev?*%
%TF.SameCoordinates,Original*%
%TF.FileFunction,Soldermask,Bot*%
%TF.FilePolarity,Negative*%
%FSLAX46Y46*%
G04 Gerber Fmt 4.6, Leading zero omitted, Abs format (unit mm)*
G04 Created by KiCad (PCBNEW (6.0.7)) date 2023-03-09 00:13:32*
%MOMM*%
%LPD*%
G01*
G04 APERTURE LIST*
G04 Aperture macros list*
%AMRoundRect*
0 Rectangle with rounded corners*
0 $1 Rounding radius*
0 $2 $3 $4 $5 $6 $7 $8 $9 X,Y pos of 4 corners*
0 Add a 4 corners polygon primitive as box body*
4,1,4,$2,$3,$4,$5,$6,$7,$8,$9,$2,$3,0*
0 Add four circle primitives for the rounded corners*
1,1,$1+$1,$2,$3*
1,1,$1+$1,$4,$5*
1,1,$1+$1,$6,$7*
1,1,$1+$1,$8,$9*
0 Add four rect primitives between the rounded corners*
20,1,$1+$1,$2,$3,$4,$5,0*
20,1,$1+$1,$4,$5,$6,$7,0*
20,1,$1+$1,$6,$7,$8,$9,0*
20,1,$1+$1,$8,$9,$2,$3,0*%
G04 Aperture macros list end*
%ADD10C,0.010000*%
%ADD11C,3.600000*%
%ADD12C,5.600000*%
%ADD13RoundRect,0.250000X-0.625000X0.350000X-0.625000X-0.350000X0.625000X-0.350000X0.625000X0.350000X0*%
%ADD14O,1.750000X1.200000*%
%ADD15C,1.600000*%
%ADD16C,0.958000*%
%ADD17O,1.816000X0.908000*%
%ADD18R,1.600000X1.600000*%
%ADD19R,1.300000X1.300000*%
%ADD20C,1.300000*%
%ADD21RoundRect,0.250000X0.350000X0.625000X-0.350000X0.625000X-0.350000X-0.625000X0.350000X-0.625000X0*%
%ADD22O,1.200000X1.750000*%
G04 APERTURE END LIST*
%TO.C,LS1*%
G36*
X148948810Y-107154080D02*
G01*
X146910330Y-109192560D01*
X145908250Y-108090480D01*
X145908250Y-106152000D01*
X147846730Y-106152000D01*
X148948810Y-107154080D01*
G37*
D10*
X148948810Y-107154080D02*
X146910330Y-109192560D01*
X145908250Y-108090480D01*
X145908250Y-106152000D01*
X147846730Y-106152000D01*
X148948810Y-107154080D01*
G36*
X155608250Y-108190480D02*
G01*
X154556170Y-109192560D01*
X152617690Y-107254080D01*
X153569770Y-106152000D01*
X155608250Y-106152000D01*
X155608250Y-108190480D01*
G37*
X155608250Y-108190480D02*
X154556170Y-109192560D01*
X152617690Y-107254080D01*
X153569770Y-106152000D01*
X155608250Y-106152000D01*
X155608250Y-108190480D01*
G36*
X148848810Y-114799920D02*
G01*
X147946730Y-115852000D01*
X145908250Y-115852000D01*
X145908250Y-113813520D01*
X146910330Y-112861440D01*
X148848810Y-114799920D01*
G37*
X148848810Y-114799920D02*
X147946730Y-115852000D01*
X145908250Y-115852000D01*
X145908250Y-113813520D01*
X146910330Y-112861440D01*
X148848810Y-114799920D01*
G36*
X155958250Y-114213520D02*
G01*
X153919770Y-116252000D01*
X152517690Y-114799920D01*
X154556170Y-112761440D01*
X155958250Y-114213520D01*
G37*
X155958250Y-114213520D02*
X153919770Y-116252000D01*
X152517690Y-114799920D01*
X154556170Y-112761440D01*
X155958250Y-114213520D01*
%TD*%
D11*
%TO.C,H1*%
X118614971Y-53255682D03*
D12*
X118614971Y-53255682D03*
%TD*%
D13*
%TO.C,J2*%
X117820000Y-88560000D03*
D14*
X117820000Y-90560000D03*
X117820000Y-92560000D03*
X117820000Y-94560000D03*
X117820000Y-96560000D03*
X117820000Y-98560000D03*
X117820000Y-100560000D03*
%TD*%
D11*
%TO.C,H4*%
X118603304Y-135797904D03*
D12*
X118603304Y-135797904D03*
%TD*%
D11*
%TO.C,H3*%
X156706146Y-53242782D03*
D12*
X156706146Y-53242782D03*
%TD*%
D15*
%TO.C,U2*%
X146690000Y-88650000D03*
X146690000Y-86110000D03*
X146690000Y-83570000D03*
X146690000Y-81030000D03*
X164470000Y-78490000D03*
X164470000Y-81030000D03*
X164470000Y-83570000D03*
X164470000Y-86110000D03*
X164470000Y-88650000D03*
X164470000Y-91190000D03*
%TD*%
D16*
%TO.C,J3*%
X122092500Y-69830000D03*
X121092500Y-70480000D03*
X122092500Y-71130000D03*
X121092500Y-71780000D03*
X122092500Y-72430000D03*
D17*
X121872500Y-67555000D03*
X121872500Y-74705000D03*
%TD*%
D11*
%TO.C,H2*%
X156701211Y-135804448D03*
D12*
X156701211Y-135804448D03*
%TD*%
D18*
%TO.C,U1*%
X124855000Y-60190000D03*
D15*
X124855000Y-62730000D03*
X124855000Y-65270000D03*
X124855000Y-67810000D03*
X124855000Y-70350000D03*
X124855000Y-72890000D03*
X124855000Y-75430000D03*
X124855000Y-77970000D03*
X124855000Y-80510000D03*
X124855000Y-83050000D03*
X124855000Y-85590000D03*
X124855000Y-88130000D03*
X124855000Y-90670000D03*
X124855000Y-93210000D03*
X124855000Y-95750000D03*
X124855000Y-98290000D03*
X124855000Y-100830000D03*
X124855000Y-103370000D03*
X124855000Y-105910000D03*
X124855000Y-108450000D03*
X124855000Y-110990000D03*
X124855000Y-113530000D03*
X124855000Y-116070000D03*
X124855000Y-118610000D03*
X140095000Y-118610000D03*
X140095000Y-116070000D03*
X140095000Y-113530000D03*
X140095000Y-110990000D03*
X140095000Y-108450000D03*
X140095000Y-105910000D03*
X140095000Y-103370000D03*
X140095000Y-100830000D03*
X140095000Y-98290000D03*
X140095000Y-95750000D03*
X140095000Y-93210000D03*
X140095000Y-90670000D03*
X140095000Y-88130000D03*
X140095000Y-85590000D03*
X140095000Y-83050000D03*
X140095000Y-80510000D03*
X140095000Y-77970000D03*
X140095000Y-75430000D03*
X140095000Y-72890000D03*
X140095000Y-70350000D03*
X140095000Y-67810000D03*
X140095000Y-65270000D03*
X140095000Y-62730000D03*
X140095000Y-60190000D03*
X137555000Y-62730000D03*
X127395000Y-105910000D03*
X129935000Y-105910000D03*
X132475000Y-105910000D03*
X135015000Y-105910000D03*
X137555000Y-105910000D03*
D18*
X127905800Y-66489200D03*
D15*
X127905800Y-69029200D03*
X127905800Y-71569200D03*
X127905800Y-74109200D03*
X127905800Y-76649200D03*
D19*
X137656600Y-73160000D03*
D20*
X135656600Y-73160000D03*
X133656600Y-73160000D03*
X133656600Y-75160000D03*
X135656600Y-75160000D03*
X137656600Y-75160000D03*
X133745000Y-60920000D03*
X131205000Y-60920000D03*
%TD*%
D21*
%TO.C,J1*%
X153880000Y-65780000D03*
D22*
X151880000Y-65780000D03*
X149880000Y-65780000D03*
X147880000Y-65780000D03*
%TD*%
M02*
