M48
; DRILL file {KiCad (6.0.7)} date Thu Mar  9 00:43:46 2023
; FORMAT={-:-/ absolute / inch / decimal}
; #@! TF.CreationDate,2023-03-09T00:43:46-05:00
; #@! TF.GenerationSoftware,Kicad,Pcbnew,(6.0.7)
; #@! TF.FileFunction,MixedPlating,1,2
FMAT,2
INCH
; #@! TA.AperFunction,Plated,PTH,ViaDrill
T1C0.0157
; #@! TA.AperFunction,Plated,PTH,ComponentDrill
T2C0.0394
; #@! TA.AperFunction,Plated,PTH,ComponentDrill
T3C0.0400
; #@! TA.AperFunction,Plated,PTH,ComponentDrill
T4C0.0433
; #@! TA.AperFunction,Plated,PTH,ComponentDrill
T5C0.1457
; #@! TA.AperFunction,NonPlated,NPTH,ComponentDrill
T6C0.1300
%
G90
G05
T1
X4.791Y-4.448
X5.104Y-4.52
X6.244Y-4.457
T2
X5.2354Y-4.5532
X5.2354Y-4.6532
X5.3354Y-4.5532
X5.3354Y-4.6532
X5.4354Y-4.5532
X5.4354Y-4.6532
X5.5354Y-4.5532
X5.5354Y-4.6532
X5.6354Y-4.5532
X5.6354Y-4.6532
X5.7354Y-4.5532
X5.7354Y-4.6532
X5.8354Y-4.5532
X5.8354Y-4.6532
X5.9354Y-4.5532
X5.9354Y-4.6532
X6.0354Y-4.5532
X6.0354Y-4.6532
T3
X6.0295Y-3.3953
X6.0295Y-4.2953
X6.1295Y-3.3953
X6.1295Y-4.2953
X6.2295Y-3.3953
X6.2295Y-4.2953
X6.3295Y-3.3953
X6.3295Y-4.2953
X6.4295Y-3.3953
X6.4295Y-4.2953
T4
X4.6008Y-3.3049
X4.6008Y-4.3049
X4.7008Y-3.3049
X4.7008Y-4.3049
X4.8008Y-3.3049
X4.8008Y-4.3049
X4.9008Y-3.3049
X4.9008Y-4.3049
X5.0008Y-3.3049
X5.0008Y-4.3049
X5.1008Y-4.3049
X5.2008Y-4.3049
X5.3008Y-4.3049
X5.4008Y-4.3049
T5
X4.5529Y-4.6
X5.6357Y-2.7253
X6.7182Y-4.6002
T6
X5.8295Y-4.2453
X6.6295Y-4.2453
T0
M30
