%TF.GenerationSoftware,KiCad,Pcbnew,(6.0.7)*%
%TF.CreationDate,2023-03-09T00:43:44-05:00*%
%TF.ProjectId,EAST_GPS,45415354-5f47-4505-932e-6b696361645f,rev?*%
%TF.SameCoordinates,Original*%
%TF.FileFunction,Copper,L1,Top*%
%TF.FilePolarity,Positive*%
%FSLAX46Y46*%
G04 Gerber Fmt 4.6, Leading zero omitted, Abs format (unit mm)*
G04 Created by KiCad (PCBNEW (6.0.7)) date 2023-03-09 00:43:44*
%MOMM*%
%LPD*%
G01*
G04 APERTURE LIST*
%TA.AperFunction,ComponentPad*%
%ADD10C,4.100000*%
%TD*%
%TA.AperFunction,ConnectorPad*%
%ADD11C,7.400000*%
%TD*%
%TA.AperFunction,ComponentPad*%
%ADD12C,1.600000*%
%TD*%
%TA.AperFunction,ComponentPad*%
%ADD13C,1.879600*%
%TD*%
%TA.AperFunction,ComponentPad*%
%ADD14R,1.700000X1.700000*%
%TD*%
%TA.AperFunction,ComponentPad*%
%ADD15O,1.700000X1.700000*%
%TD*%
%TA.AperFunction,ViaPad*%
%ADD16C,0.800000*%
%TD*%
%TA.AperFunction,Conductor*%
%ADD17C,0.508000*%
%TD*%
%TA.AperFunction,Conductor*%
%ADD18C,0.250000*%
%TD*%
G04 APERTURE END LIST*
D10*
%TO.P,REF\u002A\u002A,1*%
%TO.N,N/C*%
X170641661Y-116845280D03*
D11*
X170641661Y-116845280D03*
%TD*%
D12*
%TO.P,U2,1,VIN*%
%TO.N,/3.3V*%
X116860000Y-109345000D03*
%TO.P,U2,2,GND*%
%TO.N,/GND*%
X119400000Y-109345000D03*
%TO.P,U2,3,EN*%
%TO.N,unconnected-(U2-Pad3)*%
X121940000Y-109345000D03*
%TO.P,U2,4,G0*%
%TO.N,unconnected-(U2-Pad4)*%
X124480000Y-109345000D03*
%TO.P,U2,5,SCK*%
%TO.N,/SCK 1*%
X127020000Y-109345000D03*
%TO.P,U2,6,MISO*%
%TO.N,/MOSI 1*%
X129560000Y-109345000D03*
%TO.P,U2,7,MOSI*%
%TO.N,/MISO 1*%
X132100000Y-109345000D03*
%TO.P,U2,8,CS*%
%TO.N,/CS 1*%
X134640000Y-109345000D03*
%TO.P,U2,9,RST*%
%TO.N,unconnected-(U2-Pad9)*%
X137180000Y-109345000D03*
%TO.P,U2,10,G5*%
%TO.N,unconnected-(U2-Pad10)*%
X127020000Y-83945000D03*
%TO.P,U2,11,G4*%
%TO.N,unconnected-(U2-Pad11)*%
X124480000Y-83945000D03*
%TO.P,U2,12,G3*%
%TO.N,unconnected-(U2-Pad12)*%
X121940000Y-83945000D03*
%TO.P,U2,13,G2*%
%TO.N,unconnected-(U2-Pad13)*%
X119400000Y-83945000D03*
%TO.P,U2,14,G1*%
%TO.N,unconnected-(U2-Pad14)*%
X116860000Y-83945000D03*
%TD*%
D13*
%TO.P,U1,1,INT*%
%TO.N,unconnected-(U1-Pad1)*%
X163309700Y-109101750D03*
%TO.P,U1,2,GND*%
%TO.N,/GND*%
X160769700Y-109101750D03*
%TO.P,U1,3,3.3V*%
%TO.N,/3.3V*%
X158229700Y-109101750D03*
%TO.P,U1,4,SDA*%
%TO.N,/SDA 2*%
X155689700Y-109101750D03*
%TO.P,U1,5,SCL*%
%TO.N,/SCL 2*%
X153149700Y-109101750D03*
%TO.P,U1,6,WAKE*%
%TO.N,unconnected-(U1-Pad6)*%
X163309700Y-86241750D03*
%TO.P,U1,7,RST*%
%TO.N,unconnected-(U1-Pad7)*%
X160769700Y-86241750D03*
%TO.P,U1,8,PPS*%
%TO.N,unconnected-(U1-Pad8)*%
X158229700Y-86241750D03*
%TO.P,U1,9,RX*%
%TO.N,unconnected-(U1-Pad9)*%
X155689700Y-86241750D03*
%TO.P,U1,10,TX*%
%TO.N,unconnected-(U1-Pad10)*%
X153149700Y-86241750D03*
%TD*%
D14*
%TO.P,J1,1,Pin_1*%
%TO.N,/V_BATT*%
X132979000Y-118191200D03*
D15*
%TO.P,J1,2,Pin_2*%
%TO.N,/GND*%
X132979000Y-115651200D03*
%TO.P,J1,3,Pin_3*%
%TO.N,/RX 2*%
X135519000Y-118191200D03*
%TO.P,J1,4,Pin_4*%
%TO.N,/CS 1*%
X135519000Y-115651200D03*
%TO.P,J1,5,Pin_5*%
%TO.N,/TX 2*%
X138059000Y-118191200D03*
%TO.P,J1,6,Pin_6*%
%TO.N,/CS 2*%
X138059000Y-115651200D03*
%TO.P,J1,7,Pin_7*%
%TO.N,/SCL 1*%
X140599000Y-118191200D03*
%TO.P,J1,8,Pin_8*%
%TO.N,/MOSI 1*%
X140599000Y-115651200D03*
%TO.P,J1,9,Pin_9*%
%TO.N,/SDA 1*%
X143139000Y-118191200D03*
%TO.P,J1,10,Pin_10*%
%TO.N,/MISO 1*%
X143139000Y-115651200D03*
%TO.P,J1,11,Pin_11*%
%TO.N,/TX 1*%
X145679000Y-118191200D03*
%TO.P,J1,12,Pin_12*%
%TO.N,/3.3V*%
X145679000Y-115651200D03*
%TO.P,J1,13,Pin_13*%
%TO.N,/RX 1*%
X148219000Y-118191200D03*
%TO.P,J1,14,Pin_14*%
%TO.N,/SCL 2*%
X148219000Y-115651200D03*
%TO.P,J1,15,Pin_15*%
%TO.N,/CS 3*%
X150759000Y-118191200D03*
%TO.P,J1,16,Pin_16*%
%TO.N,/SDA 2*%
X150759000Y-115651200D03*
%TO.P,J1,17,Pin_17*%
%TO.N,/CS 4*%
X153299000Y-118191200D03*
%TO.P,J1,18,Pin_18*%
%TO.N,/SCK 1*%
X153299000Y-115651200D03*
%TD*%
D10*
%TO.P,REF\u002A\u002A,1*%
%TO.N,N/C*%
X115644369Y-116840000D03*
D11*
X115644369Y-116840000D03*
%TD*%
%TO.P,REF\u002A\u002A,1*%
%TO.N,N/C*%
X143147778Y-69222624D03*
D10*
X143147778Y-69222624D03*
%TD*%
D16*
%TO.N,/GND*%
X121691400Y-112979200D03*
X129641600Y-114808000D03*
X158597600Y-113207800D03*
%TD*%
D17*
%TO.N,/GND*%
X130484800Y-115651200D02*
X129641600Y-114808000D01*
X119400000Y-110687800D02*
X121691400Y-112979200D01*
X132979000Y-115651200D02*
X130484800Y-115651200D01*
X119400000Y-109345000D02*
X119400000Y-110687800D01*
X160769700Y-111035700D02*
X158597600Y-113207800D01*
X160769700Y-109101750D02*
X160769700Y-111035700D01*
%TO.N,/3.3V*%
X145679000Y-115434179D02*
X145679000Y-115651200D01*
X145679000Y-114449119D02*
X152454504Y-107673615D01*
X145679000Y-115651200D02*
X145679000Y-114449119D01*
X116860000Y-109345000D02*
X118564000Y-107641000D01*
X156801565Y-107673615D02*
X158229700Y-109101750D01*
X152454504Y-107673615D02*
X156801565Y-107673615D01*
X137885821Y-107641000D02*
X145679000Y-115434179D01*
X118564000Y-107641000D02*
X137885821Y-107641000D01*
D18*
%TO.N,/MOSI 1*%
X134344000Y-114129000D02*
X129560000Y-109345000D01*
X134344000Y-116137901D02*
X134344000Y-114129000D01*
X139424000Y-116826200D02*
X135032299Y-116826200D01*
X140599000Y-115651200D02*
X139424000Y-116826200D01*
X135032299Y-116826200D02*
X134344000Y-116137901D01*
%TO.N,/MISO 1*%
X143139000Y-113713009D02*
X137645991Y-108220000D01*
X137645991Y-108220000D02*
X133225000Y-108220000D01*
X133225000Y-108220000D02*
X132100000Y-109345000D01*
X143139000Y-115651200D02*
X143139000Y-113713009D01*
%TO.N,/SCK 1*%
X151245701Y-119366200D02*
X131990000Y-119366200D01*
X131990000Y-119366200D02*
X127020000Y-114396200D01*
X153299000Y-115651200D02*
X152124000Y-116826200D01*
X152124000Y-118487901D02*
X151245701Y-119366200D01*
X127020000Y-114396200D02*
X127020000Y-109345000D01*
X152124000Y-116826200D02*
X152124000Y-118487901D01*
%TO.N,/CS 1*%
X135519000Y-110224000D02*
X134640000Y-109345000D01*
X135519000Y-115651200D02*
X135519000Y-110224000D01*
%TO.N,/SDA 2*%
X150759000Y-115651200D02*
X150759000Y-114032450D01*
X150759000Y-114032450D02*
X155689700Y-109101750D01*
%TO.N,/SCL 2*%
X148219000Y-114032450D02*
X153149700Y-109101750D01*
X148219000Y-115651200D02*
X148219000Y-114032450D01*
%TD*%
M02*
