%TF.GenerationSoftware,KiCad,Pcbnew,(6.0.7)*%
%TF.CreationDate,2023-03-09T00:43:44-05:00*%
%TF.ProjectId,EAST_GPS,45415354-5f47-4505-932e-6b696361645f,rev?*%
%TF.SameCoordinates,Original*%
%TF.FileFunction,Soldermask,Bot*%
%TF.FilePolarity,Negative*%
%FSLAX46Y46*%
G04 Gerber Fmt 4.6, Leading zero omitted, Abs format (unit mm)*
G04 Created by KiCad (PCBNEW (6.0.7)) date 2023-03-09 00:43:44*
%MOMM*%
%LPD*%
G01*
G04 APERTURE LIST*
%ADD10C,4.100000*%
%ADD11C,7.400000*%
%ADD12C,1.600000*%
%ADD13C,3.302000*%
%ADD14C,2.082800*%
%ADD15R,1.700000X1.700000*%
%ADD16O,1.700000X1.700000*%
G04 APERTURE END LIST*
D10*
%TO.C,REF\u002A\u002A*%
X170641661Y-116845280D03*
D11*
X170641661Y-116845280D03*
%TD*%
D12*
%TO.C,U2*%
X116860000Y-109345000D03*
X119400000Y-109345000D03*
X121940000Y-109345000D03*
X124480000Y-109345000D03*
X127020000Y-109345000D03*
X129560000Y-109345000D03*
X132100000Y-109345000D03*
X134640000Y-109345000D03*
X137180000Y-109345000D03*
X127020000Y-83945000D03*
X124480000Y-83945000D03*
X121940000Y-83945000D03*
X119400000Y-83945000D03*
X116860000Y-83945000D03*
%TD*%
D13*
%TO.C,U1*%
X168389700Y-107831750D03*
X148069700Y-107831750D03*
D14*
X163309700Y-109101750D03*
X160769700Y-109101750D03*
X158229700Y-109101750D03*
X155689700Y-109101750D03*
X153149700Y-109101750D03*
X163309700Y-86241750D03*
X160769700Y-86241750D03*
X158229700Y-86241750D03*
X155689700Y-86241750D03*
X153149700Y-86241750D03*
%TD*%
D15*
%TO.C,J1*%
X132979000Y-118191200D03*
D16*
X132979000Y-115651200D03*
X135519000Y-118191200D03*
X135519000Y-115651200D03*
X138059000Y-118191200D03*
X138059000Y-115651200D03*
X140599000Y-118191200D03*
X140599000Y-115651200D03*
X143139000Y-118191200D03*
X143139000Y-115651200D03*
X145679000Y-118191200D03*
X145679000Y-115651200D03*
X148219000Y-118191200D03*
X148219000Y-115651200D03*
X150759000Y-118191200D03*
X150759000Y-115651200D03*
X153299000Y-118191200D03*
X153299000Y-115651200D03*
%TD*%
D10*
%TO.C,REF\u002A\u002A*%
X115644369Y-116840000D03*
D11*
X115644369Y-116840000D03*
%TD*%
%TO.C,REF\u002A\u002A*%
X143147778Y-69222624D03*
D10*
X143147778Y-69222624D03*
%TD*%
M02*
