M48
; DRILL file {KiCad (6.0.7)} date Sat Apr  1 23:15:32 2023
; FORMAT={-:-/ absolute / inch / decimal}
; #@! TF.CreationDate,2023-04-01T23:15:32-04:00
; #@! TF.GenerationSoftware,Kicad,Pcbnew,(6.0.7)
; #@! TF.FileFunction,MixedPlating,1,2
FMAT,2
INCH
; #@! TA.AperFunction,Plated,PTH,ViaDrill
T1C0.0157
; #@! TA.AperFunction,Plated,PTH,ComponentDrill
T2C0.0394
; #@! TA.AperFunction,Plated,PTH,ComponentDrill
T3C0.0400
; #@! TA.AperFunction,Plated,PTH,ComponentDrill
T4C0.0433
; #@! TA.AperFunction,Plated,PTH,ComponentDrill
T5C0.1457
%
G90
G05
T1
X4.791Y-4.448
X5.538Y-4.716
X5.604Y-4.79
X5.638Y-4.706
X5.712Y-4.7785
X6.128Y-4.206
T2
X5.2354Y-4.5532
X5.2354Y-4.6532
X5.3354Y-4.5532
X5.3354Y-4.6532
X5.4354Y-4.5532
X5.4354Y-4.6532
X5.5354Y-4.5532
X5.5354Y-4.6532
X5.6354Y-4.5532
X5.6354Y-4.6532
X5.7354Y-4.5532
X5.7354Y-4.6532
X5.8354Y-4.5532
X5.8354Y-4.6532
X5.9354Y-4.5532
X5.9354Y-4.6532
X6.0354Y-4.5532
X6.0354Y-4.6532
T3
X6.03Y-3.3929
X6.03Y-4.2929
X6.13Y-3.3929
X6.13Y-4.2929
X6.23Y-3.3929
X6.23Y-4.2929
X6.33Y-3.3929
X6.33Y-4.2929
X6.43Y-3.3929
X6.43Y-4.2929
T4
X4.6008Y-3.3049
X4.6008Y-4.3049
X4.7008Y-3.3049
X4.7008Y-4.3049
X4.8008Y-3.3049
X4.8008Y-4.3049
X4.9008Y-3.3049
X4.9008Y-4.3049
X5.0008Y-3.3049
X5.0008Y-4.3049
X5.1008Y-4.3049
X5.2008Y-4.3049
X5.3008Y-4.3049
X5.4008Y-4.3049
T5
X4.5529Y-4.6
X5.6357Y-2.7253
X6.7182Y-4.6002
T0
M30
