%TF.GenerationSoftware,KiCad,Pcbnew,(6.0.7)*%
%TF.CreationDate,2023-03-09T00:43:44-05:00*%
%TF.ProjectId,EAST_GPS,45415354-5f47-4505-932e-6b696361645f,rev?*%
%TF.SameCoordinates,Original*%
%TF.FileFunction,Legend,Top*%
%TF.FilePolarity,Positive*%
%FSLAX46Y46*%
G04 Gerber Fmt 4.6, Leading zero omitted, Abs format (unit mm)*
G04 Created by KiCad (PCBNEW (6.0.7)) date 2023-03-09 00:43:44*
%MOMM*%
%LPD*%
G01*
G04 APERTURE LIST*
%ADD10C,0.150000*%
%ADD11C,0.300000*%
%ADD12C,0.120000*%
G04 APERTURE END LIST*
D10*
X143002000Y-84836000D02*
X173482000Y-84836000D01*
X173482000Y-84836000D02*
X173482000Y-111506000D01*
X173482000Y-111506000D02*
X143002000Y-111506000D01*
X143002000Y-111506000D02*
X143002000Y-84836000D01*
D11*
%TO.C,*%
D10*
%TO.C,U2*%
X135850380Y-101345904D02*
X136659904Y-101345904D01*
X136755142Y-101298285D01*
X136802761Y-101250666D01*
X136850380Y-101155428D01*
X136850380Y-100964952D01*
X136802761Y-100869714D01*
X136755142Y-100822095D01*
X136659904Y-100774476D01*
X135850380Y-100774476D01*
X135945619Y-100345904D02*
X135898000Y-100298285D01*
X135850380Y-100203047D01*
X135850380Y-99964952D01*
X135898000Y-99869714D01*
X135945619Y-99822095D01*
X136040857Y-99774476D01*
X136136095Y-99774476D01*
X136278952Y-99822095D01*
X136850380Y-100393523D01*
X136850380Y-99774476D01*
X138902380Y-105598095D02*
X138426190Y-105931428D01*
X138902380Y-106169523D02*
X137902380Y-106169523D01*
X137902380Y-105788571D01*
X137950000Y-105693333D01*
X137997619Y-105645714D01*
X138092857Y-105598095D01*
X138235714Y-105598095D01*
X138330952Y-105645714D01*
X138378571Y-105693333D01*
X138426190Y-105788571D01*
X138426190Y-106169523D01*
X138378571Y-104836190D02*
X138378571Y-105169523D01*
X138902380Y-105169523D02*
X137902380Y-105169523D01*
X137902380Y-104693333D01*
X138902380Y-104312380D02*
X137902380Y-104312380D01*
X138616666Y-103979047D01*
X137902380Y-103645714D01*
X138902380Y-103645714D01*
X137902380Y-102740952D02*
X137902380Y-102931428D01*
X137950000Y-103026666D01*
X137997619Y-103074285D01*
X138140476Y-103169523D01*
X138330952Y-103217142D01*
X138711904Y-103217142D01*
X138807142Y-103169523D01*
X138854761Y-103121904D01*
X138902380Y-103026666D01*
X138902380Y-102836190D01*
X138854761Y-102740952D01*
X138807142Y-102693333D01*
X138711904Y-102645714D01*
X138473809Y-102645714D01*
X138378571Y-102693333D01*
X138330952Y-102740952D01*
X138283333Y-102836190D01*
X138283333Y-103026666D01*
X138330952Y-103121904D01*
X138378571Y-103169523D01*
X138473809Y-103217142D01*
X138902380Y-102169523D02*
X138902380Y-101979047D01*
X138854761Y-101883809D01*
X138807142Y-101836190D01*
X138664285Y-101740952D01*
X138473809Y-101693333D01*
X138092857Y-101693333D01*
X137997619Y-101740952D01*
X137950000Y-101788571D01*
X137902380Y-101883809D01*
X137902380Y-102074285D01*
X137950000Y-102169523D01*
X137997619Y-102217142D01*
X138092857Y-102264761D01*
X138330952Y-102264761D01*
X138426190Y-102217142D01*
X138473809Y-102169523D01*
X138521428Y-102074285D01*
X138521428Y-101883809D01*
X138473809Y-101788571D01*
X138426190Y-101740952D01*
X138330952Y-101693333D01*
X138902380Y-101264761D02*
X137902380Y-101264761D01*
X138378571Y-101264761D02*
X138378571Y-100693333D01*
X138902380Y-100693333D02*
X137902380Y-100693333D01*
X138807142Y-99645714D02*
X138854761Y-99693333D01*
X138902380Y-99836190D01*
X138902380Y-99931428D01*
X138854761Y-100074285D01*
X138759523Y-100169523D01*
X138664285Y-100217142D01*
X138473809Y-100264761D01*
X138330952Y-100264761D01*
X138140476Y-100217142D01*
X138045238Y-100169523D01*
X137950000Y-100074285D01*
X137902380Y-99931428D01*
X137902380Y-99836190D01*
X137950000Y-99693333D01*
X137997619Y-99645714D01*
X137902380Y-99312380D02*
X138902380Y-99074285D01*
X138188095Y-98883809D01*
X138902380Y-98693333D01*
X137902380Y-98455238D01*
%TO.C,U1*%
X157340795Y-94497130D02*
X157340795Y-95306654D01*
X157388414Y-95401892D01*
X157436033Y-95449511D01*
X157531271Y-95497130D01*
X157721747Y-95497130D01*
X157816985Y-95449511D01*
X157864604Y-95401892D01*
X157912223Y-95306654D01*
X157912223Y-94497130D01*
X158912223Y-95497130D02*
X158340795Y-95497130D01*
X158626509Y-95497130D02*
X158626509Y-94497130D01*
X158531271Y-94639988D01*
X158436033Y-94735226D01*
X158340795Y-94782845D01*
%TO.C,J1*%
X130101380Y-117254533D02*
X130815666Y-117254533D01*
X130958523Y-117302152D01*
X131053761Y-117397390D01*
X131101380Y-117540247D01*
X131101380Y-117635485D01*
X131101380Y-116254533D02*
X131101380Y-116825961D01*
X131101380Y-116540247D02*
X130101380Y-116540247D01*
X130244238Y-116635485D01*
X130339476Y-116730723D01*
X130387095Y-116825961D01*
%TO.C,*%
G36*
X131376659Y-126252940D02*
G01*
X129619300Y-126252940D01*
X129031431Y-126252079D01*
X128592338Y-126248305D01*
X128281465Y-126239831D01*
X128078260Y-126224871D01*
X127962169Y-126201637D01*
X127912636Y-126168344D01*
X127909108Y-126123205D01*
X127914761Y-126104774D01*
X128038345Y-125871967D01*
X128244962Y-125693294D01*
X128491627Y-125564048D01*
X128631560Y-125509947D01*
X128797378Y-125469842D01*
X129015526Y-125441702D01*
X129312451Y-125423493D01*
X129714597Y-125413183D01*
X130248412Y-125408741D01*
X130520444Y-125408133D01*
X132210595Y-125406274D01*
X131376659Y-126252940D01*
G37*
G36*
X130677361Y-126614925D02*
G01*
X130980199Y-126624852D01*
X131101012Y-126636074D01*
X131447603Y-126735528D01*
X131700493Y-126902925D01*
X131827299Y-127113968D01*
X131835960Y-127187572D01*
X131839001Y-127239056D01*
X131835577Y-127278859D01*
X131806873Y-127307709D01*
X131734070Y-127326330D01*
X131598351Y-127335449D01*
X131380899Y-127335793D01*
X131062896Y-127328088D01*
X130625526Y-127313059D01*
X130049971Y-127291433D01*
X129592294Y-127274162D01*
X128938302Y-127238371D01*
X128450418Y-127185961D01*
X128126192Y-127116491D01*
X127963172Y-127029518D01*
X127941294Y-126976553D01*
X127915217Y-126879544D01*
X127894478Y-126822123D01*
X127901379Y-126775786D01*
X127976025Y-126739225D01*
X128139309Y-126709690D01*
X128412120Y-126684432D01*
X128815350Y-126660701D01*
X129282925Y-126639394D01*
X129790587Y-126622266D01*
X130268111Y-126614086D01*
X130677361Y-126614925D01*
G37*
G36*
X120365081Y-126609832D02*
G01*
X120452208Y-126610933D01*
X122137309Y-126633940D01*
X121812116Y-126993774D01*
X121486923Y-127353607D01*
X118524448Y-127353607D01*
X118582793Y-127036107D01*
X118636254Y-126812882D01*
X118693760Y-126667062D01*
X118704122Y-126653267D01*
X118804451Y-126634392D01*
X119047392Y-126619965D01*
X119406263Y-126610632D01*
X119854386Y-126607039D01*
X120365081Y-126609832D01*
G37*
G36*
X125263076Y-125337249D02*
G01*
X125486433Y-125416750D01*
X125500718Y-125427440D01*
X125578715Y-125532934D01*
X125718722Y-125764833D01*
X125906737Y-126098227D01*
X126128761Y-126508206D01*
X126370791Y-126969860D01*
X126404915Y-127036107D01*
X127177322Y-128538940D01*
X123430028Y-128538940D01*
X123801827Y-128126322D01*
X124173627Y-127713704D01*
X125477855Y-127649940D01*
X125206741Y-127081176D01*
X125071023Y-126807263D01*
X124961040Y-126605087D01*
X124897679Y-126512670D01*
X124893294Y-126510610D01*
X124826192Y-126570511D01*
X124668235Y-126737145D01*
X124439120Y-126988983D01*
X124158544Y-127304494D01*
X123966310Y-127523874D01*
X123081659Y-128538940D01*
X122501009Y-128538940D01*
X122198002Y-128536213D01*
X122034850Y-128521072D01*
X121982086Y-128483076D01*
X122010244Y-128411785D01*
X122035804Y-128374118D01*
X122154368Y-128223107D01*
X122358972Y-127981399D01*
X122629407Y-127671272D01*
X122945465Y-127315003D01*
X123286936Y-126934871D01*
X123633613Y-126553151D01*
X123965285Y-126192124D01*
X124261745Y-125874064D01*
X124502783Y-125621252D01*
X124668192Y-125455963D01*
X124731882Y-125402034D01*
X124982095Y-125331370D01*
X125263076Y-125337249D01*
G37*
G36*
X130004136Y-127733242D02*
G01*
X130604200Y-127754422D01*
X131054900Y-127773152D01*
X131376137Y-127791901D01*
X131587810Y-127813137D01*
X131709817Y-127839328D01*
X131762057Y-127872940D01*
X131764431Y-127916443D01*
X131749465Y-127949689D01*
X131627763Y-128098904D01*
X131433302Y-128269448D01*
X131391632Y-128300219D01*
X131295784Y-128363850D01*
X131194199Y-128412431D01*
X131063142Y-128448378D01*
X130878876Y-128474106D01*
X130617666Y-128492031D01*
X130255778Y-128504568D01*
X129769474Y-128514134D01*
X129211294Y-128522126D01*
X127306294Y-128547646D01*
X127741303Y-128109291D01*
X128176313Y-127670937D01*
X130004136Y-127733242D01*
G37*
G36*
X134048786Y-126592227D02*
G01*
X134189072Y-126613179D01*
X134261484Y-126683103D01*
X134276027Y-126830638D01*
X134242703Y-127084425D01*
X134171516Y-127473102D01*
X134160054Y-127534754D01*
X134082049Y-127956872D01*
X134020750Y-128240774D01*
X133956949Y-128413725D01*
X133871435Y-128502991D01*
X133745001Y-128535837D01*
X133558436Y-128539528D01*
X133452574Y-128538940D01*
X132963932Y-128538940D01*
X133118501Y-127643653D01*
X133186231Y-127269274D01*
X133248663Y-126956123D01*
X133297816Y-126742475D01*
X133321512Y-126669986D01*
X133426683Y-126626421D01*
X133645479Y-126597962D01*
X133830624Y-126591607D01*
X134048786Y-126592227D01*
G37*
G36*
X121933629Y-127711657D02*
G01*
X122085559Y-127742387D01*
X122099294Y-127759312D01*
X122043288Y-127849939D01*
X121897961Y-128016881D01*
X121736255Y-128182645D01*
X121373217Y-128538940D01*
X119825550Y-128538940D01*
X119278269Y-128537876D01*
X118878358Y-128533244D01*
X118603860Y-128522887D01*
X118432818Y-128504646D01*
X118343276Y-128476364D01*
X118313276Y-128435882D01*
X118318052Y-128390774D01*
X118367759Y-128192041D01*
X118406712Y-128023021D01*
X118455203Y-127803436D01*
X119663415Y-127748165D01*
X120478401Y-127715115D01*
X121129079Y-127698017D01*
X121614479Y-127696866D01*
X121933629Y-127711657D01*
G37*
G36*
X140275581Y-125432207D02*
G01*
X140777383Y-125440628D01*
X141140008Y-125453618D01*
X141393608Y-125475018D01*
X141568339Y-125508673D01*
X141694353Y-125558425D01*
X141799581Y-125626460D01*
X141994555Y-125868444D01*
X142076873Y-126185004D01*
X142041682Y-126520128D01*
X141901045Y-126797073D01*
X141726261Y-126980629D01*
X141516259Y-127111504D01*
X141241023Y-127197608D01*
X140870540Y-127246852D01*
X140374795Y-127267145D01*
X140110613Y-127268940D01*
X139617427Y-127275190D01*
X139269892Y-127297850D01*
X139044657Y-127342786D01*
X138918367Y-127415862D01*
X138867670Y-127522944D01*
X138863294Y-127582207D01*
X138899079Y-127623590D01*
X139019173Y-127653819D01*
X139242681Y-127674312D01*
X139588709Y-127686489D01*
X140076362Y-127691769D01*
X140344960Y-127692274D01*
X140824595Y-127695900D01*
X141239508Y-127705961D01*
X141562605Y-127721232D01*
X141766791Y-127740486D01*
X141826627Y-127759312D01*
X141770621Y-127849939D01*
X141625295Y-128016881D01*
X141463589Y-128182645D01*
X141100551Y-128538940D01*
X137704081Y-128538940D01*
X137819008Y-127925107D01*
X137914239Y-127502098D01*
X138036055Y-127182161D01*
X138207976Y-126950388D01*
X138453523Y-126791872D01*
X138796215Y-126691707D01*
X139259574Y-126634985D01*
X139867118Y-126606800D01*
X139900460Y-126605905D01*
X140365670Y-126592075D01*
X140687638Y-126576340D01*
X140892440Y-126554406D01*
X141006148Y-126521977D01*
X141054839Y-126474759D01*
X141064627Y-126414154D01*
X141055226Y-126354814D01*
X141011141Y-126312123D01*
X140908551Y-126283355D01*
X140723631Y-126265784D01*
X140432561Y-126256684D01*
X140011516Y-126253330D01*
X139655661Y-126252940D01*
X138246695Y-126252940D01*
X138618494Y-125834373D01*
X138990294Y-125415806D01*
X140275581Y-125432207D01*
G37*
G36*
X120714942Y-125406274D02*
G01*
X122536512Y-125406274D01*
X121802960Y-126245316D01*
X118699172Y-126252940D01*
X118754554Y-125977774D01*
X118789148Y-125790563D01*
X118822077Y-125649154D01*
X118875210Y-125547169D01*
X118970413Y-125478235D01*
X119129554Y-125435977D01*
X119374501Y-125414019D01*
X119727122Y-125405987D01*
X120209283Y-125405505D01*
X120714942Y-125406274D01*
G37*
G36*
X135518960Y-126245316D02*
G01*
X133719794Y-126249128D01*
X133188459Y-126248425D01*
X132719342Y-126244303D01*
X132337030Y-126237271D01*
X132066114Y-126227832D01*
X131931180Y-126216494D01*
X131920627Y-126212094D01*
X131974609Y-126134482D01*
X132115263Y-125972914D01*
X132287114Y-125788760D01*
X132653600Y-125406274D01*
X136252512Y-125406274D01*
X135518960Y-126245316D01*
G37*
D12*
%TO.C,U2*%
X127020000Y-111885000D02*
X116860000Y-111885000D01*
X139085000Y-82675000D02*
X116860000Y-82675000D01*
X114320000Y-85215000D02*
X114320000Y-109345000D01*
X139720000Y-109345000D02*
X139720000Y-82675000D01*
X139085000Y-82675000D02*
X139720000Y-82675000D01*
X127020000Y-111885000D02*
X137180000Y-111885000D01*
X116860000Y-82675000D02*
G75*
G03*
X114320000Y-85215000I1J-2540001D01*
G01*
X114320000Y-109345000D02*
G75*
G03*
X116860000Y-111885000I2540000J0D01*
G01*
X137180000Y-111885000D02*
G75*
G03*
X139720000Y-109345000I0J2540000D01*
G01*
%TO.C,J1*%
X134249000Y-116921200D02*
X131649000Y-116921200D01*
X134249000Y-119521200D02*
X134249000Y-116921200D01*
X134249000Y-119521200D02*
X154629000Y-119521200D01*
X131649000Y-114321200D02*
X154629000Y-114321200D01*
X131649000Y-119521200D02*
X131649000Y-118191200D01*
X131649000Y-116921200D02*
X131649000Y-114321200D01*
X154629000Y-119521200D02*
X154629000Y-114321200D01*
X132979000Y-119521200D02*
X131649000Y-119521200D01*
%TD*%
M02*
