%TF.GenerationSoftware,KiCad,Pcbnew,(6.0.7)*%
%TF.CreationDate,2023-03-08T23:55:28-05:00*%
%TF.ProjectId,CoreIO,436f7265-494f-42e6-9b69-6361645f7063,rev?*%
%TF.SameCoordinates,Original*%
%TF.FileFunction,Legend,Bot*%
%TF.FilePolarity,Positive*%
%FSLAX46Y46*%
G04 Gerber Fmt 4.6, Leading zero omitted, Abs format (unit mm)*
G04 Created by KiCad (PCBNEW (6.0.7)) date 2023-03-08 23:55:28*
%MOMM*%
%LPD*%
G01*
G04 APERTURE LIST*
%ADD10C,0.150000*%
%ADD11C,0.300000*%
%ADD12C,0.120000*%
G04 APERTURE END LIST*
D10*
X154221485Y-113832133D02*
X153269104Y-113832133D01*
X154411961Y-114403561D02*
X153745295Y-112403561D01*
X153078628Y-114403561D01*
X152411961Y-114403561D02*
X152411961Y-113070228D01*
X152411961Y-113451180D02*
X152316723Y-113260704D01*
X152221485Y-113165466D01*
X152031009Y-113070228D01*
X151840533Y-113070228D01*
X151173866Y-114403561D02*
X151173866Y-113070228D01*
X151173866Y-112403561D02*
X151269104Y-112498800D01*
X151173866Y-112594038D01*
X151078628Y-112498800D01*
X151173866Y-112403561D01*
X151173866Y-112594038D01*
X148031009Y-113355942D02*
X147745295Y-113451180D01*
X147650057Y-113546419D01*
X147554819Y-113736895D01*
X147554819Y-114022609D01*
X147650057Y-114213085D01*
X147745295Y-114308323D01*
X147935771Y-114403561D01*
X148697676Y-114403561D01*
X148697676Y-112403561D01*
X148031009Y-112403561D01*
X147840533Y-112498800D01*
X147745295Y-112594038D01*
X147650057Y-112784514D01*
X147650057Y-112974990D01*
X147745295Y-113165466D01*
X147840533Y-113260704D01*
X148031009Y-113355942D01*
X148697676Y-113355942D01*
X146411961Y-114403561D02*
X146602438Y-114308323D01*
X146697676Y-114213085D01*
X146792914Y-114022609D01*
X146792914Y-113451180D01*
X146697676Y-113260704D01*
X146602438Y-113165466D01*
X146411961Y-113070228D01*
X146126247Y-113070228D01*
X145935771Y-113165466D01*
X145840533Y-113260704D01*
X145745295Y-113451180D01*
X145745295Y-114022609D01*
X145840533Y-114213085D01*
X145935771Y-114308323D01*
X146126247Y-114403561D01*
X146411961Y-114403561D01*
X144888152Y-114403561D02*
X144888152Y-112403561D01*
X144888152Y-113165466D02*
X144697676Y-113070228D01*
X144316723Y-113070228D01*
X144126247Y-113165466D01*
X144031009Y-113260704D01*
X143935771Y-113451180D01*
X143935771Y-114022609D01*
X144031009Y-114213085D01*
X144126247Y-114308323D01*
X144316723Y-114403561D01*
X144697676Y-114403561D01*
X144888152Y-114308323D01*
X142316723Y-114308323D02*
X142507200Y-114403561D01*
X142888152Y-114403561D01*
X143078628Y-114308323D01*
X143173866Y-114117847D01*
X143173866Y-113355942D01*
X143078628Y-113165466D01*
X142888152Y-113070228D01*
X142507200Y-113070228D01*
X142316723Y-113165466D01*
X142221485Y-113355942D01*
X142221485Y-113546419D01*
X143173866Y-113736895D01*
X141459580Y-114308323D02*
X141269104Y-114403561D01*
X140888152Y-114403561D01*
X140697676Y-114308323D01*
X140602438Y-114117847D01*
X140602438Y-114022609D01*
X140697676Y-113832133D01*
X140888152Y-113736895D01*
X141173866Y-113736895D01*
X141364342Y-113641657D01*
X141459580Y-113451180D01*
X141459580Y-113355942D01*
X141364342Y-113165466D01*
X141173866Y-113070228D01*
X140888152Y-113070228D01*
X140697676Y-113165466D01*
X139745295Y-114403561D02*
X139745295Y-112403561D01*
X138888152Y-114403561D02*
X138888152Y-113355942D01*
X138983390Y-113165466D01*
X139173866Y-113070228D01*
X139459580Y-113070228D01*
X139650057Y-113165466D01*
X139745295Y-113260704D01*
X154602438Y-117433085D02*
X154697676Y-117528323D01*
X154983390Y-117623561D01*
X155173866Y-117623561D01*
X155459580Y-117528323D01*
X155650057Y-117337847D01*
X155745295Y-117147371D01*
X155840533Y-116766419D01*
X155840533Y-116480704D01*
X155745295Y-116099752D01*
X155650057Y-115909276D01*
X155459580Y-115718800D01*
X155173866Y-115623561D01*
X154983390Y-115623561D01*
X154697676Y-115718800D01*
X154602438Y-115814038D01*
X153745295Y-117623561D02*
X153745295Y-115623561D01*
X152888152Y-117623561D02*
X152888152Y-116575942D01*
X152983390Y-116385466D01*
X153173866Y-116290228D01*
X153459580Y-116290228D01*
X153650057Y-116385466D01*
X153745295Y-116480704D01*
X151078628Y-117623561D02*
X151078628Y-116575942D01*
X151173866Y-116385466D01*
X151364342Y-116290228D01*
X151745295Y-116290228D01*
X151935771Y-116385466D01*
X151078628Y-117528323D02*
X151269104Y-117623561D01*
X151745295Y-117623561D01*
X151935771Y-117528323D01*
X152031009Y-117337847D01*
X152031009Y-117147371D01*
X151935771Y-116956895D01*
X151745295Y-116861657D01*
X151269104Y-116861657D01*
X151078628Y-116766419D01*
X150126247Y-117623561D02*
X150126247Y-116290228D01*
X150126247Y-116671180D02*
X150031009Y-116480704D01*
X149935771Y-116385466D01*
X149745295Y-116290228D01*
X149554819Y-116290228D01*
X148602438Y-117623561D02*
X148792914Y-117528323D01*
X148888152Y-117337847D01*
X148888152Y-115623561D01*
X147840533Y-117623561D02*
X147840533Y-116290228D01*
X147840533Y-115623561D02*
X147935771Y-115718800D01*
X147840533Y-115814038D01*
X147745295Y-115718800D01*
X147840533Y-115623561D01*
X147840533Y-115814038D01*
X146126247Y-117528323D02*
X146316723Y-117623561D01*
X146697676Y-117623561D01*
X146888152Y-117528323D01*
X146983390Y-117337847D01*
X146983390Y-116575942D01*
X146888152Y-116385466D01*
X146697676Y-116290228D01*
X146316723Y-116290228D01*
X146126247Y-116385466D01*
X146031009Y-116575942D01*
X146031009Y-116766419D01*
X146983390Y-116956895D01*
X142983390Y-116575942D02*
X142697676Y-116671180D01*
X142602438Y-116766419D01*
X142507200Y-116956895D01*
X142507200Y-117242609D01*
X142602438Y-117433085D01*
X142697676Y-117528323D01*
X142888152Y-117623561D01*
X143650057Y-117623561D01*
X143650057Y-115623561D01*
X142983390Y-115623561D01*
X142792914Y-115718800D01*
X142697676Y-115814038D01*
X142602438Y-116004514D01*
X142602438Y-116194990D01*
X142697676Y-116385466D01*
X142792914Y-116480704D01*
X142983390Y-116575942D01*
X143650057Y-116575942D01*
X140792914Y-117623561D02*
X140792914Y-116575942D01*
X140888152Y-116385466D01*
X141078628Y-116290228D01*
X141459580Y-116290228D01*
X141650057Y-116385466D01*
X140792914Y-117528323D02*
X140983390Y-117623561D01*
X141459580Y-117623561D01*
X141650057Y-117528323D01*
X141745295Y-117337847D01*
X141745295Y-117147371D01*
X141650057Y-116956895D01*
X141459580Y-116861657D01*
X140983390Y-116861657D01*
X140792914Y-116766419D01*
X139840533Y-117623561D02*
X139840533Y-115623561D01*
X139840533Y-116385466D02*
X139650057Y-116290228D01*
X139269104Y-116290228D01*
X139078628Y-116385466D01*
X138983390Y-116480704D01*
X138888152Y-116671180D01*
X138888152Y-117242609D01*
X138983390Y-117433085D01*
X139078628Y-117528323D01*
X139269104Y-117623561D01*
X139650057Y-117623561D01*
X139840533Y-117528323D01*
X137269104Y-117528323D02*
X137459580Y-117623561D01*
X137840533Y-117623561D01*
X138031009Y-117528323D01*
X138126247Y-117337847D01*
X138126247Y-116575942D01*
X138031009Y-116385466D01*
X137840533Y-116290228D01*
X137459580Y-116290228D01*
X137269104Y-116385466D01*
X137173866Y-116575942D01*
X137173866Y-116766419D01*
X138126247Y-116956895D01*
X154031009Y-118843561D02*
X154031009Y-120272133D01*
X154126247Y-120557847D01*
X154316723Y-120748323D01*
X154602438Y-120843561D01*
X154792914Y-120843561D01*
X153078628Y-120843561D02*
X153078628Y-119510228D01*
X153078628Y-118843561D02*
X153173866Y-118938800D01*
X153078628Y-119034038D01*
X152983390Y-118938800D01*
X153078628Y-118843561D01*
X153078628Y-119034038D01*
X151269104Y-120843561D02*
X151269104Y-119795942D01*
X151364342Y-119605466D01*
X151554819Y-119510228D01*
X151935771Y-119510228D01*
X152126247Y-119605466D01*
X151269104Y-120748323D02*
X151459580Y-120843561D01*
X151935771Y-120843561D01*
X152126247Y-120748323D01*
X152221485Y-120557847D01*
X152221485Y-120367371D01*
X152126247Y-120176895D01*
X151935771Y-120081657D01*
X151459580Y-120081657D01*
X151269104Y-119986419D01*
X150507200Y-119510228D02*
X150031009Y-120843561D01*
X149554819Y-119510228D02*
X150031009Y-120843561D01*
X150221485Y-121319752D01*
X150316723Y-121414990D01*
X150507200Y-121510228D01*
X147935771Y-119510228D02*
X147935771Y-120843561D01*
X148792914Y-119510228D02*
X148792914Y-120557847D01*
X148697676Y-120748323D01*
X148507200Y-120843561D01*
X148221485Y-120843561D01*
X148031009Y-120748323D01*
X147935771Y-120653085D01*
X146126247Y-120843561D02*
X146126247Y-119795942D01*
X146221485Y-119605466D01*
X146411961Y-119510228D01*
X146792914Y-119510228D01*
X146983390Y-119605466D01*
X146126247Y-120748323D02*
X146316723Y-120843561D01*
X146792914Y-120843561D01*
X146983390Y-120748323D01*
X147078628Y-120557847D01*
X147078628Y-120367371D01*
X146983390Y-120176895D01*
X146792914Y-120081657D01*
X146316723Y-120081657D01*
X146126247Y-119986419D01*
X145173866Y-119510228D02*
X145173866Y-120843561D01*
X145173866Y-119700704D02*
X145078628Y-119605466D01*
X144888152Y-119510228D01*
X144602438Y-119510228D01*
X144411961Y-119605466D01*
X144316723Y-119795942D01*
X144316723Y-120843561D01*
X140888152Y-120843561D02*
X141840533Y-120843561D01*
X141840533Y-118843561D01*
X140221485Y-120843561D02*
X140221485Y-119510228D01*
X140221485Y-118843561D02*
X140316723Y-118938800D01*
X140221485Y-119034038D01*
X140126247Y-118938800D01*
X140221485Y-118843561D01*
X140221485Y-119034038D01*
X138411961Y-119510228D02*
X138411961Y-120843561D01*
X139269104Y-119510228D02*
X139269104Y-120557847D01*
X139173866Y-120748323D01*
X138983390Y-120843561D01*
X138697676Y-120843561D01*
X138507200Y-120748323D01*
X138411961Y-120653085D01*
X152316723Y-124063561D02*
X153269104Y-124063561D01*
X153269104Y-122063561D01*
X151650057Y-124063561D02*
X151650057Y-122730228D01*
X151650057Y-122063561D02*
X151745295Y-122158800D01*
X151650057Y-122254038D01*
X151554819Y-122158800D01*
X151650057Y-122063561D01*
X151650057Y-122254038D01*
X150411961Y-124063561D02*
X150602438Y-123968323D01*
X150697676Y-123777847D01*
X150697676Y-122063561D01*
X149650057Y-124063561D02*
X149650057Y-122730228D01*
X149650057Y-122063561D02*
X149745295Y-122158800D01*
X149650057Y-122254038D01*
X149554819Y-122158800D01*
X149650057Y-122063561D01*
X149650057Y-122254038D01*
X146507200Y-123015942D02*
X146221485Y-123111180D01*
X146126247Y-123206419D01*
X146031009Y-123396895D01*
X146031009Y-123682609D01*
X146126247Y-123873085D01*
X146221485Y-123968323D01*
X146411961Y-124063561D01*
X147173866Y-124063561D01*
X147173866Y-122063561D01*
X146507200Y-122063561D01*
X146316723Y-122158800D01*
X146221485Y-122254038D01*
X146126247Y-122444514D01*
X146126247Y-122634990D01*
X146221485Y-122825466D01*
X146316723Y-122920704D01*
X146507200Y-123015942D01*
X147173866Y-123015942D01*
X144316723Y-124063561D02*
X144316723Y-123015942D01*
X144411961Y-122825466D01*
X144602438Y-122730228D01*
X144983390Y-122730228D01*
X145173866Y-122825466D01*
X144316723Y-123968323D02*
X144507200Y-124063561D01*
X144983390Y-124063561D01*
X145173866Y-123968323D01*
X145269104Y-123777847D01*
X145269104Y-123587371D01*
X145173866Y-123396895D01*
X144983390Y-123301657D01*
X144507200Y-123301657D01*
X144316723Y-123206419D01*
X143364342Y-124063561D02*
X143364342Y-122063561D01*
X143173866Y-123301657D02*
X142602438Y-124063561D01*
X142602438Y-122730228D02*
X143364342Y-123492133D01*
X140983390Y-123968323D02*
X141173866Y-124063561D01*
X141554819Y-124063561D01*
X141745295Y-123968323D01*
X141840533Y-123777847D01*
X141840533Y-123015942D01*
X141745295Y-122825466D01*
X141554819Y-122730228D01*
X141173866Y-122730228D01*
X140983390Y-122825466D01*
X140888152Y-123015942D01*
X140888152Y-123206419D01*
X141840533Y-123396895D01*
X140031009Y-124063561D02*
X140031009Y-122730228D01*
X140031009Y-123111180D02*
X139935771Y-122920704D01*
X139840533Y-122825466D01*
X139650057Y-122730228D01*
X139459580Y-122730228D01*
X156364342Y-127283561D02*
X157031009Y-126331180D01*
X157507200Y-127283561D02*
X157507200Y-125283561D01*
X156745295Y-125283561D01*
X156554819Y-125378800D01*
X156459580Y-125474038D01*
X156364342Y-125664514D01*
X156364342Y-125950228D01*
X156459580Y-126140704D01*
X156554819Y-126235942D01*
X156745295Y-126331180D01*
X157507200Y-126331180D01*
X155221485Y-127283561D02*
X155411961Y-127188323D01*
X155507200Y-127093085D01*
X155602438Y-126902609D01*
X155602438Y-126331180D01*
X155507200Y-126140704D01*
X155411961Y-126045466D01*
X155221485Y-125950228D01*
X154935771Y-125950228D01*
X154745295Y-126045466D01*
X154650057Y-126140704D01*
X154554819Y-126331180D01*
X154554819Y-126902609D01*
X154650057Y-127093085D01*
X154745295Y-127188323D01*
X154935771Y-127283561D01*
X155221485Y-127283561D01*
X153888152Y-125950228D02*
X153507200Y-127283561D01*
X153126247Y-126331180D01*
X152745295Y-127283561D01*
X152364342Y-125950228D01*
X150745295Y-127283561D02*
X150745295Y-126235942D01*
X150840533Y-126045466D01*
X151031009Y-125950228D01*
X151411961Y-125950228D01*
X151602438Y-126045466D01*
X150745295Y-127188323D02*
X150935771Y-127283561D01*
X151411961Y-127283561D01*
X151602438Y-127188323D01*
X151697676Y-126997847D01*
X151697676Y-126807371D01*
X151602438Y-126616895D01*
X151411961Y-126521657D01*
X150935771Y-126521657D01*
X150745295Y-126426419D01*
X149792914Y-125950228D02*
X149792914Y-127283561D01*
X149792914Y-126140704D02*
X149697676Y-126045466D01*
X149507200Y-125950228D01*
X149221485Y-125950228D01*
X149031009Y-126045466D01*
X148935771Y-126235942D01*
X148935771Y-127283561D01*
X145888152Y-125283561D02*
X145888152Y-126712133D01*
X145983390Y-126997847D01*
X146173866Y-127188323D01*
X146459580Y-127283561D01*
X146650057Y-127283561D01*
X144078628Y-127283561D02*
X144078628Y-126235942D01*
X144173866Y-126045466D01*
X144364342Y-125950228D01*
X144745295Y-125950228D01*
X144935771Y-126045466D01*
X144078628Y-127188323D02*
X144269104Y-127283561D01*
X144745295Y-127283561D01*
X144935771Y-127188323D01*
X145031009Y-126997847D01*
X145031009Y-126807371D01*
X144935771Y-126616895D01*
X144745295Y-126521657D01*
X144269104Y-126521657D01*
X144078628Y-126426419D01*
X143126247Y-125950228D02*
X143126247Y-127283561D01*
X143126247Y-126140704D02*
X143031009Y-126045466D01*
X142840533Y-125950228D01*
X142554819Y-125950228D01*
X142364342Y-126045466D01*
X142269104Y-126235942D01*
X142269104Y-127283561D01*
X141411961Y-127188323D02*
X141221485Y-127283561D01*
X140840533Y-127283561D01*
X140650057Y-127188323D01*
X140554819Y-126997847D01*
X140554819Y-126902609D01*
X140650057Y-126712133D01*
X140840533Y-126616895D01*
X141126247Y-126616895D01*
X141316723Y-126521657D01*
X141411961Y-126331180D01*
X141411961Y-126235942D01*
X141316723Y-126045466D01*
X141126247Y-125950228D01*
X140840533Y-125950228D01*
X140650057Y-126045466D01*
X138935771Y-127188323D02*
X139126247Y-127283561D01*
X139507200Y-127283561D01*
X139697676Y-127188323D01*
X139792914Y-126997847D01*
X139792914Y-126235942D01*
X139697676Y-126045466D01*
X139507200Y-125950228D01*
X139126247Y-125950228D01*
X138935771Y-126045466D01*
X138840533Y-126235942D01*
X138840533Y-126426419D01*
X139792914Y-126616895D01*
X137983390Y-125950228D02*
X137983390Y-127283561D01*
X137983390Y-126140704D02*
X137888152Y-126045466D01*
X137697676Y-125950228D01*
X137411961Y-125950228D01*
X137221485Y-126045466D01*
X137126247Y-126235942D01*
X137126247Y-127283561D01*
X136269104Y-127188323D02*
X136078628Y-127283561D01*
X135697676Y-127283561D01*
X135507200Y-127188323D01*
X135411961Y-126997847D01*
X135411961Y-126902609D01*
X135507200Y-126712133D01*
X135697676Y-126616895D01*
X135983390Y-126616895D01*
X136173866Y-126521657D01*
X136269104Y-126331180D01*
X136269104Y-126235942D01*
X136173866Y-126045466D01*
X135983390Y-125950228D01*
X135697676Y-125950228D01*
X135507200Y-126045466D01*
D11*
%TO.C,BT1*%
X150161428Y-104505142D02*
X149875714Y-104600380D01*
X149780476Y-104695619D01*
X149685238Y-104886095D01*
X149685238Y-105171809D01*
X149780476Y-105362285D01*
X149875714Y-105457523D01*
X150066190Y-105552761D01*
X150828095Y-105552761D01*
X150828095Y-103552761D01*
X150161428Y-103552761D01*
X149970952Y-103648000D01*
X149875714Y-103743238D01*
X149780476Y-103933714D01*
X149780476Y-104124190D01*
X149875714Y-104314666D01*
X149970952Y-104409904D01*
X150161428Y-104505142D01*
X150828095Y-104505142D01*
X149113809Y-103552761D02*
X147970952Y-103552761D01*
X148542380Y-105552761D02*
X148542380Y-103552761D01*
X146256666Y-105552761D02*
X147399523Y-105552761D01*
X146828095Y-105552761D02*
X146828095Y-103552761D01*
X147018571Y-103838476D01*
X147209047Y-104028952D01*
X147399523Y-104124190D01*
%TO.C,BT2*%
X158543428Y-104505142D02*
X158257714Y-104600380D01*
X158162476Y-104695619D01*
X158067238Y-104886095D01*
X158067238Y-105171809D01*
X158162476Y-105362285D01*
X158257714Y-105457523D01*
X158448190Y-105552761D01*
X159210095Y-105552761D01*
X159210095Y-103552761D01*
X158543428Y-103552761D01*
X158352952Y-103648000D01*
X158257714Y-103743238D01*
X158162476Y-103933714D01*
X158162476Y-104124190D01*
X158257714Y-104314666D01*
X158352952Y-104409904D01*
X158543428Y-104505142D01*
X159210095Y-104505142D01*
X157495809Y-103552761D02*
X156352952Y-103552761D01*
X156924380Y-105552761D02*
X156924380Y-103552761D01*
X155781523Y-103743238D02*
X155686285Y-103648000D01*
X155495809Y-103552761D01*
X155019619Y-103552761D01*
X154829142Y-103648000D01*
X154733904Y-103743238D01*
X154638666Y-103933714D01*
X154638666Y-104124190D01*
X154733904Y-104409904D01*
X155876761Y-105552761D01*
X154638666Y-105552761D01*
D10*
%TO.C,JP3*%
X144343333Y-64730380D02*
X144343333Y-65444666D01*
X144390952Y-65587523D01*
X144486190Y-65682761D01*
X144629047Y-65730380D01*
X144724285Y-65730380D01*
X143867142Y-65730380D02*
X143867142Y-64730380D01*
X143486190Y-64730380D01*
X143390952Y-64778000D01*
X143343333Y-64825619D01*
X143295714Y-64920857D01*
X143295714Y-65063714D01*
X143343333Y-65158952D01*
X143390952Y-65206571D01*
X143486190Y-65254190D01*
X143867142Y-65254190D01*
X142962380Y-64730380D02*
X142343333Y-64730380D01*
X142676666Y-65111333D01*
X142533809Y-65111333D01*
X142438571Y-65158952D01*
X142390952Y-65206571D01*
X142343333Y-65301809D01*
X142343333Y-65539904D01*
X142390952Y-65635142D01*
X142438571Y-65682761D01*
X142533809Y-65730380D01*
X142819523Y-65730380D01*
X142914761Y-65682761D01*
X142962380Y-65635142D01*
X147875523Y-63952380D02*
X147875523Y-62952380D01*
X147304095Y-63952380D01*
X147304095Y-62952380D01*
X146637428Y-62952380D02*
X146446952Y-62952380D01*
X146351714Y-63000000D01*
X146256476Y-63095238D01*
X146208857Y-63285714D01*
X146208857Y-63619047D01*
X146256476Y-63809523D01*
X146351714Y-63904761D01*
X146446952Y-63952380D01*
X146637428Y-63952380D01*
X146732666Y-63904761D01*
X146827904Y-63809523D01*
X146875523Y-63619047D01*
X146875523Y-63285714D01*
X146827904Y-63095238D01*
X146732666Y-63000000D01*
X146637428Y-62952380D01*
X140739714Y-63952380D02*
X140739714Y-62952380D01*
X140168285Y-63952380D01*
X140168285Y-62952380D01*
X139120666Y-63857142D02*
X139168285Y-63904761D01*
X139311142Y-63952380D01*
X139406380Y-63952380D01*
X139549238Y-63904761D01*
X139644476Y-63809523D01*
X139692095Y-63714285D01*
X139739714Y-63523809D01*
X139739714Y-63380952D01*
X139692095Y-63190476D01*
X139644476Y-63095238D01*
X139549238Y-63000000D01*
X139406380Y-62952380D01*
X139311142Y-62952380D01*
X139168285Y-63000000D01*
X139120666Y-63047619D01*
%TO.C,JP2*%
X144373333Y-75144380D02*
X144373333Y-75858666D01*
X144420952Y-76001523D01*
X144516190Y-76096761D01*
X144659047Y-76144380D01*
X144754285Y-76144380D01*
X143897142Y-76144380D02*
X143897142Y-75144380D01*
X143516190Y-75144380D01*
X143420952Y-75192000D01*
X143373333Y-75239619D01*
X143325714Y-75334857D01*
X143325714Y-75477714D01*
X143373333Y-75572952D01*
X143420952Y-75620571D01*
X143516190Y-75668190D01*
X143897142Y-75668190D01*
X142944761Y-75239619D02*
X142897142Y-75192000D01*
X142801904Y-75144380D01*
X142563809Y-75144380D01*
X142468571Y-75192000D01*
X142420952Y-75239619D01*
X142373333Y-75334857D01*
X142373333Y-75430095D01*
X142420952Y-75572952D01*
X142992380Y-76144380D01*
X142373333Y-76144380D01*
X147905523Y-74112380D02*
X147905523Y-73112380D01*
X147334095Y-74112380D01*
X147334095Y-73112380D01*
X146667428Y-73112380D02*
X146476952Y-73112380D01*
X146381714Y-73160000D01*
X146286476Y-73255238D01*
X146238857Y-73445714D01*
X146238857Y-73779047D01*
X146286476Y-73969523D01*
X146381714Y-74064761D01*
X146476952Y-74112380D01*
X146667428Y-74112380D01*
X146762666Y-74064761D01*
X146857904Y-73969523D01*
X146905523Y-73779047D01*
X146905523Y-73445714D01*
X146857904Y-73255238D01*
X146762666Y-73160000D01*
X146667428Y-73112380D01*
X140769714Y-74112380D02*
X140769714Y-73112380D01*
X140198285Y-74112380D01*
X140198285Y-73112380D01*
X139150666Y-74017142D02*
X139198285Y-74064761D01*
X139341142Y-74112380D01*
X139436380Y-74112380D01*
X139579238Y-74064761D01*
X139674476Y-73969523D01*
X139722095Y-73874285D01*
X139769714Y-73683809D01*
X139769714Y-73540952D01*
X139722095Y-73350476D01*
X139674476Y-73255238D01*
X139579238Y-73160000D01*
X139436380Y-73112380D01*
X139341142Y-73112380D01*
X139198285Y-73160000D01*
X139150666Y-73207619D01*
%TO.C,JP1*%
X144373333Y-85304380D02*
X144373333Y-86018666D01*
X144420952Y-86161523D01*
X144516190Y-86256761D01*
X144659047Y-86304380D01*
X144754285Y-86304380D01*
X143897142Y-86304380D02*
X143897142Y-85304380D01*
X143516190Y-85304380D01*
X143420952Y-85352000D01*
X143373333Y-85399619D01*
X143325714Y-85494857D01*
X143325714Y-85637714D01*
X143373333Y-85732952D01*
X143420952Y-85780571D01*
X143516190Y-85828190D01*
X143897142Y-85828190D01*
X142373333Y-86304380D02*
X142944761Y-86304380D01*
X142659047Y-86304380D02*
X142659047Y-85304380D01*
X142754285Y-85447238D01*
X142849523Y-85542476D01*
X142944761Y-85590095D01*
X140769714Y-84272380D02*
X140769714Y-83272380D01*
X140198285Y-84272380D01*
X140198285Y-83272380D01*
X139150666Y-84177142D02*
X139198285Y-84224761D01*
X139341142Y-84272380D01*
X139436380Y-84272380D01*
X139579238Y-84224761D01*
X139674476Y-84129523D01*
X139722095Y-84034285D01*
X139769714Y-83843809D01*
X139769714Y-83700952D01*
X139722095Y-83510476D01*
X139674476Y-83415238D01*
X139579238Y-83320000D01*
X139436380Y-83272380D01*
X139341142Y-83272380D01*
X139198285Y-83320000D01*
X139150666Y-83367619D01*
X147905523Y-84272380D02*
X147905523Y-83272380D01*
X147334095Y-84272380D01*
X147334095Y-83272380D01*
X146667428Y-83272380D02*
X146476952Y-83272380D01*
X146381714Y-83320000D01*
X146286476Y-83415238D01*
X146238857Y-83605714D01*
X146238857Y-83939047D01*
X146286476Y-84129523D01*
X146381714Y-84224761D01*
X146476952Y-84272380D01*
X146667428Y-84272380D01*
X146762666Y-84224761D01*
X146857904Y-84129523D01*
X146905523Y-83939047D01*
X146905523Y-83605714D01*
X146857904Y-83415238D01*
X146762666Y-83320000D01*
X146667428Y-83272380D01*
%TO.C,BT1*%
X149590000Y-96160000D02*
X147590000Y-96160000D01*
X149290000Y-98360000D02*
X149690000Y-98360000D01*
X151390000Y-98260000D02*
X151390000Y-99860000D01*
X150490000Y-94660000D02*
X151090000Y-94660000D01*
X147890000Y-99960000D02*
X147890000Y-98360000D01*
X149590000Y-100060000D02*
X149390000Y-100060000D01*
X147790000Y-100060000D02*
X147890000Y-99960000D01*
X149290000Y-98360000D02*
X147890000Y-98360000D01*
X149690000Y-99960000D02*
X149590000Y-100060000D01*
X150790000Y-95160000D02*
X150490000Y-94660000D01*
X149590000Y-96760000D02*
X147590000Y-96760000D01*
X149590000Y-96160000D02*
X149590000Y-96760000D01*
X149390000Y-100060000D02*
X149290000Y-99960000D01*
X151090000Y-94660000D02*
X150790000Y-95160000D01*
X145790000Y-98260000D02*
X145790000Y-99860000D01*
X149790000Y-102360000D02*
X149490000Y-102060000D01*
X147590000Y-100060000D02*
X147790000Y-100060000D01*
X147490000Y-99960000D02*
X147590000Y-100060000D01*
X149290000Y-99960000D02*
X149290000Y-98360000D01*
X149690000Y-98360000D02*
X149690000Y-99960000D01*
X147890000Y-98360000D02*
X147490000Y-98360000D01*
X147490000Y-98360000D02*
X147490000Y-99960000D01*
X149490000Y-102060000D02*
X149190000Y-102360000D01*
X147590000Y-96760000D02*
X147590000Y-96160000D01*
X147390000Y-102360000D02*
X149790000Y-102360000D01*
%TO.C,BT2*%
X159645000Y-98260000D02*
X159645000Y-99860000D01*
X158045000Y-102360000D02*
X157745000Y-102060000D01*
X157945000Y-99960000D02*
X157845000Y-100060000D01*
X157545000Y-99960000D02*
X157545000Y-98360000D01*
X159045000Y-95160000D02*
X158745000Y-94660000D01*
X157845000Y-96160000D02*
X157845000Y-96760000D01*
X157545000Y-98360000D02*
X157945000Y-98360000D01*
X156145000Y-99960000D02*
X156145000Y-98360000D01*
X154045000Y-98260000D02*
X154045000Y-99860000D01*
X156045000Y-100060000D02*
X156145000Y-99960000D01*
X157545000Y-98360000D02*
X156145000Y-98360000D01*
X157945000Y-98360000D02*
X157945000Y-99960000D01*
X157845000Y-96760000D02*
X155845000Y-96760000D01*
X157645000Y-100060000D02*
X157545000Y-99960000D01*
X155645000Y-102360000D02*
X158045000Y-102360000D01*
X155845000Y-96760000D02*
X155845000Y-96160000D01*
X157845000Y-96160000D02*
X155845000Y-96160000D01*
X155745000Y-99960000D02*
X155845000Y-100060000D01*
X155745000Y-98360000D02*
X155745000Y-99960000D01*
X157745000Y-102060000D02*
X157445000Y-102360000D01*
X157845000Y-100060000D02*
X157645000Y-100060000D01*
X158745000Y-94660000D02*
X159345000Y-94660000D01*
X155845000Y-100060000D02*
X156045000Y-100060000D01*
X156145000Y-98360000D02*
X155745000Y-98360000D01*
X159345000Y-94660000D02*
X159045000Y-95160000D01*
D12*
%TO.C,JP3*%
X145560000Y-64500000D02*
X145560000Y-62500000D01*
X141460000Y-64500000D02*
X145560000Y-64500000D01*
X145560000Y-62500000D02*
X141460000Y-62500000D01*
X141460000Y-62500000D02*
X141460000Y-64500000D01*
%TO.C,JP2*%
X141490000Y-74660000D02*
X145590000Y-74660000D01*
X141490000Y-72660000D02*
X141490000Y-74660000D01*
X145590000Y-74660000D02*
X145590000Y-72660000D01*
X145590000Y-72660000D02*
X141490000Y-72660000D01*
%TO.C,JP1*%
X145590000Y-84820000D02*
X145590000Y-82820000D01*
X141490000Y-82820000D02*
X141490000Y-84820000D01*
X145590000Y-82820000D02*
X141490000Y-82820000D01*
X141490000Y-84820000D02*
X145590000Y-84820000D01*
%TD*%
M02*
