%TF.GenerationSoftware,KiCad,Pcbnew,(6.0.7)*%
%TF.CreationDate,2023-03-08T23:55:29-05:00*%
%TF.ProjectId,CoreIO,436f7265-494f-42e6-9b69-6361645f7063,rev?*%
%TF.SameCoordinates,Original*%
%TF.FileFunction,Soldermask,Bot*%
%TF.FilePolarity,Negative*%
%FSLAX46Y46*%
G04 Gerber Fmt 4.6, Leading zero omitted, Abs format (unit mm)*
G04 Created by KiCad (PCBNEW (6.0.7)) date 2023-03-08 23:55:29*
%MOMM*%
%LPD*%
G01*
G04 APERTURE LIST*
G04 Aperture macros list*
%AMRoundRect*
0 Rectangle with rounded corners*
0 $1 Rounding radius*
0 $2 $3 $4 $5 $6 $7 $8 $9 X,Y pos of 4 corners*
0 Add a 4 corners polygon primitive as box body*
4,1,4,$2,$3,$4,$5,$6,$7,$8,$9,$2,$3,0*
0 Add four circle primitives for the rounded corners*
1,1,$1+$1,$2,$3*
1,1,$1+$1,$4,$5*
1,1,$1+$1,$6,$7*
1,1,$1+$1,$8,$9*
0 Add four rect primitives between the rounded corners*
20,1,$1+$1,$2,$3,$4,$5,0*
20,1,$1+$1,$4,$5,$6,$7,0*
20,1,$1+$1,$6,$7,$8,$9,0*
20,1,$1+$1,$8,$9,$2,$3,0*%
G04 Aperture macros list end*
%ADD10C,2.200000*%
%ADD11C,3.600000*%
%ADD12C,5.600000*%
%ADD13RoundRect,0.250000X0.350000X0.625000X-0.350000X0.625000X-0.350000X-0.625000X0.350000X-0.625000X0*%
%ADD14O,1.200000X1.750000*%
%ADD15R,1.800000X1.800000*%
%ADD16C,1.800000*%
%ADD17RoundRect,0.250000X0.625000X-0.350000X0.625000X0.350000X-0.625000X0.350000X-0.625000X-0.350000X0*%
%ADD18O,1.750000X1.200000*%
%ADD19R,1.000000X2.000000*%
%ADD20R,1.300000X2.100000*%
%ADD21R,1.000000X1.500000*%
G04 APERTURE END LIST*
D10*
%TO.C,REF\u002A\u002A*%
X156753325Y-81037739D03*
%TD*%
%TO.C,REF\u002A\u002A*%
X156755962Y-70875763D03*
%TD*%
%TO.C,REF\u002A\u002A*%
X156753659Y-60717410D03*
%TD*%
%TO.C,REF\u002A\u002A*%
X135163823Y-81035050D03*
%TD*%
%TO.C,*%
X135161627Y-70880976D03*
%TD*%
%TO.C,REF\u002A\u002A*%
X135166511Y-60714558D03*
%TD*%
D11*
%TO.C,H4*%
X128821044Y-136276378D03*
D12*
X128821044Y-136276378D03*
%TD*%
D13*
%TO.C,J2*%
X124190000Y-67220000D03*
D14*
X122190000Y-67220000D03*
%TD*%
D15*
%TO.C,S1*%
X151023176Y-81059176D03*
D16*
X145943176Y-81059176D03*
X140863176Y-81059176D03*
%TD*%
D17*
%TO.C,J1*%
X167780605Y-100981317D03*
D18*
X167780605Y-98981317D03*
X167780605Y-96981317D03*
X167780605Y-94981317D03*
X167780605Y-92981317D03*
X167780605Y-90981317D03*
X167780605Y-88981317D03*
%TD*%
D15*
%TO.C,S2*%
X151023058Y-70888941D03*
D16*
X145943058Y-70888941D03*
X140863058Y-70888941D03*
%TD*%
D11*
%TO.C,H3*%
X166909025Y-53739054D03*
D12*
X166909025Y-53739054D03*
%TD*%
D11*
%TO.C,H2*%
X166902698Y-136268782D03*
D12*
X166902698Y-136268782D03*
%TD*%
D16*
%TO.C,S3*%
X140899176Y-60762470D03*
X145979176Y-60762470D03*
D15*
X151059176Y-60762470D03*
%TD*%
D11*
%TO.C,H1*%
X128816000Y-53739054D03*
D12*
X128816000Y-53739054D03*
%TD*%
D19*
%TO.C,BT1*%
X150790000Y-101360000D03*
X146390000Y-101360000D03*
D20*
X150690000Y-96760000D03*
X146490000Y-96760000D03*
%TD*%
D19*
%TO.C,BT2*%
X154645000Y-101360000D03*
X159045000Y-101360000D03*
D20*
X158945000Y-96760000D03*
X154745000Y-96760000D03*
%TD*%
D21*
%TO.C,JP3*%
X144810000Y-63500000D03*
X143510000Y-63500000D03*
X142210000Y-63500000D03*
%TD*%
%TO.C,JP2*%
X144840000Y-73660000D03*
X143540000Y-73660000D03*
X142240000Y-73660000D03*
%TD*%
%TO.C,JP1*%
X144840000Y-83820000D03*
X143540000Y-83820000D03*
X142240000Y-83820000D03*
%TD*%
M02*
