M48
; DRILL file {KiCad (6.0.7)} date Wed Mar  8 10:43:39 2023
; FORMAT={-:-/ absolute / inch / decimal}
; #@! TF.CreationDate,2023-03-08T10:43:39-05:00
; #@! TF.GenerationSoftware,Kicad,Pcbnew,(6.0.7)
; #@! TF.FileFunction,MixedPlating,1,2
FMAT,2
INCH
; #@! TA.AperFunction,Plated,PTH,ViaDrill
T1C0.0157
; #@! TA.AperFunction,Plated,PTH,ComponentDrill
T2C0.0295
; #@! TA.AperFunction,Plated,PTH,ViaDrill
T3C0.0472
; #@! TA.AperFunction,Plated,PTH,ComponentDrill
T4C0.0472
; #@! TA.AperFunction,Plated,PTH,ViaDrill
T5C0.0591
; #@! TA.AperFunction,Plated,PTH,ComponentDrill
T6C0.1260
%
G90
G05
T1
X5.6Y-2.56
X5.95Y-2.475
X6.39Y-3.8123
X6.39Y-3.8675
X6.4Y-4.02
X6.41Y-3.1
X6.41Y-3.26
X6.44Y-3.61
X6.75Y-3.45
T2
X4.8106Y-2.6465
X4.8894Y-2.6465
X6.6055Y-3.5032
X6.6055Y-3.5819
X6.6055Y-3.6607
X6.6055Y-3.7394
X6.6055Y-3.8182
X6.6055Y-3.8969
X6.6055Y-3.9756
T3
X5.65Y-2.775
T4
X5.5458Y-2.7909
X5.5458Y-3.1913
X5.5472Y-2.3922
X5.7458Y-2.7909
X5.7458Y-3.1913
X5.7472Y-2.3922
X5.9458Y-2.7909
X5.9458Y-3.1913
X5.9472Y-2.3922
T5
X5.65Y-3.125
X5.8Y-3.7
X6.26Y-3.7
X6.77Y-4.59
X6.78Y-2.92
T6
X5.0715Y-2.1157
X5.0717Y-5.3652
X6.571Y-5.3649
X6.5712Y-2.1157
T0
M30
