%TF.GenerationSoftware,KiCad,Pcbnew,(6.0.7)*%
%TF.CreationDate,2023-03-08T10:43:33-05:00*%
%TF.ProjectId,CoreIO,436f7265-494f-42e6-9b69-6361645f7063,rev?*%
%TF.SameCoordinates,Original*%
%TF.FileFunction,Legend,Top*%
%TF.FilePolarity,Positive*%
%FSLAX46Y46*%
G04 Gerber Fmt 4.6, Leading zero omitted, Abs format (unit mm)*
G04 Created by KiCad (PCBNEW (6.0.7)) date 2023-03-08 10:43:33*
%MOMM*%
%LPD*%
G01*
G04 APERTURE LIST*
%ADD10C,0.300000*%
%ADD11C,0.150000*%
%ADD12C,0.120000*%
%ADD13C,0.127000*%
%ADD14C,0.200000*%
%ADD15C,0.254000*%
%ADD16C,0.010000*%
G04 APERTURE END LIST*
D10*
X121047142Y-59134285D02*
X120951904Y-59229523D01*
X120666190Y-59324761D01*
X120475714Y-59324761D01*
X120190000Y-59229523D01*
X119999523Y-59039047D01*
X119904285Y-58848571D01*
X119809047Y-58467619D01*
X119809047Y-58181904D01*
X119904285Y-57800952D01*
X119999523Y-57610476D01*
X120190000Y-57420000D01*
X120475714Y-57324761D01*
X120666190Y-57324761D01*
X120951904Y-57420000D01*
X121047142Y-57515238D01*
X122285238Y-57324761D02*
X122666190Y-57324761D01*
X122856666Y-57420000D01*
X123047142Y-57610476D01*
X123142380Y-57991428D01*
X123142380Y-58658095D01*
X123047142Y-59039047D01*
X122856666Y-59229523D01*
X122666190Y-59324761D01*
X122285238Y-59324761D01*
X122094761Y-59229523D01*
X121904285Y-59039047D01*
X121809047Y-58658095D01*
X121809047Y-57991428D01*
X121904285Y-57610476D01*
X122094761Y-57420000D01*
X122285238Y-57324761D01*
X123713809Y-57324761D02*
X124856666Y-57324761D01*
X124285238Y-59324761D02*
X124285238Y-57324761D01*
X125428095Y-59229523D02*
X125713809Y-59324761D01*
X126190000Y-59324761D01*
X126380476Y-59229523D01*
X126475714Y-59134285D01*
X126570952Y-58943809D01*
X126570952Y-58753333D01*
X126475714Y-58562857D01*
X126380476Y-58467619D01*
X126190000Y-58372380D01*
X125809047Y-58277142D01*
X125618571Y-58181904D01*
X125523333Y-58086666D01*
X125428095Y-57896190D01*
X125428095Y-57705714D01*
X125523333Y-57515238D01*
X125618571Y-57420000D01*
X125809047Y-57324761D01*
X126285238Y-57324761D01*
X126570952Y-57420000D01*
D11*
%TO.C,R8*%
X161377333Y-101036380D02*
X161044000Y-100560190D01*
X160805904Y-101036380D02*
X160805904Y-100036380D01*
X161186857Y-100036380D01*
X161282095Y-100084000D01*
X161329714Y-100131619D01*
X161377333Y-100226857D01*
X161377333Y-100369714D01*
X161329714Y-100464952D01*
X161282095Y-100512571D01*
X161186857Y-100560190D01*
X160805904Y-100560190D01*
X161948761Y-100464952D02*
X161853523Y-100417333D01*
X161805904Y-100369714D01*
X161758285Y-100274476D01*
X161758285Y-100226857D01*
X161805904Y-100131619D01*
X161853523Y-100084000D01*
X161948761Y-100036380D01*
X162139238Y-100036380D01*
X162234476Y-100084000D01*
X162282095Y-100131619D01*
X162329714Y-100226857D01*
X162329714Y-100274476D01*
X162282095Y-100369714D01*
X162234476Y-100417333D01*
X162139238Y-100464952D01*
X161948761Y-100464952D01*
X161853523Y-100512571D01*
X161805904Y-100560190D01*
X161758285Y-100655428D01*
X161758285Y-100845904D01*
X161805904Y-100941142D01*
X161853523Y-100988761D01*
X161948761Y-101036380D01*
X162139238Y-101036380D01*
X162234476Y-100988761D01*
X162282095Y-100941142D01*
X162329714Y-100845904D01*
X162329714Y-100655428D01*
X162282095Y-100560190D01*
X162234476Y-100512571D01*
X162139238Y-100464952D01*
%TO.C,Q2*%
X174537619Y-70707238D02*
X174490000Y-70802476D01*
X174394761Y-70897714D01*
X174251904Y-71040571D01*
X174204285Y-71135809D01*
X174204285Y-71231047D01*
X174442380Y-71183428D02*
X174394761Y-71278666D01*
X174299523Y-71373904D01*
X174109047Y-71421523D01*
X173775714Y-71421523D01*
X173585238Y-71373904D01*
X173490000Y-71278666D01*
X173442380Y-71183428D01*
X173442380Y-70992952D01*
X173490000Y-70897714D01*
X173585238Y-70802476D01*
X173775714Y-70754857D01*
X174109047Y-70754857D01*
X174299523Y-70802476D01*
X174394761Y-70897714D01*
X174442380Y-70992952D01*
X174442380Y-71183428D01*
X173537619Y-70373904D02*
X173490000Y-70326285D01*
X173442380Y-70231047D01*
X173442380Y-69992952D01*
X173490000Y-69897714D01*
X173537619Y-69850095D01*
X173632857Y-69802476D01*
X173728095Y-69802476D01*
X173870952Y-69850095D01*
X174442380Y-70421523D01*
X174442380Y-69802476D01*
%TO.C,J2*%
X122856666Y-69222380D02*
X122856666Y-69936666D01*
X122809047Y-70079523D01*
X122713809Y-70174761D01*
X122570952Y-70222380D01*
X122475714Y-70222380D01*
X123285238Y-69317619D02*
X123332857Y-69270000D01*
X123428095Y-69222380D01*
X123666190Y-69222380D01*
X123761428Y-69270000D01*
X123809047Y-69317619D01*
X123856666Y-69412857D01*
X123856666Y-69508095D01*
X123809047Y-69650952D01*
X123237619Y-70222380D01*
X123856666Y-70222380D01*
%TO.C,D1*%
X167550509Y-84526380D02*
X167550509Y-83526380D01*
X167788605Y-83526380D01*
X167931462Y-83574000D01*
X168026700Y-83669238D01*
X168074319Y-83764476D01*
X168121938Y-83954952D01*
X168121938Y-84097809D01*
X168074319Y-84288285D01*
X168026700Y-84383523D01*
X167931462Y-84478761D01*
X167788605Y-84526380D01*
X167550509Y-84526380D01*
X169074319Y-84526380D02*
X168502890Y-84526380D01*
X168788605Y-84526380D02*
X168788605Y-83526380D01*
X168693366Y-83669238D01*
X168598128Y-83764476D01*
X168502890Y-83812095D01*
%TO.C,S1*%
X147828095Y-80160761D02*
X147970952Y-80208380D01*
X148209047Y-80208380D01*
X148304285Y-80160761D01*
X148351904Y-80113142D01*
X148399523Y-80017904D01*
X148399523Y-79922666D01*
X148351904Y-79827428D01*
X148304285Y-79779809D01*
X148209047Y-79732190D01*
X148018571Y-79684571D01*
X147923333Y-79636952D01*
X147875714Y-79589333D01*
X147828095Y-79494095D01*
X147828095Y-79398857D01*
X147875714Y-79303619D01*
X147923333Y-79256000D01*
X148018571Y-79208380D01*
X148256666Y-79208380D01*
X148399523Y-79256000D01*
X149351904Y-80208380D02*
X148780476Y-80208380D01*
X149066190Y-80208380D02*
X149066190Y-79208380D01*
X148970952Y-79351238D01*
X148875714Y-79446476D01*
X148780476Y-79494095D01*
%TO.C,R6*%
X161377333Y-93416380D02*
X161044000Y-92940190D01*
X160805904Y-93416380D02*
X160805904Y-92416380D01*
X161186857Y-92416380D01*
X161282095Y-92464000D01*
X161329714Y-92511619D01*
X161377333Y-92606857D01*
X161377333Y-92749714D01*
X161329714Y-92844952D01*
X161282095Y-92892571D01*
X161186857Y-92940190D01*
X160805904Y-92940190D01*
X162234476Y-92416380D02*
X162044000Y-92416380D01*
X161948761Y-92464000D01*
X161901142Y-92511619D01*
X161805904Y-92654476D01*
X161758285Y-92844952D01*
X161758285Y-93225904D01*
X161805904Y-93321142D01*
X161853523Y-93368761D01*
X161948761Y-93416380D01*
X162139238Y-93416380D01*
X162234476Y-93368761D01*
X162282095Y-93321142D01*
X162329714Y-93225904D01*
X162329714Y-92987809D01*
X162282095Y-92892571D01*
X162234476Y-92844952D01*
X162139238Y-92797333D01*
X161948761Y-92797333D01*
X161853523Y-92844952D01*
X161805904Y-92892571D01*
X161758285Y-92987809D01*
%TO.C,R10*%
X160647142Y-104084380D02*
X160313809Y-103608190D01*
X160075714Y-104084380D02*
X160075714Y-103084380D01*
X160456666Y-103084380D01*
X160551904Y-103132000D01*
X160599523Y-103179619D01*
X160647142Y-103274857D01*
X160647142Y-103417714D01*
X160599523Y-103512952D01*
X160551904Y-103560571D01*
X160456666Y-103608190D01*
X160075714Y-103608190D01*
X161599523Y-104084380D02*
X161028095Y-104084380D01*
X161313809Y-104084380D02*
X161313809Y-103084380D01*
X161218571Y-103227238D01*
X161123333Y-103322476D01*
X161028095Y-103370095D01*
X162218571Y-103084380D02*
X162313809Y-103084380D01*
X162409047Y-103132000D01*
X162456666Y-103179619D01*
X162504285Y-103274857D01*
X162551904Y-103465333D01*
X162551904Y-103703428D01*
X162504285Y-103893904D01*
X162456666Y-103989142D01*
X162409047Y-104036761D01*
X162313809Y-104084380D01*
X162218571Y-104084380D01*
X162123333Y-104036761D01*
X162075714Y-103989142D01*
X162028095Y-103893904D01*
X161980476Y-103703428D01*
X161980476Y-103465333D01*
X162028095Y-103274857D01*
X162075714Y-103179619D01*
X162123333Y-103132000D01*
X162218571Y-103084380D01*
%TO.C,J3*%
X172386666Y-59142380D02*
X172386666Y-59856666D01*
X172339047Y-59999523D01*
X172243809Y-60094761D01*
X172100952Y-60142380D01*
X172005714Y-60142380D01*
X172767619Y-59142380D02*
X173386666Y-59142380D01*
X173053333Y-59523333D01*
X173196190Y-59523333D01*
X173291428Y-59570952D01*
X173339047Y-59618571D01*
X173386666Y-59713809D01*
X173386666Y-59951904D01*
X173339047Y-60047142D01*
X173291428Y-60094761D01*
X173196190Y-60142380D01*
X172910476Y-60142380D01*
X172815238Y-60094761D01*
X172767619Y-60047142D01*
%TO.C,J1*%
X168576666Y-103592380D02*
X168576666Y-104306666D01*
X168529047Y-104449523D01*
X168433809Y-104544761D01*
X168290952Y-104592380D01*
X168195714Y-104592380D01*
X169576666Y-104592380D02*
X169005238Y-104592380D01*
X169290952Y-104592380D02*
X169290952Y-103592380D01*
X169195714Y-103735238D01*
X169100476Y-103830476D01*
X169005238Y-103878095D01*
%TO.C,S2*%
X147574095Y-70000761D02*
X147716952Y-70048380D01*
X147955047Y-70048380D01*
X148050285Y-70000761D01*
X148097904Y-69953142D01*
X148145523Y-69857904D01*
X148145523Y-69762666D01*
X148097904Y-69667428D01*
X148050285Y-69619809D01*
X147955047Y-69572190D01*
X147764571Y-69524571D01*
X147669333Y-69476952D01*
X147621714Y-69429333D01*
X147574095Y-69334095D01*
X147574095Y-69238857D01*
X147621714Y-69143619D01*
X147669333Y-69096000D01*
X147764571Y-69048380D01*
X148002666Y-69048380D01*
X148145523Y-69096000D01*
X148526476Y-69143619D02*
X148574095Y-69096000D01*
X148669333Y-69048380D01*
X148907428Y-69048380D01*
X149002666Y-69096000D01*
X149050285Y-69143619D01*
X149097904Y-69238857D01*
X149097904Y-69334095D01*
X149050285Y-69476952D01*
X148478857Y-70048380D01*
X149097904Y-70048380D01*
D10*
%TO.C,*%
D11*
%TO.C,H3*%
X166147120Y-50391434D02*
X166147120Y-49391434D01*
X166147120Y-49867625D02*
X166718548Y-49867625D01*
X166718548Y-50391434D02*
X166718548Y-49391434D01*
X167099501Y-49391434D02*
X167718548Y-49391434D01*
X167385215Y-49772387D01*
X167528072Y-49772387D01*
X167623310Y-49820006D01*
X167670929Y-49867625D01*
X167718548Y-49962863D01*
X167718548Y-50200958D01*
X167670929Y-50296196D01*
X167623310Y-50343815D01*
X167528072Y-50391434D01*
X167242358Y-50391434D01*
X167147120Y-50343815D01*
X167099501Y-50296196D01*
%TO.C,J4*%
X172386666Y-128992380D02*
X172386666Y-129706666D01*
X172339047Y-129849523D01*
X172243809Y-129944761D01*
X172100952Y-129992380D01*
X172005714Y-129992380D01*
X173291428Y-129325714D02*
X173291428Y-129992380D01*
X173053333Y-128944761D02*
X172815238Y-129659047D01*
X173434285Y-129659047D01*
%TO.C,R11*%
X160647142Y-102560380D02*
X160313809Y-102084190D01*
X160075714Y-102560380D02*
X160075714Y-101560380D01*
X160456666Y-101560380D01*
X160551904Y-101608000D01*
X160599523Y-101655619D01*
X160647142Y-101750857D01*
X160647142Y-101893714D01*
X160599523Y-101988952D01*
X160551904Y-102036571D01*
X160456666Y-102084190D01*
X160075714Y-102084190D01*
X161599523Y-102560380D02*
X161028095Y-102560380D01*
X161313809Y-102560380D02*
X161313809Y-101560380D01*
X161218571Y-101703238D01*
X161123333Y-101798476D01*
X161028095Y-101846095D01*
X162551904Y-102560380D02*
X161980476Y-102560380D01*
X162266190Y-102560380D02*
X162266190Y-101560380D01*
X162170952Y-101703238D01*
X162075714Y-101798476D01*
X161980476Y-101846095D01*
%TO.C,R1*%
X171283333Y-84780380D02*
X170950000Y-84304190D01*
X170711904Y-84780380D02*
X170711904Y-83780380D01*
X171092857Y-83780380D01*
X171188095Y-83828000D01*
X171235714Y-83875619D01*
X171283333Y-83970857D01*
X171283333Y-84113714D01*
X171235714Y-84208952D01*
X171188095Y-84256571D01*
X171092857Y-84304190D01*
X170711904Y-84304190D01*
X172235714Y-84780380D02*
X171664285Y-84780380D01*
X171950000Y-84780380D02*
X171950000Y-83780380D01*
X171854761Y-83923238D01*
X171759523Y-84018476D01*
X171664285Y-84066095D01*
D10*
%TO.C,G\u002A\u002A\u002A*%
X145977428Y-110998000D02*
X145832285Y-110925428D01*
X145614571Y-110925428D01*
X145396857Y-110998000D01*
X145251714Y-111143142D01*
X145179142Y-111288285D01*
X145106571Y-111578571D01*
X145106571Y-111796285D01*
X145179142Y-112086571D01*
X145251714Y-112231714D01*
X145396857Y-112376857D01*
X145614571Y-112449428D01*
X145759714Y-112449428D01*
X145977428Y-112376857D01*
X146050000Y-112304285D01*
X146050000Y-111796285D01*
X145759714Y-111796285D01*
X146920857Y-110925428D02*
X146920857Y-111288285D01*
X146558000Y-111143142D02*
X146920857Y-111288285D01*
X147283714Y-111143142D01*
X146703142Y-111578571D02*
X146920857Y-111288285D01*
X147138571Y-111578571D01*
X148082000Y-110925428D02*
X148082000Y-111288285D01*
X147719142Y-111143142D02*
X148082000Y-111288285D01*
X148444857Y-111143142D01*
X147864285Y-111578571D02*
X148082000Y-111288285D01*
X148299714Y-111578571D01*
X149243142Y-110925428D02*
X149243142Y-111288285D01*
X148880285Y-111143142D02*
X149243142Y-111288285D01*
X149606000Y-111143142D01*
X149025428Y-111578571D02*
X149243142Y-111288285D01*
X149460857Y-111578571D01*
D11*
%TO.C,R2*%
X161377333Y-97988380D02*
X161044000Y-97512190D01*
X160805904Y-97988380D02*
X160805904Y-96988380D01*
X161186857Y-96988380D01*
X161282095Y-97036000D01*
X161329714Y-97083619D01*
X161377333Y-97178857D01*
X161377333Y-97321714D01*
X161329714Y-97416952D01*
X161282095Y-97464571D01*
X161186857Y-97512190D01*
X160805904Y-97512190D01*
X161758285Y-97083619D02*
X161805904Y-97036000D01*
X161901142Y-96988380D01*
X162139238Y-96988380D01*
X162234476Y-97036000D01*
X162282095Y-97083619D01*
X162329714Y-97178857D01*
X162329714Y-97274095D01*
X162282095Y-97416952D01*
X161710666Y-97988380D01*
X162329714Y-97988380D01*
%TO.C,Q1*%
X172251619Y-118967238D02*
X172204000Y-119062476D01*
X172108761Y-119157714D01*
X171965904Y-119300571D01*
X171918285Y-119395809D01*
X171918285Y-119491047D01*
X172156380Y-119443428D02*
X172108761Y-119538666D01*
X172013523Y-119633904D01*
X171823047Y-119681523D01*
X171489714Y-119681523D01*
X171299238Y-119633904D01*
X171204000Y-119538666D01*
X171156380Y-119443428D01*
X171156380Y-119252952D01*
X171204000Y-119157714D01*
X171299238Y-119062476D01*
X171489714Y-119014857D01*
X171823047Y-119014857D01*
X172013523Y-119062476D01*
X172108761Y-119157714D01*
X172156380Y-119252952D01*
X172156380Y-119443428D01*
X172156380Y-118062476D02*
X172156380Y-118633904D01*
X172156380Y-118348190D02*
X171156380Y-118348190D01*
X171299238Y-118443428D01*
X171394476Y-118538666D01*
X171442095Y-118633904D01*
%TO.C,R5*%
X161377333Y-96464380D02*
X161044000Y-95988190D01*
X160805904Y-96464380D02*
X160805904Y-95464380D01*
X161186857Y-95464380D01*
X161282095Y-95512000D01*
X161329714Y-95559619D01*
X161377333Y-95654857D01*
X161377333Y-95797714D01*
X161329714Y-95892952D01*
X161282095Y-95940571D01*
X161186857Y-95988190D01*
X160805904Y-95988190D01*
X162282095Y-95464380D02*
X161805904Y-95464380D01*
X161758285Y-95940571D01*
X161805904Y-95892952D01*
X161901142Y-95845333D01*
X162139238Y-95845333D01*
X162234476Y-95892952D01*
X162282095Y-95940571D01*
X162329714Y-96035809D01*
X162329714Y-96273904D01*
X162282095Y-96369142D01*
X162234476Y-96416761D01*
X162139238Y-96464380D01*
X161901142Y-96464380D01*
X161805904Y-96416761D01*
X161758285Y-96369142D01*
D10*
%TO.C,*%
D11*
%TO.C,R9*%
X161377333Y-94940380D02*
X161044000Y-94464190D01*
X160805904Y-94940380D02*
X160805904Y-93940380D01*
X161186857Y-93940380D01*
X161282095Y-93988000D01*
X161329714Y-94035619D01*
X161377333Y-94130857D01*
X161377333Y-94273714D01*
X161329714Y-94368952D01*
X161282095Y-94416571D01*
X161186857Y-94464190D01*
X160805904Y-94464190D01*
X161853523Y-94940380D02*
X162044000Y-94940380D01*
X162139238Y-94892761D01*
X162186857Y-94845142D01*
X162282095Y-94702285D01*
X162329714Y-94511809D01*
X162329714Y-94130857D01*
X162282095Y-94035619D01*
X162234476Y-93988000D01*
X162139238Y-93940380D01*
X161948761Y-93940380D01*
X161853523Y-93988000D01*
X161805904Y-94035619D01*
X161758285Y-94130857D01*
X161758285Y-94368952D01*
X161805904Y-94464190D01*
X161853523Y-94511809D01*
X161948761Y-94559428D01*
X162139238Y-94559428D01*
X162234476Y-94511809D01*
X162282095Y-94464190D01*
X162329714Y-94368952D01*
%TO.C,S3*%
X147828095Y-59840761D02*
X147970952Y-59888380D01*
X148209047Y-59888380D01*
X148304285Y-59840761D01*
X148351904Y-59793142D01*
X148399523Y-59697904D01*
X148399523Y-59602666D01*
X148351904Y-59507428D01*
X148304285Y-59459809D01*
X148209047Y-59412190D01*
X148018571Y-59364571D01*
X147923333Y-59316952D01*
X147875714Y-59269333D01*
X147828095Y-59174095D01*
X147828095Y-59078857D01*
X147875714Y-58983619D01*
X147923333Y-58936000D01*
X148018571Y-58888380D01*
X148256666Y-58888380D01*
X148399523Y-58936000D01*
X148732857Y-58888380D02*
X149351904Y-58888380D01*
X149018571Y-59269333D01*
X149161428Y-59269333D01*
X149256666Y-59316952D01*
X149304285Y-59364571D01*
X149351904Y-59459809D01*
X149351904Y-59697904D01*
X149304285Y-59793142D01*
X149256666Y-59840761D01*
X149161428Y-59888380D01*
X148875714Y-59888380D01*
X148780476Y-59840761D01*
X148732857Y-59793142D01*
%TO.C,D2*%
X147851904Y-89352380D02*
X147851904Y-88352380D01*
X148090000Y-88352380D01*
X148232857Y-88400000D01*
X148328095Y-88495238D01*
X148375714Y-88590476D01*
X148423333Y-88780952D01*
X148423333Y-88923809D01*
X148375714Y-89114285D01*
X148328095Y-89209523D01*
X148232857Y-89304761D01*
X148090000Y-89352380D01*
X147851904Y-89352380D01*
X148804285Y-88447619D02*
X148851904Y-88400000D01*
X148947142Y-88352380D01*
X149185238Y-88352380D01*
X149280476Y-88400000D01*
X149328095Y-88447619D01*
X149375714Y-88542857D01*
X149375714Y-88638095D01*
X149328095Y-88780952D01*
X148756666Y-89352380D01*
X149375714Y-89352380D01*
%TO.C,R7*%
X161377333Y-99512380D02*
X161044000Y-99036190D01*
X160805904Y-99512380D02*
X160805904Y-98512380D01*
X161186857Y-98512380D01*
X161282095Y-98560000D01*
X161329714Y-98607619D01*
X161377333Y-98702857D01*
X161377333Y-98845714D01*
X161329714Y-98940952D01*
X161282095Y-98988571D01*
X161186857Y-99036190D01*
X160805904Y-99036190D01*
X161710666Y-98512380D02*
X162377333Y-98512380D01*
X161948761Y-99512380D01*
%TO.C,D3*%
X156233904Y-89352380D02*
X156233904Y-88352380D01*
X156472000Y-88352380D01*
X156614857Y-88400000D01*
X156710095Y-88495238D01*
X156757714Y-88590476D01*
X156805333Y-88780952D01*
X156805333Y-88923809D01*
X156757714Y-89114285D01*
X156710095Y-89209523D01*
X156614857Y-89304761D01*
X156472000Y-89352380D01*
X156233904Y-89352380D01*
X157138666Y-88352380D02*
X157757714Y-88352380D01*
X157424380Y-88733333D01*
X157567238Y-88733333D01*
X157662476Y-88780952D01*
X157710095Y-88828571D01*
X157757714Y-88923809D01*
X157757714Y-89161904D01*
X157710095Y-89257142D01*
X157662476Y-89304761D01*
X157567238Y-89352380D01*
X157281523Y-89352380D01*
X157186285Y-89304761D01*
X157138666Y-89257142D01*
D12*
%TO.C,R8*%
X164512258Y-101106500D02*
X164037742Y-101106500D01*
X164512258Y-100061500D02*
X164037742Y-100061500D01*
D13*
%TO.C,Q2*%
X169646000Y-70220000D02*
X169646000Y-72020000D01*
X172746000Y-72020000D02*
X172746000Y-70220000D01*
D14*
X170346000Y-73430000D02*
G75*
G03*
X170346000Y-73430000I-100000J0D01*
G01*
D12*
%TO.C,J2*%
X121050000Y-67080000D02*
X121330000Y-67080000D01*
X124490000Y-64720000D02*
X125490000Y-64720000D01*
X124490000Y-63120000D02*
X124490000Y-60860000D01*
X121050000Y-68680000D02*
X121050000Y-67080000D01*
X125050000Y-67080000D02*
X125050000Y-68295000D01*
X124490000Y-63120000D02*
X124490000Y-64720000D01*
X123690000Y-65220000D02*
X122690000Y-65220000D01*
X122690000Y-65220000D02*
X122690000Y-60860000D01*
X125330000Y-67080000D02*
X125330000Y-68680000D01*
X126250000Y-67080000D02*
X125330000Y-67080000D01*
X126250000Y-68680000D02*
X126250000Y-60860000D01*
X124990000Y-63120000D02*
X124990000Y-60860000D01*
X120130000Y-60860000D02*
X120130000Y-68680000D01*
X120890000Y-63120000D02*
X121890000Y-63120000D01*
X121890000Y-63120000D02*
X121890000Y-64720000D01*
X125050000Y-67080000D02*
X125330000Y-67080000D01*
X126250000Y-60860000D02*
X120130000Y-60860000D01*
X120130000Y-67080000D02*
X121050000Y-67080000D01*
X125490000Y-63120000D02*
X124490000Y-63120000D01*
X121890000Y-64720000D02*
X120890000Y-64720000D01*
X123690000Y-60860000D02*
X123690000Y-65220000D01*
X125490000Y-64720000D02*
X125490000Y-63120000D01*
X120890000Y-64720000D02*
X120890000Y-63120000D01*
X120130000Y-68680000D02*
X121050000Y-68680000D01*
X125330000Y-68680000D02*
X126250000Y-68680000D01*
%TO.C,D1*%
X169773605Y-86460000D02*
X169773605Y-84990000D01*
X167488605Y-86460000D02*
X169773605Y-86460000D01*
X169773605Y-84990000D02*
X167488605Y-84990000D01*
D13*
%TO.C,S1*%
X152343176Y-78159176D02*
X152343176Y-83959176D01*
X139543176Y-78159176D02*
X152343176Y-78159176D01*
X139543176Y-83959176D02*
X139543176Y-78159176D01*
X152343176Y-83959176D02*
X139543176Y-83959176D01*
D14*
X153443176Y-80959176D02*
G75*
G03*
X153443176Y-80959176I-100000J0D01*
G01*
D12*
%TO.C,R6*%
X164512258Y-92441500D02*
X164037742Y-92441500D01*
X164512258Y-93486500D02*
X164037742Y-93486500D01*
%TO.C,R10*%
X164037742Y-104154500D02*
X164512258Y-104154500D01*
X164037742Y-103109500D02*
X164512258Y-103109500D01*
D11*
%TO.C,J3*%
X172020000Y-65470000D02*
X171620000Y-65470000D01*
X173720000Y-67070000D02*
X171720000Y-67070000D01*
X171920000Y-63770000D02*
X172020000Y-63870000D01*
X171620000Y-63870000D02*
X171720000Y-63770000D01*
X173620000Y-61770000D02*
X173320000Y-61470000D01*
X173820000Y-65470000D02*
X173820000Y-63870000D01*
X173420000Y-65470000D02*
X173820000Y-65470000D01*
X172020000Y-63870000D02*
X172020000Y-65470000D01*
X171720000Y-67070000D02*
X171720000Y-67670000D01*
X173820000Y-63870000D02*
X173720000Y-63770000D01*
X171520000Y-61470000D02*
X173920000Y-61470000D01*
X171620000Y-65470000D02*
X171620000Y-63870000D01*
X173520000Y-63770000D02*
X173420000Y-63870000D01*
X171720000Y-63770000D02*
X171920000Y-63770000D01*
X173420000Y-63870000D02*
X173420000Y-65470000D01*
X173420000Y-65470000D02*
X172020000Y-65470000D01*
X174920000Y-68670000D02*
X174620000Y-69170000D01*
X169920000Y-65570000D02*
X169920000Y-63970000D01*
X173720000Y-67670000D02*
X173720000Y-67070000D01*
X175520000Y-65570000D02*
X175520000Y-63970000D01*
X174620000Y-69170000D02*
X175220000Y-69170000D01*
X173720000Y-63770000D02*
X173520000Y-63770000D01*
X175220000Y-69170000D02*
X174920000Y-68670000D01*
X173920000Y-61470000D02*
X173620000Y-61770000D01*
X173720000Y-67670000D02*
X171720000Y-67670000D01*
D12*
%TO.C,J1*%
X170280605Y-101281317D02*
X170280605Y-102281317D01*
X166320605Y-86921317D02*
X166320605Y-87841317D01*
X171880605Y-101781317D02*
X174140605Y-101781317D01*
X174140605Y-86921317D02*
X166320605Y-86921317D01*
X170280605Y-102281317D02*
X171880605Y-102281317D01*
X171880605Y-88681317D02*
X170280605Y-88681317D01*
X174140605Y-100481317D02*
X169780605Y-100481317D01*
X174140605Y-103041317D02*
X174140605Y-86921317D01*
X167920605Y-87841317D02*
X167920605Y-88121317D01*
X166320605Y-102121317D02*
X166320605Y-103041317D01*
X167920605Y-101841317D02*
X167920605Y-102121317D01*
X169780605Y-89481317D02*
X174140605Y-89481317D01*
X171880605Y-101281317D02*
X174140605Y-101281317D01*
X167920605Y-86921317D02*
X167920605Y-87841317D01*
X167920605Y-103041317D02*
X167920605Y-102121317D01*
X171880605Y-87681317D02*
X171880605Y-88681317D01*
X167920605Y-102121317D02*
X166320605Y-102121317D01*
X167920605Y-101841317D02*
X166705605Y-101841317D01*
X170280605Y-88681317D02*
X170280605Y-87681317D01*
X171880605Y-102281317D02*
X171880605Y-101281317D01*
X170280605Y-87681317D02*
X171880605Y-87681317D01*
X169780605Y-100481317D02*
X169780605Y-89481317D01*
X166320605Y-87841317D02*
X167920605Y-87841317D01*
X171880605Y-101281317D02*
X170280605Y-101281317D01*
X166320605Y-103041317D02*
X174140605Y-103041317D01*
D13*
%TO.C,S2*%
X152343058Y-67988941D02*
X152343058Y-73788941D01*
X152343058Y-73788941D02*
X139543058Y-73788941D01*
X139543058Y-67988941D02*
X152343058Y-67988941D01*
X139543058Y-73788941D02*
X139543058Y-67988941D01*
D14*
X153443058Y-70788941D02*
G75*
G03*
X153443058Y-70788941I-100000J0D01*
G01*
%TO.C,*%
G36*
X142108686Y-133070925D02*
G01*
X142193097Y-133152846D01*
X142241514Y-133266297D01*
X142251373Y-133426202D01*
X142220110Y-133647485D01*
X142145160Y-133945071D01*
X142023961Y-134333884D01*
X141853948Y-134828849D01*
X141762667Y-135085085D01*
X141597102Y-135544827D01*
X141469784Y-135890737D01*
X141372618Y-136139011D01*
X141297507Y-136305849D01*
X141236355Y-136407448D01*
X141181066Y-136460007D01*
X141123543Y-136479725D01*
X141064077Y-136482775D01*
X140928301Y-136467805D01*
X140900594Y-136406419D01*
X140913955Y-136362799D01*
X141098986Y-135878372D01*
X141276755Y-135395119D01*
X141440804Y-134932315D01*
X141584673Y-134509238D01*
X141701904Y-134145161D01*
X141786040Y-133859361D01*
X141830620Y-133671113D01*
X141835600Y-133612146D01*
X141766128Y-133415096D01*
X141624800Y-133334384D01*
X141421730Y-133375274D01*
X141400101Y-133385427D01*
X141281120Y-133454938D01*
X141175221Y-133548880D01*
X141073369Y-133684212D01*
X140966531Y-133877893D01*
X140845672Y-134146883D01*
X140701760Y-134508141D01*
X140525760Y-134978626D01*
X140469241Y-135132953D01*
X140321790Y-135531649D01*
X140187263Y-135885695D01*
X140073721Y-136174644D01*
X139989227Y-136378051D01*
X139941845Y-136475470D01*
X139938022Y-136480054D01*
X139828541Y-136508372D01*
X139760049Y-136501118D01*
X139658352Y-136455760D01*
X139640517Y-136426760D01*
X139663583Y-136351768D01*
X139727853Y-136164984D01*
X139826998Y-135884219D01*
X139954688Y-135527281D01*
X140104596Y-135111981D01*
X140245800Y-134723533D01*
X140430822Y-134217544D01*
X140576154Y-133826367D01*
X140688974Y-133534969D01*
X140776461Y-133328318D01*
X140845794Y-133191383D01*
X140904151Y-133109132D01*
X140958713Y-133066533D01*
X141016657Y-133048555D01*
X141047789Y-133044255D01*
X141185782Y-133044683D01*
X141214534Y-133098787D01*
X141207988Y-133119909D01*
X141210429Y-133169733D01*
X141295102Y-133150312D01*
X141420152Y-133090899D01*
X141697312Y-132983491D01*
X141921773Y-132981884D01*
X142108686Y-133070925D01*
G37*
G36*
X139156109Y-131677560D02*
G01*
X139133241Y-131748586D01*
X139068497Y-131933101D01*
X138967661Y-132215042D01*
X138836520Y-132578342D01*
X138680859Y-133006939D01*
X138506463Y-133484768D01*
X138431380Y-133689836D01*
X138249576Y-134192340D01*
X138084471Y-134660994D01*
X137941996Y-135077980D01*
X137828081Y-135425480D01*
X137748657Y-135685676D01*
X137709656Y-135840750D01*
X137706652Y-135867138D01*
X137736256Y-136024610D01*
X137848709Y-136101413D01*
X137883323Y-136111169D01*
X138013209Y-136178035D01*
X138021367Y-136256172D01*
X137986165Y-136385262D01*
X137982739Y-136420211D01*
X137925907Y-136472091D01*
X137787883Y-136481254D01*
X137617373Y-136451697D01*
X137463082Y-136387420D01*
X137445923Y-136376141D01*
X137330846Y-136243099D01*
X137295583Y-136037981D01*
X137295638Y-136013777D01*
X137320125Y-135882203D01*
X137388332Y-135637919D01*
X137494941Y-135297250D01*
X137634632Y-134876525D01*
X137802087Y-134392072D01*
X137991987Y-133860217D01*
X138041996Y-133722718D01*
X138249833Y-133154674D01*
X138416943Y-132703001D01*
X138549412Y-132354210D01*
X138653330Y-132094808D01*
X138734785Y-131911304D01*
X138799863Y-131790209D01*
X138854653Y-131718030D01*
X138905242Y-131681276D01*
X138957719Y-131666458D01*
X138970672Y-131664736D01*
X139105960Y-131659820D01*
X139156109Y-131677560D01*
G37*
G36*
X134734945Y-135428500D02*
G01*
X134833752Y-135086799D01*
X134974572Y-134658710D01*
X135143547Y-134181357D01*
X135326819Y-133691864D01*
X135510529Y-133227355D01*
X135680818Y-132824954D01*
X135809750Y-132549348D01*
X136005646Y-132202171D01*
X136199671Y-131958538D01*
X136420961Y-131787478D01*
X136618285Y-131689871D01*
X136978020Y-131590271D01*
X137287803Y-131601971D01*
X137532088Y-131714988D01*
X137695332Y-131919338D01*
X137761988Y-132205039D01*
X137748468Y-132415686D01*
X137704249Y-132601486D01*
X137618338Y-132888500D01*
X137500309Y-133249767D01*
X137359739Y-133658330D01*
X137206202Y-134087231D01*
X137049273Y-134509512D01*
X136898528Y-134898215D01*
X136763540Y-135226381D01*
X136695962Y-135378963D01*
X136558504Y-135651549D01*
X136413200Y-135898891D01*
X136288117Y-136073834D01*
X136271097Y-136092757D01*
X135979718Y-136332530D01*
X135657581Y-136486914D01*
X135334748Y-136549032D01*
X135041282Y-136512009D01*
X134859315Y-136415657D01*
X134720906Y-136272737D01*
X134651739Y-136098918D01*
X134648193Y-135865444D01*
X134660936Y-135795268D01*
X135015036Y-135795268D01*
X135052553Y-135929113D01*
X135122251Y-136054099D01*
X135287314Y-136180727D01*
X135513178Y-136195314D01*
X135779280Y-136097337D01*
X135823026Y-136071907D01*
X135998389Y-135920649D01*
X136155192Y-135715140D01*
X136183679Y-135664136D01*
X136309854Y-135395411D01*
X136456569Y-135048470D01*
X136615395Y-134647109D01*
X136777905Y-134215122D01*
X136935671Y-133776307D01*
X137080264Y-133354458D01*
X137203257Y-132973371D01*
X137296221Y-132656841D01*
X137350728Y-132428664D01*
X137361543Y-132338599D01*
X137303660Y-132121604D01*
X137147913Y-131984250D01*
X136921161Y-131947010D01*
X136858731Y-131955324D01*
X136641475Y-132036686D01*
X136442738Y-132204197D01*
X136250192Y-132472790D01*
X136051510Y-132857396D01*
X135978502Y-133021574D01*
X135867183Y-133292731D01*
X135737203Y-133629916D01*
X135597018Y-134008789D01*
X135455083Y-134405010D01*
X135319850Y-134794242D01*
X135199776Y-135152145D01*
X135103313Y-135454379D01*
X135038917Y-135676607D01*
X135015042Y-135794488D01*
X135015036Y-135795268D01*
X134660936Y-135795268D01*
X134706643Y-135543556D01*
X134734945Y-135428500D01*
G37*
G36*
X160126355Y-133002521D02*
G01*
X160138717Y-133031554D01*
X160078522Y-133230158D01*
X159921190Y-133353794D01*
X159790167Y-133377609D01*
X159554856Y-133444559D01*
X159340859Y-133601930D01*
X159248165Y-133699502D01*
X159160233Y-133824554D01*
X159067828Y-133996685D01*
X158961713Y-134235494D01*
X158832655Y-134560578D01*
X158671416Y-134991537D01*
X158620244Y-135131114D01*
X158472398Y-135530713D01*
X158337692Y-135885645D01*
X158224130Y-136175542D01*
X158139721Y-136380042D01*
X158092469Y-136478778D01*
X158088419Y-136483843D01*
X157984977Y-136505505D01*
X157887962Y-136490393D01*
X157846033Y-136472700D01*
X157821287Y-136437595D01*
X157817794Y-136370190D01*
X157839622Y-136255595D01*
X157890842Y-136078919D01*
X157975522Y-135825272D01*
X158097732Y-135479765D01*
X158261541Y-135027507D01*
X158366124Y-134740788D01*
X158554450Y-134226312D01*
X158702728Y-133827047D01*
X158817892Y-133528405D01*
X158906879Y-133315797D01*
X158976623Y-133174633D01*
X159034060Y-133090323D01*
X159086127Y-133048279D01*
X159139757Y-133033910D01*
X159178217Y-133032500D01*
X159310624Y-133049648D01*
X159339532Y-133122528D01*
X159327856Y-133180484D01*
X159289158Y-133328467D01*
X159489617Y-133185921D01*
X159671288Y-133082670D01*
X159863598Y-133011591D01*
X160028102Y-132981827D01*
X160126355Y-133002521D01*
G37*
G36*
X154520765Y-133926913D02*
G01*
X154715648Y-133581022D01*
X154911334Y-133330178D01*
X154988987Y-133255507D01*
X155253841Y-133083884D01*
X155542524Y-132994298D01*
X155823727Y-132985911D01*
X156066143Y-133057883D01*
X156238463Y-133209375D01*
X156280009Y-133290094D01*
X156305371Y-133489634D01*
X156276034Y-133777727D01*
X156198529Y-134119204D01*
X156079390Y-134478898D01*
X156041825Y-134572438D01*
X155937495Y-134822136D01*
X154519111Y-134861576D01*
X154359452Y-135371826D01*
X154268655Y-135704336D01*
X154242321Y-135933583D01*
X154282696Y-136079531D01*
X154392022Y-136162145D01*
X154450364Y-136180648D01*
X154699656Y-136177234D01*
X154944407Y-136061371D01*
X155143600Y-135853747D01*
X155164340Y-135820536D01*
X155302802Y-135646649D01*
X155457146Y-135586902D01*
X155477422Y-135586305D01*
X155606078Y-135595334D01*
X155642698Y-135644374D01*
X155597012Y-135766349D01*
X155554934Y-135848564D01*
X155376519Y-136098790D01*
X155134651Y-136324203D01*
X154884240Y-136474148D01*
X154871316Y-136479196D01*
X154591647Y-136542476D01*
X154303008Y-136540552D01*
X154063547Y-136475725D01*
X154011140Y-136445163D01*
X153894950Y-136291420D01*
X153856071Y-136043322D01*
X153894844Y-135695431D01*
X154011614Y-135242309D01*
X154104736Y-134959081D01*
X154310233Y-134406623D01*
X154702006Y-134406623D01*
X154725841Y-134502491D01*
X154842654Y-134540053D01*
X155063728Y-134541454D01*
X155186408Y-134536747D01*
X155686815Y-134516468D01*
X155815373Y-134120737D01*
X155898220Y-133773254D01*
X155887843Y-133526067D01*
X155783967Y-133377410D01*
X155693198Y-133338533D01*
X155448019Y-133344237D01*
X155214161Y-133481978D01*
X154999458Y-133745793D01*
X154888130Y-133951391D01*
X154759864Y-134230305D01*
X154702006Y-134406623D01*
X154310233Y-134406623D01*
X154319518Y-134381662D01*
X154520765Y-133926913D01*
G37*
G36*
X146788067Y-135128820D02*
G01*
X146827464Y-135010680D01*
X147060400Y-134386949D01*
X147289620Y-133891143D01*
X147522174Y-133513565D01*
X147765110Y-133244515D01*
X148025479Y-133074298D01*
X148292107Y-132995789D01*
X148623793Y-132991254D01*
X148866317Y-133089143D01*
X149016549Y-133287886D01*
X149044732Y-133372958D01*
X149054269Y-133595700D01*
X149003552Y-133909137D01*
X148903473Y-134285668D01*
X148764923Y-134697689D01*
X148598794Y-135117598D01*
X148415976Y-135517793D01*
X148227361Y-135870672D01*
X148043841Y-136148632D01*
X147881948Y-136319839D01*
X147625335Y-136458432D01*
X147328391Y-136533962D01*
X147038582Y-136540896D01*
X146803371Y-136473703D01*
X146765755Y-136449946D01*
X146645151Y-136278056D01*
X146608732Y-135999078D01*
X146624211Y-135874445D01*
X146979050Y-135874445D01*
X146993349Y-135985707D01*
X147011961Y-136034799D01*
X147139527Y-136178415D01*
X147324321Y-136213196D01*
X147540995Y-136140928D01*
X147744960Y-135983180D01*
X147881164Y-135801644D01*
X148032922Y-135527271D01*
X148189289Y-135189560D01*
X148339321Y-134818009D01*
X148472072Y-134442117D01*
X148576599Y-134091383D01*
X148641957Y-133795305D01*
X148657201Y-133583383D01*
X148650703Y-133541946D01*
X148552588Y-133391730D01*
X148375247Y-133333051D01*
X148148281Y-133372512D01*
X148062634Y-133410713D01*
X147880423Y-133569583D01*
X147686876Y-133863894D01*
X147481690Y-134294237D01*
X147264561Y-134861203D01*
X147160286Y-135168970D01*
X147057588Y-135494859D01*
X146998820Y-135720423D01*
X146979050Y-135874445D01*
X146624211Y-135874445D01*
X146656403Y-135615253D01*
X146788067Y-135128820D01*
G37*
G36*
X144824518Y-133244283D02*
G01*
X144987813Y-132802130D01*
X145128650Y-132423033D01*
X145240098Y-132125828D01*
X145315221Y-131929353D01*
X145338325Y-131871577D01*
X145435469Y-131639079D01*
X146132695Y-131662828D01*
X146453364Y-131676247D01*
X146666527Y-131695054D01*
X146802707Y-131726372D01*
X146892432Y-131777325D01*
X146966227Y-131855037D01*
X146968534Y-131857881D01*
X147053643Y-131995396D01*
X147080016Y-132154961D01*
X147062716Y-132364121D01*
X146964695Y-132814876D01*
X146801111Y-133246766D01*
X146588495Y-133629990D01*
X146343378Y-133934746D01*
X146082564Y-134131093D01*
X145865270Y-134240381D01*
X145815356Y-135361984D01*
X145765441Y-136483587D01*
X145384997Y-136483587D01*
X145457189Y-134335529D01*
X145120190Y-134356977D01*
X144783191Y-134378424D01*
X144406385Y-135431006D01*
X144265087Y-135822821D01*
X144159404Y-136103039D01*
X144079259Y-136290325D01*
X144014575Y-136403343D01*
X143955275Y-136460758D01*
X143891283Y-136481236D01*
X143838106Y-136483587D01*
X143646632Y-136483587D01*
X143913858Y-135741604D01*
X144085437Y-135266722D01*
X144269226Y-134760712D01*
X144458291Y-134242411D01*
X144562163Y-133958769D01*
X144953935Y-133958769D01*
X145014833Y-133993884D01*
X145170882Y-134004074D01*
X145382118Y-133992683D01*
X145608573Y-133963056D01*
X145810281Y-133918537D01*
X145920238Y-133877909D01*
X146101251Y-133734051D01*
X146276399Y-133503120D01*
X146433469Y-133216510D01*
X146560247Y-132905618D01*
X146644521Y-132601836D01*
X146674075Y-132336559D01*
X146636698Y-132141182D01*
X146611255Y-132101669D01*
X146493146Y-132034505D01*
X146268693Y-132001804D01*
X146089301Y-131997174D01*
X145654070Y-131997174D01*
X145504300Y-132394049D01*
X145389778Y-132701832D01*
X145271650Y-133026557D01*
X145159582Y-133340737D01*
X145063244Y-133616884D01*
X144992304Y-133827510D01*
X144956430Y-133945127D01*
X144953935Y-133958769D01*
X144562163Y-133958769D01*
X144645700Y-133730656D01*
X144824518Y-133244283D01*
G37*
G36*
X153252797Y-131658631D02*
G01*
X153305565Y-131673093D01*
X153282909Y-131741042D01*
X153219340Y-131920289D01*
X153121458Y-132192520D01*
X152995864Y-132539423D01*
X152849159Y-132942687D01*
X152753921Y-133203605D01*
X152598798Y-133631864D01*
X152462651Y-134015041D01*
X152351778Y-134334801D01*
X152272477Y-134572807D01*
X152231046Y-134710720D01*
X152226991Y-134737803D01*
X152279733Y-134698255D01*
X152410554Y-134573206D01*
X152603744Y-134378441D01*
X152843591Y-134129748D01*
X153063256Y-133897509D01*
X153362214Y-133581027D01*
X153585499Y-133352433D01*
X153750435Y-133197597D01*
X153874345Y-133102389D01*
X153974554Y-133052679D01*
X154068385Y-133034337D01*
X154123809Y-133032500D01*
X154372812Y-133032500D01*
X153025200Y-134385188D01*
X153102473Y-135368681D01*
X153127562Y-135729616D01*
X153143471Y-136046379D01*
X153149252Y-136291048D01*
X153143958Y-136435704D01*
X153139432Y-136457233D01*
X153044488Y-136534642D01*
X152943510Y-136540195D01*
X152850341Y-136507754D01*
X152793792Y-136420673D01*
X152756599Y-136244371D01*
X152742962Y-136138479D01*
X152718273Y-135863153D01*
X152699316Y-135529397D01*
X152691195Y-135258451D01*
X152680264Y-135015599D01*
X152657735Y-134837735D01*
X152628208Y-134759174D01*
X152624138Y-134758044D01*
X152539988Y-134808220D01*
X152402283Y-134937481D01*
X152239555Y-135113928D01*
X152080336Y-135305661D01*
X151953156Y-135480778D01*
X151905825Y-135561156D01*
X151825694Y-135743443D01*
X151733368Y-135986836D01*
X151687628Y-136120411D01*
X151609425Y-136346054D01*
X151544655Y-136466974D01*
X151466566Y-136510516D01*
X151348410Y-136504023D01*
X151317212Y-136499060D01*
X151202853Y-136459732D01*
X151179169Y-136419066D01*
X151206961Y-136343984D01*
X151276686Y-136154079D01*
X151382914Y-135864188D01*
X151520210Y-135489150D01*
X151683144Y-135043803D01*
X151866283Y-134542987D01*
X152061604Y-134008627D01*
X152286387Y-133394215D01*
X152469473Y-132897091D01*
X152616409Y-132504837D01*
X152732742Y-132205032D01*
X152824019Y-131985259D01*
X152895788Y-131833099D01*
X152953595Y-131736131D01*
X153002987Y-131681937D01*
X153049512Y-131658098D01*
X153098717Y-131652196D01*
X153114186Y-131652066D01*
X153252797Y-131658631D01*
G37*
G36*
X144936647Y-131691604D02*
G01*
X144917912Y-131755598D01*
X144884483Y-131846124D01*
X144807357Y-132052795D01*
X144691434Y-132362547D01*
X144541610Y-132762318D01*
X144362785Y-133239044D01*
X144159857Y-133779663D01*
X143937725Y-134371112D01*
X143701285Y-135000328D01*
X143675608Y-135068642D01*
X142482176Y-138243642D01*
X142095036Y-138219943D01*
X141783502Y-138224854D01*
X141524526Y-138293261D01*
X141415562Y-138343005D01*
X141123228Y-138489766D01*
X141347016Y-138281875D01*
X141531947Y-138141169D01*
X141717017Y-138046674D01*
X141761147Y-138033914D01*
X141935303Y-137987418D01*
X142041702Y-137946188D01*
X142086625Y-137874322D01*
X142178443Y-137688185D01*
X142311252Y-137401054D01*
X142479149Y-137026205D01*
X142676231Y-136576917D01*
X142896595Y-136066465D01*
X143134338Y-135508127D01*
X143290424Y-135137663D01*
X143586743Y-134432018D01*
X143835227Y-133842101D01*
X144041205Y-133356247D01*
X144210010Y-132962788D01*
X144346972Y-132650060D01*
X144457423Y-132406396D01*
X144546692Y-132220130D01*
X144620111Y-132079596D01*
X144683010Y-131973128D01*
X144740722Y-131889060D01*
X144798576Y-131815725D01*
X144820123Y-131790109D01*
X144913385Y-131688196D01*
X144936647Y-131691604D01*
G37*
G36*
X140016380Y-133046928D02*
G01*
X140041754Y-133106112D01*
X140039407Y-133113277D01*
X139732966Y-133964016D01*
X139471000Y-134686595D01*
X139252677Y-135283251D01*
X139077166Y-135756222D01*
X138943634Y-136107743D01*
X138851249Y-136340052D01*
X138799179Y-136455386D01*
X138792264Y-136466332D01*
X138698528Y-136544782D01*
X138585472Y-136515699D01*
X138548608Y-136493512D01*
X138530454Y-136446493D01*
X138542435Y-136337940D01*
X138588192Y-136155699D01*
X138671368Y-135887619D01*
X138795605Y-135521548D01*
X138964546Y-135045335D01*
X139070680Y-134751770D01*
X139256830Y-134240732D01*
X139403372Y-133844707D01*
X139517351Y-133548786D01*
X139605812Y-133338058D01*
X139675799Y-133197616D01*
X139734356Y-133112550D01*
X139788528Y-133067951D01*
X139845360Y-133048910D01*
X139877486Y-133044255D01*
X140016380Y-133046928D01*
G37*
G36*
X160764725Y-133043156D02*
G01*
X160817519Y-133092823D01*
X160805447Y-133187799D01*
X160773683Y-133341686D01*
X160729933Y-133588171D01*
X160678269Y-133900309D01*
X160622762Y-134251154D01*
X160567484Y-134613760D01*
X160516506Y-134961182D01*
X160473898Y-135266474D01*
X160443733Y-135502690D01*
X160430081Y-135642885D01*
X160430657Y-135668373D01*
X160469146Y-135630127D01*
X160565140Y-135487536D01*
X160708724Y-135256718D01*
X160889982Y-134953788D01*
X161099000Y-134594863D01*
X161204724Y-134410149D01*
X161428051Y-134023036D01*
X161632938Y-133677634D01*
X161808358Y-133391752D01*
X161943285Y-133183201D01*
X162026691Y-133069794D01*
X162043882Y-133054749D01*
X162181690Y-133037331D01*
X162268562Y-133044297D01*
X162297292Y-133063028D01*
X162299512Y-133113273D01*
X162269458Y-133205862D01*
X162201366Y-133351624D01*
X162089473Y-133561387D01*
X161928016Y-133845980D01*
X161711232Y-134216233D01*
X161433357Y-134682973D01*
X161108240Y-135224450D01*
X160807994Y-135722182D01*
X160527378Y-136185282D01*
X160274984Y-136599729D01*
X160059404Y-136951501D01*
X159889230Y-137226578D01*
X159773053Y-137410939D01*
X159719977Y-137489957D01*
X159562104Y-137618659D01*
X159323362Y-137747644D01*
X159058241Y-137850095D01*
X158913581Y-137886844D01*
X158758118Y-137903432D01*
X158696517Y-137862624D01*
X158689261Y-137807079D01*
X158749070Y-137632571D01*
X158907404Y-137532337D01*
X159011362Y-137518913D01*
X159176813Y-137461262D01*
X159372859Y-137307285D01*
X159571075Y-137085447D01*
X159743035Y-136824213D01*
X159783820Y-136745384D01*
X159842651Y-136614686D01*
X159893177Y-136475278D01*
X159938651Y-136309140D01*
X159982327Y-136098255D01*
X160027457Y-135824604D01*
X160077296Y-135470171D01*
X160135097Y-135016937D01*
X160204113Y-134446884D01*
X160214327Y-134361169D01*
X160372450Y-133032500D01*
X160608175Y-133032500D01*
X160764725Y-133043156D01*
G37*
G36*
X140572587Y-131757762D02*
G01*
X140549992Y-131857655D01*
X140532424Y-131904476D01*
X140413120Y-132146828D01*
X140283251Y-132258735D01*
X140131176Y-132247789D01*
X140062234Y-132211165D01*
X140003297Y-132126672D01*
X140026486Y-131973817D01*
X140033058Y-131953391D01*
X140105078Y-131814298D01*
X140230820Y-131750782D01*
X140351942Y-131734184D01*
X140516340Y-131725823D01*
X140572587Y-131757762D01*
G37*
G36*
X144632826Y-131412731D02*
G01*
X144545083Y-131597550D01*
X144511803Y-131658825D01*
X144416024Y-131856908D01*
X144296104Y-132140695D01*
X144170762Y-132464670D01*
X144103015Y-132652881D01*
X143411791Y-134491098D01*
X142625042Y-136323878D01*
X142369961Y-136872212D01*
X141973118Y-137709478D01*
X141669402Y-137743711D01*
X141342011Y-137837025D01*
X141107907Y-137974561D01*
X140850129Y-138171178D01*
X141009376Y-137947537D01*
X141193045Y-137750290D01*
X141413798Y-137597646D01*
X141622174Y-137522010D01*
X141663601Y-137518913D01*
X141756835Y-137461165D01*
X141836429Y-137329104D01*
X141888229Y-137193986D01*
X141976597Y-136960729D01*
X142089764Y-136660496D01*
X142215961Y-136324451D01*
X142233924Y-136276522D01*
X142461375Y-135687454D01*
X142709384Y-135076783D01*
X142969929Y-134461799D01*
X143234988Y-133859792D01*
X143496537Y-133288054D01*
X143746555Y-132763874D01*
X143977019Y-132304544D01*
X144179908Y-131927353D01*
X144347197Y-131649592D01*
X144439609Y-131522643D01*
X144578556Y-131372386D01*
X144643472Y-131336713D01*
X144632826Y-131412731D01*
G37*
G36*
X158125126Y-132059166D02*
G01*
X158117583Y-132180444D01*
X158050093Y-132395341D01*
X157999009Y-132532833D01*
X157922942Y-132744350D01*
X157872818Y-132905557D01*
X157861000Y-132964219D01*
X157922139Y-133007394D01*
X158074460Y-133031000D01*
X158130625Y-133032500D01*
X158303127Y-133041745D01*
X158370231Y-133081759D01*
X158365064Y-133167054D01*
X158307527Y-133257124D01*
X158172280Y-133305321D01*
X158014303Y-133322352D01*
X157698729Y-133343098D01*
X157266301Y-134516468D01*
X157126791Y-134901998D01*
X157005543Y-135250375D01*
X156910412Y-135537933D01*
X156849256Y-135741004D01*
X156829773Y-135831332D01*
X156882304Y-136017957D01*
X157035498Y-136123735D01*
X157143614Y-136138479D01*
X157255197Y-136165830D01*
X157262010Y-136267914D01*
X157260395Y-136274261D01*
X157176323Y-136438119D01*
X157023674Y-136498731D01*
X156829046Y-136478304D01*
X156582054Y-136373621D01*
X156446112Y-136188125D01*
X156413877Y-135969988D01*
X156437962Y-135838452D01*
X156503389Y-135603095D01*
X156602277Y-135289067D01*
X156726746Y-134921517D01*
X156852622Y-134569842D01*
X156989144Y-134190909D01*
X157104249Y-133857915D01*
X157191082Y-133591841D01*
X157242786Y-133413671D01*
X157252915Y-133344706D01*
X157162546Y-133315906D01*
X157062208Y-133308587D01*
X156949277Y-133282256D01*
X156940791Y-133182293D01*
X156943718Y-133170544D01*
X157012687Y-133068279D01*
X157169538Y-133033165D01*
X157207592Y-133032500D01*
X157324983Y-133025983D01*
X157405452Y-132988105D01*
X157470651Y-132891378D01*
X157542230Y-132708313D01*
X157601739Y-132532093D01*
X157692971Y-132273775D01*
X157766603Y-132119975D01*
X157841807Y-132042155D01*
X157937756Y-132011779D01*
X157952600Y-132009845D01*
X158070780Y-132009602D01*
X158125126Y-132059166D01*
G37*
G36*
X151100343Y-132992468D02*
G01*
X151325808Y-133091941D01*
X151469502Y-133271931D01*
X151511000Y-133480506D01*
X151491192Y-133732762D01*
X151422804Y-133874220D01*
X151292384Y-133927580D01*
X151244784Y-133929828D01*
X151124341Y-133914741D01*
X151073075Y-133842568D01*
X151062359Y-133673370D01*
X151045567Y-133493120D01*
X150974744Y-133396606D01*
X150872410Y-133349354D01*
X150654364Y-133342583D01*
X150424228Y-133469253D01*
X150188156Y-133725970D01*
X150187408Y-133726983D01*
X150065148Y-133936801D01*
X149928117Y-134241330D01*
X149789466Y-134602182D01*
X149662344Y-134980967D01*
X149559900Y-135339297D01*
X149495284Y-135638783D01*
X149479596Y-135793370D01*
X149474859Y-136172990D01*
X149701533Y-136194794D01*
X149875334Y-136185487D01*
X150030587Y-136102178D01*
X150156337Y-135987728D01*
X150299847Y-135831200D01*
X150396687Y-135702361D01*
X150414833Y-135666527D01*
X150501890Y-135602177D01*
X150633362Y-135597505D01*
X150821525Y-135620816D01*
X150700366Y-135857484D01*
X150461572Y-136183184D01*
X150139748Y-136412838D01*
X149762224Y-136527953D01*
X149699858Y-136534402D01*
X149418863Y-136534585D01*
X149227926Y-136479052D01*
X149181516Y-136449946D01*
X149064802Y-136294667D01*
X149024642Y-136048367D01*
X149061431Y-135704610D01*
X149175567Y-135256964D01*
X149273215Y-134959081D01*
X149474914Y-134409135D01*
X149659426Y-133977299D01*
X149837733Y-133646547D01*
X150020821Y-133399852D01*
X150219673Y-133220186D01*
X150445274Y-133090521D01*
X150491654Y-133070305D01*
X150814995Y-132982320D01*
X151100343Y-132992468D01*
G37*
D11*
%TO.C,J4*%
X173520000Y-126095000D02*
X173420000Y-125995000D01*
X171620000Y-124395000D02*
X171620000Y-125995000D01*
X173820000Y-124395000D02*
X173820000Y-125995000D01*
X171720000Y-122195000D02*
X173720000Y-122195000D01*
X172020000Y-125995000D02*
X172020000Y-124395000D01*
X170520000Y-121195000D02*
X170820000Y-120695000D01*
X171620000Y-125995000D02*
X171720000Y-126095000D01*
X173720000Y-122795000D02*
X173720000Y-122195000D01*
X170820000Y-120695000D02*
X170220000Y-120695000D01*
X171720000Y-122795000D02*
X173720000Y-122795000D01*
X171720000Y-126095000D02*
X171920000Y-126095000D01*
X173720000Y-126095000D02*
X173520000Y-126095000D01*
X170220000Y-120695000D02*
X170520000Y-121195000D01*
X169920000Y-124295000D02*
X169920000Y-125895000D01*
X173820000Y-125995000D02*
X173720000Y-126095000D01*
X172020000Y-124395000D02*
X173420000Y-124395000D01*
X173920000Y-128395000D02*
X171520000Y-128395000D01*
X173420000Y-124395000D02*
X173820000Y-124395000D01*
X171820000Y-128095000D02*
X172120000Y-128395000D01*
X172020000Y-124395000D02*
X171620000Y-124395000D01*
X173420000Y-125995000D02*
X173420000Y-124395000D01*
X171720000Y-122195000D02*
X171720000Y-122795000D01*
X171920000Y-126095000D02*
X172020000Y-125995000D01*
X175520000Y-124295000D02*
X175520000Y-125895000D01*
X171520000Y-128395000D02*
X171820000Y-128095000D01*
D12*
%TO.C,R11*%
X164512258Y-102630500D02*
X164037742Y-102630500D01*
X164512258Y-101585500D02*
X164037742Y-101585500D01*
%TO.C,R1*%
X171687258Y-85218817D02*
X171212742Y-85218817D01*
X171687258Y-86263817D02*
X171212742Y-86263817D01*
%TO.C,G\u002A\u002A\u002A*%
G36*
X140851009Y-115759412D02*
G01*
X140704569Y-115395703D01*
X140624850Y-115115353D01*
X140608953Y-114896697D01*
X140653978Y-114718071D01*
X140757024Y-114557811D01*
X140832357Y-114474766D01*
X140984219Y-114287335D01*
X141032541Y-114123419D01*
X141030551Y-114098274D01*
X148779771Y-114098274D01*
X152246329Y-114059138D01*
X152991945Y-110628678D01*
X153140585Y-109942083D01*
X153278674Y-109298937D01*
X153403271Y-108713313D01*
X153511437Y-108199286D01*
X153600230Y-107770929D01*
X153666711Y-107442316D01*
X153707939Y-107227520D01*
X153720973Y-107140616D01*
X153720851Y-107139946D01*
X153675971Y-107172470D01*
X153566597Y-107304675D01*
X153409555Y-107515008D01*
X153236504Y-107760348D01*
X152572797Y-108721205D01*
X151984583Y-109567469D01*
X151466686Y-110306215D01*
X151013935Y-110944515D01*
X150621157Y-111489444D01*
X150283179Y-111948075D01*
X149994828Y-112327481D01*
X149750931Y-112634736D01*
X149546316Y-112876913D01*
X149375809Y-113061087D01*
X149319180Y-113117051D01*
X149065351Y-113368070D01*
X148903826Y-113550736D01*
X148815722Y-113691286D01*
X148782156Y-113815956D01*
X148779771Y-113866505D01*
X148779771Y-114098274D01*
X141030551Y-114098274D01*
X141026037Y-114041226D01*
X141000352Y-113932705D01*
X140939337Y-113697211D01*
X140846751Y-113348416D01*
X140726351Y-112899996D01*
X140581894Y-112365622D01*
X140417140Y-111758968D01*
X140235844Y-111093708D01*
X140041766Y-110383515D01*
X139838663Y-109642062D01*
X139630292Y-108883023D01*
X139420412Y-108120070D01*
X139212779Y-107366879D01*
X139153317Y-107151663D01*
X140935084Y-107151663D01*
X140961075Y-107308172D01*
X140972484Y-107362443D01*
X141000102Y-107490331D01*
X141054721Y-107744849D01*
X141132890Y-108109859D01*
X141231158Y-108569224D01*
X141346075Y-109106810D01*
X141474188Y-109706478D01*
X141612048Y-110352093D01*
X141702243Y-110774655D01*
X141843930Y-111432872D01*
X141978746Y-112048320D01*
X142103238Y-112606003D01*
X142213950Y-113090929D01*
X142307429Y-113488103D01*
X142380220Y-113782532D01*
X142428869Y-113959221D01*
X142446340Y-114004397D01*
X142512334Y-114035943D01*
X142661304Y-114060022D01*
X142906475Y-114077327D01*
X143261075Y-114088549D01*
X143738329Y-114094380D01*
X144190432Y-114095632D01*
X145860230Y-114095632D01*
X145860230Y-113834650D01*
X145818966Y-113599961D01*
X145673221Y-113421720D01*
X145665001Y-113414966D01*
X145503947Y-113277723D01*
X145342583Y-113124754D01*
X145171915Y-112944506D01*
X144982951Y-112725428D01*
X144766699Y-112455965D01*
X144514166Y-112124566D01*
X144216360Y-111719679D01*
X143864288Y-111229751D01*
X143448957Y-110643228D01*
X142961375Y-109948560D01*
X142913785Y-109880546D01*
X142517836Y-109315266D01*
X142147777Y-108788326D01*
X141811916Y-108311460D01*
X141518566Y-107896405D01*
X141276038Y-107554896D01*
X141092641Y-107298667D01*
X140976686Y-107139453D01*
X140936635Y-107088736D01*
X140935084Y-107151663D01*
X139153317Y-107151663D01*
X139011153Y-106637121D01*
X138819290Y-105944470D01*
X138640948Y-105302600D01*
X138479885Y-104725184D01*
X138339859Y-104225895D01*
X138224628Y-103818407D01*
X138137949Y-103516393D01*
X138083579Y-103333526D01*
X138081500Y-103326874D01*
X137937337Y-102941363D01*
X137740004Y-102553425D01*
X137466142Y-102118416D01*
X137394076Y-102013081D01*
X137000175Y-101443684D01*
X136679933Y-100978634D01*
X136424041Y-100602171D01*
X136223192Y-100298535D01*
X136068078Y-100051965D01*
X136046094Y-100013945D01*
X139729196Y-100013945D01*
X139775573Y-100076451D01*
X139907932Y-100237063D01*
X140116113Y-100484042D01*
X140389959Y-100805648D01*
X140719309Y-101190141D01*
X141094006Y-101625780D01*
X141503889Y-102100825D01*
X141938801Y-102603538D01*
X142388582Y-103122177D01*
X142843073Y-103645003D01*
X143292116Y-104160275D01*
X143725552Y-104656254D01*
X144133221Y-105121200D01*
X144504965Y-105543373D01*
X144830624Y-105911032D01*
X144883614Y-105970571D01*
X145288901Y-106375549D01*
X145660131Y-106642909D01*
X145733069Y-106681125D01*
X146192900Y-106844470D01*
X146742659Y-106942576D01*
X147340956Y-106973956D01*
X147946397Y-106937123D01*
X148517592Y-106830591D01*
X148670288Y-106786646D01*
X148929127Y-106692611D01*
X149148814Y-106590807D01*
X149256804Y-106522134D01*
X149343275Y-106434770D01*
X149512298Y-106251824D01*
X149753397Y-105985256D01*
X150056095Y-105647027D01*
X150409918Y-105249099D01*
X150804389Y-104803433D01*
X151229033Y-104321988D01*
X151673374Y-103816727D01*
X152126937Y-103299610D01*
X152579244Y-102782597D01*
X153019821Y-102277651D01*
X153438193Y-101796731D01*
X153823882Y-101351799D01*
X154166413Y-100954815D01*
X154455312Y-100617741D01*
X154680101Y-100352538D01*
X154830305Y-100171165D01*
X154895448Y-100085585D01*
X154897080Y-100082241D01*
X154849977Y-100021488D01*
X154704617Y-99947227D01*
X154641621Y-99923990D01*
X154518310Y-99906736D01*
X154261607Y-99890509D01*
X153884092Y-99875359D01*
X153398347Y-99861334D01*
X152816951Y-99848483D01*
X152152487Y-99836855D01*
X151417534Y-99826499D01*
X150624675Y-99817463D01*
X149786490Y-99809797D01*
X148915560Y-99803549D01*
X148024465Y-99798768D01*
X147125788Y-99795503D01*
X146232109Y-99793803D01*
X145356008Y-99793717D01*
X144510067Y-99795293D01*
X143706867Y-99798580D01*
X142958989Y-99803628D01*
X142279014Y-99810485D01*
X141679522Y-99819200D01*
X141173095Y-99829821D01*
X140772314Y-99842398D01*
X140489759Y-99856979D01*
X140367845Y-99868572D01*
X140083868Y-99913878D01*
X139864794Y-99960201D01*
X139743313Y-100000098D01*
X139729196Y-100013945D01*
X136046094Y-100013945D01*
X135949390Y-99846701D01*
X135857822Y-99666984D01*
X135784065Y-99497051D01*
X135718811Y-99321144D01*
X135652753Y-99123501D01*
X135610549Y-98993150D01*
X135450900Y-98444043D01*
X135371651Y-98006168D01*
X135380846Y-97663972D01*
X135486527Y-97401905D01*
X135696737Y-97204417D01*
X136019518Y-97055956D01*
X136462912Y-96940971D01*
X136694281Y-96897667D01*
X136798193Y-96883126D01*
X136937330Y-96870059D01*
X137118694Y-96858412D01*
X137349288Y-96848133D01*
X137636114Y-96839169D01*
X137986175Y-96831468D01*
X138406473Y-96824975D01*
X138904011Y-96819639D01*
X139485793Y-96815407D01*
X140158820Y-96812225D01*
X140930095Y-96810040D01*
X141806621Y-96808801D01*
X142795400Y-96808454D01*
X143903436Y-96808946D01*
X145137730Y-96810224D01*
X146505285Y-96812235D01*
X147724254Y-96814382D01*
X149197720Y-96816938D01*
X150532345Y-96819078D01*
X151735260Y-96821161D01*
X152813599Y-96823546D01*
X153774496Y-96826593D01*
X154625083Y-96830660D01*
X155372493Y-96836107D01*
X156023860Y-96843293D01*
X156586316Y-96852576D01*
X157066994Y-96864315D01*
X157473028Y-96878870D01*
X157811551Y-96896600D01*
X158089695Y-96917864D01*
X158314594Y-96943021D01*
X158493380Y-96972429D01*
X158633188Y-97006449D01*
X158741149Y-97045438D01*
X158824396Y-97089756D01*
X158890064Y-97139763D01*
X158945285Y-97195816D01*
X158997191Y-97258276D01*
X159052917Y-97327501D01*
X159104329Y-97387206D01*
X159238805Y-97550066D01*
X159319966Y-97701656D01*
X159349476Y-97873395D01*
X159328999Y-98096704D01*
X159260198Y-98403003D01*
X159174754Y-98717258D01*
X159046736Y-99130288D01*
X158899701Y-99506341D01*
X158717390Y-99875751D01*
X158483541Y-100268848D01*
X158181897Y-100715965D01*
X157877028Y-101138115D01*
X157615534Y-101497315D01*
X157390140Y-101820877D01*
X157194057Y-102125420D01*
X157020496Y-102427561D01*
X156862668Y-102743917D01*
X156713785Y-103091106D01*
X156567057Y-103485746D01*
X156415697Y-103944454D01*
X156252914Y-104483847D01*
X156071922Y-105120543D01*
X155865930Y-105871159D01*
X155714385Y-106431839D01*
X155614296Y-106801949D01*
X155488082Y-107266372D01*
X155340469Y-107807901D01*
X155176182Y-108409333D01*
X154999945Y-109053461D01*
X154816483Y-109723079D01*
X154630520Y-110400983D01*
X154446781Y-111069966D01*
X154269991Y-111712824D01*
X154104874Y-112312350D01*
X153956154Y-112851339D01*
X153828557Y-113312585D01*
X153726807Y-113678883D01*
X153655629Y-113933028D01*
X153627503Y-114031620D01*
X153652796Y-114152872D01*
X153758137Y-114336047D01*
X153857978Y-114467166D01*
X153974170Y-114617984D01*
X154049962Y-114760339D01*
X154081513Y-114914232D01*
X154064979Y-115099665D01*
X153996517Y-115336640D01*
X153872284Y-115645156D01*
X153688438Y-116045217D01*
X153466456Y-116504941D01*
X153333578Y-116771880D01*
X153146291Y-117140129D01*
X152911525Y-117596559D01*
X152636214Y-118128042D01*
X152327290Y-118721447D01*
X151991684Y-119363646D01*
X151636329Y-120041509D01*
X151268158Y-120741908D01*
X150894102Y-121451713D01*
X150521095Y-122157794D01*
X150156067Y-122847024D01*
X149805951Y-123506272D01*
X149477681Y-124122410D01*
X149178187Y-124682308D01*
X148914402Y-125172837D01*
X148693259Y-125580868D01*
X148521689Y-125893272D01*
X148406625Y-126096919D01*
X148368637Y-126159832D01*
X148199118Y-126370750D01*
X148001867Y-126548250D01*
X147955729Y-126579243D01*
X147660876Y-126690213D01*
X147313041Y-126721585D01*
X146976099Y-126672988D01*
X146772587Y-126586104D01*
X146568802Y-126435920D01*
X146398812Y-126276176D01*
X146337717Y-126181568D01*
X146215642Y-125969825D01*
X146039110Y-125653241D01*
X145814645Y-125244112D01*
X145548771Y-124754732D01*
X145248013Y-124197397D01*
X144918894Y-123584401D01*
X144567939Y-122928040D01*
X144201671Y-122240609D01*
X143826615Y-121534402D01*
X143449295Y-120821716D01*
X143076234Y-120114845D01*
X142713958Y-119426084D01*
X142368990Y-118767728D01*
X142047853Y-118152073D01*
X141757073Y-117591413D01*
X141503174Y-117098043D01*
X141292678Y-116684259D01*
X141132111Y-116362356D01*
X141119781Y-116336913D01*
X142867702Y-116336913D01*
X142901952Y-116435348D01*
X142999202Y-116641025D01*
X143151197Y-116939279D01*
X143349682Y-117315447D01*
X143586406Y-117754867D01*
X143853113Y-118242874D01*
X144141550Y-118764806D01*
X144443463Y-119305999D01*
X144750599Y-119851790D01*
X145054702Y-120387517D01*
X145347521Y-120898514D01*
X145620800Y-121370121D01*
X145866287Y-121787672D01*
X146075727Y-122136505D01*
X146240866Y-122401957D01*
X146353452Y-122569364D01*
X146405229Y-122624063D01*
X146406288Y-122623373D01*
X146406715Y-122547811D01*
X146398725Y-122341015D01*
X146395943Y-122283393D01*
X148275905Y-122283393D01*
X148277328Y-122456742D01*
X148286512Y-122560081D01*
X148303078Y-122604209D01*
X148326647Y-122599927D01*
X148331339Y-122595144D01*
X148379155Y-122519453D01*
X148491779Y-122329632D01*
X148661840Y-122038430D01*
X148881967Y-121658601D01*
X149144789Y-121202896D01*
X149442934Y-120684067D01*
X149769030Y-120114866D01*
X150101310Y-119533276D01*
X150523134Y-118793435D01*
X150876804Y-118169505D01*
X151166464Y-117650582D01*
X151396257Y-117225761D01*
X151570327Y-116884137D01*
X151692819Y-116614806D01*
X151767876Y-116406863D01*
X151799642Y-116249404D01*
X151792261Y-116131523D01*
X151749877Y-116042316D01*
X151676633Y-115970879D01*
X151576675Y-115906307D01*
X151496676Y-115861375D01*
X151365983Y-115795185D01*
X151231730Y-115747242D01*
X151066395Y-115713816D01*
X150842456Y-115691172D01*
X150532392Y-115675577D01*
X150108681Y-115663299D01*
X150021013Y-115661218D01*
X149539069Y-115652687D01*
X149183735Y-115657093D01*
X148935790Y-115680878D01*
X148776012Y-115730485D01*
X148685177Y-115812355D01*
X148644066Y-115932929D01*
X148633454Y-116098650D01*
X148633307Y-116126277D01*
X148628512Y-116258579D01*
X148615063Y-116518631D01*
X148594031Y-116888529D01*
X148566486Y-117350371D01*
X148533497Y-117886253D01*
X148496134Y-118478273D01*
X148455466Y-119108526D01*
X148451562Y-119168334D01*
X148398463Y-119988527D01*
X148355399Y-120673914D01*
X148321989Y-121235295D01*
X148297856Y-121683469D01*
X148282621Y-122029235D01*
X148275905Y-122283393D01*
X146395943Y-122283393D01*
X146383102Y-122017434D01*
X146360627Y-121591522D01*
X146332085Y-121077731D01*
X146298257Y-120490511D01*
X146259926Y-119844315D01*
X146221772Y-119216870D01*
X146165227Y-118325793D01*
X146112943Y-117559825D01*
X146065217Y-116922478D01*
X146022344Y-116417265D01*
X145984620Y-116047700D01*
X145952341Y-115817296D01*
X145928069Y-115731669D01*
X145862942Y-115690807D01*
X145732988Y-115661672D01*
X145518670Y-115642646D01*
X145200450Y-115632110D01*
X144758792Y-115628448D01*
X144681133Y-115628391D01*
X144109533Y-115636513D01*
X143667803Y-115664894D01*
X143340530Y-115719555D01*
X143112303Y-115806518D01*
X142967708Y-115931805D01*
X142891336Y-116101436D01*
X142867773Y-116321434D01*
X142867702Y-116336913D01*
X141119781Y-116336913D01*
X141067072Y-116228145D01*
X140851009Y-115759412D01*
G37*
%TO.C,R2*%
X164520624Y-98056398D02*
X164046108Y-98056398D01*
X164520624Y-97011398D02*
X164046108Y-97011398D01*
D13*
%TO.C,Q1*%
X175794000Y-119772000D02*
X175794000Y-117972000D01*
X172694000Y-117972000D02*
X172694000Y-119772000D01*
D14*
X175294000Y-116562000D02*
G75*
G03*
X175294000Y-116562000I-100000J0D01*
G01*
D12*
%TO.C,R5*%
X164037742Y-95489500D02*
X164512258Y-95489500D01*
X164037742Y-96534500D02*
X164512258Y-96534500D01*
%TO.C,*%
G36*
X143833390Y-53548560D02*
G01*
X143735702Y-54093708D01*
X143646534Y-54592339D01*
X143578379Y-54974535D01*
X143552308Y-55121496D01*
X143492919Y-55357971D01*
X143377406Y-55467574D01*
X143132356Y-55498778D01*
X142978812Y-55500166D01*
X142472165Y-55500166D01*
X142563757Y-55063239D01*
X142624273Y-54754996D01*
X142709828Y-54294461D01*
X142806168Y-53759031D01*
X142853426Y-53490303D01*
X143051503Y-52354294D01*
X144047624Y-52354294D01*
X143833390Y-53548560D01*
G37*
G36*
X157917153Y-53220118D02*
G01*
X158267003Y-52820445D01*
X158791413Y-52547321D01*
X159501414Y-52394623D01*
X160248614Y-52354944D01*
X161021827Y-52406530D01*
X161596159Y-52568214D01*
X161982386Y-52848377D01*
X162191282Y-53255396D01*
X162233620Y-53797651D01*
X162226118Y-53892770D01*
X162158533Y-54303303D01*
X162017180Y-54594845D01*
X161756423Y-54872727D01*
X161400095Y-55136084D01*
X161009211Y-55336358D01*
X160896699Y-55374488D01*
X160330212Y-55473600D01*
X159681872Y-55498092D01*
X159041623Y-55451527D01*
X158499408Y-55337469D01*
X158327833Y-55272711D01*
X157941184Y-55012458D01*
X157729892Y-54646432D01*
X157682528Y-54145526D01*
X157716666Y-53867746D01*
X158683896Y-53867746D01*
X158703563Y-54215567D01*
X158910616Y-54490981D01*
X158992349Y-54542024D01*
X159287438Y-54624639D01*
X159707585Y-54656762D01*
X160174925Y-54642794D01*
X160611594Y-54587136D01*
X160939724Y-54494189D01*
X161048766Y-54425794D01*
X161181346Y-54170352D01*
X161227630Y-53826877D01*
X161182013Y-53508066D01*
X161101357Y-53368372D01*
X160903822Y-53292156D01*
X160515763Y-53243654D01*
X160024513Y-53228147D01*
X159547939Y-53234657D01*
X159243837Y-53263944D01*
X159051792Y-53330646D01*
X158911391Y-53449403D01*
X158859698Y-53510376D01*
X158683896Y-53867746D01*
X157716666Y-53867746D01*
X157730834Y-53752459D01*
X157917153Y-53220118D01*
G37*
G36*
X140785896Y-52365013D02*
G01*
X141300206Y-52404060D01*
X141664491Y-52481782D01*
X141919905Y-52608521D01*
X142107601Y-52794620D01*
X142166877Y-52878686D01*
X142285203Y-53253025D01*
X142230233Y-53675061D01*
X142024857Y-54066734D01*
X141744104Y-54320554D01*
X141403047Y-54527963D01*
X141760530Y-55014064D01*
X142118013Y-55500166D01*
X141427198Y-55500166D01*
X141037276Y-55492427D01*
X140806526Y-55447170D01*
X140661132Y-55331331D01*
X140527281Y-55111848D01*
X140516770Y-55092367D01*
X140384789Y-54869117D01*
X140247561Y-54747147D01*
X140034184Y-54695867D01*
X139673753Y-54684686D01*
X139571592Y-54684569D01*
X138846028Y-54684569D01*
X138769524Y-55092367D01*
X138706650Y-55345468D01*
X138595322Y-55463708D01*
X138361479Y-55498269D01*
X138179456Y-55500166D01*
X137864201Y-55489491D01*
X137727273Y-55436315D01*
X137714222Y-55308911D01*
X137729545Y-55238010D01*
X137788395Y-54959429D01*
X137858563Y-54579874D01*
X137880466Y-54451542D01*
X137967733Y-53927230D01*
X139479353Y-53895911D01*
X140123413Y-53877733D01*
X140572902Y-53850991D01*
X140866250Y-53810497D01*
X141041891Y-53751062D01*
X141134641Y-53672443D01*
X141232390Y-53486150D01*
X141192790Y-53349757D01*
X140995340Y-53256663D01*
X140619538Y-53200269D01*
X140044880Y-53173973D01*
X139573574Y-53169890D01*
X138126451Y-53169890D01*
X138451831Y-52762096D01*
X138777211Y-52354301D01*
X140080406Y-52354298D01*
X140785896Y-52365013D01*
G37*
G36*
X135729080Y-52375186D02*
G01*
X136315899Y-52393053D01*
X136717337Y-52416154D01*
X136980973Y-52455249D01*
X137154389Y-52521097D01*
X137285164Y-52624459D01*
X137401339Y-52753340D01*
X137602564Y-53052910D01*
X137645967Y-53353942D01*
X137628992Y-53496002D01*
X137484216Y-53958845D01*
X137206853Y-54297288D01*
X136774822Y-54523154D01*
X136166046Y-54648266D01*
X135409378Y-54684569D01*
X134301991Y-54684569D01*
X134225487Y-55092367D01*
X134162614Y-55345468D01*
X134051285Y-55463708D01*
X133817443Y-55498269D01*
X133635419Y-55500166D01*
X133320164Y-55489491D01*
X133183236Y-55436315D01*
X133170185Y-55308911D01*
X133185509Y-55238010D01*
X133244337Y-54959423D01*
X133314450Y-54579861D01*
X133336327Y-54451542D01*
X133423491Y-53927230D01*
X134922882Y-53868973D01*
X135555724Y-53840081D01*
X135994809Y-53806859D01*
X136279395Y-53762906D01*
X136448743Y-53701821D01*
X136542114Y-53617203D01*
X136551119Y-53603500D01*
X136610405Y-53441101D01*
X136540835Y-53323151D01*
X136319472Y-53243508D01*
X135923383Y-53196032D01*
X135329632Y-53174579D01*
X134938530Y-53171675D01*
X133546637Y-53169890D01*
X134349689Y-52337820D01*
X135729080Y-52375186D01*
G37*
G36*
X147768579Y-53162397D02*
G01*
X146535280Y-53195272D01*
X145971298Y-53216060D01*
X145603591Y-53246595D01*
X145395434Y-53293060D01*
X145310103Y-53361638D01*
X145301982Y-53402918D01*
X145343420Y-53482584D01*
X145491224Y-53540765D01*
X145780626Y-53583679D01*
X146246862Y-53617543D01*
X146622546Y-53635945D01*
X147211064Y-53666933D01*
X147610781Y-53703984D01*
X147865908Y-53755563D01*
X148020660Y-53830137D01*
X148108096Y-53920371D01*
X148258810Y-54273618D01*
X148206920Y-54673163D01*
X148107050Y-54900699D01*
X147969726Y-55113224D01*
X147786240Y-55269749D01*
X147521959Y-55378441D01*
X147142249Y-55447467D01*
X146612476Y-55484994D01*
X145898008Y-55499190D01*
X145564928Y-55500166D01*
X143799848Y-55500166D01*
X144195101Y-55092367D01*
X144590355Y-54684569D01*
X145842274Y-54684569D01*
X146430678Y-54673132D01*
X146868523Y-54640868D01*
X147122939Y-54590853D01*
X147170993Y-54560304D01*
X147212021Y-54459425D01*
X147163993Y-54391017D01*
X146992315Y-54347092D01*
X146662395Y-54319665D01*
X146139640Y-54300750D01*
X146034569Y-54297948D01*
X145341478Y-54257404D01*
X144850718Y-54168448D01*
X144534212Y-54017506D01*
X144363882Y-53791004D01*
X144311651Y-53475368D01*
X144311615Y-53464986D01*
X144421276Y-53001689D01*
X144592536Y-52739461D01*
X144873456Y-52412551D01*
X146718912Y-52375500D01*
X148564367Y-52338449D01*
X147768579Y-53162397D01*
G37*
G36*
X157408668Y-52367748D02*
G01*
X157547100Y-52422981D01*
X157554259Y-52542301D01*
X157549823Y-52558193D01*
X157499925Y-52775725D01*
X157429638Y-53139785D01*
X157363072Y-53519432D01*
X157272938Y-54039926D01*
X157174934Y-54578596D01*
X157115740Y-54888468D01*
X156995094Y-55500166D01*
X155987761Y-55500166D01*
X156079353Y-55063239D01*
X156139869Y-54754996D01*
X156225424Y-54294461D01*
X156321764Y-53759031D01*
X156369022Y-53490303D01*
X156567099Y-52354294D01*
X157088493Y-52354294D01*
X157408668Y-52367748D01*
G37*
G36*
X153454883Y-52463585D02*
G01*
X153488168Y-52499936D01*
X153546048Y-52667102D01*
X153617860Y-53015697D01*
X153694587Y-53495256D01*
X153767212Y-54055313D01*
X153769238Y-54072872D01*
X153933295Y-55500166D01*
X153440604Y-55500166D01*
X153131216Y-55489206D01*
X152979125Y-55413360D01*
X152911745Y-55208172D01*
X152882939Y-55004982D01*
X152832580Y-54575332D01*
X152792864Y-54159911D01*
X152788415Y-54102000D01*
X152758863Y-53694202D01*
X152088076Y-54597184D01*
X151757414Y-55028295D01*
X151516575Y-55299055D01*
X151327330Y-55443804D01*
X151151451Y-55496884D01*
X151082847Y-55500166D01*
X150839477Y-55473224D01*
X150662351Y-55363140D01*
X150515229Y-55126026D01*
X150361871Y-54717996D01*
X150313169Y-54568056D01*
X150189721Y-54205684D01*
X150084175Y-53938107D01*
X150034062Y-53844136D01*
X149956301Y-53903081D01*
X149814160Y-54132468D01*
X149633854Y-54488043D01*
X149568162Y-54630604D01*
X149371751Y-55058155D01*
X149228832Y-55315936D01*
X149097755Y-55446897D01*
X148936873Y-55493990D01*
X148724971Y-55500166D01*
X148438358Y-55476979D01*
X148282524Y-55419260D01*
X148273083Y-55398627D01*
X148322795Y-55240902D01*
X148455709Y-54926719D01*
X148647487Y-54506350D01*
X148873796Y-54030066D01*
X149110298Y-53548141D01*
X149332659Y-53110847D01*
X149516543Y-52768456D01*
X149637615Y-52571241D01*
X149648067Y-52558193D01*
X149912994Y-52389853D01*
X150221897Y-52371029D01*
X150469368Y-52508012D01*
X150470293Y-52509121D01*
X150573014Y-52690290D01*
X150722899Y-53021994D01*
X150888946Y-53435237D01*
X150902228Y-53470359D01*
X151053791Y-53865278D01*
X151174099Y-54164230D01*
X151239993Y-54309917D01*
X151243550Y-54314814D01*
X151325089Y-54247380D01*
X151505183Y-54034256D01*
X151746989Y-53719410D01*
X151780531Y-53673988D01*
X152077605Y-53280547D01*
X152365595Y-52916622D01*
X152570174Y-52674707D01*
X152882881Y-52433633D01*
X153198424Y-52359329D01*
X153454883Y-52463585D01*
G37*
%TO.C,R9*%
X164512258Y-93965500D02*
X164037742Y-93965500D01*
X164512258Y-95010500D02*
X164037742Y-95010500D01*
D13*
%TO.C,S3*%
X139579176Y-57862470D02*
X152379176Y-57862470D01*
X152379176Y-63662470D02*
X139579176Y-63662470D01*
X152379176Y-57862470D02*
X152379176Y-63662470D01*
X139579176Y-63662470D02*
X139579176Y-57862470D01*
D14*
X153479176Y-60662470D02*
G75*
G03*
X153479176Y-60662470I-100000J0D01*
G01*
D15*
%TO.C,D2*%
X148340000Y-92825000D02*
X148340000Y-91375000D01*
X148340000Y-91375000D02*
X149390000Y-92075000D01*
X149390000Y-92075000D02*
X148340000Y-92825000D01*
G36*
X149590000Y-93125000D02*
G01*
X149290000Y-93125000D01*
X149290000Y-91025000D01*
X149590000Y-91025000D01*
X149590000Y-93125000D01*
G37*
D16*
X149590000Y-93125000D02*
X149290000Y-93125000D01*
X149290000Y-91025000D01*
X149590000Y-91025000D01*
X149590000Y-93125000D01*
D12*
%TO.C,R7*%
X164037742Y-98537500D02*
X164512258Y-98537500D01*
X164037742Y-99582500D02*
X164512258Y-99582500D01*
D15*
%TO.C,D3*%
X157095000Y-92775000D02*
X156045000Y-92075000D01*
X156045000Y-92075000D02*
X157095000Y-91325000D01*
X157095000Y-91325000D02*
X157095000Y-92775000D01*
G36*
X156145000Y-93125000D02*
G01*
X155845000Y-93125000D01*
X155845000Y-91025000D01*
X156145000Y-91025000D01*
X156145000Y-93125000D01*
G37*
D16*
X156145000Y-93125000D02*
X155845000Y-93125000D01*
X155845000Y-91025000D01*
X156145000Y-91025000D01*
X156145000Y-93125000D01*
%TD*%
M02*
