%TF.GenerationSoftware,KiCad,Pcbnew,(6.0.7)*%
%TF.CreationDate,2023-03-06T01:25:52-05:00*%
%TF.ProjectId,CoreIO,436f7265-494f-42e6-9b69-6361645f7063,rev?*%
%TF.SameCoordinates,Original*%
%TF.FileFunction,Legend,Top*%
%TF.FilePolarity,Positive*%
%FSLAX46Y46*%
G04 Gerber Fmt 4.6, Leading zero omitted, Abs format (unit mm)*
G04 Created by KiCad (PCBNEW (6.0.7)) date 2023-03-06 01:25:52*
%MOMM*%
%LPD*%
G01*
G04 APERTURE LIST*
%ADD10C,0.300000*%
%ADD11C,0.150000*%
%ADD12C,0.127000*%
%ADD13C,0.200000*%
%ADD14C,0.120000*%
%ADD15C,0.010000*%
%ADD16C,0.254000*%
G04 APERTURE END LIST*
D10*
X121047142Y-59134285D02*
X120951904Y-59229523D01*
X120666190Y-59324761D01*
X120475714Y-59324761D01*
X120190000Y-59229523D01*
X119999523Y-59039047D01*
X119904285Y-58848571D01*
X119809047Y-58467619D01*
X119809047Y-58181904D01*
X119904285Y-57800952D01*
X119999523Y-57610476D01*
X120190000Y-57420000D01*
X120475714Y-57324761D01*
X120666190Y-57324761D01*
X120951904Y-57420000D01*
X121047142Y-57515238D01*
X122285238Y-57324761D02*
X122666190Y-57324761D01*
X122856666Y-57420000D01*
X123047142Y-57610476D01*
X123142380Y-57991428D01*
X123142380Y-58658095D01*
X123047142Y-59039047D01*
X122856666Y-59229523D01*
X122666190Y-59324761D01*
X122285238Y-59324761D01*
X122094761Y-59229523D01*
X121904285Y-59039047D01*
X121809047Y-58658095D01*
X121809047Y-57991428D01*
X121904285Y-57610476D01*
X122094761Y-57420000D01*
X122285238Y-57324761D01*
X123713809Y-57324761D02*
X124856666Y-57324761D01*
X124285238Y-59324761D02*
X124285238Y-57324761D01*
X125428095Y-59229523D02*
X125713809Y-59324761D01*
X126190000Y-59324761D01*
X126380476Y-59229523D01*
X126475714Y-59134285D01*
X126570952Y-58943809D01*
X126570952Y-58753333D01*
X126475714Y-58562857D01*
X126380476Y-58467619D01*
X126190000Y-58372380D01*
X125809047Y-58277142D01*
X125618571Y-58181904D01*
X125523333Y-58086666D01*
X125428095Y-57896190D01*
X125428095Y-57705714D01*
X125523333Y-57515238D01*
X125618571Y-57420000D01*
X125809047Y-57324761D01*
X126285238Y-57324761D01*
X126570952Y-57420000D01*
D11*
%TO.C,Q2*%
X174537619Y-71215238D02*
X174490000Y-71310476D01*
X174394761Y-71405714D01*
X174251904Y-71548571D01*
X174204285Y-71643809D01*
X174204285Y-71739047D01*
X174442380Y-71691428D02*
X174394761Y-71786666D01*
X174299523Y-71881904D01*
X174109047Y-71929523D01*
X173775714Y-71929523D01*
X173585238Y-71881904D01*
X173490000Y-71786666D01*
X173442380Y-71691428D01*
X173442380Y-71500952D01*
X173490000Y-71405714D01*
X173585238Y-71310476D01*
X173775714Y-71262857D01*
X174109047Y-71262857D01*
X174299523Y-71310476D01*
X174394761Y-71405714D01*
X174442380Y-71500952D01*
X174442380Y-71691428D01*
X173537619Y-70881904D02*
X173490000Y-70834285D01*
X173442380Y-70739047D01*
X173442380Y-70500952D01*
X173490000Y-70405714D01*
X173537619Y-70358095D01*
X173632857Y-70310476D01*
X173728095Y-70310476D01*
X173870952Y-70358095D01*
X174442380Y-70929523D01*
X174442380Y-70310476D01*
D10*
%TO.C,G\u002A\u002A\u002A*%
X145977428Y-110998000D02*
X145832285Y-110925428D01*
X145614571Y-110925428D01*
X145396857Y-110998000D01*
X145251714Y-111143142D01*
X145179142Y-111288285D01*
X145106571Y-111578571D01*
X145106571Y-111796285D01*
X145179142Y-112086571D01*
X145251714Y-112231714D01*
X145396857Y-112376857D01*
X145614571Y-112449428D01*
X145759714Y-112449428D01*
X145977428Y-112376857D01*
X146050000Y-112304285D01*
X146050000Y-111796285D01*
X145759714Y-111796285D01*
X146920857Y-110925428D02*
X146920857Y-111288285D01*
X146558000Y-111143142D02*
X146920857Y-111288285D01*
X147283714Y-111143142D01*
X146703142Y-111578571D02*
X146920857Y-111288285D01*
X147138571Y-111578571D01*
X148082000Y-110925428D02*
X148082000Y-111288285D01*
X147719142Y-111143142D02*
X148082000Y-111288285D01*
X148444857Y-111143142D01*
X147864285Y-111578571D02*
X148082000Y-111288285D01*
X148299714Y-111578571D01*
X149243142Y-110925428D02*
X149243142Y-111288285D01*
X148880285Y-111143142D02*
X149243142Y-111288285D01*
X149606000Y-111143142D01*
X149025428Y-111578571D02*
X149243142Y-111288285D01*
X149460857Y-111578571D01*
D11*
%TO.C,R8*%
X162393333Y-100528380D02*
X162060000Y-100052190D01*
X161821904Y-100528380D02*
X161821904Y-99528380D01*
X162202857Y-99528380D01*
X162298095Y-99576000D01*
X162345714Y-99623619D01*
X162393333Y-99718857D01*
X162393333Y-99861714D01*
X162345714Y-99956952D01*
X162298095Y-100004571D01*
X162202857Y-100052190D01*
X161821904Y-100052190D01*
X162964761Y-99956952D02*
X162869523Y-99909333D01*
X162821904Y-99861714D01*
X162774285Y-99766476D01*
X162774285Y-99718857D01*
X162821904Y-99623619D01*
X162869523Y-99576000D01*
X162964761Y-99528380D01*
X163155238Y-99528380D01*
X163250476Y-99576000D01*
X163298095Y-99623619D01*
X163345714Y-99718857D01*
X163345714Y-99766476D01*
X163298095Y-99861714D01*
X163250476Y-99909333D01*
X163155238Y-99956952D01*
X162964761Y-99956952D01*
X162869523Y-100004571D01*
X162821904Y-100052190D01*
X162774285Y-100147428D01*
X162774285Y-100337904D01*
X162821904Y-100433142D01*
X162869523Y-100480761D01*
X162964761Y-100528380D01*
X163155238Y-100528380D01*
X163250476Y-100480761D01*
X163298095Y-100433142D01*
X163345714Y-100337904D01*
X163345714Y-100147428D01*
X163298095Y-100052190D01*
X163250476Y-100004571D01*
X163155238Y-99956952D01*
%TO.C,J2*%
X122856666Y-69222380D02*
X122856666Y-69936666D01*
X122809047Y-70079523D01*
X122713809Y-70174761D01*
X122570952Y-70222380D01*
X122475714Y-70222380D01*
X123285238Y-69317619D02*
X123332857Y-69270000D01*
X123428095Y-69222380D01*
X123666190Y-69222380D01*
X123761428Y-69270000D01*
X123809047Y-69317619D01*
X123856666Y-69412857D01*
X123856666Y-69508095D01*
X123809047Y-69650952D01*
X123237619Y-70222380D01*
X123856666Y-70222380D01*
%TO.C,D1*%
X167550509Y-84526380D02*
X167550509Y-83526380D01*
X167788605Y-83526380D01*
X167931462Y-83574000D01*
X168026700Y-83669238D01*
X168074319Y-83764476D01*
X168121938Y-83954952D01*
X168121938Y-84097809D01*
X168074319Y-84288285D01*
X168026700Y-84383523D01*
X167931462Y-84478761D01*
X167788605Y-84526380D01*
X167550509Y-84526380D01*
X169074319Y-84526380D02*
X168502890Y-84526380D01*
X168788605Y-84526380D02*
X168788605Y-83526380D01*
X168693366Y-83669238D01*
X168598128Y-83764476D01*
X168502890Y-83812095D01*
%TO.C,S1*%
X147828095Y-80160761D02*
X147970952Y-80208380D01*
X148209047Y-80208380D01*
X148304285Y-80160761D01*
X148351904Y-80113142D01*
X148399523Y-80017904D01*
X148399523Y-79922666D01*
X148351904Y-79827428D01*
X148304285Y-79779809D01*
X148209047Y-79732190D01*
X148018571Y-79684571D01*
X147923333Y-79636952D01*
X147875714Y-79589333D01*
X147828095Y-79494095D01*
X147828095Y-79398857D01*
X147875714Y-79303619D01*
X147923333Y-79256000D01*
X148018571Y-79208380D01*
X148256666Y-79208380D01*
X148399523Y-79256000D01*
X149351904Y-80208380D02*
X148780476Y-80208380D01*
X149066190Y-80208380D02*
X149066190Y-79208380D01*
X148970952Y-79351238D01*
X148875714Y-79446476D01*
X148780476Y-79494095D01*
%TO.C,R6*%
X162393333Y-93416380D02*
X162060000Y-92940190D01*
X161821904Y-93416380D02*
X161821904Y-92416380D01*
X162202857Y-92416380D01*
X162298095Y-92464000D01*
X162345714Y-92511619D01*
X162393333Y-92606857D01*
X162393333Y-92749714D01*
X162345714Y-92844952D01*
X162298095Y-92892571D01*
X162202857Y-92940190D01*
X161821904Y-92940190D01*
X163250476Y-92416380D02*
X163060000Y-92416380D01*
X162964761Y-92464000D01*
X162917142Y-92511619D01*
X162821904Y-92654476D01*
X162774285Y-92844952D01*
X162774285Y-93225904D01*
X162821904Y-93321142D01*
X162869523Y-93368761D01*
X162964761Y-93416380D01*
X163155238Y-93416380D01*
X163250476Y-93368761D01*
X163298095Y-93321142D01*
X163345714Y-93225904D01*
X163345714Y-92987809D01*
X163298095Y-92892571D01*
X163250476Y-92844952D01*
X163155238Y-92797333D01*
X162964761Y-92797333D01*
X162869523Y-92844952D01*
X162821904Y-92892571D01*
X162774285Y-92987809D01*
%TO.C,R10*%
X161663142Y-103068380D02*
X161329809Y-102592190D01*
X161091714Y-103068380D02*
X161091714Y-102068380D01*
X161472666Y-102068380D01*
X161567904Y-102116000D01*
X161615523Y-102163619D01*
X161663142Y-102258857D01*
X161663142Y-102401714D01*
X161615523Y-102496952D01*
X161567904Y-102544571D01*
X161472666Y-102592190D01*
X161091714Y-102592190D01*
X162615523Y-103068380D02*
X162044095Y-103068380D01*
X162329809Y-103068380D02*
X162329809Y-102068380D01*
X162234571Y-102211238D01*
X162139333Y-102306476D01*
X162044095Y-102354095D01*
X163234571Y-102068380D02*
X163329809Y-102068380D01*
X163425047Y-102116000D01*
X163472666Y-102163619D01*
X163520285Y-102258857D01*
X163567904Y-102449333D01*
X163567904Y-102687428D01*
X163520285Y-102877904D01*
X163472666Y-102973142D01*
X163425047Y-103020761D01*
X163329809Y-103068380D01*
X163234571Y-103068380D01*
X163139333Y-103020761D01*
X163091714Y-102973142D01*
X163044095Y-102877904D01*
X162996476Y-102687428D01*
X162996476Y-102449333D01*
X163044095Y-102258857D01*
X163091714Y-102163619D01*
X163139333Y-102116000D01*
X163234571Y-102068380D01*
%TO.C,J3*%
X172386666Y-59142380D02*
X172386666Y-59856666D01*
X172339047Y-59999523D01*
X172243809Y-60094761D01*
X172100952Y-60142380D01*
X172005714Y-60142380D01*
X172767619Y-59142380D02*
X173386666Y-59142380D01*
X173053333Y-59523333D01*
X173196190Y-59523333D01*
X173291428Y-59570952D01*
X173339047Y-59618571D01*
X173386666Y-59713809D01*
X173386666Y-59951904D01*
X173339047Y-60047142D01*
X173291428Y-60094761D01*
X173196190Y-60142380D01*
X172910476Y-60142380D01*
X172815238Y-60094761D01*
X172767619Y-60047142D01*
%TO.C,J1*%
X168576666Y-103592380D02*
X168576666Y-104306666D01*
X168529047Y-104449523D01*
X168433809Y-104544761D01*
X168290952Y-104592380D01*
X168195714Y-104592380D01*
X169576666Y-104592380D02*
X169005238Y-104592380D01*
X169290952Y-104592380D02*
X169290952Y-103592380D01*
X169195714Y-103735238D01*
X169100476Y-103830476D01*
X169005238Y-103878095D01*
%TO.C,S2*%
X147574095Y-70000761D02*
X147716952Y-70048380D01*
X147955047Y-70048380D01*
X148050285Y-70000761D01*
X148097904Y-69953142D01*
X148145523Y-69857904D01*
X148145523Y-69762666D01*
X148097904Y-69667428D01*
X148050285Y-69619809D01*
X147955047Y-69572190D01*
X147764571Y-69524571D01*
X147669333Y-69476952D01*
X147621714Y-69429333D01*
X147574095Y-69334095D01*
X147574095Y-69238857D01*
X147621714Y-69143619D01*
X147669333Y-69096000D01*
X147764571Y-69048380D01*
X148002666Y-69048380D01*
X148145523Y-69096000D01*
X148526476Y-69143619D02*
X148574095Y-69096000D01*
X148669333Y-69048380D01*
X148907428Y-69048380D01*
X149002666Y-69096000D01*
X149050285Y-69143619D01*
X149097904Y-69238857D01*
X149097904Y-69334095D01*
X149050285Y-69476952D01*
X148478857Y-70048380D01*
X149097904Y-70048380D01*
D10*
%TO.C,*%
D11*
%TO.C,J4*%
X172386666Y-128992380D02*
X172386666Y-129706666D01*
X172339047Y-129849523D01*
X172243809Y-129944761D01*
X172100952Y-129992380D01*
X172005714Y-129992380D01*
X173291428Y-129325714D02*
X173291428Y-129992380D01*
X173053333Y-128944761D02*
X172815238Y-129659047D01*
X173434285Y-129659047D01*
%TO.C,R11*%
X161663142Y-101798380D02*
X161329809Y-101322190D01*
X161091714Y-101798380D02*
X161091714Y-100798380D01*
X161472666Y-100798380D01*
X161567904Y-100846000D01*
X161615523Y-100893619D01*
X161663142Y-100988857D01*
X161663142Y-101131714D01*
X161615523Y-101226952D01*
X161567904Y-101274571D01*
X161472666Y-101322190D01*
X161091714Y-101322190D01*
X162615523Y-101798380D02*
X162044095Y-101798380D01*
X162329809Y-101798380D02*
X162329809Y-100798380D01*
X162234571Y-100941238D01*
X162139333Y-101036476D01*
X162044095Y-101084095D01*
X163567904Y-101798380D02*
X162996476Y-101798380D01*
X163282190Y-101798380D02*
X163282190Y-100798380D01*
X163186952Y-100941238D01*
X163091714Y-101036476D01*
X162996476Y-101084095D01*
%TO.C,R1*%
X170521333Y-84780380D02*
X170188000Y-84304190D01*
X169949904Y-84780380D02*
X169949904Y-83780380D01*
X170330857Y-83780380D01*
X170426095Y-83828000D01*
X170473714Y-83875619D01*
X170521333Y-83970857D01*
X170521333Y-84113714D01*
X170473714Y-84208952D01*
X170426095Y-84256571D01*
X170330857Y-84304190D01*
X169949904Y-84304190D01*
X171473714Y-84780380D02*
X170902285Y-84780380D01*
X171188000Y-84780380D02*
X171188000Y-83780380D01*
X171092761Y-83923238D01*
X170997523Y-84018476D01*
X170902285Y-84066095D01*
%TO.C,R2*%
X162393333Y-97988380D02*
X162060000Y-97512190D01*
X161821904Y-97988380D02*
X161821904Y-96988380D01*
X162202857Y-96988380D01*
X162298095Y-97036000D01*
X162345714Y-97083619D01*
X162393333Y-97178857D01*
X162393333Y-97321714D01*
X162345714Y-97416952D01*
X162298095Y-97464571D01*
X162202857Y-97512190D01*
X161821904Y-97512190D01*
X162774285Y-97083619D02*
X162821904Y-97036000D01*
X162917142Y-96988380D01*
X163155238Y-96988380D01*
X163250476Y-97036000D01*
X163298095Y-97083619D01*
X163345714Y-97178857D01*
X163345714Y-97274095D01*
X163298095Y-97416952D01*
X162726666Y-97988380D01*
X163345714Y-97988380D01*
%TO.C,Q1*%
X172251619Y-118967238D02*
X172204000Y-119062476D01*
X172108761Y-119157714D01*
X171965904Y-119300571D01*
X171918285Y-119395809D01*
X171918285Y-119491047D01*
X172156380Y-119443428D02*
X172108761Y-119538666D01*
X172013523Y-119633904D01*
X171823047Y-119681523D01*
X171489714Y-119681523D01*
X171299238Y-119633904D01*
X171204000Y-119538666D01*
X171156380Y-119443428D01*
X171156380Y-119252952D01*
X171204000Y-119157714D01*
X171299238Y-119062476D01*
X171489714Y-119014857D01*
X171823047Y-119014857D01*
X172013523Y-119062476D01*
X172108761Y-119157714D01*
X172156380Y-119252952D01*
X172156380Y-119443428D01*
X172156380Y-118062476D02*
X172156380Y-118633904D01*
X172156380Y-118348190D02*
X171156380Y-118348190D01*
X171299238Y-118443428D01*
X171394476Y-118538666D01*
X171442095Y-118633904D01*
%TO.C,R5*%
X162393333Y-96718380D02*
X162060000Y-96242190D01*
X161821904Y-96718380D02*
X161821904Y-95718380D01*
X162202857Y-95718380D01*
X162298095Y-95766000D01*
X162345714Y-95813619D01*
X162393333Y-95908857D01*
X162393333Y-96051714D01*
X162345714Y-96146952D01*
X162298095Y-96194571D01*
X162202857Y-96242190D01*
X161821904Y-96242190D01*
X163298095Y-95718380D02*
X162821904Y-95718380D01*
X162774285Y-96194571D01*
X162821904Y-96146952D01*
X162917142Y-96099333D01*
X163155238Y-96099333D01*
X163250476Y-96146952D01*
X163298095Y-96194571D01*
X163345714Y-96289809D01*
X163345714Y-96527904D01*
X163298095Y-96623142D01*
X163250476Y-96670761D01*
X163155238Y-96718380D01*
X162917142Y-96718380D01*
X162821904Y-96670761D01*
X162774285Y-96623142D01*
D10*
%TO.C,*%
D11*
%TO.C,R9*%
X162393333Y-95448380D02*
X162060000Y-94972190D01*
X161821904Y-95448380D02*
X161821904Y-94448380D01*
X162202857Y-94448380D01*
X162298095Y-94496000D01*
X162345714Y-94543619D01*
X162393333Y-94638857D01*
X162393333Y-94781714D01*
X162345714Y-94876952D01*
X162298095Y-94924571D01*
X162202857Y-94972190D01*
X161821904Y-94972190D01*
X162869523Y-95448380D02*
X163060000Y-95448380D01*
X163155238Y-95400761D01*
X163202857Y-95353142D01*
X163298095Y-95210285D01*
X163345714Y-95019809D01*
X163345714Y-94638857D01*
X163298095Y-94543619D01*
X163250476Y-94496000D01*
X163155238Y-94448380D01*
X162964761Y-94448380D01*
X162869523Y-94496000D01*
X162821904Y-94543619D01*
X162774285Y-94638857D01*
X162774285Y-94876952D01*
X162821904Y-94972190D01*
X162869523Y-95019809D01*
X162964761Y-95067428D01*
X163155238Y-95067428D01*
X163250476Y-95019809D01*
X163298095Y-94972190D01*
X163345714Y-94876952D01*
%TO.C,S3*%
X147828095Y-59840761D02*
X147970952Y-59888380D01*
X148209047Y-59888380D01*
X148304285Y-59840761D01*
X148351904Y-59793142D01*
X148399523Y-59697904D01*
X148399523Y-59602666D01*
X148351904Y-59507428D01*
X148304285Y-59459809D01*
X148209047Y-59412190D01*
X148018571Y-59364571D01*
X147923333Y-59316952D01*
X147875714Y-59269333D01*
X147828095Y-59174095D01*
X147828095Y-59078857D01*
X147875714Y-58983619D01*
X147923333Y-58936000D01*
X148018571Y-58888380D01*
X148256666Y-58888380D01*
X148399523Y-58936000D01*
X148732857Y-58888380D02*
X149351904Y-58888380D01*
X149018571Y-59269333D01*
X149161428Y-59269333D01*
X149256666Y-59316952D01*
X149304285Y-59364571D01*
X149351904Y-59459809D01*
X149351904Y-59697904D01*
X149304285Y-59793142D01*
X149256666Y-59840761D01*
X149161428Y-59888380D01*
X148875714Y-59888380D01*
X148780476Y-59840761D01*
X148732857Y-59793142D01*
%TO.C,D2*%
X147851904Y-89352380D02*
X147851904Y-88352380D01*
X148090000Y-88352380D01*
X148232857Y-88400000D01*
X148328095Y-88495238D01*
X148375714Y-88590476D01*
X148423333Y-88780952D01*
X148423333Y-88923809D01*
X148375714Y-89114285D01*
X148328095Y-89209523D01*
X148232857Y-89304761D01*
X148090000Y-89352380D01*
X147851904Y-89352380D01*
X148804285Y-88447619D02*
X148851904Y-88400000D01*
X148947142Y-88352380D01*
X149185238Y-88352380D01*
X149280476Y-88400000D01*
X149328095Y-88447619D01*
X149375714Y-88542857D01*
X149375714Y-88638095D01*
X149328095Y-88780952D01*
X148756666Y-89352380D01*
X149375714Y-89352380D01*
%TO.C,R7*%
X162393333Y-99258380D02*
X162060000Y-98782190D01*
X161821904Y-99258380D02*
X161821904Y-98258380D01*
X162202857Y-98258380D01*
X162298095Y-98306000D01*
X162345714Y-98353619D01*
X162393333Y-98448857D01*
X162393333Y-98591714D01*
X162345714Y-98686952D01*
X162298095Y-98734571D01*
X162202857Y-98782190D01*
X161821904Y-98782190D01*
X162726666Y-98258380D02*
X163393333Y-98258380D01*
X162964761Y-99258380D01*
%TO.C,D3*%
X156233904Y-89352380D02*
X156233904Y-88352380D01*
X156472000Y-88352380D01*
X156614857Y-88400000D01*
X156710095Y-88495238D01*
X156757714Y-88590476D01*
X156805333Y-88780952D01*
X156805333Y-88923809D01*
X156757714Y-89114285D01*
X156710095Y-89209523D01*
X156614857Y-89304761D01*
X156472000Y-89352380D01*
X156233904Y-89352380D01*
X157138666Y-88352380D02*
X157757714Y-88352380D01*
X157424380Y-88733333D01*
X157567238Y-88733333D01*
X157662476Y-88780952D01*
X157710095Y-88828571D01*
X157757714Y-88923809D01*
X157757714Y-89161904D01*
X157710095Y-89257142D01*
X157662476Y-89304761D01*
X157567238Y-89352380D01*
X157281523Y-89352380D01*
X157186285Y-89304761D01*
X157138666Y-89257142D01*
D12*
%TO.C,Q2*%
X172746000Y-72020000D02*
X172746000Y-70220000D01*
X169646000Y-70220000D02*
X169646000Y-72020000D01*
D13*
X170346000Y-73430000D02*
G75*
G03*
X170346000Y-73430000I-100000J0D01*
G01*
%TO.C,G\u002A\u002A\u002A*%
G36*
X140851009Y-115759412D02*
G01*
X140704569Y-115395703D01*
X140624850Y-115115353D01*
X140608953Y-114896697D01*
X140653978Y-114718071D01*
X140757024Y-114557811D01*
X140832357Y-114474766D01*
X140984219Y-114287335D01*
X141032541Y-114123419D01*
X141030551Y-114098274D01*
X148779771Y-114098274D01*
X152246329Y-114059138D01*
X152991945Y-110628678D01*
X153140585Y-109942083D01*
X153278674Y-109298937D01*
X153403271Y-108713313D01*
X153511437Y-108199286D01*
X153600230Y-107770929D01*
X153666711Y-107442316D01*
X153707939Y-107227520D01*
X153720973Y-107140616D01*
X153720851Y-107139946D01*
X153675971Y-107172470D01*
X153566597Y-107304675D01*
X153409555Y-107515008D01*
X153236504Y-107760348D01*
X152572797Y-108721205D01*
X151984583Y-109567469D01*
X151466686Y-110306215D01*
X151013935Y-110944515D01*
X150621157Y-111489444D01*
X150283179Y-111948075D01*
X149994828Y-112327481D01*
X149750931Y-112634736D01*
X149546316Y-112876913D01*
X149375809Y-113061087D01*
X149319180Y-113117051D01*
X149065351Y-113368070D01*
X148903826Y-113550736D01*
X148815722Y-113691286D01*
X148782156Y-113815956D01*
X148779771Y-113866505D01*
X148779771Y-114098274D01*
X141030551Y-114098274D01*
X141026037Y-114041226D01*
X141000352Y-113932705D01*
X140939337Y-113697211D01*
X140846751Y-113348416D01*
X140726351Y-112899996D01*
X140581894Y-112365622D01*
X140417140Y-111758968D01*
X140235844Y-111093708D01*
X140041766Y-110383515D01*
X139838663Y-109642062D01*
X139630292Y-108883023D01*
X139420412Y-108120070D01*
X139212779Y-107366879D01*
X139153317Y-107151663D01*
X140935084Y-107151663D01*
X140961075Y-107308172D01*
X140972484Y-107362443D01*
X141000102Y-107490331D01*
X141054721Y-107744849D01*
X141132890Y-108109859D01*
X141231158Y-108569224D01*
X141346075Y-109106810D01*
X141474188Y-109706478D01*
X141612048Y-110352093D01*
X141702243Y-110774655D01*
X141843930Y-111432872D01*
X141978746Y-112048320D01*
X142103238Y-112606003D01*
X142213950Y-113090929D01*
X142307429Y-113488103D01*
X142380220Y-113782532D01*
X142428869Y-113959221D01*
X142446340Y-114004397D01*
X142512334Y-114035943D01*
X142661304Y-114060022D01*
X142906475Y-114077327D01*
X143261075Y-114088549D01*
X143738329Y-114094380D01*
X144190432Y-114095632D01*
X145860230Y-114095632D01*
X145860230Y-113834650D01*
X145818966Y-113599961D01*
X145673221Y-113421720D01*
X145665001Y-113414966D01*
X145503947Y-113277723D01*
X145342583Y-113124754D01*
X145171915Y-112944506D01*
X144982951Y-112725428D01*
X144766699Y-112455965D01*
X144514166Y-112124566D01*
X144216360Y-111719679D01*
X143864288Y-111229751D01*
X143448957Y-110643228D01*
X142961375Y-109948560D01*
X142913785Y-109880546D01*
X142517836Y-109315266D01*
X142147777Y-108788326D01*
X141811916Y-108311460D01*
X141518566Y-107896405D01*
X141276038Y-107554896D01*
X141092641Y-107298667D01*
X140976686Y-107139453D01*
X140936635Y-107088736D01*
X140935084Y-107151663D01*
X139153317Y-107151663D01*
X139011153Y-106637121D01*
X138819290Y-105944470D01*
X138640948Y-105302600D01*
X138479885Y-104725184D01*
X138339859Y-104225895D01*
X138224628Y-103818407D01*
X138137949Y-103516393D01*
X138083579Y-103333526D01*
X138081500Y-103326874D01*
X137937337Y-102941363D01*
X137740004Y-102553425D01*
X137466142Y-102118416D01*
X137394076Y-102013081D01*
X137000175Y-101443684D01*
X136679933Y-100978634D01*
X136424041Y-100602171D01*
X136223192Y-100298535D01*
X136068078Y-100051965D01*
X136046094Y-100013945D01*
X139729196Y-100013945D01*
X139775573Y-100076451D01*
X139907932Y-100237063D01*
X140116113Y-100484042D01*
X140389959Y-100805648D01*
X140719309Y-101190141D01*
X141094006Y-101625780D01*
X141503889Y-102100825D01*
X141938801Y-102603538D01*
X142388582Y-103122177D01*
X142843073Y-103645003D01*
X143292116Y-104160275D01*
X143725552Y-104656254D01*
X144133221Y-105121200D01*
X144504965Y-105543373D01*
X144830624Y-105911032D01*
X144883614Y-105970571D01*
X145288901Y-106375549D01*
X145660131Y-106642909D01*
X145733069Y-106681125D01*
X146192900Y-106844470D01*
X146742659Y-106942576D01*
X147340956Y-106973956D01*
X147946397Y-106937123D01*
X148517592Y-106830591D01*
X148670288Y-106786646D01*
X148929127Y-106692611D01*
X149148814Y-106590807D01*
X149256804Y-106522134D01*
X149343275Y-106434770D01*
X149512298Y-106251824D01*
X149753397Y-105985256D01*
X150056095Y-105647027D01*
X150409918Y-105249099D01*
X150804389Y-104803433D01*
X151229033Y-104321988D01*
X151673374Y-103816727D01*
X152126937Y-103299610D01*
X152579244Y-102782597D01*
X153019821Y-102277651D01*
X153438193Y-101796731D01*
X153823882Y-101351799D01*
X154166413Y-100954815D01*
X154455312Y-100617741D01*
X154680101Y-100352538D01*
X154830305Y-100171165D01*
X154895448Y-100085585D01*
X154897080Y-100082241D01*
X154849977Y-100021488D01*
X154704617Y-99947227D01*
X154641621Y-99923990D01*
X154518310Y-99906736D01*
X154261607Y-99890509D01*
X153884092Y-99875359D01*
X153398347Y-99861334D01*
X152816951Y-99848483D01*
X152152487Y-99836855D01*
X151417534Y-99826499D01*
X150624675Y-99817463D01*
X149786490Y-99809797D01*
X148915560Y-99803549D01*
X148024465Y-99798768D01*
X147125788Y-99795503D01*
X146232109Y-99793803D01*
X145356008Y-99793717D01*
X144510067Y-99795293D01*
X143706867Y-99798580D01*
X142958989Y-99803628D01*
X142279014Y-99810485D01*
X141679522Y-99819200D01*
X141173095Y-99829821D01*
X140772314Y-99842398D01*
X140489759Y-99856979D01*
X140367845Y-99868572D01*
X140083868Y-99913878D01*
X139864794Y-99960201D01*
X139743313Y-100000098D01*
X139729196Y-100013945D01*
X136046094Y-100013945D01*
X135949390Y-99846701D01*
X135857822Y-99666984D01*
X135784065Y-99497051D01*
X135718811Y-99321144D01*
X135652753Y-99123501D01*
X135610549Y-98993150D01*
X135450900Y-98444043D01*
X135371651Y-98006168D01*
X135380846Y-97663972D01*
X135486527Y-97401905D01*
X135696737Y-97204417D01*
X136019518Y-97055956D01*
X136462912Y-96940971D01*
X136694281Y-96897667D01*
X136798193Y-96883126D01*
X136937330Y-96870059D01*
X137118694Y-96858412D01*
X137349288Y-96848133D01*
X137636114Y-96839169D01*
X137986175Y-96831468D01*
X138406473Y-96824975D01*
X138904011Y-96819639D01*
X139485793Y-96815407D01*
X140158820Y-96812225D01*
X140930095Y-96810040D01*
X141806621Y-96808801D01*
X142795400Y-96808454D01*
X143903436Y-96808946D01*
X145137730Y-96810224D01*
X146505285Y-96812235D01*
X147724254Y-96814382D01*
X149197720Y-96816938D01*
X150532345Y-96819078D01*
X151735260Y-96821161D01*
X152813599Y-96823546D01*
X153774496Y-96826593D01*
X154625083Y-96830660D01*
X155372493Y-96836107D01*
X156023860Y-96843293D01*
X156586316Y-96852576D01*
X157066994Y-96864315D01*
X157473028Y-96878870D01*
X157811551Y-96896600D01*
X158089695Y-96917864D01*
X158314594Y-96943021D01*
X158493380Y-96972429D01*
X158633188Y-97006449D01*
X158741149Y-97045438D01*
X158824396Y-97089756D01*
X158890064Y-97139763D01*
X158945285Y-97195816D01*
X158997191Y-97258276D01*
X159052917Y-97327501D01*
X159104329Y-97387206D01*
X159238805Y-97550066D01*
X159319966Y-97701656D01*
X159349476Y-97873395D01*
X159328999Y-98096704D01*
X159260198Y-98403003D01*
X159174754Y-98717258D01*
X159046736Y-99130288D01*
X158899701Y-99506341D01*
X158717390Y-99875751D01*
X158483541Y-100268848D01*
X158181897Y-100715965D01*
X157877028Y-101138115D01*
X157615534Y-101497315D01*
X157390140Y-101820877D01*
X157194057Y-102125420D01*
X157020496Y-102427561D01*
X156862668Y-102743917D01*
X156713785Y-103091106D01*
X156567057Y-103485746D01*
X156415697Y-103944454D01*
X156252914Y-104483847D01*
X156071922Y-105120543D01*
X155865930Y-105871159D01*
X155714385Y-106431839D01*
X155614296Y-106801949D01*
X155488082Y-107266372D01*
X155340469Y-107807901D01*
X155176182Y-108409333D01*
X154999945Y-109053461D01*
X154816483Y-109723079D01*
X154630520Y-110400983D01*
X154446781Y-111069966D01*
X154269991Y-111712824D01*
X154104874Y-112312350D01*
X153956154Y-112851339D01*
X153828557Y-113312585D01*
X153726807Y-113678883D01*
X153655629Y-113933028D01*
X153627503Y-114031620D01*
X153652796Y-114152872D01*
X153758137Y-114336047D01*
X153857978Y-114467166D01*
X153974170Y-114617984D01*
X154049962Y-114760339D01*
X154081513Y-114914232D01*
X154064979Y-115099665D01*
X153996517Y-115336640D01*
X153872284Y-115645156D01*
X153688438Y-116045217D01*
X153466456Y-116504941D01*
X153333578Y-116771880D01*
X153146291Y-117140129D01*
X152911525Y-117596559D01*
X152636214Y-118128042D01*
X152327290Y-118721447D01*
X151991684Y-119363646D01*
X151636329Y-120041509D01*
X151268158Y-120741908D01*
X150894102Y-121451713D01*
X150521095Y-122157794D01*
X150156067Y-122847024D01*
X149805951Y-123506272D01*
X149477681Y-124122410D01*
X149178187Y-124682308D01*
X148914402Y-125172837D01*
X148693259Y-125580868D01*
X148521689Y-125893272D01*
X148406625Y-126096919D01*
X148368637Y-126159832D01*
X148199118Y-126370750D01*
X148001867Y-126548250D01*
X147955729Y-126579243D01*
X147660876Y-126690213D01*
X147313041Y-126721585D01*
X146976099Y-126672988D01*
X146772587Y-126586104D01*
X146568802Y-126435920D01*
X146398812Y-126276176D01*
X146337717Y-126181568D01*
X146215642Y-125969825D01*
X146039110Y-125653241D01*
X145814645Y-125244112D01*
X145548771Y-124754732D01*
X145248013Y-124197397D01*
X144918894Y-123584401D01*
X144567939Y-122928040D01*
X144201671Y-122240609D01*
X143826615Y-121534402D01*
X143449295Y-120821716D01*
X143076234Y-120114845D01*
X142713958Y-119426084D01*
X142368990Y-118767728D01*
X142047853Y-118152073D01*
X141757073Y-117591413D01*
X141503174Y-117098043D01*
X141292678Y-116684259D01*
X141132111Y-116362356D01*
X141119781Y-116336913D01*
X142867702Y-116336913D01*
X142901952Y-116435348D01*
X142999202Y-116641025D01*
X143151197Y-116939279D01*
X143349682Y-117315447D01*
X143586406Y-117754867D01*
X143853113Y-118242874D01*
X144141550Y-118764806D01*
X144443463Y-119305999D01*
X144750599Y-119851790D01*
X145054702Y-120387517D01*
X145347521Y-120898514D01*
X145620800Y-121370121D01*
X145866287Y-121787672D01*
X146075727Y-122136505D01*
X146240866Y-122401957D01*
X146353452Y-122569364D01*
X146405229Y-122624063D01*
X146406288Y-122623373D01*
X146406715Y-122547811D01*
X146398725Y-122341015D01*
X146395943Y-122283393D01*
X148275905Y-122283393D01*
X148277328Y-122456742D01*
X148286512Y-122560081D01*
X148303078Y-122604209D01*
X148326647Y-122599927D01*
X148331339Y-122595144D01*
X148379155Y-122519453D01*
X148491779Y-122329632D01*
X148661840Y-122038430D01*
X148881967Y-121658601D01*
X149144789Y-121202896D01*
X149442934Y-120684067D01*
X149769030Y-120114866D01*
X150101310Y-119533276D01*
X150523134Y-118793435D01*
X150876804Y-118169505D01*
X151166464Y-117650582D01*
X151396257Y-117225761D01*
X151570327Y-116884137D01*
X151692819Y-116614806D01*
X151767876Y-116406863D01*
X151799642Y-116249404D01*
X151792261Y-116131523D01*
X151749877Y-116042316D01*
X151676633Y-115970879D01*
X151576675Y-115906307D01*
X151496676Y-115861375D01*
X151365983Y-115795185D01*
X151231730Y-115747242D01*
X151066395Y-115713816D01*
X150842456Y-115691172D01*
X150532392Y-115675577D01*
X150108681Y-115663299D01*
X150021013Y-115661218D01*
X149539069Y-115652687D01*
X149183735Y-115657093D01*
X148935790Y-115680878D01*
X148776012Y-115730485D01*
X148685177Y-115812355D01*
X148644066Y-115932929D01*
X148633454Y-116098650D01*
X148633307Y-116126277D01*
X148628512Y-116258579D01*
X148615063Y-116518631D01*
X148594031Y-116888529D01*
X148566486Y-117350371D01*
X148533497Y-117886253D01*
X148496134Y-118478273D01*
X148455466Y-119108526D01*
X148451562Y-119168334D01*
X148398463Y-119988527D01*
X148355399Y-120673914D01*
X148321989Y-121235295D01*
X148297856Y-121683469D01*
X148282621Y-122029235D01*
X148275905Y-122283393D01*
X146395943Y-122283393D01*
X146383102Y-122017434D01*
X146360627Y-121591522D01*
X146332085Y-121077731D01*
X146298257Y-120490511D01*
X146259926Y-119844315D01*
X146221772Y-119216870D01*
X146165227Y-118325793D01*
X146112943Y-117559825D01*
X146065217Y-116922478D01*
X146022344Y-116417265D01*
X145984620Y-116047700D01*
X145952341Y-115817296D01*
X145928069Y-115731669D01*
X145862942Y-115690807D01*
X145732988Y-115661672D01*
X145518670Y-115642646D01*
X145200450Y-115632110D01*
X144758792Y-115628448D01*
X144681133Y-115628391D01*
X144109533Y-115636513D01*
X143667803Y-115664894D01*
X143340530Y-115719555D01*
X143112303Y-115806518D01*
X142967708Y-115931805D01*
X142891336Y-116101436D01*
X142867773Y-116321434D01*
X142867702Y-116336913D01*
X141119781Y-116336913D01*
X141067072Y-116228145D01*
X140851009Y-115759412D01*
G37*
D14*
%TO.C,J2*%
X125330000Y-68680000D02*
X126250000Y-68680000D01*
X120130000Y-68680000D02*
X121050000Y-68680000D01*
X120890000Y-64720000D02*
X120890000Y-63120000D01*
X125490000Y-64720000D02*
X125490000Y-63120000D01*
X123690000Y-60860000D02*
X123690000Y-65220000D01*
X121890000Y-64720000D02*
X120890000Y-64720000D01*
X125490000Y-63120000D02*
X124490000Y-63120000D01*
X120130000Y-67080000D02*
X121050000Y-67080000D01*
X126250000Y-60860000D02*
X120130000Y-60860000D01*
X125050000Y-67080000D02*
X125330000Y-67080000D01*
X121890000Y-63120000D02*
X121890000Y-64720000D01*
X120890000Y-63120000D02*
X121890000Y-63120000D01*
X120130000Y-60860000D02*
X120130000Y-68680000D01*
X124990000Y-63120000D02*
X124990000Y-60860000D01*
X126250000Y-68680000D02*
X126250000Y-60860000D01*
X126250000Y-67080000D02*
X125330000Y-67080000D01*
X125330000Y-67080000D02*
X125330000Y-68680000D01*
X122690000Y-65220000D02*
X122690000Y-60860000D01*
X123690000Y-65220000D02*
X122690000Y-65220000D01*
X124490000Y-63120000D02*
X124490000Y-64720000D01*
X125050000Y-67080000D02*
X125050000Y-68295000D01*
X121050000Y-68680000D02*
X121050000Y-67080000D01*
X124490000Y-63120000D02*
X124490000Y-60860000D01*
X124490000Y-64720000D02*
X125490000Y-64720000D01*
X121050000Y-67080000D02*
X121330000Y-67080000D01*
%TO.C,D1*%
X169773605Y-86460000D02*
X169773605Y-84990000D01*
X167488605Y-86460000D02*
X169773605Y-86460000D01*
X169773605Y-84990000D02*
X167488605Y-84990000D01*
D13*
%TO.C,S1*%
X153443176Y-80959176D02*
G75*
G03*
X153443176Y-80959176I-100000J0D01*
G01*
D12*
X152343176Y-83959176D02*
X139543176Y-83959176D01*
X139543176Y-83959176D02*
X139543176Y-78159176D01*
X139543176Y-78159176D02*
X152343176Y-78159176D01*
X152343176Y-78159176D02*
X152343176Y-83959176D01*
D11*
%TO.C,J3*%
X172020000Y-65470000D02*
X171620000Y-65470000D01*
X173720000Y-67070000D02*
X171720000Y-67070000D01*
X171920000Y-63770000D02*
X172020000Y-63870000D01*
X171620000Y-63870000D02*
X171720000Y-63770000D01*
X173620000Y-61770000D02*
X173320000Y-61470000D01*
X173820000Y-65470000D02*
X173820000Y-63870000D01*
X173420000Y-65470000D02*
X173820000Y-65470000D01*
X172020000Y-63870000D02*
X172020000Y-65470000D01*
X171720000Y-67070000D02*
X171720000Y-67670000D01*
X173820000Y-63870000D02*
X173720000Y-63770000D01*
X171520000Y-61470000D02*
X173920000Y-61470000D01*
X171620000Y-65470000D02*
X171620000Y-63870000D01*
X173520000Y-63770000D02*
X173420000Y-63870000D01*
X171720000Y-63770000D02*
X171920000Y-63770000D01*
X173420000Y-63870000D02*
X173420000Y-65470000D01*
X173420000Y-65470000D02*
X172020000Y-65470000D01*
X174920000Y-68670000D02*
X174620000Y-69170000D01*
X169920000Y-65570000D02*
X169920000Y-63970000D01*
X173720000Y-67670000D02*
X173720000Y-67070000D01*
X175520000Y-65570000D02*
X175520000Y-63970000D01*
X174620000Y-69170000D02*
X175220000Y-69170000D01*
X173720000Y-63770000D02*
X173520000Y-63770000D01*
X175220000Y-69170000D02*
X174920000Y-68670000D01*
X173920000Y-61470000D02*
X173620000Y-61770000D01*
X173720000Y-67670000D02*
X171720000Y-67670000D01*
D14*
%TO.C,J1*%
X170280605Y-101281317D02*
X170280605Y-102281317D01*
X166320605Y-86921317D02*
X166320605Y-87841317D01*
X171880605Y-101781317D02*
X174140605Y-101781317D01*
X174140605Y-86921317D02*
X166320605Y-86921317D01*
X170280605Y-102281317D02*
X171880605Y-102281317D01*
X171880605Y-88681317D02*
X170280605Y-88681317D01*
X174140605Y-100481317D02*
X169780605Y-100481317D01*
X174140605Y-103041317D02*
X174140605Y-86921317D01*
X167920605Y-87841317D02*
X167920605Y-88121317D01*
X166320605Y-102121317D02*
X166320605Y-103041317D01*
X167920605Y-101841317D02*
X167920605Y-102121317D01*
X169780605Y-89481317D02*
X174140605Y-89481317D01*
X171880605Y-101281317D02*
X174140605Y-101281317D01*
X167920605Y-86921317D02*
X167920605Y-87841317D01*
X167920605Y-103041317D02*
X167920605Y-102121317D01*
X171880605Y-87681317D02*
X171880605Y-88681317D01*
X167920605Y-102121317D02*
X166320605Y-102121317D01*
X167920605Y-101841317D02*
X166705605Y-101841317D01*
X170280605Y-88681317D02*
X170280605Y-87681317D01*
X171880605Y-102281317D02*
X171880605Y-101281317D01*
X170280605Y-87681317D02*
X171880605Y-87681317D01*
X169780605Y-100481317D02*
X169780605Y-89481317D01*
X166320605Y-87841317D02*
X167920605Y-87841317D01*
X171880605Y-101281317D02*
X170280605Y-101281317D01*
X166320605Y-103041317D02*
X174140605Y-103041317D01*
D12*
%TO.C,S2*%
X152343058Y-67988941D02*
X152343058Y-73788941D01*
X152343058Y-73788941D02*
X139543058Y-73788941D01*
X139543058Y-67988941D02*
X152343058Y-67988941D01*
X139543058Y-73788941D02*
X139543058Y-67988941D01*
D13*
X153443058Y-70788941D02*
G75*
G03*
X153443058Y-70788941I-100000J0D01*
G01*
%TO.C,*%
G36*
X142362686Y-133070925D02*
G01*
X142447097Y-133152846D01*
X142495514Y-133266297D01*
X142505373Y-133426202D01*
X142474110Y-133647485D01*
X142399160Y-133945071D01*
X142277961Y-134333884D01*
X142107948Y-134828849D01*
X142016667Y-135085085D01*
X141851102Y-135544827D01*
X141723784Y-135890737D01*
X141626618Y-136139011D01*
X141551507Y-136305849D01*
X141490355Y-136407448D01*
X141435066Y-136460007D01*
X141377543Y-136479725D01*
X141318077Y-136482775D01*
X141182301Y-136467805D01*
X141154594Y-136406419D01*
X141167955Y-136362799D01*
X141352986Y-135878372D01*
X141530755Y-135395119D01*
X141694804Y-134932315D01*
X141838673Y-134509238D01*
X141955904Y-134145161D01*
X142040040Y-133859361D01*
X142084620Y-133671113D01*
X142089600Y-133612146D01*
X142020128Y-133415096D01*
X141878800Y-133334384D01*
X141675730Y-133375274D01*
X141654101Y-133385427D01*
X141535120Y-133454938D01*
X141429221Y-133548880D01*
X141327369Y-133684212D01*
X141220531Y-133877893D01*
X141099672Y-134146883D01*
X140955760Y-134508141D01*
X140779760Y-134978626D01*
X140723241Y-135132953D01*
X140575790Y-135531649D01*
X140441263Y-135885695D01*
X140327721Y-136174644D01*
X140243227Y-136378051D01*
X140195845Y-136475470D01*
X140192022Y-136480054D01*
X140082541Y-136508372D01*
X140014049Y-136501118D01*
X139912352Y-136455760D01*
X139894517Y-136426760D01*
X139917583Y-136351768D01*
X139981853Y-136164984D01*
X140080998Y-135884219D01*
X140208688Y-135527281D01*
X140358596Y-135111981D01*
X140499800Y-134723533D01*
X140684822Y-134217544D01*
X140830154Y-133826367D01*
X140942974Y-133534969D01*
X141030461Y-133328318D01*
X141099794Y-133191383D01*
X141158151Y-133109132D01*
X141212713Y-133066533D01*
X141270657Y-133048555D01*
X141301789Y-133044255D01*
X141439782Y-133044683D01*
X141468534Y-133098787D01*
X141461988Y-133119909D01*
X141464429Y-133169733D01*
X141549102Y-133150312D01*
X141674152Y-133090899D01*
X141951312Y-132983491D01*
X142175773Y-132981884D01*
X142362686Y-133070925D01*
G37*
G36*
X139410109Y-131677560D02*
G01*
X139387241Y-131748586D01*
X139322497Y-131933101D01*
X139221661Y-132215042D01*
X139090520Y-132578342D01*
X138934859Y-133006939D01*
X138760463Y-133484768D01*
X138685380Y-133689836D01*
X138503576Y-134192340D01*
X138338471Y-134660994D01*
X138195996Y-135077980D01*
X138082081Y-135425480D01*
X138002657Y-135685676D01*
X137963656Y-135840750D01*
X137960652Y-135867138D01*
X137990256Y-136024610D01*
X138102709Y-136101413D01*
X138137323Y-136111169D01*
X138267209Y-136178035D01*
X138275367Y-136256172D01*
X138240165Y-136385262D01*
X138236739Y-136420211D01*
X138179907Y-136472091D01*
X138041883Y-136481254D01*
X137871373Y-136451697D01*
X137717082Y-136387420D01*
X137699923Y-136376141D01*
X137584846Y-136243099D01*
X137549583Y-136037981D01*
X137549638Y-136013777D01*
X137574125Y-135882203D01*
X137642332Y-135637919D01*
X137748941Y-135297250D01*
X137888632Y-134876525D01*
X138056087Y-134392072D01*
X138245987Y-133860217D01*
X138295996Y-133722718D01*
X138503833Y-133154674D01*
X138670943Y-132703001D01*
X138803412Y-132354210D01*
X138907330Y-132094808D01*
X138988785Y-131911304D01*
X139053863Y-131790209D01*
X139108653Y-131718030D01*
X139159242Y-131681276D01*
X139211719Y-131666458D01*
X139224672Y-131664736D01*
X139359960Y-131659820D01*
X139410109Y-131677560D01*
G37*
G36*
X134988945Y-135428500D02*
G01*
X135087752Y-135086799D01*
X135228572Y-134658710D01*
X135397547Y-134181357D01*
X135580819Y-133691864D01*
X135764529Y-133227355D01*
X135934818Y-132824954D01*
X136063750Y-132549348D01*
X136259646Y-132202171D01*
X136453671Y-131958538D01*
X136674961Y-131787478D01*
X136872285Y-131689871D01*
X137232020Y-131590271D01*
X137541803Y-131601971D01*
X137786088Y-131714988D01*
X137949332Y-131919338D01*
X138015988Y-132205039D01*
X138002468Y-132415686D01*
X137958249Y-132601486D01*
X137872338Y-132888500D01*
X137754309Y-133249767D01*
X137613739Y-133658330D01*
X137460202Y-134087231D01*
X137303273Y-134509512D01*
X137152528Y-134898215D01*
X137017540Y-135226381D01*
X136949962Y-135378963D01*
X136812504Y-135651549D01*
X136667200Y-135898891D01*
X136542117Y-136073834D01*
X136525097Y-136092757D01*
X136233718Y-136332530D01*
X135911581Y-136486914D01*
X135588748Y-136549032D01*
X135295282Y-136512009D01*
X135113315Y-136415657D01*
X134974906Y-136272737D01*
X134905739Y-136098918D01*
X134902193Y-135865444D01*
X134914936Y-135795268D01*
X135269036Y-135795268D01*
X135306553Y-135929113D01*
X135376251Y-136054099D01*
X135541314Y-136180727D01*
X135767178Y-136195314D01*
X136033280Y-136097337D01*
X136077026Y-136071907D01*
X136252389Y-135920649D01*
X136409192Y-135715140D01*
X136437679Y-135664136D01*
X136563854Y-135395411D01*
X136710569Y-135048470D01*
X136869395Y-134647109D01*
X137031905Y-134215122D01*
X137189671Y-133776307D01*
X137334264Y-133354458D01*
X137457257Y-132973371D01*
X137550221Y-132656841D01*
X137604728Y-132428664D01*
X137615543Y-132338599D01*
X137557660Y-132121604D01*
X137401913Y-131984250D01*
X137175161Y-131947010D01*
X137112731Y-131955324D01*
X136895475Y-132036686D01*
X136696738Y-132204197D01*
X136504192Y-132472790D01*
X136305510Y-132857396D01*
X136232502Y-133021574D01*
X136121183Y-133292731D01*
X135991203Y-133629916D01*
X135851018Y-134008789D01*
X135709083Y-134405010D01*
X135573850Y-134794242D01*
X135453776Y-135152145D01*
X135357313Y-135454379D01*
X135292917Y-135676607D01*
X135269042Y-135794488D01*
X135269036Y-135795268D01*
X134914936Y-135795268D01*
X134960643Y-135543556D01*
X134988945Y-135428500D01*
G37*
G36*
X160380355Y-133002521D02*
G01*
X160392717Y-133031554D01*
X160332522Y-133230158D01*
X160175190Y-133353794D01*
X160044167Y-133377609D01*
X159808856Y-133444559D01*
X159594859Y-133601930D01*
X159502165Y-133699502D01*
X159414233Y-133824554D01*
X159321828Y-133996685D01*
X159215713Y-134235494D01*
X159086655Y-134560578D01*
X158925416Y-134991537D01*
X158874244Y-135131114D01*
X158726398Y-135530713D01*
X158591692Y-135885645D01*
X158478130Y-136175542D01*
X158393721Y-136380042D01*
X158346469Y-136478778D01*
X158342419Y-136483843D01*
X158238977Y-136505505D01*
X158141962Y-136490393D01*
X158100033Y-136472700D01*
X158075287Y-136437595D01*
X158071794Y-136370190D01*
X158093622Y-136255595D01*
X158144842Y-136078919D01*
X158229522Y-135825272D01*
X158351732Y-135479765D01*
X158515541Y-135027507D01*
X158620124Y-134740788D01*
X158808450Y-134226312D01*
X158956728Y-133827047D01*
X159071892Y-133528405D01*
X159160879Y-133315797D01*
X159230623Y-133174633D01*
X159288060Y-133090323D01*
X159340127Y-133048279D01*
X159393757Y-133033910D01*
X159432217Y-133032500D01*
X159564624Y-133049648D01*
X159593532Y-133122528D01*
X159581856Y-133180484D01*
X159543158Y-133328467D01*
X159743617Y-133185921D01*
X159925288Y-133082670D01*
X160117598Y-133011591D01*
X160282102Y-132981827D01*
X160380355Y-133002521D01*
G37*
G36*
X154774765Y-133926913D02*
G01*
X154969648Y-133581022D01*
X155165334Y-133330178D01*
X155242987Y-133255507D01*
X155507841Y-133083884D01*
X155796524Y-132994298D01*
X156077727Y-132985911D01*
X156320143Y-133057883D01*
X156492463Y-133209375D01*
X156534009Y-133290094D01*
X156559371Y-133489634D01*
X156530034Y-133777727D01*
X156452529Y-134119204D01*
X156333390Y-134478898D01*
X156295825Y-134572438D01*
X156191495Y-134822136D01*
X154773111Y-134861576D01*
X154613452Y-135371826D01*
X154522655Y-135704336D01*
X154496321Y-135933583D01*
X154536696Y-136079531D01*
X154646022Y-136162145D01*
X154704364Y-136180648D01*
X154953656Y-136177234D01*
X155198407Y-136061371D01*
X155397600Y-135853747D01*
X155418340Y-135820536D01*
X155556802Y-135646649D01*
X155711146Y-135586902D01*
X155731422Y-135586305D01*
X155860078Y-135595334D01*
X155896698Y-135644374D01*
X155851012Y-135766349D01*
X155808934Y-135848564D01*
X155630519Y-136098790D01*
X155388651Y-136324203D01*
X155138240Y-136474148D01*
X155125316Y-136479196D01*
X154845647Y-136542476D01*
X154557008Y-136540552D01*
X154317547Y-136475725D01*
X154265140Y-136445163D01*
X154148950Y-136291420D01*
X154110071Y-136043322D01*
X154148844Y-135695431D01*
X154265614Y-135242309D01*
X154358736Y-134959081D01*
X154564233Y-134406623D01*
X154956006Y-134406623D01*
X154979841Y-134502491D01*
X155096654Y-134540053D01*
X155317728Y-134541454D01*
X155440408Y-134536747D01*
X155940815Y-134516468D01*
X156069373Y-134120737D01*
X156152220Y-133773254D01*
X156141843Y-133526067D01*
X156037967Y-133377410D01*
X155947198Y-133338533D01*
X155702019Y-133344237D01*
X155468161Y-133481978D01*
X155253458Y-133745793D01*
X155142130Y-133951391D01*
X155013864Y-134230305D01*
X154956006Y-134406623D01*
X154564233Y-134406623D01*
X154573518Y-134381662D01*
X154774765Y-133926913D01*
G37*
G36*
X147042067Y-135128820D02*
G01*
X147081464Y-135010680D01*
X147314400Y-134386949D01*
X147543620Y-133891143D01*
X147776174Y-133513565D01*
X148019110Y-133244515D01*
X148279479Y-133074298D01*
X148546107Y-132995789D01*
X148877793Y-132991254D01*
X149120317Y-133089143D01*
X149270549Y-133287886D01*
X149298732Y-133372958D01*
X149308269Y-133595700D01*
X149257552Y-133909137D01*
X149157473Y-134285668D01*
X149018923Y-134697689D01*
X148852794Y-135117598D01*
X148669976Y-135517793D01*
X148481361Y-135870672D01*
X148297841Y-136148632D01*
X148135948Y-136319839D01*
X147879335Y-136458432D01*
X147582391Y-136533962D01*
X147292582Y-136540896D01*
X147057371Y-136473703D01*
X147019755Y-136449946D01*
X146899151Y-136278056D01*
X146862732Y-135999078D01*
X146878211Y-135874445D01*
X147233050Y-135874445D01*
X147247349Y-135985707D01*
X147265961Y-136034799D01*
X147393527Y-136178415D01*
X147578321Y-136213196D01*
X147794995Y-136140928D01*
X147998960Y-135983180D01*
X148135164Y-135801644D01*
X148286922Y-135527271D01*
X148443289Y-135189560D01*
X148593321Y-134818009D01*
X148726072Y-134442117D01*
X148830599Y-134091383D01*
X148895957Y-133795305D01*
X148911201Y-133583383D01*
X148904703Y-133541946D01*
X148806588Y-133391730D01*
X148629247Y-133333051D01*
X148402281Y-133372512D01*
X148316634Y-133410713D01*
X148134423Y-133569583D01*
X147940876Y-133863894D01*
X147735690Y-134294237D01*
X147518561Y-134861203D01*
X147414286Y-135168970D01*
X147311588Y-135494859D01*
X147252820Y-135720423D01*
X147233050Y-135874445D01*
X146878211Y-135874445D01*
X146910403Y-135615253D01*
X147042067Y-135128820D01*
G37*
G36*
X145078518Y-133244283D02*
G01*
X145241813Y-132802130D01*
X145382650Y-132423033D01*
X145494098Y-132125828D01*
X145569221Y-131929353D01*
X145592325Y-131871577D01*
X145689469Y-131639079D01*
X146386695Y-131662828D01*
X146707364Y-131676247D01*
X146920527Y-131695054D01*
X147056707Y-131726372D01*
X147146432Y-131777325D01*
X147220227Y-131855037D01*
X147222534Y-131857881D01*
X147307643Y-131995396D01*
X147334016Y-132154961D01*
X147316716Y-132364121D01*
X147218695Y-132814876D01*
X147055111Y-133246766D01*
X146842495Y-133629990D01*
X146597378Y-133934746D01*
X146336564Y-134131093D01*
X146119270Y-134240381D01*
X146069356Y-135361984D01*
X146019441Y-136483587D01*
X145638997Y-136483587D01*
X145711189Y-134335529D01*
X145374190Y-134356977D01*
X145037191Y-134378424D01*
X144660385Y-135431006D01*
X144519087Y-135822821D01*
X144413404Y-136103039D01*
X144333259Y-136290325D01*
X144268575Y-136403343D01*
X144209275Y-136460758D01*
X144145283Y-136481236D01*
X144092106Y-136483587D01*
X143900632Y-136483587D01*
X144167858Y-135741604D01*
X144339437Y-135266722D01*
X144523226Y-134760712D01*
X144712291Y-134242411D01*
X144816163Y-133958769D01*
X145207935Y-133958769D01*
X145268833Y-133993884D01*
X145424882Y-134004074D01*
X145636118Y-133992683D01*
X145862573Y-133963056D01*
X146064281Y-133918537D01*
X146174238Y-133877909D01*
X146355251Y-133734051D01*
X146530399Y-133503120D01*
X146687469Y-133216510D01*
X146814247Y-132905618D01*
X146898521Y-132601836D01*
X146928075Y-132336559D01*
X146890698Y-132141182D01*
X146865255Y-132101669D01*
X146747146Y-132034505D01*
X146522693Y-132001804D01*
X146343301Y-131997174D01*
X145908070Y-131997174D01*
X145758300Y-132394049D01*
X145643778Y-132701832D01*
X145525650Y-133026557D01*
X145413582Y-133340737D01*
X145317244Y-133616884D01*
X145246304Y-133827510D01*
X145210430Y-133945127D01*
X145207935Y-133958769D01*
X144816163Y-133958769D01*
X144899700Y-133730656D01*
X145078518Y-133244283D01*
G37*
G36*
X153506797Y-131658631D02*
G01*
X153559565Y-131673093D01*
X153536909Y-131741042D01*
X153473340Y-131920289D01*
X153375458Y-132192520D01*
X153249864Y-132539423D01*
X153103159Y-132942687D01*
X153007921Y-133203605D01*
X152852798Y-133631864D01*
X152716651Y-134015041D01*
X152605778Y-134334801D01*
X152526477Y-134572807D01*
X152485046Y-134710720D01*
X152480991Y-134737803D01*
X152533733Y-134698255D01*
X152664554Y-134573206D01*
X152857744Y-134378441D01*
X153097591Y-134129748D01*
X153317256Y-133897509D01*
X153616214Y-133581027D01*
X153839499Y-133352433D01*
X154004435Y-133197597D01*
X154128345Y-133102389D01*
X154228554Y-133052679D01*
X154322385Y-133034337D01*
X154377809Y-133032500D01*
X154626812Y-133032500D01*
X153279200Y-134385188D01*
X153356473Y-135368681D01*
X153381562Y-135729616D01*
X153397471Y-136046379D01*
X153403252Y-136291048D01*
X153397958Y-136435704D01*
X153393432Y-136457233D01*
X153298488Y-136534642D01*
X153197510Y-136540195D01*
X153104341Y-136507754D01*
X153047792Y-136420673D01*
X153010599Y-136244371D01*
X152996962Y-136138479D01*
X152972273Y-135863153D01*
X152953316Y-135529397D01*
X152945195Y-135258451D01*
X152934264Y-135015599D01*
X152911735Y-134837735D01*
X152882208Y-134759174D01*
X152878138Y-134758044D01*
X152793988Y-134808220D01*
X152656283Y-134937481D01*
X152493555Y-135113928D01*
X152334336Y-135305661D01*
X152207156Y-135480778D01*
X152159825Y-135561156D01*
X152079694Y-135743443D01*
X151987368Y-135986836D01*
X151941628Y-136120411D01*
X151863425Y-136346054D01*
X151798655Y-136466974D01*
X151720566Y-136510516D01*
X151602410Y-136504023D01*
X151571212Y-136499060D01*
X151456853Y-136459732D01*
X151433169Y-136419066D01*
X151460961Y-136343984D01*
X151530686Y-136154079D01*
X151636914Y-135864188D01*
X151774210Y-135489150D01*
X151937144Y-135043803D01*
X152120283Y-134542987D01*
X152315604Y-134008627D01*
X152540387Y-133394215D01*
X152723473Y-132897091D01*
X152870409Y-132504837D01*
X152986742Y-132205032D01*
X153078019Y-131985259D01*
X153149788Y-131833099D01*
X153207595Y-131736131D01*
X153256987Y-131681937D01*
X153303512Y-131658098D01*
X153352717Y-131652196D01*
X153368186Y-131652066D01*
X153506797Y-131658631D01*
G37*
G36*
X145190647Y-131691604D02*
G01*
X145171912Y-131755598D01*
X145138483Y-131846124D01*
X145061357Y-132052795D01*
X144945434Y-132362547D01*
X144795610Y-132762318D01*
X144616785Y-133239044D01*
X144413857Y-133779663D01*
X144191725Y-134371112D01*
X143955285Y-135000328D01*
X143929608Y-135068642D01*
X142736176Y-138243642D01*
X142349036Y-138219943D01*
X142037502Y-138224854D01*
X141778526Y-138293261D01*
X141669562Y-138343005D01*
X141377228Y-138489766D01*
X141601016Y-138281875D01*
X141785947Y-138141169D01*
X141971017Y-138046674D01*
X142015147Y-138033914D01*
X142189303Y-137987418D01*
X142295702Y-137946188D01*
X142340625Y-137874322D01*
X142432443Y-137688185D01*
X142565252Y-137401054D01*
X142733149Y-137026205D01*
X142930231Y-136576917D01*
X143150595Y-136066465D01*
X143388338Y-135508127D01*
X143544424Y-135137663D01*
X143840743Y-134432018D01*
X144089227Y-133842101D01*
X144295205Y-133356247D01*
X144464010Y-132962788D01*
X144600972Y-132650060D01*
X144711423Y-132406396D01*
X144800692Y-132220130D01*
X144874111Y-132079596D01*
X144937010Y-131973128D01*
X144994722Y-131889060D01*
X145052576Y-131815725D01*
X145074123Y-131790109D01*
X145167385Y-131688196D01*
X145190647Y-131691604D01*
G37*
G36*
X140270380Y-133046928D02*
G01*
X140295754Y-133106112D01*
X140293407Y-133113277D01*
X139986966Y-133964016D01*
X139725000Y-134686595D01*
X139506677Y-135283251D01*
X139331166Y-135756222D01*
X139197634Y-136107743D01*
X139105249Y-136340052D01*
X139053179Y-136455386D01*
X139046264Y-136466332D01*
X138952528Y-136544782D01*
X138839472Y-136515699D01*
X138802608Y-136493512D01*
X138784454Y-136446493D01*
X138796435Y-136337940D01*
X138842192Y-136155699D01*
X138925368Y-135887619D01*
X139049605Y-135521548D01*
X139218546Y-135045335D01*
X139324680Y-134751770D01*
X139510830Y-134240732D01*
X139657372Y-133844707D01*
X139771351Y-133548786D01*
X139859812Y-133338058D01*
X139929799Y-133197616D01*
X139988356Y-133112550D01*
X140042528Y-133067951D01*
X140099360Y-133048910D01*
X140131486Y-133044255D01*
X140270380Y-133046928D01*
G37*
G36*
X161018725Y-133043156D02*
G01*
X161071519Y-133092823D01*
X161059447Y-133187799D01*
X161027683Y-133341686D01*
X160983933Y-133588171D01*
X160932269Y-133900309D01*
X160876762Y-134251154D01*
X160821484Y-134613760D01*
X160770506Y-134961182D01*
X160727898Y-135266474D01*
X160697733Y-135502690D01*
X160684081Y-135642885D01*
X160684657Y-135668373D01*
X160723146Y-135630127D01*
X160819140Y-135487536D01*
X160962724Y-135256718D01*
X161143982Y-134953788D01*
X161353000Y-134594863D01*
X161458724Y-134410149D01*
X161682051Y-134023036D01*
X161886938Y-133677634D01*
X162062358Y-133391752D01*
X162197285Y-133183201D01*
X162280691Y-133069794D01*
X162297882Y-133054749D01*
X162435690Y-133037331D01*
X162522562Y-133044297D01*
X162551292Y-133063028D01*
X162553512Y-133113273D01*
X162523458Y-133205862D01*
X162455366Y-133351624D01*
X162343473Y-133561387D01*
X162182016Y-133845980D01*
X161965232Y-134216233D01*
X161687357Y-134682973D01*
X161362240Y-135224450D01*
X161061994Y-135722182D01*
X160781378Y-136185282D01*
X160528984Y-136599729D01*
X160313404Y-136951501D01*
X160143230Y-137226578D01*
X160027053Y-137410939D01*
X159973977Y-137489957D01*
X159816104Y-137618659D01*
X159577362Y-137747644D01*
X159312241Y-137850095D01*
X159167581Y-137886844D01*
X159012118Y-137903432D01*
X158950517Y-137862624D01*
X158943261Y-137807079D01*
X159003070Y-137632571D01*
X159161404Y-137532337D01*
X159265362Y-137518913D01*
X159430813Y-137461262D01*
X159626859Y-137307285D01*
X159825075Y-137085447D01*
X159997035Y-136824213D01*
X160037820Y-136745384D01*
X160096651Y-136614686D01*
X160147177Y-136475278D01*
X160192651Y-136309140D01*
X160236327Y-136098255D01*
X160281457Y-135824604D01*
X160331296Y-135470171D01*
X160389097Y-135016937D01*
X160458113Y-134446884D01*
X160468327Y-134361169D01*
X160626450Y-133032500D01*
X160862175Y-133032500D01*
X161018725Y-133043156D01*
G37*
G36*
X140826587Y-131757762D02*
G01*
X140803992Y-131857655D01*
X140786424Y-131904476D01*
X140667120Y-132146828D01*
X140537251Y-132258735D01*
X140385176Y-132247789D01*
X140316234Y-132211165D01*
X140257297Y-132126672D01*
X140280486Y-131973817D01*
X140287058Y-131953391D01*
X140359078Y-131814298D01*
X140484820Y-131750782D01*
X140605942Y-131734184D01*
X140770340Y-131725823D01*
X140826587Y-131757762D01*
G37*
G36*
X144886826Y-131412731D02*
G01*
X144799083Y-131597550D01*
X144765803Y-131658825D01*
X144670024Y-131856908D01*
X144550104Y-132140695D01*
X144424762Y-132464670D01*
X144357015Y-132652881D01*
X143665791Y-134491098D01*
X142879042Y-136323878D01*
X142623961Y-136872212D01*
X142227118Y-137709478D01*
X141923402Y-137743711D01*
X141596011Y-137837025D01*
X141361907Y-137974561D01*
X141104129Y-138171178D01*
X141263376Y-137947537D01*
X141447045Y-137750290D01*
X141667798Y-137597646D01*
X141876174Y-137522010D01*
X141917601Y-137518913D01*
X142010835Y-137461165D01*
X142090429Y-137329104D01*
X142142229Y-137193986D01*
X142230597Y-136960729D01*
X142343764Y-136660496D01*
X142469961Y-136324451D01*
X142487924Y-136276522D01*
X142715375Y-135687454D01*
X142963384Y-135076783D01*
X143223929Y-134461799D01*
X143488988Y-133859792D01*
X143750537Y-133288054D01*
X144000555Y-132763874D01*
X144231019Y-132304544D01*
X144433908Y-131927353D01*
X144601197Y-131649592D01*
X144693609Y-131522643D01*
X144832556Y-131372386D01*
X144897472Y-131336713D01*
X144886826Y-131412731D01*
G37*
G36*
X158379126Y-132059166D02*
G01*
X158371583Y-132180444D01*
X158304093Y-132395341D01*
X158253009Y-132532833D01*
X158176942Y-132744350D01*
X158126818Y-132905557D01*
X158115000Y-132964219D01*
X158176139Y-133007394D01*
X158328460Y-133031000D01*
X158384625Y-133032500D01*
X158557127Y-133041745D01*
X158624231Y-133081759D01*
X158619064Y-133167054D01*
X158561527Y-133257124D01*
X158426280Y-133305321D01*
X158268303Y-133322352D01*
X157952729Y-133343098D01*
X157520301Y-134516468D01*
X157380791Y-134901998D01*
X157259543Y-135250375D01*
X157164412Y-135537933D01*
X157103256Y-135741004D01*
X157083773Y-135831332D01*
X157136304Y-136017957D01*
X157289498Y-136123735D01*
X157397614Y-136138479D01*
X157509197Y-136165830D01*
X157516010Y-136267914D01*
X157514395Y-136274261D01*
X157430323Y-136438119D01*
X157277674Y-136498731D01*
X157083046Y-136478304D01*
X156836054Y-136373621D01*
X156700112Y-136188125D01*
X156667877Y-135969988D01*
X156691962Y-135838452D01*
X156757389Y-135603095D01*
X156856277Y-135289067D01*
X156980746Y-134921517D01*
X157106622Y-134569842D01*
X157243144Y-134190909D01*
X157358249Y-133857915D01*
X157445082Y-133591841D01*
X157496786Y-133413671D01*
X157506915Y-133344706D01*
X157416546Y-133315906D01*
X157316208Y-133308587D01*
X157203277Y-133282256D01*
X157194791Y-133182293D01*
X157197718Y-133170544D01*
X157266687Y-133068279D01*
X157423538Y-133033165D01*
X157461592Y-133032500D01*
X157578983Y-133025983D01*
X157659452Y-132988105D01*
X157724651Y-132891378D01*
X157796230Y-132708313D01*
X157855739Y-132532093D01*
X157946971Y-132273775D01*
X158020603Y-132119975D01*
X158095807Y-132042155D01*
X158191756Y-132011779D01*
X158206600Y-132009845D01*
X158324780Y-132009602D01*
X158379126Y-132059166D01*
G37*
G36*
X151354343Y-132992468D02*
G01*
X151579808Y-133091941D01*
X151723502Y-133271931D01*
X151765000Y-133480506D01*
X151745192Y-133732762D01*
X151676804Y-133874220D01*
X151546384Y-133927580D01*
X151498784Y-133929828D01*
X151378341Y-133914741D01*
X151327075Y-133842568D01*
X151316359Y-133673370D01*
X151299567Y-133493120D01*
X151228744Y-133396606D01*
X151126410Y-133349354D01*
X150908364Y-133342583D01*
X150678228Y-133469253D01*
X150442156Y-133725970D01*
X150441408Y-133726983D01*
X150319148Y-133936801D01*
X150182117Y-134241330D01*
X150043466Y-134602182D01*
X149916344Y-134980967D01*
X149813900Y-135339297D01*
X149749284Y-135638783D01*
X149733596Y-135793370D01*
X149728859Y-136172990D01*
X149955533Y-136194794D01*
X150129334Y-136185487D01*
X150284587Y-136102178D01*
X150410337Y-135987728D01*
X150553847Y-135831200D01*
X150650687Y-135702361D01*
X150668833Y-135666527D01*
X150755890Y-135602177D01*
X150887362Y-135597505D01*
X151075525Y-135620816D01*
X150954366Y-135857484D01*
X150715572Y-136183184D01*
X150393748Y-136412838D01*
X150016224Y-136527953D01*
X149953858Y-136534402D01*
X149672863Y-136534585D01*
X149481926Y-136479052D01*
X149435516Y-136449946D01*
X149318802Y-136294667D01*
X149278642Y-136048367D01*
X149315431Y-135704610D01*
X149429567Y-135256964D01*
X149527215Y-134959081D01*
X149728914Y-134409135D01*
X149913426Y-133977299D01*
X150091733Y-133646547D01*
X150274821Y-133399852D01*
X150473673Y-133220186D01*
X150699274Y-133090521D01*
X150745654Y-133070305D01*
X151068995Y-132982320D01*
X151354343Y-132992468D01*
G37*
D11*
%TO.C,J4*%
X173520000Y-126095000D02*
X173420000Y-125995000D01*
X171620000Y-124395000D02*
X171620000Y-125995000D01*
X173820000Y-124395000D02*
X173820000Y-125995000D01*
X171720000Y-122195000D02*
X173720000Y-122195000D01*
X172020000Y-125995000D02*
X172020000Y-124395000D01*
X170520000Y-121195000D02*
X170820000Y-120695000D01*
X171620000Y-125995000D02*
X171720000Y-126095000D01*
X173720000Y-122795000D02*
X173720000Y-122195000D01*
X170820000Y-120695000D02*
X170220000Y-120695000D01*
X171720000Y-122795000D02*
X173720000Y-122795000D01*
X171720000Y-126095000D02*
X171920000Y-126095000D01*
X173720000Y-126095000D02*
X173520000Y-126095000D01*
X170220000Y-120695000D02*
X170520000Y-121195000D01*
X169920000Y-124295000D02*
X169920000Y-125895000D01*
X173820000Y-125995000D02*
X173720000Y-126095000D01*
X172020000Y-124395000D02*
X173420000Y-124395000D01*
X173920000Y-128395000D02*
X171520000Y-128395000D01*
X173420000Y-124395000D02*
X173820000Y-124395000D01*
X171820000Y-128095000D02*
X172120000Y-128395000D01*
X172020000Y-124395000D02*
X171620000Y-124395000D01*
X173420000Y-125995000D02*
X173420000Y-124395000D01*
X171720000Y-122195000D02*
X171720000Y-122795000D01*
X171920000Y-126095000D02*
X172020000Y-125995000D01*
X175520000Y-124295000D02*
X175520000Y-125895000D01*
X171520000Y-128395000D02*
X171820000Y-128095000D01*
D12*
%TO.C,Q1*%
X175794000Y-119772000D02*
X175794000Y-117972000D01*
X172694000Y-117972000D02*
X172694000Y-119772000D01*
D13*
X175294000Y-116562000D02*
G75*
G03*
X175294000Y-116562000I-100000J0D01*
G01*
%TO.C,*%
G36*
X144373171Y-53304876D02*
G01*
X144275483Y-53850024D01*
X144186315Y-54348655D01*
X144118160Y-54730851D01*
X144092089Y-54877812D01*
X144032700Y-55114287D01*
X143917187Y-55223890D01*
X143672137Y-55255094D01*
X143518593Y-55256482D01*
X143011946Y-55256482D01*
X143103538Y-54819555D01*
X143164054Y-54511312D01*
X143249609Y-54050777D01*
X143345949Y-53515347D01*
X143393207Y-53246619D01*
X143591284Y-52110610D01*
X144587405Y-52110610D01*
X144373171Y-53304876D01*
G37*
G36*
X158456934Y-52976434D02*
G01*
X158806784Y-52576761D01*
X159331194Y-52303637D01*
X160041195Y-52150939D01*
X160788395Y-52111260D01*
X161561608Y-52162846D01*
X162135940Y-52324530D01*
X162522167Y-52604693D01*
X162731063Y-53011712D01*
X162773401Y-53553967D01*
X162765899Y-53649086D01*
X162698314Y-54059619D01*
X162556961Y-54351161D01*
X162296204Y-54629043D01*
X161939876Y-54892400D01*
X161548992Y-55092674D01*
X161436480Y-55130804D01*
X160869993Y-55229916D01*
X160221653Y-55254408D01*
X159581404Y-55207843D01*
X159039189Y-55093785D01*
X158867614Y-55029027D01*
X158480965Y-54768774D01*
X158269673Y-54402748D01*
X158222309Y-53901842D01*
X158256447Y-53624062D01*
X159223677Y-53624062D01*
X159243344Y-53971883D01*
X159450397Y-54247297D01*
X159532130Y-54298340D01*
X159827219Y-54380955D01*
X160247366Y-54413078D01*
X160714706Y-54399110D01*
X161151375Y-54343452D01*
X161479505Y-54250505D01*
X161588547Y-54182110D01*
X161721127Y-53926668D01*
X161767411Y-53583193D01*
X161721794Y-53264382D01*
X161641138Y-53124688D01*
X161443603Y-53048472D01*
X161055544Y-52999970D01*
X160564294Y-52984463D01*
X160087720Y-52990973D01*
X159783618Y-53020260D01*
X159591573Y-53086962D01*
X159451172Y-53205719D01*
X159399479Y-53266692D01*
X159223677Y-53624062D01*
X158256447Y-53624062D01*
X158270615Y-53508775D01*
X158456934Y-52976434D01*
G37*
G36*
X141325677Y-52121329D02*
G01*
X141839987Y-52160376D01*
X142204272Y-52238098D01*
X142459686Y-52364837D01*
X142647382Y-52550936D01*
X142706658Y-52635002D01*
X142824984Y-53009341D01*
X142770014Y-53431377D01*
X142564638Y-53823050D01*
X142283885Y-54076870D01*
X141942828Y-54284279D01*
X142300311Y-54770380D01*
X142657794Y-55256482D01*
X141966979Y-55256482D01*
X141577057Y-55248743D01*
X141346307Y-55203486D01*
X141200913Y-55087647D01*
X141067062Y-54868164D01*
X141056551Y-54848683D01*
X140924570Y-54625433D01*
X140787342Y-54503463D01*
X140573965Y-54452183D01*
X140213534Y-54441002D01*
X140111373Y-54440885D01*
X139385809Y-54440885D01*
X139309305Y-54848683D01*
X139246431Y-55101784D01*
X139135103Y-55220024D01*
X138901260Y-55254585D01*
X138719237Y-55256482D01*
X138403982Y-55245807D01*
X138267054Y-55192631D01*
X138254003Y-55065227D01*
X138269326Y-54994326D01*
X138328176Y-54715745D01*
X138398344Y-54336190D01*
X138420247Y-54207858D01*
X138507514Y-53683546D01*
X140019134Y-53652227D01*
X140663194Y-53634049D01*
X141112683Y-53607307D01*
X141406031Y-53566813D01*
X141581672Y-53507378D01*
X141674422Y-53428759D01*
X141772171Y-53242466D01*
X141732571Y-53106073D01*
X141535121Y-53012979D01*
X141159319Y-52956585D01*
X140584661Y-52930289D01*
X140113355Y-52926206D01*
X138666232Y-52926206D01*
X138991612Y-52518412D01*
X139316992Y-52110617D01*
X140620187Y-52110614D01*
X141325677Y-52121329D01*
G37*
G36*
X136268861Y-52131502D02*
G01*
X136855680Y-52149369D01*
X137257118Y-52172470D01*
X137520754Y-52211565D01*
X137694170Y-52277413D01*
X137824945Y-52380775D01*
X137941120Y-52509656D01*
X138142345Y-52809226D01*
X138185748Y-53110258D01*
X138168773Y-53252318D01*
X138023997Y-53715161D01*
X137746634Y-54053604D01*
X137314603Y-54279470D01*
X136705827Y-54404582D01*
X135949159Y-54440885D01*
X134841772Y-54440885D01*
X134765268Y-54848683D01*
X134702395Y-55101784D01*
X134591066Y-55220024D01*
X134357224Y-55254585D01*
X134175200Y-55256482D01*
X133859945Y-55245807D01*
X133723017Y-55192631D01*
X133709966Y-55065227D01*
X133725290Y-54994326D01*
X133784118Y-54715739D01*
X133854231Y-54336177D01*
X133876108Y-54207858D01*
X133963272Y-53683546D01*
X135462663Y-53625289D01*
X136095505Y-53596397D01*
X136534590Y-53563175D01*
X136819176Y-53519222D01*
X136988524Y-53458137D01*
X137081895Y-53373519D01*
X137090900Y-53359816D01*
X137150186Y-53197417D01*
X137080616Y-53079467D01*
X136859253Y-52999824D01*
X136463164Y-52952348D01*
X135869413Y-52930895D01*
X135478311Y-52927991D01*
X134086418Y-52926206D01*
X134889470Y-52094136D01*
X136268861Y-52131502D01*
G37*
G36*
X148308360Y-52918713D02*
G01*
X147075061Y-52951588D01*
X146511079Y-52972376D01*
X146143372Y-53002911D01*
X145935215Y-53049376D01*
X145849884Y-53117954D01*
X145841763Y-53159234D01*
X145883201Y-53238900D01*
X146031005Y-53297081D01*
X146320407Y-53339995D01*
X146786643Y-53373859D01*
X147162327Y-53392261D01*
X147750845Y-53423249D01*
X148150562Y-53460300D01*
X148405689Y-53511879D01*
X148560441Y-53586453D01*
X148647877Y-53676687D01*
X148798591Y-54029934D01*
X148746701Y-54429479D01*
X148646831Y-54657015D01*
X148509507Y-54869540D01*
X148326021Y-55026065D01*
X148061740Y-55134757D01*
X147682030Y-55203783D01*
X147152257Y-55241310D01*
X146437789Y-55255506D01*
X146104709Y-55256482D01*
X144339629Y-55256482D01*
X144734882Y-54848683D01*
X145130136Y-54440885D01*
X146382055Y-54440885D01*
X146970459Y-54429448D01*
X147408304Y-54397184D01*
X147662720Y-54347169D01*
X147710774Y-54316620D01*
X147751802Y-54215741D01*
X147703774Y-54147333D01*
X147532096Y-54103408D01*
X147202176Y-54075981D01*
X146679421Y-54057066D01*
X146574350Y-54054264D01*
X145881259Y-54013720D01*
X145390499Y-53924764D01*
X145073993Y-53773822D01*
X144903663Y-53547320D01*
X144851432Y-53231684D01*
X144851396Y-53221302D01*
X144961057Y-52758005D01*
X145132317Y-52495777D01*
X145413237Y-52168867D01*
X147258693Y-52131816D01*
X149104148Y-52094765D01*
X148308360Y-52918713D01*
G37*
G36*
X157948449Y-52124064D02*
G01*
X158086881Y-52179297D01*
X158094040Y-52298617D01*
X158089604Y-52314509D01*
X158039706Y-52532041D01*
X157969419Y-52896101D01*
X157902853Y-53275748D01*
X157812719Y-53796242D01*
X157714715Y-54334912D01*
X157655521Y-54644784D01*
X157534875Y-55256482D01*
X156527542Y-55256482D01*
X156619134Y-54819555D01*
X156679650Y-54511312D01*
X156765205Y-54050777D01*
X156861545Y-53515347D01*
X156908803Y-53246619D01*
X157106880Y-52110610D01*
X157628274Y-52110610D01*
X157948449Y-52124064D01*
G37*
G36*
X153994664Y-52219901D02*
G01*
X154027949Y-52256252D01*
X154085829Y-52423418D01*
X154157641Y-52772013D01*
X154234368Y-53251572D01*
X154306993Y-53811629D01*
X154309019Y-53829188D01*
X154473076Y-55256482D01*
X153980385Y-55256482D01*
X153670997Y-55245522D01*
X153518906Y-55169676D01*
X153451526Y-54964488D01*
X153422720Y-54761298D01*
X153372361Y-54331648D01*
X153332645Y-53916227D01*
X153328196Y-53858316D01*
X153298644Y-53450518D01*
X152627857Y-54353500D01*
X152297195Y-54784611D01*
X152056356Y-55055371D01*
X151867111Y-55200120D01*
X151691232Y-55253200D01*
X151622628Y-55256482D01*
X151379258Y-55229540D01*
X151202132Y-55119456D01*
X151055010Y-54882342D01*
X150901652Y-54474312D01*
X150852950Y-54324372D01*
X150729502Y-53962000D01*
X150623956Y-53694423D01*
X150573843Y-53600452D01*
X150496082Y-53659397D01*
X150353941Y-53888784D01*
X150173635Y-54244359D01*
X150107943Y-54386920D01*
X149911532Y-54814471D01*
X149768613Y-55072252D01*
X149637536Y-55203213D01*
X149476654Y-55250306D01*
X149264752Y-55256482D01*
X148978139Y-55233295D01*
X148822305Y-55175576D01*
X148812864Y-55154943D01*
X148862576Y-54997218D01*
X148995490Y-54683035D01*
X149187268Y-54262666D01*
X149413577Y-53786382D01*
X149650079Y-53304457D01*
X149872440Y-52867163D01*
X150056324Y-52524772D01*
X150177396Y-52327557D01*
X150187848Y-52314509D01*
X150452775Y-52146169D01*
X150761678Y-52127345D01*
X151009149Y-52264328D01*
X151010074Y-52265437D01*
X151112795Y-52446606D01*
X151262680Y-52778310D01*
X151428727Y-53191553D01*
X151442009Y-53226675D01*
X151593572Y-53621594D01*
X151713880Y-53920546D01*
X151779774Y-54066233D01*
X151783331Y-54071130D01*
X151864870Y-54003696D01*
X152044964Y-53790572D01*
X152286770Y-53475726D01*
X152320312Y-53430304D01*
X152617386Y-53036863D01*
X152905376Y-52672938D01*
X153109955Y-52431023D01*
X153422662Y-52189949D01*
X153738205Y-52115645D01*
X153994664Y-52219901D01*
G37*
D12*
%TO.C,S3*%
X139579176Y-57862470D02*
X152379176Y-57862470D01*
X152379176Y-63662470D02*
X139579176Y-63662470D01*
X152379176Y-57862470D02*
X152379176Y-63662470D01*
X139579176Y-63662470D02*
X139579176Y-57862470D01*
D13*
X153479176Y-60662470D02*
G75*
G03*
X153479176Y-60662470I-100000J0D01*
G01*
%TO.C,D2*%
G36*
X149590000Y-93125000D02*
G01*
X149290000Y-93125000D01*
X149290000Y-91025000D01*
X149590000Y-91025000D01*
X149590000Y-93125000D01*
G37*
D15*
X149590000Y-93125000D02*
X149290000Y-93125000D01*
X149290000Y-91025000D01*
X149590000Y-91025000D01*
X149590000Y-93125000D01*
D16*
X149390000Y-92075000D02*
X148340000Y-92825000D01*
X148340000Y-91375000D02*
X149390000Y-92075000D01*
X148340000Y-92825000D02*
X148340000Y-91375000D01*
%TO.C,D3*%
X157095000Y-92775000D02*
X156045000Y-92075000D01*
X156045000Y-92075000D02*
X157095000Y-91325000D01*
X157095000Y-91325000D02*
X157095000Y-92775000D01*
G36*
X156145000Y-93125000D02*
G01*
X155845000Y-93125000D01*
X155845000Y-91025000D01*
X156145000Y-91025000D01*
X156145000Y-93125000D01*
G37*
D15*
X156145000Y-93125000D02*
X155845000Y-93125000D01*
X155845000Y-91025000D01*
X156145000Y-91025000D01*
X156145000Y-93125000D01*
%TD*%
M02*
