%TF.GenerationSoftware,KiCad,Pcbnew,(6.0.7)*%
%TF.CreationDate,2023-03-06T01:25:52-05:00*%
%TF.ProjectId,CoreIO,436f7265-494f-42e6-9b69-6361645f7063,rev?*%
%TF.SameCoordinates,Original*%
%TF.FileFunction,Soldermask,Top*%
%TF.FilePolarity,Negative*%
%FSLAX46Y46*%
G04 Gerber Fmt 4.6, Leading zero omitted, Abs format (unit mm)*
G04 Created by KiCad (PCBNEW (6.0.7)) date 2023-03-06 01:25:52*
%MOMM*%
%LPD*%
G01*
G04 APERTURE LIST*
G04 Aperture macros list*
%AMRoundRect*
0 Rectangle with rounded corners*
0 $1 Rounding radius*
0 $2 $3 $4 $5 $6 $7 $8 $9 X,Y pos of 4 corners*
0 Add a 4 corners polygon primitive as box body*
4,1,4,$2,$3,$4,$5,$6,$7,$8,$9,$2,$3,0*
0 Add four circle primitives for the rounded corners*
1,1,$1+$1,$2,$3*
1,1,$1+$1,$4,$5*
1,1,$1+$1,$6,$7*
1,1,$1+$1,$8,$9*
0 Add four rect primitives between the rounded corners*
20,1,$1+$1,$2,$3,$4,$5,0*
20,1,$1+$1,$4,$5,$6,$7,0*
20,1,$1+$1,$6,$7,$8,$9,0*
20,1,$1+$1,$8,$9,$2,$3,0*%
G04 Aperture macros list end*
%ADD10RoundRect,0.088500X0.206500X-0.516500X0.206500X0.516500X-0.206500X0.516500X-0.206500X-0.516500X0*%
%ADD11RoundRect,0.100000X0.130000X0.100000X-0.130000X0.100000X-0.130000X-0.100000X0.130000X-0.100000X0*%
%ADD12O,1.200000X1.750000*%
%ADD13RoundRect,0.250000X0.350000X0.625000X-0.350000X0.625000X-0.350000X-0.625000X0.350000X-0.625000X0*%
%ADD14RoundRect,0.218750X0.218750X0.256250X-0.218750X0.256250X-0.218750X-0.256250X0.218750X-0.256250X0*%
%ADD15C,1.800000*%
%ADD16R,1.800000X1.800000*%
%ADD17RoundRect,0.100000X-0.130000X-0.100000X0.130000X-0.100000X0.130000X0.100000X-0.130000X0.100000X0*%
%ADD18R,1.000000X2.000000*%
%ADD19R,1.300000X2.100000*%
%ADD20RoundRect,0.250000X0.625000X-0.350000X0.625000X0.350000X-0.625000X0.350000X-0.625000X-0.350000X0*%
%ADD21O,1.750000X1.200000*%
%ADD22RoundRect,0.088500X-0.206500X0.516500X-0.206500X-0.516500X0.206500X-0.516500X0.206500X0.516500X0*%
%ADD23R,1.800000X1.700000*%
G04 APERTURE END LIST*
D10*
%TO.C,Q2*%
X170246000Y-72375000D03*
X171196000Y-69865000D03*
X172146000Y-72375000D03*
%TD*%
D11*
%TO.C,R8*%
X164272000Y-99822000D03*
X164912000Y-99822000D03*
%TD*%
D12*
%TO.C,J2*%
X122190000Y-67220000D03*
D13*
X124190000Y-67220000D03*
%TD*%
D14*
%TO.C,D1*%
X169076105Y-85725000D03*
X167501105Y-85725000D03*
%TD*%
D15*
%TO.C,S1*%
X140863176Y-81059176D03*
X145943176Y-81059176D03*
D16*
X151023176Y-81059176D03*
%TD*%
D11*
%TO.C,R6*%
X164892569Y-92954798D03*
X164252569Y-92954798D03*
%TD*%
D17*
%TO.C,R10*%
X164256516Y-101901830D03*
X164896516Y-101901830D03*
%TD*%
D18*
%TO.C,J3*%
X174920000Y-62470000D03*
X170520000Y-62470000D03*
D19*
X174820000Y-67070000D03*
X170620000Y-67070000D03*
%TD*%
D20*
%TO.C,J1*%
X167780605Y-100981317D03*
D21*
X167780605Y-98981317D03*
X167780605Y-96981317D03*
X167780605Y-94981317D03*
X167780605Y-92981317D03*
X167780605Y-90981317D03*
X167780605Y-88981317D03*
%TD*%
D16*
%TO.C,S2*%
X151023058Y-70888941D03*
D15*
X145943058Y-70888941D03*
X140863058Y-70888941D03*
%TD*%
D18*
%TO.C,J4*%
X174920000Y-127395000D03*
X170520000Y-127395000D03*
D19*
X170620000Y-122795000D03*
X174820000Y-122795000D03*
%TD*%
D11*
%TO.C,R11*%
X164252569Y-101082798D03*
X164892569Y-101082798D03*
%TD*%
%TO.C,R1*%
X171008000Y-85741317D03*
X170368000Y-85741317D03*
%TD*%
%TO.C,R2*%
X164248569Y-97801918D03*
X164888569Y-97801918D03*
%TD*%
D22*
%TO.C,Q1*%
X175194000Y-117617000D03*
X173294000Y-117617000D03*
X174244000Y-120127000D03*
%TD*%
D17*
%TO.C,R5*%
X164252569Y-97018798D03*
X164892569Y-97018798D03*
%TD*%
D11*
%TO.C,R9*%
X164892569Y-94986798D03*
X164252569Y-94986798D03*
%TD*%
D16*
%TO.C,S3*%
X151059176Y-60762470D03*
D15*
X145979176Y-60762470D03*
X140899176Y-60762470D03*
%TD*%
D23*
%TO.C,D2*%
X150640000Y-92075000D03*
X146540000Y-92075000D03*
%TD*%
D17*
%TO.C,R7*%
X164272928Y-99011164D03*
X164912928Y-99011164D03*
%TD*%
D23*
%TO.C,D3*%
X158895000Y-92075000D03*
X154795000Y-92075000D03*
%TD*%
M02*
