%TF.GenerationSoftware,KiCad,Pcbnew,(6.0.7)*%
%TF.CreationDate,2023-03-06T01:25:52-05:00*%
%TF.ProjectId,CoreIO,436f7265-494f-42e6-9b69-6361645f7063,rev?*%
%TF.SameCoordinates,Original*%
%TF.FileFunction,Copper,L1,Top*%
%TF.FilePolarity,Positive*%
%FSLAX46Y46*%
G04 Gerber Fmt 4.6, Leading zero omitted, Abs format (unit mm)*
G04 Created by KiCad (PCBNEW (6.0.7)) date 2023-03-06 01:25:52*
%MOMM*%
%LPD*%
G01*
G04 APERTURE LIST*
G04 Aperture macros list*
%AMRoundRect*
0 Rectangle with rounded corners*
0 $1 Rounding radius*
0 $2 $3 $4 $5 $6 $7 $8 $9 X,Y pos of 4 corners*
0 Add a 4 corners polygon primitive as box body*
4,1,4,$2,$3,$4,$5,$6,$7,$8,$9,$2,$3,0*
0 Add four circle primitives for the rounded corners*
1,1,$1+$1,$2,$3*
1,1,$1+$1,$4,$5*
1,1,$1+$1,$6,$7*
1,1,$1+$1,$8,$9*
0 Add four rect primitives between the rounded corners*
20,1,$1+$1,$2,$3,$4,$5,0*
20,1,$1+$1,$4,$5,$6,$7,0*
20,1,$1+$1,$6,$7,$8,$9,0*
20,1,$1+$1,$8,$9,$2,$3,0*%
G04 Aperture macros list end*
%TA.AperFunction,SMDPad,CuDef*%
%ADD10RoundRect,0.088500X0.206500X-0.516500X0.206500X0.516500X-0.206500X0.516500X-0.206500X-0.516500X0*%
%TD*%
%TA.AperFunction,SMDPad,CuDef*%
%ADD11RoundRect,0.100000X0.130000X0.100000X-0.130000X0.100000X-0.130000X-0.100000X0.130000X-0.100000X0*%
%TD*%
%TA.AperFunction,ComponentPad*%
%ADD12O,1.200000X1.750000*%
%TD*%
%TA.AperFunction,ComponentPad*%
%ADD13RoundRect,0.250000X0.350000X0.625000X-0.350000X0.625000X-0.350000X-0.625000X0.350000X-0.625000X0*%
%TD*%
%TA.AperFunction,SMDPad,CuDef*%
%ADD14RoundRect,0.218750X0.218750X0.256250X-0.218750X0.256250X-0.218750X-0.256250X0.218750X-0.256250X0*%
%TD*%
%TA.AperFunction,ComponentPad*%
%ADD15C,1.800000*%
%TD*%
%TA.AperFunction,ComponentPad*%
%ADD16R,1.800000X1.800000*%
%TD*%
%TA.AperFunction,SMDPad,CuDef*%
%ADD17RoundRect,0.100000X-0.130000X-0.100000X0.130000X-0.100000X0.130000X0.100000X-0.130000X0.100000X0*%
%TD*%
%TA.AperFunction,SMDPad,CuDef*%
%ADD18R,1.000000X2.000000*%
%TD*%
%TA.AperFunction,SMDPad,CuDef*%
%ADD19R,1.300000X2.100000*%
%TD*%
%TA.AperFunction,ComponentPad*%
%ADD20RoundRect,0.250000X0.625000X-0.350000X0.625000X0.350000X-0.625000X0.350000X-0.625000X-0.350000X0*%
%TD*%
%TA.AperFunction,ComponentPad*%
%ADD21O,1.750000X1.200000*%
%TD*%
%TA.AperFunction,SMDPad,CuDef*%
%ADD22RoundRect,0.088500X-0.206500X0.516500X-0.206500X-0.516500X0.206500X-0.516500X0.206500X0.516500X0*%
%TD*%
%TA.AperFunction,SMDPad,CuDef*%
%ADD23R,1.800000X1.700000*%
%TD*%
%TA.AperFunction,ViaPad*%
%ADD24C,0.800000*%
%TD*%
%TA.AperFunction,Conductor*%
%ADD25C,0.203200*%
%TD*%
%TA.AperFunction,Conductor*%
%ADD26C,0.508000*%
%TD*%
%TA.AperFunction,Conductor*%
%ADD27C,2.500000*%
%TD*%
%TA.AperFunction,Conductor*%
%ADD28C,5.000000*%
%TD*%
%TA.AperFunction,Conductor*%
%ADD29C,3.000000*%
%TD*%
%TA.AperFunction,Conductor*%
%ADD30C,1.800000*%
%TD*%
G04 APERTURE END LIST*
D10*
%TO.P,Q2,1*%
%TO.N,/PYRO 1*%
X170246000Y-72375000D03*
%TO.P,Q2,3*%
%TO.N,Net-(J3-Pad2)*%
X171196000Y-69865000D03*
%TO.P,Q2,2*%
%TO.N,GND*%
X172146000Y-72375000D03*
%TD*%
D11*
%TO.P,R8,2*%
%TO.N,GND*%
X164272000Y-99822000D03*
%TO.P,R8,1*%
%TO.N,/CONT 1*%
X164912000Y-99822000D03*
%TD*%
D12*
%TO.P,J2,2,Pin_2*%
%TO.N,Net-(J2-Pad2)*%
X122190000Y-67220000D03*
D13*
%TO.P,J2,1,Pin_1*%
%TO.N,Net-(J2-Pad1)*%
X124190000Y-67220000D03*
%TD*%
D14*
%TO.P,D1,1,K*%
%TO.N,Net-(D1-Pad1)*%
X169076105Y-85725000D03*
%TO.P,D1,2,A*%
%TO.N,/V_BATT*%
X167501105Y-85725000D03*
%TD*%
D15*
%TO.P,S1,3*%
%TO.N,Net-(JP1-Pad3)*%
X140863176Y-81059176D03*
%TO.P,S1,2*%
%TO.N,Net-(JP1-Pad1)*%
X145943176Y-81059176D03*
D16*
%TO.P,S1,1*%
%TO.N,/SWITCH1*%
X151023176Y-81059176D03*
%TD*%
D11*
%TO.P,R6,1*%
%TO.N,/PYRO 1*%
X164892569Y-92954798D03*
%TO.P,R6,2*%
%TO.N,GND*%
X164252569Y-92954798D03*
%TD*%
D17*
%TO.P,R10,1*%
%TO.N,Net-(J4-Pad2)*%
X164256516Y-101901830D03*
%TO.P,R10,2*%
%TO.N,/CONT 2*%
X164896516Y-101901830D03*
%TD*%
D18*
%TO.P,J3,*%
%TO.N,*%
X174920000Y-62470000D03*
X170520000Y-62470000D03*
D19*
%TO.P,J3,1,Pin_1*%
%TO.N,/V_IGNITOR*%
X174820000Y-67070000D03*
%TO.P,J3,2,Pin_2*%
%TO.N,Net-(J3-Pad2)*%
X170620000Y-67070000D03*
%TD*%
D20*
%TO.P,J1,1,Pin_1*%
%TO.N,/CONT 2*%
X167780605Y-100981317D03*
D21*
%TO.P,J1,2,Pin_2*%
%TO.N,/CONT 1*%
X167780605Y-98981317D03*
%TO.P,J1,3,Pin_3*%
%TO.N,/ARM*%
X167780605Y-96981317D03*
%TO.P,J1,4,Pin_4*%
%TO.N,/PYRO 2*%
X167780605Y-94981317D03*
%TO.P,J1,5,Pin_5*%
%TO.N,/PYRO 1*%
X167780605Y-92981317D03*
%TO.P,J1,6,Pin_6*%
%TO.N,/V_BATT*%
X167780605Y-90981317D03*
%TO.P,J1,7,Pin_7*%
%TO.N,GND*%
X167780605Y-88981317D03*
%TD*%
D16*
%TO.P,S2,1*%
%TO.N,/V_BATT*%
X151023058Y-70888941D03*
D15*
%TO.P,S2,2*%
%TO.N,Net-(JP2-Pad1)*%
X145943058Y-70888941D03*
%TO.P,S2,3*%
%TO.N,Net-(JP2-Pad3)*%
X140863058Y-70888941D03*
%TD*%
D18*
%TO.P,J4,*%
%TO.N,*%
X174920000Y-127395000D03*
X170520000Y-127395000D03*
D19*
%TO.P,J4,1,Pin_1*%
%TO.N,/V_IGNITOR*%
X170620000Y-122795000D03*
%TO.P,J4,2,Pin_2*%
%TO.N,Net-(J4-Pad2)*%
X174820000Y-122795000D03*
%TD*%
D11*
%TO.P,R11,2*%
%TO.N,GND*%
X164252569Y-101082798D03*
%TO.P,R11,1*%
%TO.N,/CONT 2*%
X164892569Y-101082798D03*
%TD*%
%TO.P,R1,1*%
%TO.N,GND*%
X171008000Y-85741317D03*
%TO.P,R1,2*%
%TO.N,Net-(D1-Pad1)*%
X170368000Y-85741317D03*
%TD*%
%TO.P,R2,2*%
%TO.N,/V_IGNITOR*%
X164248569Y-97801918D03*
%TO.P,R2,1*%
%TO.N,/ARM*%
X164888569Y-97801918D03*
%TD*%
D22*
%TO.P,Q1,1*%
%TO.N,/PYRO 2*%
X175194000Y-117617000D03*
%TO.P,Q1,2*%
%TO.N,GND*%
X173294000Y-117617000D03*
%TO.P,Q1,3*%
%TO.N,Net-(J4-Pad2)*%
X174244000Y-120127000D03*
%TD*%
D17*
%TO.P,R5,1*%
%TO.N,GND*%
X164252569Y-97018798D03*
%TO.P,R5,2*%
%TO.N,/ARM*%
X164892569Y-97018798D03*
%TD*%
D11*
%TO.P,R9,1*%
%TO.N,/PYRO 2*%
X164892569Y-94986798D03*
%TO.P,R9,2*%
%TO.N,GND*%
X164252569Y-94986798D03*
%TD*%
D16*
%TO.P,S3,1*%
%TO.N,Net-(J2-Pad2)*%
X151059176Y-60762470D03*
D15*
%TO.P,S3,2*%
%TO.N,Net-(JP3-Pad1)*%
X145979176Y-60762470D03*
%TO.P,S3,3*%
%TO.N,Net-(JP3-Pad3)*%
X140899176Y-60762470D03*
%TD*%
D23*
%TO.P,D2,C*%
%TO.N,/SWITCH1*%
X150640000Y-92075000D03*
%TO.P,D2,A*%
%TO.N,Net-(BT1-Pad1)*%
X146540000Y-92075000D03*
%TD*%
D17*
%TO.P,R7,1*%
%TO.N,Net-(J3-Pad2)*%
X164272928Y-99011164D03*
%TO.P,R7,2*%
%TO.N,/CONT 1*%
X164912928Y-99011164D03*
%TD*%
D23*
%TO.P,D3,A*%
%TO.N,Net-(BT2-Pad1)*%
X158895000Y-92075000D03*
%TO.P,D3,C*%
%TO.N,/SWITCH1*%
X154795000Y-92075000D03*
%TD*%
D24*
%TO.N,GND*%
X170942000Y-84836000D03*
X172212000Y-74168000D03*
X171958000Y-116586000D03*
X163322000Y-101092000D03*
X164338000Y-91694000D03*
%TO.N,Net-(J3-Pad2)*%
X162814000Y-99060000D03*
X162814000Y-96520000D03*
X162814000Y-82804000D03*
X162814000Y-78740000D03*
%TO.N,Net-(BT2-Pad1)*%
X159004000Y-93980000D03*
%TO.N,Net-(BT1-Pad1)*%
X147320000Y-93980000D03*
%TO.N,/V_BATT*%
X143510000Y-79375000D03*
%TO.N,Net-(J2-Pad2)*%
X151130000Y-62865000D03*
%TO.N,Net-(J2-Pad1)*%
X142240000Y-65024000D03*
%TO.N,/V_IGNITOR*%
X143510000Y-70485000D03*
%TD*%
D25*
%TO.N,GND*%
X171008000Y-84902000D02*
X170942000Y-84836000D01*
X171008000Y-85741317D02*
X171008000Y-84902000D01*
%TO.N,/PYRO 2*%
X175260000Y-116332000D02*
X175260000Y-117551000D01*
X170434000Y-111506000D02*
X175260000Y-116332000D01*
X170434000Y-97634712D02*
X170434000Y-111506000D01*
D26*
X175260000Y-117551000D02*
X175194000Y-117617000D01*
D25*
X167780605Y-94981317D02*
X170434000Y-97634712D01*
%TO.N,Net-(J4-Pad2)*%
X172197000Y-120127000D02*
X174244000Y-120127000D01*
X170434000Y-119126000D02*
X171196000Y-119126000D01*
X164212516Y-112904516D02*
X170434000Y-119126000D01*
X171196000Y-119126000D02*
X172197000Y-120127000D01*
X164212516Y-101901830D02*
X164212516Y-112904516D01*
D26*
%TO.N,GND*%
X172146000Y-74102000D02*
X172212000Y-74168000D01*
D27*
X172146000Y-72375000D02*
X172146000Y-74102000D01*
X172989000Y-117617000D02*
X171958000Y-116586000D01*
D26*
X173294000Y-117617000D02*
X172989000Y-117617000D01*
D25*
X163331202Y-101082798D02*
X163322000Y-101092000D01*
X164252569Y-101082798D02*
X163331202Y-101082798D01*
X164272000Y-101063367D02*
X164252569Y-101082798D01*
X164272000Y-99822000D02*
X164272000Y-101063367D01*
X164252569Y-91779431D02*
X164338000Y-91694000D01*
X164252569Y-92954798D02*
X164252569Y-91779431D01*
X164252569Y-94986798D02*
X164252569Y-92954798D01*
X164252569Y-97018798D02*
X164252569Y-94986798D01*
%TO.N,/V_IGNITOR*%
X161290000Y-99060000D02*
X161290000Y-120368000D01*
D26*
X161290000Y-120368000D02*
X158863000Y-122795000D01*
D25*
X164204569Y-97801918D02*
X162548082Y-97801918D01*
X162548082Y-97801918D02*
X161290000Y-99060000D01*
%TO.N,/PYRO 1*%
X172212000Y-83820000D02*
X172212000Y-88549922D01*
X170246000Y-81854000D02*
X172212000Y-83820000D01*
X172212000Y-88549922D02*
X167780605Y-92981317D01*
X170246000Y-72375000D02*
X170246000Y-81854000D01*
D26*
X164963088Y-92981317D02*
X164936569Y-92954798D01*
D25*
X167780605Y-92981317D02*
X164963088Y-92981317D01*
%TO.N,/PYRO 2*%
X164898050Y-94981317D02*
X164892569Y-94986798D01*
X167780605Y-94981317D02*
X164898050Y-94981317D01*
%TO.N,/ARM*%
X164888569Y-97022798D02*
X164892569Y-97018798D01*
X164888569Y-97801918D02*
X164888569Y-97022798D01*
X164892569Y-97018798D02*
X164936569Y-97018798D01*
X164974050Y-96981317D02*
X164936569Y-97018798D01*
X167780605Y-96981317D02*
X164974050Y-96981317D01*
%TO.N,Net-(J3-Pad2)*%
X164208928Y-99060000D02*
X164208928Y-99011164D01*
X162814000Y-99060000D02*
X164208928Y-99060000D01*
D26*
X162814000Y-82804000D02*
X162814000Y-96520000D01*
X162814000Y-76708000D02*
X162814000Y-78740000D01*
X169657000Y-69865000D02*
X163068000Y-76454000D01*
X171196000Y-69865000D02*
X169657000Y-69865000D01*
X163068000Y-76454000D02*
X162814000Y-76708000D01*
D25*
%TO.N,/CONT 1*%
X164912928Y-99821072D02*
X164912000Y-99822000D01*
X164912928Y-99011164D02*
X164912928Y-99821072D01*
X164986775Y-98981317D02*
X164956928Y-99011164D01*
X167780605Y-98981317D02*
X164986775Y-98981317D01*
%TO.N,/CONT 2*%
X164936569Y-101046692D02*
X164936569Y-101086745D01*
X165001944Y-100981317D02*
X164936569Y-101046692D01*
X167780605Y-100981317D02*
X165001944Y-100981317D01*
X164896516Y-101086745D02*
X164892569Y-101082798D01*
X164896516Y-101901830D02*
X164896516Y-101086745D01*
D26*
%TO.N,/PYRO 1*%
X164936569Y-92964000D02*
X164936569Y-92954798D01*
D25*
%TO.N,Net-(D1-Pad1)*%
X169076105Y-85725000D02*
X170324000Y-85725000D01*
D26*
X170324000Y-85725000D02*
X170324000Y-85741317D01*
%TO.N,/V_BATT*%
X166451605Y-89652317D02*
X167780605Y-90981317D01*
X166451605Y-86774500D02*
X166451605Y-89652317D01*
X167501105Y-85725000D02*
X166451605Y-86774500D01*
X157448047Y-75671942D02*
X167501105Y-85725000D01*
X151023058Y-75671942D02*
X157448047Y-75671942D01*
D25*
%TO.N,/PYRO 1*%
X164912000Y-92964000D02*
X164929317Y-92981317D01*
D27*
%TO.N,Net-(J4-Pad2)*%
X174820000Y-120703000D02*
X174244000Y-120127000D01*
X174820000Y-122795000D02*
X174820000Y-120703000D01*
%TO.N,Net-(J3-Pad2)*%
X170670000Y-67120000D02*
X170620000Y-67120000D01*
X171196000Y-67646000D02*
X170670000Y-67120000D01*
X171196000Y-69865000D02*
X171196000Y-67646000D01*
%TO.N,Net-(BT2-Pad1)*%
X158895000Y-93871000D02*
X159004000Y-93980000D01*
X158895000Y-92075000D02*
X158895000Y-93871000D01*
%TO.N,Net-(BT1-Pad1)*%
X146540000Y-93200000D02*
X147320000Y-93980000D01*
X146540000Y-92075000D02*
X146540000Y-93200000D01*
D28*
%TO.N,/V_IGNITOR*%
X130048000Y-93980000D02*
X158863000Y-122795000D01*
X158863000Y-122795000D02*
X170620000Y-122795000D01*
X130048000Y-71628000D02*
X130048000Y-93980000D01*
D27*
X144981000Y-68379000D02*
X146050000Y-67310000D01*
X144674000Y-68072000D02*
X144981000Y-68379000D01*
X133604000Y-68072000D02*
X144674000Y-68072000D01*
X130048000Y-71628000D02*
X133604000Y-68072000D01*
D29*
%TO.N,/V_BATT*%
X151023058Y-70888941D02*
X151023058Y-75671942D01*
X151023058Y-75671942D02*
X149225000Y-77470000D01*
X143510000Y-77470000D02*
X143510000Y-79375000D01*
X149225000Y-77470000D02*
X143510000Y-77470000D01*
D27*
%TO.N,/SWITCH1*%
X150640000Y-92075000D02*
X154795000Y-92075000D01*
D29*
X151023176Y-81059176D02*
X151023176Y-91691824D01*
D27*
X151023176Y-91691824D02*
X150640000Y-92075000D01*
D26*
%TO.N,Net-(J2-Pad2)*%
X144780000Y-65405000D02*
X144145000Y-66040000D01*
X122190000Y-68215000D02*
X122190000Y-67220000D01*
X151130000Y-62865000D02*
X148590000Y-65405000D01*
X122555000Y-68580000D02*
X122190000Y-68215000D01*
X131572000Y-66040000D02*
X129032000Y-68580000D01*
X129032000Y-68580000D02*
X122555000Y-68580000D01*
X148590000Y-65405000D02*
X144780000Y-65405000D01*
X144145000Y-66040000D02*
X131572000Y-66040000D01*
%TO.N,Net-(J2-Pad1)*%
X128270000Y-67310000D02*
X124280000Y-67310000D01*
X142240000Y-65024000D02*
X130556000Y-65024000D01*
X130556000Y-65024000D02*
X128270000Y-67310000D01*
X124280000Y-67310000D02*
X124190000Y-67220000D01*
D30*
%TO.N,/V_IGNITOR*%
X172520000Y-64770000D02*
X168275000Y-64770000D01*
X174820000Y-67070000D02*
X172520000Y-64770000D01*
D27*
X165735000Y-67310000D02*
X146050000Y-67310000D01*
X168275000Y-64770000D02*
X165735000Y-67310000D01*
X146050000Y-67310000D02*
X143510000Y-69850000D01*
X143510000Y-69850000D02*
X143510000Y-70485000D01*
%TD*%
M02*
