%TF.GenerationSoftware,KiCad,Pcbnew,(6.0.7)*%
%TF.CreationDate,2023-03-08T10:43:50-05:00*%
%TF.ProjectId,CoreIO,436f7265-494f-42e6-9b69-6361645f7063,rev?*%
%TF.SameCoordinates,Original*%
%TF.FileFunction,Drillmap*%
%TF.FilePolarity,Positive*%
%FSLAX45Y45*%
G04 Gerber Fmt 4.5, Leading zero omitted, Abs format (unit mm)*
G04 Created by KiCad (PCBNEW (6.0.7)) date 2023-03-08 10:43:50*
%MOMM*%
%LPD*%
G01*
G04 APERTURE LIST*
%ADD10C,0.200000*%
%ADD11C,0.040000*%
%ADD12C,0.075000*%
%ADD13C,0.120000*%
%ADD14C,0.150000*%
%ADD15C,0.320000*%
G04 APERTURE END LIST*
D10*
X15775394Y-7087670D02*
G75*
G03*
X15775394Y-7087670I-100000J0D01*
G01*
X13616394Y-7087670D02*
G75*
G03*
X13616394Y-7087670I-100000J0D01*
G01*
X11992394Y-13945670D02*
X17580394Y-13945670D01*
X11738394Y-5309671D02*
X11738394Y-13691670D01*
X13616394Y-8103670D02*
G75*
G03*
X13616394Y-8103670I-100000J0D01*
G01*
X17580394Y-5055671D02*
X11992394Y-5055671D01*
X17834394Y-13691670D02*
X17834394Y-5309671D01*
X13616394Y-6071670D02*
G75*
G03*
X13616394Y-6071670I-100000J0D01*
G01*
X17834390Y-5309671D02*
G75*
G03*
X17580394Y-5055671I-254000J1D01*
G01*
X15775394Y-6071670D02*
G75*
G03*
X15775394Y-6071670I-100000J0D01*
G01*
X17580394Y-13945674D02*
G75*
G03*
X17834394Y-13691670I-4J254004D01*
G01*
X11992394Y-5055674D02*
G75*
G03*
X11738394Y-5309671I-4J-253996D01*
G01*
X15775394Y-8103670D02*
G75*
G03*
X15775394Y-8103670I-100000J0D01*
G01*
X11738389Y-13691670D02*
G75*
G03*
X11992394Y-13945670I254001J1D01*
G01*
D11*
X14204000Y-6482400D02*
X14244000Y-6522400D01*
X14244000Y-6482400D02*
X14204000Y-6522400D01*
X15093000Y-6266500D02*
X15133000Y-6306500D01*
X15133000Y-6266500D02*
X15093000Y-6306500D01*
X16210600Y-9663280D02*
X16250600Y-9703280D01*
X16250600Y-9663280D02*
X16210600Y-9703280D01*
X16210600Y-9803500D02*
X16250600Y-9843500D01*
X16250600Y-9803500D02*
X16210600Y-9843500D01*
X16236000Y-10190800D02*
X16276000Y-10230800D01*
X16276000Y-10190800D02*
X16236000Y-10230800D01*
X16261400Y-7854000D02*
X16301400Y-7894000D01*
X16301400Y-7854000D02*
X16261400Y-7894000D01*
X16261400Y-8260400D02*
X16301400Y-8300400D01*
X16301400Y-8260400D02*
X16261400Y-8300400D01*
X16337600Y-9149400D02*
X16377600Y-9189400D01*
X16377600Y-9149400D02*
X16337600Y-9189400D01*
X17125000Y-8743000D02*
X17165000Y-8783000D01*
X17165000Y-8743000D02*
X17125000Y-8783000D01*
D12*
X12256500Y-6722000D02*
G75*
G03*
X12256500Y-6722000I-37500J0D01*
G01*
X12456500Y-6722000D02*
G75*
G03*
X12456500Y-6722000I-37500J0D01*
G01*
X16815561Y-8898132D02*
G75*
G03*
X16815561Y-8898132I-37500J0D01*
G01*
X16815561Y-9098132D02*
G75*
G03*
X16815561Y-9098132I-37500J0D01*
G01*
X16815561Y-9298132D02*
G75*
G03*
X16815561Y-9298132I-37500J0D01*
G01*
X16815561Y-9498132D02*
G75*
G03*
X16815561Y-9498132I-37500J0D01*
G01*
X16815561Y-9698132D02*
G75*
G03*
X16815561Y-9698132I-37500J0D01*
G01*
X16815561Y-9898132D02*
G75*
G03*
X16815561Y-9898132I-37500J0D01*
G01*
X16815561Y-10098132D02*
G75*
G03*
X16815561Y-10098132I-37500J0D01*
G01*
D13*
X14351000Y-6988500D02*
X14351000Y-7108500D01*
X14291000Y-7048500D02*
X14411000Y-7048500D01*
X14128733Y-7131321D02*
X14128733Y-7046467D01*
X14043879Y-7046467D01*
X14043879Y-7131321D01*
X14128733Y-7131321D01*
X14128744Y-8148344D02*
X14128744Y-8063491D01*
X14043891Y-8063491D01*
X14043891Y-8148344D01*
X14128744Y-8148344D01*
X14132344Y-6118674D02*
X14132344Y-6033820D01*
X14047491Y-6033820D01*
X14047491Y-6118674D01*
X14132344Y-6118674D01*
X14636733Y-7131321D02*
X14636733Y-7046467D01*
X14551879Y-7046467D01*
X14551879Y-7131321D01*
X14636733Y-7131321D01*
X14636744Y-8148344D02*
X14636744Y-8063491D01*
X14551891Y-8063491D01*
X14551891Y-8148344D01*
X14636744Y-8148344D01*
X14640344Y-6118674D02*
X14640344Y-6033820D01*
X14555491Y-6033820D01*
X14555491Y-6118674D01*
X14640344Y-6118674D01*
X15144733Y-7131321D02*
X15144733Y-7046467D01*
X15059879Y-7046467D01*
X15059879Y-7131321D01*
X15144733Y-7131321D01*
X15144744Y-8148344D02*
X15144744Y-8063491D01*
X15059891Y-8063491D01*
X15059891Y-8148344D01*
X15144744Y-8148344D01*
X15148344Y-6118674D02*
X15148344Y-6033820D01*
X15063491Y-6033820D01*
X15063491Y-6118674D01*
X15148344Y-6118674D01*
D14*
X14351000Y-8012500D02*
X14426000Y-7937500D01*
X14351000Y-7862500D01*
X14276000Y-7937500D01*
X14351000Y-8012500D01*
X14732000Y-9473000D02*
X14807000Y-9398000D01*
X14732000Y-9323000D01*
X14657000Y-9398000D01*
X14732000Y-9473000D01*
X15900400Y-9473000D02*
X15975400Y-9398000D01*
X15900400Y-9323000D01*
X15825400Y-9398000D01*
X15900400Y-9473000D01*
X17195800Y-11733600D02*
X17270800Y-11658600D01*
X17195800Y-11583600D01*
X17120800Y-11658600D01*
X17195800Y-11733600D01*
X17221200Y-7491800D02*
X17296200Y-7416800D01*
X17221200Y-7341800D01*
X17146200Y-7416800D01*
X17221200Y-7491800D01*
D15*
X12721600Y-5213905D02*
X13041600Y-5533905D01*
X13041600Y-5213905D02*
X12721600Y-5533905D01*
X13041600Y-5373905D02*
G75*
G03*
X13041600Y-5373905I-160000J0D01*
G01*
X12722104Y-13467638D02*
X13042104Y-13787638D01*
X13042104Y-13467638D02*
X12722104Y-13787638D01*
X13042104Y-13627638D02*
G75*
G03*
X13042104Y-13627638I-160000J0D01*
G01*
X16530270Y-13466878D02*
X16850270Y-13786878D01*
X16850270Y-13466878D02*
X16530270Y-13786878D01*
X16850270Y-13626878D02*
G75*
G03*
X16850270Y-13626878I-160000J0D01*
G01*
X16530902Y-5213905D02*
X16850903Y-5533905D01*
X16850903Y-5213905D02*
X16530902Y-5533905D01*
X16850903Y-5373905D02*
G75*
G03*
X16850903Y-5373905I-160000J0D01*
G01*
D10*
X11986013Y-14266147D02*
X11986013Y-14066147D01*
X12033632Y-14066147D01*
X12062203Y-14075670D01*
X12081251Y-14094718D01*
X12090775Y-14113766D01*
X12100299Y-14151861D01*
X12100299Y-14180432D01*
X12090775Y-14218528D01*
X12081251Y-14237575D01*
X12062203Y-14256623D01*
X12033632Y-14266147D01*
X11986013Y-14266147D01*
X12186013Y-14266147D02*
X12186013Y-14132813D01*
X12186013Y-14170908D02*
X12195537Y-14151861D01*
X12205061Y-14142337D01*
X12224108Y-14132813D01*
X12243156Y-14132813D01*
X12309822Y-14266147D02*
X12309822Y-14132813D01*
X12309822Y-14066147D02*
X12300299Y-14075670D01*
X12309822Y-14085194D01*
X12319346Y-14075670D01*
X12309822Y-14066147D01*
X12309822Y-14085194D01*
X12433632Y-14266147D02*
X12414584Y-14256623D01*
X12405061Y-14237575D01*
X12405061Y-14066147D01*
X12538394Y-14266147D02*
X12519346Y-14256623D01*
X12509822Y-14237575D01*
X12509822Y-14066147D01*
X12766965Y-14266147D02*
X12766965Y-14066147D01*
X12833632Y-14209004D01*
X12900299Y-14066147D01*
X12900299Y-14266147D01*
X13081251Y-14266147D02*
X13081251Y-14161385D01*
X13071727Y-14142337D01*
X13052680Y-14132813D01*
X13014584Y-14132813D01*
X12995537Y-14142337D01*
X13081251Y-14256623D02*
X13062203Y-14266147D01*
X13014584Y-14266147D01*
X12995537Y-14256623D01*
X12986013Y-14237575D01*
X12986013Y-14218528D01*
X12995537Y-14199480D01*
X13014584Y-14189956D01*
X13062203Y-14189956D01*
X13081251Y-14180432D01*
X13176489Y-14132813D02*
X13176489Y-14332813D01*
X13176489Y-14142337D02*
X13195537Y-14132813D01*
X13233632Y-14132813D01*
X13252680Y-14142337D01*
X13262203Y-14151861D01*
X13271727Y-14170908D01*
X13271727Y-14228051D01*
X13262203Y-14247099D01*
X13252680Y-14256623D01*
X13233632Y-14266147D01*
X13195537Y-14266147D01*
X13176489Y-14256623D01*
X13357442Y-14247099D02*
X13366965Y-14256623D01*
X13357442Y-14266147D01*
X13347918Y-14256623D01*
X13357442Y-14247099D01*
X13357442Y-14266147D01*
X13357442Y-14142337D02*
X13366965Y-14151861D01*
X13357442Y-14161385D01*
X13347918Y-14151861D01*
X13357442Y-14142337D01*
X13357442Y-14161385D01*
D11*
X11688394Y-14575670D02*
X11728394Y-14615670D01*
X11728394Y-14575670D02*
X11688394Y-14615670D01*
D10*
X12024108Y-14486147D02*
X12043156Y-14486147D01*
X12062203Y-14495670D01*
X12071727Y-14505194D01*
X12081251Y-14524242D01*
X12090775Y-14562337D01*
X12090775Y-14609956D01*
X12081251Y-14648051D01*
X12071727Y-14667099D01*
X12062203Y-14676623D01*
X12043156Y-14686147D01*
X12024108Y-14686147D01*
X12005061Y-14676623D01*
X11995537Y-14667099D01*
X11986013Y-14648051D01*
X11976489Y-14609956D01*
X11976489Y-14562337D01*
X11986013Y-14524242D01*
X11995537Y-14505194D01*
X12005061Y-14495670D01*
X12024108Y-14486147D01*
X12176489Y-14667099D02*
X12186013Y-14676623D01*
X12176489Y-14686147D01*
X12166965Y-14676623D01*
X12176489Y-14667099D01*
X12176489Y-14686147D01*
X12357442Y-14552813D02*
X12357442Y-14686147D01*
X12309822Y-14476623D02*
X12262203Y-14619480D01*
X12386013Y-14619480D01*
X12500299Y-14486147D02*
X12519346Y-14486147D01*
X12538394Y-14495670D01*
X12547918Y-14505194D01*
X12557442Y-14524242D01*
X12566965Y-14562337D01*
X12566965Y-14609956D01*
X12557442Y-14648051D01*
X12547918Y-14667099D01*
X12538394Y-14676623D01*
X12519346Y-14686147D01*
X12500299Y-14686147D01*
X12481251Y-14676623D01*
X12471727Y-14667099D01*
X12462203Y-14648051D01*
X12452680Y-14609956D01*
X12452680Y-14562337D01*
X12462203Y-14524242D01*
X12471727Y-14505194D01*
X12481251Y-14495670D01*
X12500299Y-14486147D01*
X12690775Y-14486147D02*
X12709822Y-14486147D01*
X12728870Y-14495670D01*
X12738394Y-14505194D01*
X12747918Y-14524242D01*
X12757442Y-14562337D01*
X12757442Y-14609956D01*
X12747918Y-14648051D01*
X12738394Y-14667099D01*
X12728870Y-14676623D01*
X12709822Y-14686147D01*
X12690775Y-14686147D01*
X12671727Y-14676623D01*
X12662203Y-14667099D01*
X12652680Y-14648051D01*
X12643156Y-14609956D01*
X12643156Y-14562337D01*
X12652680Y-14524242D01*
X12662203Y-14505194D01*
X12671727Y-14495670D01*
X12690775Y-14486147D01*
X12843156Y-14686147D02*
X12843156Y-14552813D01*
X12843156Y-14571861D02*
X12852680Y-14562337D01*
X12871727Y-14552813D01*
X12900299Y-14552813D01*
X12919346Y-14562337D01*
X12928870Y-14581385D01*
X12928870Y-14686147D01*
X12928870Y-14581385D02*
X12938394Y-14562337D01*
X12957442Y-14552813D01*
X12986013Y-14552813D01*
X13005061Y-14562337D01*
X13014584Y-14581385D01*
X13014584Y-14686147D01*
X13109822Y-14686147D02*
X13109822Y-14552813D01*
X13109822Y-14571861D02*
X13119346Y-14562337D01*
X13138394Y-14552813D01*
X13166965Y-14552813D01*
X13186013Y-14562337D01*
X13195537Y-14581385D01*
X13195537Y-14686147D01*
X13195537Y-14581385D02*
X13205061Y-14562337D01*
X13224108Y-14552813D01*
X13252680Y-14552813D01*
X13271727Y-14562337D01*
X13281251Y-14581385D01*
X13281251Y-14686147D01*
X13671727Y-14476623D02*
X13500299Y-14733766D01*
X13928870Y-14486147D02*
X13947918Y-14486147D01*
X13966965Y-14495670D01*
X13976489Y-14505194D01*
X13986013Y-14524242D01*
X13995537Y-14562337D01*
X13995537Y-14609956D01*
X13986013Y-14648051D01*
X13976489Y-14667099D01*
X13966965Y-14676623D01*
X13947918Y-14686147D01*
X13928870Y-14686147D01*
X13909822Y-14676623D01*
X13900299Y-14667099D01*
X13890775Y-14648051D01*
X13881251Y-14609956D01*
X13881251Y-14562337D01*
X13890775Y-14524242D01*
X13900299Y-14505194D01*
X13909822Y-14495670D01*
X13928870Y-14486147D01*
X14081251Y-14667099D02*
X14090775Y-14676623D01*
X14081251Y-14686147D01*
X14071727Y-14676623D01*
X14081251Y-14667099D01*
X14081251Y-14686147D01*
X14214584Y-14486147D02*
X14233632Y-14486147D01*
X14252680Y-14495670D01*
X14262203Y-14505194D01*
X14271727Y-14524242D01*
X14281251Y-14562337D01*
X14281251Y-14609956D01*
X14271727Y-14648051D01*
X14262203Y-14667099D01*
X14252680Y-14676623D01*
X14233632Y-14686147D01*
X14214584Y-14686147D01*
X14195537Y-14676623D01*
X14186013Y-14667099D01*
X14176489Y-14648051D01*
X14166965Y-14609956D01*
X14166965Y-14562337D01*
X14176489Y-14524242D01*
X14186013Y-14505194D01*
X14195537Y-14495670D01*
X14214584Y-14486147D01*
X14471727Y-14686147D02*
X14357442Y-14686147D01*
X14414584Y-14686147D02*
X14414584Y-14486147D01*
X14395537Y-14514718D01*
X14376489Y-14533766D01*
X14357442Y-14543289D01*
X14652680Y-14486147D02*
X14557442Y-14486147D01*
X14547918Y-14581385D01*
X14557442Y-14571861D01*
X14576489Y-14562337D01*
X14624108Y-14562337D01*
X14643156Y-14571861D01*
X14652680Y-14581385D01*
X14662203Y-14600432D01*
X14662203Y-14648051D01*
X14652680Y-14667099D01*
X14643156Y-14676623D01*
X14624108Y-14686147D01*
X14576489Y-14686147D01*
X14557442Y-14676623D01*
X14547918Y-14667099D01*
X14728870Y-14486147D02*
X14862203Y-14486147D01*
X14776489Y-14686147D01*
X14928870Y-14486147D02*
X14928870Y-14524242D01*
X15005061Y-14486147D02*
X15005061Y-14524242D01*
X15300299Y-14762337D02*
X15290775Y-14752813D01*
X15271727Y-14724242D01*
X15262203Y-14705194D01*
X15252680Y-14676623D01*
X15243156Y-14629004D01*
X15243156Y-14590908D01*
X15252680Y-14543289D01*
X15262203Y-14514718D01*
X15271727Y-14495670D01*
X15290775Y-14467099D01*
X15300299Y-14457575D01*
X15386013Y-14686147D02*
X15424108Y-14686147D01*
X15443156Y-14676623D01*
X15452680Y-14667099D01*
X15471727Y-14638528D01*
X15481251Y-14600432D01*
X15481251Y-14524242D01*
X15471727Y-14505194D01*
X15462203Y-14495670D01*
X15443156Y-14486147D01*
X15405061Y-14486147D01*
X15386013Y-14495670D01*
X15376489Y-14505194D01*
X15366965Y-14524242D01*
X15366965Y-14571861D01*
X15376489Y-14590908D01*
X15386013Y-14600432D01*
X15405061Y-14609956D01*
X15443156Y-14609956D01*
X15462203Y-14600432D01*
X15471727Y-14590908D01*
X15481251Y-14571861D01*
X15719346Y-14686147D02*
X15719346Y-14486147D01*
X15805061Y-14686147D02*
X15805061Y-14581385D01*
X15795537Y-14562337D01*
X15776489Y-14552813D01*
X15747918Y-14552813D01*
X15728870Y-14562337D01*
X15719346Y-14571861D01*
X15928870Y-14686147D02*
X15909822Y-14676623D01*
X15900299Y-14667099D01*
X15890775Y-14648051D01*
X15890775Y-14590908D01*
X15900299Y-14571861D01*
X15909822Y-14562337D01*
X15928870Y-14552813D01*
X15957442Y-14552813D01*
X15976489Y-14562337D01*
X15986013Y-14571861D01*
X15995537Y-14590908D01*
X15995537Y-14648051D01*
X15986013Y-14667099D01*
X15976489Y-14676623D01*
X15957442Y-14686147D01*
X15928870Y-14686147D01*
X16109822Y-14686147D02*
X16090775Y-14676623D01*
X16081251Y-14657575D01*
X16081251Y-14486147D01*
X16262203Y-14676623D02*
X16243156Y-14686147D01*
X16205061Y-14686147D01*
X16186013Y-14676623D01*
X16176489Y-14657575D01*
X16176489Y-14581385D01*
X16186013Y-14562337D01*
X16205061Y-14552813D01*
X16243156Y-14552813D01*
X16262203Y-14562337D01*
X16271727Y-14581385D01*
X16271727Y-14600432D01*
X16176489Y-14619480D01*
X16347918Y-14676623D02*
X16366965Y-14686147D01*
X16405061Y-14686147D01*
X16424108Y-14676623D01*
X16433632Y-14657575D01*
X16433632Y-14648051D01*
X16424108Y-14629004D01*
X16405061Y-14619480D01*
X16376489Y-14619480D01*
X16357442Y-14609956D01*
X16347918Y-14590908D01*
X16347918Y-14581385D01*
X16357442Y-14562337D01*
X16376489Y-14552813D01*
X16405061Y-14552813D01*
X16424108Y-14562337D01*
X16500299Y-14762337D02*
X16509822Y-14752813D01*
X16528870Y-14724242D01*
X16538394Y-14705194D01*
X16547918Y-14676623D01*
X16557442Y-14629004D01*
X16557442Y-14590908D01*
X16547918Y-14543289D01*
X16538394Y-14514718D01*
X16528870Y-14495670D01*
X16509822Y-14467099D01*
X16500299Y-14457575D01*
D12*
X11728394Y-14859670D02*
G75*
G03*
X11728394Y-14859670I-37500J0D01*
G01*
D10*
X12024108Y-14750147D02*
X12043156Y-14750147D01*
X12062203Y-14759670D01*
X12071727Y-14769194D01*
X12081251Y-14788242D01*
X12090775Y-14826337D01*
X12090775Y-14873956D01*
X12081251Y-14912051D01*
X12071727Y-14931099D01*
X12062203Y-14940623D01*
X12043156Y-14950147D01*
X12024108Y-14950147D01*
X12005061Y-14940623D01*
X11995537Y-14931099D01*
X11986013Y-14912051D01*
X11976489Y-14873956D01*
X11976489Y-14826337D01*
X11986013Y-14788242D01*
X11995537Y-14769194D01*
X12005061Y-14759670D01*
X12024108Y-14750147D01*
X12176489Y-14931099D02*
X12186013Y-14940623D01*
X12176489Y-14950147D01*
X12166965Y-14940623D01*
X12176489Y-14931099D01*
X12176489Y-14950147D01*
X12252680Y-14750147D02*
X12386013Y-14750147D01*
X12300299Y-14950147D01*
X12557442Y-14750147D02*
X12462203Y-14750147D01*
X12452680Y-14845385D01*
X12462203Y-14835861D01*
X12481251Y-14826337D01*
X12528870Y-14826337D01*
X12547918Y-14835861D01*
X12557442Y-14845385D01*
X12566965Y-14864432D01*
X12566965Y-14912051D01*
X12557442Y-14931099D01*
X12547918Y-14940623D01*
X12528870Y-14950147D01*
X12481251Y-14950147D01*
X12462203Y-14940623D01*
X12452680Y-14931099D01*
X12690775Y-14750147D02*
X12709822Y-14750147D01*
X12728870Y-14759670D01*
X12738394Y-14769194D01*
X12747918Y-14788242D01*
X12757442Y-14826337D01*
X12757442Y-14873956D01*
X12747918Y-14912051D01*
X12738394Y-14931099D01*
X12728870Y-14940623D01*
X12709822Y-14950147D01*
X12690775Y-14950147D01*
X12671727Y-14940623D01*
X12662203Y-14931099D01*
X12652680Y-14912051D01*
X12643156Y-14873956D01*
X12643156Y-14826337D01*
X12652680Y-14788242D01*
X12662203Y-14769194D01*
X12671727Y-14759670D01*
X12690775Y-14750147D01*
X12843156Y-14950147D02*
X12843156Y-14816813D01*
X12843156Y-14835861D02*
X12852680Y-14826337D01*
X12871727Y-14816813D01*
X12900299Y-14816813D01*
X12919346Y-14826337D01*
X12928870Y-14845385D01*
X12928870Y-14950147D01*
X12928870Y-14845385D02*
X12938394Y-14826337D01*
X12957442Y-14816813D01*
X12986013Y-14816813D01*
X13005061Y-14826337D01*
X13014584Y-14845385D01*
X13014584Y-14950147D01*
X13109822Y-14950147D02*
X13109822Y-14816813D01*
X13109822Y-14835861D02*
X13119346Y-14826337D01*
X13138394Y-14816813D01*
X13166965Y-14816813D01*
X13186013Y-14826337D01*
X13195537Y-14845385D01*
X13195537Y-14950147D01*
X13195537Y-14845385D02*
X13205061Y-14826337D01*
X13224108Y-14816813D01*
X13252680Y-14816813D01*
X13271727Y-14826337D01*
X13281251Y-14845385D01*
X13281251Y-14950147D01*
X13671727Y-14740623D02*
X13500299Y-14997766D01*
X13928870Y-14750147D02*
X13947918Y-14750147D01*
X13966965Y-14759670D01*
X13976489Y-14769194D01*
X13986013Y-14788242D01*
X13995537Y-14826337D01*
X13995537Y-14873956D01*
X13986013Y-14912051D01*
X13976489Y-14931099D01*
X13966965Y-14940623D01*
X13947918Y-14950147D01*
X13928870Y-14950147D01*
X13909822Y-14940623D01*
X13900299Y-14931099D01*
X13890775Y-14912051D01*
X13881251Y-14873956D01*
X13881251Y-14826337D01*
X13890775Y-14788242D01*
X13900299Y-14769194D01*
X13909822Y-14759670D01*
X13928870Y-14750147D01*
X14081251Y-14931099D02*
X14090775Y-14940623D01*
X14081251Y-14950147D01*
X14071727Y-14940623D01*
X14081251Y-14931099D01*
X14081251Y-14950147D01*
X14214584Y-14750147D02*
X14233632Y-14750147D01*
X14252680Y-14759670D01*
X14262203Y-14769194D01*
X14271727Y-14788242D01*
X14281251Y-14826337D01*
X14281251Y-14873956D01*
X14271727Y-14912051D01*
X14262203Y-14931099D01*
X14252680Y-14940623D01*
X14233632Y-14950147D01*
X14214584Y-14950147D01*
X14195537Y-14940623D01*
X14186013Y-14931099D01*
X14176489Y-14912051D01*
X14166965Y-14873956D01*
X14166965Y-14826337D01*
X14176489Y-14788242D01*
X14186013Y-14769194D01*
X14195537Y-14759670D01*
X14214584Y-14750147D01*
X14357442Y-14769194D02*
X14366965Y-14759670D01*
X14386013Y-14750147D01*
X14433632Y-14750147D01*
X14452680Y-14759670D01*
X14462203Y-14769194D01*
X14471727Y-14788242D01*
X14471727Y-14807289D01*
X14462203Y-14835861D01*
X14347918Y-14950147D01*
X14471727Y-14950147D01*
X14566965Y-14950147D02*
X14605061Y-14950147D01*
X14624108Y-14940623D01*
X14633632Y-14931099D01*
X14652680Y-14902528D01*
X14662203Y-14864432D01*
X14662203Y-14788242D01*
X14652680Y-14769194D01*
X14643156Y-14759670D01*
X14624108Y-14750147D01*
X14586013Y-14750147D01*
X14566965Y-14759670D01*
X14557442Y-14769194D01*
X14547918Y-14788242D01*
X14547918Y-14835861D01*
X14557442Y-14854908D01*
X14566965Y-14864432D01*
X14586013Y-14873956D01*
X14624108Y-14873956D01*
X14643156Y-14864432D01*
X14652680Y-14854908D01*
X14662203Y-14835861D01*
X14843156Y-14750147D02*
X14747918Y-14750147D01*
X14738394Y-14845385D01*
X14747918Y-14835861D01*
X14766965Y-14826337D01*
X14814584Y-14826337D01*
X14833632Y-14835861D01*
X14843156Y-14845385D01*
X14852680Y-14864432D01*
X14852680Y-14912051D01*
X14843156Y-14931099D01*
X14833632Y-14940623D01*
X14814584Y-14950147D01*
X14766965Y-14950147D01*
X14747918Y-14940623D01*
X14738394Y-14931099D01*
X14928870Y-14750147D02*
X14928870Y-14788242D01*
X15005061Y-14750147D02*
X15005061Y-14788242D01*
X15300299Y-15026337D02*
X15290775Y-15016813D01*
X15271727Y-14988242D01*
X15262203Y-14969194D01*
X15252680Y-14940623D01*
X15243156Y-14893004D01*
X15243156Y-14854908D01*
X15252680Y-14807289D01*
X15262203Y-14778718D01*
X15271727Y-14759670D01*
X15290775Y-14731099D01*
X15300299Y-14721575D01*
X15386013Y-14950147D02*
X15424108Y-14950147D01*
X15443156Y-14940623D01*
X15452680Y-14931099D01*
X15471727Y-14902528D01*
X15481251Y-14864432D01*
X15481251Y-14788242D01*
X15471727Y-14769194D01*
X15462203Y-14759670D01*
X15443156Y-14750147D01*
X15405061Y-14750147D01*
X15386013Y-14759670D01*
X15376489Y-14769194D01*
X15366965Y-14788242D01*
X15366965Y-14835861D01*
X15376489Y-14854908D01*
X15386013Y-14864432D01*
X15405061Y-14873956D01*
X15443156Y-14873956D01*
X15462203Y-14864432D01*
X15471727Y-14854908D01*
X15481251Y-14835861D01*
X15719346Y-14950147D02*
X15719346Y-14750147D01*
X15805061Y-14950147D02*
X15805061Y-14845385D01*
X15795537Y-14826337D01*
X15776489Y-14816813D01*
X15747918Y-14816813D01*
X15728870Y-14826337D01*
X15719346Y-14835861D01*
X15928870Y-14950147D02*
X15909822Y-14940623D01*
X15900299Y-14931099D01*
X15890775Y-14912051D01*
X15890775Y-14854908D01*
X15900299Y-14835861D01*
X15909822Y-14826337D01*
X15928870Y-14816813D01*
X15957442Y-14816813D01*
X15976489Y-14826337D01*
X15986013Y-14835861D01*
X15995537Y-14854908D01*
X15995537Y-14912051D01*
X15986013Y-14931099D01*
X15976489Y-14940623D01*
X15957442Y-14950147D01*
X15928870Y-14950147D01*
X16109822Y-14950147D02*
X16090775Y-14940623D01*
X16081251Y-14921575D01*
X16081251Y-14750147D01*
X16262203Y-14940623D02*
X16243156Y-14950147D01*
X16205061Y-14950147D01*
X16186013Y-14940623D01*
X16176489Y-14921575D01*
X16176489Y-14845385D01*
X16186013Y-14826337D01*
X16205061Y-14816813D01*
X16243156Y-14816813D01*
X16262203Y-14826337D01*
X16271727Y-14845385D01*
X16271727Y-14864432D01*
X16176489Y-14883480D01*
X16347918Y-14940623D02*
X16366965Y-14950147D01*
X16405061Y-14950147D01*
X16424108Y-14940623D01*
X16433632Y-14921575D01*
X16433632Y-14912051D01*
X16424108Y-14893004D01*
X16405061Y-14883480D01*
X16376489Y-14883480D01*
X16357442Y-14873956D01*
X16347918Y-14854908D01*
X16347918Y-14845385D01*
X16357442Y-14826337D01*
X16376489Y-14816813D01*
X16405061Y-14816813D01*
X16424108Y-14826337D01*
X16500299Y-15026337D02*
X16509822Y-15016813D01*
X16528870Y-14988242D01*
X16538394Y-14969194D01*
X16547918Y-14940623D01*
X16557442Y-14893004D01*
X16557442Y-14854908D01*
X16547918Y-14807289D01*
X16538394Y-14778718D01*
X16528870Y-14759670D01*
X16509822Y-14731099D01*
X16500299Y-14721575D01*
D13*
X11668394Y-15063670D02*
X11668394Y-15183670D01*
X11608394Y-15123670D02*
X11728394Y-15123670D01*
D10*
X12090775Y-15214147D02*
X11976489Y-15214147D01*
X12033632Y-15214147D02*
X12033632Y-15014147D01*
X12014584Y-15042718D01*
X11995537Y-15061766D01*
X11976489Y-15071289D01*
X12176489Y-15195099D02*
X12186013Y-15204623D01*
X12176489Y-15214147D01*
X12166965Y-15204623D01*
X12176489Y-15195099D01*
X12176489Y-15214147D01*
X12262203Y-15033194D02*
X12271727Y-15023670D01*
X12290775Y-15014147D01*
X12338394Y-15014147D01*
X12357442Y-15023670D01*
X12366965Y-15033194D01*
X12376489Y-15052242D01*
X12376489Y-15071289D01*
X12366965Y-15099861D01*
X12252680Y-15214147D01*
X12376489Y-15214147D01*
X12500299Y-15014147D02*
X12519346Y-15014147D01*
X12538394Y-15023670D01*
X12547918Y-15033194D01*
X12557442Y-15052242D01*
X12566965Y-15090337D01*
X12566965Y-15137956D01*
X12557442Y-15176051D01*
X12547918Y-15195099D01*
X12538394Y-15204623D01*
X12519346Y-15214147D01*
X12500299Y-15214147D01*
X12481251Y-15204623D01*
X12471727Y-15195099D01*
X12462203Y-15176051D01*
X12452680Y-15137956D01*
X12452680Y-15090337D01*
X12462203Y-15052242D01*
X12471727Y-15033194D01*
X12481251Y-15023670D01*
X12500299Y-15014147D01*
X12690775Y-15014147D02*
X12709822Y-15014147D01*
X12728870Y-15023670D01*
X12738394Y-15033194D01*
X12747918Y-15052242D01*
X12757442Y-15090337D01*
X12757442Y-15137956D01*
X12747918Y-15176051D01*
X12738394Y-15195099D01*
X12728870Y-15204623D01*
X12709822Y-15214147D01*
X12690775Y-15214147D01*
X12671727Y-15204623D01*
X12662203Y-15195099D01*
X12652680Y-15176051D01*
X12643156Y-15137956D01*
X12643156Y-15090337D01*
X12652680Y-15052242D01*
X12662203Y-15033194D01*
X12671727Y-15023670D01*
X12690775Y-15014147D01*
X12843156Y-15214147D02*
X12843156Y-15080813D01*
X12843156Y-15099861D02*
X12852680Y-15090337D01*
X12871727Y-15080813D01*
X12900299Y-15080813D01*
X12919346Y-15090337D01*
X12928870Y-15109385D01*
X12928870Y-15214147D01*
X12928870Y-15109385D02*
X12938394Y-15090337D01*
X12957442Y-15080813D01*
X12986013Y-15080813D01*
X13005061Y-15090337D01*
X13014584Y-15109385D01*
X13014584Y-15214147D01*
X13109822Y-15214147D02*
X13109822Y-15080813D01*
X13109822Y-15099861D02*
X13119346Y-15090337D01*
X13138394Y-15080813D01*
X13166965Y-15080813D01*
X13186013Y-15090337D01*
X13195537Y-15109385D01*
X13195537Y-15214147D01*
X13195537Y-15109385D02*
X13205061Y-15090337D01*
X13224108Y-15080813D01*
X13252680Y-15080813D01*
X13271727Y-15090337D01*
X13281251Y-15109385D01*
X13281251Y-15214147D01*
X13671727Y-15004623D02*
X13500299Y-15261766D01*
X13928870Y-15014147D02*
X13947918Y-15014147D01*
X13966965Y-15023670D01*
X13976489Y-15033194D01*
X13986013Y-15052242D01*
X13995537Y-15090337D01*
X13995537Y-15137956D01*
X13986013Y-15176051D01*
X13976489Y-15195099D01*
X13966965Y-15204623D01*
X13947918Y-15214147D01*
X13928870Y-15214147D01*
X13909822Y-15204623D01*
X13900299Y-15195099D01*
X13890775Y-15176051D01*
X13881251Y-15137956D01*
X13881251Y-15090337D01*
X13890775Y-15052242D01*
X13900299Y-15033194D01*
X13909822Y-15023670D01*
X13928870Y-15014147D01*
X14081251Y-15195099D02*
X14090775Y-15204623D01*
X14081251Y-15214147D01*
X14071727Y-15204623D01*
X14081251Y-15195099D01*
X14081251Y-15214147D01*
X14214584Y-15014147D02*
X14233632Y-15014147D01*
X14252680Y-15023670D01*
X14262203Y-15033194D01*
X14271727Y-15052242D01*
X14281251Y-15090337D01*
X14281251Y-15137956D01*
X14271727Y-15176051D01*
X14262203Y-15195099D01*
X14252680Y-15204623D01*
X14233632Y-15214147D01*
X14214584Y-15214147D01*
X14195537Y-15204623D01*
X14186013Y-15195099D01*
X14176489Y-15176051D01*
X14166965Y-15137956D01*
X14166965Y-15090337D01*
X14176489Y-15052242D01*
X14186013Y-15033194D01*
X14195537Y-15023670D01*
X14214584Y-15014147D01*
X14452680Y-15080813D02*
X14452680Y-15214147D01*
X14405061Y-15004623D02*
X14357442Y-15147480D01*
X14481251Y-15147480D01*
X14538394Y-15014147D02*
X14671727Y-15014147D01*
X14586013Y-15214147D01*
X14738394Y-15033194D02*
X14747918Y-15023670D01*
X14766965Y-15014147D01*
X14814584Y-15014147D01*
X14833632Y-15023670D01*
X14843156Y-15033194D01*
X14852680Y-15052242D01*
X14852680Y-15071289D01*
X14843156Y-15099861D01*
X14728870Y-15214147D01*
X14852680Y-15214147D01*
X14928870Y-15014147D02*
X14928870Y-15052242D01*
X15005061Y-15014147D02*
X15005061Y-15052242D01*
X15300299Y-15290337D02*
X15290775Y-15280813D01*
X15271727Y-15252242D01*
X15262203Y-15233194D01*
X15252680Y-15204623D01*
X15243156Y-15157004D01*
X15243156Y-15118908D01*
X15252680Y-15071289D01*
X15262203Y-15042718D01*
X15271727Y-15023670D01*
X15290775Y-14995099D01*
X15300299Y-14985575D01*
X15481251Y-15214147D02*
X15366965Y-15214147D01*
X15424108Y-15214147D02*
X15424108Y-15014147D01*
X15405061Y-15042718D01*
X15386013Y-15061766D01*
X15366965Y-15071289D01*
X15719346Y-15214147D02*
X15719346Y-15014147D01*
X15805061Y-15214147D02*
X15805061Y-15109385D01*
X15795537Y-15090337D01*
X15776489Y-15080813D01*
X15747918Y-15080813D01*
X15728870Y-15090337D01*
X15719346Y-15099861D01*
X15928870Y-15214147D02*
X15909822Y-15204623D01*
X15900299Y-15195099D01*
X15890775Y-15176051D01*
X15890775Y-15118908D01*
X15900299Y-15099861D01*
X15909822Y-15090337D01*
X15928870Y-15080813D01*
X15957442Y-15080813D01*
X15976489Y-15090337D01*
X15986013Y-15099861D01*
X15995537Y-15118908D01*
X15995537Y-15176051D01*
X15986013Y-15195099D01*
X15976489Y-15204623D01*
X15957442Y-15214147D01*
X15928870Y-15214147D01*
X16109822Y-15214147D02*
X16090775Y-15204623D01*
X16081251Y-15185575D01*
X16081251Y-15014147D01*
X16262203Y-15204623D02*
X16243156Y-15214147D01*
X16205061Y-15214147D01*
X16186013Y-15204623D01*
X16176489Y-15185575D01*
X16176489Y-15109385D01*
X16186013Y-15090337D01*
X16205061Y-15080813D01*
X16243156Y-15080813D01*
X16262203Y-15090337D01*
X16271727Y-15109385D01*
X16271727Y-15128432D01*
X16176489Y-15147480D01*
X16338394Y-15290337D02*
X16347918Y-15280813D01*
X16366965Y-15252242D01*
X16376489Y-15233194D01*
X16386013Y-15204623D01*
X16395537Y-15157004D01*
X16395537Y-15118908D01*
X16386013Y-15071289D01*
X16376489Y-15042718D01*
X16366965Y-15023670D01*
X16347918Y-14995099D01*
X16338394Y-14985575D01*
D13*
X11710821Y-15430097D02*
X11710821Y-15345244D01*
X11625967Y-15345244D01*
X11625967Y-15430097D01*
X11710821Y-15430097D01*
D10*
X12090775Y-15478147D02*
X11976489Y-15478147D01*
X12033632Y-15478147D02*
X12033632Y-15278147D01*
X12014584Y-15306718D01*
X11995537Y-15325766D01*
X11976489Y-15335289D01*
X12176489Y-15459099D02*
X12186013Y-15468623D01*
X12176489Y-15478147D01*
X12166965Y-15468623D01*
X12176489Y-15459099D01*
X12176489Y-15478147D01*
X12262203Y-15297194D02*
X12271727Y-15287670D01*
X12290775Y-15278147D01*
X12338394Y-15278147D01*
X12357442Y-15287670D01*
X12366965Y-15297194D01*
X12376489Y-15316242D01*
X12376489Y-15335289D01*
X12366965Y-15363861D01*
X12252680Y-15478147D01*
X12376489Y-15478147D01*
X12500299Y-15278147D02*
X12519346Y-15278147D01*
X12538394Y-15287670D01*
X12547918Y-15297194D01*
X12557442Y-15316242D01*
X12566965Y-15354337D01*
X12566965Y-15401956D01*
X12557442Y-15440051D01*
X12547918Y-15459099D01*
X12538394Y-15468623D01*
X12519346Y-15478147D01*
X12500299Y-15478147D01*
X12481251Y-15468623D01*
X12471727Y-15459099D01*
X12462203Y-15440051D01*
X12452680Y-15401956D01*
X12452680Y-15354337D01*
X12462203Y-15316242D01*
X12471727Y-15297194D01*
X12481251Y-15287670D01*
X12500299Y-15278147D01*
X12690775Y-15278147D02*
X12709822Y-15278147D01*
X12728870Y-15287670D01*
X12738394Y-15297194D01*
X12747918Y-15316242D01*
X12757442Y-15354337D01*
X12757442Y-15401956D01*
X12747918Y-15440051D01*
X12738394Y-15459099D01*
X12728870Y-15468623D01*
X12709822Y-15478147D01*
X12690775Y-15478147D01*
X12671727Y-15468623D01*
X12662203Y-15459099D01*
X12652680Y-15440051D01*
X12643156Y-15401956D01*
X12643156Y-15354337D01*
X12652680Y-15316242D01*
X12662203Y-15297194D01*
X12671727Y-15287670D01*
X12690775Y-15278147D01*
X12843156Y-15478147D02*
X12843156Y-15344813D01*
X12843156Y-15363861D02*
X12852680Y-15354337D01*
X12871727Y-15344813D01*
X12900299Y-15344813D01*
X12919346Y-15354337D01*
X12928870Y-15373385D01*
X12928870Y-15478147D01*
X12928870Y-15373385D02*
X12938394Y-15354337D01*
X12957442Y-15344813D01*
X12986013Y-15344813D01*
X13005061Y-15354337D01*
X13014584Y-15373385D01*
X13014584Y-15478147D01*
X13109822Y-15478147D02*
X13109822Y-15344813D01*
X13109822Y-15363861D02*
X13119346Y-15354337D01*
X13138394Y-15344813D01*
X13166965Y-15344813D01*
X13186013Y-15354337D01*
X13195537Y-15373385D01*
X13195537Y-15478147D01*
X13195537Y-15373385D02*
X13205061Y-15354337D01*
X13224108Y-15344813D01*
X13252680Y-15344813D01*
X13271727Y-15354337D01*
X13281251Y-15373385D01*
X13281251Y-15478147D01*
X13671727Y-15268623D02*
X13500299Y-15525766D01*
X13928870Y-15278147D02*
X13947918Y-15278147D01*
X13966965Y-15287670D01*
X13976489Y-15297194D01*
X13986013Y-15316242D01*
X13995537Y-15354337D01*
X13995537Y-15401956D01*
X13986013Y-15440051D01*
X13976489Y-15459099D01*
X13966965Y-15468623D01*
X13947918Y-15478147D01*
X13928870Y-15478147D01*
X13909822Y-15468623D01*
X13900299Y-15459099D01*
X13890775Y-15440051D01*
X13881251Y-15401956D01*
X13881251Y-15354337D01*
X13890775Y-15316242D01*
X13900299Y-15297194D01*
X13909822Y-15287670D01*
X13928870Y-15278147D01*
X14081251Y-15459099D02*
X14090775Y-15468623D01*
X14081251Y-15478147D01*
X14071727Y-15468623D01*
X14081251Y-15459099D01*
X14081251Y-15478147D01*
X14214584Y-15278147D02*
X14233632Y-15278147D01*
X14252680Y-15287670D01*
X14262203Y-15297194D01*
X14271727Y-15316242D01*
X14281251Y-15354337D01*
X14281251Y-15401956D01*
X14271727Y-15440051D01*
X14262203Y-15459099D01*
X14252680Y-15468623D01*
X14233632Y-15478147D01*
X14214584Y-15478147D01*
X14195537Y-15468623D01*
X14186013Y-15459099D01*
X14176489Y-15440051D01*
X14166965Y-15401956D01*
X14166965Y-15354337D01*
X14176489Y-15316242D01*
X14186013Y-15297194D01*
X14195537Y-15287670D01*
X14214584Y-15278147D01*
X14452680Y-15344813D02*
X14452680Y-15478147D01*
X14405061Y-15268623D02*
X14357442Y-15411480D01*
X14481251Y-15411480D01*
X14538394Y-15278147D02*
X14671727Y-15278147D01*
X14586013Y-15478147D01*
X14738394Y-15297194D02*
X14747918Y-15287670D01*
X14766965Y-15278147D01*
X14814584Y-15278147D01*
X14833632Y-15287670D01*
X14843156Y-15297194D01*
X14852680Y-15316242D01*
X14852680Y-15335289D01*
X14843156Y-15363861D01*
X14728870Y-15478147D01*
X14852680Y-15478147D01*
X14928870Y-15278147D02*
X14928870Y-15316242D01*
X15005061Y-15278147D02*
X15005061Y-15316242D01*
X15300299Y-15554337D02*
X15290775Y-15544813D01*
X15271727Y-15516242D01*
X15262203Y-15497194D01*
X15252680Y-15468623D01*
X15243156Y-15421004D01*
X15243156Y-15382908D01*
X15252680Y-15335289D01*
X15262203Y-15306718D01*
X15271727Y-15287670D01*
X15290775Y-15259099D01*
X15300299Y-15249575D01*
X15386013Y-15478147D02*
X15424108Y-15478147D01*
X15443156Y-15468623D01*
X15452680Y-15459099D01*
X15471727Y-15430528D01*
X15481251Y-15392432D01*
X15481251Y-15316242D01*
X15471727Y-15297194D01*
X15462203Y-15287670D01*
X15443156Y-15278147D01*
X15405061Y-15278147D01*
X15386013Y-15287670D01*
X15376489Y-15297194D01*
X15366965Y-15316242D01*
X15366965Y-15363861D01*
X15376489Y-15382908D01*
X15386013Y-15392432D01*
X15405061Y-15401956D01*
X15443156Y-15401956D01*
X15462203Y-15392432D01*
X15471727Y-15382908D01*
X15481251Y-15363861D01*
X15719346Y-15478147D02*
X15719346Y-15278147D01*
X15805061Y-15478147D02*
X15805061Y-15373385D01*
X15795537Y-15354337D01*
X15776489Y-15344813D01*
X15747918Y-15344813D01*
X15728870Y-15354337D01*
X15719346Y-15363861D01*
X15928870Y-15478147D02*
X15909822Y-15468623D01*
X15900299Y-15459099D01*
X15890775Y-15440051D01*
X15890775Y-15382908D01*
X15900299Y-15363861D01*
X15909822Y-15354337D01*
X15928870Y-15344813D01*
X15957442Y-15344813D01*
X15976489Y-15354337D01*
X15986013Y-15363861D01*
X15995537Y-15382908D01*
X15995537Y-15440051D01*
X15986013Y-15459099D01*
X15976489Y-15468623D01*
X15957442Y-15478147D01*
X15928870Y-15478147D01*
X16109822Y-15478147D02*
X16090775Y-15468623D01*
X16081251Y-15449575D01*
X16081251Y-15278147D01*
X16262203Y-15468623D02*
X16243156Y-15478147D01*
X16205061Y-15478147D01*
X16186013Y-15468623D01*
X16176489Y-15449575D01*
X16176489Y-15373385D01*
X16186013Y-15354337D01*
X16205061Y-15344813D01*
X16243156Y-15344813D01*
X16262203Y-15354337D01*
X16271727Y-15373385D01*
X16271727Y-15392432D01*
X16176489Y-15411480D01*
X16347918Y-15468623D02*
X16366965Y-15478147D01*
X16405061Y-15478147D01*
X16424108Y-15468623D01*
X16433632Y-15449575D01*
X16433632Y-15440051D01*
X16424108Y-15421004D01*
X16405061Y-15411480D01*
X16376489Y-15411480D01*
X16357442Y-15401956D01*
X16347918Y-15382908D01*
X16347918Y-15373385D01*
X16357442Y-15354337D01*
X16376489Y-15344813D01*
X16405061Y-15344813D01*
X16424108Y-15354337D01*
X16500299Y-15554337D02*
X16509822Y-15544813D01*
X16528870Y-15516242D01*
X16538394Y-15497194D01*
X16547918Y-15468623D01*
X16557442Y-15421004D01*
X16557442Y-15382908D01*
X16547918Y-15335289D01*
X16538394Y-15306718D01*
X16528870Y-15287670D01*
X16509822Y-15259099D01*
X16500299Y-15249575D01*
D14*
X11653394Y-15726670D02*
X11728394Y-15651670D01*
X11653394Y-15576670D01*
X11578394Y-15651670D01*
X11653394Y-15726670D01*
D10*
X12090775Y-15742147D02*
X11976489Y-15742147D01*
X12033632Y-15742147D02*
X12033632Y-15542147D01*
X12014584Y-15570718D01*
X11995537Y-15589766D01*
X11976489Y-15599289D01*
X12176489Y-15723099D02*
X12186013Y-15732623D01*
X12176489Y-15742147D01*
X12166965Y-15732623D01*
X12176489Y-15723099D01*
X12176489Y-15742147D01*
X12366965Y-15542147D02*
X12271727Y-15542147D01*
X12262203Y-15637385D01*
X12271727Y-15627861D01*
X12290775Y-15618337D01*
X12338394Y-15618337D01*
X12357442Y-15627861D01*
X12366965Y-15637385D01*
X12376489Y-15656432D01*
X12376489Y-15704051D01*
X12366965Y-15723099D01*
X12357442Y-15732623D01*
X12338394Y-15742147D01*
X12290775Y-15742147D01*
X12271727Y-15732623D01*
X12262203Y-15723099D01*
X12500299Y-15542147D02*
X12519346Y-15542147D01*
X12538394Y-15551670D01*
X12547918Y-15561194D01*
X12557442Y-15580242D01*
X12566965Y-15618337D01*
X12566965Y-15665956D01*
X12557442Y-15704051D01*
X12547918Y-15723099D01*
X12538394Y-15732623D01*
X12519346Y-15742147D01*
X12500299Y-15742147D01*
X12481251Y-15732623D01*
X12471727Y-15723099D01*
X12462203Y-15704051D01*
X12452680Y-15665956D01*
X12452680Y-15618337D01*
X12462203Y-15580242D01*
X12471727Y-15561194D01*
X12481251Y-15551670D01*
X12500299Y-15542147D01*
X12690775Y-15542147D02*
X12709822Y-15542147D01*
X12728870Y-15551670D01*
X12738394Y-15561194D01*
X12747918Y-15580242D01*
X12757442Y-15618337D01*
X12757442Y-15665956D01*
X12747918Y-15704051D01*
X12738394Y-15723099D01*
X12728870Y-15732623D01*
X12709822Y-15742147D01*
X12690775Y-15742147D01*
X12671727Y-15732623D01*
X12662203Y-15723099D01*
X12652680Y-15704051D01*
X12643156Y-15665956D01*
X12643156Y-15618337D01*
X12652680Y-15580242D01*
X12662203Y-15561194D01*
X12671727Y-15551670D01*
X12690775Y-15542147D01*
X12843156Y-15742147D02*
X12843156Y-15608813D01*
X12843156Y-15627861D02*
X12852680Y-15618337D01*
X12871727Y-15608813D01*
X12900299Y-15608813D01*
X12919346Y-15618337D01*
X12928870Y-15637385D01*
X12928870Y-15742147D01*
X12928870Y-15637385D02*
X12938394Y-15618337D01*
X12957442Y-15608813D01*
X12986013Y-15608813D01*
X13005061Y-15618337D01*
X13014584Y-15637385D01*
X13014584Y-15742147D01*
X13109822Y-15742147D02*
X13109822Y-15608813D01*
X13109822Y-15627861D02*
X13119346Y-15618337D01*
X13138394Y-15608813D01*
X13166965Y-15608813D01*
X13186013Y-15618337D01*
X13195537Y-15637385D01*
X13195537Y-15742147D01*
X13195537Y-15637385D02*
X13205061Y-15618337D01*
X13224108Y-15608813D01*
X13252680Y-15608813D01*
X13271727Y-15618337D01*
X13281251Y-15637385D01*
X13281251Y-15742147D01*
X13671727Y-15532623D02*
X13500299Y-15789766D01*
X13928870Y-15542147D02*
X13947918Y-15542147D01*
X13966965Y-15551670D01*
X13976489Y-15561194D01*
X13986013Y-15580242D01*
X13995537Y-15618337D01*
X13995537Y-15665956D01*
X13986013Y-15704051D01*
X13976489Y-15723099D01*
X13966965Y-15732623D01*
X13947918Y-15742147D01*
X13928870Y-15742147D01*
X13909822Y-15732623D01*
X13900299Y-15723099D01*
X13890775Y-15704051D01*
X13881251Y-15665956D01*
X13881251Y-15618337D01*
X13890775Y-15580242D01*
X13900299Y-15561194D01*
X13909822Y-15551670D01*
X13928870Y-15542147D01*
X14081251Y-15723099D02*
X14090775Y-15732623D01*
X14081251Y-15742147D01*
X14071727Y-15732623D01*
X14081251Y-15723099D01*
X14081251Y-15742147D01*
X14214584Y-15542147D02*
X14233632Y-15542147D01*
X14252680Y-15551670D01*
X14262203Y-15561194D01*
X14271727Y-15580242D01*
X14281251Y-15618337D01*
X14281251Y-15665956D01*
X14271727Y-15704051D01*
X14262203Y-15723099D01*
X14252680Y-15732623D01*
X14233632Y-15742147D01*
X14214584Y-15742147D01*
X14195537Y-15732623D01*
X14186013Y-15723099D01*
X14176489Y-15704051D01*
X14166965Y-15665956D01*
X14166965Y-15618337D01*
X14176489Y-15580242D01*
X14186013Y-15561194D01*
X14195537Y-15551670D01*
X14214584Y-15542147D01*
X14462203Y-15542147D02*
X14366965Y-15542147D01*
X14357442Y-15637385D01*
X14366965Y-15627861D01*
X14386013Y-15618337D01*
X14433632Y-15618337D01*
X14452680Y-15627861D01*
X14462203Y-15637385D01*
X14471727Y-15656432D01*
X14471727Y-15704051D01*
X14462203Y-15723099D01*
X14452680Y-15732623D01*
X14433632Y-15742147D01*
X14386013Y-15742147D01*
X14366965Y-15732623D01*
X14357442Y-15723099D01*
X14566965Y-15742147D02*
X14605061Y-15742147D01*
X14624108Y-15732623D01*
X14633632Y-15723099D01*
X14652680Y-15694528D01*
X14662203Y-15656432D01*
X14662203Y-15580242D01*
X14652680Y-15561194D01*
X14643156Y-15551670D01*
X14624108Y-15542147D01*
X14586013Y-15542147D01*
X14566965Y-15551670D01*
X14557442Y-15561194D01*
X14547918Y-15580242D01*
X14547918Y-15627861D01*
X14557442Y-15646908D01*
X14566965Y-15656432D01*
X14586013Y-15665956D01*
X14624108Y-15665956D01*
X14643156Y-15656432D01*
X14652680Y-15646908D01*
X14662203Y-15627861D01*
X14852680Y-15742147D02*
X14738394Y-15742147D01*
X14795537Y-15742147D02*
X14795537Y-15542147D01*
X14776489Y-15570718D01*
X14757442Y-15589766D01*
X14738394Y-15599289D01*
X14928870Y-15542147D02*
X14928870Y-15580242D01*
X15005061Y-15542147D02*
X15005061Y-15580242D01*
X15300299Y-15818337D02*
X15290775Y-15808813D01*
X15271727Y-15780242D01*
X15262203Y-15761194D01*
X15252680Y-15732623D01*
X15243156Y-15685004D01*
X15243156Y-15646908D01*
X15252680Y-15599289D01*
X15262203Y-15570718D01*
X15271727Y-15551670D01*
X15290775Y-15523099D01*
X15300299Y-15513575D01*
X15471727Y-15542147D02*
X15376489Y-15542147D01*
X15366965Y-15637385D01*
X15376489Y-15627861D01*
X15395537Y-15618337D01*
X15443156Y-15618337D01*
X15462203Y-15627861D01*
X15471727Y-15637385D01*
X15481251Y-15656432D01*
X15481251Y-15704051D01*
X15471727Y-15723099D01*
X15462203Y-15732623D01*
X15443156Y-15742147D01*
X15395537Y-15742147D01*
X15376489Y-15732623D01*
X15366965Y-15723099D01*
X15719346Y-15742147D02*
X15719346Y-15542147D01*
X15805061Y-15742147D02*
X15805061Y-15637385D01*
X15795537Y-15618337D01*
X15776489Y-15608813D01*
X15747918Y-15608813D01*
X15728870Y-15618337D01*
X15719346Y-15627861D01*
X15928870Y-15742147D02*
X15909822Y-15732623D01*
X15900299Y-15723099D01*
X15890775Y-15704051D01*
X15890775Y-15646908D01*
X15900299Y-15627861D01*
X15909822Y-15618337D01*
X15928870Y-15608813D01*
X15957442Y-15608813D01*
X15976489Y-15618337D01*
X15986013Y-15627861D01*
X15995537Y-15646908D01*
X15995537Y-15704051D01*
X15986013Y-15723099D01*
X15976489Y-15732623D01*
X15957442Y-15742147D01*
X15928870Y-15742147D01*
X16109822Y-15742147D02*
X16090775Y-15732623D01*
X16081251Y-15713575D01*
X16081251Y-15542147D01*
X16262203Y-15732623D02*
X16243156Y-15742147D01*
X16205061Y-15742147D01*
X16186013Y-15732623D01*
X16176489Y-15713575D01*
X16176489Y-15637385D01*
X16186013Y-15618337D01*
X16205061Y-15608813D01*
X16243156Y-15608813D01*
X16262203Y-15618337D01*
X16271727Y-15637385D01*
X16271727Y-15656432D01*
X16176489Y-15675480D01*
X16347918Y-15732623D02*
X16366965Y-15742147D01*
X16405061Y-15742147D01*
X16424108Y-15732623D01*
X16433632Y-15713575D01*
X16433632Y-15704051D01*
X16424108Y-15685004D01*
X16405061Y-15675480D01*
X16376489Y-15675480D01*
X16357442Y-15665956D01*
X16347918Y-15646908D01*
X16347918Y-15637385D01*
X16357442Y-15618337D01*
X16376489Y-15608813D01*
X16405061Y-15608813D01*
X16424108Y-15618337D01*
X16500299Y-15818337D02*
X16509822Y-15808813D01*
X16528870Y-15780242D01*
X16538394Y-15761194D01*
X16547918Y-15732623D01*
X16557442Y-15685004D01*
X16557442Y-15646908D01*
X16547918Y-15599289D01*
X16538394Y-15570718D01*
X16528870Y-15551670D01*
X16509822Y-15523099D01*
X16500299Y-15513575D01*
X11528394Y-15821670D02*
X11728394Y-16021670D01*
X11728394Y-15821670D02*
X11528394Y-16021670D01*
X11728394Y-15921670D02*
G75*
G03*
X11728394Y-15921670I-100000J0D01*
G01*
X11966965Y-15812147D02*
X12090775Y-15812147D01*
X12024108Y-15888337D01*
X12052680Y-15888337D01*
X12071727Y-15897861D01*
X12081251Y-15907385D01*
X12090775Y-15926432D01*
X12090775Y-15974051D01*
X12081251Y-15993099D01*
X12071727Y-16002623D01*
X12052680Y-16012147D01*
X11995537Y-16012147D01*
X11976489Y-16002623D01*
X11966965Y-15993099D01*
X12176489Y-15993099D02*
X12186013Y-16002623D01*
X12176489Y-16012147D01*
X12166965Y-16002623D01*
X12176489Y-15993099D01*
X12176489Y-16012147D01*
X12262203Y-15831194D02*
X12271727Y-15821670D01*
X12290775Y-15812147D01*
X12338394Y-15812147D01*
X12357442Y-15821670D01*
X12366965Y-15831194D01*
X12376489Y-15850242D01*
X12376489Y-15869289D01*
X12366965Y-15897861D01*
X12252680Y-16012147D01*
X12376489Y-16012147D01*
X12500299Y-15812147D02*
X12519346Y-15812147D01*
X12538394Y-15821670D01*
X12547918Y-15831194D01*
X12557442Y-15850242D01*
X12566965Y-15888337D01*
X12566965Y-15935956D01*
X12557442Y-15974051D01*
X12547918Y-15993099D01*
X12538394Y-16002623D01*
X12519346Y-16012147D01*
X12500299Y-16012147D01*
X12481251Y-16002623D01*
X12471727Y-15993099D01*
X12462203Y-15974051D01*
X12452680Y-15935956D01*
X12452680Y-15888337D01*
X12462203Y-15850242D01*
X12471727Y-15831194D01*
X12481251Y-15821670D01*
X12500299Y-15812147D01*
X12690775Y-15812147D02*
X12709822Y-15812147D01*
X12728870Y-15821670D01*
X12738394Y-15831194D01*
X12747918Y-15850242D01*
X12757442Y-15888337D01*
X12757442Y-15935956D01*
X12747918Y-15974051D01*
X12738394Y-15993099D01*
X12728870Y-16002623D01*
X12709822Y-16012147D01*
X12690775Y-16012147D01*
X12671727Y-16002623D01*
X12662203Y-15993099D01*
X12652680Y-15974051D01*
X12643156Y-15935956D01*
X12643156Y-15888337D01*
X12652680Y-15850242D01*
X12662203Y-15831194D01*
X12671727Y-15821670D01*
X12690775Y-15812147D01*
X12843156Y-16012147D02*
X12843156Y-15878813D01*
X12843156Y-15897861D02*
X12852680Y-15888337D01*
X12871727Y-15878813D01*
X12900299Y-15878813D01*
X12919346Y-15888337D01*
X12928870Y-15907385D01*
X12928870Y-16012147D01*
X12928870Y-15907385D02*
X12938394Y-15888337D01*
X12957442Y-15878813D01*
X12986013Y-15878813D01*
X13005061Y-15888337D01*
X13014584Y-15907385D01*
X13014584Y-16012147D01*
X13109822Y-16012147D02*
X13109822Y-15878813D01*
X13109822Y-15897861D02*
X13119346Y-15888337D01*
X13138394Y-15878813D01*
X13166965Y-15878813D01*
X13186013Y-15888337D01*
X13195537Y-15907385D01*
X13195537Y-16012147D01*
X13195537Y-15907385D02*
X13205061Y-15888337D01*
X13224108Y-15878813D01*
X13252680Y-15878813D01*
X13271727Y-15888337D01*
X13281251Y-15907385D01*
X13281251Y-16012147D01*
X13671727Y-15802623D02*
X13500299Y-16059766D01*
X13928870Y-15812147D02*
X13947918Y-15812147D01*
X13966965Y-15821670D01*
X13976489Y-15831194D01*
X13986013Y-15850242D01*
X13995537Y-15888337D01*
X13995537Y-15935956D01*
X13986013Y-15974051D01*
X13976489Y-15993099D01*
X13966965Y-16002623D01*
X13947918Y-16012147D01*
X13928870Y-16012147D01*
X13909822Y-16002623D01*
X13900299Y-15993099D01*
X13890775Y-15974051D01*
X13881251Y-15935956D01*
X13881251Y-15888337D01*
X13890775Y-15850242D01*
X13900299Y-15831194D01*
X13909822Y-15821670D01*
X13928870Y-15812147D01*
X14081251Y-15993099D02*
X14090775Y-16002623D01*
X14081251Y-16012147D01*
X14071727Y-16002623D01*
X14081251Y-15993099D01*
X14081251Y-16012147D01*
X14281251Y-16012147D02*
X14166965Y-16012147D01*
X14224108Y-16012147D02*
X14224108Y-15812147D01*
X14205061Y-15840718D01*
X14186013Y-15859766D01*
X14166965Y-15869289D01*
X14357442Y-15831194D02*
X14366965Y-15821670D01*
X14386013Y-15812147D01*
X14433632Y-15812147D01*
X14452680Y-15821670D01*
X14462203Y-15831194D01*
X14471727Y-15850242D01*
X14471727Y-15869289D01*
X14462203Y-15897861D01*
X14347918Y-16012147D01*
X14471727Y-16012147D01*
X14643156Y-15812147D02*
X14605061Y-15812147D01*
X14586013Y-15821670D01*
X14576489Y-15831194D01*
X14557442Y-15859766D01*
X14547918Y-15897861D01*
X14547918Y-15974051D01*
X14557442Y-15993099D01*
X14566965Y-16002623D01*
X14586013Y-16012147D01*
X14624108Y-16012147D01*
X14643156Y-16002623D01*
X14652680Y-15993099D01*
X14662203Y-15974051D01*
X14662203Y-15926432D01*
X14652680Y-15907385D01*
X14643156Y-15897861D01*
X14624108Y-15888337D01*
X14586013Y-15888337D01*
X14566965Y-15897861D01*
X14557442Y-15907385D01*
X14547918Y-15926432D01*
X14786013Y-15812147D02*
X14805061Y-15812147D01*
X14824108Y-15821670D01*
X14833632Y-15831194D01*
X14843156Y-15850242D01*
X14852680Y-15888337D01*
X14852680Y-15935956D01*
X14843156Y-15974051D01*
X14833632Y-15993099D01*
X14824108Y-16002623D01*
X14805061Y-16012147D01*
X14786013Y-16012147D01*
X14766965Y-16002623D01*
X14757442Y-15993099D01*
X14747918Y-15974051D01*
X14738394Y-15935956D01*
X14738394Y-15888337D01*
X14747918Y-15850242D01*
X14757442Y-15831194D01*
X14766965Y-15821670D01*
X14786013Y-15812147D01*
X14928870Y-15812147D02*
X14928870Y-15850242D01*
X15005061Y-15812147D02*
X15005061Y-15850242D01*
X15300299Y-16088337D02*
X15290775Y-16078813D01*
X15271727Y-16050242D01*
X15262203Y-16031194D01*
X15252680Y-16002623D01*
X15243156Y-15955004D01*
X15243156Y-15916908D01*
X15252680Y-15869289D01*
X15262203Y-15840718D01*
X15271727Y-15821670D01*
X15290775Y-15793099D01*
X15300299Y-15783575D01*
X15462203Y-15878813D02*
X15462203Y-16012147D01*
X15414584Y-15802623D02*
X15366965Y-15945480D01*
X15490775Y-15945480D01*
X15719346Y-16012147D02*
X15719346Y-15812147D01*
X15805061Y-16012147D02*
X15805061Y-15907385D01*
X15795537Y-15888337D01*
X15776489Y-15878813D01*
X15747918Y-15878813D01*
X15728870Y-15888337D01*
X15719346Y-15897861D01*
X15928870Y-16012147D02*
X15909822Y-16002623D01*
X15900299Y-15993099D01*
X15890775Y-15974051D01*
X15890775Y-15916908D01*
X15900299Y-15897861D01*
X15909822Y-15888337D01*
X15928870Y-15878813D01*
X15957442Y-15878813D01*
X15976489Y-15888337D01*
X15986013Y-15897861D01*
X15995537Y-15916908D01*
X15995537Y-15974051D01*
X15986013Y-15993099D01*
X15976489Y-16002623D01*
X15957442Y-16012147D01*
X15928870Y-16012147D01*
X16109822Y-16012147D02*
X16090775Y-16002623D01*
X16081251Y-15983575D01*
X16081251Y-15812147D01*
X16262203Y-16002623D02*
X16243156Y-16012147D01*
X16205061Y-16012147D01*
X16186013Y-16002623D01*
X16176489Y-15983575D01*
X16176489Y-15907385D01*
X16186013Y-15888337D01*
X16205061Y-15878813D01*
X16243156Y-15878813D01*
X16262203Y-15888337D01*
X16271727Y-15907385D01*
X16271727Y-15926432D01*
X16176489Y-15945480D01*
X16347918Y-16002623D02*
X16366965Y-16012147D01*
X16405061Y-16012147D01*
X16424108Y-16002623D01*
X16433632Y-15983575D01*
X16433632Y-15974051D01*
X16424108Y-15955004D01*
X16405061Y-15945480D01*
X16376489Y-15945480D01*
X16357442Y-15935956D01*
X16347918Y-15916908D01*
X16347918Y-15907385D01*
X16357442Y-15888337D01*
X16376489Y-15878813D01*
X16405061Y-15878813D01*
X16424108Y-15888337D01*
X16500299Y-16088337D02*
X16509822Y-16078813D01*
X16528870Y-16050242D01*
X16538394Y-16031194D01*
X16547918Y-16002623D01*
X16557442Y-15955004D01*
X16557442Y-15916908D01*
X16547918Y-15869289D01*
X16538394Y-15840718D01*
X16528870Y-15821670D01*
X16509822Y-15793099D01*
X16500299Y-15783575D01*
M02*
