%TF.GenerationSoftware,KiCad,Pcbnew,(6.0.7)*%
%TF.CreationDate,2023-03-06T01:25:52-05:00*%
%TF.ProjectId,CoreIO,436f7265-494f-42e6-9b69-6361645f7063,rev?*%
%TF.SameCoordinates,Original*%
%TF.FileFunction,Copper,L2,Bot*%
%TF.FilePolarity,Positive*%
%FSLAX46Y46*%
G04 Gerber Fmt 4.6, Leading zero omitted, Abs format (unit mm)*
G04 Created by KiCad (PCBNEW (6.0.7)) date 2023-03-06 01:25:52*
%MOMM*%
%LPD*%
G01*
G04 APERTURE LIST*
G04 Aperture macros list*
%AMRoundRect*
0 Rectangle with rounded corners*
0 $1 Rounding radius*
0 $2 $3 $4 $5 $6 $7 $8 $9 X,Y pos of 4 corners*
0 Add a 4 corners polygon primitive as box body*
4,1,4,$2,$3,$4,$5,$6,$7,$8,$9,$2,$3,0*
0 Add four circle primitives for the rounded corners*
1,1,$1+$1,$2,$3*
1,1,$1+$1,$4,$5*
1,1,$1+$1,$6,$7*
1,1,$1+$1,$8,$9*
0 Add four rect primitives between the rounded corners*
20,1,$1+$1,$2,$3,$4,$5,0*
20,1,$1+$1,$4,$5,$6,$7,0*
20,1,$1+$1,$6,$7,$8,$9,0*
20,1,$1+$1,$8,$9,$2,$3,0*%
G04 Aperture macros list end*
%TA.AperFunction,ComponentPad*%
%ADD10O,1.200000X1.750000*%
%TD*%
%TA.AperFunction,ComponentPad*%
%ADD11RoundRect,0.250000X0.350000X0.625000X-0.350000X0.625000X-0.350000X-0.625000X0.350000X-0.625000X0*%
%TD*%
%TA.AperFunction,ComponentPad*%
%ADD12C,1.800000*%
%TD*%
%TA.AperFunction,ComponentPad*%
%ADD13R,1.800000X1.800000*%
%TD*%
%TA.AperFunction,ComponentPad*%
%ADD14RoundRect,0.250000X0.625000X-0.350000X0.625000X0.350000X-0.625000X0.350000X-0.625000X-0.350000X0*%
%TD*%
%TA.AperFunction,ComponentPad*%
%ADD15O,1.750000X1.200000*%
%TD*%
%TA.AperFunction,SMDPad,CuDef*%
%ADD16R,1.300000X2.100000*%
%TD*%
%TA.AperFunction,SMDPad,CuDef*%
%ADD17R,1.000000X2.000000*%
%TD*%
%TA.AperFunction,SMDPad,CuDef*%
%ADD18R,1.000000X1.500000*%
%TD*%
%TA.AperFunction,ViaPad*%
%ADD19C,0.800000*%
%TD*%
%TA.AperFunction,Conductor*%
%ADD20C,0.508000*%
%TD*%
%TA.AperFunction,Conductor*%
%ADD21C,2.500000*%
%TD*%
%TA.AperFunction,Conductor*%
%ADD22C,1.000000*%
%TD*%
%TA.AperFunction,Conductor*%
%ADD23C,0.250000*%
%TD*%
%TA.AperFunction,Conductor*%
%ADD24C,2.000000*%
%TD*%
%TA.AperFunction,Conductor*%
%ADD25C,1.200000*%
%TD*%
G04 APERTURE END LIST*
D10*
%TO.P,J2,2,Pin_2*%
%TO.N,Net-(J2-Pad2)*%
X122190000Y-67220000D03*
D11*
%TO.P,J2,1,Pin_1*%
%TO.N,Net-(J2-Pad1)*%
X124190000Y-67220000D03*
%TD*%
D12*
%TO.P,S1,3*%
%TO.N,Net-(JP1-Pad3)*%
X140863176Y-81059176D03*
%TO.P,S1,2*%
%TO.N,Net-(JP1-Pad1)*%
X145943176Y-81059176D03*
D13*
%TO.P,S1,1*%
%TO.N,/SWITCH1*%
X151023176Y-81059176D03*
%TD*%
D14*
%TO.P,J1,1,Pin_1*%
%TO.N,/CONT 2*%
X167780605Y-100981317D03*
D15*
%TO.P,J1,2,Pin_2*%
%TO.N,/CONT 1*%
X167780605Y-98981317D03*
%TO.P,J1,3,Pin_3*%
%TO.N,/ARM*%
X167780605Y-96981317D03*
%TO.P,J1,4,Pin_4*%
%TO.N,/PYRO 2*%
X167780605Y-94981317D03*
%TO.P,J1,5,Pin_5*%
%TO.N,/PYRO 1*%
X167780605Y-92981317D03*
%TO.P,J1,6,Pin_6*%
%TO.N,/V_BATT*%
X167780605Y-90981317D03*
%TO.P,J1,7,Pin_7*%
%TO.N,GND*%
X167780605Y-88981317D03*
%TD*%
D13*
%TO.P,S2,1*%
%TO.N,/V_BATT*%
X151023058Y-70888941D03*
D12*
%TO.P,S2,2*%
%TO.N,Net-(JP2-Pad1)*%
X145943058Y-70888941D03*
%TO.P,S2,3*%
%TO.N,Net-(JP2-Pad3)*%
X140863058Y-70888941D03*
%TD*%
D13*
%TO.P,S3,1*%
%TO.N,Net-(J2-Pad2)*%
X151059176Y-60762470D03*
D12*
%TO.P,S3,2*%
%TO.N,Net-(JP3-Pad1)*%
X145979176Y-60762470D03*
%TO.P,S3,3*%
%TO.N,Net-(JP3-Pad3)*%
X140899176Y-60762470D03*
%TD*%
D16*
%TO.P,BT1,2,-*%
%TO.N,GND*%
X146490000Y-96760000D03*
%TO.P,BT1,1,+*%
%TO.N,Net-(BT1-Pad1)*%
X150690000Y-96760000D03*
D17*
%TO.P,BT1,*%
%TO.N,*%
X146390000Y-101360000D03*
X150790000Y-101360000D03*
%TD*%
%TO.P,BT2,*%
%TO.N,*%
X154645000Y-101360000D03*
X159045000Y-101360000D03*
D16*
%TO.P,BT2,1,+*%
%TO.N,Net-(BT2-Pad1)*%
X158945000Y-96760000D03*
%TO.P,BT2,2,-*%
%TO.N,GND*%
X154745000Y-96760000D03*
%TD*%
D18*
%TO.P,JP3,1,A*%
%TO.N,Net-(JP3-Pad1)*%
X144810000Y-63500000D03*
%TO.P,JP3,2,C*%
%TO.N,Net-(J2-Pad1)*%
X143510000Y-63500000D03*
%TO.P,JP3,3,B*%
%TO.N,Net-(JP3-Pad3)*%
X142210000Y-63500000D03*
%TD*%
%TO.P,JP2,1,A*%
%TO.N,Net-(JP2-Pad1)*%
X144840000Y-73660000D03*
%TO.P,JP2,2,C*%
%TO.N,/V_IGNITOR*%
X143540000Y-73660000D03*
%TO.P,JP2,3,B*%
%TO.N,Net-(JP2-Pad3)*%
X142240000Y-73660000D03*
%TD*%
%TO.P,JP1,1,A*%
%TO.N,Net-(JP1-Pad1)*%
X144840000Y-83820000D03*
%TO.P,JP1,2,C*%
%TO.N,/V_BATT*%
X143540000Y-83820000D03*
%TO.P,JP1,3,B*%
%TO.N,Net-(JP1-Pad3)*%
X142240000Y-83820000D03*
%TD*%
D19*
%TO.N,GND*%
X170942000Y-84836000D03*
X172212000Y-74168000D03*
X171958000Y-116586000D03*
X163322000Y-101092000D03*
X164338000Y-91694000D03*
%TO.N,Net-(J3-Pad2)*%
X162814000Y-99060000D03*
X162814000Y-96520000D03*
X162814000Y-82804000D03*
X162814000Y-78740000D03*
%TO.N,Net-(BT2-Pad1)*%
X159004000Y-93980000D03*
%TO.N,Net-(BT1-Pad1)*%
X147320000Y-93980000D03*
%TO.N,/V_BATT*%
X143510000Y-79375000D03*
%TO.N,Net-(J2-Pad2)*%
X151130000Y-62865000D03*
%TO.N,Net-(J2-Pad1)*%
X142240000Y-65024000D03*
%TO.N,/V_IGNITOR*%
X143510000Y-70485000D03*
%TD*%
D20*
%TO.N,Net-(J3-Pad2)*%
X162814000Y-96520000D02*
X162814000Y-99060000D01*
X162814000Y-78740000D02*
X162814000Y-82804000D01*
D21*
%TO.N,Net-(BT2-Pad1)*%
X159004000Y-93980000D02*
X159004000Y-96701000D01*
X159004000Y-96701000D02*
X158945000Y-96760000D01*
%TO.N,Net-(BT1-Pad1)*%
X147910000Y-93980000D02*
X150690000Y-96760000D01*
X147320000Y-93980000D02*
X147910000Y-93980000D01*
D20*
%TO.N,/V_BATT*%
X143540000Y-81945000D02*
X143510000Y-81915000D01*
D21*
X143510000Y-81620000D02*
X143540000Y-81620000D01*
X143510000Y-79375000D02*
X143510000Y-81620000D01*
D22*
X143540000Y-83820000D02*
X143540000Y-81945000D01*
D20*
%TO.N,Net-(J2-Pad2)*%
X151059176Y-60762470D02*
X151059176Y-62794176D01*
D23*
X151059176Y-62794176D02*
X151130000Y-62865000D01*
D20*
%TO.N,Net-(J2-Pad1)*%
X143510000Y-64262000D02*
X143510000Y-63500000D01*
X142748000Y-65024000D02*
X143510000Y-64262000D01*
X142748000Y-65024000D02*
X142240000Y-65024000D01*
D21*
%TO.N,/V_IGNITOR*%
X143510000Y-70485000D02*
X143510000Y-71460000D01*
D22*
X143540000Y-71490000D02*
X143540000Y-73660000D01*
D20*
X143510000Y-71460000D02*
X143540000Y-71490000D01*
D24*
%TO.N,Net-(JP1-Pad1)*%
X145943176Y-82716824D02*
X145943176Y-81059176D01*
D25*
X144840000Y-83820000D02*
X145943176Y-82716824D01*
D24*
%TO.N,Net-(JP1-Pad3)*%
X140863176Y-82443176D02*
X140863176Y-81059176D01*
D25*
X142240000Y-83820000D02*
X140863176Y-82443176D01*
%TO.N,Net-(JP2-Pad1)*%
X144840000Y-73660000D02*
X145943058Y-72556942D01*
D24*
X145943058Y-72556942D02*
X145943058Y-70888941D01*
%TO.N,Net-(JP2-Pad3)*%
X140863058Y-72283058D02*
X140863058Y-70888941D01*
D25*
X142240000Y-73660000D02*
X140863058Y-72283058D01*
D20*
%TO.N,Net-(JP3-Pad1)*%
X144810000Y-63500000D02*
X144810000Y-61931646D01*
X144810000Y-61931646D02*
X145979176Y-60762470D01*
%TO.N,Net-(JP3-Pad3)*%
X142210000Y-62073294D02*
X140899176Y-60762470D01*
X142210000Y-63500000D02*
X142210000Y-62073294D01*
%TD*%
%TA.AperFunction,Conductor*%
%TO.N,GND*%
G36*
X126610372Y-53360002D02*
G01*
X126656865Y-53413658D01*
X126667863Y-53475885D01*
X126661212Y-53560389D01*
X126650083Y-53701798D01*
X126650082Y-53701798D01*
X126650083Y-53701803D01*
X126649513Y-53709038D01*
X126666462Y-54002995D01*
X126667287Y-54007200D01*
X126667288Y-54007208D01*
X126700000Y-54173938D01*
X126723149Y-54291931D01*
X126724536Y-54295981D01*
X126724537Y-54295986D01*
X126817136Y-54566444D01*
X126818525Y-54570500D01*
X126950824Y-54833549D01*
X126953250Y-54837078D01*
X126953253Y-54837084D01*
X127067250Y-55002950D01*
X127117599Y-55076208D01*
X127315764Y-55293988D01*
X127541652Y-55482859D01*
X127545293Y-55485143D01*
X127787442Y-55637044D01*
X127787446Y-55637046D01*
X127791082Y-55639327D01*
X128059440Y-55760495D01*
X128063559Y-55761715D01*
X128337646Y-55842904D01*
X128337651Y-55842905D01*
X128341759Y-55844122D01*
X128345993Y-55844770D01*
X128345998Y-55844771D01*
X128603336Y-55884149D01*
X128632815Y-55888660D01*
X128782712Y-55891015D01*
X128922933Y-55893218D01*
X128922939Y-55893218D01*
X128927224Y-55893285D01*
X129219535Y-55857911D01*
X129504342Y-55783193D01*
X129776373Y-55670514D01*
X129826722Y-55641093D01*
X130026897Y-55524120D01*
X130026898Y-55524120D01*
X130030595Y-55521959D01*
X130033955Y-55519325D01*
X130033963Y-55519319D01*
X130258932Y-55342920D01*
X130262304Y-55340276D01*
X130467212Y-55128828D01*
X130469745Y-55125380D01*
X130469749Y-55125375D01*
X130638989Y-54894982D01*
X130641527Y-54891527D01*
X130656239Y-54864431D01*
X130779973Y-54636540D01*
X130779974Y-54636538D01*
X130782023Y-54632764D01*
X130886102Y-54357328D01*
X130951837Y-54070315D01*
X130978011Y-53777036D01*
X130978486Y-53731705D01*
X130960956Y-53474570D01*
X130976278Y-53405247D01*
X131026647Y-53355212D01*
X131086664Y-53340000D01*
X164642251Y-53340000D01*
X164710372Y-53360002D01*
X164756865Y-53413658D01*
X164767863Y-53475885D01*
X164761212Y-53560389D01*
X164750083Y-53701798D01*
X164750082Y-53701798D01*
X164750083Y-53701803D01*
X164749513Y-53709038D01*
X164766462Y-54002995D01*
X164767287Y-54007200D01*
X164767288Y-54007208D01*
X164800000Y-54173938D01*
X164823149Y-54291931D01*
X164824536Y-54295981D01*
X164824537Y-54295986D01*
X164917136Y-54566444D01*
X164918525Y-54570500D01*
X165050824Y-54833549D01*
X165053250Y-54837078D01*
X165053253Y-54837084D01*
X165167250Y-55002950D01*
X165217599Y-55076208D01*
X165415764Y-55293988D01*
X165641652Y-55482859D01*
X165645293Y-55485143D01*
X165887442Y-55637044D01*
X165887446Y-55637046D01*
X165891082Y-55639327D01*
X166159440Y-55760495D01*
X166163559Y-55761715D01*
X166437646Y-55842904D01*
X166437651Y-55842905D01*
X166441759Y-55844122D01*
X166445993Y-55844770D01*
X166445998Y-55844771D01*
X166703336Y-55884149D01*
X166732815Y-55888660D01*
X166882712Y-55891015D01*
X167022933Y-55893218D01*
X167022939Y-55893218D01*
X167027224Y-55893285D01*
X167319535Y-55857911D01*
X167604342Y-55783193D01*
X167876373Y-55670514D01*
X167926722Y-55641093D01*
X168126897Y-55524120D01*
X168126898Y-55524120D01*
X168130595Y-55521959D01*
X168133955Y-55519325D01*
X168133963Y-55519319D01*
X168358932Y-55342920D01*
X168362304Y-55340276D01*
X168567212Y-55128828D01*
X168569745Y-55125380D01*
X168569749Y-55125375D01*
X168738989Y-54894982D01*
X168741527Y-54891527D01*
X168756239Y-54864431D01*
X168879973Y-54636540D01*
X168879974Y-54636538D01*
X168882023Y-54632764D01*
X168986102Y-54357328D01*
X169051837Y-54070315D01*
X169078011Y-53777036D01*
X169078486Y-53731705D01*
X169060956Y-53474570D01*
X169076278Y-53405247D01*
X169126647Y-53355212D01*
X169186664Y-53340000D01*
X176404000Y-53340000D01*
X176472121Y-53360002D01*
X176518614Y-53413658D01*
X176530000Y-53466000D01*
X176530000Y-137034000D01*
X176509998Y-137102121D01*
X176456342Y-137148614D01*
X176404000Y-137160000D01*
X169072932Y-137160000D01*
X169004811Y-137139998D01*
X168958318Y-137086342D01*
X168948214Y-137016068D01*
X168955066Y-136989462D01*
X168984586Y-136911340D01*
X168986102Y-136907328D01*
X169051837Y-136620315D01*
X169070730Y-136408619D01*
X169077791Y-136329504D01*
X169077791Y-136329497D01*
X169078011Y-136327036D01*
X169078486Y-136281705D01*
X169058459Y-135987942D01*
X168998750Y-135699616D01*
X168900462Y-135422060D01*
X168765415Y-135160412D01*
X168754910Y-135145464D01*
X168598571Y-134923017D01*
X168596108Y-134919512D01*
X168395674Y-134703819D01*
X168392359Y-134701105D01*
X168392355Y-134701102D01*
X168171139Y-134520039D01*
X168167821Y-134517323D01*
X167916766Y-134363477D01*
X167647154Y-134245125D01*
X167363974Y-134164460D01*
X167072467Y-134122972D01*
X166917316Y-134122159D01*
X166782313Y-134121452D01*
X166782306Y-134121452D01*
X166778027Y-134121430D01*
X166773783Y-134121989D01*
X166773779Y-134121989D01*
X166645010Y-134138942D01*
X166486102Y-134159863D01*
X166481962Y-134160996D01*
X166481960Y-134160996D01*
X166206238Y-134236425D01*
X166202093Y-134237559D01*
X165931257Y-134353080D01*
X165778820Y-134444312D01*
X165682286Y-134502086D01*
X165682282Y-134502089D01*
X165678604Y-134504290D01*
X165448811Y-134688389D01*
X165445867Y-134691491D01*
X165445863Y-134691495D01*
X165356383Y-134785788D01*
X165246129Y-134901971D01*
X165074308Y-135141085D01*
X164936529Y-135401305D01*
X164935057Y-135405328D01*
X164935055Y-135405332D01*
X164927455Y-135426101D01*
X164835340Y-135677816D01*
X164772615Y-135965502D01*
X164772279Y-135969772D01*
X164750083Y-136251798D01*
X164750082Y-136251798D01*
X164750083Y-136251803D01*
X164749513Y-136259038D01*
X164766462Y-136552995D01*
X164767287Y-136557200D01*
X164767288Y-136557208D01*
X164800000Y-136723938D01*
X164823149Y-136841931D01*
X164838033Y-136885404D01*
X164874935Y-136993187D01*
X164878077Y-137064114D01*
X164842374Y-137125480D01*
X164779161Y-137157802D01*
X164755728Y-137160000D01*
X130972932Y-137160000D01*
X130904811Y-137139998D01*
X130858318Y-137086342D01*
X130848214Y-137016068D01*
X130855066Y-136989462D01*
X130884586Y-136911340D01*
X130886102Y-136907328D01*
X130951837Y-136620315D01*
X130970730Y-136408619D01*
X130977791Y-136329504D01*
X130977791Y-136329497D01*
X130978011Y-136327036D01*
X130978486Y-136281705D01*
X130958459Y-135987942D01*
X130898750Y-135699616D01*
X130800462Y-135422060D01*
X130665415Y-135160412D01*
X130654910Y-135145464D01*
X130498571Y-134923017D01*
X130496108Y-134919512D01*
X130295674Y-134703819D01*
X130292359Y-134701105D01*
X130292355Y-134701102D01*
X130071139Y-134520039D01*
X130067821Y-134517323D01*
X129816766Y-134363477D01*
X129547154Y-134245125D01*
X129263974Y-134164460D01*
X128972467Y-134122972D01*
X128817316Y-134122159D01*
X128682313Y-134121452D01*
X128682306Y-134121452D01*
X128678027Y-134121430D01*
X128673783Y-134121989D01*
X128673779Y-134121989D01*
X128545010Y-134138942D01*
X128386102Y-134159863D01*
X128381962Y-134160996D01*
X128381960Y-134160996D01*
X128106238Y-134236425D01*
X128102093Y-134237559D01*
X127831257Y-134353080D01*
X127678820Y-134444312D01*
X127582286Y-134502086D01*
X127582282Y-134502089D01*
X127578604Y-134504290D01*
X127348811Y-134688389D01*
X127345867Y-134691491D01*
X127345863Y-134691495D01*
X127256383Y-134785788D01*
X127146129Y-134901971D01*
X126974308Y-135141085D01*
X126836529Y-135401305D01*
X126835057Y-135405328D01*
X126835055Y-135405332D01*
X126827455Y-135426101D01*
X126735340Y-135677816D01*
X126672615Y-135965502D01*
X126672279Y-135969772D01*
X126650083Y-136251798D01*
X126650082Y-136251798D01*
X126650083Y-136251803D01*
X126649513Y-136259038D01*
X126666462Y-136552995D01*
X126667287Y-136557200D01*
X126667288Y-136557208D01*
X126700000Y-136723938D01*
X126723149Y-136841931D01*
X126738033Y-136885404D01*
X126774935Y-136993187D01*
X126778077Y-137064114D01*
X126742374Y-137125480D01*
X126679161Y-137157802D01*
X126655728Y-137160000D01*
X119506000Y-137160000D01*
X119437879Y-137139998D01*
X119391386Y-137086342D01*
X119380000Y-137034000D01*
X119380000Y-102408134D01*
X145381500Y-102408134D01*
X145388255Y-102470316D01*
X145439385Y-102606705D01*
X145526739Y-102723261D01*
X145643295Y-102810615D01*
X145779684Y-102861745D01*
X145841866Y-102868500D01*
X146938134Y-102868500D01*
X147000316Y-102861745D01*
X147136705Y-102810615D01*
X147253261Y-102723261D01*
X147340615Y-102606705D01*
X147391745Y-102470316D01*
X147398500Y-102408134D01*
X149781500Y-102408134D01*
X149788255Y-102470316D01*
X149839385Y-102606705D01*
X149926739Y-102723261D01*
X150043295Y-102810615D01*
X150179684Y-102861745D01*
X150241866Y-102868500D01*
X151338134Y-102868500D01*
X151400316Y-102861745D01*
X151536705Y-102810615D01*
X151653261Y-102723261D01*
X151740615Y-102606705D01*
X151791745Y-102470316D01*
X151798500Y-102408134D01*
X153636500Y-102408134D01*
X153643255Y-102470316D01*
X153694385Y-102606705D01*
X153781739Y-102723261D01*
X153898295Y-102810615D01*
X154034684Y-102861745D01*
X154096866Y-102868500D01*
X155193134Y-102868500D01*
X155255316Y-102861745D01*
X155391705Y-102810615D01*
X155508261Y-102723261D01*
X155595615Y-102606705D01*
X155646745Y-102470316D01*
X155653500Y-102408134D01*
X158036500Y-102408134D01*
X158043255Y-102470316D01*
X158094385Y-102606705D01*
X158181739Y-102723261D01*
X158298295Y-102810615D01*
X158434684Y-102861745D01*
X158496866Y-102868500D01*
X159593134Y-102868500D01*
X159655316Y-102861745D01*
X159791705Y-102810615D01*
X159908261Y-102723261D01*
X159995615Y-102606705D01*
X160046745Y-102470316D01*
X160053500Y-102408134D01*
X160053500Y-100311866D01*
X160046745Y-100249684D01*
X159995615Y-100113295D01*
X159908261Y-99996739D01*
X159791705Y-99909385D01*
X159655316Y-99858255D01*
X159593134Y-99851500D01*
X158496866Y-99851500D01*
X158434684Y-99858255D01*
X158298295Y-99909385D01*
X158181739Y-99996739D01*
X158094385Y-100113295D01*
X158043255Y-100249684D01*
X158036500Y-100311866D01*
X158036500Y-102408134D01*
X155653500Y-102408134D01*
X155653500Y-100311866D01*
X155646745Y-100249684D01*
X155595615Y-100113295D01*
X155508261Y-99996739D01*
X155391705Y-99909385D01*
X155255316Y-99858255D01*
X155193134Y-99851500D01*
X154096866Y-99851500D01*
X154034684Y-99858255D01*
X153898295Y-99909385D01*
X153781739Y-99996739D01*
X153694385Y-100113295D01*
X153643255Y-100249684D01*
X153636500Y-100311866D01*
X153636500Y-102408134D01*
X151798500Y-102408134D01*
X151798500Y-100311866D01*
X151791745Y-100249684D01*
X151740615Y-100113295D01*
X151653261Y-99996739D01*
X151536705Y-99909385D01*
X151400316Y-99858255D01*
X151338134Y-99851500D01*
X150241866Y-99851500D01*
X150179684Y-99858255D01*
X150043295Y-99909385D01*
X149926739Y-99996739D01*
X149839385Y-100113295D01*
X149788255Y-100249684D01*
X149781500Y-100311866D01*
X149781500Y-102408134D01*
X147398500Y-102408134D01*
X147398500Y-100311866D01*
X147391745Y-100249684D01*
X147340615Y-100113295D01*
X147253261Y-99996739D01*
X147136705Y-99909385D01*
X147000316Y-99858255D01*
X146938134Y-99851500D01*
X145841866Y-99851500D01*
X145779684Y-99858255D01*
X145643295Y-99909385D01*
X145526739Y-99996739D01*
X145439385Y-100113295D01*
X145388255Y-100249684D01*
X145381500Y-100311866D01*
X145381500Y-102408134D01*
X119380000Y-102408134D01*
X119380000Y-99060000D01*
X161900496Y-99060000D01*
X161920458Y-99249928D01*
X161979473Y-99431556D01*
X162074960Y-99596944D01*
X162079378Y-99601851D01*
X162079379Y-99601852D01*
X162198325Y-99733955D01*
X162202747Y-99738866D01*
X162357248Y-99851118D01*
X162363276Y-99853802D01*
X162363278Y-99853803D01*
X162503928Y-99916424D01*
X162531712Y-99928794D01*
X162619580Y-99947471D01*
X162712056Y-99967128D01*
X162712061Y-99967128D01*
X162718513Y-99968500D01*
X162909487Y-99968500D01*
X162915939Y-99967128D01*
X162915944Y-99967128D01*
X163008420Y-99947471D01*
X163096288Y-99928794D01*
X163124072Y-99916424D01*
X163264722Y-99853803D01*
X163264724Y-99853802D01*
X163270752Y-99851118D01*
X163425253Y-99738866D01*
X163429675Y-99733955D01*
X163548621Y-99601852D01*
X163548622Y-99601851D01*
X163553040Y-99596944D01*
X163648527Y-99431556D01*
X163707542Y-99249928D01*
X163727504Y-99060000D01*
X163713517Y-98926921D01*
X166393392Y-98926921D01*
X166403172Y-99138216D01*
X166404576Y-99144041D01*
X166404576Y-99144042D01*
X166431608Y-99256206D01*
X166452730Y-99343851D01*
X166455212Y-99349309D01*
X166455213Y-99349313D01*
X166498658Y-99444863D01*
X166540279Y-99536404D01*
X166662659Y-99708928D01*
X166666986Y-99713070D01*
X166666991Y-99713076D01*
X166757922Y-99800123D01*
X166793299Y-99861678D01*
X166789780Y-99932587D01*
X166748484Y-99990338D01*
X166737101Y-99998282D01*
X166681257Y-100032839D01*
X166556300Y-100158014D01*
X166552460Y-100164244D01*
X166552459Y-100164245D01*
X166499794Y-100249684D01*
X166463490Y-100308579D01*
X166407808Y-100476456D01*
X166397105Y-100580917D01*
X166397105Y-101381717D01*
X166408079Y-101487483D01*
X166464055Y-101655263D01*
X166557127Y-101805665D01*
X166682302Y-101930622D01*
X166688532Y-101934462D01*
X166688533Y-101934463D01*
X166825695Y-102019011D01*
X166832867Y-102023432D01*
X166912610Y-102049881D01*
X166994216Y-102076949D01*
X166994218Y-102076949D01*
X167000744Y-102079114D01*
X167007580Y-102079814D01*
X167007583Y-102079815D01*
X167050636Y-102084226D01*
X167105205Y-102089817D01*
X168456005Y-102089817D01*
X168459251Y-102089480D01*
X168459255Y-102089480D01*
X168554913Y-102079555D01*
X168554917Y-102079554D01*
X168561771Y-102078843D01*
X168568307Y-102076662D01*
X168568309Y-102076662D01*
X168700411Y-102032589D01*
X168729551Y-102022867D01*
X168879953Y-101929795D01*
X169004910Y-101804620D01*
X169097720Y-101654055D01*
X169153402Y-101486178D01*
X169164105Y-101381717D01*
X169164105Y-100580917D01*
X169153131Y-100475151D01*
X169097155Y-100307371D01*
X169004083Y-100156969D01*
X168878908Y-100032012D01*
X168827369Y-100000242D01*
X168779876Y-99947471D01*
X168768452Y-99877399D01*
X168796726Y-99812275D01*
X168815650Y-99793899D01*
X168823525Y-99787713D01*
X168827457Y-99783182D01*
X168827460Y-99783179D01*
X168958226Y-99632484D01*
X168962157Y-99627954D01*
X168965157Y-99622768D01*
X168965160Y-99622764D01*
X169065072Y-99450059D01*
X169068078Y-99444863D01*
X169137466Y-99245046D01*
X169164297Y-99060000D01*
X169166957Y-99041653D01*
X169166957Y-99041650D01*
X169167818Y-99035713D01*
X169158038Y-98824418D01*
X169108480Y-98618783D01*
X169065130Y-98523439D01*
X169049836Y-98489803D01*
X169020931Y-98426230D01*
X168907070Y-98265716D01*
X168902017Y-98258592D01*
X168902016Y-98258591D01*
X168898551Y-98253706D01*
X168745755Y-98107436D01*
X168739860Y-98103629D01*
X168713442Y-98086571D01*
X168667065Y-98032816D01*
X168657112Y-97962520D01*
X168686744Y-97898003D01*
X168703958Y-97881634D01*
X168711051Y-97876063D01*
X168823525Y-97787713D01*
X168827457Y-97783182D01*
X168827460Y-97783179D01*
X168958226Y-97632484D01*
X168962157Y-97627954D01*
X168965157Y-97622768D01*
X168965160Y-97622764D01*
X169065072Y-97450059D01*
X169068078Y-97444863D01*
X169137466Y-97245046D01*
X169151425Y-97148776D01*
X169166957Y-97041653D01*
X169166957Y-97041650D01*
X169167818Y-97035713D01*
X169158038Y-96824418D01*
X169108480Y-96618783D01*
X169065130Y-96523439D01*
X169048964Y-96487885D01*
X169020931Y-96426230D01*
X168898551Y-96253706D01*
X168745755Y-96107436D01*
X168739860Y-96103629D01*
X168713442Y-96086571D01*
X168667065Y-96032816D01*
X168657112Y-95962520D01*
X168686744Y-95898003D01*
X168703958Y-95881634D01*
X168711051Y-95876063D01*
X168823525Y-95787713D01*
X168827457Y-95783182D01*
X168827460Y-95783179D01*
X168958226Y-95632484D01*
X168962157Y-95627954D01*
X168965157Y-95622768D01*
X168965160Y-95622764D01*
X169065072Y-95450059D01*
X169068078Y-95444863D01*
X169137466Y-95245046D01*
X169143707Y-95202001D01*
X169166957Y-95041653D01*
X169166957Y-95041650D01*
X169167818Y-95035713D01*
X169158038Y-94824418D01*
X169108480Y-94618783D01*
X169065130Y-94523439D01*
X169023411Y-94431685D01*
X169020931Y-94426230D01*
X168898551Y-94253706D01*
X168745755Y-94107436D01*
X168722297Y-94092289D01*
X168713442Y-94086571D01*
X168667065Y-94032816D01*
X168657112Y-93962520D01*
X168686744Y-93898003D01*
X168703958Y-93881634D01*
X168711051Y-93876063D01*
X168823525Y-93787713D01*
X168827457Y-93783182D01*
X168827460Y-93783179D01*
X168958226Y-93632484D01*
X168962157Y-93627954D01*
X168965157Y-93622768D01*
X168965160Y-93622764D01*
X169065072Y-93450059D01*
X169068078Y-93444863D01*
X169137466Y-93245046D01*
X169167818Y-93035713D01*
X169158038Y-92824418D01*
X169113049Y-92637741D01*
X169109886Y-92624616D01*
X169109885Y-92624614D01*
X169108480Y-92618783D01*
X169104286Y-92609557D01*
X169053689Y-92498276D01*
X169020931Y-92426230D01*
X168916506Y-92279018D01*
X168902017Y-92258592D01*
X168902016Y-92258591D01*
X168898551Y-92253706D01*
X168745755Y-92107436D01*
X168739860Y-92103629D01*
X168713442Y-92086571D01*
X168667065Y-92032816D01*
X168657112Y-91962520D01*
X168686744Y-91898003D01*
X168703958Y-91881634D01*
X168711051Y-91876063D01*
X168823525Y-91787713D01*
X168827457Y-91783182D01*
X168827460Y-91783179D01*
X168958226Y-91632484D01*
X168962157Y-91627954D01*
X168965157Y-91622768D01*
X168965160Y-91622764D01*
X169065072Y-91450059D01*
X169068078Y-91444863D01*
X169137466Y-91245046D01*
X169167818Y-91035713D01*
X169158038Y-90824418D01*
X169108480Y-90618783D01*
X169065130Y-90523439D01*
X169023411Y-90431685D01*
X169020931Y-90426230D01*
X168898551Y-90253706D01*
X168745755Y-90107436D01*
X168740724Y-90104187D01*
X168740717Y-90104182D01*
X168712998Y-90086284D01*
X168666621Y-90032528D01*
X168656668Y-89962232D01*
X168686301Y-89897715D01*
X168703514Y-89881347D01*
X168818462Y-89791055D01*
X168827111Y-89782818D01*
X168957817Y-89632194D01*
X168964752Y-89622470D01*
X169064615Y-89449850D01*
X169069589Y-89438986D01*
X169135012Y-89250590D01*
X169135253Y-89249601D01*
X169133785Y-89239309D01*
X169120220Y-89235317D01*
X166445203Y-89235317D01*
X166431672Y-89239290D01*
X166430317Y-89248716D01*
X166451799Y-89337854D01*
X166455688Y-89349149D01*
X166538234Y-89530699D01*
X166544181Y-89541041D01*
X166659573Y-89703714D01*
X166667366Y-89712742D01*
X166811436Y-89850659D01*
X166820805Y-89858058D01*
X166848182Y-89875735D01*
X166894560Y-89929489D01*
X166904514Y-89999785D01*
X166874883Y-90064302D01*
X166857668Y-90080673D01*
X166737685Y-90174921D01*
X166733753Y-90179452D01*
X166733750Y-90179455D01*
X166665079Y-90258592D01*
X166599053Y-90334680D01*
X166596053Y-90339866D01*
X166596050Y-90339870D01*
X166548917Y-90421343D01*
X166493132Y-90517771D01*
X166423744Y-90717588D01*
X166393392Y-90926921D01*
X166403172Y-91138216D01*
X166452730Y-91343851D01*
X166455212Y-91349309D01*
X166455213Y-91349313D01*
X166498658Y-91444863D01*
X166540279Y-91536404D01*
X166662659Y-91708928D01*
X166815455Y-91855198D01*
X166820493Y-91858451D01*
X166847768Y-91876063D01*
X166894145Y-91929818D01*
X166904098Y-92000114D01*
X166874466Y-92064631D01*
X166857254Y-92080998D01*
X166737685Y-92174921D01*
X166733753Y-92179452D01*
X166733750Y-92179455D01*
X166620066Y-92310465D01*
X166599053Y-92334680D01*
X166596053Y-92339866D01*
X166596050Y-92339870D01*
X166526220Y-92460576D01*
X166493132Y-92517771D01*
X166423744Y-92717588D01*
X166422883Y-92723523D01*
X166422883Y-92723525D01*
X166412910Y-92792311D01*
X166393392Y-92926921D01*
X166403172Y-93138216D01*
X166404576Y-93144041D01*
X166404576Y-93144042D01*
X166445830Y-93315219D01*
X166452730Y-93343851D01*
X166455212Y-93349309D01*
X166455213Y-93349313D01*
X166498658Y-93444863D01*
X166540279Y-93536404D01*
X166662659Y-93708928D01*
X166815455Y-93855198D01*
X166820493Y-93858451D01*
X166847768Y-93876063D01*
X166894145Y-93929818D01*
X166904098Y-94000114D01*
X166874466Y-94064631D01*
X166857254Y-94080998D01*
X166737685Y-94174921D01*
X166733753Y-94179452D01*
X166733750Y-94179455D01*
X166665079Y-94258592D01*
X166599053Y-94334680D01*
X166596053Y-94339866D01*
X166596050Y-94339870D01*
X166548917Y-94421343D01*
X166493132Y-94517771D01*
X166423744Y-94717588D01*
X166393392Y-94926921D01*
X166403172Y-95138216D01*
X166452730Y-95343851D01*
X166455212Y-95349309D01*
X166455213Y-95349313D01*
X166498658Y-95444863D01*
X166540279Y-95536404D01*
X166662659Y-95708928D01*
X166687788Y-95732984D01*
X166800764Y-95841134D01*
X166815455Y-95855198D01*
X166820493Y-95858451D01*
X166847768Y-95876063D01*
X166894145Y-95929818D01*
X166904098Y-96000114D01*
X166874466Y-96064631D01*
X166857254Y-96080998D01*
X166737685Y-96174921D01*
X166733753Y-96179452D01*
X166733750Y-96179455D01*
X166615159Y-96316119D01*
X166599053Y-96334680D01*
X166596053Y-96339866D01*
X166596050Y-96339870D01*
X166507779Y-96492452D01*
X166493132Y-96517771D01*
X166423744Y-96717588D01*
X166422883Y-96723523D01*
X166422883Y-96723525D01*
X166398520Y-96891556D01*
X166393392Y-96926921D01*
X166403172Y-97138216D01*
X166404576Y-97144041D01*
X166404576Y-97144042D01*
X166438000Y-97282729D01*
X166452730Y-97343851D01*
X166455212Y-97349309D01*
X166455213Y-97349313D01*
X166498537Y-97444598D01*
X166540279Y-97536404D01*
X166662659Y-97708928D01*
X166815455Y-97855198D01*
X166820493Y-97858451D01*
X166847768Y-97876063D01*
X166894145Y-97929818D01*
X166904098Y-98000114D01*
X166874466Y-98064631D01*
X166857254Y-98080998D01*
X166737685Y-98174921D01*
X166733753Y-98179452D01*
X166733750Y-98179455D01*
X166660757Y-98263572D01*
X166599053Y-98334680D01*
X166596053Y-98339866D01*
X166596050Y-98339870D01*
X166523222Y-98465759D01*
X166493132Y-98517771D01*
X166423744Y-98717588D01*
X166393392Y-98926921D01*
X163713517Y-98926921D01*
X163707542Y-98870072D01*
X163648527Y-98688444D01*
X163593381Y-98592928D01*
X163576500Y-98529929D01*
X163576500Y-97050071D01*
X163593381Y-96987071D01*
X163645223Y-96897279D01*
X163645224Y-96897278D01*
X163648527Y-96891556D01*
X163707542Y-96709928D01*
X163727504Y-96520000D01*
X163722628Y-96473606D01*
X163708232Y-96336635D01*
X163708232Y-96336633D01*
X163707542Y-96330072D01*
X163648527Y-96148444D01*
X163553040Y-95983056D01*
X163505105Y-95929818D01*
X163429675Y-95846045D01*
X163429674Y-95846044D01*
X163425253Y-95841134D01*
X163270752Y-95728882D01*
X163264724Y-95726198D01*
X163264722Y-95726197D01*
X163102319Y-95653891D01*
X163102318Y-95653891D01*
X163096288Y-95651206D01*
X162986897Y-95627954D01*
X162915944Y-95612872D01*
X162915939Y-95612872D01*
X162909487Y-95611500D01*
X162718513Y-95611500D01*
X162712061Y-95612872D01*
X162712056Y-95612872D01*
X162641103Y-95627954D01*
X162531712Y-95651206D01*
X162525682Y-95653891D01*
X162525681Y-95653891D01*
X162363278Y-95726197D01*
X162363276Y-95726198D01*
X162357248Y-95728882D01*
X162202747Y-95841134D01*
X162198326Y-95846044D01*
X162198325Y-95846045D01*
X162122896Y-95929818D01*
X162074960Y-95983056D01*
X161979473Y-96148444D01*
X161920458Y-96330072D01*
X161919768Y-96336633D01*
X161919768Y-96336635D01*
X161905372Y-96473606D01*
X161900496Y-96520000D01*
X161920458Y-96709928D01*
X161979473Y-96891556D01*
X161982776Y-96897278D01*
X161982777Y-96897279D01*
X162034619Y-96987071D01*
X162051500Y-97050071D01*
X162051500Y-98529929D01*
X162034619Y-98592928D01*
X161979473Y-98688444D01*
X161920458Y-98870072D01*
X161900496Y-99060000D01*
X119380000Y-99060000D01*
X119380000Y-97854669D01*
X145332001Y-97854669D01*
X145332371Y-97861490D01*
X145337895Y-97912352D01*
X145341521Y-97927604D01*
X145386676Y-98048054D01*
X145395214Y-98063649D01*
X145471715Y-98165724D01*
X145484276Y-98178285D01*
X145586351Y-98254786D01*
X145601946Y-98263324D01*
X145722394Y-98308478D01*
X145737649Y-98312105D01*
X145788514Y-98317631D01*
X145795328Y-98318000D01*
X146217885Y-98318000D01*
X146233124Y-98313525D01*
X146234329Y-98312135D01*
X146236000Y-98304452D01*
X146236000Y-98299884D01*
X146744000Y-98299884D01*
X146748475Y-98315123D01*
X146749865Y-98316328D01*
X146757548Y-98317999D01*
X147184669Y-98317999D01*
X147191490Y-98317629D01*
X147242352Y-98312105D01*
X147257604Y-98308479D01*
X147378054Y-98263324D01*
X147393649Y-98254786D01*
X147495724Y-98178285D01*
X147508285Y-98165724D01*
X147584786Y-98063649D01*
X147593324Y-98048054D01*
X147638478Y-97927606D01*
X147642105Y-97912351D01*
X147647631Y-97861486D01*
X147648000Y-97854672D01*
X147648000Y-97032115D01*
X147643525Y-97016876D01*
X147642135Y-97015671D01*
X147634452Y-97014000D01*
X146762115Y-97014000D01*
X146746876Y-97018475D01*
X146745671Y-97019865D01*
X146744000Y-97027548D01*
X146744000Y-98299884D01*
X146236000Y-98299884D01*
X146236000Y-97032115D01*
X146231525Y-97016876D01*
X146230135Y-97015671D01*
X146222452Y-97014000D01*
X145350116Y-97014000D01*
X145334877Y-97018475D01*
X145333672Y-97019865D01*
X145332001Y-97027548D01*
X145332001Y-97854669D01*
X119380000Y-97854669D01*
X119380000Y-96487885D01*
X145332000Y-96487885D01*
X145336475Y-96503124D01*
X145337865Y-96504329D01*
X145345548Y-96506000D01*
X147629884Y-96506000D01*
X147645123Y-96501525D01*
X147646328Y-96500135D01*
X147650327Y-96481750D01*
X147684352Y-96419438D01*
X147746664Y-96385413D01*
X147817480Y-96390477D01*
X147862543Y-96419438D01*
X149493472Y-98050367D01*
X149495241Y-98051891D01*
X149495245Y-98051895D01*
X149627352Y-98165724D01*
X149641072Y-98177546D01*
X149862120Y-98317017D01*
X149866391Y-98318896D01*
X149866396Y-98318899D01*
X149997619Y-98376639D01*
X150101355Y-98422284D01*
X150105859Y-98423512D01*
X150105862Y-98423513D01*
X150260820Y-98465759D01*
X150353521Y-98491032D01*
X150358153Y-98491580D01*
X150358157Y-98491581D01*
X150483301Y-98506393D01*
X150613080Y-98521753D01*
X150818970Y-98515462D01*
X150869651Y-98513914D01*
X150869652Y-98513914D01*
X150874329Y-98513771D01*
X151000078Y-98491032D01*
X151126930Y-98468094D01*
X151126937Y-98468092D01*
X151131528Y-98467262D01*
X151309284Y-98406922D01*
X151374598Y-98384751D01*
X151374601Y-98384750D01*
X151379028Y-98383247D01*
X151611390Y-98263572D01*
X151625095Y-98253706D01*
X151819719Y-98113598D01*
X151819723Y-98113595D01*
X151823512Y-98110867D01*
X152010732Y-97928485D01*
X152037326Y-97893512D01*
X152066863Y-97854669D01*
X153587001Y-97854669D01*
X153587371Y-97861490D01*
X153592895Y-97912352D01*
X153596521Y-97927604D01*
X153641676Y-98048054D01*
X153650214Y-98063649D01*
X153726715Y-98165724D01*
X153739276Y-98178285D01*
X153841351Y-98254786D01*
X153856946Y-98263324D01*
X153977394Y-98308478D01*
X153992649Y-98312105D01*
X154043514Y-98317631D01*
X154050328Y-98318000D01*
X154472885Y-98318000D01*
X154488124Y-98313525D01*
X154489329Y-98312135D01*
X154491000Y-98304452D01*
X154491000Y-98299884D01*
X154999000Y-98299884D01*
X155003475Y-98315123D01*
X155004865Y-98316328D01*
X155012548Y-98317999D01*
X155439669Y-98317999D01*
X155446490Y-98317629D01*
X155497352Y-98312105D01*
X155512604Y-98308479D01*
X155633054Y-98263324D01*
X155648649Y-98254786D01*
X155750724Y-98178285D01*
X155763285Y-98165724D01*
X155839786Y-98063649D01*
X155848324Y-98048054D01*
X155893478Y-97927606D01*
X155897105Y-97912351D01*
X155902631Y-97861486D01*
X155903000Y-97854672D01*
X155903000Y-97032115D01*
X155898525Y-97016876D01*
X155897135Y-97015671D01*
X155889452Y-97014000D01*
X155017115Y-97014000D01*
X155001876Y-97018475D01*
X155000671Y-97019865D01*
X154999000Y-97027548D01*
X154999000Y-98299884D01*
X154491000Y-98299884D01*
X154491000Y-97032115D01*
X154486525Y-97016876D01*
X154485135Y-97015671D01*
X154477452Y-97014000D01*
X153605116Y-97014000D01*
X153589877Y-97018475D01*
X153588672Y-97019865D01*
X153587001Y-97027548D01*
X153587001Y-97854669D01*
X152066863Y-97854669D01*
X152166105Y-97724160D01*
X152166107Y-97724157D01*
X152168938Y-97720434D01*
X152271860Y-97532833D01*
X152292406Y-97495383D01*
X152292408Y-97495379D01*
X152294655Y-97491283D01*
X152367464Y-97293926D01*
X152383500Y-97250457D01*
X152383501Y-97250455D01*
X152385119Y-97246068D01*
X152386567Y-97239109D01*
X152427637Y-97041653D01*
X152438345Y-96990174D01*
X152450397Y-96777920D01*
X152452897Y-96733900D01*
X152452897Y-96733893D01*
X152453162Y-96729224D01*
X152448922Y-96683080D01*
X157183247Y-96683080D01*
X157191230Y-96944329D01*
X157192063Y-96948934D01*
X157192063Y-96948937D01*
X157208074Y-97037479D01*
X157237738Y-97201528D01*
X157252857Y-97246068D01*
X157320249Y-97444598D01*
X157320252Y-97444604D01*
X157321753Y-97449027D01*
X157441428Y-97681390D01*
X157444161Y-97685187D01*
X157444162Y-97685188D01*
X157581572Y-97876063D01*
X157594133Y-97893512D01*
X157776515Y-98080732D01*
X157780242Y-98083566D01*
X157780243Y-98083567D01*
X157980850Y-98236112D01*
X157980854Y-98236115D01*
X157984567Y-98238938D01*
X158111859Y-98308773D01*
X158168646Y-98339927D01*
X158213717Y-98364654D01*
X158458932Y-98455119D01*
X158714826Y-98508345D01*
X158845301Y-98515754D01*
X158971100Y-98522897D01*
X158971107Y-98522897D01*
X158975776Y-98523162D01*
X159157721Y-98506444D01*
X159231394Y-98499675D01*
X159231396Y-98499675D01*
X159236050Y-98499247D01*
X159489930Y-98437123D01*
X159731839Y-98338155D01*
X159745295Y-98330150D01*
X159853599Y-98265716D01*
X159956463Y-98204519D01*
X160125421Y-98066474D01*
X160208622Y-97983273D01*
X160213816Y-97978365D01*
X160269016Y-97929097D01*
X160272506Y-97925982D01*
X160275495Y-97922388D01*
X160275500Y-97922383D01*
X160345575Y-97838127D01*
X160346996Y-97836448D01*
X160418494Y-97753470D01*
X160421546Y-97749928D01*
X160425367Y-97743873D01*
X160435046Y-97730550D01*
X160439637Y-97725030D01*
X160442063Y-97721031D01*
X160442068Y-97721025D01*
X160498946Y-97627295D01*
X160500102Y-97625426D01*
X160558523Y-97532833D01*
X160558524Y-97532832D01*
X160561017Y-97528880D01*
X160563903Y-97522322D01*
X160571507Y-97507714D01*
X160575229Y-97501581D01*
X160579548Y-97491283D01*
X160619410Y-97396222D01*
X160620278Y-97394202D01*
X160664400Y-97293926D01*
X160666284Y-97289645D01*
X160667513Y-97285138D01*
X160667516Y-97285129D01*
X160668170Y-97282729D01*
X160673533Y-97267152D01*
X160676303Y-97260545D01*
X160680240Y-97245046D01*
X160704422Y-97149827D01*
X160704982Y-97147701D01*
X160733802Y-97041990D01*
X160735032Y-97037479D01*
X160735873Y-97030373D01*
X160738879Y-97014153D01*
X160738918Y-97014000D01*
X160740641Y-97007217D01*
X160748123Y-96932918D01*
X160752085Y-96893572D01*
X160752324Y-96891387D01*
X160765204Y-96782558D01*
X160765753Y-96777920D01*
X160762559Y-96673381D01*
X160762500Y-96669533D01*
X160762500Y-93913646D01*
X160759707Y-93876063D01*
X160748407Y-93724000D01*
X160748406Y-93723996D01*
X160748061Y-93719348D01*
X160746641Y-93713070D01*
X160691408Y-93468980D01*
X160690377Y-93464423D01*
X160682771Y-93444863D01*
X160597340Y-93225176D01*
X160597339Y-93225173D01*
X160595647Y-93220823D01*
X160465951Y-92993902D01*
X160304138Y-92788643D01*
X160113763Y-92609557D01*
X159934318Y-92485071D01*
X159902851Y-92463241D01*
X159902848Y-92463239D01*
X159899009Y-92460576D01*
X159894816Y-92458508D01*
X159668781Y-92347040D01*
X159668778Y-92347039D01*
X159664593Y-92344975D01*
X159632432Y-92334680D01*
X159420123Y-92266720D01*
X159415665Y-92265293D01*
X159157693Y-92223279D01*
X159043942Y-92221790D01*
X158901022Y-92219919D01*
X158901019Y-92219919D01*
X158896345Y-92219858D01*
X158637362Y-92255104D01*
X158386433Y-92328243D01*
X158382180Y-92330203D01*
X158382179Y-92330204D01*
X158345659Y-92347040D01*
X158149072Y-92437668D01*
X158110067Y-92463241D01*
X157934404Y-92578410D01*
X157934399Y-92578414D01*
X157930491Y-92580976D01*
X157735494Y-92755018D01*
X157568363Y-92955970D01*
X157565934Y-92959973D01*
X157457774Y-93138216D01*
X157432771Y-93179419D01*
X157331697Y-93420455D01*
X157267359Y-93673783D01*
X157266891Y-93678434D01*
X157266890Y-93678438D01*
X157255887Y-93787713D01*
X157245500Y-93890867D01*
X157245500Y-96290995D01*
X157241063Y-96324137D01*
X157213968Y-96423521D01*
X157213420Y-96428153D01*
X157213419Y-96428157D01*
X157204546Y-96503124D01*
X157183247Y-96683080D01*
X152448922Y-96683080D01*
X152433733Y-96517771D01*
X152430987Y-96487885D01*
X153587000Y-96487885D01*
X153591475Y-96503124D01*
X153592865Y-96504329D01*
X153600548Y-96506000D01*
X154472885Y-96506000D01*
X154488124Y-96501525D01*
X154489329Y-96500135D01*
X154491000Y-96492452D01*
X154491000Y-96487885D01*
X154999000Y-96487885D01*
X155003475Y-96503124D01*
X155004865Y-96504329D01*
X155012548Y-96506000D01*
X155884884Y-96506000D01*
X155900123Y-96501525D01*
X155901328Y-96500135D01*
X155902999Y-96492452D01*
X155902999Y-95665331D01*
X155902629Y-95658510D01*
X155897105Y-95607648D01*
X155893479Y-95592396D01*
X155848324Y-95471946D01*
X155839786Y-95456351D01*
X155763285Y-95354276D01*
X155750724Y-95341715D01*
X155648649Y-95265214D01*
X155633054Y-95256676D01*
X155512606Y-95211522D01*
X155497351Y-95207895D01*
X155446486Y-95202369D01*
X155439672Y-95202000D01*
X155017115Y-95202000D01*
X155001876Y-95206475D01*
X155000671Y-95207865D01*
X154999000Y-95215548D01*
X154999000Y-96487885D01*
X154491000Y-96487885D01*
X154491000Y-95220116D01*
X154486525Y-95204877D01*
X154485135Y-95203672D01*
X154477452Y-95202001D01*
X154050331Y-95202001D01*
X154043510Y-95202371D01*
X153992648Y-95207895D01*
X153977396Y-95211521D01*
X153856946Y-95256676D01*
X153841351Y-95265214D01*
X153739276Y-95341715D01*
X153726715Y-95354276D01*
X153650214Y-95456351D01*
X153641676Y-95471946D01*
X153596522Y-95592394D01*
X153592895Y-95607649D01*
X153587369Y-95658514D01*
X153587000Y-95665328D01*
X153587000Y-96487885D01*
X152430987Y-96487885D01*
X152429675Y-96473606D01*
X152429675Y-96473604D01*
X152429247Y-96468950D01*
X152367123Y-96215070D01*
X152365350Y-96210736D01*
X152269925Y-95977486D01*
X152269922Y-95977479D01*
X152268155Y-95973161D01*
X152189608Y-95841134D01*
X152136911Y-95752558D01*
X152136909Y-95752555D01*
X152134519Y-95748538D01*
X151996474Y-95579579D01*
X149192273Y-92775378D01*
X149187365Y-92770184D01*
X149138099Y-92714986D01*
X149138097Y-92714984D01*
X149134982Y-92711494D01*
X149047134Y-92638432D01*
X149045483Y-92637034D01*
X149031072Y-92624616D01*
X148958929Y-92562454D01*
X148952874Y-92558634D01*
X148939545Y-92548949D01*
X148937625Y-92547352D01*
X148937617Y-92547346D01*
X148934030Y-92544363D01*
X148890208Y-92517771D01*
X148836321Y-92485071D01*
X148834452Y-92483914D01*
X148787891Y-92454537D01*
X148737881Y-92422983D01*
X148731327Y-92420099D01*
X148716710Y-92412490D01*
X148710581Y-92408771D01*
X148605252Y-92364603D01*
X148603231Y-92363735D01*
X148565289Y-92347040D01*
X148498645Y-92317716D01*
X148494138Y-92316487D01*
X148494129Y-92316484D01*
X148491729Y-92315830D01*
X148476152Y-92310467D01*
X148469545Y-92307697D01*
X148465017Y-92306547D01*
X148465014Y-92306546D01*
X148358827Y-92279578D01*
X148356701Y-92279018D01*
X148246479Y-92248968D01*
X148241839Y-92248419D01*
X148241834Y-92248418D01*
X148239373Y-92248127D01*
X148223157Y-92245122D01*
X148216217Y-92243359D01*
X148166656Y-92238368D01*
X148102572Y-92231915D01*
X148100387Y-92231676D01*
X148000531Y-92219858D01*
X147986920Y-92218247D01*
X147882394Y-92221441D01*
X147878546Y-92221500D01*
X147253646Y-92221500D01*
X147251321Y-92221673D01*
X147251315Y-92221673D01*
X147064000Y-92235593D01*
X147063996Y-92235594D01*
X147059348Y-92235939D01*
X147054800Y-92236968D01*
X147054794Y-92236969D01*
X146923316Y-92266720D01*
X146804423Y-92293623D01*
X146800071Y-92295315D01*
X146800069Y-92295316D01*
X146565176Y-92386660D01*
X146565173Y-92386661D01*
X146560823Y-92388353D01*
X146333902Y-92518049D01*
X146128643Y-92679862D01*
X145949557Y-92870237D01*
X145892577Y-92952373D01*
X145834762Y-93035713D01*
X145800576Y-93084991D01*
X145798510Y-93089181D01*
X145798508Y-93089184D01*
X145718853Y-93250710D01*
X145684975Y-93319407D01*
X145683553Y-93323850D01*
X145683552Y-93323852D01*
X145677150Y-93343851D01*
X145605293Y-93568335D01*
X145563279Y-93826307D01*
X145559858Y-94087655D01*
X145595104Y-94346638D01*
X145668243Y-94597567D01*
X145777668Y-94834928D01*
X145780228Y-94838833D01*
X145780231Y-94838838D01*
X145890663Y-95007275D01*
X145911286Y-95075211D01*
X145891906Y-95143511D01*
X145838676Y-95190491D01*
X145792101Y-95202176D01*
X145788513Y-95202370D01*
X145737648Y-95207895D01*
X145722396Y-95211521D01*
X145601946Y-95256676D01*
X145586351Y-95265214D01*
X145484276Y-95341715D01*
X145471715Y-95354276D01*
X145395214Y-95456351D01*
X145386676Y-95471946D01*
X145341522Y-95592394D01*
X145337895Y-95607649D01*
X145332369Y-95658514D01*
X145332000Y-95665328D01*
X145332000Y-96487885D01*
X119380000Y-96487885D01*
X119380000Y-88713033D01*
X166425957Y-88713033D01*
X166427425Y-88723325D01*
X166440990Y-88727317D01*
X167508490Y-88727317D01*
X167523729Y-88722842D01*
X167524934Y-88721452D01*
X167526605Y-88713769D01*
X167526605Y-88709202D01*
X168034605Y-88709202D01*
X168039080Y-88724441D01*
X168040470Y-88725646D01*
X168048153Y-88727317D01*
X169116007Y-88727317D01*
X169129538Y-88723344D01*
X169130893Y-88713918D01*
X169109411Y-88624780D01*
X169105522Y-88613485D01*
X169022976Y-88431935D01*
X169017029Y-88421593D01*
X168901637Y-88258920D01*
X168893844Y-88249892D01*
X168749774Y-88111975D01*
X168740409Y-88104579D01*
X168572864Y-87996396D01*
X168562260Y-87990900D01*
X168377293Y-87916356D01*
X168365835Y-87912962D01*
X168168677Y-87874460D01*
X168159814Y-87873383D01*
X168157105Y-87873317D01*
X168052720Y-87873317D01*
X168037481Y-87877792D01*
X168036276Y-87879182D01*
X168034605Y-87886865D01*
X168034605Y-88709202D01*
X167526605Y-88709202D01*
X167526605Y-87891432D01*
X167522130Y-87876193D01*
X167520740Y-87874988D01*
X167513057Y-87873317D01*
X167455773Y-87873317D01*
X167449797Y-87873602D01*
X167301111Y-87887788D01*
X167289377Y-87890047D01*
X167098006Y-87946189D01*
X167086930Y-87950619D01*
X166909627Y-88041936D01*
X166899581Y-88048386D01*
X166742748Y-88171579D01*
X166734099Y-88179816D01*
X166603393Y-88330440D01*
X166596458Y-88340164D01*
X166496595Y-88512784D01*
X166491621Y-88523648D01*
X166426198Y-88712044D01*
X166425957Y-88713033D01*
X119380000Y-88713033D01*
X119380000Y-81036705D01*
X133650775Y-81036705D01*
X133669405Y-81273416D01*
X133670559Y-81278223D01*
X133670560Y-81278229D01*
X133700541Y-81403106D01*
X133724835Y-81504299D01*
X133815700Y-81723668D01*
X133818286Y-81727888D01*
X133937181Y-81921907D01*
X133937185Y-81921913D01*
X133939764Y-81926121D01*
X134093971Y-82106674D01*
X134274524Y-82260881D01*
X134278732Y-82263460D01*
X134278738Y-82263464D01*
X134398622Y-82336929D01*
X134476977Y-82384945D01*
X134481547Y-82386838D01*
X134481551Y-82386840D01*
X134691773Y-82473916D01*
X134696346Y-82475810D01*
X134776549Y-82495065D01*
X134922416Y-82530085D01*
X134922422Y-82530086D01*
X134927229Y-82531240D01*
X135163940Y-82549870D01*
X135400651Y-82531240D01*
X135405458Y-82530086D01*
X135405464Y-82530085D01*
X135513377Y-82504177D01*
X139354676Y-82504177D01*
X139354878Y-82506685D01*
X139354878Y-82506690D01*
X139363013Y-82607794D01*
X139369236Y-82685141D01*
X139370442Y-82690049D01*
X139370442Y-82690052D01*
X139403912Y-82826318D01*
X139427139Y-82920882D01*
X139521988Y-83144332D01*
X139524686Y-83148616D01*
X139637132Y-83327176D01*
X139651343Y-83349743D01*
X139654688Y-83353537D01*
X139808526Y-83528034D01*
X139808529Y-83528037D01*
X139811874Y-83531831D01*
X139815782Y-83535041D01*
X139815783Y-83535042D01*
X139985157Y-83674166D01*
X139999454Y-83685910D01*
X140209254Y-83808017D01*
X140213977Y-83809830D01*
X140431154Y-83893196D01*
X140431158Y-83893197D01*
X140435878Y-83895009D01*
X140440828Y-83896043D01*
X140440831Y-83896044D01*
X140668545Y-83943616D01*
X140668549Y-83943616D01*
X140673496Y-83944650D01*
X140749958Y-83948122D01*
X140754048Y-83948308D01*
X140821191Y-83971379D01*
X140837427Y-83985083D01*
X141194595Y-84342251D01*
X141228621Y-84404563D01*
X141231500Y-84431345D01*
X141231500Y-84618134D01*
X141238255Y-84680316D01*
X141289385Y-84816705D01*
X141376739Y-84933261D01*
X141493295Y-85020615D01*
X141629684Y-85071745D01*
X141691866Y-85078500D01*
X142788134Y-85078500D01*
X142850316Y-85071745D01*
X142857715Y-85068971D01*
X142860854Y-85068225D01*
X142919146Y-85068225D01*
X142922285Y-85068971D01*
X142929684Y-85071745D01*
X142991866Y-85078500D01*
X144088134Y-85078500D01*
X144150316Y-85071745D01*
X144157715Y-85068971D01*
X144160854Y-85068225D01*
X144219146Y-85068225D01*
X144222285Y-85068971D01*
X144229684Y-85071745D01*
X144291866Y-85078500D01*
X145388134Y-85078500D01*
X145450316Y-85071745D01*
X145586705Y-85020615D01*
X145703261Y-84933261D01*
X145790615Y-84816705D01*
X145841745Y-84680316D01*
X145848500Y-84618134D01*
X145848500Y-84431345D01*
X145868502Y-84363224D01*
X145885405Y-84342250D01*
X145967626Y-84260029D01*
X146029938Y-84226003D01*
X146042239Y-84223959D01*
X146232105Y-84201991D01*
X146232109Y-84201990D01*
X146237132Y-84201409D01*
X146241996Y-84200033D01*
X146241999Y-84200032D01*
X146465845Y-84136690D01*
X146465844Y-84136690D01*
X146470708Y-84135314D01*
X146475284Y-84133180D01*
X146475290Y-84133178D01*
X146686130Y-84034862D01*
X146686134Y-84034860D01*
X146690712Y-84032725D01*
X146891483Y-83896280D01*
X147067857Y-83729492D01*
X147070936Y-83725465D01*
X147212223Y-83540670D01*
X147212226Y-83540666D01*
X147215296Y-83536650D01*
X147330007Y-83322715D01*
X147409038Y-83093193D01*
X147427317Y-82987365D01*
X147449680Y-82857898D01*
X147449681Y-82857892D01*
X147450355Y-82853988D01*
X147451676Y-82824899D01*
X147451676Y-82804000D01*
X161900496Y-82804000D01*
X161920458Y-82993928D01*
X161979473Y-83175556D01*
X162074960Y-83340944D01*
X162079378Y-83345851D01*
X162079379Y-83345852D01*
X162086299Y-83353537D01*
X162202747Y-83482866D01*
X162357248Y-83595118D01*
X162363276Y-83597802D01*
X162363278Y-83597803D01*
X162525681Y-83670109D01*
X162531712Y-83672794D01*
X162593418Y-83685910D01*
X162712056Y-83711128D01*
X162712061Y-83711128D01*
X162718513Y-83712500D01*
X162909487Y-83712500D01*
X162915939Y-83711128D01*
X162915944Y-83711128D01*
X163034582Y-83685910D01*
X163096288Y-83672794D01*
X163102319Y-83670109D01*
X163264722Y-83597803D01*
X163264724Y-83597802D01*
X163270752Y-83595118D01*
X163425253Y-83482866D01*
X163541701Y-83353537D01*
X163548621Y-83345852D01*
X163548622Y-83345851D01*
X163553040Y-83340944D01*
X163648527Y-83175556D01*
X163707542Y-82993928D01*
X163727504Y-82804000D01*
X163707542Y-82614072D01*
X163648527Y-82432444D01*
X163593381Y-82336928D01*
X163576500Y-82273929D01*
X163576500Y-79270071D01*
X163593381Y-79207071D01*
X163645223Y-79117279D01*
X163645224Y-79117278D01*
X163648527Y-79111556D01*
X163707542Y-78929928D01*
X163719574Y-78815455D01*
X163726814Y-78746565D01*
X163727504Y-78740000D01*
X163714026Y-78611767D01*
X163708232Y-78556635D01*
X163708232Y-78556633D01*
X163707542Y-78550072D01*
X163648527Y-78368444D01*
X163640750Y-78354973D01*
X163556341Y-78208774D01*
X163553040Y-78203056D01*
X163535561Y-78183643D01*
X163429675Y-78066045D01*
X163429674Y-78066044D01*
X163425253Y-78061134D01*
X163270752Y-77948882D01*
X163264724Y-77946198D01*
X163264722Y-77946197D01*
X163102319Y-77873891D01*
X163102318Y-77873891D01*
X163096288Y-77871206D01*
X163002888Y-77851353D01*
X162915944Y-77832872D01*
X162915939Y-77832872D01*
X162909487Y-77831500D01*
X162718513Y-77831500D01*
X162712061Y-77832872D01*
X162712056Y-77832872D01*
X162625112Y-77851353D01*
X162531712Y-77871206D01*
X162525682Y-77873891D01*
X162525681Y-77873891D01*
X162363278Y-77946197D01*
X162363276Y-77946198D01*
X162357248Y-77948882D01*
X162202747Y-78061134D01*
X162198326Y-78066044D01*
X162198325Y-78066045D01*
X162092440Y-78183643D01*
X162074960Y-78203056D01*
X162071659Y-78208774D01*
X161987251Y-78354973D01*
X161979473Y-78368444D01*
X161920458Y-78550072D01*
X161919768Y-78556633D01*
X161919768Y-78556635D01*
X161913974Y-78611767D01*
X161900496Y-78740000D01*
X161901186Y-78746565D01*
X161908427Y-78815455D01*
X161920458Y-78929928D01*
X161979473Y-79111556D01*
X161982776Y-79117278D01*
X161982777Y-79117279D01*
X162034619Y-79207071D01*
X162051500Y-79270071D01*
X162051500Y-82273929D01*
X162034619Y-82336928D01*
X161979473Y-82432444D01*
X161920458Y-82614072D01*
X161900496Y-82804000D01*
X147451676Y-82804000D01*
X147451676Y-82007310D01*
X149614676Y-82007310D01*
X149621431Y-82069492D01*
X149672561Y-82205881D01*
X149759915Y-82322437D01*
X149876471Y-82409791D01*
X150012860Y-82460921D01*
X150075042Y-82467676D01*
X151971310Y-82467676D01*
X152033492Y-82460921D01*
X152169881Y-82409791D01*
X152286437Y-82322437D01*
X152373791Y-82205881D01*
X152424921Y-82069492D01*
X152431676Y-82007310D01*
X152431676Y-81036705D01*
X155240775Y-81036705D01*
X155259405Y-81273416D01*
X155260559Y-81278223D01*
X155260560Y-81278229D01*
X155290541Y-81403106D01*
X155314835Y-81504299D01*
X155405700Y-81723668D01*
X155408286Y-81727888D01*
X155527181Y-81921907D01*
X155527185Y-81921913D01*
X155529764Y-81926121D01*
X155683971Y-82106674D01*
X155864524Y-82260881D01*
X155868732Y-82263460D01*
X155868738Y-82263464D01*
X155988622Y-82336929D01*
X156066977Y-82384945D01*
X156071547Y-82386838D01*
X156071551Y-82386840D01*
X156281773Y-82473916D01*
X156286346Y-82475810D01*
X156366549Y-82495065D01*
X156512416Y-82530085D01*
X156512422Y-82530086D01*
X156517229Y-82531240D01*
X156753940Y-82549870D01*
X156990651Y-82531240D01*
X156995458Y-82530086D01*
X156995464Y-82530085D01*
X157141331Y-82495065D01*
X157221534Y-82475810D01*
X157226107Y-82473916D01*
X157436329Y-82386840D01*
X157436333Y-82386838D01*
X157440903Y-82384945D01*
X157519258Y-82336929D01*
X157639142Y-82263464D01*
X157639148Y-82263460D01*
X157643356Y-82260881D01*
X157823909Y-82106674D01*
X157978116Y-81926121D01*
X157980695Y-81921913D01*
X157980699Y-81921907D01*
X158099594Y-81727888D01*
X158102180Y-81723668D01*
X158193045Y-81504299D01*
X158217339Y-81403106D01*
X158247320Y-81278229D01*
X158247321Y-81278223D01*
X158248475Y-81273416D01*
X158267105Y-81036705D01*
X158248475Y-80799994D01*
X158240521Y-80766860D01*
X158194200Y-80573923D01*
X158193045Y-80569111D01*
X158143221Y-80448824D01*
X158104075Y-80354316D01*
X158104073Y-80354312D01*
X158102180Y-80349742D01*
X158037264Y-80243809D01*
X157980699Y-80151503D01*
X157980695Y-80151497D01*
X157978116Y-80147289D01*
X157823909Y-79966736D01*
X157643356Y-79812529D01*
X157639148Y-79809950D01*
X157639142Y-79809946D01*
X157445123Y-79691051D01*
X157440903Y-79688465D01*
X157436333Y-79686572D01*
X157436329Y-79686570D01*
X157226107Y-79599494D01*
X157226105Y-79599493D01*
X157221534Y-79597600D01*
X157131430Y-79575968D01*
X156995464Y-79543325D01*
X156995458Y-79543324D01*
X156990651Y-79542170D01*
X156753940Y-79523540D01*
X156517229Y-79542170D01*
X156512422Y-79543324D01*
X156512416Y-79543325D01*
X156376450Y-79575968D01*
X156286346Y-79597600D01*
X156281775Y-79599493D01*
X156281773Y-79599494D01*
X156071551Y-79686570D01*
X156071547Y-79686572D01*
X156066977Y-79688465D01*
X156062757Y-79691051D01*
X155868738Y-79809946D01*
X155868732Y-79809950D01*
X155864524Y-79812529D01*
X155683971Y-79966736D01*
X155529764Y-80147289D01*
X155527185Y-80151497D01*
X155527181Y-80151503D01*
X155470616Y-80243809D01*
X155405700Y-80349742D01*
X155403807Y-80354312D01*
X155403805Y-80354316D01*
X155364659Y-80448824D01*
X155314835Y-80569111D01*
X155313680Y-80573923D01*
X155267360Y-80766860D01*
X155259405Y-80799994D01*
X155241248Y-81030700D01*
X155240775Y-81036705D01*
X152431676Y-81036705D01*
X152431676Y-80111042D01*
X152424921Y-80048860D01*
X152373791Y-79912471D01*
X152286437Y-79795915D01*
X152169881Y-79708561D01*
X152033492Y-79657431D01*
X151971310Y-79650676D01*
X150075042Y-79650676D01*
X150012860Y-79657431D01*
X149876471Y-79708561D01*
X149759915Y-79795915D01*
X149672561Y-79912471D01*
X149621431Y-80048860D01*
X149614676Y-80111042D01*
X149614676Y-82007310D01*
X147451676Y-82007310D01*
X147451676Y-80998175D01*
X147451474Y-80995662D01*
X147437522Y-80822252D01*
X147437521Y-80822247D01*
X147437116Y-80817211D01*
X147425987Y-80771899D01*
X147380420Y-80586384D01*
X147379213Y-80581470D01*
X147376010Y-80573923D01*
X147286341Y-80362678D01*
X147284364Y-80358020D01*
X147155009Y-80152609D01*
X147070469Y-80056716D01*
X146997826Y-79974318D01*
X146997823Y-79974315D01*
X146994478Y-79970521D01*
X146985965Y-79963528D01*
X146810804Y-79819650D01*
X146810801Y-79819648D01*
X146806898Y-79816442D01*
X146669299Y-79736357D01*
X146601466Y-79696877D01*
X146601464Y-79696876D01*
X146597098Y-79694335D01*
X146576869Y-79686570D01*
X146375198Y-79609156D01*
X146375194Y-79609155D01*
X146370474Y-79607343D01*
X146365524Y-79606309D01*
X146365521Y-79606308D01*
X146137807Y-79558736D01*
X146137803Y-79558736D01*
X146132856Y-79557702D01*
X145890359Y-79546690D01*
X145885339Y-79547271D01*
X145885335Y-79547271D01*
X145654247Y-79574009D01*
X145654243Y-79574010D01*
X145649220Y-79574591D01*
X145644356Y-79575967D01*
X145644353Y-79575968D01*
X145428807Y-79636961D01*
X145357814Y-79636262D01*
X145298468Y-79597292D01*
X145269612Y-79532425D01*
X145268500Y-79515721D01*
X145268500Y-79308646D01*
X145266574Y-79282729D01*
X145254407Y-79119000D01*
X145254406Y-79118996D01*
X145254061Y-79114348D01*
X145252008Y-79105271D01*
X145197408Y-78863980D01*
X145196377Y-78859423D01*
X145177603Y-78811146D01*
X145103340Y-78620176D01*
X145103339Y-78620173D01*
X145101647Y-78615823D01*
X144971951Y-78388902D01*
X144810138Y-78183643D01*
X144619763Y-78004557D01*
X144431410Y-77873891D01*
X144408851Y-77858241D01*
X144408848Y-77858239D01*
X144405009Y-77855576D01*
X144400816Y-77853508D01*
X144174781Y-77742040D01*
X144174778Y-77742039D01*
X144170593Y-77739975D01*
X144124449Y-77725204D01*
X143926123Y-77661720D01*
X143921665Y-77660293D01*
X143663693Y-77618279D01*
X143549942Y-77616790D01*
X143407022Y-77614919D01*
X143407019Y-77614919D01*
X143402345Y-77614858D01*
X143143362Y-77650104D01*
X142892433Y-77723243D01*
X142888180Y-77725203D01*
X142888179Y-77725204D01*
X142851659Y-77742040D01*
X142655072Y-77832668D01*
X142616067Y-77858241D01*
X142440404Y-77973410D01*
X142440399Y-77973414D01*
X142436491Y-77975976D01*
X142241494Y-78150018D01*
X142074363Y-78350970D01*
X142071934Y-78354973D01*
X141949563Y-78556635D01*
X141938771Y-78574419D01*
X141837697Y-78815455D01*
X141773359Y-79068783D01*
X141751500Y-79285867D01*
X141751500Y-79611639D01*
X141731498Y-79679760D01*
X141677842Y-79726253D01*
X141607568Y-79736357D01*
X141562119Y-79720537D01*
X141521476Y-79696882D01*
X141521466Y-79696877D01*
X141517098Y-79694335D01*
X141496869Y-79686570D01*
X141295198Y-79609156D01*
X141295194Y-79609155D01*
X141290474Y-79607343D01*
X141285524Y-79606309D01*
X141285521Y-79606308D01*
X141057807Y-79558736D01*
X141057803Y-79558736D01*
X141052856Y-79557702D01*
X140810359Y-79546690D01*
X140805339Y-79547271D01*
X140805335Y-79547271D01*
X140574247Y-79574009D01*
X140574243Y-79574010D01*
X140569220Y-79574591D01*
X140564356Y-79575967D01*
X140564353Y-79575968D01*
X140491989Y-79596445D01*
X140335644Y-79640686D01*
X140331068Y-79642820D01*
X140331062Y-79642822D01*
X140120222Y-79741138D01*
X140120218Y-79741140D01*
X140115640Y-79743275D01*
X139914869Y-79879720D01*
X139738495Y-80046508D01*
X139735417Y-80050534D01*
X139735416Y-80050535D01*
X139594129Y-80235330D01*
X139594126Y-80235334D01*
X139591056Y-80239350D01*
X139476345Y-80453285D01*
X139397314Y-80682807D01*
X139396452Y-80687799D01*
X139360014Y-80898757D01*
X139355997Y-80922012D01*
X139354676Y-80951101D01*
X139354676Y-82504177D01*
X135513377Y-82504177D01*
X135551331Y-82495065D01*
X135631534Y-82475810D01*
X135636107Y-82473916D01*
X135846329Y-82386840D01*
X135846333Y-82386838D01*
X135850903Y-82384945D01*
X135929258Y-82336929D01*
X136049142Y-82263464D01*
X136049148Y-82263460D01*
X136053356Y-82260881D01*
X136233909Y-82106674D01*
X136388116Y-81926121D01*
X136390695Y-81921913D01*
X136390699Y-81921907D01*
X136509594Y-81727888D01*
X136512180Y-81723668D01*
X136603045Y-81504299D01*
X136627339Y-81403106D01*
X136657320Y-81278229D01*
X136657321Y-81278223D01*
X136658475Y-81273416D01*
X136677105Y-81036705D01*
X136658475Y-80799994D01*
X136650521Y-80766860D01*
X136604200Y-80573923D01*
X136603045Y-80569111D01*
X136553221Y-80448824D01*
X136514075Y-80354316D01*
X136514073Y-80354312D01*
X136512180Y-80349742D01*
X136447264Y-80243809D01*
X136390699Y-80151503D01*
X136390695Y-80151497D01*
X136388116Y-80147289D01*
X136233909Y-79966736D01*
X136053356Y-79812529D01*
X136049148Y-79809950D01*
X136049142Y-79809946D01*
X135855123Y-79691051D01*
X135850903Y-79688465D01*
X135846333Y-79686572D01*
X135846329Y-79686570D01*
X135636107Y-79599494D01*
X135636105Y-79599493D01*
X135631534Y-79597600D01*
X135541430Y-79575968D01*
X135405464Y-79543325D01*
X135405458Y-79543324D01*
X135400651Y-79542170D01*
X135163940Y-79523540D01*
X134927229Y-79542170D01*
X134922422Y-79543324D01*
X134922416Y-79543325D01*
X134786450Y-79575968D01*
X134696346Y-79597600D01*
X134691775Y-79599493D01*
X134691773Y-79599494D01*
X134481551Y-79686570D01*
X134481547Y-79686572D01*
X134476977Y-79688465D01*
X134472757Y-79691051D01*
X134278738Y-79809946D01*
X134278732Y-79809950D01*
X134274524Y-79812529D01*
X134093971Y-79966736D01*
X133939764Y-80147289D01*
X133937185Y-80151497D01*
X133937181Y-80151503D01*
X133880616Y-80243809D01*
X133815700Y-80349742D01*
X133813807Y-80354312D01*
X133813805Y-80354316D01*
X133774659Y-80448824D01*
X133724835Y-80569111D01*
X133723680Y-80573923D01*
X133677360Y-80766860D01*
X133669405Y-80799994D01*
X133651248Y-81030700D01*
X133650775Y-81036705D01*
X119380000Y-81036705D01*
X119380000Y-70876705D01*
X133650775Y-70876705D01*
X133669405Y-71113416D01*
X133670559Y-71118223D01*
X133670560Y-71118229D01*
X133700541Y-71243106D01*
X133724835Y-71344299D01*
X133815700Y-71563668D01*
X133818286Y-71567888D01*
X133937181Y-71761907D01*
X133937185Y-71761913D01*
X133939764Y-71766121D01*
X134093971Y-71946674D01*
X134274524Y-72100881D01*
X134278732Y-72103460D01*
X134278738Y-72103464D01*
X134472757Y-72222359D01*
X134476977Y-72224945D01*
X134481547Y-72226838D01*
X134481551Y-72226840D01*
X134691773Y-72313916D01*
X134696346Y-72315810D01*
X134776549Y-72335065D01*
X134922416Y-72370085D01*
X134922422Y-72370086D01*
X134927229Y-72371240D01*
X135163940Y-72389870D01*
X135400651Y-72371240D01*
X135405458Y-72370086D01*
X135405464Y-72370085D01*
X135513869Y-72344059D01*
X139354558Y-72344059D01*
X139354760Y-72346567D01*
X139354760Y-72346572D01*
X139358213Y-72389482D01*
X139369118Y-72525023D01*
X139370324Y-72529931D01*
X139370324Y-72529934D01*
X139403852Y-72666436D01*
X139427021Y-72760764D01*
X139521870Y-72984214D01*
X139651225Y-73189625D01*
X139654570Y-73193419D01*
X139808408Y-73367916D01*
X139808411Y-73367919D01*
X139811756Y-73371713D01*
X139999336Y-73525792D01*
X140209136Y-73647899D01*
X140213859Y-73649712D01*
X140431036Y-73733078D01*
X140431040Y-73733079D01*
X140435760Y-73734891D01*
X140440710Y-73735925D01*
X140440713Y-73735926D01*
X140668427Y-73783498D01*
X140668431Y-73783498D01*
X140673378Y-73784532D01*
X140749840Y-73788004D01*
X140753930Y-73788190D01*
X140821073Y-73811261D01*
X140837309Y-73824965D01*
X141194595Y-74182251D01*
X141228621Y-74244563D01*
X141231500Y-74271345D01*
X141231500Y-74458134D01*
X141238255Y-74520316D01*
X141289385Y-74656705D01*
X141376739Y-74773261D01*
X141493295Y-74860615D01*
X141629684Y-74911745D01*
X141691866Y-74918500D01*
X142788134Y-74918500D01*
X142850316Y-74911745D01*
X142857715Y-74908971D01*
X142860854Y-74908225D01*
X142919146Y-74908225D01*
X142922285Y-74908971D01*
X142929684Y-74911745D01*
X142991866Y-74918500D01*
X144088134Y-74918500D01*
X144150316Y-74911745D01*
X144157715Y-74908971D01*
X144160854Y-74908225D01*
X144219146Y-74908225D01*
X144222285Y-74908971D01*
X144229684Y-74911745D01*
X144291866Y-74918500D01*
X145388134Y-74918500D01*
X145450316Y-74911745D01*
X145586705Y-74860615D01*
X145703261Y-74773261D01*
X145790615Y-74656705D01*
X145841745Y-74520316D01*
X145848500Y-74458134D01*
X145848500Y-74271345D01*
X145868502Y-74203224D01*
X145885405Y-74182250D01*
X145967508Y-74100147D01*
X146029820Y-74066121D01*
X146042121Y-74064077D01*
X146231987Y-74042109D01*
X146231991Y-74042108D01*
X146237014Y-74041527D01*
X146241878Y-74040151D01*
X146241881Y-74040150D01*
X146465727Y-73976808D01*
X146465726Y-73976808D01*
X146470590Y-73975432D01*
X146475166Y-73973298D01*
X146475172Y-73973296D01*
X146686012Y-73874980D01*
X146686016Y-73874978D01*
X146690594Y-73872843D01*
X146891365Y-73736398D01*
X147067739Y-73569610D01*
X147099297Y-73528334D01*
X147212105Y-73380788D01*
X147212108Y-73380784D01*
X147215178Y-73376768D01*
X147217889Y-73371713D01*
X147327497Y-73167294D01*
X147329889Y-73162833D01*
X147408920Y-72933311D01*
X147437919Y-72765420D01*
X147449562Y-72698016D01*
X147449563Y-72698010D01*
X147450237Y-72694106D01*
X147451558Y-72665017D01*
X147451558Y-71837075D01*
X149614558Y-71837075D01*
X149621313Y-71899257D01*
X149672443Y-72035646D01*
X149759797Y-72152202D01*
X149876353Y-72239556D01*
X150012742Y-72290686D01*
X150074924Y-72297441D01*
X151971192Y-72297441D01*
X152033374Y-72290686D01*
X152169763Y-72239556D01*
X152286319Y-72152202D01*
X152373673Y-72035646D01*
X152424803Y-71899257D01*
X152431558Y-71837075D01*
X152431558Y-70876705D01*
X155240775Y-70876705D01*
X155259405Y-71113416D01*
X155260559Y-71118223D01*
X155260560Y-71118229D01*
X155290541Y-71243106D01*
X155314835Y-71344299D01*
X155405700Y-71563668D01*
X155408286Y-71567888D01*
X155527181Y-71761907D01*
X155527185Y-71761913D01*
X155529764Y-71766121D01*
X155683971Y-71946674D01*
X155864524Y-72100881D01*
X155868732Y-72103460D01*
X155868738Y-72103464D01*
X156062757Y-72222359D01*
X156066977Y-72224945D01*
X156071547Y-72226838D01*
X156071551Y-72226840D01*
X156281773Y-72313916D01*
X156286346Y-72315810D01*
X156366549Y-72335065D01*
X156512416Y-72370085D01*
X156512422Y-72370086D01*
X156517229Y-72371240D01*
X156753940Y-72389870D01*
X156990651Y-72371240D01*
X156995458Y-72370086D01*
X156995464Y-72370085D01*
X157141331Y-72335065D01*
X157221534Y-72315810D01*
X157226107Y-72313916D01*
X157436329Y-72226840D01*
X157436333Y-72226838D01*
X157440903Y-72224945D01*
X157445123Y-72222359D01*
X157639142Y-72103464D01*
X157639148Y-72103460D01*
X157643356Y-72100881D01*
X157823909Y-71946674D01*
X157978116Y-71766121D01*
X157980695Y-71761913D01*
X157980699Y-71761907D01*
X158099594Y-71567888D01*
X158102180Y-71563668D01*
X158193045Y-71344299D01*
X158217339Y-71243106D01*
X158247320Y-71118229D01*
X158247321Y-71118223D01*
X158248475Y-71113416D01*
X158267105Y-70876705D01*
X158248475Y-70639994D01*
X158240521Y-70606860D01*
X158197591Y-70428047D01*
X158193045Y-70409111D01*
X158140829Y-70283050D01*
X158104075Y-70194316D01*
X158104073Y-70194312D01*
X158102180Y-70189742D01*
X158099594Y-70185522D01*
X157980699Y-69991503D01*
X157980695Y-69991497D01*
X157978116Y-69987289D01*
X157823909Y-69806736D01*
X157643356Y-69652529D01*
X157639148Y-69649950D01*
X157639142Y-69649946D01*
X157445123Y-69531051D01*
X157440903Y-69528465D01*
X157436333Y-69526572D01*
X157436329Y-69526570D01*
X157226107Y-69439494D01*
X157226105Y-69439493D01*
X157221534Y-69437600D01*
X157141331Y-69418345D01*
X156995464Y-69383325D01*
X156995458Y-69383324D01*
X156990651Y-69382170D01*
X156753940Y-69363540D01*
X156517229Y-69382170D01*
X156512422Y-69383324D01*
X156512416Y-69383325D01*
X156366549Y-69418345D01*
X156286346Y-69437600D01*
X156281775Y-69439493D01*
X156281773Y-69439494D01*
X156071551Y-69526570D01*
X156071547Y-69526572D01*
X156066977Y-69528465D01*
X156062757Y-69531051D01*
X155868738Y-69649946D01*
X155868732Y-69649950D01*
X155864524Y-69652529D01*
X155683971Y-69806736D01*
X155529764Y-69987289D01*
X155527185Y-69991497D01*
X155527181Y-69991503D01*
X155408286Y-70185522D01*
X155405700Y-70189742D01*
X155403807Y-70194312D01*
X155403805Y-70194316D01*
X155367051Y-70283050D01*
X155314835Y-70409111D01*
X155310289Y-70428047D01*
X155267360Y-70606860D01*
X155259405Y-70639994D01*
X155241248Y-70870700D01*
X155240775Y-70876705D01*
X152431558Y-70876705D01*
X152431558Y-69940807D01*
X152424803Y-69878625D01*
X152373673Y-69742236D01*
X152286319Y-69625680D01*
X152169763Y-69538326D01*
X152033374Y-69487196D01*
X151971192Y-69480441D01*
X150074924Y-69480441D01*
X150012742Y-69487196D01*
X149876353Y-69538326D01*
X149759797Y-69625680D01*
X149672443Y-69742236D01*
X149621313Y-69878625D01*
X149614558Y-69940807D01*
X149614558Y-71837075D01*
X147451558Y-71837075D01*
X147451558Y-70827940D01*
X147451356Y-70825427D01*
X147437404Y-70652017D01*
X147437403Y-70652012D01*
X147436998Y-70646976D01*
X147428383Y-70611899D01*
X147380302Y-70416149D01*
X147379095Y-70411235D01*
X147376253Y-70404538D01*
X147286223Y-70192443D01*
X147284246Y-70187785D01*
X147160640Y-69991503D01*
X147157586Y-69986653D01*
X147157584Y-69986650D01*
X147154891Y-69982374D01*
X147070351Y-69886481D01*
X146997708Y-69804083D01*
X146997705Y-69804080D01*
X146994360Y-69800286D01*
X146976379Y-69785516D01*
X146810686Y-69649415D01*
X146810683Y-69649413D01*
X146806780Y-69646207D01*
X146596980Y-69524100D01*
X146592257Y-69522287D01*
X146375080Y-69438921D01*
X146375076Y-69438920D01*
X146370356Y-69437108D01*
X146365406Y-69436074D01*
X146365403Y-69436073D01*
X146137689Y-69388501D01*
X146137685Y-69388501D01*
X146132738Y-69387467D01*
X145890241Y-69376455D01*
X145885221Y-69377036D01*
X145885217Y-69377036D01*
X145654129Y-69403774D01*
X145654125Y-69403775D01*
X145649102Y-69404356D01*
X145644238Y-69405732D01*
X145644235Y-69405733D01*
X145526951Y-69438921D01*
X145415526Y-69470451D01*
X145410950Y-69472585D01*
X145410944Y-69472587D01*
X145200104Y-69570903D01*
X145200100Y-69570905D01*
X145195522Y-69573040D01*
X145191341Y-69575882D01*
X145191333Y-69575886D01*
X145177653Y-69585183D01*
X145110069Y-69606929D01*
X145041457Y-69588685D01*
X144997439Y-69543495D01*
X144974273Y-69502964D01*
X144974271Y-69502960D01*
X144971951Y-69498902D01*
X144810138Y-69293643D01*
X144619763Y-69114557D01*
X144405009Y-68965576D01*
X144400816Y-68963508D01*
X144174781Y-68852040D01*
X144174778Y-68852039D01*
X144170593Y-68849975D01*
X144124449Y-68835204D01*
X143926123Y-68771720D01*
X143921665Y-68770293D01*
X143663693Y-68728279D01*
X143549942Y-68726790D01*
X143407022Y-68724919D01*
X143407019Y-68724919D01*
X143402345Y-68724858D01*
X143143362Y-68760104D01*
X142892433Y-68833243D01*
X142888180Y-68835203D01*
X142888179Y-68835204D01*
X142851659Y-68852040D01*
X142655072Y-68942668D01*
X142616067Y-68968241D01*
X142440404Y-69083410D01*
X142440399Y-69083414D01*
X142436491Y-69085976D01*
X142241494Y-69260018D01*
X142074363Y-69460970D01*
X141959690Y-69649946D01*
X141959122Y-69650882D01*
X141906683Y-69698742D01*
X141836692Y-69710654D01*
X141771427Y-69682880D01*
X141734477Y-69652529D01*
X141730687Y-69649416D01*
X141730685Y-69649415D01*
X141726780Y-69646207D01*
X141516980Y-69524100D01*
X141512257Y-69522287D01*
X141295080Y-69438921D01*
X141295076Y-69438920D01*
X141290356Y-69437108D01*
X141285406Y-69436074D01*
X141285403Y-69436073D01*
X141057689Y-69388501D01*
X141057685Y-69388501D01*
X141052738Y-69387467D01*
X140810241Y-69376455D01*
X140805221Y-69377036D01*
X140805217Y-69377036D01*
X140574129Y-69403774D01*
X140574125Y-69403775D01*
X140569102Y-69404356D01*
X140564238Y-69405732D01*
X140564235Y-69405733D01*
X140446951Y-69438921D01*
X140335526Y-69470451D01*
X140330950Y-69472585D01*
X140330944Y-69472587D01*
X140120104Y-69570903D01*
X140120100Y-69570905D01*
X140115522Y-69573040D01*
X139914751Y-69709485D01*
X139738377Y-69876273D01*
X139735299Y-69880299D01*
X139735298Y-69880300D01*
X139594011Y-70065095D01*
X139594008Y-70065099D01*
X139590938Y-70069115D01*
X139476227Y-70283050D01*
X139397196Y-70512572D01*
X139396334Y-70517564D01*
X139359122Y-70733004D01*
X139355879Y-70751777D01*
X139354558Y-70780866D01*
X139354558Y-72344059D01*
X135513869Y-72344059D01*
X135551331Y-72335065D01*
X135631534Y-72315810D01*
X135636107Y-72313916D01*
X135846329Y-72226840D01*
X135846333Y-72226838D01*
X135850903Y-72224945D01*
X135855123Y-72222359D01*
X136049142Y-72103464D01*
X136049148Y-72103460D01*
X136053356Y-72100881D01*
X136233909Y-71946674D01*
X136388116Y-71766121D01*
X136390695Y-71761913D01*
X136390699Y-71761907D01*
X136509594Y-71567888D01*
X136512180Y-71563668D01*
X136603045Y-71344299D01*
X136627339Y-71243106D01*
X136657320Y-71118229D01*
X136657321Y-71118223D01*
X136658475Y-71113416D01*
X136677105Y-70876705D01*
X136658475Y-70639994D01*
X136650521Y-70606860D01*
X136607591Y-70428047D01*
X136603045Y-70409111D01*
X136550829Y-70283050D01*
X136514075Y-70194316D01*
X136514073Y-70194312D01*
X136512180Y-70189742D01*
X136509594Y-70185522D01*
X136390699Y-69991503D01*
X136390695Y-69991497D01*
X136388116Y-69987289D01*
X136233909Y-69806736D01*
X136053356Y-69652529D01*
X136049148Y-69649950D01*
X136049142Y-69649946D01*
X135855123Y-69531051D01*
X135850903Y-69528465D01*
X135846333Y-69526572D01*
X135846329Y-69526570D01*
X135636107Y-69439494D01*
X135636105Y-69439493D01*
X135631534Y-69437600D01*
X135551331Y-69418345D01*
X135405464Y-69383325D01*
X135405458Y-69383324D01*
X135400651Y-69382170D01*
X135163940Y-69363540D01*
X134927229Y-69382170D01*
X134922422Y-69383324D01*
X134922416Y-69383325D01*
X134776549Y-69418345D01*
X134696346Y-69437600D01*
X134691775Y-69439493D01*
X134691773Y-69439494D01*
X134481551Y-69526570D01*
X134481547Y-69526572D01*
X134476977Y-69528465D01*
X134472757Y-69531051D01*
X134278738Y-69649946D01*
X134278732Y-69649950D01*
X134274524Y-69652529D01*
X134093971Y-69806736D01*
X133939764Y-69987289D01*
X133937185Y-69991497D01*
X133937181Y-69991503D01*
X133818286Y-70185522D01*
X133815700Y-70189742D01*
X133813807Y-70194312D01*
X133813805Y-70194316D01*
X133777051Y-70283050D01*
X133724835Y-70409111D01*
X133720289Y-70428047D01*
X133677360Y-70606860D01*
X133669405Y-70639994D01*
X133651248Y-70870700D01*
X133650775Y-70876705D01*
X119380000Y-70876705D01*
X119380000Y-67547846D01*
X121081500Y-67547846D01*
X121096548Y-67705566D01*
X121156092Y-67908534D01*
X121158836Y-67913861D01*
X121158836Y-67913862D01*
X121206491Y-68006389D01*
X121252942Y-68096580D01*
X121383604Y-68262920D01*
X121388135Y-68266852D01*
X121388138Y-68266855D01*
X121474058Y-68341412D01*
X121543363Y-68401552D01*
X121548549Y-68404552D01*
X121548553Y-68404555D01*
X121644957Y-68460326D01*
X121726454Y-68507473D01*
X121926271Y-68576861D01*
X121932206Y-68577722D01*
X121932208Y-68577722D01*
X122129664Y-68606352D01*
X122129667Y-68606352D01*
X122135604Y-68607213D01*
X122346899Y-68597433D01*
X122478077Y-68565819D01*
X122546701Y-68549281D01*
X122546703Y-68549280D01*
X122552534Y-68547875D01*
X122557992Y-68545393D01*
X122557996Y-68545392D01*
X122673041Y-68493084D01*
X122745087Y-68460326D01*
X122917611Y-68337946D01*
X122921753Y-68333619D01*
X122921759Y-68333614D01*
X123008806Y-68242683D01*
X123070361Y-68207306D01*
X123141270Y-68210825D01*
X123199021Y-68252121D01*
X123206965Y-68263504D01*
X123241522Y-68319348D01*
X123366697Y-68444305D01*
X123372927Y-68448145D01*
X123372928Y-68448146D01*
X123510090Y-68532694D01*
X123517262Y-68537115D01*
X123542217Y-68545392D01*
X123678611Y-68590632D01*
X123678613Y-68590632D01*
X123685139Y-68592797D01*
X123691975Y-68593497D01*
X123691978Y-68593498D01*
X123730386Y-68597433D01*
X123789600Y-68603500D01*
X124590400Y-68603500D01*
X124593646Y-68603163D01*
X124593650Y-68603163D01*
X124689308Y-68593238D01*
X124689312Y-68593237D01*
X124696166Y-68592526D01*
X124702702Y-68590345D01*
X124702704Y-68590345D01*
X124837443Y-68545392D01*
X124863946Y-68536550D01*
X125014348Y-68443478D01*
X125139305Y-68318303D01*
X125176352Y-68258202D01*
X125228275Y-68173968D01*
X125228276Y-68173966D01*
X125232115Y-68167738D01*
X125287797Y-67999861D01*
X125298500Y-67895400D01*
X125298500Y-66544600D01*
X125287526Y-66438834D01*
X125283749Y-66427511D01*
X125233868Y-66278002D01*
X125231550Y-66271054D01*
X125138478Y-66120652D01*
X125013303Y-65995695D01*
X124910826Y-65932527D01*
X124868968Y-65906725D01*
X124868966Y-65906724D01*
X124862738Y-65902885D01*
X124702254Y-65849655D01*
X124701389Y-65849368D01*
X124701387Y-65849368D01*
X124694861Y-65847203D01*
X124688025Y-65846503D01*
X124688022Y-65846502D01*
X124644969Y-65842091D01*
X124590400Y-65836500D01*
X123789600Y-65836500D01*
X123786354Y-65836837D01*
X123786350Y-65836837D01*
X123690692Y-65846762D01*
X123690688Y-65846763D01*
X123683834Y-65847474D01*
X123677298Y-65849655D01*
X123677296Y-65849655D01*
X123556042Y-65890109D01*
X123516054Y-65903450D01*
X123365652Y-65996522D01*
X123240695Y-66121697D01*
X123236855Y-66127927D01*
X123236854Y-66127928D01*
X123208926Y-66173236D01*
X123156154Y-66220729D01*
X123086082Y-66232153D01*
X123020958Y-66203879D01*
X123002582Y-66184955D01*
X122996396Y-66177080D01*
X122991865Y-66173148D01*
X122991862Y-66173145D01*
X122841167Y-66042379D01*
X122836637Y-66038448D01*
X122831451Y-66035448D01*
X122831447Y-66035445D01*
X122658742Y-65935533D01*
X122653546Y-65932527D01*
X122453729Y-65863139D01*
X122447794Y-65862278D01*
X122447792Y-65862278D01*
X122250336Y-65833648D01*
X122250333Y-65833648D01*
X122244396Y-65832787D01*
X122033101Y-65842567D01*
X121901923Y-65874181D01*
X121833299Y-65890719D01*
X121833297Y-65890720D01*
X121827466Y-65892125D01*
X121822008Y-65894607D01*
X121822004Y-65894608D01*
X121706959Y-65946916D01*
X121634913Y-65979674D01*
X121462389Y-66102054D01*
X121316119Y-66254850D01*
X121201380Y-66432548D01*
X121122314Y-66628737D01*
X121081772Y-66836337D01*
X121081500Y-66841899D01*
X121081500Y-67547846D01*
X119380000Y-67547846D01*
X119380000Y-60716705D01*
X133650775Y-60716705D01*
X133669405Y-60953416D01*
X133670559Y-60958223D01*
X133670560Y-60958229D01*
X133695186Y-61060801D01*
X133724835Y-61184299D01*
X133726728Y-61188870D01*
X133726729Y-61188872D01*
X133800036Y-61365851D01*
X133815700Y-61403668D01*
X133818286Y-61407888D01*
X133937181Y-61601907D01*
X133937185Y-61601913D01*
X133939764Y-61606121D01*
X134004676Y-61682123D01*
X134082110Y-61772786D01*
X134093971Y-61786674D01*
X134274524Y-61940881D01*
X134278732Y-61943460D01*
X134278738Y-61943464D01*
X134439549Y-62042009D01*
X134476977Y-62064945D01*
X134481547Y-62066838D01*
X134481551Y-62066840D01*
X134686201Y-62151608D01*
X134696346Y-62155810D01*
X134776549Y-62175065D01*
X134922416Y-62210085D01*
X134922422Y-62210086D01*
X134927229Y-62211240D01*
X135163940Y-62229870D01*
X135400651Y-62211240D01*
X135405458Y-62210086D01*
X135405464Y-62210085D01*
X135551331Y-62175065D01*
X135631534Y-62155810D01*
X135641679Y-62151608D01*
X135846329Y-62066840D01*
X135846333Y-62066838D01*
X135850903Y-62064945D01*
X135888331Y-62042009D01*
X136049142Y-61943464D01*
X136049148Y-61943460D01*
X136053356Y-61940881D01*
X136233909Y-61786674D01*
X136245771Y-61772786D01*
X136323204Y-61682123D01*
X136388116Y-61606121D01*
X136390695Y-61601913D01*
X136390699Y-61601907D01*
X136509594Y-61407888D01*
X136512180Y-61403668D01*
X136527845Y-61365851D01*
X136601151Y-61188872D01*
X136601152Y-61188870D01*
X136603045Y-61184299D01*
X136632694Y-61060801D01*
X136657320Y-60958229D01*
X136657321Y-60958223D01*
X136658475Y-60953416D01*
X136676221Y-60727939D01*
X139486271Y-60727939D01*
X139486568Y-60733092D01*
X139486568Y-60733095D01*
X139492243Y-60831511D01*
X139499603Y-60959167D01*
X139500740Y-60964213D01*
X139500741Y-60964219D01*
X139527534Y-61083106D01*
X139550522Y-61185112D01*
X139552464Y-61189894D01*
X139552465Y-61189898D01*
X139625675Y-61370192D01*
X139637660Y-61399707D01*
X139666247Y-61446357D01*
X139754087Y-61589698D01*
X139758677Y-61597189D01*
X139910323Y-61772254D01*
X140028925Y-61870719D01*
X140076313Y-61910061D01*
X140088525Y-61920200D01*
X140288498Y-62037054D01*
X140293323Y-62038896D01*
X140293324Y-62038897D01*
X140314834Y-62047111D01*
X140504870Y-62119679D01*
X140509936Y-62120710D01*
X140509937Y-62120710D01*
X140561193Y-62131138D01*
X140731832Y-62165855D01*
X140861265Y-62170601D01*
X140958125Y-62174153D01*
X140958129Y-62174153D01*
X140963289Y-62174342D01*
X140968409Y-62173686D01*
X140968411Y-62173686D01*
X141140755Y-62151608D01*
X141210865Y-62162792D01*
X141245860Y-62187492D01*
X141311634Y-62253266D01*
X141345660Y-62315578D01*
X141340595Y-62386393D01*
X141323365Y-62417926D01*
X141264771Y-62496108D01*
X141264770Y-62496110D01*
X141259385Y-62503295D01*
X141208255Y-62639684D01*
X141201500Y-62701866D01*
X141201500Y-64298134D01*
X141208255Y-64360316D01*
X141259385Y-64496705D01*
X141346739Y-64613261D01*
X141348237Y-64614384D01*
X141380548Y-64673562D01*
X141377259Y-64739276D01*
X141372224Y-64754772D01*
X141346458Y-64834072D01*
X141326496Y-65024000D01*
X141346458Y-65213928D01*
X141405473Y-65395556D01*
X141500960Y-65560944D01*
X141628747Y-65702866D01*
X141783248Y-65815118D01*
X141789276Y-65817802D01*
X141789278Y-65817803D01*
X141891105Y-65863139D01*
X141957712Y-65892794D01*
X142051112Y-65912647D01*
X142138056Y-65931128D01*
X142138061Y-65931128D01*
X142144513Y-65932500D01*
X142335487Y-65932500D01*
X142341939Y-65931128D01*
X142341944Y-65931128D01*
X142428888Y-65912647D01*
X142522288Y-65892794D01*
X142588895Y-65863139D01*
X142690722Y-65817803D01*
X142690724Y-65817802D01*
X142696752Y-65815118D01*
X142702093Y-65811237D01*
X142707811Y-65807936D01*
X142708374Y-65808912D01*
X142765945Y-65787585D01*
X142774202Y-65786913D01*
X142784399Y-65786500D01*
X142792525Y-65786500D01*
X142796161Y-65786076D01*
X142796163Y-65786076D01*
X142799615Y-65785673D01*
X142820924Y-65783189D01*
X142825244Y-65782762D01*
X142898426Y-65776809D01*
X142905388Y-65774553D01*
X142911376Y-65773357D01*
X142917333Y-65771949D01*
X142924607Y-65771101D01*
X142931489Y-65768603D01*
X142931493Y-65768602D01*
X142993607Y-65746055D01*
X142997711Y-65744645D01*
X143067575Y-65722013D01*
X143073838Y-65718213D01*
X143079380Y-65715675D01*
X143084856Y-65712933D01*
X143091741Y-65710434D01*
X143153132Y-65670185D01*
X143156800Y-65667870D01*
X143219581Y-65629773D01*
X143223786Y-65626059D01*
X143223789Y-65626057D01*
X143228005Y-65622333D01*
X143228031Y-65622362D01*
X143230962Y-65619762D01*
X143234316Y-65616958D01*
X143240435Y-65612946D01*
X143293989Y-65556413D01*
X143296366Y-65553972D01*
X144001528Y-64848810D01*
X144015941Y-64836423D01*
X144027665Y-64827795D01*
X144033564Y-64823454D01*
X144062304Y-64789625D01*
X144119941Y-64751786D01*
X144120316Y-64751745D01*
X144127248Y-64749146D01*
X144129150Y-64748631D01*
X144130822Y-64748233D01*
X144189146Y-64748225D01*
X144192285Y-64748971D01*
X144199684Y-64751745D01*
X144261866Y-64758500D01*
X145358134Y-64758500D01*
X145420316Y-64751745D01*
X145556705Y-64700615D01*
X145673261Y-64613261D01*
X145760615Y-64496705D01*
X145811745Y-64360316D01*
X145818500Y-64298134D01*
X145818500Y-62701866D01*
X145811745Y-62639684D01*
X145760615Y-62503295D01*
X145673261Y-62386739D01*
X145665391Y-62380840D01*
X145664878Y-62380155D01*
X145659731Y-62375008D01*
X145660474Y-62374265D01*
X145622877Y-62323980D01*
X145617853Y-62253162D01*
X145651914Y-62190869D01*
X145714246Y-62156880D01*
X145766077Y-62156546D01*
X145790137Y-62161441D01*
X145806759Y-62164823D01*
X145806760Y-62164823D01*
X145811832Y-62165855D01*
X145817007Y-62166045D01*
X145817009Y-62166045D01*
X146038125Y-62174153D01*
X146038129Y-62174153D01*
X146043289Y-62174342D01*
X146048409Y-62173686D01*
X146048411Y-62173686D01*
X146122342Y-62164215D01*
X146273023Y-62144912D01*
X146277971Y-62143427D01*
X146277978Y-62143426D01*
X146489923Y-62079839D01*
X146494866Y-62078356D01*
X146499500Y-62076086D01*
X146698225Y-61978732D01*
X146698228Y-61978730D01*
X146702860Y-61976461D01*
X146891419Y-61841964D01*
X147023238Y-61710604D01*
X149650676Y-61710604D01*
X149657431Y-61772786D01*
X149708561Y-61909175D01*
X149795915Y-62025731D01*
X149912471Y-62113085D01*
X150048860Y-62164215D01*
X150111042Y-62170970D01*
X150170676Y-62170970D01*
X150238797Y-62190972D01*
X150285290Y-62244628D01*
X150296676Y-62296970D01*
X150296676Y-62469785D01*
X150290509Y-62508721D01*
X150236458Y-62675072D01*
X150216496Y-62865000D01*
X150236458Y-63054928D01*
X150295473Y-63236556D01*
X150390960Y-63401944D01*
X150518747Y-63543866D01*
X150673248Y-63656118D01*
X150679276Y-63658802D01*
X150679278Y-63658803D01*
X150841681Y-63731109D01*
X150847712Y-63733794D01*
X150941113Y-63753647D01*
X151028056Y-63772128D01*
X151028061Y-63772128D01*
X151034513Y-63773500D01*
X151225487Y-63773500D01*
X151231939Y-63772128D01*
X151231944Y-63772128D01*
X151318887Y-63753647D01*
X151412288Y-63733794D01*
X151418319Y-63731109D01*
X151580722Y-63658803D01*
X151580724Y-63658802D01*
X151586752Y-63656118D01*
X151741253Y-63543866D01*
X151869040Y-63401944D01*
X151964527Y-63236556D01*
X152023542Y-63054928D01*
X152043504Y-62865000D01*
X152023542Y-62675072D01*
X151964527Y-62493444D01*
X151961223Y-62487721D01*
X151887466Y-62359970D01*
X151870728Y-62290975D01*
X151893949Y-62223883D01*
X151949756Y-62179996D01*
X151996585Y-62170970D01*
X152007310Y-62170970D01*
X152069492Y-62164215D01*
X152205881Y-62113085D01*
X152322437Y-62025731D01*
X152409791Y-61909175D01*
X152460921Y-61772786D01*
X152467676Y-61710604D01*
X152467676Y-60716705D01*
X155240775Y-60716705D01*
X155259405Y-60953416D01*
X155260559Y-60958223D01*
X155260560Y-60958229D01*
X155285186Y-61060801D01*
X155314835Y-61184299D01*
X155316728Y-61188870D01*
X155316729Y-61188872D01*
X155390036Y-61365851D01*
X155405700Y-61403668D01*
X155408286Y-61407888D01*
X155527181Y-61601907D01*
X155527185Y-61601913D01*
X155529764Y-61606121D01*
X155594676Y-61682123D01*
X155672110Y-61772786D01*
X155683971Y-61786674D01*
X155864524Y-61940881D01*
X155868732Y-61943460D01*
X155868738Y-61943464D01*
X156029549Y-62042009D01*
X156066977Y-62064945D01*
X156071547Y-62066838D01*
X156071551Y-62066840D01*
X156276201Y-62151608D01*
X156286346Y-62155810D01*
X156366549Y-62175065D01*
X156512416Y-62210085D01*
X156512422Y-62210086D01*
X156517229Y-62211240D01*
X156753940Y-62229870D01*
X156990651Y-62211240D01*
X156995458Y-62210086D01*
X156995464Y-62210085D01*
X157141331Y-62175065D01*
X157221534Y-62155810D01*
X157231679Y-62151608D01*
X157436329Y-62066840D01*
X157436333Y-62066838D01*
X157440903Y-62064945D01*
X157478331Y-62042009D01*
X157639142Y-61943464D01*
X157639148Y-61943460D01*
X157643356Y-61940881D01*
X157823909Y-61786674D01*
X157835771Y-61772786D01*
X157913204Y-61682123D01*
X157978116Y-61606121D01*
X157980695Y-61601913D01*
X157980699Y-61601907D01*
X158099594Y-61407888D01*
X158102180Y-61403668D01*
X158117845Y-61365851D01*
X158191151Y-61188872D01*
X158191152Y-61188870D01*
X158193045Y-61184299D01*
X158222694Y-61060801D01*
X158247320Y-60958229D01*
X158247321Y-60958223D01*
X158248475Y-60953416D01*
X158267105Y-60716705D01*
X158248475Y-60479994D01*
X158240521Y-60446860D01*
X158200322Y-60279424D01*
X158193045Y-60249111D01*
X158185026Y-60229752D01*
X158104075Y-60034316D01*
X158104073Y-60034312D01*
X158102180Y-60029742D01*
X158099594Y-60025522D01*
X157980699Y-59831503D01*
X157980695Y-59831497D01*
X157978116Y-59827289D01*
X157823909Y-59646736D01*
X157643356Y-59492529D01*
X157639148Y-59489950D01*
X157639142Y-59489946D01*
X157445123Y-59371051D01*
X157440903Y-59368465D01*
X157436333Y-59366572D01*
X157436329Y-59366570D01*
X157226107Y-59279494D01*
X157226105Y-59279493D01*
X157221534Y-59277600D01*
X157141331Y-59258345D01*
X156995464Y-59223325D01*
X156995458Y-59223324D01*
X156990651Y-59222170D01*
X156753940Y-59203540D01*
X156517229Y-59222170D01*
X156512422Y-59223324D01*
X156512416Y-59223325D01*
X156366549Y-59258345D01*
X156286346Y-59277600D01*
X156281775Y-59279493D01*
X156281773Y-59279494D01*
X156071551Y-59366570D01*
X156071547Y-59366572D01*
X156066977Y-59368465D01*
X156062757Y-59371051D01*
X155868738Y-59489946D01*
X155868732Y-59489950D01*
X155864524Y-59492529D01*
X155683971Y-59646736D01*
X155529764Y-59827289D01*
X155527185Y-59831497D01*
X155527181Y-59831503D01*
X155408286Y-60025522D01*
X155405700Y-60029742D01*
X155403807Y-60034312D01*
X155403805Y-60034316D01*
X155322854Y-60229752D01*
X155314835Y-60249111D01*
X155307558Y-60279424D01*
X155267360Y-60446860D01*
X155259405Y-60479994D01*
X155241248Y-60710700D01*
X155240775Y-60716705D01*
X152467676Y-60716705D01*
X152467676Y-59814336D01*
X152460921Y-59752154D01*
X152409791Y-59615765D01*
X152322437Y-59499209D01*
X152205881Y-59411855D01*
X152069492Y-59360725D01*
X152007310Y-59353970D01*
X150111042Y-59353970D01*
X150048860Y-59360725D01*
X149912471Y-59411855D01*
X149795915Y-59499209D01*
X149708561Y-59615765D01*
X149657431Y-59752154D01*
X149650676Y-59814336D01*
X149650676Y-61710604D01*
X147023238Y-61710604D01*
X147055479Y-61678475D01*
X147065845Y-61664050D01*
X147080764Y-61643287D01*
X147190634Y-61490387D01*
X147211540Y-61448088D01*
X147290960Y-61287392D01*
X147290961Y-61287390D01*
X147293254Y-61282750D01*
X147360584Y-61061141D01*
X147390816Y-60831511D01*
X147392503Y-60762470D01*
X147376926Y-60573004D01*
X147373949Y-60536788D01*
X147373948Y-60536782D01*
X147373525Y-60531637D01*
X147326979Y-60346329D01*
X147318360Y-60312014D01*
X147318359Y-60312010D01*
X147317101Y-60307003D01*
X147315042Y-60302267D01*
X147226806Y-60099338D01*
X147226804Y-60099335D01*
X147224746Y-60094601D01*
X147098940Y-59900135D01*
X146943063Y-59728828D01*
X146939012Y-59725629D01*
X146939008Y-59725625D01*
X146765353Y-59588481D01*
X146765348Y-59588478D01*
X146761299Y-59585280D01*
X146756783Y-59582787D01*
X146756780Y-59582785D01*
X146563055Y-59475843D01*
X146563051Y-59475841D01*
X146558531Y-59473346D01*
X146553662Y-59471622D01*
X146553658Y-59471620D01*
X146345079Y-59397758D01*
X146345075Y-59397757D01*
X146340204Y-59396032D01*
X146335111Y-59395125D01*
X146335108Y-59395124D01*
X146117271Y-59356321D01*
X146117265Y-59356320D01*
X146112182Y-59355415D01*
X146039272Y-59354524D01*
X145885757Y-59352649D01*
X145885755Y-59352649D01*
X145880587Y-59352586D01*
X145651640Y-59387620D01*
X145431490Y-59459576D01*
X145426902Y-59461964D01*
X145426898Y-59461966D01*
X145230637Y-59564133D01*
X145226048Y-59566522D01*
X145221915Y-59569625D01*
X145221912Y-59569627D01*
X145044966Y-59702482D01*
X145040831Y-59705587D01*
X144880815Y-59873034D01*
X144877901Y-59877306D01*
X144877900Y-59877307D01*
X144862328Y-59900135D01*
X144750295Y-60064369D01*
X144652778Y-60274451D01*
X144590883Y-60497639D01*
X144566271Y-60727939D01*
X144566568Y-60733092D01*
X144566568Y-60733095D01*
X144568262Y-60762470D01*
X144579603Y-60959167D01*
X144586901Y-60991548D01*
X144587248Y-60993089D01*
X144582710Y-61063940D01*
X144553425Y-61109883D01*
X144318472Y-61344836D01*
X144304059Y-61357223D01*
X144286436Y-61370192D01*
X144281692Y-61375775D01*
X144281693Y-61375775D01*
X144252021Y-61410701D01*
X144245091Y-61418217D01*
X144239347Y-61423961D01*
X144237073Y-61426835D01*
X144237067Y-61426842D01*
X144221628Y-61446357D01*
X144218837Y-61449761D01*
X144176055Y-61500118D01*
X144176052Y-61500122D01*
X144171316Y-61505697D01*
X144167988Y-61512214D01*
X144164611Y-61517278D01*
X144161384Y-61522502D01*
X144156840Y-61528246D01*
X144153741Y-61534877D01*
X144125768Y-61594728D01*
X144123837Y-61598679D01*
X144090457Y-61664050D01*
X144088716Y-61671165D01*
X144086579Y-61676911D01*
X144084655Y-61682694D01*
X144081556Y-61689325D01*
X144068163Y-61753719D01*
X144066608Y-61761193D01*
X144065639Y-61765475D01*
X144048196Y-61836758D01*
X144047500Y-61847976D01*
X144047461Y-61847974D01*
X144047228Y-61851875D01*
X144046839Y-61856234D01*
X144045348Y-61863402D01*
X144045546Y-61870719D01*
X144047454Y-61941223D01*
X144047500Y-61944632D01*
X144047500Y-62115500D01*
X144027498Y-62183621D01*
X143973842Y-62230114D01*
X143921500Y-62241500D01*
X143101914Y-62241500D01*
X143033793Y-62221498D01*
X142987300Y-62167842D01*
X142975991Y-62111103D01*
X142976123Y-62107322D01*
X142977224Y-62100086D01*
X142975457Y-62078356D01*
X142972915Y-62047111D01*
X142972500Y-62036896D01*
X142972500Y-62028769D01*
X142969189Y-62000370D01*
X142968760Y-61996030D01*
X142967169Y-61976461D01*
X142962809Y-61922868D01*
X142960553Y-61915906D01*
X142959357Y-61909918D01*
X142957949Y-61903961D01*
X142957101Y-61896687D01*
X142954603Y-61889805D01*
X142954602Y-61889801D01*
X142932055Y-61827687D01*
X142930645Y-61823583D01*
X142908013Y-61753719D01*
X142904213Y-61747456D01*
X142901675Y-61741914D01*
X142898933Y-61736438D01*
X142896434Y-61729553D01*
X142856185Y-61668162D01*
X142853870Y-61664494D01*
X142815773Y-61601713D01*
X142812057Y-61597506D01*
X142812054Y-61597502D01*
X142808332Y-61593289D01*
X142808362Y-61593263D01*
X142805764Y-61590335D01*
X142802960Y-61586981D01*
X142798946Y-61580859D01*
X142742414Y-61527306D01*
X142739972Y-61524929D01*
X142324009Y-61108965D01*
X142289984Y-61046653D01*
X142288183Y-61003423D01*
X142310379Y-60834829D01*
X142310816Y-60831511D01*
X142312503Y-60762470D01*
X142296926Y-60573004D01*
X142293949Y-60536788D01*
X142293948Y-60536782D01*
X142293525Y-60531637D01*
X142246979Y-60346329D01*
X142238360Y-60312014D01*
X142238359Y-60312010D01*
X142237101Y-60307003D01*
X142235042Y-60302267D01*
X142146806Y-60099338D01*
X142146804Y-60099335D01*
X142144746Y-60094601D01*
X142018940Y-59900135D01*
X141863063Y-59728828D01*
X141859012Y-59725629D01*
X141859008Y-59725625D01*
X141685353Y-59588481D01*
X141685348Y-59588478D01*
X141681299Y-59585280D01*
X141676783Y-59582787D01*
X141676780Y-59582785D01*
X141483055Y-59475843D01*
X141483051Y-59475841D01*
X141478531Y-59473346D01*
X141473662Y-59471622D01*
X141473658Y-59471620D01*
X141265079Y-59397758D01*
X141265075Y-59397757D01*
X141260204Y-59396032D01*
X141255111Y-59395125D01*
X141255108Y-59395124D01*
X141037271Y-59356321D01*
X141037265Y-59356320D01*
X141032182Y-59355415D01*
X140959272Y-59354524D01*
X140805757Y-59352649D01*
X140805755Y-59352649D01*
X140800587Y-59352586D01*
X140571640Y-59387620D01*
X140351490Y-59459576D01*
X140346902Y-59461964D01*
X140346898Y-59461966D01*
X140150637Y-59564133D01*
X140146048Y-59566522D01*
X140141915Y-59569625D01*
X140141912Y-59569627D01*
X139964966Y-59702482D01*
X139960831Y-59705587D01*
X139800815Y-59873034D01*
X139797901Y-59877306D01*
X139797900Y-59877307D01*
X139782328Y-59900135D01*
X139670295Y-60064369D01*
X139572778Y-60274451D01*
X139510883Y-60497639D01*
X139486271Y-60727939D01*
X136676221Y-60727939D01*
X136677105Y-60716705D01*
X136658475Y-60479994D01*
X136650521Y-60446860D01*
X136610322Y-60279424D01*
X136603045Y-60249111D01*
X136595026Y-60229752D01*
X136514075Y-60034316D01*
X136514073Y-60034312D01*
X136512180Y-60029742D01*
X136509594Y-60025522D01*
X136390699Y-59831503D01*
X136390695Y-59831497D01*
X136388116Y-59827289D01*
X136233909Y-59646736D01*
X136053356Y-59492529D01*
X136049148Y-59489950D01*
X136049142Y-59489946D01*
X135855123Y-59371051D01*
X135850903Y-59368465D01*
X135846333Y-59366572D01*
X135846329Y-59366570D01*
X135636107Y-59279494D01*
X135636105Y-59279493D01*
X135631534Y-59277600D01*
X135551331Y-59258345D01*
X135405464Y-59223325D01*
X135405458Y-59223324D01*
X135400651Y-59222170D01*
X135163940Y-59203540D01*
X134927229Y-59222170D01*
X134922422Y-59223324D01*
X134922416Y-59223325D01*
X134776549Y-59258345D01*
X134696346Y-59277600D01*
X134691775Y-59279493D01*
X134691773Y-59279494D01*
X134481551Y-59366570D01*
X134481547Y-59366572D01*
X134476977Y-59368465D01*
X134472757Y-59371051D01*
X134278738Y-59489946D01*
X134278732Y-59489950D01*
X134274524Y-59492529D01*
X134093971Y-59646736D01*
X133939764Y-59827289D01*
X133937185Y-59831497D01*
X133937181Y-59831503D01*
X133818286Y-60025522D01*
X133815700Y-60029742D01*
X133813807Y-60034312D01*
X133813805Y-60034316D01*
X133732854Y-60229752D01*
X133724835Y-60249111D01*
X133717558Y-60279424D01*
X133677360Y-60446860D01*
X133669405Y-60479994D01*
X133651248Y-60710700D01*
X133650775Y-60716705D01*
X119380000Y-60716705D01*
X119380000Y-53466000D01*
X119400002Y-53397879D01*
X119453658Y-53351386D01*
X119506000Y-53340000D01*
X126542251Y-53340000D01*
X126610372Y-53360002D01*
G37*
%TD.AperFunction*%
%TD*%
M02*
