M48
; DRILL file {KiCad (6.0.7)} date Mon Mar  6 01:26:13 2023
; FORMAT={-:-/ absolute / inch / decimal}
; #@! TF.CreationDate,2023-03-06T01:26:13-05:00
; #@! TF.GenerationSoftware,Kicad,Pcbnew,(6.0.7)
; #@! TF.FileFunction,MixedPlating,1,2
FMAT,2
INCH
; #@! TA.AperFunction,Plated,PTH,ViaDrill
T1C0.0157
; #@! TA.AperFunction,Plated,PTH,ComponentDrill
T2C0.0295
; #@! TA.AperFunction,Plated,PTH,ComponentDrill
T3C0.0472
%
G90
G05
T1
X5.6Y-2.56
X5.65Y-2.775
X5.65Y-3.125
X5.8Y-3.7
X5.95Y-2.475
X6.26Y-3.7
X6.41Y-3.1
X6.41Y-3.26
X6.41Y-3.8
X6.41Y-3.9
X6.43Y-3.98
X6.47Y-3.61
X6.73Y-3.34
X6.77Y-4.59
X6.78Y-2.92
T2
X4.8106Y-2.6465
X4.8894Y-2.6465
X6.6055Y-3.5032
X6.6055Y-3.5819
X6.6055Y-3.6607
X6.6055Y-3.7394
X6.6055Y-3.8182
X6.6055Y-3.8969
X6.6055Y-3.9756
T3
X5.5458Y-2.7909
X5.5458Y-3.1913
X5.5472Y-2.3922
X5.7458Y-2.7909
X5.7458Y-3.1913
X5.7472Y-2.3922
X5.9458Y-2.7909
X5.9458Y-3.1913
X5.9472Y-2.3922
T0
M30
