<?xml version="1.0" standalone="no"?>
 <!DOCTYPE svg PUBLIC "-//W3C//DTD SVG 1.1//EN" 
 "http://www.w3.org/Graphics/SVG/1.1/DTD/svg11.dtd"> 
<svg
  xmlns:svg="http://www.w3.org/2000/svg"
  xmlns="http://www.w3.org/2000/svg"
  xmlns:xlink="http://www.w3.org/1999/xlink"
  version="1.1"
  width="297.0022mm" height="210.0072mm" viewBox="0.0000 0.0000 297.0022 210.0072">
<title>SVG Image created as antenna_board-F_Paste.svg date 2024/02/27 13:24:11 </title>
  <desc>Image generated by PCBNEW </desc>
<g style="fill:#000000; fill-opacity:1.0000;stroke:#000000; stroke-opacity:1.0000;
stroke-linecap:round; stroke-linejoin:round;"
 transform="translate(0 0) scale(1 1)">
</g>
<g style="fill:#000000; fill-opacity:0.0; 
stroke:#000000; stroke-width:0.0000; stroke-opacity:1; 
stroke-linecap:round; stroke-linejoin:round;">
<g >
</g>
<g >
</g>
<g >
</g>
<g style="fill:#000000; fill-opacity:0.0; 
stroke:#000000; stroke-width:0.0000; stroke-opacity:1; 
stroke-linecap:round; stroke-linejoin:round;">
</g>
<g style="fill:#000000; fill-opacity:0.0; 
stroke:#000000; stroke-width:0.0000; stroke-opacity:1; 
stroke-linecap:round; stroke-linejoin:round;">
</g>
<g style="fill:#000000; fill-opacity:1.0000; 
stroke:#000000; stroke-width:0.0000; stroke-opacity:1; 
stroke-linecap:round; stroke-linejoin:round;">
<path style="fill:#000000; fill-opacity:1.0000; 
stroke:#000000; stroke-width:0.0000; stroke-opacity:1; 
stroke-linecap:round; stroke-linejoin:round;fill-rule:evenodd;"
d="M 117.8725,72.6705
117.7816,72.6524
117.7046,72.6009
117.6531,72.5239
117.6350,72.4330
117.6350,71.9330
117.6531,71.8421
117.7046,71.7651
117.7816,71.7136
117.8725,71.6955
118.3475,71.6955
118.4384,71.7136
118.5154,71.7651
118.5669,71.8421
118.5850,71.9330
118.5850,72.4330
118.5669,72.5239
118.5154,72.6009
118.4384,72.6524
118.3475,72.6705
Z" /> 
<path style="fill:#000000; fill-opacity:1.0000; 
stroke:#000000; stroke-width:0.0000; stroke-opacity:1; 
stroke-linecap:round; stroke-linejoin:round;fill-rule:evenodd;"
d="M 117.8725,70.8455
117.7816,70.8274
117.7046,70.7759
117.6531,70.6989
117.6350,70.6080
117.6350,70.1080
117.6531,70.0171
117.7046,69.9401
117.7816,69.8886
117.8725,69.8705
118.3475,69.8705
118.4384,69.8886
118.5154,69.9401
118.5669,70.0171
118.5850,70.1080
118.5850,70.6080
118.5669,70.6989
118.5154,70.7759
118.4384,70.8274
118.3475,70.8455
Z" /> 
</g>
<g >
</g>
<g >
</g>
<g >
</g>
<g >
</g>
<g style="fill:#000000; fill-opacity:1.0000; 
stroke:#000000; stroke-width:0.0000; stroke-opacity:1; 
stroke-linecap:round; stroke-linejoin:round;">
<path style="fill:#000000; fill-opacity:1.0000; 
stroke:#000000; stroke-width:0.0000; stroke-opacity:1; 
stroke-linecap:round; stroke-linejoin:round;fill-rule:evenodd;"
d="M 117.8725,102.3885
117.7816,102.3704
117.7046,102.3189
117.6531,102.2419
117.6350,102.1510
117.6350,101.6510
117.6531,101.5601
117.7046,101.4831
117.7816,101.4316
117.8725,101.4135
118.3475,101.4135
118.4384,101.4316
118.5154,101.4831
118.5669,101.5601
118.5850,101.6510
118.5850,102.1510
118.5669,102.2419
118.5154,102.3189
118.4384,102.3704
118.3475,102.3885
Z" /> 
<path style="fill:#000000; fill-opacity:1.0000; 
stroke:#000000; stroke-width:0.0000; stroke-opacity:1; 
stroke-linecap:round; stroke-linejoin:round;fill-rule:evenodd;"
d="M 117.8725,100.5635
117.7816,100.5454
117.7046,100.4939
117.6531,100.4169
117.6350,100.3260
117.6350,99.8260
117.6531,99.7351
117.7046,99.6581
117.7816,99.6066
117.8725,99.5885
118.3475,99.5885
118.4384,99.6066
118.5154,99.6581
118.5669,99.7351
118.5850,99.8260
118.5850,100.3260
118.5669,100.4169
118.5154,100.4939
118.4384,100.5454
118.3475,100.5635
Z" /> 
</g>
<g >
</g>
<g style="fill:#000000; fill-opacity:1.0000; 
stroke:#000000; stroke-width:0.0000; stroke-opacity:1; 
stroke-linecap:round; stroke-linejoin:round;">
<path style="fill:#000000; fill-opacity:1.0000; 
stroke:#000000; stroke-width:0.0000; stroke-opacity:1; 
stroke-linecap:round; stroke-linejoin:round;fill-rule:evenodd;"
d="M 166.6505,86.8515
166.6324,86.9424
166.5809,87.0194
166.5039,87.0709
166.4130,87.0890
165.9130,87.0890
165.8221,87.0709
165.7451,87.0194
165.6936,86.9424
165.6755,86.8515
165.6755,86.3765
165.6936,86.2856
165.7451,86.2086
165.8221,86.1571
165.9130,86.1390
166.4130,86.1390
166.5039,86.1571
166.5809,86.2086
166.6324,86.2856
166.6505,86.3765
Z" /> 
<path style="fill:#000000; fill-opacity:1.0000; 
stroke:#000000; stroke-width:0.0000; stroke-opacity:1; 
stroke-linecap:round; stroke-linejoin:round;fill-rule:evenodd;"
d="M 164.8255,86.8515
164.8074,86.9424
164.7559,87.0194
164.6789,87.0709
164.5880,87.0890
164.0880,87.0890
163.9971,87.0709
163.9201,87.0194
163.8686,86.9424
163.8505,86.8515
163.8505,86.3765
163.8686,86.2856
163.9201,86.2086
163.9971,86.1571
164.0880,86.1390
164.5880,86.1390
164.6789,86.1571
164.7559,86.2086
164.8074,86.2856
164.8255,86.3765
Z" /> 
</g>
<g >
</g>
<g >
</g>
<g style="fill:#000000; fill-opacity:1.0000; 
stroke:#000000; stroke-width:0.0000; stroke-opacity:1; 
stroke-linecap:round; stroke-linejoin:round;">
<path style="fill:#000000; fill-opacity:1.0000; 
stroke:#000000; stroke-width:0.0000; stroke-opacity:1; 
stroke-linecap:round; stroke-linejoin:round;fill-rule:evenodd;"
d="M 171.9785,86.3765
171.9966,86.2856
172.0481,86.2086
172.1251,86.1571
172.2160,86.1390
172.7160,86.1390
172.8069,86.1571
172.8839,86.2086
172.9354,86.2856
172.9535,86.3765
172.9535,86.8515
172.9354,86.9424
172.8839,87.0194
172.8069,87.0709
172.7160,87.0890
172.2160,87.0890
172.1251,87.0709
172.0481,87.0194
171.9966,86.9424
171.9785,86.8515
Z" /> 
<path style="fill:#000000; fill-opacity:1.0000; 
stroke:#000000; stroke-width:0.0000; stroke-opacity:1; 
stroke-linecap:round; stroke-linejoin:round;fill-rule:evenodd;"
d="M 173.8035,86.3765
173.8216,86.2856
173.8731,86.2086
173.9501,86.1571
174.0410,86.1390
174.5410,86.1390
174.6319,86.1571
174.7089,86.2086
174.7604,86.2856
174.7785,86.3765
174.7785,86.8515
174.7604,86.9424
174.7089,87.0194
174.6319,87.0709
174.5410,87.0890
174.0410,87.0890
173.9501,87.0709
173.8731,87.0194
173.8216,86.9424
173.8035,86.8515
Z" /> 
</g>
<g >
</g>
<g >
</g>
<g style="fill:#000000; fill-opacity:1.0000; 
stroke:#000000; stroke-width:0.0000; stroke-opacity:1; 
stroke-linecap:round; stroke-linejoin:round;">
<path style="fill:#000000; fill-opacity:1.0000; 
stroke:#000000; stroke-width:0.0000; stroke-opacity:1; 
stroke-linecap:round; stroke-linejoin:round;fill-rule:evenodd;"
d="M 166.6505,100.3135
166.6324,100.4044
166.5809,100.4814
166.5039,100.5329
166.4130,100.5510
165.9130,100.5510
165.8221,100.5329
165.7451,100.4814
165.6936,100.4044
165.6755,100.3135
165.6755,99.8385
165.6936,99.7476
165.7451,99.6706
165.8221,99.6191
165.9130,99.6010
166.4130,99.6010
166.5039,99.6191
166.5809,99.6706
166.6324,99.7476
166.6505,99.8385
Z" /> 
<path style="fill:#000000; fill-opacity:1.0000; 
stroke:#000000; stroke-width:0.0000; stroke-opacity:1; 
stroke-linecap:round; stroke-linejoin:round;fill-rule:evenodd;"
d="M 164.8255,100.3135
164.8074,100.4044
164.7559,100.4814
164.6789,100.5329
164.5880,100.5510
164.0880,100.5510
163.9971,100.5329
163.9201,100.4814
163.8686,100.4044
163.8505,100.3135
163.8505,99.8385
163.8686,99.7476
163.9201,99.6706
163.9971,99.6191
164.0880,99.6010
164.5880,99.6010
164.6789,99.6191
164.7559,99.6706
164.8074,99.7476
164.8255,99.8385
Z" /> 
</g>
<g >
</g>
<g >
</g>
<g >
</g>
<g >
</g>
<g style="fill:#000000; fill-opacity:1.0000; 
stroke:#000000; stroke-width:0.0000; stroke-opacity:1; 
stroke-linecap:round; stroke-linejoin:round;">
<path style="fill:#000000; fill-opacity:1.0000; 
stroke:#000000; stroke-width:0.0000; stroke-opacity:1; 
stroke-linecap:round; stroke-linejoin:round;fill-rule:evenodd;"
d="M 177.0115,77.9945
177.0296,77.9036
177.0811,77.8266
177.1581,77.7751
177.2490,77.7570
177.7490,77.7570
177.8399,77.7751
177.9169,77.8266
177.9684,77.9036
177.9865,77.9945
177.9865,78.4695
177.9684,78.5604
177.9169,78.6374
177.8399,78.6889
177.7490,78.7070
177.2490,78.7070
177.1581,78.6889
177.0811,78.6374
177.0296,78.5604
177.0115,78.4695
Z" /> 
<path style="fill:#000000; fill-opacity:1.0000; 
stroke:#000000; stroke-width:0.0000; stroke-opacity:1; 
stroke-linecap:round; stroke-linejoin:round;fill-rule:evenodd;"
d="M 178.8365,77.9945
178.8546,77.9036
178.9061,77.8266
178.9831,77.7751
179.0740,77.7570
179.5740,77.7570
179.6649,77.7751
179.7419,77.8266
179.7934,77.9036
179.8115,77.9945
179.8115,78.4695
179.7934,78.5604
179.7419,78.6374
179.6649,78.6889
179.5740,78.7070
179.0740,78.7070
178.9831,78.6889
178.9061,78.6374
178.8546,78.5604
178.8365,78.4695
Z" /> 
</g>
<g >
</g>
<g >
</g>
<g >
</g>
<g style="fill:#000000; fill-opacity:1.0000; 
stroke:#000000; stroke-width:0.0000; stroke-opacity:1; 
stroke-linecap:round; stroke-linejoin:round;">
<path style="fill:#000000; fill-opacity:1.0000; 
stroke:#000000; stroke-width:0.0000; stroke-opacity:1; 
stroke-linecap:round; stroke-linejoin:round;fill-rule:evenodd;"
d="M 181.7625,118.2000
181.6716,118.1819
181.5946,118.1304
181.5431,118.0534
181.5250,117.9625
181.5250,117.3625
181.5431,117.2716
181.5946,117.1946
181.6716,117.1431
181.7625,117.1250
182.2375,117.1250
182.3284,117.1431
182.4054,117.1946
182.4569,117.2716
182.4750,117.3625
182.4750,117.9625
182.4569,118.0534
182.4054,118.1304
182.3284,118.1819
182.2375,118.2000
Z" /> 
<path style="fill:#000000; fill-opacity:1.0000; 
stroke:#000000; stroke-width:0.0000; stroke-opacity:1; 
stroke-linecap:round; stroke-linejoin:round;fill-rule:evenodd;"
d="M 181.7625,116.4750
181.6716,116.4569
181.5946,116.4054
181.5431,116.3284
181.5250,116.2375
181.5250,115.6375
181.5431,115.5466
181.5946,115.4696
181.6716,115.4181
181.7625,115.4000
182.2375,115.4000
182.3284,115.4181
182.4054,115.4696
182.4569,115.5466
182.4750,115.6375
182.4750,116.2375
182.4569,116.3284
182.4054,116.4054
182.3284,116.4569
182.2375,116.4750
Z" /> 
</g>
<g >
</g>
<g style="fill:#000000; fill-opacity:1.0000; 
stroke:#000000; stroke-width:0.0000; stroke-opacity:1; 
stroke-linecap:round; stroke-linejoin:round;">
<path style="fill:#000000; fill-opacity:1.0000; 
stroke:#000000; stroke-width:0.0000; stroke-opacity:1; 
stroke-linecap:round; stroke-linejoin:round;fill-rule:evenodd;"
d="M 171.9315,99.8385
171.9496,99.7476
172.0011,99.6706
172.0781,99.6191
172.1690,99.6010
172.6690,99.6010
172.7599,99.6191
172.8369,99.6706
172.8884,99.7476
172.9065,99.8385
172.9065,100.3135
172.8884,100.4044
172.8369,100.4814
172.7599,100.5329
172.6690,100.5510
172.1690,100.5510
172.0781,100.5329
172.0011,100.4814
171.9496,100.4044
171.9315,100.3135
Z" /> 
<path style="fill:#000000; fill-opacity:1.0000; 
stroke:#000000; stroke-width:0.0000; stroke-opacity:1; 
stroke-linecap:round; stroke-linejoin:round;fill-rule:evenodd;"
d="M 173.7565,99.8385
173.7746,99.7476
173.8261,99.6706
173.9031,99.6191
173.9940,99.6010
174.4940,99.6010
174.5849,99.6191
174.6619,99.6706
174.7134,99.7476
174.7315,99.8385
174.7315,100.3135
174.7134,100.4044
174.6619,100.4814
174.5849,100.5329
174.4940,100.5510
173.9940,100.5510
173.9031,100.5329
173.8261,100.4814
173.7746,100.4044
173.7565,100.3135
Z" /> 
</g>
<g >
</g>
<g style="fill:#000000; fill-opacity:1.0000; 
stroke:#000000; stroke-width:0.0000; stroke-opacity:1; 
stroke-linecap:round; stroke-linejoin:round;">
<path style="fill:#000000; fill-opacity:1.0000; 
stroke:#000000; stroke-width:0.0000; stroke-opacity:1; 
stroke-linecap:round; stroke-linejoin:round;fill-rule:evenodd;"
d="M 179.5615,122.7055
179.6524,122.7236
179.7294,122.7751
179.7809,122.8521
179.7990,122.9430
179.7990,123.5430
179.7809,123.6339
179.7294,123.7109
179.6524,123.7624
179.5615,123.7805
179.0865,123.7805
178.9956,123.7624
178.9186,123.7109
178.8671,123.6339
178.8490,123.5430
178.8490,122.9430
178.8671,122.8521
178.9186,122.7751
178.9956,122.7236
179.0865,122.7055
Z" /> 
<path style="fill:#000000; fill-opacity:1.0000; 
stroke:#000000; stroke-width:0.0000; stroke-opacity:1; 
stroke-linecap:round; stroke-linejoin:round;fill-rule:evenodd;"
d="M 179.5615,124.4305
179.6524,124.4486
179.7294,124.5001
179.7809,124.5771
179.7990,124.6680
179.7990,125.2680
179.7809,125.3589
179.7294,125.4359
179.6524,125.4874
179.5615,125.5055
179.0865,125.5055
178.9956,125.4874
178.9186,125.4359
178.8671,125.3589
178.8490,125.2680
178.8490,124.6680
178.8671,124.5771
178.9186,124.5001
178.9956,124.4486
179.0865,124.4305
Z" /> 
</g>
<g >
</g>
<g style="fill:#000000; fill-opacity:1.0000; 
stroke:#000000; stroke-width:0.0000; stroke-opacity:1; 
stroke-linecap:round; stroke-linejoin:round;">
<path style="fill:#000000; fill-opacity:1.0000; 
stroke:#000000; stroke-width:0.0000; stroke-opacity:1; 
stroke-linecap:round; stroke-linejoin:round;fill-rule:evenodd;"
d="M 171.5215,128.2435
171.4258,128.2245
171.3447,128.1703
171.2905,128.0892
171.2715,127.9935
171.2715,127.3185
171.2905,127.2228
171.3447,127.1417
171.4258,127.0875
171.5215,127.0685
172.4715,127.0685
172.5672,127.0875
172.6483,127.1417
172.7025,127.2228
172.7215,127.3185
172.7215,127.9935
172.7025,128.0892
172.6483,128.1703
172.5672,128.2245
172.4715,128.2435
Z" /> 
<path style="fill:#000000; fill-opacity:1.0000; 
stroke:#000000; stroke-width:0.0000; stroke-opacity:1; 
stroke-linecap:round; stroke-linejoin:round;fill-rule:evenodd;"
d="M 171.5215,126.1685
171.4258,126.1495
171.3447,126.0953
171.2905,126.0142
171.2715,125.9185
171.2715,125.2435
171.2905,125.1478
171.3447,125.0667
171.4258,125.0125
171.5215,124.9935
172.4715,124.9935
172.5672,125.0125
172.6483,125.0667
172.7025,125.1478
172.7215,125.2435
172.7215,125.9185
172.7025,126.0142
172.6483,126.0953
172.5672,126.1495
172.4715,126.1685
Z" /> 
</g>
<g >
</g>
<g >
</g>
<g >
</g>
<g >
</g>
<g >
</g>
<g >
</g>
<g >
</g>
<g style="fill:#000000; fill-opacity:1.0000; 
stroke:#000000; stroke-width:0.0000; stroke-opacity:1; 
stroke-linecap:round; stroke-linejoin:round;">
<path style="fill:#000000; fill-opacity:1.0000; 
stroke:#000000; stroke-width:0.0000; stroke-opacity:1; 
stroke-linecap:round; stroke-linejoin:round;fill-rule:evenodd;"
d="M 183.9625,119.4000
183.8716,119.3819
183.7946,119.3304
183.7431,119.2534
183.7250,119.1625
183.7250,118.6625
183.7431,118.5716
183.7946,118.4946
183.8716,118.4431
183.9625,118.4250
184.4375,118.4250
184.5284,118.4431
184.6054,118.4946
184.6569,118.5716
184.6750,118.6625
184.6750,119.1625
184.6569,119.2534
184.6054,119.3304
184.5284,119.3819
184.4375,119.4000
Z" /> 
<path style="fill:#000000; fill-opacity:1.0000; 
stroke:#000000; stroke-width:0.0000; stroke-opacity:1; 
stroke-linecap:round; stroke-linejoin:round;fill-rule:evenodd;"
d="M 183.9625,117.5750
183.8716,117.5569
183.7946,117.5054
183.7431,117.4284
183.7250,117.3375
183.7250,116.8375
183.7431,116.7466
183.7946,116.6696
183.8716,116.6181
183.9625,116.6000
184.4375,116.6000
184.5284,116.6181
184.6054,116.6696
184.6569,116.7466
184.6750,116.8375
184.6750,117.3375
184.6569,117.4284
184.6054,117.5054
184.5284,117.5569
184.4375,117.5750
Z" /> 
</g>
<g >
</g>
<g >
</g>
<g style="fill:#000000; fill-opacity:1.0000; 
stroke:#000000; stroke-width:0.0000; stroke-opacity:1; 
stroke-linecap:round; stroke-linejoin:round;">
<path style="fill:#000000; fill-opacity:1.0000; 
stroke:#000000; stroke-width:0.0000; stroke-opacity:1; 
stroke-linecap:round; stroke-linejoin:round;fill-rule:evenodd;"
d="M 183.9625,123.0000
183.8716,122.9819
183.7946,122.9304
183.7431,122.8534
183.7250,122.7625
183.7250,122.2625
183.7431,122.1716
183.7946,122.0946
183.8716,122.0431
183.9625,122.0250
184.4375,122.0250
184.5284,122.0431
184.6054,122.0946
184.6569,122.1716
184.6750,122.2625
184.6750,122.7625
184.6569,122.8534
184.6054,122.9304
184.5284,122.9819
184.4375,123.0000
Z" /> 
<path style="fill:#000000; fill-opacity:1.0000; 
stroke:#000000; stroke-width:0.0000; stroke-opacity:1; 
stroke-linecap:round; stroke-linejoin:round;fill-rule:evenodd;"
d="M 183.9625,121.1750
183.8716,121.1569
183.7946,121.1054
183.7431,121.0284
183.7250,120.9375
183.7250,120.4375
183.7431,120.3466
183.7946,120.2696
183.8716,120.2181
183.9625,120.2000
184.4375,120.2000
184.5284,120.2181
184.6054,120.2696
184.6569,120.3466
184.6750,120.4375
184.6750,120.9375
184.6569,121.0284
184.6054,121.1054
184.5284,121.1569
184.4375,121.1750
Z" /> 
</g>
<g >
</g>
<g >
</g>
<g >
</g>
</g> 
</svg>
