  0
SECTION
  2
HEADER
  9
$ANGBASE
  50
0.0
  9
$ANGDIR
  70
1
  9
$MEASUREMENT
  70
0
  0
ENDSEC
  0
SECTION
  2
TABLES
  0
TABLE
  2
LTYPE
  70
4
  0
LTYPE
  5
40F
  2
CONTINUOUS
  70
0
  3
Solid line
  72
65
  73
0
  40
0.0
  0
LTYPE
  5
410
  2
DASHDOT
 70
0
  3
Dash Dot ____ _ ____ _
 72
65
 73
4
 40
2.0
 49
1.25
 49
-0.25
 49
0.25
 49
-0.25
  0
LTYPE
  5
411
  2
DASHED
 70
0
  3
Dashed __ __ __ __ __
 72
65
 73
2
 40
0.75
 49
0.5
 49
-0.25
  0
LTYPE
  5
43B
  2
DOTTED
 70
0
  3
Dotted .  .  .  .
 72
65
 73
2
 40
0.2
 49
0.0
 49
-0.2
  0
ENDTAB
  0
TABLE
  2
STYLE
  70
4
  0
STYLE
  2
KICAD
  70
0
  40
0
  41
1
  42
1
  50
0
  71
0
  3
isocp.shx
  0
STYLE
  2
KICADB
  70
0
  40
0
  41
1
  42
1
  50
0
  71
0
  3
isocp.shx
  0
STYLE
  2
KICADI
  70
0
  40
0
  41
1
  42
1
  50
15
  71
0
  3
isocp.shx
  0
STYLE
  2
KICADBI
  70
0
  40
0
  41
1
  42
1
  50
15
  71
0
  3
isocp.shx
  0
ENDTAB
  0
TABLE
  2
LAYER
  70
1
  0
LAYER
  2
BLACK
  70
0
  62
7
  6
CONTINUOUS
  0
ENDTAB
  0
ENDSEC
  0
SECTION
  2
ENTITIES
0
LINE
8
BLACK
6
CONTINUOUS
10
6.79398
20
-5.00345
11
6.79718
21
-5.00558
0
LINE
8
BLACK
6
CONTINUOUS
10
6.79718
20
-5.00558
11
6.79931
21
-5.00877
0
LINE
8
BLACK
6
CONTINUOUS
10
6.79931
20
-5.00877
11
6.80006
21
-5.01254
0
LINE
8
BLACK
6
CONTINUOUS
10
6.80006
20
-5.01254
11
6.80006
21
-5.03911
0
LINE
8
BLACK
6
CONTINUOUS
10
6.80006
20
-5.03911
11
6.79931
21
-5.04288
0
LINE
8
BLACK
6
CONTINUOUS
10
6.79931
20
-5.04288
11
6.79718
21
-5.04607
0
LINE
8
BLACK
6
CONTINUOUS
10
6.79718
20
-5.04607
11
6.79398
21
-5.04821
0
LINE
8
BLACK
6
CONTINUOUS
10
6.79398
20
-5.04821
11
6.79022
21
-5.04896
0
LINE
8
BLACK
6
CONTINUOUS
10
6.79022
20
-5.04896
11
6.75281
21
-5.04896
0
LINE
8
BLACK
6
CONTINUOUS
10
6.75281
20
-5.04896
11
6.74905
21
-5.04821
0
LINE
8
BLACK
6
CONTINUOUS
10
6.74905
20
-5.04821
11
6.74585
21
-5.04607
0
LINE
8
BLACK
6
CONTINUOUS
10
6.74585
20
-5.04607
11
6.74372
21
-5.04288
0
LINE
8
BLACK
6
CONTINUOUS
10
6.74372
20
-5.04288
11
6.74297
21
-5.03911
0
LINE
8
BLACK
6
CONTINUOUS
10
6.74297
20
-5.03911
11
6.74297
21
-5.01254
0
LINE
8
BLACK
6
CONTINUOUS
10
6.74297
20
-5.01254
11
6.74372
21
-5.00877
0
LINE
8
BLACK
6
CONTINUOUS
10
6.74372
20
-5.00877
11
6.74585
21
-5.00558
0
LINE
8
BLACK
6
CONTINUOUS
10
6.74585
20
-5.00558
11
6.74905
21
-5.00345
0
LINE
8
BLACK
6
CONTINUOUS
10
6.74905
20
-5.00345
11
6.75281
21
-5.0027
0
LINE
8
BLACK
6
CONTINUOUS
10
6.75281
20
-5.0027
11
6.79022
21
-5.0027
0
LINE
8
BLACK
6
CONTINUOUS
10
6.79022
20
-5.0027
11
6.79398
21
-5.00345
0
LINE
8
BLACK
6
CONTINUOUS
10
6.79398
20
-4.92175
11
6.79718
21
-4.92389
0
LINE
8
BLACK
6
CONTINUOUS
10
6.79718
20
-4.92389
11
6.79931
21
-4.92708
0
LINE
8
BLACK
6
CONTINUOUS
10
6.79931
20
-4.92708
11
6.80006
21
-4.93085
0
LINE
8
BLACK
6
CONTINUOUS
10
6.80006
20
-4.93085
11
6.80006
21
-4.95742
0
LINE
8
BLACK
6
CONTINUOUS
10
6.80006
20
-4.95742
11
6.79931
21
-4.96119
0
LINE
8
BLACK
6
CONTINUOUS
10
6.79931
20
-4.96119
11
6.79718
21
-4.96438
0
LINE
8
BLACK
6
CONTINUOUS
10
6.79718
20
-4.96438
11
6.79398
21
-4.96651
0
LINE
8
BLACK
6
CONTINUOUS
10
6.79398
20
-4.96651
11
6.79022
21
-4.96726
0
LINE
8
BLACK
6
CONTINUOUS
10
6.79022
20
-4.96726
11
6.75281
21
-4.96726
0
LINE
8
BLACK
6
CONTINUOUS
10
6.75281
20
-4.96726
11
6.74905
21
-4.96651
0
LINE
8
BLACK
6
CONTINUOUS
10
6.74905
20
-4.96651
11
6.74585
21
-4.96438
0
LINE
8
BLACK
6
CONTINUOUS
10
6.74585
20
-4.96438
11
6.74372
21
-4.96119
0
LINE
8
BLACK
6
CONTINUOUS
10
6.74372
20
-4.96119
11
6.74297
21
-4.95742
0
LINE
8
BLACK
6
CONTINUOUS
10
6.74297
20
-4.95742
11
6.74297
21
-4.93085
0
LINE
8
BLACK
6
CONTINUOUS
10
6.74297
20
-4.93085
11
6.74372
21
-4.92708
0
LINE
8
BLACK
6
CONTINUOUS
10
6.74372
20
-4.92708
11
6.74585
21
-4.92389
0
LINE
8
BLACK
6
CONTINUOUS
10
6.74585
20
-4.92389
11
6.74905
21
-4.92175
0
LINE
8
BLACK
6
CONTINUOUS
10
6.74905
20
-4.92175
11
6.75281
21
-4.921
0
LINE
8
BLACK
6
CONTINUOUS
10
6.75281
20
-4.921
11
6.79022
21
-4.921
0
LINE
8
BLACK
6
CONTINUOUS
10
6.79022
20
-4.921
11
6.79398
21
-4.92175
0
LINE
8
BLACK
6
CONTINUOUS
10
7.07293
20
-4.89955
11
7.07596
21
-4.90158
0
LINE
8
BLACK
6
CONTINUOUS
10
7.07596
20
-4.90158
11
7.07799
21
-4.90461
0
LINE
8
BLACK
6
CONTINUOUS
10
7.07799
20
-4.90461
11
7.0787
21
-4.90819
0
LINE
8
BLACK
6
CONTINUOUS
10
7.0787
20
-4.90819
11
7.0787
21
-4.93181
0
LINE
8
BLACK
6
CONTINUOUS
10
7.0787
20
-4.93181
11
7.07799
21
-4.93539
0
LINE
8
BLACK
6
CONTINUOUS
10
7.07799
20
-4.93539
11
7.07596
21
-4.93842
0
LINE
8
BLACK
6
CONTINUOUS
10
7.07596
20
-4.93842
11
7.07293
21
-4.94045
0
LINE
8
BLACK
6
CONTINUOUS
10
7.07293
20
-4.94045
11
7.06935
21
-4.94116
0
LINE
8
BLACK
6
CONTINUOUS
10
7.06935
20
-4.94116
11
7.05065
21
-4.94116
0
LINE
8
BLACK
6
CONTINUOUS
10
7.05065
20
-4.94116
11
7.04707
21
-4.94045
0
LINE
8
BLACK
6
CONTINUOUS
10
7.04707
20
-4.94045
11
7.04404
21
-4.93842
0
LINE
8
BLACK
6
CONTINUOUS
10
7.04404
20
-4.93842
11
7.04201
21
-4.93539
0
LINE
8
BLACK
6
CONTINUOUS
10
7.04201
20
-4.93539
11
7.0413
21
-4.93181
0
LINE
8
BLACK
6
CONTINUOUS
10
7.0413
20
-4.93181
11
7.0413
21
-4.90819
0
LINE
8
BLACK
6
CONTINUOUS
10
7.0413
20
-4.90819
11
7.04201
21
-4.90461
0
LINE
8
BLACK
6
CONTINUOUS
10
7.04201
20
-4.90461
11
7.04404
21
-4.90158
0
LINE
8
BLACK
6
CONTINUOUS
10
7.04404
20
-4.90158
11
7.04707
21
-4.89955
0
LINE
8
BLACK
6
CONTINUOUS
10
7.04707
20
-4.89955
11
7.05065
21
-4.89884
0
LINE
8
BLACK
6
CONTINUOUS
10
7.05065
20
-4.89884
11
7.06935
21
-4.89884
0
LINE
8
BLACK
6
CONTINUOUS
10
7.06935
20
-4.89884
11
7.07293
21
-4.89955
0
LINE
8
BLACK
6
CONTINUOUS
10
7.07293
20
-4.83164
11
7.07596
21
-4.83366
0
LINE
8
BLACK
6
CONTINUOUS
10
7.07596
20
-4.83366
11
7.07799
21
-4.8367
0
LINE
8
BLACK
6
CONTINUOUS
10
7.07799
20
-4.8367
11
7.0787
21
-4.84028
0
LINE
8
BLACK
6
CONTINUOUS
10
7.0787
20
-4.84028
11
7.0787
21
-4.8639
0
LINE
8
BLACK
6
CONTINUOUS
10
7.0787
20
-4.8639
11
7.07799
21
-4.86748
0
LINE
8
BLACK
6
CONTINUOUS
10
7.07799
20
-4.86748
11
7.07596
21
-4.87051
0
LINE
8
BLACK
6
CONTINUOUS
10
7.07596
20
-4.87051
11
7.07293
21
-4.87254
0
LINE
8
BLACK
6
CONTINUOUS
10
7.07293
20
-4.87254
11
7.06935
21
-4.87325
0
LINE
8
BLACK
6
CONTINUOUS
10
7.06935
20
-4.87325
11
7.05065
21
-4.87325
0
LINE
8
BLACK
6
CONTINUOUS
10
7.05065
20
-4.87325
11
7.04707
21
-4.87254
0
LINE
8
BLACK
6
CONTINUOUS
10
7.04707
20
-4.87254
11
7.04404
21
-4.87051
0
LINE
8
BLACK
6
CONTINUOUS
10
7.04404
20
-4.87051
11
7.04201
21
-4.86748
0
LINE
8
BLACK
6
CONTINUOUS
10
7.04201
20
-4.86748
11
7.0413
21
-4.8639
0
LINE
8
BLACK
6
CONTINUOUS
10
7.0413
20
-4.8639
11
7.0413
21
-4.84028
0
LINE
8
BLACK
6
CONTINUOUS
10
7.0413
20
-4.84028
11
7.04201
21
-4.8367
0
LINE
8
BLACK
6
CONTINUOUS
10
7.04201
20
-4.8367
11
7.04404
21
-4.83366
0
LINE
8
BLACK
6
CONTINUOUS
10
7.04404
20
-4.83366
11
7.04707
21
-4.83164
0
LINE
8
BLACK
6
CONTINUOUS
10
7.04707
20
-4.83164
11
7.05065
21
-4.83093
0
LINE
8
BLACK
6
CONTINUOUS
10
7.05065
20
-4.83093
11
7.06935
21
-4.83093
0
LINE
8
BLACK
6
CONTINUOUS
10
7.06935
20
-4.83093
11
7.07293
21
-4.83164
0
LINE
8
BLACK
6
CONTINUOUS
10
7.2649
20
-4.80485
11
7.26793
21
-4.80687
0
LINE
8
BLACK
6
CONTINUOUS
10
7.26793
20
-4.80687
11
7.26996
21
-4.80991
0
LINE
8
BLACK
6
CONTINUOUS
10
7.26996
20
-4.80991
11
7.27067
21
-4.81348
0
LINE
8
BLACK
6
CONTINUOUS
10
7.27067
20
-4.81348
11
7.27067
21
-4.83317
0
LINE
8
BLACK
6
CONTINUOUS
10
7.27067
20
-4.83317
11
7.26996
21
-4.83675
0
LINE
8
BLACK
6
CONTINUOUS
10
7.26996
20
-4.83675
11
7.26793
21
-4.83978
0
LINE
8
BLACK
6
CONTINUOUS
10
7.26793
20
-4.83978
11
7.2649
21
-4.84181
0
LINE
8
BLACK
6
CONTINUOUS
10
7.2649
20
-4.84181
11
7.26132
21
-4.84252
0
LINE
8
BLACK
6
CONTINUOUS
10
7.26132
20
-4.84252
11
7.24262
21
-4.84252
0
LINE
8
BLACK
6
CONTINUOUS
10
7.24262
20
-4.84252
11
7.23904
21
-4.84181
0
LINE
8
BLACK
6
CONTINUOUS
10
7.23904
20
-4.84181
11
7.23601
21
-4.83978
0
LINE
8
BLACK
6
CONTINUOUS
10
7.23601
20
-4.83978
11
7.23398
21
-4.83675
0
LINE
8
BLACK
6
CONTINUOUS
10
7.23398
20
-4.83675
11
7.23327
21
-4.83317
0
LINE
8
BLACK
6
CONTINUOUS
10
7.23327
20
-4.83317
11
7.23327
21
-4.81348
0
LINE
8
BLACK
6
CONTINUOUS
10
7.23327
20
-4.81348
11
7.23398
21
-4.80991
0
LINE
8
BLACK
6
CONTINUOUS
10
7.23398
20
-4.80991
11
7.23601
21
-4.80687
0
LINE
8
BLACK
6
CONTINUOUS
10
7.23601
20
-4.80687
11
7.23904
21
-4.80485
0
LINE
8
BLACK
6
CONTINUOUS
10
7.23904
20
-4.80485
11
7.24262
21
-4.80413
0
LINE
8
BLACK
6
CONTINUOUS
10
7.24262
20
-4.80413
11
7.26132
21
-4.80413
0
LINE
8
BLACK
6
CONTINUOUS
10
7.26132
20
-4.80413
11
7.2649
21
-4.80485
0
LINE
8
BLACK
6
CONTINUOUS
10
7.2649
20
-4.733
11
7.26793
21
-4.73502
0
LINE
8
BLACK
6
CONTINUOUS
10
7.26793
20
-4.73502
11
7.26996
21
-4.73806
0
LINE
8
BLACK
6
CONTINUOUS
10
7.26996
20
-4.73806
11
7.27067
21
-4.74163
0
LINE
8
BLACK
6
CONTINUOUS
10
7.27067
20
-4.74163
11
7.27067
21
-4.76132
0
LINE
8
BLACK
6
CONTINUOUS
10
7.27067
20
-4.76132
11
7.26996
21
-4.7649
0
LINE
8
BLACK
6
CONTINUOUS
10
7.26996
20
-4.7649
11
7.26793
21
-4.76793
0
LINE
8
BLACK
6
CONTINUOUS
10
7.26793
20
-4.76793
11
7.2649
21
-4.76996
0
LINE
8
BLACK
6
CONTINUOUS
10
7.2649
20
-4.76996
11
7.26132
21
-4.77067
0
LINE
8
BLACK
6
CONTINUOUS
10
7.26132
20
-4.77067
11
7.24262
21
-4.77067
0
LINE
8
BLACK
6
CONTINUOUS
10
7.24262
20
-4.77067
11
7.23904
21
-4.76996
0
LINE
8
BLACK
6
CONTINUOUS
10
7.23904
20
-4.76996
11
7.23601
21
-4.76793
0
LINE
8
BLACK
6
CONTINUOUS
10
7.23601
20
-4.76793
11
7.23398
21
-4.7649
0
LINE
8
BLACK
6
CONTINUOUS
10
7.23398
20
-4.7649
11
7.23327
21
-4.76132
0
LINE
8
BLACK
6
CONTINUOUS
10
7.23327
20
-4.76132
11
7.23327
21
-4.74163
0
LINE
8
BLACK
6
CONTINUOUS
10
7.23327
20
-4.74163
11
7.23398
21
-4.73806
0
LINE
8
BLACK
6
CONTINUOUS
10
7.23398
20
-4.73806
11
7.23601
21
-4.73502
0
LINE
8
BLACK
6
CONTINUOUS
10
7.23601
20
-4.73502
11
7.23904
21
-4.733
0
LINE
8
BLACK
6
CONTINUOUS
10
7.23904
20
-4.733
11
7.24262
21
-4.73228
0
LINE
8
BLACK
6
CONTINUOUS
10
7.24262
20
-4.73228
11
7.26132
21
-4.73228
0
LINE
8
BLACK
6
CONTINUOUS
10
7.26132
20
-4.73228
11
7.2649
21
-4.733
0
LINE
8
BLACK
6
CONTINUOUS
10
7.2649
20
-4.66311
11
7.26793
21
-4.66514
0
LINE
8
BLACK
6
CONTINUOUS
10
7.26793
20
-4.66514
11
7.26996
21
-4.66817
0
LINE
8
BLACK
6
CONTINUOUS
10
7.26996
20
-4.66817
11
7.27067
21
-4.67175
0
LINE
8
BLACK
6
CONTINUOUS
10
7.27067
20
-4.67175
11
7.27067
21
-4.69144
0
LINE
8
BLACK
6
CONTINUOUS
10
7.27067
20
-4.69144
11
7.26996
21
-4.69502
0
LINE
8
BLACK
6
CONTINUOUS
10
7.26996
20
-4.69502
11
7.26793
21
-4.69805
0
LINE
8
BLACK
6
CONTINUOUS
10
7.26793
20
-4.69805
11
7.2649
21
-4.70008
0
LINE
8
BLACK
6
CONTINUOUS
10
7.2649
20
-4.70008
11
7.26132
21
-4.70079
0
LINE
8
BLACK
6
CONTINUOUS
10
7.26132
20
-4.70079
11
7.24262
21
-4.70079
0
LINE
8
BLACK
6
CONTINUOUS
10
7.24262
20
-4.70079
11
7.23904
21
-4.70008
0
LINE
8
BLACK
6
CONTINUOUS
10
7.23904
20
-4.70008
11
7.23601
21
-4.69805
0
LINE
8
BLACK
6
CONTINUOUS
10
7.23601
20
-4.69805
11
7.23398
21
-4.69502
0
LINE
8
BLACK
6
CONTINUOUS
10
7.23398
20
-4.69502
11
7.23327
21
-4.69144
0
LINE
8
BLACK
6
CONTINUOUS
10
7.23327
20
-4.69144
11
7.23327
21
-4.67175
0
LINE
8
BLACK
6
CONTINUOUS
10
7.23327
20
-4.67175
11
7.23398
21
-4.66817
0
LINE
8
BLACK
6
CONTINUOUS
10
7.23398
20
-4.66817
11
7.23601
21
-4.66514
0
LINE
8
BLACK
6
CONTINUOUS
10
7.23601
20
-4.66514
11
7.23904
21
-4.66311
0
LINE
8
BLACK
6
CONTINUOUS
10
7.23904
20
-4.66311
11
7.24262
21
-4.6624
0
LINE
8
BLACK
6
CONTINUOUS
10
7.24262
20
-4.6624
11
7.26132
21
-4.6624
0
LINE
8
BLACK
6
CONTINUOUS
10
7.26132
20
-4.6624
11
7.2649
21
-4.66311
0
LINE
8
BLACK
6
CONTINUOUS
10
7.17828
20
-4.61193
11
7.18132
21
-4.61396
0
LINE
8
BLACK
6
CONTINUOUS
10
7.18132
20
-4.61396
11
7.18334
21
-4.61699
0
LINE
8
BLACK
6
CONTINUOUS
10
7.18334
20
-4.61699
11
7.18406
21
-4.62057
0
LINE
8
BLACK
6
CONTINUOUS
10
7.18406
20
-4.62057
11
7.18406
21
-4.64419
0
LINE
8
BLACK
6
CONTINUOUS
10
7.18406
20
-4.64419
11
7.18334
21
-4.64777
0
LINE
8
BLACK
6
CONTINUOUS
10
7.18334
20
-4.64777
11
7.18132
21
-4.6508
0
LINE
8
BLACK
6
CONTINUOUS
10
7.18132
20
-4.6508
11
7.17828
21
-4.65283
0
LINE
8
BLACK
6
CONTINUOUS
10
7.17828
20
-4.65283
11
7.1747
21
-4.65354
0
LINE
8
BLACK
6
CONTINUOUS
10
7.1747
20
-4.65354
11
7.156
21
-4.65354
0
LINE
8
BLACK
6
CONTINUOUS
10
7.156
20
-4.65354
11
7.15243
21
-4.65283
0
LINE
8
BLACK
6
CONTINUOUS
10
7.15243
20
-4.65283
11
7.14939
21
-4.6508
0
LINE
8
BLACK
6
CONTINUOUS
10
7.14939
20
-4.6508
11
7.14737
21
-4.64777
0
LINE
8
BLACK
6
CONTINUOUS
10
7.14737
20
-4.64777
11
7.14665
21
-4.64419
0
LINE
8
BLACK
6
CONTINUOUS
10
7.14665
20
-4.64419
11
7.14665
21
-4.62057
0
LINE
8
BLACK
6
CONTINUOUS
10
7.14665
20
-4.62057
11
7.14737
21
-4.61699
0
LINE
8
BLACK
6
CONTINUOUS
10
7.14737
20
-4.61699
11
7.14939
21
-4.61396
0
LINE
8
BLACK
6
CONTINUOUS
10
7.14939
20
-4.61396
11
7.15243
21
-4.61193
0
LINE
8
BLACK
6
CONTINUOUS
10
7.15243
20
-4.61193
11
7.156
21
-4.61122
0
LINE
8
BLACK
6
CONTINUOUS
10
7.156
20
-4.61122
11
7.1747
21
-4.61122
0
LINE
8
BLACK
6
CONTINUOUS
10
7.1747
20
-4.61122
11
7.17828
21
-4.61193
0
LINE
8
BLACK
6
CONTINUOUS
10
7.2649
20
-4.59126
11
7.26793
21
-4.59329
0
LINE
8
BLACK
6
CONTINUOUS
10
7.26793
20
-4.59329
11
7.26996
21
-4.59632
0
LINE
8
BLACK
6
CONTINUOUS
10
7.26996
20
-4.59632
11
7.27067
21
-4.5999
0
LINE
8
BLACK
6
CONTINUOUS
10
7.27067
20
-4.5999
11
7.27067
21
-4.61959
0
LINE
8
BLACK
6
CONTINUOUS
10
7.27067
20
-4.61959
11
7.26996
21
-4.62316
0
LINE
8
BLACK
6
CONTINUOUS
10
7.26996
20
-4.62316
11
7.26793
21
-4.6262
0
LINE
8
BLACK
6
CONTINUOUS
10
7.26793
20
-4.6262
11
7.2649
21
-4.62823
0
LINE
8
BLACK
6
CONTINUOUS
10
7.2649
20
-4.62823
11
7.26132
21
-4.62894
0
LINE
8
BLACK
6
CONTINUOUS
10
7.26132
20
-4.62894
11
7.24262
21
-4.62894
0
LINE
8
BLACK
6
CONTINUOUS
10
7.24262
20
-4.62894
11
7.23904
21
-4.62823
0
LINE
8
BLACK
6
CONTINUOUS
10
7.23904
20
-4.62823
11
7.23601
21
-4.6262
0
LINE
8
BLACK
6
CONTINUOUS
10
7.23601
20
-4.6262
11
7.23398
21
-4.62316
0
LINE
8
BLACK
6
CONTINUOUS
10
7.23398
20
-4.62316
11
7.23327
21
-4.61959
0
LINE
8
BLACK
6
CONTINUOUS
10
7.23327
20
-4.61959
11
7.23327
21
-4.5999
0
LINE
8
BLACK
6
CONTINUOUS
10
7.23327
20
-4.5999
11
7.23398
21
-4.59632
0
LINE
8
BLACK
6
CONTINUOUS
10
7.23398
20
-4.59632
11
7.23601
21
-4.59329
0
LINE
8
BLACK
6
CONTINUOUS
10
7.23601
20
-4.59329
11
7.23904
21
-4.59126
0
LINE
8
BLACK
6
CONTINUOUS
10
7.23904
20
-4.59126
11
7.24262
21
-4.59055
0
LINE
8
BLACK
6
CONTINUOUS
10
7.24262
20
-4.59055
11
7.26132
21
-4.59055
0
LINE
8
BLACK
6
CONTINUOUS
10
7.26132
20
-4.59055
11
7.2649
21
-4.59126
0
LINE
8
BLACK
6
CONTINUOUS
10
7.17828
20
-4.54402
11
7.18132
21
-4.54605
0
LINE
8
BLACK
6
CONTINUOUS
10
7.18132
20
-4.54605
11
7.18334
21
-4.54908
0
LINE
8
BLACK
6
CONTINUOUS
10
7.18334
20
-4.54908
11
7.18406
21
-4.55266
0
LINE
8
BLACK
6
CONTINUOUS
10
7.18406
20
-4.55266
11
7.18406
21
-4.57628
0
LINE
8
BLACK
6
CONTINUOUS
10
7.18406
20
-4.57628
11
7.18334
21
-4.57986
0
LINE
8
BLACK
6
CONTINUOUS
10
7.18334
20
-4.57986
11
7.18132
21
-4.58289
0
LINE
8
BLACK
6
CONTINUOUS
10
7.18132
20
-4.58289
11
7.17828
21
-4.58492
0
LINE
8
BLACK
6
CONTINUOUS
10
7.17828
20
-4.58492
11
7.1747
21
-4.58563
0
LINE
8
BLACK
6
CONTINUOUS
10
7.1747
20
-4.58563
11
7.156
21
-4.58563
0
LINE
8
BLACK
6
CONTINUOUS
10
7.156
20
-4.58563
11
7.15243
21
-4.58492
0
LINE
8
BLACK
6
CONTINUOUS
10
7.15243
20
-4.58492
11
7.14939
21
-4.58289
0
LINE
8
BLACK
6
CONTINUOUS
10
7.14939
20
-4.58289
11
7.14737
21
-4.57986
0
LINE
8
BLACK
6
CONTINUOUS
10
7.14737
20
-4.57986
11
7.14665
21
-4.57628
0
LINE
8
BLACK
6
CONTINUOUS
10
7.14665
20
-4.57628
11
7.14665
21
-4.55266
0
LINE
8
BLACK
6
CONTINUOUS
10
7.14665
20
-4.55266
11
7.14737
21
-4.54908
0
LINE
8
BLACK
6
CONTINUOUS
10
7.14737
20
-4.54908
11
7.14939
21
-4.54605
0
LINE
8
BLACK
6
CONTINUOUS
10
7.14939
20
-4.54605
11
7.15243
21
-4.54402
0
LINE
8
BLACK
6
CONTINUOUS
10
7.15243
20
-4.54402
11
7.156
21
-4.54331
0
LINE
8
BLACK
6
CONTINUOUS
10
7.156
20
-4.54331
11
7.1747
21
-4.54331
0
LINE
8
BLACK
6
CONTINUOUS
10
7.1747
20
-4.54331
11
7.17828
21
-4.54402
0
LINE
8
BLACK
6
CONTINUOUS
10
4.66293
20
-3.99337
11
4.66596
21
-3.9954
0
LINE
8
BLACK
6
CONTINUOUS
10
4.66596
20
-3.9954
11
4.66799
21
-3.99843
0
LINE
8
BLACK
6
CONTINUOUS
10
4.66799
20
-3.99843
11
4.6687
21
-4.00201
0
LINE
8
BLACK
6
CONTINUOUS
10
4.6687
20
-4.00201
11
4.6687
21
-4.02169
0
LINE
8
BLACK
6
CONTINUOUS
10
4.6687
20
-4.02169
11
4.66799
21
-4.02527
0
LINE
8
BLACK
6
CONTINUOUS
10
4.66799
20
-4.02527
11
4.66596
21
-4.0283
0
LINE
8
BLACK
6
CONTINUOUS
10
4.66596
20
-4.0283
11
4.66293
21
-4.03033
0
LINE
8
BLACK
6
CONTINUOUS
10
4.66293
20
-4.03033
11
4.65935
21
-4.03104
0
LINE
8
BLACK
6
CONTINUOUS
10
4.65935
20
-4.03104
11
4.64065
21
-4.03104
0
LINE
8
BLACK
6
CONTINUOUS
10
4.64065
20
-4.03104
11
4.63707
21
-4.03033
0
LINE
8
BLACK
6
CONTINUOUS
10
4.63707
20
-4.03033
11
4.63404
21
-4.0283
0
LINE
8
BLACK
6
CONTINUOUS
10
4.63404
20
-4.0283
11
4.63201
21
-4.02527
0
LINE
8
BLACK
6
CONTINUOUS
10
4.63201
20
-4.02527
11
4.6313
21
-4.02169
0
LINE
8
BLACK
6
CONTINUOUS
10
4.6313
20
-4.02169
11
4.6313
21
-4.00201
0
LINE
8
BLACK
6
CONTINUOUS
10
4.6313
20
-4.00201
11
4.63201
21
-3.99843
0
LINE
8
BLACK
6
CONTINUOUS
10
4.63201
20
-3.99843
11
4.63404
21
-3.9954
0
LINE
8
BLACK
6
CONTINUOUS
10
4.63404
20
-3.9954
11
4.63707
21
-3.99337
0
LINE
8
BLACK
6
CONTINUOUS
10
4.63707
20
-3.99337
11
4.64065
21
-3.99266
0
LINE
8
BLACK
6
CONTINUOUS
10
4.64065
20
-3.99266
11
4.65935
21
-3.99266
0
LINE
8
BLACK
6
CONTINUOUS
10
4.65935
20
-3.99266
11
4.66293
21
-3.99337
0
LINE
8
BLACK
6
CONTINUOUS
10
4.66293
20
-3.92152
11
4.66596
21
-3.92355
0
LINE
8
BLACK
6
CONTINUOUS
10
4.66596
20
-3.92355
11
4.66799
21
-3.92658
0
LINE
8
BLACK
6
CONTINUOUS
10
4.66799
20
-3.92658
11
4.6687
21
-3.93016
0
LINE
8
BLACK
6
CONTINUOUS
10
4.6687
20
-3.93016
11
4.6687
21
-3.94984
0
LINE
8
BLACK
6
CONTINUOUS
10
4.6687
20
-3.94984
11
4.66799
21
-3.95342
0
LINE
8
BLACK
6
CONTINUOUS
10
4.66799
20
-3.95342
11
4.66596
21
-3.95645
0
LINE
8
BLACK
6
CONTINUOUS
10
4.66596
20
-3.95645
11
4.66293
21
-3.95848
0
LINE
8
BLACK
6
CONTINUOUS
10
4.66293
20
-3.95848
11
4.65935
21
-3.95919
0
LINE
8
BLACK
6
CONTINUOUS
10
4.65935
20
-3.95919
11
4.64065
21
-3.95919
0
LINE
8
BLACK
6
CONTINUOUS
10
4.64065
20
-3.95919
11
4.63707
21
-3.95848
0
LINE
8
BLACK
6
CONTINUOUS
10
4.63707
20
-3.95848
11
4.63404
21
-3.95645
0
LINE
8
BLACK
6
CONTINUOUS
10
4.63404
20
-3.95645
11
4.63201
21
-3.95342
0
LINE
8
BLACK
6
CONTINUOUS
10
4.63201
20
-3.95342
11
4.6313
21
-3.94984
0
LINE
8
BLACK
6
CONTINUOUS
10
4.6313
20
-3.94984
11
4.6313
21
-3.93016
0
LINE
8
BLACK
6
CONTINUOUS
10
4.6313
20
-3.93016
11
4.63201
21
-3.92658
0
LINE
8
BLACK
6
CONTINUOUS
10
4.63201
20
-3.92658
11
4.63404
21
-3.92355
0
LINE
8
BLACK
6
CONTINUOUS
10
4.63404
20
-3.92355
11
4.63707
21
-3.92152
0
LINE
8
BLACK
6
CONTINUOUS
10
4.63707
20
-3.92152
11
4.64065
21
-3.92081
0
LINE
8
BLACK
6
CONTINUOUS
10
4.64065
20
-3.92081
11
4.65935
21
-3.92081
0
LINE
8
BLACK
6
CONTINUOUS
10
4.65935
20
-3.92081
11
4.66293
21
-3.92152
0
LINE
8
BLACK
6
CONTINUOUS
10
6.48342
20
-3.92201
11
6.48645
21
-3.92404
0
LINE
8
BLACK
6
CONTINUOUS
10
6.48645
20
-3.92404
11
6.48848
21
-3.92707
0
LINE
8
BLACK
6
CONTINUOUS
10
6.48848
20
-3.92707
11
6.48919
21
-3.93065
0
LINE
8
BLACK
6
CONTINUOUS
10
6.48919
20
-3.93065
11
6.48919
21
-3.94935
0
LINE
8
BLACK
6
CONTINUOUS
10
6.48919
20
-3.94935
11
6.48848
21
-3.95293
0
LINE
8
BLACK
6
CONTINUOUS
10
6.48848
20
-3.95293
11
6.48645
21
-3.95596
0
LINE
8
BLACK
6
CONTINUOUS
10
6.48645
20
-3.95596
11
6.48342
21
-3.95799
0
LINE
8
BLACK
6
CONTINUOUS
10
6.48342
20
-3.95799
11
6.47984
21
-3.9587
0
LINE
8
BLACK
6
CONTINUOUS
10
6.47984
20
-3.9587
11
6.46016
21
-3.9587
0
LINE
8
BLACK
6
CONTINUOUS
10
6.46016
20
-3.9587
11
6.45658
21
-3.95799
0
LINE
8
BLACK
6
CONTINUOUS
10
6.45658
20
-3.95799
11
6.45355
21
-3.95596
0
LINE
8
BLACK
6
CONTINUOUS
10
6.45355
20
-3.95596
11
6.45152
21
-3.95293
0
LINE
8
BLACK
6
CONTINUOUS
10
6.45152
20
-3.95293
11
6.45081
21
-3.94935
0
LINE
8
BLACK
6
CONTINUOUS
10
6.45081
20
-3.94935
11
6.45081
21
-3.93065
0
LINE
8
BLACK
6
CONTINUOUS
10
6.45081
20
-3.93065
11
6.45152
21
-3.92707
0
LINE
8
BLACK
6
CONTINUOUS
10
6.45152
20
-3.92707
11
6.45355
21
-3.92404
0
LINE
8
BLACK
6
CONTINUOUS
10
6.45355
20
-3.92404
11
6.45658
21
-3.92201
0
LINE
8
BLACK
6
CONTINUOUS
10
6.45658
20
-3.92201
11
6.46016
21
-3.9213
0
LINE
8
BLACK
6
CONTINUOUS
10
6.46016
20
-3.9213
11
6.47984
21
-3.9213
0
LINE
8
BLACK
6
CONTINUOUS
10
6.47984
20
-3.9213
11
6.48342
21
-3.92201
0
LINE
8
BLACK
6
CONTINUOUS
10
6.55527
20
-3.92201
11
6.5583
21
-3.92404
0
LINE
8
BLACK
6
CONTINUOUS
10
6.5583
20
-3.92404
11
6.56033
21
-3.92707
0
LINE
8
BLACK
6
CONTINUOUS
10
6.56033
20
-3.92707
11
6.56104
21
-3.93065
0
LINE
8
BLACK
6
CONTINUOUS
10
6.56104
20
-3.93065
11
6.56104
21
-3.94935
0
LINE
8
BLACK
6
CONTINUOUS
10
6.56104
20
-3.94935
11
6.56033
21
-3.95293
0
LINE
8
BLACK
6
CONTINUOUS
10
6.56033
20
-3.95293
11
6.5583
21
-3.95596
0
LINE
8
BLACK
6
CONTINUOUS
10
6.5583
20
-3.95596
11
6.55527
21
-3.95799
0
LINE
8
BLACK
6
CONTINUOUS
10
6.55527
20
-3.95799
11
6.55169
21
-3.9587
0
LINE
8
BLACK
6
CONTINUOUS
10
6.55169
20
-3.9587
11
6.53201
21
-3.9587
0
LINE
8
BLACK
6
CONTINUOUS
10
6.53201
20
-3.9587
11
6.52843
21
-3.95799
0
LINE
8
BLACK
6
CONTINUOUS
10
6.52843
20
-3.95799
11
6.5254
21
-3.95596
0
LINE
8
BLACK
6
CONTINUOUS
10
6.5254
20
-3.95596
11
6.52337
21
-3.95293
0
LINE
8
BLACK
6
CONTINUOUS
10
6.52337
20
-3.95293
11
6.52266
21
-3.94935
0
LINE
8
BLACK
6
CONTINUOUS
10
6.52266
20
-3.94935
11
6.52266
21
-3.93065
0
LINE
8
BLACK
6
CONTINUOUS
10
6.52266
20
-3.93065
11
6.52337
21
-3.92707
0
LINE
8
BLACK
6
CONTINUOUS
10
6.52337
20
-3.92707
11
6.5254
21
-3.92404
0
LINE
8
BLACK
6
CONTINUOUS
10
6.5254
20
-3.92404
11
6.52843
21
-3.92201
0
LINE
8
BLACK
6
CONTINUOUS
10
6.52843
20
-3.92201
11
6.53201
21
-3.9213
0
LINE
8
BLACK
6
CONTINUOUS
10
6.53201
20
-3.9213
11
6.55169
21
-3.9213
0
LINE
8
BLACK
6
CONTINUOUS
10
6.55169
20
-3.9213
11
6.55527
21
-3.92201
0
LINE
8
BLACK
6
CONTINUOUS
10
6.80157
20
-3.92201
11
6.8046
21
-3.92404
0
LINE
8
BLACK
6
CONTINUOUS
10
6.8046
20
-3.92404
11
6.80663
21
-3.92707
0
LINE
8
BLACK
6
CONTINUOUS
10
6.80663
20
-3.92707
11
6.80734
21
-3.93065
0
LINE
8
BLACK
6
CONTINUOUS
10
6.80734
20
-3.93065
11
6.80734
21
-3.94935
0
LINE
8
BLACK
6
CONTINUOUS
10
6.80734
20
-3.94935
11
6.80663
21
-3.95293
0
LINE
8
BLACK
6
CONTINUOUS
10
6.80663
20
-3.95293
11
6.8046
21
-3.95596
0
LINE
8
BLACK
6
CONTINUOUS
10
6.8046
20
-3.95596
11
6.80157
21
-3.95799
0
LINE
8
BLACK
6
CONTINUOUS
10
6.80157
20
-3.95799
11
6.79799
21
-3.9587
0
LINE
8
BLACK
6
CONTINUOUS
10
6.79799
20
-3.9587
11
6.77831
21
-3.9587
0
LINE
8
BLACK
6
CONTINUOUS
10
6.77831
20
-3.9587
11
6.77473
21
-3.95799
0
LINE
8
BLACK
6
CONTINUOUS
10
6.77473
20
-3.95799
11
6.7717
21
-3.95596
0
LINE
8
BLACK
6
CONTINUOUS
10
6.7717
20
-3.95596
11
6.76967
21
-3.95293
0
LINE
8
BLACK
6
CONTINUOUS
10
6.76967
20
-3.95293
11
6.76896
21
-3.94935
0
LINE
8
BLACK
6
CONTINUOUS
10
6.76896
20
-3.94935
11
6.76896
21
-3.93065
0
LINE
8
BLACK
6
CONTINUOUS
10
6.76896
20
-3.93065
11
6.76967
21
-3.92707
0
LINE
8
BLACK
6
CONTINUOUS
10
6.76967
20
-3.92707
11
6.7717
21
-3.92404
0
LINE
8
BLACK
6
CONTINUOUS
10
6.7717
20
-3.92404
11
6.77473
21
-3.92201
0
LINE
8
BLACK
6
CONTINUOUS
10
6.77473
20
-3.92201
11
6.77831
21
-3.9213
0
LINE
8
BLACK
6
CONTINUOUS
10
6.77831
20
-3.9213
11
6.79799
21
-3.9213
0
LINE
8
BLACK
6
CONTINUOUS
10
6.79799
20
-3.9213
11
6.80157
21
-3.92201
0
LINE
8
BLACK
6
CONTINUOUS
10
6.87342
20
-3.92201
11
6.87645
21
-3.92404
0
LINE
8
BLACK
6
CONTINUOUS
10
6.87645
20
-3.92404
11
6.87848
21
-3.92707
0
LINE
8
BLACK
6
CONTINUOUS
10
6.87848
20
-3.92707
11
6.87919
21
-3.93065
0
LINE
8
BLACK
6
CONTINUOUS
10
6.87919
20
-3.93065
11
6.87919
21
-3.94935
0
LINE
8
BLACK
6
CONTINUOUS
10
6.87919
20
-3.94935
11
6.87848
21
-3.95293
0
LINE
8
BLACK
6
CONTINUOUS
10
6.87848
20
-3.95293
11
6.87645
21
-3.95596
0
LINE
8
BLACK
6
CONTINUOUS
10
6.87645
20
-3.95596
11
6.87342
21
-3.95799
0
LINE
8
BLACK
6
CONTINUOUS
10
6.87342
20
-3.95799
11
6.86984
21
-3.9587
0
LINE
8
BLACK
6
CONTINUOUS
10
6.86984
20
-3.9587
11
6.85016
21
-3.9587
0
LINE
8
BLACK
6
CONTINUOUS
10
6.85016
20
-3.9587
11
6.84658
21
-3.95799
0
LINE
8
BLACK
6
CONTINUOUS
10
6.84658
20
-3.95799
11
6.84355
21
-3.95596
0
LINE
8
BLACK
6
CONTINUOUS
10
6.84355
20
-3.95596
11
6.84152
21
-3.95293
0
LINE
8
BLACK
6
CONTINUOUS
10
6.84152
20
-3.95293
11
6.84081
21
-3.94935
0
LINE
8
BLACK
6
CONTINUOUS
10
6.84081
20
-3.94935
11
6.84081
21
-3.93065
0
LINE
8
BLACK
6
CONTINUOUS
10
6.84081
20
-3.93065
11
6.84152
21
-3.92707
0
LINE
8
BLACK
6
CONTINUOUS
10
6.84152
20
-3.92707
11
6.84355
21
-3.92404
0
LINE
8
BLACK
6
CONTINUOUS
10
6.84355
20
-3.92404
11
6.84658
21
-3.92201
0
LINE
8
BLACK
6
CONTINUOUS
10
6.84658
20
-3.92201
11
6.85016
21
-3.9213
0
LINE
8
BLACK
6
CONTINUOUS
10
6.85016
20
-3.9213
11
6.86984
21
-3.9213
0
LINE
8
BLACK
6
CONTINUOUS
10
6.86984
20
-3.9213
11
6.87342
21
-3.92201
0
LINE
8
BLACK
6
CONTINUOUS
10
6.48342
20
-3.39201
11
6.48645
21
-3.39404
0
LINE
8
BLACK
6
CONTINUOUS
10
6.48645
20
-3.39404
11
6.48848
21
-3.39707
0
LINE
8
BLACK
6
CONTINUOUS
10
6.48848
20
-3.39707
11
6.48919
21
-3.40065
0
LINE
8
BLACK
6
CONTINUOUS
10
6.48919
20
-3.40065
11
6.48919
21
-3.41935
0
LINE
8
BLACK
6
CONTINUOUS
10
6.48919
20
-3.41935
11
6.48848
21
-3.42293
0
LINE
8
BLACK
6
CONTINUOUS
10
6.48848
20
-3.42293
11
6.48645
21
-3.42596
0
LINE
8
BLACK
6
CONTINUOUS
10
6.48645
20
-3.42596
11
6.48342
21
-3.42799
0
LINE
8
BLACK
6
CONTINUOUS
10
6.48342
20
-3.42799
11
6.47984
21
-3.4287
0
LINE
8
BLACK
6
CONTINUOUS
10
6.47984
20
-3.4287
11
6.46016
21
-3.4287
0
LINE
8
BLACK
6
CONTINUOUS
10
6.46016
20
-3.4287
11
6.45658
21
-3.42799
0
LINE
8
BLACK
6
CONTINUOUS
10
6.45658
20
-3.42799
11
6.45355
21
-3.42596
0
LINE
8
BLACK
6
CONTINUOUS
10
6.45355
20
-3.42596
11
6.45152
21
-3.42293
0
LINE
8
BLACK
6
CONTINUOUS
10
6.45152
20
-3.42293
11
6.45081
21
-3.41935
0
LINE
8
BLACK
6
CONTINUOUS
10
6.45081
20
-3.41935
11
6.45081
21
-3.40065
0
LINE
8
BLACK
6
CONTINUOUS
10
6.45081
20
-3.40065
11
6.45152
21
-3.39707
0
LINE
8
BLACK
6
CONTINUOUS
10
6.45152
20
-3.39707
11
6.45355
21
-3.39404
0
LINE
8
BLACK
6
CONTINUOUS
10
6.45355
20
-3.39404
11
6.45658
21
-3.39201
0
LINE
8
BLACK
6
CONTINUOUS
10
6.45658
20
-3.39201
11
6.46016
21
-3.3913
0
LINE
8
BLACK
6
CONTINUOUS
10
6.46016
20
-3.3913
11
6.47984
21
-3.3913
0
LINE
8
BLACK
6
CONTINUOUS
10
6.47984
20
-3.3913
11
6.48342
21
-3.39201
0
LINE
8
BLACK
6
CONTINUOUS
10
6.55527
20
-3.39201
11
6.5583
21
-3.39404
0
LINE
8
BLACK
6
CONTINUOUS
10
6.5583
20
-3.39404
11
6.56033
21
-3.39707
0
LINE
8
BLACK
6
CONTINUOUS
10
6.56033
20
-3.39707
11
6.56104
21
-3.40065
0
LINE
8
BLACK
6
CONTINUOUS
10
6.56104
20
-3.40065
11
6.56104
21
-3.41935
0
LINE
8
BLACK
6
CONTINUOUS
10
6.56104
20
-3.41935
11
6.56033
21
-3.42293
0
LINE
8
BLACK
6
CONTINUOUS
10
6.56033
20
-3.42293
11
6.5583
21
-3.42596
0
LINE
8
BLACK
6
CONTINUOUS
10
6.5583
20
-3.42596
11
6.55527
21
-3.42799
0
LINE
8
BLACK
6
CONTINUOUS
10
6.55527
20
-3.42799
11
6.55169
21
-3.4287
0
LINE
8
BLACK
6
CONTINUOUS
10
6.55169
20
-3.4287
11
6.53201
21
-3.4287
0
LINE
8
BLACK
6
CONTINUOUS
10
6.53201
20
-3.4287
11
6.52843
21
-3.42799
0
LINE
8
BLACK
6
CONTINUOUS
10
6.52843
20
-3.42799
11
6.5254
21
-3.42596
0
LINE
8
BLACK
6
CONTINUOUS
10
6.5254
20
-3.42596
11
6.52337
21
-3.42293
0
LINE
8
BLACK
6
CONTINUOUS
10
6.52337
20
-3.42293
11
6.52266
21
-3.41935
0
LINE
8
BLACK
6
CONTINUOUS
10
6.52266
20
-3.41935
11
6.52266
21
-3.40065
0
LINE
8
BLACK
6
CONTINUOUS
10
6.52266
20
-3.40065
11
6.52337
21
-3.39707
0
LINE
8
BLACK
6
CONTINUOUS
10
6.52337
20
-3.39707
11
6.5254
21
-3.39404
0
LINE
8
BLACK
6
CONTINUOUS
10
6.5254
20
-3.39404
11
6.52843
21
-3.39201
0
LINE
8
BLACK
6
CONTINUOUS
10
6.52843
20
-3.39201
11
6.53201
21
-3.3913
0
LINE
8
BLACK
6
CONTINUOUS
10
6.53201
20
-3.3913
11
6.55169
21
-3.3913
0
LINE
8
BLACK
6
CONTINUOUS
10
6.55169
20
-3.3913
11
6.55527
21
-3.39201
0
LINE
8
BLACK
6
CONTINUOUS
10
6.80342
20
-3.39201
11
6.80645
21
-3.39404
0
LINE
8
BLACK
6
CONTINUOUS
10
6.80645
20
-3.39404
11
6.80848
21
-3.39707
0
LINE
8
BLACK
6
CONTINUOUS
10
6.80848
20
-3.39707
11
6.80919
21
-3.40065
0
LINE
8
BLACK
6
CONTINUOUS
10
6.80919
20
-3.40065
11
6.80919
21
-3.41935
0
LINE
8
BLACK
6
CONTINUOUS
10
6.80919
20
-3.41935
11
6.80848
21
-3.42293
0
LINE
8
BLACK
6
CONTINUOUS
10
6.80848
20
-3.42293
11
6.80645
21
-3.42596
0
LINE
8
BLACK
6
CONTINUOUS
10
6.80645
20
-3.42596
11
6.80342
21
-3.42799
0
LINE
8
BLACK
6
CONTINUOUS
10
6.80342
20
-3.42799
11
6.79984
21
-3.4287
0
LINE
8
BLACK
6
CONTINUOUS
10
6.79984
20
-3.4287
11
6.78016
21
-3.4287
0
LINE
8
BLACK
6
CONTINUOUS
10
6.78016
20
-3.4287
11
6.77658
21
-3.42799
0
LINE
8
BLACK
6
CONTINUOUS
10
6.77658
20
-3.42799
11
6.77355
21
-3.42596
0
LINE
8
BLACK
6
CONTINUOUS
10
6.77355
20
-3.42596
11
6.77152
21
-3.42293
0
LINE
8
BLACK
6
CONTINUOUS
10
6.77152
20
-3.42293
11
6.77081
21
-3.41935
0
LINE
8
BLACK
6
CONTINUOUS
10
6.77081
20
-3.41935
11
6.77081
21
-3.40065
0
LINE
8
BLACK
6
CONTINUOUS
10
6.77081
20
-3.40065
11
6.77152
21
-3.39707
0
LINE
8
BLACK
6
CONTINUOUS
10
6.77152
20
-3.39707
11
6.77355
21
-3.39404
0
LINE
8
BLACK
6
CONTINUOUS
10
6.77355
20
-3.39404
11
6.77658
21
-3.39201
0
LINE
8
BLACK
6
CONTINUOUS
10
6.77658
20
-3.39201
11
6.78016
21
-3.3913
0
LINE
8
BLACK
6
CONTINUOUS
10
6.78016
20
-3.3913
11
6.79984
21
-3.3913
0
LINE
8
BLACK
6
CONTINUOUS
10
6.79984
20
-3.3913
11
6.80342
21
-3.39201
0
LINE
8
BLACK
6
CONTINUOUS
10
6.87527
20
-3.39201
11
6.8783
21
-3.39404
0
LINE
8
BLACK
6
CONTINUOUS
10
6.8783
20
-3.39404
11
6.88033
21
-3.39707
0
LINE
8
BLACK
6
CONTINUOUS
10
6.88033
20
-3.39707
11
6.88104
21
-3.40065
0
LINE
8
BLACK
6
CONTINUOUS
10
6.88104
20
-3.40065
11
6.88104
21
-3.41935
0
LINE
8
BLACK
6
CONTINUOUS
10
6.88104
20
-3.41935
11
6.88033
21
-3.42293
0
LINE
8
BLACK
6
CONTINUOUS
10
6.88033
20
-3.42293
11
6.8783
21
-3.42596
0
LINE
8
BLACK
6
CONTINUOUS
10
6.8783
20
-3.42596
11
6.87527
21
-3.42799
0
LINE
8
BLACK
6
CONTINUOUS
10
6.87527
20
-3.42799
11
6.87169
21
-3.4287
0
LINE
8
BLACK
6
CONTINUOUS
10
6.87169
20
-3.4287
11
6.85201
21
-3.4287
0
LINE
8
BLACK
6
CONTINUOUS
10
6.85201
20
-3.4287
11
6.84843
21
-3.42799
0
LINE
8
BLACK
6
CONTINUOUS
10
6.84843
20
-3.42799
11
6.8454
21
-3.42596
0
LINE
8
BLACK
6
CONTINUOUS
10
6.8454
20
-3.42596
11
6.84337
21
-3.42293
0
LINE
8
BLACK
6
CONTINUOUS
10
6.84337
20
-3.42293
11
6.84266
21
-3.41935
0
LINE
8
BLACK
6
CONTINUOUS
10
6.84266
20
-3.41935
11
6.84266
21
-3.40065
0
LINE
8
BLACK
6
CONTINUOUS
10
6.84266
20
-3.40065
11
6.84337
21
-3.39707
0
LINE
8
BLACK
6
CONTINUOUS
10
6.84337
20
-3.39707
11
6.8454
21
-3.39404
0
LINE
8
BLACK
6
CONTINUOUS
10
6.8454
20
-3.39404
11
6.84843
21
-3.39201
0
LINE
8
BLACK
6
CONTINUOUS
10
6.84843
20
-3.39201
11
6.85201
21
-3.3913
0
LINE
8
BLACK
6
CONTINUOUS
10
6.85201
20
-3.3913
11
6.87169
21
-3.3913
0
LINE
8
BLACK
6
CONTINUOUS
10
6.87169
20
-3.3913
11
6.87527
21
-3.39201
0
LINE
8
BLACK
6
CONTINUOUS
10
7.00157
20
-3.06201
11
7.0046
21
-3.06404
0
LINE
8
BLACK
6
CONTINUOUS
10
7.0046
20
-3.06404
11
7.00663
21
-3.06707
0
LINE
8
BLACK
6
CONTINUOUS
10
7.00663
20
-3.06707
11
7.00734
21
-3.07065
0
LINE
8
BLACK
6
CONTINUOUS
10
7.00734
20
-3.07065
11
7.00734
21
-3.08935
0
LINE
8
BLACK
6
CONTINUOUS
10
7.00734
20
-3.08935
11
7.00663
21
-3.09293
0
LINE
8
BLACK
6
CONTINUOUS
10
7.00663
20
-3.09293
11
7.0046
21
-3.09596
0
LINE
8
BLACK
6
CONTINUOUS
10
7.0046
20
-3.09596
11
7.00157
21
-3.09799
0
LINE
8
BLACK
6
CONTINUOUS
10
7.00157
20
-3.09799
11
6.99799
21
-3.0987
0
LINE
8
BLACK
6
CONTINUOUS
10
6.99799
20
-3.0987
11
6.97831
21
-3.0987
0
LINE
8
BLACK
6
CONTINUOUS
10
6.97831
20
-3.0987
11
6.97473
21
-3.09799
0
LINE
8
BLACK
6
CONTINUOUS
10
6.97473
20
-3.09799
11
6.9717
21
-3.09596
0
LINE
8
BLACK
6
CONTINUOUS
10
6.9717
20
-3.09596
11
6.96967
21
-3.09293
0
LINE
8
BLACK
6
CONTINUOUS
10
6.96967
20
-3.09293
11
6.96896
21
-3.08935
0
LINE
8
BLACK
6
CONTINUOUS
10
6.96896
20
-3.08935
11
6.96896
21
-3.07065
0
LINE
8
BLACK
6
CONTINUOUS
10
6.96896
20
-3.07065
11
6.96967
21
-3.06707
0
LINE
8
BLACK
6
CONTINUOUS
10
6.96967
20
-3.06707
11
6.9717
21
-3.06404
0
LINE
8
BLACK
6
CONTINUOUS
10
6.9717
20
-3.06404
11
6.97473
21
-3.06201
0
LINE
8
BLACK
6
CONTINUOUS
10
6.97473
20
-3.06201
11
6.97831
21
-3.0613
0
LINE
8
BLACK
6
CONTINUOUS
10
6.97831
20
-3.0613
11
6.99799
21
-3.0613
0
LINE
8
BLACK
6
CONTINUOUS
10
6.99799
20
-3.0613
11
7.00157
21
-3.06201
0
LINE
8
BLACK
6
CONTINUOUS
10
7.07342
20
-3.06201
11
7.07645
21
-3.06404
0
LINE
8
BLACK
6
CONTINUOUS
10
7.07645
20
-3.06404
11
7.07848
21
-3.06707
0
LINE
8
BLACK
6
CONTINUOUS
10
7.07848
20
-3.06707
11
7.07919
21
-3.07065
0
LINE
8
BLACK
6
CONTINUOUS
10
7.07919
20
-3.07065
11
7.07919
21
-3.08935
0
LINE
8
BLACK
6
CONTINUOUS
10
7.07919
20
-3.08935
11
7.07848
21
-3.09293
0
LINE
8
BLACK
6
CONTINUOUS
10
7.07848
20
-3.09293
11
7.07645
21
-3.09596
0
LINE
8
BLACK
6
CONTINUOUS
10
7.07645
20
-3.09596
11
7.07342
21
-3.09799
0
LINE
8
BLACK
6
CONTINUOUS
10
7.07342
20
-3.09799
11
7.06984
21
-3.0987
0
LINE
8
BLACK
6
CONTINUOUS
10
7.06984
20
-3.0987
11
7.05016
21
-3.0987
0
LINE
8
BLACK
6
CONTINUOUS
10
7.05016
20
-3.0987
11
7.04658
21
-3.09799
0
LINE
8
BLACK
6
CONTINUOUS
10
7.04658
20
-3.09799
11
7.04355
21
-3.09596
0
LINE
8
BLACK
6
CONTINUOUS
10
7.04355
20
-3.09596
11
7.04152
21
-3.09293
0
LINE
8
BLACK
6
CONTINUOUS
10
7.04152
20
-3.09293
11
7.04081
21
-3.08935
0
LINE
8
BLACK
6
CONTINUOUS
10
7.04081
20
-3.08935
11
7.04081
21
-3.07065
0
LINE
8
BLACK
6
CONTINUOUS
10
7.04081
20
-3.07065
11
7.04152
21
-3.06707
0
LINE
8
BLACK
6
CONTINUOUS
10
7.04152
20
-3.06707
11
7.04355
21
-3.06404
0
LINE
8
BLACK
6
CONTINUOUS
10
7.04355
20
-3.06404
11
7.04658
21
-3.06201
0
LINE
8
BLACK
6
CONTINUOUS
10
7.04658
20
-3.06201
11
7.05016
21
-3.0613
0
LINE
8
BLACK
6
CONTINUOUS
10
7.05016
20
-3.0613
11
7.06984
21
-3.0613
0
LINE
8
BLACK
6
CONTINUOUS
10
7.06984
20
-3.0613
11
7.07342
21
-3.06201
0
LINE
8
BLACK
6
CONTINUOUS
10
4.66293
20
-2.82337
11
4.66596
21
-2.8254
0
LINE
8
BLACK
6
CONTINUOUS
10
4.66596
20
-2.8254
11
4.66799
21
-2.82843
0
LINE
8
BLACK
6
CONTINUOUS
10
4.66799
20
-2.82843
11
4.6687
21
-2.83201
0
LINE
8
BLACK
6
CONTINUOUS
10
4.6687
20
-2.83201
11
4.6687
21
-2.85169
0
LINE
8
BLACK
6
CONTINUOUS
10
4.6687
20
-2.85169
11
4.66799
21
-2.85527
0
LINE
8
BLACK
6
CONTINUOUS
10
4.66799
20
-2.85527
11
4.66596
21
-2.8583
0
LINE
8
BLACK
6
CONTINUOUS
10
4.66596
20
-2.8583
11
4.66293
21
-2.86033
0
LINE
8
BLACK
6
CONTINUOUS
10
4.66293
20
-2.86033
11
4.65935
21
-2.86104
0
LINE
8
BLACK
6
CONTINUOUS
10
4.65935
20
-2.86104
11
4.64065
21
-2.86104
0
LINE
8
BLACK
6
CONTINUOUS
10
4.64065
20
-2.86104
11
4.63707
21
-2.86033
0
LINE
8
BLACK
6
CONTINUOUS
10
4.63707
20
-2.86033
11
4.63404
21
-2.8583
0
LINE
8
BLACK
6
CONTINUOUS
10
4.63404
20
-2.8583
11
4.63201
21
-2.85527
0
LINE
8
BLACK
6
CONTINUOUS
10
4.63201
20
-2.85527
11
4.6313
21
-2.85169
0
LINE
8
BLACK
6
CONTINUOUS
10
4.6313
20
-2.85169
11
4.6313
21
-2.83201
0
LINE
8
BLACK
6
CONTINUOUS
10
4.6313
20
-2.83201
11
4.63201
21
-2.82843
0
LINE
8
BLACK
6
CONTINUOUS
10
4.63201
20
-2.82843
11
4.63404
21
-2.8254
0
LINE
8
BLACK
6
CONTINUOUS
10
4.63404
20
-2.8254
11
4.63707
21
-2.82337
0
LINE
8
BLACK
6
CONTINUOUS
10
4.63707
20
-2.82337
11
4.64065
21
-2.82266
0
LINE
8
BLACK
6
CONTINUOUS
10
4.64065
20
-2.82266
11
4.65935
21
-2.82266
0
LINE
8
BLACK
6
CONTINUOUS
10
4.65935
20
-2.82266
11
4.66293
21
-2.82337
0
LINE
8
BLACK
6
CONTINUOUS
10
4.66293
20
-2.75152
11
4.66596
21
-2.75355
0
LINE
8
BLACK
6
CONTINUOUS
10
4.66596
20
-2.75355
11
4.66799
21
-2.75658
0
LINE
8
BLACK
6
CONTINUOUS
10
4.66799
20
-2.75658
11
4.6687
21
-2.76016
0
LINE
8
BLACK
6
CONTINUOUS
10
4.6687
20
-2.76016
11
4.6687
21
-2.77984
0
LINE
8
BLACK
6
CONTINUOUS
10
4.6687
20
-2.77984
11
4.66799
21
-2.78342
0
LINE
8
BLACK
6
CONTINUOUS
10
4.66799
20
-2.78342
11
4.66596
21
-2.78645
0
LINE
8
BLACK
6
CONTINUOUS
10
4.66596
20
-2.78645
11
4.66293
21
-2.78848
0
LINE
8
BLACK
6
CONTINUOUS
10
4.66293
20
-2.78848
11
4.65935
21
-2.78919
0
LINE
8
BLACK
6
CONTINUOUS
10
4.65935
20
-2.78919
11
4.64065
21
-2.78919
0
LINE
8
BLACK
6
CONTINUOUS
10
4.64065
20
-2.78919
11
4.63707
21
-2.78848
0
LINE
8
BLACK
6
CONTINUOUS
10
4.63707
20
-2.78848
11
4.63404
21
-2.78645
0
LINE
8
BLACK
6
CONTINUOUS
10
4.63404
20
-2.78645
11
4.63201
21
-2.78342
0
LINE
8
BLACK
6
CONTINUOUS
10
4.63201
20
-2.78342
11
4.6313
21
-2.77984
0
LINE
8
BLACK
6
CONTINUOUS
10
4.6313
20
-2.77984
11
4.6313
21
-2.76016
0
LINE
8
BLACK
6
CONTINUOUS
10
4.6313
20
-2.76016
11
4.63201
21
-2.75658
0
LINE
8
BLACK
6
CONTINUOUS
10
4.63201
20
-2.75658
11
4.63404
21
-2.75355
0
LINE
8
BLACK
6
CONTINUOUS
10
4.63404
20
-2.75355
11
4.63707
21
-2.75152
0
LINE
8
BLACK
6
CONTINUOUS
10
4.63707
20
-2.75152
11
4.64065
21
-2.75081
0
LINE
8
BLACK
6
CONTINUOUS
10
4.64065
20
-2.75081
11
4.65935
21
-2.75081
0
LINE
8
BLACK
6
CONTINUOUS
10
4.65935
20
-2.75081
11
4.66293
21
-2.75152
  0
ENDSEC
  0
EOF
