0
SECTION
2
HEADER
9
$INSUNITS
70
4
9
$ACADVER
1
AC1014
9
$HANDSEED
5
FFFF
0
ENDSEC
0
SECTION
2
TABLES
0
TABLE
2
VPORT
5
8
100
AcDbSymbolTable
0
ENDTAB
0
TABLE
2
LTYPE
5
5
100
AcDbSymbolTable
0
LTYPE
5
14
100
AcDbSymbolTableRecord
100
AcDbLinetypeTableRecord
2
BYBLOCK
70
0
0
LTYPE
5
15
100
AcDbSymbolTableRecord
100
AcDbLinetypeTableRecord
2
BYLAYER
70
0
0
ENDTAB
0
TABLE
2
LAYER
5
2
100
AcDbSymbolTable
70
2
0
LAYER
5
50
100
AcDbSymbolTableRecord
100
AcDbLayerTableRecord
2
0
70
0
6
CONTINUOUS
0
ENDTAB
0
TABLE
2
STYLE
5
3
100
AcDbSymbolTable
70
1
0
STYLE
5
11
100
AcDbSymbolTableRecord
100
AcDbTextStyleTableRecord
2
STANDARD
70
0
0
ENDTAB
0
TABLE
2
VIEW
5
6
100
AcDbSymbolTable
70
0
0
ENDTAB
0
TABLE
2
UCS
5
7
100
AcDbSymbolTable
70
0
0
ENDTAB
0
TABLE
2
APPID
5
9
100
AcDbSymbolTable
70
2
0
APPID
5
12
100
AcDbSymbolTableRecord
100
AcDbRegAppTableRecord
2
ACAD
70
0
0
ENDTAB
0
TABLE
2
DIMSTYLE
5
A
100
AcDbSymbolTable
70
1
0
ENDTAB
0
TABLE
2
BLOCK_RECORD
5
1
100
AcDbSymbolTable
70
1
0
BLOCK_RECORD
5
1F
100
AcDbSymbolTableRecord
100
AcDbBlockTableRecord
2
*MODEL_SPACE
0
BLOCK_RECORD
5
1B
100
AcDbSymbolTableRecord
100
AcDbBlockTableRecord
2
*PAPER_SPACE
0
ENDTAB
0
ENDSEC
0
SECTION
2
BLOCKS
0
BLOCK
5
20
100
AcDbEntity
100
AcDbBlockBegin
2
*MODEL_SPACE
0
ENDBLK
5
21
100
AcDbEntity
100
AcDbBlockEnd
0
BLOCK
5
1C
100
AcDbEntity
100
AcDbBlockBegin
2
*PAPER_SPACE
0
ENDBLK
5
1D
100
AcDbEntity
100
AcDbBlockEnd
0
ENDSEC
0
SECTION
2
ENTITIES
0
ARC
5
100
100
AcDbEntity
8
0
100
AcDbCircle
10
-10.550000000000166
20
-28.704999999999238
30
0
40
3.0000000000000049
210
-0
220
0
230
1
100
AcDbArc
50
0
51
89.999999999999972
0
LINE
5
101
100
AcDbEntity
8
0
100
AcDbLine
10
-7.5500000000001606
20
-28.704999999999234
30
0
11
-7.5500000000001597
21
-32.958999999999222
31
0
0
ARC
5
102
100
AcDbEntity
8
0
100
AcDbCircle
10
-10.550000000000161
20
-32.958999999999222
30
0
40
3.0000000000000071
210
0
220
0
230
1
100
AcDbArc
50
-89.999999999999943
51
0
0
ARC
5
103
100
AcDbEntity
8
0
100
AcDbCircle
10
0.44999999999984097
20
-32.958999999999236
30
0
40
2.9999999999999987
210
0
220
0
230
1
100
AcDbArc
50
180
51
270
0
LINE
5
104
100
AcDbEntity
8
0
100
AcDbLine
10
-2.5500000000001588
20
-28.704999999999238
30
0
11
-2.5500000000001579
21
-32.958999999999236
31
0
0
ARC
5
105
100
AcDbEntity
8
0
100
AcDbCircle
10
0.44999999999984164
20
-28.704999999999238
30
0
40
3.0000000000000027
210
0
220
-0
230
1
100
AcDbArc
50
90
51
180
0
LINE
5
106
100
AcDbEntity
8
0
100
AcDbLine
10
0.44999999999984008
20
-35.958999999999229
30
0
11
1.9499999999998441
21
-35.958999999999229
31
0
0
LINE
5
107
100
AcDbEntity
8
0
100
AcDbLine
10
-12.050000000000159
20
-35.958999999999222
30
0
11
-10.550000000000157
21
-35.958999999999229
31
0
0
ARC
5
108
100
AcDbEntity
8
0
100
AcDbCircle
10
1.9499999999998403
20
-32.958999999999229
30
0
40
3.0000000000000027
210
0
220
0
230
1
100
AcDbArc
50
270.00000000000006
51
360
0
ARC
5
109
100
AcDbEntity
8
0
100
AcDbCircle
10
-12.050000000000152
20
-32.958999999999222
30
0
40
3.0000000000000049
210
0
220
0
230
1
100
AcDbArc
50
180
51
269.99999999999983
0
LINE
5
110
100
AcDbEntity
8
0
100
AcDbLine
10
-15.050000000000157
20
-32.958999999999222
30
0
11
-15.050000000000157
21
-28.704999999999234
31
0
0
LINE
5
111
100
AcDbEntity
8
0
100
AcDbLine
10
4.9499999999998447
20
-28.704999999999234
30
0
11
4.9499999999998474
21
-32.958999999999236
31
0
0
ARC
5
112
100
AcDbEntity
8
0
100
AcDbCircle
10
-12.050000000000164
20
-28.704999999999224
30
0
40
2.9999999999999893
210
0
220
-0
230
1
100
AcDbArc
50
89.999999999999801
51
180
0
ARC
5
113
100
AcDbEntity
8
0
100
AcDbCircle
10
1.949999999999843
20
-28.704999999999238
30
0
40
3.0000000000000022
210
-0
220
0
230
1
100
AcDbArc
50
0
51
90
0
LWPOLYLINE
5
114
100
AcDbEntity
8
0
100
AcDbPolyline
90
8
70
1
43
0.0
10
-30.480000000000036
20
-41.910000000000011
42
0.41421356237309453
10
-27.94000000000004
20
-44.45000000000001
10
27.940000000000037
20
-44.45000000000001
42
0.41421356237309503
10
30.480000000000036
20
-41.910000000000018
10
30.480000000000025
20
41.910000000000018
42
0.41421356237309404
10
27.940000000000026
20
44.450000000000003
10
-27.939999999999976
20
44.450000000000003
42
0.41421356237309553
10
-30.479999999999979
20
41.910000000000011
0
CIRCLE
5
115
100
AcDbEntity
8
0
100
AcDbCircle
10
-19.050000000000008
20
41.27500000000002
30
0
40
1.8364200000000008
210
0
220
0
230
1
0
CIRCLE
5
116
100
AcDbEntity
8
0
100
AcDbCircle
10
19.050000000000008
20
-41.274999999999984
30
0
40
1.8364200000000008
210
0
220
0
230
1
0
CIRCLE
5
117
100
AcDbEntity
8
0
100
AcDbCircle
10
19.04999999999999
20
41.27500000000002
30
0
40
1.8364199999999986
210
0
220
0
230
1
0
CIRCLE
5
118
100
AcDbEntity
8
0
100
AcDbCircle
10
-19.050000000000008
20
-41.274999999999984
30
0
40
1.8364200000000008
210
0
220
0
230
1
0
LINE
5
119
100
AcDbEntity
8
0
100
AcDbLine
10
-17.940000000000055
20
-8.4499999999999726
30
0
11
-26.540000000000049
21
-8.4499999999999709
31
0
0
LINE
5
120
100
AcDbEntity
8
0
100
AcDbLine
10
-26.540000000000049
20
-8.4499999999999709
30
0
11
-26.540000000000049
21
8.4500000000000419
31
0
0
LINE
5
121
100
AcDbEntity
8
0
100
AcDbLine
10
-26.540000000000049
20
8.4500000000000419
30
0
11
-17.940000000000055
21
8.4500000000000401
31
0
0
LINE
5
122
100
AcDbEntity
8
0
100
AcDbLine
10
-17.940000000000055
20
8.4500000000000401
30
0
11
-17.940000000000055
21
-8.4499999999999726
31
0
0
LINE
5
123
100
AcDbEntity
8
0
100
AcDbLine
10
7.8399999999997583
20
27.155000000000101
30
0
11
7.8399999999997583
21
35.755000000000102
31
0
0
LINE
5
124
100
AcDbEntity
8
0
100
AcDbLine
10
18.739999999999757
20
27.155000000000101
30
0
11
7.8399999999997583
21
27.155000000000101
31
0
0
LINE
5
125
100
AcDbEntity
8
0
100
AcDbLine
10
18.739999999999757
20
35.755000000000102
30
0
11
18.739999999999757
21
27.155000000000101
31
0
0
LINE
5
126
100
AcDbEntity
8
0
100
AcDbLine
10
7.8399999999997583
20
35.755000000000102
30
0
11
18.739999999999757
21
35.755000000000102
31
0
0
LINE
5
127
100
AcDbEntity
8
0
100
AcDbLine
10
-13.940000000000051
20
35.755000000000102
30
0
11
-13.940000000000056
21
-25.204999999999234
31
0
0
LINE
5
128
100
AcDbEntity
8
0
100
AcDbLine
10
3.8399999999997512
20
-25.204999999999234
30
0
11
3.8399999999997587
21
35.755000000000102
31
0
0
LINE
5
129
100
AcDbEntity
8
0
100
AcDbLine
10
3.8399999999997583
20
35.755000000000102
30
0
11
-13.940000000000051
21
35.755000000000102
31
0
0
LINE
5
130
100
AcDbEntity
8
0
100
AcDbLine
10
-13.940000000000058
20
-25.204999999999234
30
0
11
3.8399999999997503
21
-25.204999999999234
31
0
0
LINE
5
131
100
AcDbEntity
8
0
100
AcDbLine
10
7.8399999999997574
20
23.155000000000104
30
0
11
28.159999999999759
21
23.155000000000104
31
0
0
LINE
5
132
100
AcDbEntity
8
0
100
AcDbLine
10
7.83999999999976
20
-3.5149999999998949
30
0
11
7.8399999999997574
21
23.155000000000104
31
0
0
LINE
5
133
100
AcDbEntity
8
0
100
AcDbLine
10
28.159999999999759
20
23.155000000000104
30
0
11
28.159999999999759
21
-3.5149999999998949
31
0
0
LINE
5
134
100
AcDbEntity
8
0
100
AcDbLine
10
28.159999999999759
20
-3.5149999999998949
30
0
11
7.8399999999997583
21
-3.5149999999998949
31
0
0
LINE
5
135
100
AcDbEntity
8
0
100
AcDbLine
10
7.8399999999997503
20
-7.5149999999998949
30
0
11
25.619999999999749
21
-7.5149999999998949
31
0
0
LINE
5
136
100
AcDbEntity
8
0
100
AcDbLine
10
25.619999999999749
20
-7.5149999999998949
30
0
11
25.619999999999749
21
-32.914999999999893
31
0
0
LINE
5
137
100
AcDbEntity
8
0
100
AcDbLine
10
25.619999999999749
20
-32.914999999999893
30
0
11
7.8399999999997538
21
-32.914999999999893
31
0
0
LINE
5
138
100
AcDbEntity
8
0
100
AcDbLine
10
7.8399999999997547
20
-32.914999999999893
30
0
11
7.8399999999997503
21
-7.514999999999894
31
0
0
LINE
5
139
100
AcDbEntity
8
0
100
AcDbLine
10
1.9499999999998432
20
-25.704999999999238
30
0
11
0.44999999999984192
21
-25.704999999999238
31
0
0
LINE
5
140
100
AcDbEntity
8
0
100
AcDbLine
10
-12.050000000000153
20
-25.704999999999238
30
0
11
-10.550000000000164
21
-25.704999999999238
31
0
0
ENDSEC
0
SECTION
2
OBJECTS
0
DICTIONARY
5
C
100
AcDbDictionary
3
ACAD_GROUP
350
D
3
ACAD_MLINESTYLE
350
17
0
DICTIONARY
5
D
100
AcDbDictionary
0
DICTIONARY
5
1A
330
C
100
AcDbDictionary
0
DICTIONARY
5
17
100
AcDbDictionary
0
ENDSEC
0
EOF
