0
SECTION
2
HEADER
9
$INSUNITS
70
1
9
$ACADVER
1
AC1014
9
$HANDSEED
5
FFFF
0
ENDSEC
0
SECTION
2
TABLES
0
TABLE
2
VPORT
5
8
100
AcDbSymbolTable
0
ENDTAB
0
TABLE
2
LTYPE
5
5
100
AcDbSymbolTable
0
LTYPE
5
14
100
AcDbSymbolTableRecord
100
AcDbLinetypeTableRecord
2
BYBLOCK
70
0
0
LTYPE
5
15
100
AcDbSymbolTableRecord
100
AcDbLinetypeTableRecord
2
BYLAYER
70
0
0
ENDTAB
0
TABLE
2
LAYER
5
2
100
AcDbSymbolTable
70
2
0
LAYER
5
50
100
AcDbSymbolTableRecord
100
AcDbLayerTableRecord
2
0
70
0
6
CONTINUOUS
0
ENDTAB
0
TABLE
2
STYLE
5
3
100
AcDbSymbolTable
70
1
0
STYLE
5
11
100
AcDbSymbolTableRecord
100
AcDbTextStyleTableRecord
2
STANDARD
70
0
0
ENDTAB
0
TABLE
2
VIEW
5
6
100
AcDbSymbolTable
70
0
0
ENDTAB
0
TABLE
2
UCS
5
7
100
AcDbSymbolTable
70
0
0
ENDTAB
0
TABLE
2
APPID
5
9
100
AcDbSymbolTable
70
2
0
APPID
5
12
100
AcDbSymbolTableRecord
100
AcDbRegAppTableRecord
2
ACAD
70
0
0
ENDTAB
0
TABLE
2
DIMSTYLE
5
A
100
AcDbSymbolTable
70
1
0
ENDTAB
0
TABLE
2
BLOCK_RECORD
5
1
100
AcDbSymbolTable
70
1
0
BLOCK_RECORD
5
1F
100
AcDbSymbolTableRecord
100
AcDbBlockTableRecord
2
*MODEL_SPACE
0
BLOCK_RECORD
5
1B
100
AcDbSymbolTableRecord
100
AcDbBlockTableRecord
2
*PAPER_SPACE
0
ENDTAB
0
ENDSEC
0
SECTION
2
BLOCKS
0
BLOCK
5
20
100
AcDbEntity
100
AcDbBlockBegin
2
*MODEL_SPACE
0
ENDBLK
5
21
100
AcDbEntity
100
AcDbBlockEnd
0
BLOCK
5
1C
100
AcDbEntity
100
AcDbBlockBegin
2
*PAPER_SPACE
0
ENDBLK
5
1D
100
AcDbEntity
100
AcDbBlockEnd
0
ENDSEC
0
SECTION
2
ENTITIES
0
ARC
5
100
100
AcDbEntity
8
0
100
AcDbCircle
10
0.42755776427842512
20
-1.0943623480658851
30
0
40
0.11811023622047254
210
-0
220
0
230
1
100
AcDbArc
50
0
51
89.999999999999943
0
LINE
5
101
100
AcDbEntity
8
0
100
AcDbLine
10
0.54566800049889763
20
-1.0943623480658853
30
0
11
0.54566800049889752
21
-1.2618426630265149
31
0
0
ARC
5
102
100
AcDbEntity
8
0
100
AcDbCircle
10
0.42755776427842529
20
-1.2618426630265149
30
0
40
0.11811023622047219
210
0
220
0
230
1
100
AcDbArc
50
-90.000000000000256
51
0
0
ARC
5
103
100
AcDbEntity
8
0
100
AcDbCircle
10
0.86062863042015725
20
-1.2618426630265152
30
0
40
0.11811023622047236
210
0
220
0
230
1
100
AcDbArc
50
180
51
270
0
LINE
5
104
100
AcDbEntity
8
0
100
AcDbLine
10
0.74251839419968502
20
-1.0943623480658853
30
0
11
0.74251839419968491
21
-1.2618426630265152
31
0
0
ARC
5
105
100
AcDbEntity
8
0
100
AcDbCircle
10
0.86062863042015703
20
-1.0943623480658853
30
0
40
0.11811023622047236
210
0
220
-0
230
1
100
AcDbArc
50
89.99999999999973
51
180
0
LINE
5
106
100
AcDbEntity
8
0
100
AcDbLine
10
0.86062863042015725
20
-1.3799528992469876
30
0
11
0.91968374853039359
21
-1.3799528992469876
31
0
0
LINE
5
107
100
AcDbEntity
8
0
100
AcDbLine
10
0.36850264616818879
20
-1.3799528992469872
30
0
11
0.42755776427842479
21
-1.3799528992469872
31
0
0
ARC
5
108
100
AcDbEntity
8
0
100
AcDbCircle
10
0.91968374853039359
20
-1.2618426630265152
30
0
40
0.11811023622047236
210
0
220
0
230
1
100
AcDbArc
50
270
51
360
0
ARC
5
109
100
AcDbEntity
8
0
100
AcDbCircle
10
0.36850264616818906
20
-1.2618426630265147
30
0
40
0.11811023622047266
210
0
220
0
230
1
100
AcDbArc
50
180
51
269.99999999999983
0
LINE
5
110
100
AcDbEntity
8
0
100
AcDbLine
10
0.25039240994771639
20
-1.2618426630265145
30
0
11
0.25039240994771661
21
-1.0943623480658848
31
0
0
LINE
5
111
100
AcDbEntity
8
0
100
AcDbLine
10
1.0377939847508661
20
-1.0943623480658855
30
0
11
1.0377939847508659
21
-1.2618426630265154
31
0
0
ARC
5
112
100
AcDbEntity
8
0
100
AcDbCircle
10
0.36850264616818929
20
-1.0943623480658853
30
0
40
0.11811023622047272
210
0
220
0
230
1
100
AcDbArc
50
90.000000000000099
51
180
0
ARC
5
113
100
AcDbEntity
8
0
100
AcDbCircle
10
0.91968374853039347
20
-1.0943623480658853
30
0
40
0.11811023622047272
210
-0
220
0
230
1
100
AcDbArc
50
0
51
89.999999999999943
0
LWPOLYLINE
5
114
100
AcDbEntity
8
0
100
AcDbPolyline
90
8
70
1
43
0.0
10
-1.2500000000000013
20
-1.6499999999999995
42
0.41421356237309354
10
-1.1500000000000015
20
-1.7499999999999989
10
1.1500000000000008
20
-1.75
42
0.41421356237309453
10
1.2500000000000007
20
-1.6499999999999995
10
1.2500000000000004
20
1.6499999999999995
42
0.41421356237309609
10
1.1500000000000004
20
1.75
10
-1.1499999999999997
20
1.7499999999999996
42
0.41421356237309453
10
-1.2499999999999996
20
1.6499999999999997
0
CIRCLE
5
115
100
AcDbEntity
8
0
100
AcDbCircle
10
-0.75000000000000033
20
1.6250000000000007
30
0
40
0.072300000000000031
210
0
220
0
230
1
0
CIRCLE
5
116
100
AcDbEntity
8
0
100
AcDbCircle
10
0.75000000000000033
20
-1.6249999999999993
30
0
40
0.072300000000000031
210
0
220
0
230
1
0
CIRCLE
5
117
100
AcDbEntity
8
0
100
AcDbCircle
10
0.74999999999999956
20
1.6250000000000007
30
0
40
0.072299999999999934
210
0
220
0
230
1
0
CIRCLE
5
118
100
AcDbEntity
8
0
100
AcDbCircle
10
-0.75000000000000033
20
-1.6249999999999993
30
0
40
0.072300000000000031
210
0
220
0
230
1
0
LINE
5
119
100
AcDbEntity
8
0
100
AcDbLine
10
-0.87204724409448864
20
-0.3326771653543299
30
0
11
-1.2106299212598426
21
-0.3326771653543299
31
0
0
LINE
5
120
100
AcDbEntity
8
0
100
AcDbLine
10
-1.2106299212598426
20
-0.3326771653543299
30
0
11
-1.2106299212598426
21
0.33267716535433201
31
0
0
LINE
5
121
100
AcDbEntity
8
0
100
AcDbLine
10
-1.2106299212598426
20
0.33267716535433201
30
0
11
-0.87204724409448864
21
0.33267716535433201
31
0
0
LINE
5
122
100
AcDbEntity
8
0
100
AcDbLine
10
-0.87204724409448864
20
0.33267716535433201
30
0
11
-0.87204724409448864
21
-0.3326771653543299
31
0
0
LINE
5
123
100
AcDbEntity
8
0
100
AcDbLine
10
-0.21456692913385866
20
-1.7106299212598424
30
0
11
-0.21456692913385866
21
-1.372047244094488
31
0
0
LINE
5
124
100
AcDbEntity
8
0
100
AcDbLine
10
0.21456692913385786
20
-1.7106299212598424
30
0
11
-0.21456692913385866
21
-1.7106299212598424
31
0
0
LINE
5
125
100
AcDbEntity
8
0
100
AcDbLine
10
0.21456692913385786
20
-1.372047244094488
30
0
11
0.21456692913385786
21
-1.7106299212598424
31
0
0
LINE
5
126
100
AcDbEntity
8
0
100
AcDbLine
10
-0.21456692913385866
20
-1.372047244094488
30
0
11
0.21456692913385786
21
-1.372047244094488
31
0
0
LINE
5
127
100
AcDbEntity
8
0
100
AcDbLine
10
0.29409319734929656
20
1.4205982818553486
30
0
11
0.29409319734929545
21
-0.97940171814462496
31
0
0
LINE
5
128
100
AcDbEntity
8
0
100
AcDbLine
10
0.99409319734928792
20
-0.97940171814462529
30
0
11
0.99409319734928914
21
1.4205982818553484
31
0
0
LINE
5
129
100
AcDbEntity
8
0
100
AcDbLine
10
0.99409319734928903
20
1.4205982818553484
30
0
11
0.29409319734929656
21
1.4205982818553486
31
0
0
LINE
5
130
100
AcDbEntity
8
0
100
AcDbLine
10
0.29409319734929545
20
-0.97940171814462496
30
0
11
0.99409319734928792
21
-0.97940171814462529
31
0
0
ENDSEC
0
SECTION
2
OBJECTS
0
DICTIONARY
5
C
100
AcDbDictionary
3
ACAD_GROUP
350
D
3
ACAD_MLINESTYLE
350
17
0
DICTIONARY
5
D
100
AcDbDictionary
0
DICTIONARY
5
1A
330
C
100
AcDbDictionary
0
DICTIONARY
5
17
100
AcDbDictionary
0
ENDSEC
0
EOF
